<svg width="393" height="109" viewBox="0 0 393 109" fill="none" xmlns="http://www.w3.org/2000/svg">
<path d="M62.6928 104.643C57.6112 104.178 52.5258 103.247 47.6977 101.569C47.4573 100.553 46.0188 95.1557 41.8593 91.1278C37.2509 86.6648 31.0669 85.5005 31.0669 85.5005C31.0669 85.5005 32.3739 91.58 36.9429 96.1109C37.1344 96.2955 37.3297 96.4745 37.5269 96.6478C37.4574 96.6045 37.3861 96.5593 37.3166 96.5159C36.9128 96.1768 35.7861 95.2744 34.141 94.3136C31.1758 92.083 28.5374 89.5736 26.2313 86.8513C27.0087 85.0314 28.5599 80.6644 28.0097 75.8132C27.2848 69.4285 23.251 64.583 23.251 64.583C23.251 64.583 20.4041 70.1086 21.0576 76.5197C21.2642 78.3377 21.7393 80.0314 22.3121 81.5235C19.3318 76.8343 17.1966 71.7062 15.9384 66.3803C17.2135 65.0803 20.4116 61.45 21.7468 56.5404C23.3937 50.2725 21.3168 44.3833 21.3168 44.3833C21.3168 44.3833 16.6558 48.5468 14.9694 54.7487C14.823 55.3234 14.7084 55.8961 14.6201 56.4613C14.4342 50.67 15.2492 44.8279 17.1046 39.2231C18.806 38.7785 23.4801 37.2996 27.174 33.7107C31.6998 29.1609 32.9842 23.0324 32.9842 23.0324C32.9842 23.0324 26.8566 24.2287 22.2557 28.7012C22.0379 28.9217 21.8294 29.144 21.6248 29.37C23.8858 25.6021 26.7026 22.049 30.0885 18.8218C31.6603 19.0516 36.68 19.5547 41.6283 17.5709C47.5475 15.1142 51.0817 9.88999 51.0817 9.88999C51.0817 9.88999 44.9578 8.60325 39.0386 11.058C33.1195 13.5147 29.5852 18.7389 29.5852 18.7389C29.5852 18.7389 29.6885 18.7596 29.8763 18.7898C28.7815 19.7449 27.7411 20.7359 26.7571 21.7589C27.5533 20.3591 28.282 18.7427 28.7571 16.9567C30.4134 10.7491 28.3439 4.82593 28.3439 4.82593C28.3439 4.82593 23.6416 9.02149 21.9834 15.2291C20.5318 20.6662 21.9402 25.8866 22.3121 27.098C19.9065 30.4571 17.991 34.0535 16.56 37.7894C17.0896 35.6719 17.8163 31.4575 16.7027 27.0773C15.1178 20.8508 10.4643 16.6006 10.4643 16.6006C10.4643 16.6006 8.32538 22.5012 9.91034 28.7257C11.3751 34.4812 15.4614 38.5449 16.0699 39.127C14.8286 42.6839 14.0155 46.3539 13.623 50.0596C13.4446 48.7145 13.1328 47.294 12.622 45.8735C10.3761 39.7958 5.30006 36.1768 5.30006 36.1768C5.30006 36.1768 3.87473 42.2732 6.05123 48.3188C8.33102 54.3267 13.3732 58.0155 13.3732 58.0155C13.3732 58.0155 13.3882 57.9477 13.4126 57.8252C13.5385 60.2763 13.8446 62.7179 14.3291 65.1274C13.5141 63.7352 12.4774 62.2921 11.1685 60.9865C6.62775 56.4556 0.475708 55.3064 0.475708 55.3064C0.475708 55.3064 1.76208 61.4876 6.30287 66.0185C9.76011 69.4681 14.1488 70.9564 16.0474 71.4707C17.0877 74.502 18.4267 77.4409 20.0586 80.2405C18.6032 78.9048 16.7422 77.5182 14.5281 76.5197C8.68594 73.8859 2.52639 74.9862 2.52639 74.9862C2.52639 74.9862 5.901 80.3158 11.7432 82.9496C16.299 85.005 21.0501 84.7865 22.9205 84.5905C25.0144 87.4296 27.4463 90.0747 30.2087 92.4579C29.0519 92.0397 27.7956 91.6949 26.4641 91.4952C20.1299 90.5457 14.4962 93.2812 14.4962 93.2812C14.4962 93.2812 19.1835 97.4937 25.5177 98.4432C30.2688 99.1554 34.6255 97.7952 36.5053 97.0698C37.6396 97.7688 38.8114 98.4319 40.0264 99.0517C43.5287 100.838 47.2676 102.166 51.093 103.04C54.9126 103.89 58.7699 104.596 62.6872 104.768C63.9886 104.824 65.2956 104.868 66.5914 104.722C65.2937 104.824 63.9905 104.738 62.6947 104.64L62.6928 104.643Z" fill="#EBEDF0"/>
<path d="M96.053 10.6045V24.8232H93.1233V10.6045H96.053ZM101.717 16.6787V18.9639H95.2522V16.6787H101.717ZM102.401 10.6045V12.8994H95.2522V10.6045H102.401ZM109.895 22.4404V17.7334C109.895 17.3949 109.84 17.1051 109.729 16.8643C109.619 16.6169 109.446 16.4248 109.212 16.2881C108.984 16.1514 108.688 16.083 108.323 16.083C108.01 16.083 107.74 16.1383 107.512 16.249C107.285 16.3532 107.109 16.5062 106.985 16.708C106.861 16.9033 106.8 17.1344 106.8 17.4014H103.987C103.987 16.9521 104.091 16.5257 104.3 16.1221C104.508 15.7184 104.811 15.3636 105.208 15.0576C105.605 14.7451 106.077 14.501 106.624 14.3252C107.177 14.1494 107.796 14.0615 108.479 14.0615C109.3 14.0615 110.029 14.1982 110.667 14.4717C111.305 14.7451 111.806 15.1553 112.171 15.7021C112.542 16.249 112.727 16.9326 112.727 17.7529V22.2744C112.727 22.8538 112.763 23.3291 112.835 23.7002C112.906 24.0648 113.01 24.3838 113.147 24.6572V24.8232H110.305C110.169 24.5368 110.064 24.1787 109.993 23.749C109.928 23.3128 109.895 22.8766 109.895 22.4404ZM110.266 18.3877L110.286 19.9795H108.714C108.342 19.9795 108.02 20.0218 107.747 20.1064C107.473 20.1911 107.249 20.3115 107.073 20.4678C106.897 20.6175 106.767 20.7933 106.682 20.9951C106.604 21.1969 106.565 21.4183 106.565 21.6592C106.565 21.9001 106.62 22.1182 106.731 22.3135C106.842 22.5023 107.001 22.652 107.21 22.7627C107.418 22.8669 107.662 22.9189 107.942 22.9189C108.365 22.9189 108.733 22.8343 109.046 22.665C109.358 22.4958 109.599 22.2874 109.768 22.04C109.944 21.7926 110.035 21.5583 110.042 21.3369L110.784 22.5283C110.68 22.7952 110.536 23.0719 110.354 23.3584C110.178 23.6449 109.954 23.915 109.68 24.1689C109.407 24.4163 109.078 24.6214 108.694 24.7842C108.31 24.9404 107.854 25.0186 107.327 25.0186C106.656 25.0186 106.048 24.8851 105.501 24.6182C104.96 24.3447 104.531 23.9704 104.212 23.4951C103.899 23.0133 103.743 22.4665 103.743 21.8545C103.743 21.3011 103.847 20.8096 104.055 20.3799C104.264 19.9502 104.57 19.5889 104.973 19.2959C105.383 18.9964 105.895 18.7718 106.507 18.6221C107.119 18.4658 107.828 18.3877 108.635 18.3877H110.266ZM121.208 21.9033C121.208 21.7015 121.15 21.5192 121.032 21.3564C120.915 21.1937 120.697 21.0439 120.378 20.9072C120.066 20.764 119.613 20.6338 119.021 20.5166C118.487 20.3994 117.989 20.2529 117.526 20.0771C117.071 19.8949 116.674 19.6768 116.335 19.4229C116.003 19.1689 115.743 18.8695 115.554 18.5244C115.365 18.1729 115.271 17.7725 115.271 17.3232C115.271 16.8805 115.365 16.4639 115.554 16.0732C115.749 15.6826 116.026 15.3376 116.384 15.0381C116.748 14.7321 117.191 14.4945 117.712 14.3252C118.239 14.1494 118.832 14.0615 119.489 14.0615C120.407 14.0615 121.195 14.208 121.853 14.501C122.517 14.7939 123.025 15.1976 123.376 15.7119C123.734 16.2197 123.913 16.7992 123.913 17.4502H121.101C121.101 17.1768 121.042 16.9326 120.925 16.7178C120.814 16.4964 120.638 16.3239 120.398 16.2002C120.163 16.07 119.857 16.0049 119.48 16.0049C119.167 16.0049 118.897 16.0602 118.669 16.1709C118.441 16.2751 118.265 16.4183 118.142 16.6006C118.025 16.7764 117.966 16.9717 117.966 17.1865C117.966 17.3493 117.998 17.4958 118.064 17.626C118.135 17.7497 118.249 17.8636 118.405 17.9678C118.562 18.0719 118.763 18.1696 119.011 18.2607C119.265 18.3454 119.577 18.4235 119.948 18.4951C120.71 18.6514 121.39 18.8564 121.989 19.1104C122.588 19.3577 123.064 19.6963 123.415 20.126C123.767 20.5492 123.942 21.1058 123.942 21.7959C123.942 22.2646 123.838 22.6943 123.63 23.085C123.422 23.4756 123.122 23.8174 122.732 24.1104C122.341 24.3968 121.872 24.6214 121.325 24.7842C120.785 24.9404 120.176 25.0186 119.499 25.0186C118.516 25.0186 117.683 24.8428 116.999 24.4912C116.322 24.1396 115.808 23.6937 115.456 23.1533C115.111 22.6064 114.939 22.0465 114.939 21.4736H117.605C117.618 21.8577 117.715 22.167 117.898 22.4014C118.086 22.6357 118.324 22.805 118.61 22.9092C118.903 23.0133 119.219 23.0654 119.558 23.0654C119.922 23.0654 120.225 23.0166 120.466 22.9189C120.707 22.8148 120.889 22.6781 121.013 22.5088C121.143 22.333 121.208 22.1312 121.208 21.9033ZM131.544 14.2568V16.249H125.392V14.2568H131.544ZM126.916 11.6494H129.728V21.6396C129.728 21.9456 129.767 22.18 129.845 22.3428C129.93 22.5055 130.054 22.6195 130.216 22.6846C130.379 22.7432 130.584 22.7725 130.832 22.7725C131.007 22.7725 131.164 22.766 131.3 22.7529C131.444 22.7334 131.564 22.7139 131.662 22.6943L131.671 24.7646C131.43 24.8428 131.17 24.9046 130.89 24.9502C130.61 24.9958 130.301 25.0186 129.962 25.0186C129.344 25.0186 128.804 24.9176 128.341 24.7158C127.886 24.5075 127.534 24.1755 127.287 23.7197C127.039 23.264 126.916 22.665 126.916 21.9229V11.6494ZM138.609 25.0186C137.789 25.0186 137.053 24.8883 136.402 24.6279C135.751 24.361 135.198 23.9932 134.742 23.5244C134.293 23.0557 133.948 22.512 133.707 21.8936C133.466 21.2686 133.346 20.6045 133.346 19.9014V19.5107C133.346 18.71 133.46 17.9775 133.687 17.3135C133.915 16.6494 134.241 16.0732 134.664 15.585C135.094 15.0967 135.614 14.7223 136.226 14.4619C136.838 14.195 137.529 14.0615 138.297 14.0615C139.045 14.0615 139.71 14.1852 140.289 14.4326C140.868 14.68 141.353 15.0316 141.744 15.4873C142.141 15.943 142.441 16.4899 142.642 17.1279C142.844 17.7594 142.945 18.4626 142.945 19.2373V20.4092H134.547V18.5342H140.182V18.3193C140.182 17.9287 140.11 17.5804 139.967 17.2744C139.83 16.9619 139.622 16.7145 139.342 16.5322C139.062 16.3499 138.704 16.2588 138.267 16.2588C137.896 16.2588 137.577 16.3402 137.31 16.5029C137.044 16.6657 136.825 16.8936 136.656 17.1865C136.493 17.4795 136.37 17.8245 136.285 18.2217C136.207 18.6123 136.168 19.042 136.168 19.5107V19.9014C136.168 20.3245 136.226 20.7152 136.344 21.0732C136.467 21.4313 136.64 21.7406 136.861 22.001C137.089 22.2614 137.363 22.4632 137.682 22.6064C138.007 22.7497 138.375 22.8213 138.785 22.8213C139.293 22.8213 139.765 22.7236 140.201 22.5283C140.644 22.3265 141.025 22.0238 141.344 21.6201L142.711 23.1045C142.489 23.4235 142.187 23.7295 141.803 24.0225C141.425 24.3154 140.969 24.5563 140.435 24.7451C139.902 24.9274 139.293 25.0186 138.609 25.0186ZM150.86 21.9033C150.86 21.7015 150.801 21.5192 150.684 21.3564C150.567 21.1937 150.349 21.0439 150.03 20.9072C149.717 20.764 149.265 20.6338 148.672 20.5166C148.138 20.3994 147.64 20.2529 147.178 20.0771C146.722 19.8949 146.325 19.6768 145.987 19.4229C145.655 19.1689 145.394 18.8695 145.205 18.5244C145.017 18.1729 144.922 17.7725 144.922 17.3232C144.922 16.8805 145.017 16.4639 145.205 16.0732C145.401 15.6826 145.677 15.3376 146.035 15.0381C146.4 14.7321 146.843 14.4945 147.364 14.3252C147.891 14.1494 148.483 14.0615 149.141 14.0615C150.059 14.0615 150.847 14.208 151.504 14.501C152.168 14.7939 152.676 15.1976 153.028 15.7119C153.386 16.2197 153.565 16.7992 153.565 17.4502H150.752C150.752 17.1768 150.694 16.9326 150.576 16.7178C150.466 16.4964 150.29 16.3239 150.049 16.2002C149.815 16.07 149.509 16.0049 149.131 16.0049C148.819 16.0049 148.548 16.0602 148.321 16.1709C148.093 16.2751 147.917 16.4183 147.793 16.6006C147.676 16.7764 147.617 16.9717 147.617 17.1865C147.617 17.3493 147.65 17.4958 147.715 17.626C147.787 17.7497 147.901 17.8636 148.057 17.9678C148.213 18.0719 148.415 18.1696 148.662 18.2607C148.916 18.3454 149.229 18.4235 149.6 18.4951C150.362 18.6514 151.042 18.8564 151.641 19.1104C152.24 19.3577 152.715 19.6963 153.067 20.126C153.418 20.5492 153.594 21.1058 153.594 21.7959C153.594 22.2646 153.49 22.6943 153.282 23.085C153.073 23.4756 152.774 23.8174 152.383 24.1104C151.992 24.3968 151.524 24.6214 150.977 24.7842C150.436 24.9404 149.828 25.0186 149.151 25.0186C148.168 25.0186 147.334 24.8428 146.651 24.4912C145.974 24.1396 145.459 23.6937 145.108 23.1533C144.763 22.6064 144.59 22.0465 144.59 21.4736H147.256C147.269 21.8577 147.367 22.167 147.549 22.4014C147.738 22.6357 147.976 22.805 148.262 22.9092C148.555 23.0133 148.871 23.0654 149.209 23.0654C149.574 23.0654 149.877 23.0166 150.117 22.9189C150.358 22.8148 150.541 22.6781 150.664 22.5088C150.795 22.333 150.86 22.1312 150.86 21.9033ZM161.196 14.2568V16.249H155.044V14.2568H161.196ZM156.567 11.6494H159.38V21.6396C159.38 21.9456 159.419 22.18 159.497 22.3428C159.581 22.5055 159.705 22.6195 159.868 22.6846C160.031 22.7432 160.236 22.7725 160.483 22.7725C160.659 22.7725 160.815 22.766 160.952 22.7529C161.095 22.7334 161.216 22.7139 161.313 22.6943L161.323 24.7646C161.082 24.8428 160.822 24.9046 160.542 24.9502C160.262 24.9958 159.953 25.0186 159.614 25.0186C158.995 25.0186 158.455 24.9176 157.993 24.7158C157.537 24.5075 157.186 24.1755 156.938 23.7197C156.691 23.264 156.567 22.665 156.567 21.9229V11.6494ZM180.423 17.3916V23.0264C180.202 23.2933 179.86 23.583 179.398 23.8955C178.936 24.2015 178.34 24.4652 177.611 24.6865C176.882 24.9079 176 25.0186 174.964 25.0186C174.046 25.0186 173.21 24.8688 172.455 24.5693C171.699 24.2633 171.048 23.8174 170.501 23.2314C169.961 22.6455 169.544 21.9294 169.251 21.083C168.958 20.2301 168.812 19.2568 168.812 18.1631V17.2744C168.812 16.1807 168.952 15.2074 169.232 14.3545C169.518 13.5016 169.925 12.7822 170.453 12.1963C170.98 11.6104 171.608 11.1644 172.337 10.8584C173.067 10.5524 173.877 10.3994 174.769 10.3994C176.006 10.3994 177.022 10.6012 177.816 11.0049C178.61 11.402 179.216 11.9554 179.632 12.665C180.056 13.3682 180.316 14.1755 180.414 15.0869H177.572C177.5 14.6051 177.363 14.1852 177.162 13.8271C176.96 13.4691 176.67 13.1891 176.292 12.9873C175.921 12.7855 175.44 12.6846 174.847 12.6846C174.359 12.6846 173.923 12.7855 173.539 12.9873C173.161 13.1826 172.842 13.4723 172.582 13.8564C172.321 14.2406 172.123 14.7158 171.986 15.2822C171.849 15.8486 171.781 16.5062 171.781 17.2549V18.1631C171.781 18.9053 171.852 19.5628 171.996 20.1357C172.139 20.7021 172.35 21.1807 172.63 21.5713C172.917 21.9554 173.268 22.2451 173.685 22.4404C174.102 22.6357 174.587 22.7334 175.14 22.7334C175.602 22.7334 175.986 22.6943 176.292 22.6162C176.605 22.5381 176.856 22.4437 177.044 22.333C177.24 22.2158 177.389 22.1051 177.494 22.001V19.4814H174.818V17.3916H180.423ZM186.023 16.5615V24.8232H183.211V14.2568H185.857L186.023 16.5615ZM189.207 14.1885L189.158 16.7959C189.021 16.7764 188.855 16.7601 188.66 16.7471C188.471 16.7275 188.299 16.7178 188.142 16.7178C187.745 16.7178 187.4 16.7699 187.107 16.874C186.821 16.9717 186.58 17.1182 186.385 17.3135C186.196 17.5088 186.053 17.7464 185.955 18.0264C185.864 18.3063 185.812 18.6253 185.799 18.9834L185.232 18.8076C185.232 18.124 185.301 17.4958 185.437 16.9229C185.574 16.3434 185.773 15.8389 186.033 15.4092C186.3 14.9795 186.626 14.6475 187.01 14.4131C187.394 14.1787 187.833 14.0615 188.328 14.0615C188.484 14.0615 188.644 14.0745 188.807 14.1006C188.969 14.1201 189.103 14.1494 189.207 14.1885ZM190.393 19.6475V19.4424C190.393 18.6676 190.504 17.9548 190.725 17.3037C190.946 16.6462 191.269 16.0765 191.692 15.5947C192.115 15.113 192.636 14.7386 193.254 14.4717C193.873 14.1982 194.582 14.0615 195.383 14.0615C196.184 14.0615 196.897 14.1982 197.522 14.4717C198.147 14.7386 198.671 15.113 199.094 15.5947C199.524 16.0765 199.849 16.6462 200.071 17.3037C200.292 17.9548 200.403 18.6676 200.403 19.4424V19.6475C200.403 20.4157 200.292 21.1286 200.071 21.7861C199.849 22.4372 199.524 23.0068 199.094 23.4951C198.671 23.9769 198.15 24.3512 197.532 24.6182C196.913 24.8851 196.203 25.0186 195.403 25.0186C194.602 25.0186 193.889 24.8851 193.264 24.6182C192.645 24.3512 192.121 23.9769 191.692 23.4951C191.269 23.0068 190.946 22.4372 190.725 21.7861C190.504 21.1286 190.393 20.4157 190.393 19.6475ZM193.205 19.4424V19.6475C193.205 20.0902 193.244 20.5036 193.323 20.8877C193.401 21.2718 193.524 21.6104 193.694 21.9033C193.869 22.1898 194.097 22.4144 194.377 22.5771C194.657 22.7399 194.999 22.8213 195.403 22.8213C195.793 22.8213 196.129 22.7399 196.408 22.5771C196.688 22.4144 196.913 22.1898 197.082 21.9033C197.252 21.6104 197.375 21.2718 197.453 20.8877C197.538 20.5036 197.58 20.0902 197.58 19.6475V19.4424C197.58 19.0127 197.538 18.609 197.453 18.2314C197.375 17.8473 197.248 17.5088 197.073 17.2158C196.903 16.9163 196.679 16.682 196.399 16.5127C196.119 16.3434 195.78 16.2588 195.383 16.2588C194.986 16.2588 194.647 16.3434 194.367 16.5127C194.094 16.682 193.869 16.9163 193.694 17.2158C193.524 17.5088 193.401 17.8473 193.323 18.2314C193.244 18.609 193.205 19.0127 193.205 19.4424ZM205.749 22.0889L207.946 14.2568H209.733L209.157 17.333L206.96 24.8232H205.466L205.749 22.0889ZM204.635 14.2568L206.208 22.0791L206.354 24.8232H204.596L201.921 14.2568H204.635ZM211.745 21.9521L213.278 14.2568H216.003L213.327 24.8232H211.579L211.745 21.9521ZM209.977 14.2568L212.165 22.0303L212.467 24.8232H210.964L208.766 17.3428L208.21 14.2568H209.977ZM220.987 14.2568V24.8232H218.165V14.2568H220.987ZM217.989 11.5029C217.989 11.0928 218.133 10.7542 218.419 10.4873C218.705 10.2204 219.09 10.0869 219.571 10.0869C220.047 10.0869 220.428 10.2204 220.714 10.4873C221.007 10.7542 221.153 11.0928 221.153 11.5029C221.153 11.9131 221.007 12.2516 220.714 12.5186C220.428 12.7855 220.047 12.9189 219.571 12.9189C219.09 12.9189 218.705 12.7855 218.419 12.5186C218.133 12.2516 217.989 11.9131 217.989 11.5029ZM226.666 16.5127V24.8232H223.853V14.2568H226.49L226.666 16.5127ZM226.255 19.1689H225.494C225.494 18.3877 225.595 17.6846 225.796 17.0596C225.998 16.4281 226.281 15.891 226.646 15.4482C227.011 14.999 227.444 14.6572 227.945 14.4229C228.453 14.182 229.019 14.0615 229.644 14.0615C230.139 14.0615 230.591 14.1331 231.001 14.2764C231.412 14.4196 231.763 14.6475 232.056 14.96C232.356 15.2725 232.583 15.6859 232.74 16.2002C232.903 16.7145 232.984 17.3428 232.984 18.085V24.8232H230.152V18.0752C230.152 17.6064 230.087 17.2419 229.957 16.9814C229.826 16.721 229.634 16.5387 229.38 16.4346C229.133 16.3239 228.827 16.2686 228.462 16.2686C228.085 16.2686 227.756 16.3434 227.476 16.4932C227.203 16.6429 226.975 16.8512 226.792 17.1182C226.617 17.3786 226.483 17.6846 226.392 18.0361C226.301 18.3877 226.255 18.7653 226.255 19.1689ZM242.412 14.2568H244.961V24.4717C244.961 25.4352 244.746 26.2523 244.316 26.9229C243.893 27.5999 243.301 28.111 242.539 28.4561C241.777 28.8076 240.892 28.9834 239.883 28.9834C239.44 28.9834 238.971 28.9248 238.476 28.8076C237.988 28.6904 237.519 28.5081 237.07 28.2607C236.627 28.0133 236.256 27.7008 235.957 27.3232L237.197 25.6631C237.523 26.0407 237.9 26.3337 238.33 26.542C238.76 26.7568 239.235 26.8643 239.756 26.8643C240.264 26.8643 240.693 26.7699 241.045 26.5811C241.396 26.3988 241.667 26.1286 241.855 25.7705C242.044 25.4189 242.139 24.9925 242.139 24.4912V16.6982L242.412 14.2568ZM235.303 19.667V19.4619C235.303 18.6546 235.4 17.9222 235.596 17.2646C235.797 16.6006 236.081 16.0309 236.445 15.5557C236.816 15.0804 237.266 14.7126 237.793 14.4521C238.32 14.1917 238.916 14.0615 239.58 14.0615C240.283 14.0615 240.872 14.1917 241.348 14.4521C241.823 14.7126 242.213 15.0837 242.519 15.5654C242.825 16.0407 243.063 16.6038 243.232 17.2549C243.408 17.8994 243.545 18.6058 243.642 19.374V19.8232C243.545 20.5589 243.398 21.2425 243.203 21.874C243.008 22.5055 242.751 23.0589 242.432 23.5342C242.113 24.0029 241.715 24.3675 241.24 24.6279C240.771 24.8883 240.211 25.0186 239.56 25.0186C238.909 25.0186 238.32 24.8851 237.793 24.6182C237.272 24.3512 236.826 23.9769 236.455 23.4951C236.084 23.0133 235.797 22.4469 235.596 21.7959C235.4 21.1449 235.303 20.4352 235.303 19.667ZM238.115 19.4619V19.667C238.115 20.1032 238.157 20.5101 238.242 20.8877C238.327 21.2653 238.457 21.6006 238.633 21.8936C238.815 22.18 239.04 22.4046 239.307 22.5674C239.58 22.7236 239.902 22.8018 240.273 22.8018C240.788 22.8018 241.208 22.6943 241.533 22.4795C241.859 22.2581 242.103 21.9554 242.266 21.5713C242.428 21.1872 242.523 20.7445 242.549 20.2432V18.9639C242.536 18.5537 242.48 18.1859 242.383 17.8604C242.285 17.5283 242.148 17.2451 241.973 17.0107C241.797 16.7764 241.569 16.5941 241.289 16.4639C241.009 16.3337 240.677 16.2686 240.293 16.2686C239.922 16.2686 239.6 16.3532 239.326 16.5225C239.059 16.6852 238.835 16.9098 238.652 17.1963C238.476 17.4827 238.343 17.8213 238.252 18.2119C238.161 18.596 238.115 19.0127 238.115 19.4619ZM254.842 10.6045H257.323L260.975 21.0439L264.628 10.6045H267.108L261.971 24.8232H259.979L254.842 10.6045ZM253.505 10.6045H255.975L256.425 20.7803V24.8232H253.505V10.6045ZM265.975 10.6045H268.456V24.8232H265.526V20.7803L265.975 10.6045ZM277.698 22.2939V14.2568H280.511V24.8232H277.864L277.698 22.2939ZM278.011 20.126L278.841 20.1064C278.841 20.8096 278.76 21.4639 278.597 22.0693C278.434 22.6683 278.19 23.1891 277.864 23.6318C277.539 24.068 277.129 24.4098 276.634 24.6572C276.139 24.8981 275.556 25.0186 274.886 25.0186C274.372 25.0186 273.896 24.9469 273.46 24.8037C273.03 24.654 272.659 24.4229 272.347 24.1104C272.041 23.7913 271.8 23.3844 271.624 22.8896C271.455 22.3883 271.37 21.7861 271.37 21.083V14.2568H274.183V21.1025C274.183 21.415 274.219 21.6787 274.29 21.8936C274.368 22.1084 274.476 22.2842 274.612 22.4209C274.749 22.5576 274.909 22.6553 275.091 22.7139C275.28 22.7725 275.488 22.8018 275.716 22.8018C276.295 22.8018 276.751 22.6846 277.083 22.4502C277.422 22.2158 277.659 21.8968 277.796 21.4932C277.939 21.083 278.011 20.6273 278.011 20.126ZM286.228 9.82324V24.8232H283.406V9.82324H286.228ZM294.328 14.2568V16.249H288.176V14.2568H294.328ZM289.699 11.6494H292.512V21.6396C292.512 21.9456 292.551 22.18 292.629 22.3428C292.713 22.5055 292.837 22.6195 293 22.6846C293.163 22.7432 293.368 22.7725 293.615 22.7725C293.791 22.7725 293.947 22.766 294.084 22.7529C294.227 22.7334 294.348 22.7139 294.445 22.6943L294.455 24.7646C294.214 24.8428 293.954 24.9046 293.674 24.9502C293.394 24.9958 293.085 25.0186 292.746 25.0186C292.127 25.0186 291.587 24.9176 291.125 24.7158C290.669 24.5075 290.318 24.1755 290.07 23.7197C289.823 23.264 289.699 22.665 289.699 21.9229V11.6494ZM299.498 14.2568V24.8232H296.676V14.2568H299.498ZM296.5 11.5029C296.5 11.0928 296.644 10.7542 296.93 10.4873C297.216 10.2204 297.601 10.0869 298.082 10.0869C298.558 10.0869 298.938 10.2204 299.225 10.4873C299.518 10.7542 299.664 11.0928 299.664 11.5029C299.664 11.9131 299.518 12.2516 299.225 12.5186C298.938 12.7855 298.558 12.9189 298.082 12.9189C297.601 12.9189 297.216 12.7855 296.93 12.5186C296.644 12.2516 296.5 11.9131 296.5 11.5029ZM124.718 39.0361L120.851 50.8232H117.736L123.019 36.6045H125.001L124.718 39.0361ZM127.931 50.8232L124.054 39.0361L123.742 36.6045H125.744L131.056 50.8232H127.931ZM127.755 45.5303V47.8252H120.246V45.5303H127.755ZM138.512 47.9033C138.512 47.7015 138.453 47.5192 138.336 47.3564C138.219 47.1937 138.001 47.0439 137.682 46.9072C137.369 46.764 136.917 46.6338 136.324 46.5166C135.79 46.3994 135.292 46.2529 134.83 46.0771C134.374 45.8949 133.977 45.6768 133.639 45.4229C133.307 45.1689 133.046 44.8695 132.857 44.5244C132.669 44.1729 132.574 43.7725 132.574 43.3232C132.574 42.8805 132.669 42.4639 132.857 42.0732C133.053 41.6826 133.329 41.3376 133.687 41.0381C134.052 40.7321 134.495 40.4945 135.016 40.3252C135.543 40.1494 136.135 40.0615 136.793 40.0615C137.711 40.0615 138.499 40.208 139.156 40.501C139.82 40.7939 140.328 41.1976 140.68 41.7119C141.038 42.2197 141.217 42.7992 141.217 43.4502H138.404C138.404 43.1768 138.346 42.9326 138.228 42.7178C138.118 42.4964 137.942 42.3239 137.701 42.2002C137.467 42.07 137.161 42.0049 136.783 42.0049C136.471 42.0049 136.2 42.0602 135.973 42.1709C135.745 42.2751 135.569 42.4183 135.445 42.6006C135.328 42.7764 135.269 42.9717 135.269 43.1865C135.269 43.3493 135.302 43.4958 135.367 43.626C135.439 43.7497 135.553 43.8636 135.709 43.9678C135.865 44.0719 136.067 44.1696 136.314 44.2607C136.568 44.3454 136.881 44.4235 137.252 44.4951C138.014 44.6514 138.694 44.8564 139.293 45.1104C139.892 45.3577 140.367 45.6963 140.719 46.126C141.07 46.5492 141.246 47.1058 141.246 47.7959C141.246 48.2646 141.142 48.6943 140.933 49.085C140.725 49.4756 140.426 49.8174 140.035 50.1104C139.644 50.3968 139.176 50.6214 138.629 50.7842C138.088 50.9404 137.48 51.0186 136.803 51.0186C135.82 51.0186 134.986 50.8428 134.303 50.4912C133.626 50.1396 133.111 49.6937 132.76 49.1533C132.415 48.6064 132.242 48.0465 132.242 47.4736H134.908C134.921 47.8577 135.019 48.167 135.201 48.4014C135.39 48.6357 135.628 48.805 135.914 48.9092C136.207 49.0133 136.523 49.0654 136.861 49.0654C137.226 49.0654 137.529 49.0166 137.769 48.9189C138.01 48.8148 138.193 48.6781 138.316 48.5088C138.447 48.333 138.512 48.1312 138.512 47.9033ZM149.385 47.9033C149.385 47.7015 149.326 47.5192 149.209 47.3564C149.092 47.1937 148.874 47.0439 148.555 46.9072C148.242 46.764 147.79 46.6338 147.198 46.5166C146.664 46.3994 146.166 46.2529 145.703 46.0771C145.248 45.8949 144.851 45.6768 144.512 45.4229C144.18 45.1689 143.92 44.8695 143.731 44.5244C143.542 44.1729 143.448 43.7725 143.448 43.3232C143.448 42.8805 143.542 42.4639 143.731 42.0732C143.926 41.6826 144.203 41.3376 144.561 41.0381C144.925 40.7321 145.368 40.4945 145.889 40.3252C146.416 40.1494 147.009 40.0615 147.666 40.0615C148.584 40.0615 149.372 40.208 150.03 40.501C150.694 40.7939 151.201 41.1976 151.553 41.7119C151.911 42.2197 152.09 42.7992 152.09 43.4502H149.278C149.278 43.1768 149.219 42.9326 149.102 42.7178C148.991 42.4964 148.815 42.3239 148.575 42.2002C148.34 42.07 148.034 42.0049 147.657 42.0049C147.344 42.0049 147.074 42.0602 146.846 42.1709C146.618 42.2751 146.442 42.4183 146.319 42.6006C146.201 42.7764 146.143 42.9717 146.143 43.1865C146.143 43.3493 146.175 43.4958 146.241 43.626C146.312 43.7497 146.426 43.8636 146.582 43.9678C146.739 44.0719 146.94 44.1696 147.188 44.2607C147.442 44.3454 147.754 44.4235 148.125 44.4951C148.887 44.6514 149.567 44.8564 150.166 45.1104C150.765 45.3577 151.241 45.6963 151.592 46.126C151.944 46.5492 152.119 47.1058 152.119 47.7959C152.119 48.2646 152.015 48.6943 151.807 49.085C151.599 49.4756 151.299 49.8174 150.908 50.1104C150.518 50.3968 150.049 50.6214 149.502 50.7842C148.962 50.9404 148.353 51.0186 147.676 51.0186C146.693 51.0186 145.86 50.8428 145.176 50.4912C144.499 50.1396 143.985 49.6937 143.633 49.1533C143.288 48.6064 143.116 48.0465 143.116 47.4736H145.782C145.795 47.8577 145.892 48.167 146.075 48.4014C146.263 48.6357 146.501 48.805 146.787 48.9092C147.08 49.0133 147.396 49.0654 147.735 49.0654C148.099 49.0654 148.402 49.0166 148.643 48.9189C148.884 48.8148 149.066 48.6781 149.19 48.5088C149.32 48.333 149.385 48.1312 149.385 47.9033ZM159.409 51.0186C158.589 51.0186 157.853 50.8883 157.202 50.6279C156.551 50.361 155.997 49.9932 155.542 49.5244C155.092 49.0557 154.747 48.512 154.507 47.8936C154.266 47.2686 154.145 46.6045 154.145 45.9014V45.5107C154.145 44.71 154.259 43.9775 154.487 43.3135C154.715 42.6494 155.04 42.0732 155.464 41.585C155.893 41.0967 156.414 40.7223 157.026 40.4619C157.638 40.195 158.328 40.0615 159.096 40.0615C159.845 40.0615 160.509 40.1852 161.089 40.4326C161.668 40.68 162.153 41.0316 162.544 41.4873C162.941 41.943 163.24 42.4899 163.442 43.1279C163.644 43.7594 163.745 44.4626 163.745 45.2373V46.4092H155.346V44.5342H160.981V44.3193C160.981 43.9287 160.91 43.5804 160.766 43.2744C160.63 42.9619 160.421 42.7145 160.141 42.5322C159.861 42.3499 159.503 42.2588 159.067 42.2588C158.696 42.2588 158.377 42.3402 158.11 42.5029C157.843 42.6657 157.625 42.8936 157.456 43.1865C157.293 43.4795 157.169 43.8245 157.085 44.2217C157.007 44.6123 156.967 45.042 156.967 45.5107V45.9014C156.967 46.3245 157.026 46.7152 157.143 47.0732C157.267 47.4313 157.439 47.7406 157.661 48.001C157.889 48.2614 158.162 48.4632 158.481 48.6064C158.807 48.7497 159.175 48.8213 159.585 48.8213C160.092 48.8213 160.564 48.7236 161.001 48.5283C161.443 48.3265 161.824 48.0238 162.143 47.6201L163.51 49.1045C163.289 49.4235 162.986 49.7295 162.602 50.0225C162.225 50.3154 161.769 50.5563 161.235 50.7451C160.701 50.9274 160.092 51.0186 159.409 51.0186ZM171.122 40.2568V42.249H164.97V40.2568H171.122ZM166.493 37.6494H169.306V47.6396C169.306 47.9456 169.345 48.18 169.423 48.3428C169.508 48.5055 169.631 48.6195 169.794 48.6846C169.957 48.7432 170.162 48.7725 170.409 48.7725C170.585 48.7725 170.741 48.766 170.878 48.7529C171.021 48.7334 171.142 48.7139 171.239 48.6943L171.249 50.7646C171.008 50.8428 170.748 50.9046 170.468 50.9502C170.188 50.9958 169.879 51.0186 169.54 51.0186C168.922 51.0186 168.381 50.9176 167.919 50.7158C167.463 50.5075 167.112 50.1755 166.864 49.7197C166.617 49.264 166.493 48.665 166.493 47.9229V37.6494ZM184.646 44.583H180.994L180.975 42.5713H184.041C184.581 42.5713 185.024 42.5029 185.369 42.3662C185.714 42.223 185.971 42.0179 186.141 41.751C186.316 41.4775 186.404 41.1455 186.404 40.7549C186.404 40.3122 186.32 39.9541 186.15 39.6807C185.988 39.4072 185.73 39.2087 185.379 39.085C185.034 38.9613 184.588 38.8994 184.041 38.8994H182.01V50.8232H179.08V36.6045H184.041C184.868 36.6045 185.607 36.6826 186.258 36.8389C186.915 36.9951 187.472 37.2327 187.928 37.5518C188.383 37.8708 188.732 38.2744 188.973 38.7627C189.213 39.2445 189.334 39.8174 189.334 40.4814C189.334 41.0674 189.2 41.6077 188.933 42.1025C188.673 42.5973 188.26 43.001 187.693 43.3135C187.133 43.626 186.401 43.7985 185.496 43.8311L184.646 44.583ZM184.519 50.8232H180.193L181.336 48.5381H184.519C185.034 48.5381 185.454 48.4567 185.779 48.2939C186.105 48.1247 186.346 47.8968 186.502 47.6104C186.658 47.3239 186.736 46.9951 186.736 46.624C186.736 46.2074 186.665 45.846 186.521 45.54C186.385 45.234 186.163 44.9997 185.857 44.8369C185.551 44.6676 185.148 44.583 184.646 44.583H181.824L181.844 42.5713H185.359L186.033 43.3623C186.899 43.3493 187.596 43.5023 188.123 43.8213C188.657 44.1338 189.044 44.5407 189.285 45.042C189.532 45.5433 189.656 46.0804 189.656 46.6533C189.656 47.5648 189.458 48.333 189.06 48.958C188.663 49.5765 188.081 50.042 187.312 50.3545C186.551 50.667 185.62 50.8232 184.519 50.8232ZM195.09 42.5615V50.8232H192.278V40.2568H194.924L195.09 42.5615ZM198.274 40.1885L198.225 42.7959C198.088 42.7764 197.922 42.7601 197.727 42.7471C197.538 42.7275 197.366 42.7178 197.209 42.7178C196.812 42.7178 196.467 42.7699 196.174 42.874C195.888 42.9717 195.647 43.1182 195.451 43.3135C195.263 43.5088 195.119 43.7464 195.022 44.0264C194.931 44.3063 194.879 44.6253 194.866 44.9834L194.299 44.8076C194.299 44.124 194.367 43.4958 194.504 42.9229C194.641 42.3434 194.839 41.8389 195.1 41.4092C195.367 40.9795 195.692 40.6475 196.076 40.4131C196.461 40.1787 196.9 40.0615 197.395 40.0615C197.551 40.0615 197.711 40.0745 197.873 40.1006C198.036 40.1201 198.17 40.1494 198.274 40.1885ZM199.46 45.6475V45.4424C199.46 44.6676 199.57 43.9548 199.792 43.3037C200.013 42.6462 200.335 42.0765 200.758 41.5947C201.182 41.113 201.703 40.7386 202.321 40.4717C202.939 40.1982 203.649 40.0615 204.45 40.0615C205.251 40.0615 205.964 40.1982 206.589 40.4717C207.214 40.7386 207.738 41.113 208.161 41.5947C208.591 42.0765 208.916 42.6462 209.137 43.3037C209.359 43.9548 209.469 44.6676 209.469 45.4424V45.6475C209.469 46.4157 209.359 47.1286 209.137 47.7861C208.916 48.4372 208.591 49.0068 208.161 49.4951C207.738 49.9769 207.217 50.3512 206.598 50.6182C205.98 50.8851 205.27 51.0186 204.469 51.0186C203.669 51.0186 202.956 50.8851 202.331 50.6182C201.712 50.3512 201.188 49.9769 200.758 49.4951C200.335 49.0068 200.013 48.4372 199.792 47.7861C199.57 47.1286 199.46 46.4157 199.46 45.6475ZM202.272 45.4424V45.6475C202.272 46.0902 202.311 46.5036 202.389 46.8877C202.467 47.2718 202.591 47.6104 202.76 47.9033C202.936 48.1898 203.164 48.4144 203.444 48.5771C203.724 48.7399 204.066 48.8213 204.469 48.8213C204.86 48.8213 205.195 48.7399 205.475 48.5771C205.755 48.4144 205.98 48.1898 206.149 47.9033C206.318 47.6104 206.442 47.2718 206.52 46.8877C206.605 46.5036 206.647 46.0902 206.647 45.6475V45.4424C206.647 45.0127 206.605 44.609 206.52 44.2314C206.442 43.8473 206.315 43.5088 206.139 43.2158C205.97 42.9163 205.745 42.682 205.466 42.5127C205.186 42.3434 204.847 42.2588 204.45 42.2588C204.053 42.2588 203.714 42.3434 203.434 42.5127C203.161 42.682 202.936 42.9163 202.76 43.2158C202.591 43.5088 202.467 43.8473 202.389 44.2314C202.311 44.609 202.272 45.0127 202.272 45.4424ZM214.61 35.8135V50.8232H211.798V35.8135H214.61ZM221.271 40.2568L216.681 45.4912L214.22 47.9814L213.194 45.9502L215.148 43.4697L217.892 40.2568H221.271ZM218.351 50.8232L215.226 45.9404L217.169 44.2412L221.593 50.8232H218.351ZM227.75 51.0186C226.929 51.0186 226.194 50.8883 225.542 50.6279C224.891 50.361 224.338 49.9932 223.882 49.5244C223.433 49.0557 223.088 48.512 222.847 47.8936C222.606 47.2686 222.486 46.6045 222.486 45.9014V45.5107C222.486 44.71 222.6 43.9775 222.828 43.3135C223.056 42.6494 223.381 42.0732 223.804 41.585C224.234 41.0967 224.755 40.7223 225.367 40.4619C225.979 40.195 226.669 40.0615 227.437 40.0615C228.186 40.0615 228.85 40.1852 229.429 40.4326C230.009 40.68 230.494 41.0316 230.884 41.4873C231.281 41.943 231.581 42.4899 231.783 43.1279C231.985 43.7594 232.085 44.4626 232.085 45.2373V46.4092H223.687V44.5342H229.322V44.3193C229.322 43.9287 229.25 43.5804 229.107 43.2744C228.97 42.9619 228.762 42.7145 228.482 42.5322C228.202 42.3499 227.844 42.2588 227.408 42.2588C227.037 42.2588 226.718 42.3402 226.451 42.5029C226.184 42.6657 225.966 42.8936 225.796 43.1865C225.634 43.4795 225.51 43.8245 225.425 44.2217C225.347 44.6123 225.308 45.042 225.308 45.5107V45.9014C225.308 46.3245 225.367 46.7152 225.484 47.0732C225.608 47.4313 225.78 47.7406 226.001 48.001C226.229 48.2614 226.503 48.4632 226.822 48.6064C227.147 48.7497 227.515 48.8213 227.925 48.8213C228.433 48.8213 228.905 48.7236 229.341 48.5283C229.784 48.3265 230.165 48.0238 230.484 47.6201L231.851 49.1045C231.63 49.4235 231.327 49.7295 230.943 50.0225C230.565 50.3154 230.11 50.5563 229.576 50.7451C229.042 50.9274 228.433 51.0186 227.75 51.0186ZM237.1 42.5615V50.8232H234.287V40.2568H236.934L237.1 42.5615ZM240.283 40.1885L240.234 42.7959C240.098 42.7764 239.932 42.7601 239.736 42.7471C239.547 42.7275 239.375 42.7178 239.219 42.7178C238.822 42.7178 238.476 42.7699 238.184 42.874C237.897 42.9717 237.656 43.1182 237.461 43.3135C237.272 43.5088 237.129 43.7464 237.031 44.0264C236.94 44.3063 236.888 44.6253 236.875 44.9834L236.309 44.8076C236.309 44.124 236.377 43.4958 236.514 42.9229C236.65 42.3434 236.849 41.8389 237.109 41.4092C237.376 40.9795 237.702 40.6475 238.086 40.4131C238.47 40.1787 238.909 40.0615 239.404 40.0615C239.56 40.0615 239.72 40.0745 239.883 40.1006C240.045 40.1201 240.179 40.1494 240.283 40.1885ZM247.582 48.4404V43.7334C247.582 43.3949 247.527 43.1051 247.416 42.8643C247.306 42.6169 247.133 42.4248 246.899 42.2881C246.671 42.1514 246.375 42.083 246.01 42.083C245.698 42.083 245.427 42.1383 245.2 42.249C244.972 42.3532 244.796 42.5062 244.672 42.708C244.548 42.9033 244.487 43.1344 244.487 43.4014H241.674C241.674 42.9521 241.778 42.5257 241.987 42.1221C242.195 41.7184 242.498 41.3636 242.895 41.0576C243.292 40.7451 243.764 40.501 244.311 40.3252C244.864 40.1494 245.483 40.0615 246.166 40.0615C246.987 40.0615 247.716 40.1982 248.354 40.4717C248.992 40.7451 249.493 41.1553 249.858 41.7021C250.229 42.249 250.414 42.9326 250.414 43.7529V48.2744C250.414 48.8538 250.45 49.3291 250.522 49.7002C250.593 50.0648 250.698 50.3838 250.834 50.6572V50.8232H247.992C247.856 50.5368 247.752 50.1787 247.68 49.749C247.615 49.3128 247.582 48.8766 247.582 48.4404ZM247.953 44.3877L247.973 45.9795H246.401C246.03 45.9795 245.707 46.0218 245.434 46.1064C245.16 46.1911 244.936 46.3115 244.76 46.4678C244.584 46.6175 244.454 46.7933 244.369 46.9951C244.291 47.1969 244.252 47.4183 244.252 47.6592C244.252 47.9001 244.308 48.1182 244.418 48.3135C244.529 48.5023 244.688 48.652 244.897 48.7627C245.105 48.8669 245.349 48.9189 245.629 48.9189C246.052 48.9189 246.42 48.8343 246.733 48.665C247.045 48.4958 247.286 48.2874 247.455 48.04C247.631 47.7926 247.722 47.5583 247.729 47.3369L248.471 48.5283C248.367 48.7952 248.224 49.0719 248.041 49.3584C247.866 49.6449 247.641 49.915 247.367 50.1689C247.094 50.4163 246.765 50.6214 246.381 50.7842C245.997 50.9404 245.541 51.0186 245.014 51.0186C244.343 51.0186 243.735 50.8851 243.188 50.6182C242.647 50.3447 242.218 49.9704 241.899 49.4951C241.586 49.0133 241.43 48.4665 241.43 47.8545C241.43 47.3011 241.534 46.8096 241.742 46.3799C241.951 45.9502 242.257 45.5889 242.66 45.2959C243.071 44.9964 243.582 44.7718 244.194 44.6221C244.806 44.4658 245.515 44.3877 246.323 44.3877H247.953ZM259.872 40.2568H262.421V50.4717C262.421 51.4352 262.206 52.2523 261.776 52.9229C261.353 53.5999 260.76 54.111 259.999 54.4561C259.237 54.8076 258.352 54.9834 257.342 54.9834C256.9 54.9834 256.431 54.9248 255.936 54.8076C255.448 54.6904 254.979 54.5081 254.53 54.2607C254.087 54.0133 253.716 53.7008 253.417 53.3232L254.657 51.6631C254.982 52.0407 255.36 52.3337 255.79 52.542C256.219 52.7568 256.695 52.8643 257.216 52.8643C257.723 52.8643 258.153 52.7699 258.505 52.5811C258.856 52.3988 259.126 52.1286 259.315 51.7705C259.504 51.4189 259.598 50.9925 259.598 50.4912V42.6982L259.872 40.2568ZM252.762 45.667V45.4619C252.762 44.6546 252.86 43.9222 253.055 43.2646C253.257 42.6006 253.54 42.0309 253.905 41.5557C254.276 41.0804 254.725 40.7126 255.253 40.4521C255.78 40.1917 256.376 40.0615 257.04 40.0615C257.743 40.0615 258.332 40.1917 258.807 40.4521C259.283 40.7126 259.673 41.0837 259.979 41.5654C260.285 42.0407 260.523 42.6038 260.692 43.2549C260.868 43.8994 261.005 44.6058 261.102 45.374V45.8232C261.005 46.5589 260.858 47.2425 260.663 47.874C260.467 48.5055 260.21 49.0589 259.891 49.5342C259.572 50.0029 259.175 50.3675 258.7 50.6279C258.231 50.8883 257.671 51.0186 257.02 51.0186C256.369 51.0186 255.78 50.8851 255.253 50.6182C254.732 50.3512 254.286 49.9769 253.915 49.4951C253.544 49.0133 253.257 48.4469 253.055 47.7959C252.86 47.1449 252.762 46.4352 252.762 45.667ZM255.575 45.4619V45.667C255.575 46.1032 255.617 46.5101 255.702 46.8877C255.786 47.2653 255.917 47.6006 256.092 47.8936C256.275 48.18 256.499 48.4046 256.766 48.5674C257.04 48.7236 257.362 48.8018 257.733 48.8018C258.247 48.8018 258.667 48.6943 258.993 48.4795C259.318 48.2581 259.563 47.9554 259.725 47.5713C259.888 47.1872 259.982 46.7445 260.008 46.2432V44.9639C259.995 44.5537 259.94 44.1859 259.842 43.8604C259.745 43.5283 259.608 43.2451 259.432 43.0107C259.257 42.7764 259.029 42.5941 258.749 42.4639C258.469 42.3337 258.137 42.2686 257.753 42.2686C257.382 42.2686 257.059 42.3532 256.786 42.5225C256.519 42.6852 256.294 42.9098 256.112 43.1963C255.936 43.4827 255.803 43.8213 255.712 44.2119C255.62 44.596 255.575 45.0127 255.575 45.4619ZM270.071 51.0186C269.251 51.0186 268.515 50.8883 267.864 50.6279C267.213 50.361 266.66 49.9932 266.204 49.5244C265.755 49.0557 265.41 48.512 265.169 47.8936C264.928 47.2686 264.808 46.6045 264.808 45.9014V45.5107C264.808 44.71 264.922 43.9775 265.15 43.3135C265.377 42.6494 265.703 42.0732 266.126 41.585C266.556 41.0967 267.077 40.7223 267.689 40.4619C268.301 40.195 268.991 40.0615 269.759 40.0615C270.508 40.0615 271.172 40.1852 271.751 40.4326C272.33 40.68 272.816 41.0316 273.206 41.4873C273.603 41.943 273.903 42.4899 274.105 43.1279C274.306 43.7594 274.407 44.4626 274.407 45.2373V46.4092H266.009V44.5342H271.644V44.3193C271.644 43.9287 271.572 43.5804 271.429 43.2744C271.292 42.9619 271.084 42.7145 270.804 42.5322C270.524 42.3499 270.166 42.2588 269.73 42.2588C269.358 42.2588 269.039 42.3402 268.773 42.5029C268.506 42.6657 268.288 42.8936 268.118 43.1865C267.955 43.4795 267.832 43.8245 267.747 44.2217C267.669 44.6123 267.63 45.042 267.63 45.5107V45.9014C267.63 46.3245 267.689 46.7152 267.806 47.0732C267.929 47.4313 268.102 47.7406 268.323 48.001C268.551 48.2614 268.825 48.4632 269.144 48.6064C269.469 48.7497 269.837 48.8213 270.247 48.8213C270.755 48.8213 271.227 48.7236 271.663 48.5283C272.106 48.3265 272.487 48.0238 272.806 47.6201L274.173 49.1045C273.952 49.4235 273.649 49.7295 273.265 50.0225C272.887 50.3154 272.431 50.5563 271.898 50.7451C271.364 50.9274 270.755 51.0186 270.071 51.0186ZM125.914 72.1064H128.834C128.775 73.0635 128.512 73.9131 128.043 74.6553C127.581 75.3975 126.933 75.9769 126.1 76.3936C125.273 76.8102 124.277 77.0186 123.111 77.0186C122.2 77.0186 121.383 76.8623 120.66 76.5498C119.937 76.2308 119.319 75.7751 118.805 75.1826C118.297 74.5902 117.909 73.874 117.642 73.0342C117.376 72.1943 117.242 71.2536 117.242 70.2119V69.2256C117.242 68.1839 117.379 67.2432 117.652 66.4033C117.932 65.557 118.329 64.8376 118.844 64.2451C119.364 63.6527 119.986 63.1969 120.709 62.8779C121.432 62.5589 122.239 62.3994 123.131 62.3994C124.316 62.3994 125.315 62.6143 126.129 63.0439C126.949 63.4736 127.584 64.0661 128.033 64.8213C128.489 65.5765 128.762 66.4359 128.853 67.3994H125.924C125.891 66.8265 125.777 66.3415 125.582 65.9443C125.387 65.5407 125.09 65.238 124.693 65.0361C124.303 64.8278 123.782 64.7236 123.131 64.7236C122.642 64.7236 122.216 64.8148 121.851 64.9971C121.487 65.1794 121.181 65.4561 120.933 65.8271C120.686 66.1982 120.501 66.667 120.377 67.2334C120.26 67.7933 120.201 68.4508 120.201 69.2061V70.2119C120.201 70.9476 120.256 71.5954 120.367 72.1553C120.478 72.7087 120.647 73.1774 120.875 73.5615C121.109 73.9391 121.409 74.2256 121.773 74.4209C122.144 74.6097 122.59 74.7041 123.111 74.7041C123.723 74.7041 124.228 74.6064 124.625 74.4111C125.022 74.2158 125.325 73.9261 125.533 73.542C125.748 73.1579 125.875 72.6794 125.914 72.1064ZM130.733 71.6475V71.4424C130.733 70.6676 130.843 69.9548 131.065 69.3037C131.286 68.6462 131.608 68.0765 132.032 67.5947C132.455 67.113 132.976 66.7386 133.594 66.4717C134.213 66.1982 134.922 66.0615 135.723 66.0615C136.524 66.0615 137.237 66.1982 137.862 66.4717C138.487 66.7386 139.011 67.113 139.434 67.5947C139.864 68.0765 140.189 68.6462 140.41 69.3037C140.632 69.9548 140.742 70.6676 140.742 71.4424V71.6475C140.742 72.4157 140.632 73.1286 140.41 73.7861C140.189 74.4372 139.864 75.0068 139.434 75.4951C139.011 75.9769 138.49 76.3512 137.871 76.6182C137.253 76.8851 136.543 77.0186 135.742 77.0186C134.942 77.0186 134.229 76.8851 133.604 76.6182C132.985 76.3512 132.461 75.9769 132.032 75.4951C131.608 75.0068 131.286 74.4372 131.065 73.7861C130.843 73.1286 130.733 72.4157 130.733 71.6475ZM133.545 71.4424V71.6475C133.545 72.0902 133.584 72.5036 133.662 72.8877C133.741 73.2718 133.864 73.6104 134.033 73.9033C134.209 74.1898 134.437 74.4144 134.717 74.5771C134.997 74.7399 135.339 74.8213 135.742 74.8213C136.133 74.8213 136.468 74.7399 136.748 74.5771C137.028 74.4144 137.253 74.1898 137.422 73.9033C137.591 73.6104 137.715 73.2718 137.793 72.8877C137.878 72.5036 137.92 72.0902 137.92 71.6475V71.4424C137.92 71.0127 137.878 70.609 137.793 70.2314C137.715 69.8473 137.588 69.5088 137.412 69.2158C137.243 68.9163 137.019 68.682 136.739 68.5127C136.459 68.3434 136.12 68.2588 135.723 68.2588C135.326 68.2588 134.987 68.3434 134.707 68.5127C134.434 68.682 134.209 68.9163 134.033 69.2158C133.864 69.5088 133.741 69.8473 133.662 70.2314C133.584 70.609 133.545 71.0127 133.545 71.4424ZM145.883 68.4443V76.8232H143.061V66.2568H145.708L145.883 68.4443ZM145.493 71.1689H144.712C144.712 70.4333 144.8 69.7562 144.975 69.1377C145.158 68.5127 145.421 67.9723 145.766 67.5166C146.118 67.0544 146.551 66.6963 147.065 66.4424C147.579 66.1885 148.175 66.0615 148.852 66.0615C149.321 66.0615 149.751 66.1331 150.141 66.2764C150.532 66.4131 150.867 66.6312 151.147 66.9307C151.434 67.2236 151.655 67.6077 151.811 68.083C151.967 68.5518 152.046 69.1149 152.046 69.7725V76.8232H149.233V70.085C149.233 69.6032 149.168 69.2321 149.038 68.9717C148.908 68.7113 148.722 68.529 148.481 68.4248C148.247 68.3206 147.964 68.2686 147.632 68.2686C147.267 68.2686 146.948 68.3434 146.675 68.4932C146.408 68.6429 146.186 68.8512 146.01 69.1182C145.835 69.3786 145.704 69.6846 145.62 70.0361C145.535 70.3877 145.493 70.7653 145.493 71.1689ZM151.782 70.8467L150.776 70.9736C150.776 70.2835 150.861 69.6423 151.03 69.0498C151.206 68.4574 151.463 67.9365 151.801 67.4873C152.147 67.0381 152.573 66.6898 153.081 66.4424C153.589 66.1885 154.175 66.0615 154.839 66.0615C155.346 66.0615 155.809 66.1364 156.225 66.2861C156.642 66.4294 156.997 66.6605 157.29 66.9795C157.589 67.292 157.817 67.7021 157.973 68.21C158.136 68.7178 158.217 69.3395 158.217 70.0752V76.8232H155.395V70.0752C155.395 69.5869 155.33 69.2158 155.2 68.9619C155.076 68.7015 154.894 68.5225 154.653 68.4248C154.419 68.3206 154.139 68.2686 153.813 68.2686C153.475 68.2686 153.178 68.3369 152.925 68.4736C152.671 68.6038 152.459 68.7861 152.29 69.0205C152.12 69.2549 151.994 69.5283 151.909 69.8408C151.824 70.1468 151.782 70.4821 151.782 70.8467ZM163.808 68.2881V80.8857H160.995V66.2568H163.603L163.808 68.2881ZM170.497 71.4229V71.6279C170.497 72.3962 170.406 73.109 170.224 73.7666C170.048 74.4242 169.788 74.9971 169.442 75.4854C169.097 75.9671 168.668 76.3447 168.153 76.6182C167.646 76.8851 167.06 77.0186 166.396 77.0186C165.751 77.0186 165.191 76.8883 164.716 76.6279C164.241 76.3675 163.84 76.0029 163.515 75.5342C163.196 75.0589 162.939 74.5088 162.743 73.8838C162.548 73.2588 162.398 72.5882 162.294 71.8721V71.335C162.398 70.5667 162.548 69.8636 162.743 69.2256C162.939 68.5811 163.196 68.0244 163.515 67.5557C163.84 67.0804 164.237 66.7126 164.706 66.4521C165.181 66.1917 165.738 66.0615 166.376 66.0615C167.047 66.0615 167.636 66.1885 168.144 66.4424C168.658 66.6963 169.088 67.0609 169.433 67.5361C169.784 68.0114 170.048 68.5778 170.224 69.2354C170.406 69.8929 170.497 70.6221 170.497 71.4229ZM167.675 71.6279V71.4229C167.675 70.9736 167.636 70.5602 167.558 70.1826C167.486 69.7985 167.369 69.4632 167.206 69.1768C167.05 68.8903 166.842 68.6689 166.581 68.5127C166.327 68.3499 166.018 68.2686 165.653 68.2686C165.269 68.2686 164.941 68.3304 164.667 68.4541C164.4 68.5778 164.182 68.7568 164.013 68.9912C163.844 69.2256 163.717 69.5055 163.632 69.8311C163.547 70.1566 163.495 70.5244 163.476 70.9346V72.292C163.508 72.7738 163.599 73.2067 163.749 73.5908C163.899 73.9684 164.13 74.2679 164.442 74.4893C164.755 74.7106 165.165 74.8213 165.673 74.8213C166.044 74.8213 166.357 74.7399 166.61 74.5771C166.864 74.4079 167.069 74.1768 167.226 73.8838C167.388 73.5908 167.502 73.2523 167.567 72.8682C167.639 72.484 167.675 72.0706 167.675 71.6279ZM178.548 74.4404V69.7334C178.548 69.3949 178.493 69.1051 178.382 68.8643C178.272 68.6169 178.099 68.4248 177.865 68.2881C177.637 68.1514 177.341 68.083 176.976 68.083C176.664 68.083 176.393 68.1383 176.166 68.249C175.938 68.3532 175.762 68.5062 175.638 68.708C175.514 68.9033 175.453 69.1344 175.453 69.4014H172.64C172.64 68.9521 172.744 68.5257 172.953 68.1221C173.161 67.7184 173.464 67.3636 173.861 67.0576C174.258 66.7451 174.73 66.501 175.277 66.3252C175.83 66.1494 176.449 66.0615 177.132 66.0615C177.953 66.0615 178.682 66.1982 179.32 66.4717C179.958 66.7451 180.459 67.1553 180.824 67.7021C181.195 68.249 181.38 68.9326 181.38 69.7529V74.2744C181.38 74.8538 181.416 75.3291 181.488 75.7002C181.559 76.0648 181.664 76.3838 181.8 76.6572V76.8232H178.958C178.822 76.5368 178.718 76.1787 178.646 75.749C178.581 75.3128 178.548 74.8766 178.548 74.4404ZM178.919 70.3877L178.939 71.9795H177.367C176.996 71.9795 176.673 72.0218 176.4 72.1064C176.126 72.1911 175.902 72.3115 175.726 72.4678C175.55 72.6175 175.42 72.7933 175.335 72.9951C175.257 73.1969 175.218 73.4183 175.218 73.6592C175.218 73.9001 175.274 74.1182 175.384 74.3135C175.495 74.5023 175.654 74.652 175.863 74.7627C176.071 74.8669 176.315 74.9189 176.595 74.9189C177.018 74.9189 177.386 74.8343 177.699 74.665C178.011 74.4958 178.252 74.2874 178.421 74.04C178.597 73.7926 178.688 73.5583 178.695 73.3369L179.437 74.5283C179.333 74.7952 179.19 75.0719 179.007 75.3584C178.832 75.6449 178.607 75.915 178.333 76.1689C178.06 76.4163 177.731 76.6214 177.347 76.7842C176.963 76.9404 176.507 77.0186 175.98 77.0186C175.309 77.0186 174.701 76.8851 174.154 76.6182C173.613 76.3447 173.184 75.9704 172.865 75.4951C172.552 75.0133 172.396 74.4665 172.396 73.8545C172.396 73.3011 172.5 72.8096 172.708 72.3799C172.917 71.9502 173.223 71.5889 173.626 71.2959C174.037 70.9964 174.548 70.7718 175.16 70.6221C175.772 70.4658 176.481 70.3877 177.289 70.3877H178.919ZM186.902 68.5127V76.8232H184.09V66.2568H186.726L186.902 68.5127ZM186.492 71.1689H185.73C185.73 70.3877 185.831 69.6846 186.033 69.0596C186.235 68.4281 186.518 67.891 186.883 67.4482C187.247 66.999 187.68 66.6572 188.182 66.4229C188.689 66.182 189.256 66.0615 189.881 66.0615C190.376 66.0615 190.828 66.1331 191.238 66.2764C191.648 66.4196 192 66.6475 192.293 66.96C192.592 67.2725 192.82 67.6859 192.976 68.2002C193.139 68.7145 193.221 69.3428 193.221 70.085V76.8232H190.389V70.0752C190.389 69.6064 190.323 69.2419 190.193 68.9814C190.063 68.721 189.871 68.5387 189.617 68.4346C189.37 68.3239 189.064 68.2686 188.699 68.2686C188.322 68.2686 187.993 68.3434 187.713 68.4932C187.439 68.6429 187.211 68.8512 187.029 69.1182C186.853 69.3786 186.72 69.6846 186.629 70.0361C186.538 70.3877 186.492 70.7653 186.492 71.1689ZM199.094 75.6318L201.897 66.2568H204.914L200.666 78.415C200.575 78.682 200.451 78.9684 200.295 79.2744C200.145 79.5804 199.94 79.8701 199.68 80.1436C199.426 80.4235 199.104 80.6514 198.713 80.8271C198.329 81.0029 197.857 81.0908 197.297 81.0908C197.03 81.0908 196.812 81.0745 196.643 81.042C196.474 81.0094 196.272 80.9639 196.037 80.9053V78.8447C196.109 78.8447 196.184 78.8447 196.262 78.8447C196.34 78.8512 196.415 78.8545 196.487 78.8545C196.858 78.8545 197.16 78.8122 197.395 78.7275C197.629 78.6429 197.818 78.5127 197.961 78.3369C198.104 78.1676 198.218 77.9463 198.303 77.6729L199.094 75.6318ZM197.922 66.2568L200.217 73.9131L200.617 76.8916L198.703 77.0967L194.905 66.2568H197.922ZM221.935 74.5381V76.8232H214.366V74.5381H221.935ZM215.323 62.6045V76.8232H212.394V62.6045H215.323ZM220.948 68.3955V70.6221H214.366V68.3955H220.948ZM221.925 62.6045V64.8994H214.366V62.6045H221.925ZM230.142 74.2939V66.2568H232.955V76.8232H230.308L230.142 74.2939ZM230.455 72.126L231.285 72.1064C231.285 72.8096 231.203 73.4639 231.041 74.0693C230.878 74.6683 230.634 75.1891 230.308 75.6318C229.983 76.068 229.572 76.4098 229.078 76.6572C228.583 76.8981 228 77.0186 227.33 77.0186C226.815 77.0186 226.34 76.9469 225.904 76.8037C225.474 76.654 225.103 76.4229 224.791 76.1104C224.485 75.7913 224.244 75.3844 224.068 74.8896C223.899 74.3883 223.814 73.7861 223.814 73.083V66.2568H226.626V73.1025C226.626 73.415 226.662 73.6787 226.734 73.8936C226.812 74.1084 226.919 74.2842 227.056 74.4209C227.193 74.5576 227.352 74.6553 227.535 74.7139C227.723 74.7725 227.932 74.8018 228.16 74.8018C228.739 74.8018 229.195 74.6846 229.527 74.4502C229.865 74.2158 230.103 73.8968 230.24 73.4932C230.383 73.083 230.455 72.6273 230.455 72.126ZM238.516 68.5615V76.8232H235.703V66.2568H238.35L238.516 68.5615ZM241.699 66.1885L241.65 68.7959C241.514 68.7764 241.348 68.7601 241.152 68.7471C240.963 68.7275 240.791 68.7178 240.635 68.7178C240.238 68.7178 239.892 68.7699 239.6 68.874C239.313 68.9717 239.072 69.1182 238.877 69.3135C238.688 69.5088 238.545 69.7464 238.447 70.0264C238.356 70.3063 238.304 70.6253 238.291 70.9834L237.725 70.8076C237.725 70.124 237.793 69.4958 237.93 68.9229C238.066 68.3434 238.265 67.8389 238.525 67.4092C238.792 66.9795 239.118 66.6475 239.502 66.4131C239.886 66.1787 240.325 66.0615 240.82 66.0615C240.976 66.0615 241.136 66.0745 241.299 66.1006C241.461 66.1201 241.595 66.1494 241.699 66.1885ZM242.885 71.6475V71.4424C242.885 70.6676 242.996 69.9548 243.217 69.3037C243.438 68.6462 243.761 68.0765 244.184 67.5947C244.607 67.113 245.128 66.7386 245.746 66.4717C246.365 66.1982 247.075 66.0615 247.875 66.0615C248.676 66.0615 249.389 66.1982 250.014 66.4717C250.639 66.7386 251.163 67.113 251.586 67.5947C252.016 68.0765 252.341 68.6462 252.563 69.3037C252.784 69.9548 252.895 70.6676 252.895 71.4424V71.6475C252.895 72.4157 252.784 73.1286 252.563 73.7861C252.341 74.4372 252.016 75.0068 251.586 75.4951C251.163 75.9769 250.642 76.3512 250.024 76.6182C249.405 76.8851 248.696 77.0186 247.895 77.0186C247.094 77.0186 246.381 76.8851 245.756 76.6182C245.138 76.3512 244.614 75.9769 244.184 75.4951C243.761 75.0068 243.438 74.4372 243.217 73.7861C242.996 73.1286 242.885 72.4157 242.885 71.6475ZM245.698 71.4424V71.6475C245.698 72.0902 245.737 72.5036 245.815 72.8877C245.893 73.2718 246.017 73.6104 246.186 73.9033C246.362 74.1898 246.589 74.4144 246.869 74.5771C247.149 74.7399 247.491 74.8213 247.895 74.8213C248.285 74.8213 248.621 74.7399 248.901 74.5771C249.181 74.4144 249.405 74.1898 249.575 73.9033C249.744 73.6104 249.867 73.2718 249.946 72.8877C250.03 72.5036 250.073 72.0902 250.073 71.6475V71.4424C250.073 71.0127 250.03 70.609 249.946 70.2314C249.867 69.8473 249.741 69.5088 249.565 69.2158C249.395 68.9163 249.171 68.682 248.891 68.5127C248.611 68.3434 248.272 68.2588 247.875 68.2588C247.478 68.2588 247.14 68.3434 246.86 68.5127C246.586 68.682 246.362 68.9163 246.186 69.2158C246.017 69.5088 245.893 69.8473 245.815 70.2314C245.737 70.609 245.698 71.0127 245.698 71.4424ZM258.036 68.2881V80.8857H255.223V66.2568H257.831L258.036 68.2881ZM264.725 71.4229V71.6279C264.725 72.3962 264.634 73.109 264.452 73.7666C264.276 74.4242 264.016 74.9971 263.671 75.4854C263.326 75.9671 262.896 76.3447 262.382 76.6182C261.874 76.8851 261.288 77.0186 260.624 77.0186C259.979 77.0186 259.419 76.8883 258.944 76.6279C258.469 76.3675 258.068 76.0029 257.743 75.5342C257.424 75.0589 257.167 74.5088 256.971 73.8838C256.776 73.2588 256.626 72.5882 256.522 71.8721V71.335C256.626 70.5667 256.776 69.8636 256.971 69.2256C257.167 68.5811 257.424 68.0244 257.743 67.5557C258.068 67.0804 258.466 66.7126 258.934 66.4521C259.41 66.1917 259.966 66.0615 260.604 66.0615C261.275 66.0615 261.864 66.1885 262.372 66.4424C262.886 66.6963 263.316 67.0609 263.661 67.5361C264.012 68.0114 264.276 68.5778 264.452 69.2354C264.634 69.8929 264.725 70.6221 264.725 71.4229ZM261.903 71.6279V71.4229C261.903 70.9736 261.864 70.5602 261.786 70.1826C261.714 69.7985 261.597 69.4632 261.434 69.1768C261.278 68.8903 261.07 68.6689 260.809 68.5127C260.555 68.3499 260.246 68.2686 259.882 68.2686C259.497 68.2686 259.169 68.3304 258.895 68.4541C258.628 68.5778 258.41 68.7568 258.241 68.9912C258.072 69.2256 257.945 69.5055 257.86 69.8311C257.775 70.1566 257.723 70.5244 257.704 70.9346V72.292C257.736 72.7738 257.827 73.2067 257.977 73.5908C258.127 73.9684 258.358 74.2679 258.671 74.4893C258.983 74.7106 259.393 74.8213 259.901 74.8213C260.272 74.8213 260.585 74.7399 260.839 74.5771C261.092 74.4079 261.298 74.1768 261.454 73.8838C261.617 73.5908 261.73 73.2523 261.796 72.8682C261.867 72.484 261.903 72.0706 261.903 71.6279ZM271.937 77.0186C271.116 77.0186 270.381 76.8883 269.73 76.6279C269.079 76.361 268.525 75.9932 268.069 75.5244C267.62 75.0557 267.275 74.512 267.034 73.8936C266.793 73.2686 266.673 72.6045 266.673 71.9014V71.5107C266.673 70.71 266.787 69.9775 267.015 69.3135C267.243 68.6494 267.568 68.0732 267.991 67.585C268.421 67.0967 268.942 66.7223 269.554 66.4619C270.166 66.195 270.856 66.0615 271.624 66.0615C272.373 66.0615 273.037 66.1852 273.616 66.4326C274.196 66.68 274.681 67.0316 275.071 67.4873C275.469 67.943 275.768 68.4899 275.97 69.1279C276.172 69.7594 276.273 70.4626 276.273 71.2373V72.4092H267.874V70.5342H273.509V70.3193C273.509 69.9287 273.437 69.5804 273.294 69.2744C273.157 68.9619 272.949 68.7145 272.669 68.5322C272.389 68.3499 272.031 68.2588 271.595 68.2588C271.224 68.2588 270.905 68.3402 270.638 68.5029C270.371 68.6657 270.153 68.8936 269.983 69.1865C269.821 69.4795 269.697 69.8245 269.612 70.2217C269.534 70.6123 269.495 71.042 269.495 71.5107V71.9014C269.495 72.3245 269.554 72.7152 269.671 73.0732C269.795 73.4313 269.967 73.7406 270.189 74.001C270.416 74.2614 270.69 74.4632 271.009 74.6064C271.334 74.7497 271.702 74.8213 272.112 74.8213C272.62 74.8213 273.092 74.7236 273.528 74.5283C273.971 74.3265 274.352 74.0238 274.671 73.6201L276.038 75.1045C275.817 75.4235 275.514 75.7295 275.13 76.0225C274.752 76.3154 274.297 76.5563 273.763 76.7451C273.229 76.9274 272.62 77.0186 271.937 77.0186Z" fill="#EBEDF0"/>
<path d="M136.316 88.8701V98.8232H134.997V88.8701H136.316ZM140.486 93.3477V94.4277H136.029V93.3477H140.486ZM141.163 88.8701V89.9502H136.029V88.8701H141.163ZM144.618 91.4268V98.8232H143.346V91.4268H144.618ZM143.25 89.4648C143.25 89.2598 143.312 89.0866 143.435 88.9453C143.563 88.804 143.75 88.7334 143.996 88.7334C144.237 88.7334 144.422 88.804 144.549 88.9453C144.681 89.0866 144.748 89.2598 144.748 89.4648C144.748 89.6608 144.681 89.8294 144.549 89.9707C144.422 90.1074 144.237 90.1758 143.996 90.1758C143.75 90.1758 143.563 90.1074 143.435 89.9707C143.312 89.8294 143.25 89.6608 143.25 89.4648ZM148.613 93.0059V98.8232H147.348V91.4268H148.544L148.613 93.0059ZM148.312 94.8447L147.785 94.8242C147.79 94.3184 147.865 93.8512 148.011 93.4229C148.157 92.9899 148.362 92.6139 148.626 92.2949C148.891 91.9759 149.205 91.7298 149.57 91.5566C149.939 91.3789 150.347 91.29 150.793 91.29C151.158 91.29 151.486 91.3402 151.778 91.4404C152.069 91.5361 152.318 91.6911 152.523 91.9053C152.732 92.1195 152.892 92.3975 153.001 92.7393C153.111 93.0765 153.165 93.4889 153.165 93.9766V98.8232H151.894V93.9629C151.894 93.5755 151.837 93.2656 151.723 93.0332C151.609 92.7962 151.443 92.6253 151.224 92.5205C151.005 92.4111 150.736 92.3564 150.417 92.3564C150.103 92.3564 149.816 92.4225 149.556 92.5547C149.301 92.6868 149.08 92.8691 148.893 93.1016C148.711 93.334 148.567 93.6006 148.462 93.9014C148.362 94.1976 148.312 94.512 148.312 94.8447ZM160.148 97.5586V93.751C160.148 93.4593 160.088 93.2064 159.97 92.9922C159.856 92.7734 159.683 92.6048 159.45 92.4863C159.218 92.3678 158.931 92.3086 158.589 92.3086C158.27 92.3086 157.99 92.3633 157.748 92.4727C157.511 92.582 157.324 92.7256 157.188 92.9033C157.055 93.0811 156.989 93.2725 156.989 93.4775H155.725C155.725 93.2132 155.793 92.9512 155.93 92.6914C156.067 92.4316 156.262 92.1969 156.518 91.9873C156.777 91.7731 157.087 91.6045 157.447 91.4814C157.812 91.3538 158.218 91.29 158.664 91.29C159.202 91.29 159.676 91.3812 160.086 91.5635C160.501 91.7458 160.824 92.0215 161.057 92.3906C161.294 92.7552 161.412 93.2132 161.412 93.7646V97.21C161.412 97.4561 161.433 97.7181 161.474 97.9961C161.519 98.2741 161.585 98.5133 161.672 98.7139V98.8232H160.353C160.289 98.6774 160.239 98.4837 160.202 98.2422C160.166 97.9961 160.148 97.7682 160.148 97.5586ZM160.366 94.3389L160.38 95.2275H159.102C158.742 95.2275 158.42 95.2572 158.138 95.3164C157.855 95.3711 157.618 95.4554 157.427 95.5693C157.235 95.6833 157.09 95.8268 156.989 96C156.889 96.1686 156.839 96.3669 156.839 96.5947C156.839 96.8271 156.891 97.0391 156.996 97.2305C157.101 97.4219 157.258 97.5745 157.468 97.6885C157.682 97.7979 157.944 97.8525 158.254 97.8525C158.641 97.8525 158.983 97.7705 159.279 97.6064C159.576 97.4424 159.81 97.2419 159.983 97.0049C160.161 96.7679 160.257 96.5378 160.271 96.3145L160.811 96.9229C160.779 97.1143 160.692 97.3262 160.551 97.5586C160.41 97.791 160.22 98.0143 159.983 98.2285C159.751 98.4382 159.473 98.6136 159.15 98.7549C158.831 98.8916 158.47 98.96 158.069 98.96C157.568 98.96 157.128 98.862 156.75 98.666C156.376 98.4701 156.085 98.208 155.875 97.8799C155.67 97.5472 155.567 97.1758 155.567 96.7656C155.567 96.3691 155.645 96.0205 155.8 95.7197C155.955 95.4144 156.178 95.1615 156.47 94.9609C156.761 94.7559 157.112 94.6009 157.523 94.4961C157.933 94.3913 158.391 94.3389 158.897 94.3389H160.366ZM165.366 93.0059V98.8232H164.101V91.4268H165.298L165.366 93.0059ZM165.065 94.8447L164.539 94.8242C164.544 94.3184 164.619 93.8512 164.765 93.4229C164.91 92.9899 165.115 92.6139 165.38 92.2949C165.644 91.9759 165.959 91.7298 166.323 91.5566C166.692 91.3789 167.1 91.29 167.547 91.29C167.911 91.29 168.239 91.3402 168.531 91.4404C168.823 91.5361 169.071 91.6911 169.276 91.9053C169.486 92.1195 169.645 92.3975 169.755 92.7393C169.864 93.0765 169.919 93.4889 169.919 93.9766V98.8232H168.647V93.9629C168.647 93.5755 168.59 93.2656 168.476 93.0332C168.363 92.7962 168.196 92.6253 167.977 92.5205C167.759 92.4111 167.49 92.3564 167.171 92.3564C166.856 92.3564 166.569 92.4225 166.309 92.5547C166.054 92.6868 165.833 92.8691 165.646 93.1016C165.464 93.334 165.321 93.6006 165.216 93.9014C165.115 94.1976 165.065 94.512 165.065 94.8447ZM175.5 97.9209C175.8 97.9209 176.078 97.8594 176.334 97.7363C176.589 97.6133 176.799 97.4447 176.963 97.2305C177.127 97.0117 177.22 96.7633 177.243 96.4854H178.446C178.423 96.9229 178.275 97.3307 178.002 97.709C177.733 98.0827 177.38 98.3857 176.942 98.6182C176.505 98.846 176.024 98.96 175.5 98.96C174.944 98.96 174.458 98.862 174.044 98.666C173.633 98.4701 173.292 98.2012 173.018 97.8594C172.749 97.5176 172.547 97.1257 172.41 96.6836C172.278 96.237 172.212 95.7653 172.212 95.2686V94.9814C172.212 94.4847 172.278 94.0153 172.41 93.5732C172.547 93.1266 172.749 92.7324 173.018 92.3906C173.292 92.0488 173.633 91.7799 174.044 91.584C174.458 91.388 174.944 91.29 175.5 91.29C176.078 91.29 176.584 91.4085 177.017 91.6455C177.45 91.8779 177.79 92.1969 178.036 92.6025C178.286 93.0036 178.423 93.4593 178.446 93.9697H177.243C177.22 93.6644 177.133 93.3887 176.983 93.1426C176.837 92.8965 176.637 92.7005 176.382 92.5547C176.131 92.4043 175.837 92.3291 175.5 92.3291C175.112 92.3291 174.786 92.4066 174.522 92.5615C174.262 92.7119 174.055 92.917 173.9 93.1768C173.75 93.432 173.64 93.7168 173.572 94.0312C173.508 94.3411 173.476 94.6579 173.476 94.9814V95.2686C173.476 95.5921 173.508 95.9111 173.572 96.2256C173.636 96.54 173.743 96.8249 173.893 97.0801C174.048 97.3353 174.256 97.5404 174.515 97.6953C174.78 97.8457 175.108 97.9209 175.5 97.9209ZM183.637 98.96C183.122 98.96 182.655 98.8734 182.236 98.7002C181.821 98.5225 181.463 98.2741 181.163 97.9551C180.866 97.6361 180.639 97.2578 180.479 96.8203C180.319 96.3828 180.24 95.9043 180.24 95.3848V95.0977C180.24 94.4961 180.329 93.9606 180.506 93.4912C180.684 93.0173 180.926 92.6162 181.231 92.2881C181.536 91.96 181.883 91.7116 182.27 91.543C182.657 91.3743 183.058 91.29 183.473 91.29C184.002 91.29 184.458 91.3812 184.84 91.5635C185.228 91.7458 185.544 92.001 185.791 92.3291C186.037 92.6527 186.219 93.0355 186.337 93.4775C186.456 93.915 186.515 94.3936 186.515 94.9131V95.4805H180.992V94.4482H185.25V94.3525C185.232 94.0244 185.164 93.7054 185.045 93.3955C184.931 93.0856 184.749 92.8304 184.499 92.6299C184.248 92.4294 183.906 92.3291 183.473 92.3291C183.186 92.3291 182.922 92.3906 182.68 92.5137C182.439 92.6322 182.231 92.8099 182.058 93.0469C181.885 93.2839 181.75 93.5732 181.655 93.915C181.559 94.2568 181.511 94.651 181.511 95.0977V95.3848C181.511 95.7357 181.559 96.0661 181.655 96.376C181.755 96.6813 181.899 96.9502 182.085 97.1826C182.277 97.415 182.507 97.5973 182.776 97.7295C183.049 97.8617 183.359 97.9277 183.706 97.9277C184.152 97.9277 184.53 97.8366 184.84 97.6543C185.15 97.472 185.421 97.2282 185.654 96.9229L186.419 97.5312C186.26 97.7728 186.057 98.0029 185.811 98.2217C185.565 98.4404 185.262 98.6182 184.902 98.7549C184.546 98.8916 184.125 98.96 183.637 98.96ZM195.749 98.8232H193.671L193.685 97.75H195.749C196.46 97.75 197.053 97.6019 197.526 97.3057C198 97.0049 198.356 96.5856 198.593 96.0479C198.834 95.5055 198.955 94.8721 198.955 94.1475V93.5391C198.955 92.9694 198.887 92.4635 198.75 92.0215C198.613 91.5749 198.413 91.1989 198.149 90.8936C197.884 90.5837 197.561 90.349 197.178 90.1895C196.8 90.0299 196.364 89.9502 195.872 89.9502H193.63V88.8701H195.872C196.524 88.8701 197.119 88.9795 197.656 89.1982C198.194 89.4124 198.657 89.7246 199.044 90.1348C199.436 90.5404 199.737 91.0326 199.946 91.6113C200.156 92.1855 200.261 92.8327 200.261 93.5527V94.1475C200.261 94.8675 200.156 95.5169 199.946 96.0957C199.737 96.6699 199.434 97.1598 199.037 97.5654C198.645 97.971 198.171 98.2832 197.615 98.502C197.064 98.7161 196.442 98.8232 195.749 98.8232ZM194.375 88.8701V98.8232H193.056V88.8701H194.375ZM205.821 98.96C205.306 98.96 204.839 98.8734 204.42 98.7002C204.005 98.5225 203.647 98.2741 203.347 97.9551C203.05 97.6361 202.822 97.2578 202.663 96.8203C202.503 96.3828 202.424 95.9043 202.424 95.3848V95.0977C202.424 94.4961 202.513 93.9606 202.69 93.4912C202.868 93.0173 203.11 92.6162 203.415 92.2881C203.72 91.96 204.067 91.7116 204.454 91.543C204.841 91.3743 205.242 91.29 205.657 91.29C206.186 91.29 206.642 91.3812 207.024 91.5635C207.412 91.7458 207.728 92.001 207.975 92.3291C208.221 92.6527 208.403 93.0355 208.521 93.4775C208.64 93.915 208.699 94.3936 208.699 94.9131V95.4805H203.176V94.4482H207.434V94.3525C207.416 94.0244 207.348 93.7054 207.229 93.3955C207.115 93.0856 206.933 92.8304 206.683 92.6299C206.432 92.4294 206.09 92.3291 205.657 92.3291C205.37 92.3291 205.106 92.3906 204.864 92.5137C204.623 92.6322 204.415 92.8099 204.242 93.0469C204.069 93.2839 203.934 93.5732 203.839 93.915C203.743 94.2568 203.695 94.651 203.695 95.0977V95.3848C203.695 95.7357 203.743 96.0661 203.839 96.376C203.939 96.6813 204.083 96.9502 204.269 97.1826C204.461 97.415 204.691 97.5973 204.96 97.7295C205.233 97.8617 205.543 97.9277 205.89 97.9277C206.336 97.9277 206.714 97.8366 207.024 97.6543C207.334 97.472 207.605 97.2282 207.838 96.9229L208.603 97.5312C208.444 97.7728 208.241 98.0029 207.995 98.2217C207.749 98.4404 207.446 98.6182 207.086 98.7549C206.73 98.8916 206.309 98.96 205.821 98.96ZM212.14 92.5889V98.8232H210.876V91.4268H212.106L212.14 92.5889ZM214.451 91.3857L214.444 92.5615C214.339 92.5387 214.239 92.5251 214.143 92.5205C214.052 92.5114 213.947 92.5068 213.829 92.5068C213.537 92.5068 213.28 92.5524 213.056 92.6436C212.833 92.7347 212.644 92.8623 212.489 93.0264C212.334 93.1904 212.211 93.3864 212.12 93.6143C212.033 93.8376 211.976 94.0837 211.949 94.3525L211.593 94.5576C211.593 94.111 211.637 93.6917 211.723 93.2998C211.814 92.9079 211.953 92.5615 212.14 92.2607C212.327 91.9554 212.564 91.7184 212.851 91.5498C213.143 91.3766 213.489 91.29 213.89 91.29C213.981 91.29 214.086 91.3014 214.205 91.3242C214.323 91.3424 214.405 91.363 214.451 91.3857ZM217.694 91.4268V98.8232H216.422V91.4268H217.694ZM216.327 89.4648C216.327 89.2598 216.388 89.0866 216.511 88.9453C216.639 88.804 216.826 88.7334 217.072 88.7334C217.313 88.7334 217.498 88.804 217.625 88.9453C217.758 89.0866 217.824 89.2598 217.824 89.4648C217.824 89.6608 217.758 89.8294 217.625 89.9707C217.498 90.1074 217.313 90.1758 217.072 90.1758C216.826 90.1758 216.639 90.1074 216.511 89.9707C216.388 89.8294 216.327 89.6608 216.327 89.4648ZM222.673 97.6816L224.697 91.4268H225.989L223.329 98.8232H222.482L222.673 97.6816ZM220.985 91.4268L223.07 97.7158L223.213 98.8232H222.366L219.686 91.4268H220.985ZM232.157 97.5586V93.751C232.157 93.4593 232.098 93.2064 231.98 92.9922C231.866 92.7734 231.692 92.6048 231.46 92.4863C231.228 92.3678 230.941 92.3086 230.599 92.3086C230.28 92.3086 229.999 92.3633 229.758 92.4727C229.521 92.582 229.334 92.7256 229.197 92.9033C229.065 93.0811 228.999 93.2725 228.999 93.4775H227.734C227.734 93.2132 227.803 92.9512 227.94 92.6914C228.076 92.4316 228.272 92.1969 228.527 91.9873C228.787 91.7731 229.097 91.6045 229.457 91.4814C229.822 91.3538 230.227 91.29 230.674 91.29C231.212 91.29 231.686 91.3812 232.096 91.5635C232.511 91.7458 232.834 92.0215 233.066 92.3906C233.303 92.7552 233.422 93.2132 233.422 93.7646V97.21C233.422 97.4561 233.442 97.7181 233.483 97.9961C233.529 98.2741 233.595 98.5133 233.682 98.7139V98.8232H232.362C232.299 98.6774 232.248 98.4837 232.212 98.2422C232.176 97.9961 232.157 97.7682 232.157 97.5586ZM232.376 94.3389L232.39 95.2275H231.111C230.751 95.2275 230.43 95.2572 230.148 95.3164C229.865 95.3711 229.628 95.4554 229.437 95.5693C229.245 95.6833 229.099 95.8268 228.999 96C228.899 96.1686 228.849 96.3669 228.849 96.5947C228.849 96.8271 228.901 97.0391 229.006 97.2305C229.111 97.4219 229.268 97.5745 229.478 97.6885C229.692 97.7979 229.954 97.8525 230.264 97.8525C230.651 97.8525 230.993 97.7705 231.289 97.6064C231.585 97.4424 231.82 97.2419 231.993 97.0049C232.171 96.7679 232.267 96.5378 232.28 96.3145L232.82 96.9229C232.789 97.1143 232.702 97.3262 232.561 97.5586C232.419 97.791 232.23 98.0143 231.993 98.2285C231.761 98.4382 231.483 98.6136 231.159 98.7549C230.84 98.8916 230.48 98.96 230.079 98.96C229.578 98.96 229.138 98.862 228.76 98.666C228.386 98.4701 228.094 98.208 227.885 97.8799C227.68 97.5472 227.577 97.1758 227.577 96.7656C227.577 96.3691 227.655 96.0205 227.81 95.7197C227.965 95.4144 228.188 95.1615 228.48 94.9609C228.771 94.7559 229.122 94.6009 229.532 94.4961C229.942 94.3913 230.4 94.3389 230.906 94.3389H232.376ZM239.208 91.4268V92.3975H235.209V91.4268H239.208ZM236.562 89.6289H237.827V96.9912C237.827 97.2419 237.866 97.431 237.943 97.5586C238.021 97.6862 238.121 97.7705 238.244 97.8115C238.367 97.8525 238.499 97.873 238.641 97.873C238.745 97.873 238.855 97.8639 238.969 97.8457C239.087 97.8229 239.176 97.8047 239.235 97.791L239.242 98.8232C239.142 98.8551 239.01 98.8848 238.846 98.9121C238.686 98.944 238.492 98.96 238.265 98.96C237.955 98.96 237.67 98.8984 237.41 98.7754C237.15 98.6523 236.943 98.4473 236.788 98.1602C236.638 97.8685 236.562 97.4766 236.562 96.9844V89.6289ZM242.765 91.4268V98.8232H241.494V91.4268H242.765ZM241.398 89.4648C241.398 89.2598 241.46 89.0866 241.583 88.9453C241.71 88.804 241.897 88.7334 242.143 88.7334C242.385 88.7334 242.569 88.804 242.697 88.9453C242.829 89.0866 242.895 89.2598 242.895 89.4648C242.895 89.6608 242.829 89.8294 242.697 89.9707C242.569 90.1074 242.385 90.1758 242.143 90.1758C241.897 90.1758 241.71 90.1074 241.583 89.9707C241.46 89.8294 241.398 89.6608 241.398 89.4648ZM247.745 97.6816L249.768 91.4268H251.06L248.401 98.8232H247.553L247.745 97.6816ZM246.056 91.4268L248.141 97.7158L248.285 98.8232H247.437L244.757 91.4268H246.056ZM255.95 98.96C255.436 98.96 254.968 98.8734 254.549 98.7002C254.134 98.5225 253.777 98.2741 253.476 97.9551C253.18 97.6361 252.952 97.2578 252.792 96.8203C252.633 96.3828 252.553 95.9043 252.553 95.3848V95.0977C252.553 94.4961 252.642 93.9606 252.82 93.4912C252.997 93.0173 253.239 92.6162 253.544 92.2881C253.85 91.96 254.196 91.7116 254.583 91.543C254.971 91.3743 255.372 91.29 255.786 91.29C256.315 91.29 256.771 91.3812 257.154 91.5635C257.541 91.7458 257.858 92.001 258.104 92.3291C258.35 92.6527 258.532 93.0355 258.651 93.4775C258.769 93.915 258.828 94.3936 258.828 94.9131V95.4805H253.305V94.4482H257.564V94.3525C257.546 94.0244 257.477 93.7054 257.359 93.3955C257.245 93.0856 257.062 92.8304 256.812 92.6299C256.561 92.4294 256.219 92.3291 255.786 92.3291C255.499 92.3291 255.235 92.3906 254.993 92.5137C254.752 92.6322 254.545 92.8099 254.371 93.0469C254.198 93.2839 254.064 93.5732 253.968 93.915C253.872 94.2568 253.825 94.651 253.825 95.0977V95.3848C253.825 95.7357 253.872 96.0661 253.968 96.376C254.068 96.6813 254.212 96.9502 254.399 97.1826C254.59 97.415 254.82 97.5973 255.089 97.7295C255.363 97.8617 255.672 97.9277 256.019 97.9277C256.465 97.9277 256.844 97.8366 257.154 97.6543C257.464 97.472 257.735 97.2282 257.967 96.9229L258.733 97.5312C258.573 97.7728 258.37 98.0029 258.124 98.2217C257.878 98.4404 257.575 98.6182 257.215 98.7549C256.86 98.8916 256.438 98.96 255.95 98.96Z" fill="#EBEDF0"/>
<path d="M378.649 76.5163C376.433 77.5148 374.574 78.9014 373.118 80.239C374.75 77.4395 376.089 74.5005 377.13 71.4692C379.028 70.9549 383.417 69.4666 386.874 66.0171C391.415 61.4862 392.701 55.3049 392.701 55.3049C392.701 55.3049 386.549 56.4523 382.008 60.985C380.7 62.2906 379.663 63.7337 378.848 65.126C379.332 62.7183 379.639 60.2767 379.764 57.8257C379.789 57.9462 379.804 58.014 379.804 58.014C379.804 58.014 384.848 54.3253 387.126 48.3174C389.302 42.2718 387.877 36.1753 387.877 36.1753C387.877 36.1753 382.801 39.7944 380.555 45.872C380.044 47.2906 379.734 48.7111 379.554 50.0562C379.162 46.3524 378.348 42.6806 377.107 39.1256C377.717 38.5434 381.802 34.4797 383.267 28.7243C384.852 22.4978 382.713 16.5992 382.713 16.5992C382.713 16.5992 378.059 20.8493 376.474 27.0758C375.359 31.4541 376.087 35.6685 376.617 37.7861C375.186 34.0502 373.272 30.4556 370.865 27.0965C371.237 25.887 372.645 20.6666 371.194 15.2276C369.537 9.02002 364.833 4.82446 364.833 4.82446C364.833 4.82446 362.764 10.7495 364.42 16.9552C364.897 18.7412 365.626 20.3576 366.422 21.7574C365.438 20.7344 364.397 19.7416 363.301 18.7864C363.49 18.7563 363.592 18.7356 363.592 18.7356C363.592 18.7356 360.058 13.5114 354.138 11.0547C348.219 8.59802 342.095 9.88664 342.095 9.88664C342.095 9.88664 345.63 15.1108 351.549 17.5675C356.497 19.5532 361.517 19.0483 363.089 18.8185C366.476 22.0457 369.291 25.5988 371.554 29.3686C371.349 29.1425 371.141 28.9164 370.923 28.6979C366.32 24.2273 360.195 23.0291 360.195 23.0291C360.195 23.0291 361.479 29.1576 366.005 33.7073C369.699 37.2962 374.371 38.7751 376.074 39.2198C377.93 44.8226 378.745 50.6648 378.559 56.456C378.471 55.8908 378.356 55.32 378.209 54.7454C376.523 48.5453 371.862 44.3799 371.862 44.3799C371.862 44.3799 369.785 50.2691 371.432 56.537C372.767 61.4466 375.965 65.077 377.24 66.3769C375.982 71.7028 373.847 76.8328 370.867 81.522C371.441 80.0299 371.917 78.3362 372.123 76.5182C372.777 70.1052 369.93 64.5815 369.93 64.5815C369.93 64.5815 365.896 69.427 365.171 75.8117C364.621 80.661 366.172 85.0299 366.95 86.8498C364.645 89.5721 362.005 92.0797 359.042 94.3121C357.395 95.2748 356.266 96.1772 355.864 96.5163C355.795 96.5616 355.723 96.6049 355.654 96.6482C355.851 96.473 356.046 96.2959 356.238 96.1094C360.807 91.5785 362.114 85.499 362.114 85.499C362.114 85.499 355.928 86.6633 351.322 91.1264C347.164 95.1543 345.725 100.552 345.483 101.567C340.655 103.244 335.57 104.175 330.488 104.642C329.194 104.74 327.891 104.826 326.591 104.725C327.887 104.868 329.194 104.826 330.495 104.77C334.413 104.599 338.27 103.894 342.09 103.042C345.913 102.168 349.652 100.84 353.156 99.054C354.369 98.4323 355.543 97.7711 356.677 97.0721C358.559 97.7974 362.916 99.1558 367.665 98.4455C373.999 97.496 378.686 93.2835 378.686 93.2835C378.686 93.2835 373.053 90.5499 366.719 91.4975C365.387 91.6972 364.131 92.042 362.974 92.4602C365.736 90.0751 368.168 87.4319 370.262 84.5928C372.133 84.7888 376.882 85.0054 381.439 82.9519C387.282 80.3181 390.656 74.9884 390.656 74.9884C390.656 74.9884 384.495 73.8882 378.655 76.522L378.649 76.5163Z" fill="#EBEDF0"/>
</svg>
