<svg width="393" height="104" viewBox="0 0 393 104" fill="none" xmlns="http://www.w3.org/2000/svg">
<path d="M62.2171 101.82C57.1355 101.355 52.0501 100.424 47.222 98.7455C46.9816 97.73 45.5431 92.3325 41.3836 88.3046C36.7752 83.8415 30.5912 82.6772 30.5912 82.6772C30.5912 82.6772 31.8982 88.7568 36.4672 93.2877C36.6587 93.4723 36.854 93.6513 37.0512 93.8246C36.9817 93.7812 36.9104 93.736 36.8409 93.6927C36.4371 93.3536 35.3104 92.4512 33.6653 91.4904C30.7001 89.2598 28.0616 86.7503 25.7556 84.028C26.533 82.2081 28.0842 77.8411 27.534 72.99C26.8091 66.6053 22.7753 61.7597 22.7753 61.7597C22.7753 61.7597 19.9284 67.2854 20.5819 73.6964C20.7885 75.5145 21.2636 77.2081 21.8364 78.7002C18.8561 74.0111 16.7209 68.8829 15.4627 63.557C16.7378 62.2571 19.9359 58.6267 21.2711 53.7171C22.918 47.4492 20.8411 41.56 20.8411 41.56C20.8411 41.56 16.1801 45.7235 14.4937 51.9255C14.3472 52.5001 14.2327 53.0728 14.1444 53.638C13.9585 47.8467 14.7735 42.0046 16.6289 36.3999C18.3303 35.9553 23.0044 34.4764 26.6983 30.8874C31.224 26.3377 32.5085 20.2092 32.5085 20.2092C32.5085 20.2092 26.3809 21.4055 21.78 25.878C21.5622 26.0984 21.3537 26.3207 21.149 26.5468C23.4101 22.7789 26.2269 19.2258 29.6128 15.9986C31.1846 16.2284 36.2043 16.7314 41.1526 14.7476C47.0718 12.2909 50.606 7.06675 50.606 7.06675C50.606 7.06675 44.4821 5.78001 38.5629 8.2348C32.6437 10.6915 29.1095 15.9157 29.1095 15.9157C29.1095 15.9157 29.2128 15.9364 29.4006 15.9665C28.3058 16.9217 27.2654 17.9127 26.2814 18.9356C27.0776 17.5359 27.8062 15.9194 28.2814 14.1334C29.9377 7.92583 27.8682 2.00269 27.8682 2.00269C27.8682 2.00269 23.1659 6.19824 21.5077 12.4059C20.0561 17.8429 21.4645 23.0634 21.8364 24.2748C19.4308 27.6338 17.5153 31.2303 16.0843 34.9662C16.6139 32.8486 17.3406 28.6342 16.227 24.254C14.6421 18.0276 9.98862 13.7774 9.98862 13.7774C9.98862 13.7774 7.84967 19.6779 9.43463 25.9025C10.8994 31.658 14.9857 35.7216 15.5942 36.3038C14.3529 39.8607 13.5397 43.5306 13.1473 47.2364C12.9689 45.8912 12.6571 44.4707 12.1463 43.0502C9.90035 36.9726 4.82436 33.3535 4.82436 33.3535C4.82436 33.3535 3.39902 39.45 5.57552 45.4956C7.85531 51.5035 12.8975 55.1923 12.8975 55.1923C12.8975 55.1923 12.9125 55.1245 12.9369 55.002C13.0628 57.453 13.3689 59.8946 13.8534 62.3042C13.0383 60.9119 12.0017 59.4688 10.6928 58.1633C6.15204 53.6324 0 52.4832 0 52.4832C0 52.4832 1.28637 58.6644 5.82716 63.1953C9.2844 66.6448 13.6731 68.1331 15.5716 68.6475C16.612 71.6787 17.951 74.6177 19.5829 77.4172C18.1275 76.0815 16.2665 74.6949 14.0524 73.6964C8.21023 71.0627 2.05068 72.1629 2.05068 72.1629C2.05068 72.1629 5.42529 77.4926 11.2675 80.1264C15.8233 82.1818 20.5744 81.9632 22.4448 81.7673C24.5387 84.6064 26.9706 87.2515 29.733 89.6347C28.5762 89.2164 27.3199 88.8717 25.9884 88.672C19.6542 87.7225 14.0205 90.458 14.0205 90.458C14.0205 90.458 18.7078 94.6705 25.042 95.62C29.7931 96.3321 34.1498 94.9719 36.0296 94.2466C37.1639 94.9455 38.3357 95.6087 39.5507 96.2285C43.053 98.0145 46.7919 99.3427 50.6172 100.217C54.4369 101.066 58.2942 101.773 62.2115 101.944C63.5129 102.001 64.8199 102.044 66.1157 101.899C64.818 102.001 63.5147 101.914 62.219 101.816L62.2171 101.82Z" fill="#EBEDF0"/>
<path d="M109.117 17.7598H105.464L105.445 15.748H108.511C109.052 15.748 109.494 15.6797 109.839 15.543C110.185 15.3997 110.442 15.1947 110.611 14.9277C110.787 14.6543 110.875 14.3223 110.875 13.9316C110.875 13.4889 110.79 13.1309 110.621 12.8574C110.458 12.584 110.201 12.3854 109.849 12.2617C109.504 12.138 109.058 12.0762 108.511 12.0762H106.48V24H103.55V9.78125H108.511C109.338 9.78125 110.077 9.85938 110.728 10.0156C111.386 10.1719 111.942 10.4095 112.398 10.7285C112.854 11.0475 113.202 11.4512 113.443 11.9395C113.684 12.4212 113.804 12.9941 113.804 13.6582C113.804 14.2441 113.671 14.7845 113.404 15.2793C113.144 15.7741 112.73 16.1777 112.164 16.4902C111.604 16.8027 110.871 16.9753 109.966 17.0078L109.117 17.7598ZM108.99 24H104.664L105.806 21.7148H108.99C109.504 21.7148 109.924 21.6335 110.25 21.4707C110.575 21.3014 110.816 21.0736 110.972 20.7871C111.129 20.5007 111.207 20.1719 111.207 19.8008C111.207 19.3841 111.135 19.0228 110.992 18.7168C110.855 18.4108 110.634 18.1764 110.328 18.0137C110.022 17.8444 109.618 17.7598 109.117 17.7598H106.295L106.314 15.748H109.83L110.504 16.5391C111.369 16.526 112.066 16.679 112.593 16.998C113.127 17.3105 113.515 17.7174 113.756 18.2188C114.003 18.7201 114.127 19.2572 114.127 19.8301C114.127 20.7415 113.928 21.5098 113.531 22.1348C113.134 22.7533 112.551 23.2188 111.783 23.5312C111.021 23.8438 110.09 24 108.99 24ZM121.611 24.1953C120.791 24.1953 120.055 24.0651 119.404 23.8047C118.753 23.5378 118.2 23.1699 117.744 22.7012C117.295 22.2324 116.95 21.6888 116.709 21.0703C116.468 20.4453 116.348 19.7812 116.348 19.0781V18.6875C116.348 17.8867 116.462 17.1543 116.689 16.4902C116.917 15.8262 117.243 15.25 117.666 14.7617C118.096 14.2734 118.617 13.8991 119.229 13.6387C119.841 13.3717 120.531 13.2383 121.299 13.2383C122.048 13.2383 122.712 13.362 123.291 13.6094C123.87 13.8568 124.356 14.2083 124.746 14.6641C125.143 15.1198 125.443 15.6667 125.645 16.3047C125.846 16.9362 125.947 17.6393 125.947 18.4141V19.5859H117.549V17.7109H123.184V17.4961C123.184 17.1055 123.112 16.7572 122.969 16.4512C122.832 16.1387 122.624 15.8913 122.344 15.709C122.064 15.5267 121.706 15.4355 121.27 15.4355C120.898 15.4355 120.579 15.5169 120.313 15.6797C120.046 15.8424 119.828 16.0703 119.658 16.3633C119.495 16.6562 119.372 17.0013 119.287 17.3984C119.209 17.7891 119.17 18.2188 119.17 18.6875V19.0781C119.17 19.5013 119.229 19.8919 119.346 20.25C119.469 20.6081 119.642 20.9173 119.863 21.1777C120.091 21.4382 120.365 21.64 120.684 21.7832C121.009 21.9264 121.377 21.998 121.787 21.998C122.295 21.998 122.767 21.9004 123.203 21.7051C123.646 21.5033 124.027 21.2005 124.346 20.7969L125.713 22.2812C125.492 22.6003 125.189 22.9062 124.805 23.1992C124.427 23.4922 123.971 23.7331 123.438 23.9219C122.904 24.1042 122.295 24.1953 121.611 24.1953ZM133.862 21.0801C133.862 20.8783 133.803 20.696 133.686 20.5332C133.569 20.3704 133.351 20.2207 133.032 20.084C132.719 19.9408 132.267 19.8105 131.674 19.6934C131.14 19.5762 130.642 19.4297 130.18 19.2539C129.724 19.0716 129.327 18.8535 128.989 18.5996C128.657 18.3457 128.396 18.0462 128.207 17.7012C128.019 17.3496 127.924 16.9492 127.924 16.5C127.924 16.0573 128.019 15.6406 128.207 15.25C128.403 14.8594 128.679 14.5143 129.038 14.2148C129.402 13.9089 129.845 13.6712 130.366 13.502C130.893 13.3262 131.485 13.2383 132.143 13.2383C133.061 13.2383 133.849 13.3848 134.506 13.6777C135.17 13.9707 135.678 14.3743 136.03 14.8887C136.388 15.3965 136.567 15.9759 136.567 16.627H133.754C133.754 16.3535 133.696 16.1094 133.579 15.8945C133.468 15.6732 133.292 15.5007 133.051 15.377C132.817 15.2467 132.511 15.1816 132.133 15.1816C131.821 15.1816 131.551 15.237 131.323 15.3477C131.095 15.4518 130.919 15.5951 130.795 15.7773C130.678 15.9531 130.62 16.1484 130.62 16.3633C130.62 16.526 130.652 16.6725 130.717 16.8027C130.789 16.9264 130.903 17.0404 131.059 17.1445C131.215 17.2487 131.417 17.3464 131.664 17.4375C131.918 17.5221 132.231 17.6003 132.602 17.6719C133.364 17.8281 134.044 18.0332 134.643 18.2871C135.242 18.5345 135.717 18.873 136.069 19.3027C136.42 19.7259 136.596 20.2826 136.596 20.9727C136.596 21.4414 136.492 21.8711 136.284 22.2617C136.075 22.6523 135.776 22.9941 135.385 23.2871C134.995 23.5736 134.526 23.7982 133.979 23.9609C133.439 24.1172 132.83 24.1953 132.153 24.1953C131.17 24.1953 130.336 24.0195 129.653 23.668C128.976 23.3164 128.461 22.8704 128.11 22.3301C127.765 21.7832 127.592 21.2233 127.592 20.6504H130.258C130.271 21.0345 130.369 21.3438 130.551 21.5781C130.74 21.8125 130.978 21.9818 131.264 22.0859C131.557 22.1901 131.873 22.2422 132.211 22.2422C132.576 22.2422 132.879 22.1934 133.12 22.0957C133.36 21.9915 133.543 21.8548 133.666 21.6855C133.797 21.5098 133.862 21.3079 133.862 21.0801ZM144.198 13.4336V15.4258H138.046V13.4336H144.198ZM139.569 10.8262H142.382V20.8164C142.382 21.1224 142.421 21.3568 142.499 21.5195C142.584 21.6823 142.707 21.7962 142.87 21.8613C143.033 21.9199 143.238 21.9492 143.485 21.9492C143.661 21.9492 143.817 21.9427 143.954 21.9297C144.097 21.9102 144.218 21.8906 144.315 21.8711L144.325 23.9414C144.084 24.0195 143.824 24.0814 143.544 24.127C143.264 24.1725 142.955 24.1953 142.616 24.1953C141.998 24.1953 141.457 24.0944 140.995 23.8926C140.539 23.6842 140.188 23.3522 139.94 22.8965C139.693 22.4408 139.569 21.8418 139.569 21.0996V10.8262ZM163.836 16.5586V17.2324C163.836 18.3132 163.689 19.2832 163.396 20.1426C163.103 21.002 162.69 21.7344 162.156 22.3398C161.622 22.9388 160.984 23.3978 160.242 23.7168C159.506 24.0358 158.689 24.1953 157.791 24.1953C156.899 24.1953 156.082 24.0358 155.339 23.7168C154.604 23.3978 153.966 22.9388 153.425 22.3398C152.885 21.7344 152.465 21.002 152.166 20.1426C151.873 19.2832 151.726 18.3132 151.726 17.2324V16.5586C151.726 15.4714 151.873 14.5013 152.166 13.6484C152.459 12.7891 152.872 12.0566 153.406 11.4512C153.946 10.8457 154.584 10.3835 155.32 10.0645C156.062 9.74544 156.879 9.58594 157.771 9.58594C158.67 9.58594 159.487 9.74544 160.222 10.0645C160.964 10.3835 161.603 10.8457 162.136 11.4512C162.677 12.0566 163.093 12.7891 163.386 13.6484C163.686 14.5013 163.836 15.4714 163.836 16.5586ZM160.877 17.2324V16.5391C160.877 15.7839 160.808 15.1198 160.672 14.5469C160.535 13.974 160.333 13.4922 160.066 13.1016C159.799 12.7109 159.474 12.418 159.089 12.2227C158.705 12.0208 158.266 11.9199 157.771 11.9199C157.276 11.9199 156.837 12.0208 156.453 12.2227C156.075 12.418 155.753 12.7109 155.486 13.1016C155.226 13.4922 155.027 13.974 154.89 14.5469C154.754 15.1198 154.685 15.7839 154.685 16.5391V17.2324C154.685 17.9811 154.754 18.6452 154.89 19.2246C155.027 19.7975 155.229 20.2826 155.496 20.6797C155.763 21.0703 156.088 21.3665 156.472 21.5684C156.856 21.7702 157.296 21.8711 157.791 21.8711C158.285 21.8711 158.725 21.7702 159.109 21.5684C159.493 21.3665 159.815 21.0703 160.076 20.6797C160.336 20.2826 160.535 19.7975 160.672 19.2246C160.808 18.6452 160.877 17.9811 160.877 17.2324ZM169.123 15.6895V24H166.311V13.4336H168.947L169.123 15.6895ZM168.713 18.3457H167.951C167.951 17.5645 168.052 16.8613 168.254 16.2363C168.456 15.6048 168.739 15.0677 169.104 14.625C169.468 14.1758 169.901 13.834 170.402 13.5996C170.91 13.3587 171.477 13.2383 172.102 13.2383C172.596 13.2383 173.049 13.3099 173.459 13.4531C173.869 13.5964 174.221 13.8242 174.514 14.1367C174.813 14.4492 175.041 14.8626 175.197 15.377C175.36 15.8913 175.441 16.5195 175.441 17.2617V24H172.609V17.252C172.609 16.7832 172.544 16.4186 172.414 16.1582C172.284 15.8978 172.092 15.7155 171.838 15.6113C171.591 15.5007 171.285 15.4453 170.92 15.4453C170.542 15.4453 170.214 15.5202 169.934 15.6699C169.66 15.8197 169.432 16.028 169.25 16.2949C169.074 16.5553 168.941 16.8613 168.85 17.2129C168.759 17.5645 168.713 17.9421 168.713 18.3457ZM181.149 9V24H178.327V9H181.149ZM187.042 13.4336V24H184.22V13.4336H187.042ZM184.044 10.6797C184.044 10.2695 184.187 9.93099 184.473 9.66406C184.76 9.39714 185.144 9.26367 185.626 9.26367C186.101 9.26367 186.482 9.39714 186.768 9.66406C187.061 9.93099 187.208 10.2695 187.208 10.6797C187.208 11.0898 187.061 11.4284 186.768 11.6953C186.482 11.9622 186.101 12.0957 185.626 12.0957C185.144 12.0957 184.76 11.9622 184.473 11.6953C184.187 11.4284 184.044 11.0898 184.044 10.6797ZM192.72 15.6895V24H189.907V13.4336H192.544L192.72 15.6895ZM192.31 18.3457H191.548C191.548 17.5645 191.649 16.8613 191.851 16.2363C192.053 15.6048 192.336 15.0677 192.7 14.625C193.065 14.1758 193.498 13.834 193.999 13.5996C194.507 13.3587 195.073 13.2383 195.698 13.2383C196.193 13.2383 196.646 13.3099 197.056 13.4531C197.466 13.5964 197.818 13.8242 198.111 14.1367C198.41 14.4492 198.638 14.8626 198.794 15.377C198.957 15.8913 199.038 16.5195 199.038 17.2617V24H196.206V17.252C196.206 16.7832 196.141 16.4186 196.011 16.1582C195.881 15.8978 195.689 15.7155 195.435 15.6113C195.187 15.5007 194.881 15.4453 194.517 15.4453C194.139 15.4453 193.81 15.5202 193.531 15.6699C193.257 15.8197 193.029 16.028 192.847 16.2949C192.671 16.5553 192.538 16.8613 192.447 17.2129C192.355 17.5645 192.31 17.9421 192.31 18.3457ZM206.64 24.1953C205.82 24.1953 205.084 24.0651 204.433 23.8047C203.782 23.5378 203.229 23.1699 202.773 22.7012C202.324 22.2324 201.979 21.6888 201.738 21.0703C201.497 20.4453 201.377 19.7812 201.377 19.0781V18.6875C201.377 17.8867 201.491 17.1543 201.718 16.4902C201.946 15.8262 202.272 15.25 202.695 14.7617C203.125 14.2734 203.645 13.8991 204.257 13.6387C204.869 13.3717 205.56 13.2383 206.328 13.2383C207.076 13.2383 207.741 13.362 208.32 13.6094C208.899 13.8568 209.384 14.2083 209.775 14.6641C210.172 15.1198 210.472 15.6667 210.673 16.3047C210.875 16.9362 210.976 17.6393 210.976 18.4141V19.5859H202.578V17.7109H208.213V17.4961C208.213 17.1055 208.141 16.7572 207.998 16.4512C207.861 16.1387 207.653 15.8913 207.373 15.709C207.093 15.5267 206.735 15.4355 206.298 15.4355C205.927 15.4355 205.608 15.5169 205.341 15.6797C205.075 15.8424 204.856 16.0703 204.687 16.3633C204.524 16.6562 204.401 17.0013 204.316 17.3984C204.238 17.7891 204.199 18.2188 204.199 18.6875V19.0781C204.199 19.5013 204.257 19.8919 204.375 20.25C204.498 20.6081 204.671 20.9173 204.892 21.1777C205.12 21.4382 205.394 21.64 205.713 21.7832C206.038 21.9264 206.406 21.998 206.816 21.998C207.324 21.998 207.796 21.9004 208.232 21.7051C208.675 21.5033 209.056 21.2005 209.375 20.7969L210.742 22.2812C210.52 22.6003 210.218 22.9062 209.834 23.1992C209.456 23.4922 209 23.7331 208.466 23.9219C207.933 24.1042 207.324 24.1953 206.64 24.1953ZM224.764 9.78125V24H221.844V9.78125H224.764ZM229.139 9.78125V12.0762H217.538V9.78125H229.139ZM233.362 15.7383V24H230.55V13.4336H233.196L233.362 15.7383ZM236.546 13.3652L236.497 15.9727C236.36 15.9531 236.194 15.9368 235.999 15.9238C235.81 15.9043 235.638 15.8945 235.481 15.8945C235.084 15.8945 234.739 15.9466 234.446 16.0508C234.16 16.1484 233.919 16.2949 233.723 16.4902C233.535 16.6855 233.391 16.9232 233.294 17.2031C233.203 17.4831 233.151 17.8021 233.138 18.1602L232.571 17.9844C232.571 17.3008 232.639 16.6725 232.776 16.0996C232.913 15.5202 233.112 15.0156 233.372 14.5859C233.639 14.1562 233.964 13.8242 234.348 13.5898C234.733 13.3555 235.172 13.2383 235.667 13.2383C235.823 13.2383 235.983 13.2513 236.145 13.2773C236.308 13.2969 236.442 13.3262 236.546 13.3652ZM243.845 21.6172V16.9102C243.845 16.5716 243.79 16.2819 243.679 16.041C243.568 15.7936 243.396 15.6016 243.161 15.4648C242.933 15.3281 242.637 15.2598 242.273 15.2598C241.96 15.2598 241.69 15.3151 241.462 15.4258C241.234 15.5299 241.058 15.6829 240.935 15.8848C240.811 16.0801 240.749 16.3112 240.749 16.5781H237.937C237.937 16.1289 238.041 15.7025 238.249 15.2988C238.458 14.8952 238.76 14.5404 239.157 14.2344C239.555 13.9219 240.027 13.6777 240.573 13.502C241.127 13.3262 241.745 13.2383 242.429 13.2383C243.249 13.2383 243.978 13.375 244.616 13.6484C245.254 13.9219 245.756 14.332 246.12 14.8789C246.491 15.4258 246.677 16.1094 246.677 16.9297V21.4512C246.677 22.0306 246.713 22.5059 246.784 22.877C246.856 23.2415 246.96 23.5605 247.097 23.834V24H244.255C244.118 23.7135 244.014 23.3555 243.943 22.9258C243.878 22.4896 243.845 22.0534 243.845 21.6172ZM244.216 17.5645L244.236 19.1562H242.663C242.292 19.1562 241.97 19.1986 241.697 19.2832C241.423 19.3678 241.198 19.4883 241.023 19.6445C240.847 19.7943 240.717 19.9701 240.632 20.1719C240.554 20.3737 240.515 20.5951 240.515 20.8359C240.515 21.0768 240.57 21.2949 240.681 21.4902C240.792 21.679 240.951 21.8288 241.159 21.9395C241.368 22.0436 241.612 22.0957 241.892 22.0957C242.315 22.0957 242.683 22.0111 242.995 21.8418C243.308 21.6725 243.549 21.4642 243.718 21.2168C243.894 20.9694 243.985 20.735 243.991 20.5137L244.734 21.7051C244.629 21.972 244.486 22.2487 244.304 22.5352C244.128 22.8216 243.904 23.0918 243.63 23.3457C243.357 23.5931 243.028 23.7982 242.644 23.9609C242.26 24.1172 241.804 24.1953 241.277 24.1953C240.606 24.1953 239.997 24.0618 239.45 23.7949C238.91 23.5215 238.48 23.1471 238.161 22.6719C237.849 22.1901 237.693 21.6432 237.693 21.0312C237.693 20.4779 237.797 19.9863 238.005 19.5566C238.213 19.127 238.519 18.7656 238.923 18.4727C239.333 18.1732 239.844 17.9486 240.456 17.7988C241.068 17.6426 241.778 17.5645 242.585 17.5645H244.216ZM255.685 21.6953V9H258.517V24H255.968L255.685 21.6953ZM249.006 18.8438V18.6387C249.006 17.8314 249.097 17.099 249.279 16.4414C249.461 15.7773 249.728 15.2077 250.08 14.7324C250.431 14.2572 250.864 13.8893 251.379 13.6289C251.893 13.3685 252.479 13.2383 253.136 13.2383C253.755 13.2383 254.295 13.3685 254.757 13.6289C255.226 13.8893 255.623 14.2604 255.949 14.7422C256.281 15.2174 256.548 15.7806 256.75 16.4316C256.951 17.0762 257.098 17.7826 257.189 18.5508V19C257.098 19.7357 256.951 20.4193 256.75 21.0508C256.548 21.6823 256.281 22.2357 255.949 22.7109C255.623 23.1797 255.226 23.5443 254.757 23.8047C254.289 24.0651 253.742 24.1953 253.117 24.1953C252.459 24.1953 251.873 24.0618 251.359 23.7949C250.851 23.528 250.422 23.1536 250.07 22.6719C249.725 22.1901 249.461 21.6237 249.279 20.9727C249.097 20.3216 249.006 19.612 249.006 18.8438ZM251.818 18.6387V18.8438C251.818 19.2799 251.851 19.6868 251.916 20.0645C251.987 20.4421 252.101 20.7773 252.257 21.0703C252.42 21.3568 252.629 21.5814 252.882 21.7441C253.143 21.9004 253.459 21.9785 253.83 21.9785C254.311 21.9785 254.709 21.8711 255.021 21.6562C255.334 21.4349 255.571 21.1322 255.734 20.748C255.903 20.3639 256.001 19.9212 256.027 19.4199V18.1406C256.007 17.7305 255.949 17.3626 255.851 17.0371C255.76 16.7051 255.623 16.4219 255.441 16.1875C255.265 15.9531 255.044 15.7708 254.777 15.6406C254.517 15.5104 254.207 15.4453 253.849 15.4453C253.485 15.4453 253.172 15.5299 252.912 15.6992C252.651 15.862 252.44 16.0866 252.277 16.373C252.121 16.6595 252.004 16.998 251.925 17.3887C251.854 17.7728 251.818 18.1895 251.818 18.6387ZM264.283 13.4336V24H261.461V13.4336H264.283ZM261.285 10.6797C261.285 10.2695 261.428 9.93099 261.715 9.66406C262.001 9.39714 262.385 9.26367 262.867 9.26367C263.342 9.26367 263.723 9.39714 264.01 9.66406C264.303 9.93099 264.449 10.2695 264.449 10.6797C264.449 11.0898 264.303 11.4284 264.01 11.6953C263.723 11.9622 263.342 12.0957 262.867 12.0957C262.385 12.0957 262.001 11.9622 261.715 11.6953C261.428 11.4284 261.285 11.0898 261.285 10.6797ZM269.961 15.6895V24H267.149V13.4336H269.786L269.961 15.6895ZM269.551 18.3457H268.789C268.789 17.5645 268.89 16.8613 269.092 16.2363C269.294 15.6048 269.577 15.0677 269.942 14.625C270.306 14.1758 270.739 13.834 271.241 13.5996C271.748 13.3587 272.315 13.2383 272.94 13.2383C273.435 13.2383 273.887 13.3099 274.297 13.4531C274.707 13.5964 275.059 13.8242 275.352 14.1367C275.651 14.4492 275.879 14.8626 276.036 15.377C276.198 15.8913 276.28 16.5195 276.28 17.2617V24H273.448V17.252C273.448 16.7832 273.383 16.4186 273.252 16.1582C273.122 15.8978 272.93 15.7155 272.676 15.6113C272.429 15.5007 272.123 15.4453 271.758 15.4453C271.381 15.4453 271.052 15.5202 270.772 15.6699C270.498 15.8197 270.271 16.028 270.088 16.2949C269.913 16.5553 269.779 16.8613 269.688 17.2129C269.597 17.5645 269.551 17.9421 269.551 18.3457ZM285.708 13.4336H288.257V23.6484C288.257 24.612 288.042 25.429 287.612 26.0996C287.189 26.7767 286.597 27.2878 285.835 27.6328C285.073 27.9844 284.188 28.1602 283.179 28.1602C282.736 28.1602 282.267 28.1016 281.772 27.9844C281.284 27.8672 280.815 27.6849 280.366 27.4375C279.923 27.1901 279.552 26.8776 279.253 26.5L280.493 24.8398C280.819 25.2174 281.196 25.5104 281.626 25.7188C282.056 25.9336 282.531 26.041 283.052 26.041C283.559 26.041 283.989 25.9466 284.341 25.7578C284.692 25.5755 284.962 25.3053 285.151 24.9473C285.34 24.5957 285.434 24.1693 285.434 23.668V15.875L285.708 13.4336ZM278.598 18.8438V18.6387C278.598 17.8314 278.696 17.099 278.891 16.4414C279.093 15.7773 279.376 15.2077 279.741 14.7324C280.112 14.2572 280.561 13.8893 281.089 13.6289C281.616 13.3685 282.212 13.2383 282.876 13.2383C283.579 13.2383 284.168 13.3685 284.643 13.6289C285.119 13.8893 285.509 14.2604 285.815 14.7422C286.121 15.2174 286.359 15.7806 286.528 16.4316C286.704 17.0762 286.841 17.7826 286.938 18.5508V19C286.841 19.7357 286.694 20.4193 286.499 21.0508C286.304 21.6823 286.046 22.2357 285.727 22.7109C285.408 23.1797 285.011 23.5443 284.536 23.8047C284.067 24.0651 283.507 24.1953 282.856 24.1953C282.205 24.1953 281.616 24.0618 281.089 23.7949C280.568 23.528 280.122 23.1536 279.751 22.6719C279.38 22.1901 279.093 21.6237 278.891 20.9727C278.696 20.3216 278.598 19.612 278.598 18.8438ZM281.411 18.6387V18.8438C281.411 19.2799 281.453 19.6868 281.538 20.0645C281.623 20.4421 281.753 20.7773 281.929 21.0703C282.111 21.3568 282.335 21.5814 282.602 21.7441C282.876 21.9004 283.198 21.9785 283.569 21.9785C284.084 21.9785 284.503 21.8711 284.829 21.6562C285.154 21.4349 285.399 21.1322 285.561 20.748C285.724 20.3639 285.819 19.9212 285.845 19.4199V18.1406C285.832 17.7305 285.776 17.3626 285.679 17.0371C285.581 16.7051 285.444 16.4219 285.268 16.1875C285.093 15.9531 284.865 15.7708 284.585 15.6406C284.305 15.5104 283.973 15.4453 283.589 15.4453C283.218 15.4453 282.895 15.5299 282.622 15.6992C282.355 15.862 282.13 16.0866 281.948 16.373C281.772 16.6595 281.639 16.998 281.548 17.3887C281.457 17.7728 281.411 18.1895 281.411 18.6387ZM136.949 46.2793C136.949 46.0254 136.91 45.7975 136.832 45.5957C136.76 45.3874 136.624 45.1986 136.422 45.0293C136.22 44.8535 135.937 44.681 135.572 44.5117C135.208 44.3424 134.736 44.1667 134.156 43.9844C133.512 43.776 132.9 43.5417 132.32 43.2812C131.747 43.0208 131.24 42.7181 130.797 42.373C130.361 42.0215 130.016 41.6146 129.762 41.1523C129.514 40.6901 129.391 40.153 129.391 39.541C129.391 38.9486 129.521 38.4115 129.781 37.9297C130.042 37.4414 130.406 37.0247 130.875 36.6797C131.344 36.3281 131.897 36.0579 132.535 35.8691C133.18 35.6803 133.886 35.5859 134.654 35.5859C135.703 35.5859 136.617 35.7747 137.398 36.1523C138.18 36.5299 138.785 37.0475 139.215 37.7051C139.651 38.3626 139.869 39.1146 139.869 39.9609H136.959C136.959 39.5443 136.871 39.1797 136.695 38.8672C136.526 38.5482 136.266 38.2975 135.914 38.1152C135.569 37.9329 135.133 37.8418 134.606 37.8418C134.098 37.8418 133.675 37.9199 133.336 38.0762C132.997 38.2259 132.744 38.431 132.574 38.6914C132.405 38.9453 132.32 39.2318 132.32 39.5508C132.32 39.7917 132.379 40.0098 132.496 40.2051C132.62 40.4004 132.802 40.5827 133.043 40.752C133.284 40.9212 133.58 41.0807 133.932 41.2305C134.283 41.3802 134.69 41.5267 135.152 41.6699C135.927 41.9043 136.607 42.168 137.193 42.4609C137.786 42.7539 138.281 43.0827 138.678 43.4473C139.075 43.8118 139.374 44.2253 139.576 44.6875C139.778 45.1497 139.879 45.6738 139.879 46.2598C139.879 46.8783 139.759 47.4316 139.518 47.9199C139.277 48.4082 138.928 48.8216 138.473 49.1602C138.017 49.4987 137.473 49.7559 136.842 49.9316C136.21 50.1074 135.504 50.1953 134.723 50.1953C134.02 50.1953 133.326 50.1042 132.643 49.9219C131.959 49.7331 131.337 49.4499 130.777 49.0723C130.224 48.6947 129.781 48.2129 129.449 47.627C129.117 47.041 128.951 46.3477 128.951 45.5469H131.891C131.891 45.9896 131.959 46.3639 132.096 46.6699C132.232 46.9759 132.425 47.2233 132.672 47.4121C132.926 47.6009 133.225 47.7376 133.57 47.8223C133.922 47.9069 134.306 47.9492 134.723 47.9492C135.231 47.9492 135.647 47.8776 135.973 47.7344C136.305 47.5911 136.549 47.3926 136.705 47.1387C136.868 46.8848 136.949 46.5983 136.949 46.2793ZM147.159 50.1953C146.338 50.1953 145.603 50.0651 144.952 49.8047C144.301 49.5378 143.747 49.1699 143.291 48.7012C142.842 48.2324 142.497 47.6888 142.256 47.0703C142.015 46.4453 141.895 45.7812 141.895 45.0781V44.6875C141.895 43.8867 142.009 43.1543 142.237 42.4902C142.465 41.8262 142.79 41.25 143.213 40.7617C143.643 40.2734 144.164 39.8991 144.776 39.6387C145.388 39.3717 146.078 39.2383 146.846 39.2383C147.595 39.2383 148.259 39.362 148.838 39.6094C149.418 39.8568 149.903 40.2083 150.293 40.6641C150.691 41.1198 150.99 41.6667 151.192 42.3047C151.394 42.9362 151.495 43.6393 151.495 44.4141V45.5859H143.096V43.7109H148.731V43.4961C148.731 43.1055 148.659 42.7572 148.516 42.4512C148.379 42.1387 148.171 41.8913 147.891 41.709C147.611 41.5267 147.253 41.4355 146.817 41.4355C146.446 41.4355 146.127 41.5169 145.86 41.6797C145.593 41.8424 145.375 42.0703 145.206 42.3633C145.043 42.6562 144.919 43.0013 144.834 43.3984C144.756 43.7891 144.717 44.2188 144.717 44.6875V45.0781C144.717 45.5013 144.776 45.8919 144.893 46.25C145.017 46.6081 145.189 46.9173 145.411 47.1777C145.638 47.4382 145.912 47.64 146.231 47.7832C146.556 47.9264 146.924 47.998 147.334 47.998C147.842 47.998 148.314 47.9004 148.75 47.7051C149.193 47.5033 149.574 47.2005 149.893 46.7969L151.26 48.2812C151.039 48.6003 150.736 48.9062 150.352 49.1992C149.974 49.4922 149.519 49.7331 148.985 49.9219C148.451 50.1042 147.842 50.1953 147.159 50.1953ZM156.509 41.7383V50H153.696V39.4336H156.343L156.509 41.7383ZM159.692 39.3652L159.643 41.9727C159.507 41.9531 159.341 41.9368 159.145 41.9238C158.957 41.9043 158.784 41.8945 158.628 41.8945C158.231 41.8945 157.886 41.9466 157.593 42.0508C157.306 42.1484 157.065 42.2949 156.87 42.4902C156.681 42.6855 156.538 42.9232 156.44 43.2031C156.349 43.4831 156.297 43.8021 156.284 44.1602L155.718 43.9844C155.718 43.3008 155.786 42.6725 155.923 42.0996C156.059 41.5202 156.258 41.0156 156.518 40.5859C156.785 40.1562 157.111 39.8242 157.495 39.5898C157.879 39.3555 158.319 39.2383 158.813 39.2383C158.97 39.2383 159.129 39.2513 159.292 39.2773C159.455 39.2969 159.588 39.3262 159.692 39.3652ZM165.39 47.9492L167.734 39.4336H170.673L167.109 50H165.331L165.39 47.9492ZM163.779 39.4336L166.132 47.959L166.181 50H164.394L160.829 39.4336H163.779ZM175.502 39.4336V50H172.679V39.4336H175.502ZM172.504 36.6797C172.504 36.2695 172.647 35.931 172.933 35.6641C173.22 35.3971 173.604 35.2637 174.086 35.2637C174.561 35.2637 174.942 35.3971 175.228 35.6641C175.521 35.931 175.668 36.2695 175.668 36.6797C175.668 37.0898 175.521 37.4284 175.228 37.6953C174.942 37.9622 174.561 38.0957 174.086 38.0957C173.604 38.0957 173.22 37.9622 172.933 37.6953C172.647 37.4284 172.504 37.0898 172.504 36.6797ZM182.791 47.998C183.136 47.998 183.442 47.9329 183.709 47.8027C183.976 47.666 184.184 47.4772 184.334 47.2363C184.49 46.9889 184.572 46.6992 184.578 46.3672H187.225C187.218 47.1094 187.02 47.7702 186.629 48.3496C186.238 48.9225 185.714 49.375 185.057 49.707C184.399 50.0326 183.663 50.1953 182.85 50.1953C182.029 50.1953 181.313 50.0586 180.701 49.7852C180.096 49.5117 179.591 49.1341 179.188 48.6523C178.784 48.1641 178.481 47.5977 178.279 46.9531C178.078 46.3021 177.977 45.6055 177.977 44.8633V44.5801C177.977 43.8314 178.078 43.1348 178.279 42.4902C178.481 41.8392 178.784 41.2728 179.188 40.791C179.591 40.3027 180.096 39.9219 180.701 39.6484C181.307 39.375 182.016 39.2383 182.83 39.2383C183.696 39.2383 184.454 39.4043 185.106 39.7363C185.763 40.0684 186.277 40.5436 186.648 41.1621C187.026 41.7741 187.218 42.5 187.225 43.3398H184.578C184.572 42.9883 184.497 42.6693 184.354 42.3828C184.217 42.0964 184.015 41.8685 183.748 41.6992C183.488 41.5234 183.165 41.4355 182.781 41.4355C182.371 41.4355 182.036 41.5234 181.775 41.6992C181.515 41.8685 181.313 42.1029 181.17 42.4023C181.027 42.6953 180.926 43.0306 180.867 43.4082C180.815 43.7793 180.789 44.1699 180.789 44.5801V44.8633C180.789 45.2734 180.815 45.6673 180.867 46.0449C180.919 46.4225 181.017 46.7578 181.16 47.0508C181.31 47.3438 181.515 47.5749 181.775 47.7441C182.036 47.9134 182.374 47.998 182.791 47.998ZM194.319 50.1953C193.498 50.1953 192.763 50.0651 192.112 49.8047C191.461 49.5378 190.907 49.1699 190.452 48.7012C190.002 48.2324 189.657 47.6888 189.416 47.0703C189.176 46.4453 189.055 45.7812 189.055 45.0781V44.6875C189.055 43.8867 189.169 43.1543 189.397 42.4902C189.625 41.8262 189.95 41.25 190.373 40.7617C190.803 40.2734 191.324 39.8991 191.936 39.6387C192.548 39.3717 193.238 39.2383 194.006 39.2383C194.755 39.2383 195.419 39.362 195.998 39.6094C196.578 39.8568 197.063 40.2083 197.454 40.6641C197.851 41.1198 198.15 41.6667 198.352 42.3047C198.554 42.9362 198.655 43.6393 198.655 44.4141V45.5859H190.256V43.7109H195.891V43.4961C195.891 43.1055 195.819 42.7572 195.676 42.4512C195.539 42.1387 195.331 41.8913 195.051 41.709C194.771 41.5267 194.413 41.4355 193.977 41.4355C193.606 41.4355 193.287 41.5169 193.02 41.6797C192.753 41.8424 192.535 42.0703 192.366 42.3633C192.203 42.6562 192.079 43.0013 191.995 43.3984C191.916 43.7891 191.877 44.2188 191.877 44.6875V45.0781C191.877 45.5013 191.936 45.8919 192.053 46.25C192.177 46.6081 192.349 46.9173 192.571 47.1777C192.799 47.4382 193.072 47.64 193.391 47.7832C193.717 47.9264 194.084 47.998 194.495 47.998C195.002 47.998 195.474 47.9004 195.911 47.7051C196.353 47.5033 196.734 47.2005 197.053 46.7969L198.42 48.2812C198.199 48.6003 197.896 48.9062 197.512 49.1992C197.135 49.4922 196.679 49.7331 196.145 49.9219C195.611 50.1042 195.002 50.1953 194.319 50.1953ZM206.569 47.0801C206.569 46.8783 206.511 46.696 206.393 46.5332C206.276 46.3704 206.058 46.2207 205.739 46.084C205.427 45.9408 204.974 45.8105 204.382 45.6934C203.848 45.5762 203.35 45.4297 202.888 45.2539C202.432 45.0716 202.035 44.8535 201.696 44.5996C201.364 44.3457 201.104 44.0462 200.915 43.7012C200.726 43.3496 200.632 42.9492 200.632 42.5C200.632 42.0573 200.726 41.6406 200.915 41.25C201.11 40.8594 201.387 40.5143 201.745 40.2148C202.11 39.9089 202.552 39.6712 203.073 39.502C203.6 39.3262 204.193 39.2383 204.85 39.2383C205.768 39.2383 206.556 39.3848 207.214 39.6777C207.878 39.9707 208.386 40.3743 208.737 40.8887C209.095 41.3965 209.274 41.9759 209.274 42.627H206.462C206.462 42.3535 206.403 42.1094 206.286 41.8945C206.175 41.6732 206 41.5007 205.759 41.377C205.524 41.2467 205.218 41.1816 204.841 41.1816C204.528 41.1816 204.258 41.237 204.03 41.3477C203.802 41.4518 203.626 41.5951 203.503 41.7773C203.386 41.9531 203.327 42.1484 203.327 42.3633C203.327 42.526 203.36 42.6725 203.425 42.8027C203.496 42.9264 203.61 43.0404 203.766 43.1445C203.923 43.2487 204.125 43.3464 204.372 43.4375C204.626 43.5221 204.938 43.6003 205.309 43.6719C206.071 43.8281 206.751 44.0332 207.35 44.2871C207.949 44.5345 208.425 44.873 208.776 45.3027C209.128 45.7259 209.304 46.2826 209.304 46.9727C209.304 47.4414 209.199 47.8711 208.991 48.2617C208.783 48.6523 208.483 48.9941 208.093 49.2871C207.702 49.5736 207.233 49.7982 206.686 49.9609C206.146 50.1172 205.537 50.1953 204.86 50.1953C203.877 50.1953 203.044 50.0195 202.36 49.668C201.683 49.3164 201.169 48.8704 200.817 48.3301C200.472 47.7832 200.3 47.2233 200.3 46.6504H202.966C202.979 47.0345 203.076 47.3438 203.259 47.5781C203.447 47.8125 203.685 47.9818 203.972 48.0859C204.264 48.1901 204.58 48.2422 204.919 48.2422C205.283 48.2422 205.586 48.1934 205.827 48.0957C206.068 47.9915 206.25 47.8548 206.374 47.6855C206.504 47.5098 206.569 47.3079 206.569 47.0801ZM226.92 47.8027V50H217.193V48.125L221.793 43.1934C222.255 42.679 222.619 42.2266 222.886 41.8359C223.153 41.4388 223.345 41.084 223.463 40.7715C223.586 40.4525 223.648 40.1497 223.648 39.8633C223.648 39.4336 223.576 39.0658 223.433 38.7598C223.29 38.4473 223.078 38.2064 222.798 38.0371C222.525 37.8678 222.186 37.7832 221.783 37.7832C221.353 37.7832 220.982 37.8874 220.67 38.0957C220.364 38.304 220.129 38.5938 219.966 38.9648C219.81 39.3359 219.732 39.7559 219.732 40.2246H216.91C216.91 39.3783 217.112 38.6035 217.515 37.9004C217.919 37.1908 218.489 36.6276 219.224 36.2109C219.96 35.7878 220.832 35.5762 221.841 35.5762C222.838 35.5762 223.677 35.7389 224.361 36.0645C225.051 36.3835 225.572 36.8457 225.923 37.4512C226.282 38.0501 226.461 38.7663 226.461 39.5996C226.461 40.0684 226.386 40.5273 226.236 40.9766C226.086 41.4193 225.871 41.862 225.591 42.3047C225.318 42.7409 224.986 43.1836 224.595 43.6328C224.205 44.082 223.772 44.5475 223.297 45.0293L220.826 47.8027H226.92ZM238.848 41.6406V44.1016C238.848 45.1693 238.734 46.0905 238.506 46.8652C238.278 47.6335 237.949 48.265 237.52 48.7598C237.096 49.248 236.592 49.6094 236.006 49.8438C235.42 50.0781 234.769 50.1953 234.053 50.1953C233.48 50.1953 232.946 50.1237 232.451 49.9805C231.956 49.8307 231.51 49.5996 231.113 49.2871C230.723 48.9746 230.384 48.5807 230.098 48.1055C229.818 47.6237 229.603 47.0508 229.453 46.3867C229.303 45.7227 229.229 44.9609 229.229 44.1016V41.6406C229.229 40.5729 229.342 39.6582 229.57 38.8965C229.805 38.1283 230.133 37.5 230.557 37.0117C230.986 36.5234 231.494 36.1654 232.08 35.9375C232.666 35.7031 233.317 35.5859 234.033 35.5859C234.606 35.5859 235.137 35.6608 235.625 35.8105C236.12 35.9538 236.566 36.1784 236.963 36.4844C237.36 36.7904 237.699 37.1842 237.979 37.666C238.258 38.1413 238.473 38.7109 238.623 39.375C238.773 40.0326 238.848 40.7878 238.848 41.6406ZM236.025 44.4727V41.2598C236.025 40.7454 235.996 40.2962 235.938 39.9121C235.885 39.528 235.804 39.2025 235.693 38.9355C235.583 38.6621 235.446 38.4408 235.283 38.2715C235.12 38.1022 234.935 37.9785 234.727 37.9004C234.518 37.8223 234.287 37.7832 234.033 37.7832C233.714 37.7832 233.431 37.8451 233.184 37.9688C232.943 38.0924 232.738 38.291 232.568 38.5645C232.399 38.8314 232.269 39.1895 232.178 39.6387C232.093 40.0814 232.051 40.6217 232.051 41.2598V44.4727C232.051 44.987 232.077 45.4395 232.129 45.8301C232.188 46.2207 232.272 46.556 232.383 46.8359C232.5 47.1094 232.637 47.334 232.793 47.5098C232.956 47.679 233.141 47.8027 233.35 47.8809C233.564 47.959 233.799 47.998 234.053 47.998C234.365 47.998 234.642 47.9362 234.883 47.8125C235.13 47.6823 235.339 47.4805 235.508 47.207C235.684 46.9271 235.814 46.5625 235.898 46.1133C235.983 45.6641 236.025 45.1172 236.025 44.4727ZM251.088 47.8027V50H241.362V48.125L245.961 43.1934C246.424 42.679 246.788 42.2266 247.055 41.8359C247.322 41.4388 247.514 41.084 247.631 40.7715C247.755 40.4525 247.817 40.1497 247.817 39.8633C247.817 39.4336 247.745 39.0658 247.602 38.7598C247.459 38.4473 247.247 38.2064 246.967 38.0371C246.694 37.8678 246.355 37.7832 245.952 37.7832C245.522 37.7832 245.151 37.8874 244.838 38.0957C244.532 38.304 244.298 38.5938 244.135 38.9648C243.979 39.3359 243.901 39.7559 243.901 40.2246H241.079C241.079 39.3783 241.28 38.6035 241.684 37.9004C242.088 37.1908 242.657 36.6276 243.393 36.2109C244.129 35.7878 245.001 35.5762 246.01 35.5762C247.006 35.5762 247.846 35.7389 248.53 36.0645C249.22 36.3835 249.741 36.8457 250.092 37.4512C250.45 38.0501 250.629 38.7663 250.629 39.5996C250.629 40.0684 250.554 40.5273 250.405 40.9766C250.255 41.4193 250.04 41.862 249.76 42.3047C249.487 42.7409 249.155 43.1836 248.764 43.6328C248.373 44.082 247.941 44.5475 247.465 45.0293L244.995 47.8027H251.088ZM263.407 44.6875V46.8945H253.163L253.026 45.1855L258.954 35.7812H261.19L258.768 39.834L255.819 44.6875H263.407ZM261.796 35.7812V50H258.983V35.7812H261.796Z" fill="#EBEDF0"/>
<path d="M97.7411 62.9287L94.4461 72H93.0994L96.8934 62.0469H97.7616L97.7411 62.9287ZM100.503 72L97.201 62.9287L97.1805 62.0469H98.0487L101.856 72H100.503ZM100.332 68.3154V69.3955H94.7401V68.3154H100.332ZM106.583 72H104.505L104.518 70.9268H106.583C107.294 70.9268 107.886 70.7786 108.36 70.4824C108.834 70.1816 109.189 69.7624 109.426 69.2246C109.668 68.6823 109.789 68.0488 109.789 67.3242V66.7158C109.789 66.1462 109.72 65.6403 109.584 65.1982C109.447 64.7516 109.246 64.3757 108.982 64.0703C108.718 63.7604 108.394 63.5257 108.011 63.3662C107.633 63.2067 107.198 63.127 106.706 63.127H104.464V62.0469H106.706C107.357 62.0469 107.952 62.1562 108.49 62.375C109.028 62.5892 109.49 62.9014 109.878 63.3115C110.27 63.7171 110.57 64.2093 110.78 64.7881C110.99 65.3623 111.094 66.0094 111.094 66.7295V67.3242C111.094 68.0443 110.99 68.6937 110.78 69.2725C110.57 69.8467 110.267 70.3366 109.871 70.7422C109.479 71.1478 109.005 71.46 108.449 71.6787C107.897 71.8929 107.275 72 106.583 72ZM105.209 62.0469V72H103.889V62.0469H105.209ZM116.839 70.4893L119.772 62.0469H121.201L117.516 72H116.497L116.839 70.4893ZM114.098 62.0469L117.003 70.4893L117.366 72H116.347L112.669 62.0469H114.098ZM124.56 62.0469V72H123.24V62.0469H124.56ZM128.73 66.5244V67.6045H124.273V66.5244H128.73ZM129.406 62.0469V63.127H124.273V62.0469H129.406ZM139.335 62.0469V72H138.009L132.998 64.3232V72H131.679V62.0469H132.998L138.029 69.7441V62.0469H139.335ZM147.961 62.0469V72H146.641V62.0469H147.961ZM152.133 66.1826V72H150.869V64.6035H152.065L152.133 66.1826ZM151.832 68.0215L151.306 68.001C151.311 67.4951 151.386 67.028 151.532 66.5996C151.678 66.1667 151.883 65.7907 152.147 65.4717C152.411 65.1527 152.726 64.9066 153.09 64.7334C153.459 64.5557 153.867 64.4668 154.314 64.4668C154.678 64.4668 155.007 64.5169 155.298 64.6172C155.59 64.7129 155.838 64.8678 156.043 65.082C156.253 65.2962 156.413 65.5742 156.522 65.916C156.631 66.2533 156.686 66.6657 156.686 67.1533V72H155.414V67.1396C155.414 66.7523 155.358 66.4424 155.244 66.21C155.13 65.973 154.963 65.8021 154.745 65.6973C154.526 65.5879 154.257 65.5332 153.938 65.5332C153.623 65.5332 153.336 65.5993 153.077 65.7314C152.821 65.8636 152.6 66.0459 152.414 66.2783C152.231 66.5107 152.088 66.7773 151.983 67.0781C151.883 67.3743 151.832 67.6888 151.832 68.0215ZM162.404 64.6035V65.5742H158.405V64.6035H162.404ZM159.758 62.8057H161.023V70.168C161.023 70.4186 161.061 70.6077 161.139 70.7354C161.216 70.863 161.317 70.9473 161.44 70.9883C161.563 71.0293 161.695 71.0498 161.836 71.0498C161.941 71.0498 162.05 71.0407 162.164 71.0225C162.283 70.9997 162.372 70.9814 162.431 70.9678L162.438 72C162.337 72.0319 162.205 72.0615 162.041 72.0889C161.882 72.1208 161.688 72.1367 161.46 72.1367C161.15 72.1367 160.865 72.0752 160.606 71.9521C160.346 71.8291 160.139 71.624 159.984 71.3369C159.833 71.0452 159.758 70.6533 159.758 70.1611V62.8057ZM167.656 72.1367C167.141 72.1367 166.674 72.0501 166.255 71.877C165.84 71.6992 165.482 71.4508 165.182 71.1318C164.885 70.8128 164.658 70.4346 164.498 69.9971C164.339 69.5596 164.259 69.0811 164.259 68.5615V68.2744C164.259 67.6729 164.348 67.1374 164.525 66.668C164.703 66.194 164.945 65.793 165.25 65.4648C165.555 65.1367 165.902 64.8883 166.289 64.7197C166.676 64.5511 167.078 64.4668 167.492 64.4668C168.021 64.4668 168.477 64.5579 168.859 64.7402C169.247 64.9225 169.564 65.1777 169.81 65.5059C170.056 65.8294 170.238 66.2122 170.356 66.6543C170.475 67.0918 170.534 67.5703 170.534 68.0898V68.6572H165.011V67.625H169.27V67.5293C169.251 67.2012 169.183 66.8822 169.064 66.5723C168.951 66.2624 168.768 66.0072 168.518 65.8066C168.267 65.6061 167.925 65.5059 167.492 65.5059C167.205 65.5059 166.941 65.5674 166.699 65.6904C166.458 65.8089 166.25 65.9867 166.077 66.2236C165.904 66.4606 165.77 66.75 165.674 67.0918C165.578 67.4336 165.53 67.8278 165.53 68.2744V68.5615C165.53 68.9124 165.578 69.2428 165.674 69.5527C165.774 69.8581 165.918 70.127 166.105 70.3594C166.296 70.5918 166.526 70.7741 166.795 70.9062C167.068 71.0384 167.378 71.1045 167.725 71.1045C168.171 71.1045 168.55 71.0133 168.859 70.8311C169.169 70.6488 169.44 70.4049 169.673 70.0996L170.439 70.708C170.279 70.9495 170.076 71.1797 169.83 71.3984C169.584 71.6172 169.281 71.7949 168.921 71.9316C168.565 72.0684 168.144 72.1367 167.656 72.1367ZM173.975 65.7656V72H172.711V64.6035H173.941L173.975 65.7656ZM176.286 64.5625L176.279 65.7383C176.174 65.7155 176.074 65.7018 175.978 65.6973C175.887 65.6882 175.782 65.6836 175.664 65.6836C175.372 65.6836 175.115 65.7292 174.891 65.8203C174.668 65.9115 174.479 66.0391 174.324 66.2031C174.169 66.3672 174.046 66.5632 173.955 66.791C173.868 67.0143 173.811 67.2604 173.784 67.5293L173.429 67.7344C173.429 67.2878 173.472 66.8685 173.558 66.4766C173.65 66.0846 173.789 65.7383 173.975 65.4375C174.162 65.1322 174.399 64.8952 174.686 64.7266C174.978 64.5534 175.324 64.4668 175.725 64.4668C175.817 64.4668 175.921 64.4782 176.04 64.501C176.158 64.5192 176.24 64.5397 176.286 64.5625ZM179.42 66.1826V72H178.155V64.6035H179.351L179.42 66.1826ZM179.119 68.0215L178.592 68.001C178.597 67.4951 178.672 67.028 178.818 66.5996C178.964 66.1667 179.169 65.7907 179.433 65.4717C179.698 65.1527 180.012 64.9066 180.377 64.7334C180.746 64.5557 181.154 64.4668 181.6 64.4668C181.965 64.4668 182.293 64.5169 182.585 64.6172C182.876 64.7129 183.125 64.8678 183.33 65.082C183.539 65.2962 183.699 65.5742 183.808 65.916C183.918 66.2533 183.972 66.6657 183.972 67.1533V72H182.701V67.1396C182.701 66.7523 182.644 66.4424 182.53 66.21C182.416 65.973 182.25 65.8021 182.031 65.6973C181.812 65.5879 181.543 65.5332 181.224 65.5332C180.91 65.5332 180.623 65.5993 180.363 65.7314C180.108 65.8636 179.887 66.0459 179.7 66.2783C179.518 66.5107 179.374 66.7773 179.269 67.0781C179.169 67.3743 179.119 67.6888 179.119 68.0215ZM190.955 70.7354V66.9277C190.955 66.6361 190.895 66.3831 190.777 66.1689C190.663 65.9502 190.49 65.7816 190.257 65.6631C190.025 65.5446 189.738 65.4854 189.396 65.4854C189.077 65.4854 188.797 65.54 188.555 65.6494C188.318 65.7588 188.131 65.9023 187.995 66.0801C187.862 66.2578 187.796 66.4492 187.796 66.6543H186.532C186.532 66.39 186.6 66.1279 186.737 65.8682C186.873 65.6084 187.069 65.3737 187.325 65.1641C187.584 64.9499 187.894 64.7812 188.254 64.6582C188.619 64.5306 189.025 64.4668 189.471 64.4668C190.009 64.4668 190.483 64.5579 190.893 64.7402C191.308 64.9225 191.631 65.1982 191.864 65.5674C192.101 65.932 192.219 66.39 192.219 66.9414V70.3867C192.219 70.6328 192.24 70.8949 192.281 71.1729C192.326 71.4508 192.392 71.6901 192.479 71.8906V72H191.16C191.096 71.8542 191.046 71.6605 191.009 71.4189C190.973 71.1729 190.955 70.945 190.955 70.7354ZM191.173 67.5156L191.187 68.4043H189.909C189.549 68.4043 189.227 68.4339 188.945 68.4932C188.662 68.5479 188.425 68.6322 188.234 68.7461C188.042 68.86 187.897 69.0036 187.796 69.1768C187.696 69.3454 187.646 69.5436 187.646 69.7715C187.646 70.0039 187.698 70.2158 187.803 70.4072C187.908 70.5986 188.065 70.7513 188.275 70.8652C188.489 70.9746 188.751 71.0293 189.061 71.0293C189.448 71.0293 189.79 70.9473 190.086 70.7832C190.383 70.6191 190.617 70.4186 190.79 70.1816C190.968 69.9447 191.064 69.7145 191.078 69.4912L191.618 70.0996C191.586 70.291 191.499 70.5029 191.358 70.7354C191.217 70.9678 191.027 71.1911 190.79 71.4053C190.558 71.6149 190.28 71.7904 189.956 71.9316C189.637 72.0684 189.277 72.1367 188.876 72.1367C188.375 72.1367 187.935 72.0387 187.557 71.8428C187.183 71.6468 186.892 71.3848 186.682 71.0566C186.477 70.724 186.374 70.3525 186.374 69.9424C186.374 69.5459 186.452 69.1973 186.607 68.8965C186.762 68.5911 186.985 68.3382 187.277 68.1377C187.568 67.9326 187.919 67.7777 188.33 67.6729C188.74 67.568 189.198 67.5156 189.704 67.5156H191.173ZM198.005 64.6035V65.5742H194.006V64.6035H198.005ZM195.36 62.8057H196.624V70.168C196.624 70.4186 196.663 70.6077 196.74 70.7354C196.818 70.863 196.918 70.9473 197.041 70.9883C197.164 71.0293 197.296 71.0498 197.438 71.0498C197.543 71.0498 197.652 71.0407 197.766 71.0225C197.884 70.9997 197.973 70.9814 198.032 70.9678L198.039 72C197.939 72.0319 197.807 72.0615 197.643 72.0889C197.483 72.1208 197.29 72.1367 197.062 72.1367C196.752 72.1367 196.467 72.0752 196.207 71.9521C195.947 71.8291 195.74 71.624 195.585 71.3369C195.435 71.0452 195.36 70.6533 195.36 70.1611V62.8057ZM201.563 64.6035V72H200.291V64.6035H201.563ZM200.195 62.6416C200.195 62.4365 200.257 62.2633 200.38 62.1221C200.508 61.9808 200.694 61.9102 200.94 61.9102C201.182 61.9102 201.367 61.9808 201.494 62.1221C201.626 62.2633 201.692 62.4365 201.692 62.6416C201.692 62.8376 201.626 63.0062 201.494 63.1475C201.367 63.2842 201.182 63.3525 200.94 63.3525C200.694 63.3525 200.508 63.2842 200.38 63.1475C200.257 63.0062 200.195 62.8376 200.195 62.6416ZM203.958 68.3838V68.2266C203.958 67.6934 204.035 67.1989 204.19 66.7432C204.345 66.2829 204.569 65.8841 204.86 65.5469C205.152 65.2051 205.505 64.9408 205.92 64.7539C206.334 64.5625 206.799 64.4668 207.314 64.4668C207.834 64.4668 208.301 64.5625 208.716 64.7539C209.135 64.9408 209.49 65.2051 209.782 65.5469C210.078 65.8841 210.304 66.2829 210.459 66.7432C210.614 67.1989 210.691 67.6934 210.691 68.2266V68.3838C210.691 68.917 210.614 69.4115 210.459 69.8672C210.304 70.3229 210.078 70.7217 209.782 71.0635C209.49 71.4007 209.137 71.665 208.723 71.8564C208.312 72.0433 207.848 72.1367 207.328 72.1367C206.808 72.1367 206.341 72.0433 205.927 71.8564C205.512 71.665 205.156 71.4007 204.86 71.0635C204.569 70.7217 204.345 70.3229 204.19 69.8672C204.035 69.4115 203.958 68.917 203.958 68.3838ZM205.223 68.2266V68.3838C205.223 68.7529 205.266 69.1016 205.352 69.4297C205.439 69.7533 205.569 70.0404 205.742 70.291C205.92 70.5417 206.141 70.7399 206.405 70.8857C206.669 71.027 206.977 71.0977 207.328 71.0977C207.674 71.0977 207.977 71.027 208.237 70.8857C208.501 70.7399 208.72 70.5417 208.893 70.291C209.067 70.0404 209.196 69.7533 209.283 69.4297C209.374 69.1016 209.42 68.7529 209.42 68.3838V68.2266C209.42 67.862 209.374 67.5179 209.283 67.1943C209.196 66.8662 209.064 66.5768 208.887 66.3262C208.713 66.071 208.495 65.8704 208.23 65.7246C207.971 65.5788 207.665 65.5059 207.314 65.5059C206.968 65.5059 206.663 65.5788 206.398 65.7246C206.139 65.8704 205.92 66.071 205.742 66.3262C205.569 66.5768 205.439 66.8662 205.352 67.1943C205.266 67.5179 205.223 67.862 205.223 68.2266ZM214.242 66.1826V72H212.977V64.6035H214.173L214.242 66.1826ZM213.941 68.0215L213.415 68.001C213.419 67.4951 213.494 67.028 213.64 66.5996C213.786 66.1667 213.991 65.7907 214.255 65.4717C214.52 65.1527 214.834 64.9066 215.199 64.7334C215.568 64.5557 215.976 64.4668 216.422 64.4668C216.787 64.4668 217.115 64.5169 217.407 64.6172C217.699 64.7129 217.947 64.8678 218.152 65.082C218.362 65.2962 218.521 65.5742 218.63 65.916C218.74 66.2533 218.795 66.6657 218.795 67.1533V72H217.523V67.1396C217.523 66.7523 217.466 66.4424 217.352 66.21C217.238 65.973 217.072 65.8021 216.853 65.6973C216.634 65.5879 216.366 65.5332 216.047 65.5332C215.732 65.5332 215.445 65.5993 215.185 65.7314C214.93 65.8636 214.709 66.0459 214.522 66.2783C214.34 66.5107 214.196 66.7773 214.091 67.0781C213.991 67.3743 213.941 67.6888 213.941 68.0215ZM225.777 70.7354V66.9277C225.777 66.6361 225.718 66.3831 225.599 66.1689C225.485 65.9502 225.312 65.7816 225.08 65.6631C224.847 65.5446 224.56 65.4854 224.218 65.4854C223.899 65.4854 223.619 65.54 223.377 65.6494C223.14 65.7588 222.954 65.9023 222.817 66.0801C222.685 66.2578 222.619 66.4492 222.619 66.6543H221.354C221.354 66.39 221.422 66.1279 221.559 65.8682C221.696 65.6084 221.892 65.3737 222.147 65.1641C222.407 64.9499 222.717 64.7812 223.077 64.6582C223.441 64.5306 223.847 64.4668 224.293 64.4668C224.831 64.4668 225.305 64.5579 225.715 64.7402C226.13 64.9225 226.454 65.1982 226.686 65.5674C226.923 65.932 227.041 66.39 227.041 66.9414V70.3867C227.041 70.6328 227.062 70.8949 227.103 71.1729C227.149 71.4508 227.215 71.6901 227.301 71.8906V72H225.982C225.918 71.8542 225.868 71.6605 225.831 71.4189C225.795 71.1729 225.777 70.945 225.777 70.7354ZM225.996 67.5156L226.009 68.4043H224.731C224.371 68.4043 224.05 68.4339 223.767 68.4932C223.484 68.5479 223.247 68.6322 223.056 68.7461C222.865 68.86 222.719 69.0036 222.619 69.1768C222.518 69.3454 222.468 69.5436 222.468 69.7715C222.468 70.0039 222.521 70.2158 222.625 70.4072C222.73 70.5986 222.887 70.7513 223.097 70.8652C223.311 70.9746 223.573 71.0293 223.883 71.0293C224.271 71.0293 224.612 70.9473 224.909 70.7832C225.205 70.6191 225.44 70.4186 225.613 70.1816C225.79 69.9447 225.886 69.7145 225.9 69.4912L226.44 70.0996C226.408 70.291 226.321 70.5029 226.18 70.7354C226.039 70.9678 225.85 71.1911 225.613 71.4053C225.38 71.6149 225.102 71.7904 224.779 71.9316C224.46 72.0684 224.1 72.1367 223.699 72.1367C223.197 72.1367 222.758 72.0387 222.379 71.8428C222.006 71.6468 221.714 71.3848 221.504 71.0566C221.299 70.724 221.197 70.3525 221.197 69.9424C221.197 69.5459 221.274 69.1973 221.429 68.8965C221.584 68.5911 221.807 68.3382 222.099 68.1377C222.391 67.9326 222.742 67.7777 223.152 67.6729C223.562 67.568 224.02 67.5156 224.526 67.5156H225.996ZM231.105 61.5V72H229.833V61.5H231.105ZM239.518 62.0469V72H238.199V62.0469H239.518ZM243.688 66.5244V67.6045H239.231V66.5244H243.688ZM244.365 62.0469V63.127H239.231V62.0469H244.365ZM247.82 64.6035V72H246.548V64.6035H247.82ZM246.453 62.6416C246.453 62.4365 246.514 62.2633 246.637 62.1221C246.765 61.9808 246.952 61.9102 247.198 61.9102C247.439 61.9102 247.624 61.9808 247.752 62.1221C247.884 62.2633 247.95 62.4365 247.95 62.6416C247.95 62.8376 247.884 63.0062 247.752 63.1475C247.624 63.2842 247.439 63.3525 247.198 63.3525C246.952 63.3525 246.765 63.2842 246.637 63.1475C246.514 63.0062 246.453 62.8376 246.453 62.6416ZM251.815 66.1826V72H250.55V64.6035H251.747L251.815 66.1826ZM251.514 68.0215L250.988 68.001C250.992 67.4951 251.067 67.028 251.213 66.5996C251.359 66.1667 251.564 65.7907 251.829 65.4717C252.093 65.1527 252.407 64.9066 252.772 64.7334C253.141 64.5557 253.549 64.4668 253.996 64.4668C254.36 64.4668 254.688 64.5169 254.98 64.6172C255.272 64.7129 255.52 64.8678 255.725 65.082C255.935 65.2962 256.094 65.5742 256.204 65.916C256.313 66.2533 256.368 66.6657 256.368 67.1533V72H255.096V67.1396C255.096 66.7523 255.039 66.4424 254.925 66.21C254.811 65.973 254.645 65.8021 254.426 65.6973C254.207 65.5879 253.939 65.5332 253.62 65.5332C253.305 65.5332 253.018 65.5993 252.758 65.7314C252.503 65.8636 252.282 66.0459 252.095 66.2783C251.913 66.5107 251.769 66.7773 251.664 67.0781C251.564 67.3743 251.514 67.6888 251.514 68.0215ZM263.35 70.7354V66.9277C263.35 66.6361 263.291 66.3831 263.172 66.1689C263.058 65.9502 262.885 65.7816 262.653 65.6631C262.42 65.5446 262.133 65.4854 261.791 65.4854C261.472 65.4854 261.192 65.54 260.95 65.6494C260.713 65.7588 260.527 65.9023 260.39 66.0801C260.258 66.2578 260.192 66.4492 260.192 66.6543H258.927C258.927 66.39 258.995 66.1279 259.132 65.8682C259.269 65.6084 259.465 65.3737 259.72 65.1641C259.98 64.9499 260.29 64.7812 260.65 64.6582C261.014 64.5306 261.42 64.4668 261.866 64.4668C262.404 64.4668 262.878 64.5579 263.288 64.7402C263.703 64.9225 264.027 65.1982 264.259 65.5674C264.496 65.932 264.615 66.39 264.615 66.9414V70.3867C264.615 70.6328 264.635 70.8949 264.676 71.1729C264.722 71.4508 264.788 71.6901 264.874 71.8906V72H263.555C263.491 71.8542 263.441 71.6605 263.405 71.4189C263.368 71.1729 263.35 70.945 263.35 70.7354ZM263.569 67.5156L263.582 68.4043H262.304C261.944 68.4043 261.623 68.4339 261.34 68.4932C261.058 68.5479 260.821 68.6322 260.629 68.7461C260.438 68.86 260.292 69.0036 260.192 69.1768C260.091 69.3454 260.041 69.5436 260.041 69.7715C260.041 70.0039 260.094 70.2158 260.198 70.4072C260.303 70.5986 260.461 70.7513 260.67 70.8652C260.884 70.9746 261.146 71.0293 261.456 71.0293C261.844 71.0293 262.185 70.9473 262.482 70.7832C262.778 70.6191 263.013 70.4186 263.186 70.1816C263.364 69.9447 263.459 69.7145 263.473 69.4912L264.013 70.0996C263.981 70.291 263.894 70.5029 263.753 70.7354C263.612 70.9678 263.423 71.1911 263.186 71.4053C262.953 71.6149 262.675 71.7904 262.352 71.9316C262.033 72.0684 261.673 72.1367 261.272 72.1367C260.77 72.1367 260.331 72.0387 259.952 71.8428C259.579 71.6468 259.287 71.3848 259.077 71.0566C258.872 70.724 258.77 70.3525 258.77 69.9424C258.77 69.5459 258.847 69.1973 259.002 68.8965C259.157 68.5911 259.38 68.3382 259.672 68.1377C259.964 67.9326 260.315 67.7777 260.725 67.6729C261.135 67.568 261.593 67.5156 262.099 67.5156H263.569ZM268.568 66.1826V72H267.304V64.6035H268.5L268.568 66.1826ZM268.268 68.0215L267.741 68.001C267.746 67.4951 267.821 67.028 267.967 66.5996C268.113 66.1667 268.318 65.7907 268.582 65.4717C268.846 65.1527 269.161 64.9066 269.525 64.7334C269.895 64.5557 270.302 64.4668 270.749 64.4668C271.114 64.4668 271.442 64.5169 271.733 64.6172C272.025 64.7129 272.273 64.8678 272.479 65.082C272.688 65.2962 272.848 65.5742 272.957 65.916C273.066 66.2533 273.121 66.6657 273.121 67.1533V72H271.85V67.1396C271.85 66.7523 271.793 66.4424 271.679 66.21C271.565 65.973 271.398 65.8021 271.18 65.6973C270.961 65.5879 270.692 65.5332 270.373 65.5332C270.059 65.5332 269.772 65.5993 269.512 65.7314C269.257 65.8636 269.036 66.0459 268.849 66.2783C268.666 66.5107 268.523 66.7773 268.418 67.0781C268.318 67.3743 268.268 67.6888 268.268 68.0215ZM278.702 71.0977C279.003 71.0977 279.281 71.0361 279.536 70.9131C279.791 70.79 280.001 70.6214 280.165 70.4072C280.329 70.1885 280.422 69.9401 280.445 69.6621H281.648C281.625 70.0996 281.477 70.5075 281.204 70.8857C280.935 71.2594 280.582 71.5625 280.144 71.7949C279.707 72.0228 279.226 72.1367 278.702 72.1367C278.146 72.1367 277.661 72.0387 277.246 71.8428C276.836 71.6468 276.494 71.3779 276.221 71.0361C275.952 70.6943 275.749 70.3024 275.612 69.8604C275.48 69.4137 275.414 68.9421 275.414 68.4453V68.1582C275.414 67.6615 275.48 67.1921 275.612 66.75C275.749 66.3034 275.952 65.9092 276.221 65.5674C276.494 65.2256 276.836 64.9567 277.246 64.7607C277.661 64.5648 278.146 64.4668 278.702 64.4668C279.281 64.4668 279.787 64.5853 280.22 64.8223C280.653 65.0547 280.992 65.3737 281.238 65.7793C281.489 66.1803 281.625 66.6361 281.648 67.1465H280.445C280.422 66.8411 280.336 66.5654 280.185 66.3193C280.04 66.0732 279.839 65.8773 279.584 65.7314C279.333 65.5811 279.039 65.5059 278.702 65.5059C278.315 65.5059 277.989 65.5833 277.724 65.7383C277.465 65.8887 277.257 66.0938 277.102 66.3535C276.952 66.6087 276.843 66.8936 276.774 67.208C276.71 67.5179 276.679 67.8346 276.679 68.1582V68.4453C276.679 68.7689 276.71 69.0879 276.774 69.4023C276.838 69.7168 276.945 70.0016 277.096 70.2568C277.25 70.512 277.458 70.7171 277.718 70.8721C277.982 71.0225 278.31 71.0977 278.702 71.0977ZM285.144 64.6035V72H283.873V64.6035H285.144ZM283.777 62.6416C283.777 62.4365 283.839 62.2633 283.962 62.1221C284.089 61.9808 284.276 61.9102 284.522 61.9102C284.764 61.9102 284.948 61.9808 285.076 62.1221C285.208 62.2633 285.274 62.4365 285.274 62.6416C285.274 62.8376 285.208 63.0062 285.076 63.1475C284.948 63.2842 284.764 63.3525 284.522 63.3525C284.276 63.3525 284.089 63.2842 283.962 63.1475C283.839 63.0062 283.777 62.8376 283.777 62.6416ZM292.236 70.7354V66.9277C292.236 66.6361 292.177 66.3831 292.058 66.1689C291.944 65.9502 291.771 65.7816 291.539 65.6631C291.306 65.5446 291.019 65.4854 290.677 65.4854C290.358 65.4854 290.078 65.54 289.836 65.6494C289.599 65.7588 289.413 65.9023 289.276 66.0801C289.144 66.2578 289.078 66.4492 289.078 66.6543H287.813C287.813 66.39 287.881 66.1279 288.018 65.8682C288.155 65.6084 288.351 65.3737 288.606 65.1641C288.866 64.9499 289.176 64.7812 289.536 64.6582C289.9 64.5306 290.306 64.4668 290.752 64.4668C291.29 64.4668 291.764 64.5579 292.174 64.7402C292.589 64.9225 292.913 65.1982 293.145 65.5674C293.382 65.932 293.5 66.39 293.5 66.9414V70.3867C293.5 70.6328 293.521 70.8949 293.562 71.1729C293.608 71.4508 293.674 71.6901 293.76 71.8906V72H292.441C292.377 71.8542 292.327 71.6605 292.29 71.4189C292.254 71.1729 292.236 70.945 292.236 70.7354ZM292.455 67.5156L292.468 68.4043H291.19C290.83 68.4043 290.509 68.4339 290.226 68.4932C289.943 68.5479 289.706 68.6322 289.515 68.7461C289.324 68.86 289.178 69.0036 289.078 69.1768C288.977 69.3454 288.927 69.5436 288.927 69.7715C288.927 70.0039 288.98 70.2158 289.084 70.4072C289.189 70.5986 289.346 70.7513 289.556 70.8652C289.77 70.9746 290.032 71.0293 290.342 71.0293C290.73 71.0293 291.071 70.9473 291.368 70.7832C291.664 70.6191 291.899 70.4186 292.072 70.1816C292.249 69.9447 292.345 69.7145 292.359 69.4912L292.899 70.0996C292.867 70.291 292.78 70.5029 292.639 70.7354C292.498 70.9678 292.309 71.1911 292.072 71.4053C291.839 71.6149 291.561 71.7904 291.238 71.9316C290.919 72.0684 290.559 72.1367 290.158 72.1367C289.656 72.1367 289.217 72.0387 288.838 71.8428C288.465 71.6468 288.173 71.3848 287.963 71.0566C287.758 70.724 287.656 70.3525 287.656 69.9424C287.656 69.5459 287.733 69.1973 287.888 68.8965C288.043 68.5911 288.266 68.3382 288.558 68.1377C288.85 67.9326 289.201 67.7777 289.611 67.6729C290.021 67.568 290.479 67.5156 290.985 67.5156H292.455ZM297.564 61.5V72H296.292V61.5H297.564ZM175.813 84.9287L172.518 94H171.171L174.965 84.0469H175.833L175.813 84.9287ZM178.575 94L175.273 84.9287L175.252 84.0469H176.121L179.928 94H178.575ZM178.404 90.3154V91.3955H172.812V90.3154H178.404ZM183.41 92.6875L185.311 86.6035H186.145L185.981 87.8135L184.046 94H183.233L183.41 92.6875ZM182.132 86.6035L183.752 92.7559L183.868 94H183.014L180.867 86.6035H182.132ZM187.963 92.708L189.508 86.6035H190.766L188.619 94H187.772L187.963 92.708ZM186.329 86.6035L188.189 92.585L188.401 94H187.594L185.605 87.7998L185.441 86.6035H186.329ZM197.126 92.7354V88.9277C197.126 88.6361 197.067 88.3831 196.948 88.1689C196.834 87.9502 196.661 87.7816 196.429 87.6631C196.196 87.5446 195.909 87.4854 195.567 87.4854C195.248 87.4854 194.968 87.54 194.727 87.6494C194.49 87.7588 194.303 87.9023 194.166 88.0801C194.034 88.2578 193.968 88.4492 193.968 88.6543H192.703C192.703 88.39 192.772 88.1279 192.908 87.8682C193.045 87.6084 193.241 87.3737 193.496 87.1641C193.756 86.9499 194.066 86.7812 194.426 86.6582C194.79 86.5306 195.196 86.4668 195.643 86.4668C196.18 86.4668 196.654 86.5579 197.064 86.7402C197.479 86.9225 197.803 87.1982 198.035 87.5674C198.272 87.932 198.391 88.39 198.391 88.9414V92.3867C198.391 92.6328 198.411 92.8949 198.452 93.1729C198.498 93.4508 198.564 93.6901 198.65 93.8906V94H197.331C197.267 93.8542 197.217 93.6605 197.181 93.4189C197.144 93.1729 197.126 92.945 197.126 92.7354ZM197.345 89.5156L197.358 90.4043H196.08C195.72 90.4043 195.399 90.4339 195.116 90.4932C194.834 90.5479 194.597 90.6322 194.405 90.7461C194.214 90.86 194.068 91.0036 193.968 91.1768C193.868 91.3454 193.817 91.5436 193.817 91.7715C193.817 92.0039 193.87 92.2158 193.975 92.4072C194.079 92.5986 194.237 92.7513 194.446 92.8652C194.661 92.9746 194.923 93.0293 195.232 93.0293C195.62 93.0293 195.962 92.9473 196.258 92.7832C196.554 92.6191 196.789 92.4186 196.962 92.1816C197.14 91.9447 197.235 91.7145 197.249 91.4912L197.789 92.0996C197.757 92.291 197.671 92.5029 197.529 92.7354C197.388 92.9678 197.199 93.1911 196.962 93.4053C196.73 93.6149 196.452 93.7904 196.128 93.9316C195.809 94.0684 195.449 94.1367 195.048 94.1367C194.547 94.1367 194.107 94.0387 193.729 93.8428C193.355 93.6468 193.063 93.3848 192.854 93.0566C192.648 92.724 192.546 92.3525 192.546 91.9424C192.546 91.5459 192.623 91.1973 192.778 90.8965C192.933 90.5911 193.157 90.3382 193.448 90.1377C193.74 89.9326 194.091 89.7777 194.501 89.6729C194.911 89.568 195.369 89.5156 195.875 89.5156H197.345ZM202.345 87.7656V94H201.08V86.6035H202.31L202.345 87.7656ZM204.655 86.5625L204.648 87.7383C204.543 87.7155 204.443 87.7018 204.348 87.6973C204.256 87.6882 204.152 87.6836 204.033 87.6836C203.741 87.6836 203.484 87.7292 203.261 87.8203C203.037 87.9115 202.848 88.0391 202.693 88.2031C202.538 88.3672 202.415 88.5632 202.324 88.791C202.237 89.0143 202.181 89.2604 202.153 89.5293L201.798 89.7344C201.798 89.2878 201.841 88.8685 201.928 88.4766C202.019 88.0846 202.158 87.7383 202.345 87.4375C202.531 87.1322 202.768 86.8952 203.056 86.7266C203.347 86.5534 203.694 86.4668 204.095 86.4668C204.186 86.4668 204.291 86.4782 204.409 86.501C204.528 86.5192 204.61 86.5397 204.655 86.5625ZM211.049 92.5645V83.5H212.321V94H211.159L211.049 92.5645ZM206.073 90.3838V90.2402C206.073 89.6751 206.141 89.1624 206.278 88.7021C206.419 88.2373 206.617 87.8385 206.873 87.5059C207.132 87.1732 207.44 86.918 207.796 86.7402C208.156 86.5579 208.557 86.4668 208.999 86.4668C209.464 86.4668 209.869 86.5488 210.215 86.7129C210.566 86.8724 210.863 87.1071 211.104 87.417C211.35 87.7223 211.544 88.0915 211.685 88.5244C211.826 88.9574 211.924 89.4473 211.979 89.9941V90.623C211.929 91.1654 211.831 91.653 211.685 92.0859C211.544 92.5189 211.35 92.888 211.104 93.1934C210.863 93.4987 210.566 93.7334 210.215 93.8975C209.865 94.057 209.454 94.1367 208.985 94.1367C208.552 94.1367 208.156 94.0433 207.796 93.8564C207.44 93.6696 207.132 93.4076 206.873 93.0703C206.617 92.7331 206.419 92.3366 206.278 91.8809C206.141 91.4206 206.073 90.9215 206.073 90.3838ZM207.344 90.2402V90.3838C207.344 90.7529 207.381 91.0993 207.454 91.4229C207.531 91.7464 207.65 92.0312 207.809 92.2773C207.969 92.5234 208.172 92.7171 208.418 92.8584C208.664 92.9951 208.958 93.0635 209.299 93.0635C209.719 93.0635 210.063 92.9746 210.332 92.7969C210.605 92.6191 210.824 92.3844 210.988 92.0928C211.152 91.8011 211.28 91.4844 211.371 91.1426V89.4951C211.316 89.2445 211.236 89.0029 211.131 88.7705C211.031 88.5335 210.899 88.3239 210.735 88.1416C210.575 87.9548 210.377 87.8066 210.14 87.6973C209.908 87.5879 209.632 87.5332 209.313 87.5332C208.967 87.5332 208.668 87.6061 208.418 87.752C208.172 87.8932 207.969 88.0892 207.809 88.3398C207.65 88.5859 207.531 88.873 207.454 89.2012C207.381 89.5247 207.344 89.8711 207.344 90.2402ZM219.296 92.0381C219.296 91.8558 219.255 91.6872 219.173 91.5322C219.096 91.3727 218.934 91.2292 218.688 91.1016C218.446 90.9694 218.082 90.8555 217.594 90.7598C217.184 90.6732 216.813 90.5706 216.48 90.4521C216.152 90.3337 215.872 90.1901 215.639 90.0215C215.411 89.8529 215.236 89.6546 215.113 89.4268C214.99 89.1989 214.928 88.9323 214.928 88.627C214.928 88.3353 214.992 88.0596 215.12 87.7998C215.252 87.54 215.436 87.3099 215.673 87.1094C215.915 86.9089 216.204 86.7516 216.541 86.6377C216.879 86.5238 217.255 86.4668 217.669 86.4668C218.262 86.4668 218.768 86.5716 219.187 86.7812C219.606 86.9909 219.928 87.2712 220.151 87.6221C220.374 87.9684 220.486 88.3535 220.486 88.7773H219.221C219.221 88.5723 219.16 88.374 219.037 88.1826C218.918 87.9867 218.743 87.8249 218.51 87.6973C218.282 87.5697 218.002 87.5059 217.669 87.5059C217.318 87.5059 217.034 87.5605 216.815 87.6699C216.601 87.7747 216.443 87.9092 216.343 88.0732C216.247 88.2373 216.2 88.4105 216.2 88.5928C216.2 88.7295 216.222 88.8525 216.268 88.9619C216.318 89.0667 216.405 89.1647 216.528 89.2559C216.651 89.3424 216.824 89.4245 217.047 89.502C217.271 89.5794 217.555 89.6569 217.902 89.7344C218.508 89.8711 219.007 90.0352 219.399 90.2266C219.791 90.418 220.082 90.6527 220.274 90.9307C220.465 91.2087 220.561 91.5459 220.561 91.9424C220.561 92.266 220.493 92.5622 220.356 92.8311C220.224 93.0999 220.03 93.3324 219.775 93.5283C219.524 93.7197 219.223 93.8701 218.872 93.9795C218.526 94.0843 218.136 94.1367 217.704 94.1367C217.052 94.1367 216.5 94.0205 216.049 93.7881C215.598 93.5557 215.256 93.2549 215.024 92.8857C214.791 92.5166 214.675 92.127 214.675 91.7168H215.947C215.965 92.0632 216.065 92.3389 216.247 92.5439C216.43 92.7445 216.653 92.888 216.917 92.9746C217.182 93.0566 217.444 93.0977 217.704 93.0977C218.05 93.0977 218.339 93.0521 218.572 92.9609C218.809 92.8698 218.989 92.7445 219.112 92.585C219.235 92.4255 219.296 92.2432 219.296 92.0381Z" fill="#EBEDF0"/>
<path d="M378.173 73.6931C375.957 74.6916 374.098 76.0782 372.643 77.4158C374.275 74.6162 375.614 71.6773 376.654 68.646C378.553 68.1317 382.941 66.6433 386.399 63.1938C390.939 58.6629 392.226 52.4817 392.226 52.4817C392.226 52.4817 386.074 53.629 381.533 58.1618C380.224 59.4674 379.187 60.9105 378.372 62.3027C378.857 59.895 379.163 57.4534 379.289 55.0024C379.313 55.123 379.328 55.1908 379.328 55.1908C379.328 55.1908 384.372 51.502 386.65 45.4941C388.827 39.4485 387.401 33.352 387.401 33.352C387.401 33.352 382.325 36.9711 380.079 43.0487C379.569 44.4674 379.259 45.8879 379.078 47.233C378.686 43.5292 377.873 39.8573 376.631 36.3023C377.242 35.7202 381.326 31.6565 382.791 25.901C384.376 19.6746 382.237 13.7759 382.237 13.7759C382.237 13.7759 377.584 18.0261 375.999 24.2526C374.883 28.6309 375.612 32.8453 376.141 34.9628C374.71 31.227 372.797 27.6324 370.389 24.2733C370.761 23.0638 372.17 17.8434 370.718 12.4044C369.062 6.19678 364.357 2.00122 364.357 2.00122C364.357 2.00122 362.288 7.92625 363.944 14.132C364.421 15.918 365.15 17.5344 365.946 18.9342C364.962 17.9112 363.922 16.9183 362.825 15.9632C363.015 15.933 363.116 15.9123 363.116 15.9123C363.116 15.9123 359.582 10.6881 353.663 8.23145C347.744 5.77478 341.62 7.0634 341.62 7.0634C341.62 7.0634 345.154 12.2876 351.073 14.7443C356.021 16.7299 361.041 16.225 362.613 15.9952C366.001 19.2224 368.816 22.7755 371.079 26.5453C370.874 26.3193 370.665 26.0932 370.448 25.8746C365.845 21.404 359.719 20.2058 359.719 20.2058C359.719 20.2058 361.004 26.3343 365.529 30.8841C369.223 34.473 373.895 35.9519 375.599 36.3965C377.454 41.9994 378.269 47.8415 378.083 53.6328C377.995 53.0676 377.88 52.4968 377.734 51.9221C376.047 45.7221 371.386 41.5567 371.386 41.5567C371.386 41.5567 369.31 47.4459 370.956 53.7138C372.292 58.6234 375.49 62.2537 376.765 63.5537C375.507 68.8796 373.371 74.0096 370.391 78.6987C370.966 77.2067 371.441 75.513 371.648 73.695C372.301 67.282 369.454 61.7583 369.454 61.7583C369.454 61.7583 365.42 66.6038 364.695 72.9885C364.145 77.8378 365.696 82.2067 366.474 84.0266C364.17 86.7489 361.529 89.2564 358.566 91.4889C356.919 92.4516 355.79 93.354 355.389 93.6931C355.319 93.7383 355.248 93.7817 355.178 93.825C355.375 93.6498 355.571 93.4727 355.762 93.2862C360.331 88.7553 361.638 82.6758 361.638 82.6758C361.638 82.6758 355.452 83.84 350.846 88.3031C346.688 92.331 345.25 97.7285 345.007 98.744C340.179 100.421 335.094 101.351 330.012 101.819C328.718 101.917 327.415 102.003 326.116 101.901C327.411 102.045 328.718 102.003 330.02 101.947C333.937 101.775 337.794 101.071 341.614 100.219C345.437 99.345 349.176 98.0168 352.681 96.2308C353.894 95.6091 355.067 94.9478 356.202 94.2489C358.083 94.9742 362.44 96.3325 367.189 95.6223C373.524 94.6728 378.211 90.4603 378.211 90.4603C378.211 90.4603 372.577 87.7266 366.243 88.6743C364.911 88.874 363.655 89.2187 362.498 89.637C365.261 87.2519 367.693 84.6087 369.787 81.7696C371.657 81.9655 376.406 82.1822 380.964 80.1287C386.806 77.4949 390.181 72.1652 390.181 72.1652C390.181 72.1652 384.019 71.065 378.179 73.6987L378.173 73.6931Z" fill="#EBEDF0"/>
</svg>
