<svg width="261" height="62" viewBox="0 0 261 62" fill="none" xmlns="http://www.w3.org/2000/svg">
<path d="M38.1414 61.2017C35.067 60.9202 31.9903 60.3571 29.0693 59.3415C28.9239 58.7272 28.0536 55.4617 25.5371 53.0248C22.749 50.3247 19.0077 49.6203 19.0077 49.6203C19.0077 49.6203 19.7984 53.2984 22.5627 56.0396C22.6785 56.1513 22.7967 56.2596 22.916 56.3644C22.874 56.3382 22.8308 56.3108 22.7888 56.2846C22.5445 56.0795 21.8628 55.5335 20.8675 54.9522C19.0736 53.6027 17.4773 52.0845 16.0821 50.4375C16.5525 49.3365 17.4909 46.6944 17.1581 43.7595C16.7195 39.8967 14.2791 36.9652 14.2791 36.9652C14.2791 36.9652 12.5567 40.3082 12.9521 44.1869C13.077 45.2868 13.3645 46.3115 13.711 47.2142C11.908 44.3772 10.6162 41.2747 9.85496 38.0525C10.6264 37.2661 12.5612 35.0697 13.369 32.0994C14.3654 28.3073 13.1089 24.7443 13.1089 24.7443C13.1089 24.7443 10.289 27.2633 9.26871 31.0155C9.18009 31.3631 9.11079 31.7096 9.05739 32.0515C8.94491 28.5478 9.43799 25.0133 10.5605 21.6224C11.5898 21.3534 14.4177 20.4587 16.6525 18.2874C19.3906 15.5348 20.1677 11.8271 20.1677 11.8271C20.1677 11.8271 16.4605 12.5508 13.6769 15.2567C13.5451 15.3901 13.419 15.5246 13.2952 15.6613C14.6631 13.3817 16.3673 11.2321 18.4158 9.27964C19.3667 9.41869 22.4036 9.72301 25.3973 8.52281C28.9784 7.03653 31.1166 3.87589 31.1166 3.87589C31.1166 3.87589 27.4117 3.09741 23.8306 4.58256C20.2495 6.06884 18.1113 9.22948 18.1113 9.22948C18.1113 9.22948 18.1738 9.24202 18.2874 9.26026C17.625 9.83813 16.9956 10.4377 16.4002 11.0566C16.882 10.2097 17.3228 9.23176 17.6102 8.15124C18.6123 4.39563 17.3603 0.812126 17.3603 0.812126C17.3603 0.812126 14.5154 3.35044 13.5122 7.10605C12.634 10.3955 13.4861 13.5539 13.711 14.2867C12.2556 16.319 11.0968 18.4948 10.231 20.7551C10.5514 19.4739 10.9911 16.9242 10.3174 14.2742C9.35847 10.5072 6.54312 7.93582 6.54312 7.93582C6.54312 7.93582 5.24906 11.5056 6.20796 15.2715C7.09414 18.7536 9.56638 21.2121 9.93449 21.5643C9.1835 23.7162 8.69155 25.9365 8.4541 28.1785C8.34617 27.3647 8.15757 26.5053 7.84854 25.6459C6.48972 21.9689 3.41874 19.7794 3.41874 19.7794C3.41874 19.7794 2.55641 23.4678 3.87319 27.1253C5.25246 30.7601 8.30299 32.9919 8.30299 32.9919C8.30299 32.9919 8.31208 32.9508 8.32685 32.8767C8.40297 34.3596 8.58816 35.8368 8.88129 37.2946C8.3882 36.4523 7.76106 35.5792 6.96917 34.7893C4.22199 32.0481 0.5 31.3528 0.5 31.3528C0.5 31.3528 1.27825 35.0925 4.02544 37.8337C6.11706 39.9206 8.77222 40.8211 9.92085 41.1322C10.5503 42.9662 11.3603 44.7442 12.3476 46.438C11.4671 45.6299 10.3412 44.791 9.00172 44.1869C5.46719 42.5935 1.74066 43.2591 1.74066 43.2591C1.74066 43.2591 3.7823 46.4836 7.31683 48.077C10.0731 49.3205 12.9475 49.1883 14.0791 49.0697C15.3459 50.7874 16.8172 52.3877 18.4885 53.8295C17.7886 53.5765 17.0285 53.3679 16.223 53.2471C12.3908 52.6726 8.9824 54.3276 8.9824 54.3276C8.9824 54.3276 11.8182 56.8762 15.6504 57.4506C18.5248 57.8815 21.1607 57.0585 22.2979 56.6197C22.9842 57.0426 23.6931 57.4438 24.4282 57.8188C26.5471 58.8993 28.8091 59.7029 31.1235 60.2317C33.4344 60.7458 35.768 61.1732 38.138 61.2769C38.9253 61.3111 39.7161 61.3373 40.5 61.2496C39.7149 61.3111 38.9264 61.2587 38.1425 61.1994L38.1414 61.2017Z" fill="#EBEDF0"/>
<path d="M62.7682 11.5293H64.2565L66.4479 17.793L68.6393 11.5293H70.1276L67.0455 20.0605H65.8502L62.7682 11.5293ZM61.9655 11.5293H63.4479L63.7174 17.6348V20.0605H61.9655V11.5293ZM69.4479 11.5293H70.9362V20.0605H69.1784V17.6348L69.4479 11.5293ZM72.3422 16.9551V16.832C72.3422 16.3672 72.4086 15.9395 72.5414 15.5488C72.6742 15.1543 72.8676 14.8125 73.1215 14.5234C73.3754 14.2344 73.6879 14.0098 74.059 13.8496C74.4301 13.6855 74.8559 13.6035 75.3363 13.6035C75.8168 13.6035 76.2445 13.6855 76.6195 13.8496C76.9945 14.0098 77.309 14.2344 77.5629 14.5234C77.8207 14.8125 78.016 15.1543 78.1488 15.5488C78.2816 15.9395 78.348 16.3672 78.348 16.832V16.9551C78.348 17.416 78.2816 17.8438 78.1488 18.2383C78.016 18.6289 77.8207 18.9707 77.5629 19.2637C77.309 19.5527 76.9965 19.7773 76.6254 19.9375C76.2543 20.0977 75.8285 20.1777 75.348 20.1777C74.8676 20.1777 74.4398 20.0977 74.0648 19.9375C73.6938 19.7773 73.3793 19.5527 73.1215 19.2637C72.8676 18.9707 72.6742 18.6289 72.5414 18.2383C72.4086 17.8438 72.3422 17.416 72.3422 16.9551ZM74.0297 16.832V16.9551C74.0297 17.2207 74.0531 17.4688 74.1 17.6992C74.1469 17.9297 74.2211 18.1328 74.3227 18.3086C74.4281 18.4805 74.5648 18.6152 74.7328 18.7129C74.9008 18.8105 75.1059 18.8594 75.348 18.8594C75.5824 18.8594 75.7836 18.8105 75.9516 18.7129C76.1195 18.6152 76.2543 18.4805 76.3559 18.3086C76.4574 18.1328 76.5316 17.9297 76.5785 17.6992C76.6293 17.4688 76.6547 17.2207 76.6547 16.9551V16.832C76.6547 16.5742 76.6293 16.332 76.5785 16.1055C76.5316 15.875 76.4555 15.6719 76.35 15.4961C76.2484 15.3164 76.1137 15.1758 75.9457 15.0742C75.7777 14.9727 75.5746 14.9219 75.3363 14.9219C75.098 14.9219 74.8949 14.9727 74.727 15.0742C74.5629 15.1758 74.4281 15.3164 74.3227 15.4961C74.2211 15.6719 74.1469 15.875 74.1 16.1055C74.0531 16.332 74.0297 16.5742 74.0297 16.832ZM83.0529 18.3086C83.0529 18.1875 83.0177 18.0781 82.9474 17.9805C82.8771 17.8828 82.7463 17.793 82.5548 17.7109C82.3673 17.625 82.0959 17.5469 81.7404 17.4766C81.4201 17.4062 81.1213 17.3184 80.8439 17.2129C80.5705 17.1035 80.3322 16.9727 80.1291 16.8203C79.9298 16.668 79.7736 16.4883 79.6603 16.2812C79.547 16.0703 79.4904 15.8301 79.4904 15.5605C79.4904 15.2949 79.547 15.0449 79.6603 14.8105C79.7775 14.5762 79.9435 14.3691 80.1584 14.1895C80.3771 14.0059 80.6427 13.8633 80.9552 13.7617C81.2716 13.6562 81.6271 13.6035 82.0216 13.6035C82.5724 13.6035 83.0451 13.6914 83.4396 13.8672C83.838 14.043 84.1427 14.2852 84.3537 14.5938C84.5685 14.8984 84.6759 15.2461 84.6759 15.6367H82.9884C82.9884 15.4727 82.9533 15.3262 82.883 15.1973C82.8166 15.0645 82.7111 14.9609 82.5666 14.8867C82.4259 14.8086 82.2423 14.7695 82.0158 14.7695C81.8283 14.7695 81.6662 14.8027 81.5295 14.8691C81.3927 14.9316 81.2873 15.0176 81.213 15.127C81.1427 15.2324 81.1076 15.3496 81.1076 15.4785C81.1076 15.5762 81.1271 15.6641 81.1662 15.7422C81.2091 15.8164 81.2775 15.8848 81.3713 15.9473C81.465 16.0098 81.5861 16.0684 81.7345 16.123C81.8869 16.1738 82.0744 16.2207 82.297 16.2637C82.7541 16.3574 83.1623 16.4805 83.5216 16.6328C83.881 16.7812 84.1662 16.9844 84.3771 17.2422C84.588 17.4961 84.6935 17.8301 84.6935 18.2441C84.6935 18.5254 84.631 18.7832 84.506 19.0176C84.381 19.252 84.2013 19.457 83.967 19.6328C83.7326 19.8047 83.4513 19.9395 83.1232 20.0371C82.799 20.1309 82.4338 20.1777 82.0275 20.1777C81.4377 20.1777 80.9377 20.0723 80.5275 19.8613C80.1213 19.6504 79.8127 19.3828 79.6017 19.0586C79.3947 18.7305 79.2912 18.3945 79.2912 18.0508H80.8908C80.8986 18.2812 80.9572 18.4668 81.0666 18.6074C81.1798 18.748 81.3224 18.8496 81.4943 18.9121C81.6701 18.9746 81.8595 19.0059 82.0627 19.0059C82.2814 19.0059 82.463 18.9766 82.6076 18.918C82.7521 18.8555 82.8615 18.7734 82.9357 18.6719C83.0138 18.5664 83.0529 18.4453 83.0529 18.3086ZM89.1347 13.7207V14.916H85.4433V13.7207H89.1347ZM86.3573 12.1562H88.0448V18.1504C88.0448 18.334 88.0683 18.4746 88.1152 18.5723C88.1659 18.6699 88.2402 18.7383 88.3378 18.7773C88.4355 18.8125 88.5585 18.8301 88.707 18.8301C88.8124 18.8301 88.9062 18.8262 88.9882 18.8184C89.0741 18.8066 89.1464 18.7949 89.205 18.7832L89.2109 20.0254C89.0663 20.0723 88.9101 20.1094 88.7421 20.1367C88.5741 20.1641 88.3886 20.1777 88.1855 20.1777C87.8144 20.1777 87.4902 20.1172 87.2128 19.9961C86.9394 19.8711 86.7284 19.6719 86.58 19.3984C86.4316 19.125 86.3573 18.7656 86.3573 18.3203V12.1562ZM97.1381 12.9883L94.8178 20.0605H92.9487L96.1186 11.5293H97.308L97.1381 12.9883ZM99.0659 20.0605L96.7397 12.9883L96.5522 11.5293H97.7534L100.941 20.0605H99.0659ZM98.9604 16.8848V18.2617H94.4545V16.8848H98.9604ZM104.486 18.8594C104.693 18.8594 104.876 18.8203 105.036 18.7422C105.196 18.6602 105.321 18.5469 105.411 18.4023C105.505 18.2539 105.554 18.0801 105.558 17.8809H107.146C107.142 18.3262 107.023 18.7227 106.788 19.0703C106.554 19.4141 106.239 19.6855 105.845 19.8848C105.45 20.0801 105.009 20.1777 104.521 20.1777C104.029 20.1777 103.599 20.0957 103.232 19.9316C102.868 19.7676 102.566 19.541 102.323 19.252C102.081 18.959 101.9 18.6191 101.779 18.2324C101.657 17.8418 101.597 17.4238 101.597 16.9785V16.8086C101.597 16.3594 101.657 15.9414 101.779 15.5547C101.9 15.1641 102.081 14.8242 102.323 14.5352C102.566 14.2422 102.868 14.0137 103.232 13.8496C103.595 13.6855 104.021 13.6035 104.509 13.6035C105.029 13.6035 105.484 13.7031 105.874 13.9023C106.269 14.1016 106.577 14.3867 106.8 14.7578C107.027 15.125 107.142 15.5605 107.146 16.0645H105.558C105.554 15.8535 105.509 15.6621 105.423 15.4902C105.341 15.3184 105.22 15.1816 105.06 15.0801C104.904 14.9746 104.71 14.9219 104.48 14.9219C104.234 14.9219 104.032 14.9746 103.876 15.0801C103.72 15.1816 103.599 15.3223 103.513 15.502C103.427 15.6777 103.366 15.8789 103.331 16.1055C103.3 16.3281 103.284 16.5625 103.284 16.8086V16.9785C103.284 17.2246 103.3 17.4609 103.331 17.6875C103.362 17.9141 103.421 18.1152 103.507 18.291C103.597 18.4668 103.72 18.6055 103.876 18.707C104.032 18.8086 104.236 18.8594 104.486 18.8594ZM110.983 18.8594C111.19 18.8594 111.374 18.8203 111.534 18.7422C111.694 18.6602 111.819 18.5469 111.909 18.4023C112.003 18.2539 112.052 18.0801 112.056 17.8809H113.644C113.64 18.3262 113.52 18.7227 113.286 19.0703C113.052 19.4141 112.737 19.6855 112.343 19.8848C111.948 20.0801 111.507 20.1777 111.019 20.1777C110.526 20.1777 110.097 20.0957 109.729 19.9316C109.366 19.7676 109.063 19.541 108.821 19.252C108.579 18.959 108.397 18.6191 108.276 18.2324C108.155 17.8418 108.095 17.4238 108.095 16.9785V16.8086C108.095 16.3594 108.155 15.9414 108.276 15.5547C108.397 15.1641 108.579 14.8242 108.821 14.5352C109.063 14.2422 109.366 14.0137 109.729 13.8496C110.093 13.6855 110.519 13.6035 111.007 13.6035C111.526 13.6035 111.981 13.7031 112.372 13.9023C112.767 14.1016 113.075 14.3867 113.298 14.7578C113.524 15.125 113.64 15.5605 113.644 16.0645H112.056C112.052 15.8535 112.007 15.6621 111.921 15.4902C111.839 15.3184 111.718 15.1816 111.558 15.0801C111.401 14.9746 111.208 14.9219 110.978 14.9219C110.731 14.9219 110.53 14.9746 110.374 15.0801C110.218 15.1816 110.097 15.3223 110.011 15.502C109.925 15.6777 109.864 15.8789 109.829 16.1055C109.798 16.3281 109.782 16.5625 109.782 16.8086V16.9785C109.782 17.2246 109.798 17.4609 109.829 17.6875C109.86 17.9141 109.919 18.1152 110.005 18.291C110.095 18.4668 110.218 18.6055 110.374 18.707C110.53 18.8086 110.733 18.8594 110.983 18.8594ZM117.78 20.1777C117.288 20.1777 116.846 20.0996 116.456 19.9434C116.065 19.7832 115.733 19.5625 115.46 19.2812C115.19 19 114.983 18.6738 114.839 18.3027C114.694 17.9277 114.622 17.5293 114.622 17.1074V16.873C114.622 16.3926 114.69 15.9531 114.827 15.5547C114.964 15.1562 115.159 14.8105 115.413 14.5176C115.671 14.2246 115.983 14 116.35 13.8438C116.717 13.6836 117.132 13.6035 117.592 13.6035C118.042 13.6035 118.44 13.6777 118.788 13.8262C119.135 13.9746 119.426 14.1855 119.661 14.459C119.899 14.7324 120.079 15.0605 120.2 15.4434C120.321 15.8223 120.382 16.2441 120.382 16.709V17.4121H115.342V16.2871H118.723V16.1582C118.723 15.9238 118.68 15.7148 118.594 15.5312C118.512 15.3438 118.387 15.1953 118.219 15.0859C118.051 14.9766 117.837 14.9219 117.575 14.9219C117.352 14.9219 117.161 14.9707 117.001 15.0684C116.841 15.166 116.71 15.3027 116.608 15.4785C116.51 15.6543 116.436 15.8613 116.385 16.0996C116.339 16.334 116.315 16.5918 116.315 16.873V17.1074C116.315 17.3613 116.35 17.5957 116.421 17.8105C116.495 18.0254 116.598 18.2109 116.731 18.3672C116.868 18.5234 117.032 18.6445 117.223 18.7305C117.419 18.8164 117.639 18.8594 117.885 18.8594C118.19 18.8594 118.473 18.8008 118.735 18.6836C119.001 18.5625 119.229 18.3809 119.421 18.1387L120.241 19.0293C120.108 19.2207 119.926 19.4043 119.696 19.5801C119.469 19.7559 119.196 19.9004 118.876 20.0137C118.555 20.123 118.19 20.1777 117.78 20.1777ZM125.01 18.3086C125.01 18.1875 124.975 18.0781 124.905 17.9805C124.834 17.8828 124.704 17.793 124.512 17.7109C124.325 17.625 124.053 17.5469 123.698 17.4766C123.377 17.4062 123.079 17.3184 122.801 17.2129C122.528 17.1035 122.29 16.9727 122.086 16.8203C121.887 16.668 121.731 16.4883 121.618 16.2812C121.504 16.0703 121.448 15.8301 121.448 15.5605C121.448 15.2949 121.504 15.0449 121.618 14.8105C121.735 14.5762 121.901 14.3691 122.116 14.1895C122.334 14.0059 122.6 13.8633 122.913 13.7617C123.229 13.6562 123.584 13.6035 123.979 13.6035C124.53 13.6035 125.002 13.6914 125.397 13.8672C125.795 14.043 126.1 14.2852 126.311 14.5938C126.526 14.8984 126.633 15.2461 126.633 15.6367H124.946C124.946 15.4727 124.911 15.3262 124.84 15.1973C124.774 15.0645 124.668 14.9609 124.524 14.8867C124.383 14.8086 124.2 14.7695 123.973 14.7695C123.786 14.7695 123.624 14.8027 123.487 14.8691C123.35 14.9316 123.245 15.0176 123.17 15.127C123.1 15.2324 123.065 15.3496 123.065 15.4785C123.065 15.5762 123.084 15.6641 123.124 15.7422C123.166 15.8164 123.235 15.8848 123.329 15.9473C123.422 16.0098 123.543 16.0684 123.692 16.123C123.844 16.1738 124.032 16.2207 124.254 16.2637C124.711 16.3574 125.12 16.4805 125.479 16.6328C125.838 16.7812 126.124 16.9844 126.334 17.2422C126.545 17.4961 126.651 17.8301 126.651 18.2441C126.651 18.5254 126.588 18.7832 126.463 19.0176C126.338 19.252 126.159 19.457 125.924 19.6328C125.69 19.8047 125.409 19.9395 125.081 20.0371C124.756 20.1309 124.391 20.1777 123.985 20.1777C123.395 20.1777 122.895 20.0723 122.485 19.8613C122.079 19.6504 121.77 19.3828 121.559 19.0586C121.352 18.7305 121.249 18.3945 121.249 18.0508H122.848C122.856 18.2812 122.915 18.4668 123.024 18.6074C123.137 18.748 123.28 18.8496 123.452 18.9121C123.627 18.9746 123.817 19.0059 124.02 19.0059C124.239 19.0059 124.42 18.9766 124.565 18.918C124.709 18.8555 124.819 18.7734 124.893 18.6719C124.971 18.5664 125.01 18.4453 125.01 18.3086ZM131.414 18.3086C131.414 18.1875 131.379 18.0781 131.309 17.9805C131.239 17.8828 131.108 17.793 130.916 17.7109C130.729 17.625 130.457 17.5469 130.102 17.4766C129.781 17.4062 129.483 17.3184 129.205 17.2129C128.932 17.1035 128.694 16.9727 128.49 16.8203C128.291 16.668 128.135 16.4883 128.022 16.2812C127.908 16.0703 127.852 15.8301 127.852 15.5605C127.852 15.2949 127.908 15.0449 128.022 14.8105C128.139 14.5762 128.305 14.3691 128.52 14.1895C128.739 14.0059 129.004 13.8633 129.317 13.7617C129.633 13.6562 129.989 13.6035 130.383 13.6035C130.934 13.6035 131.406 13.6914 131.801 13.8672C132.199 14.043 132.504 14.2852 132.715 14.5938C132.93 14.8984 133.037 15.2461 133.037 15.6367H131.35C131.35 15.4727 131.315 15.3262 131.244 15.1973C131.178 15.0645 131.073 14.9609 130.928 14.8867C130.787 14.8086 130.604 14.7695 130.377 14.7695C130.19 14.7695 130.028 14.8027 129.891 14.8691C129.754 14.9316 129.649 15.0176 129.574 15.127C129.504 15.2324 129.469 15.3496 129.469 15.4785C129.469 15.5762 129.489 15.6641 129.528 15.7422C129.571 15.8164 129.639 15.8848 129.733 15.9473C129.826 16.0098 129.948 16.0684 130.096 16.123C130.248 16.1738 130.436 16.2207 130.658 16.2637C131.115 16.3574 131.524 16.4805 131.883 16.6328C132.242 16.7812 132.528 16.9844 132.739 17.2422C132.949 17.4961 133.055 17.8301 133.055 18.2441C133.055 18.5254 132.992 18.7832 132.867 19.0176C132.742 19.252 132.563 19.457 132.328 19.6328C132.094 19.8047 131.813 19.9395 131.485 20.0371C131.16 20.1309 130.795 20.1777 130.389 20.1777C129.799 20.1777 129.299 20.0723 128.889 19.8613C128.483 19.6504 128.174 19.3828 127.963 19.0586C127.756 18.7305 127.653 18.3945 127.653 18.0508H129.252C129.26 18.2812 129.319 18.4668 129.428 18.6074C129.541 18.748 129.684 18.8496 129.856 18.9121C130.031 18.9746 130.221 19.0059 130.424 19.0059C130.643 19.0059 130.824 18.9766 130.969 18.918C131.114 18.8555 131.223 18.7734 131.297 18.6719C131.375 18.5664 131.414 18.4453 131.414 18.3086ZM136.172 13.7207V20.0605H134.479V13.7207H136.172ZM134.373 12.0684C134.373 11.8223 134.459 11.6191 134.631 11.459C134.803 11.2988 135.033 11.2188 135.322 11.2188C135.607 11.2188 135.836 11.2988 136.008 11.459C136.184 11.6191 136.271 11.8223 136.271 12.0684C136.271 12.3145 136.184 12.5176 136.008 12.6777C135.836 12.8379 135.607 12.918 135.322 12.918C135.033 12.918 134.803 12.8379 134.631 12.6777C134.459 12.5176 134.373 12.3145 134.373 12.0684ZM137.806 11.0605H139.494V18.6074L139.324 20.0605H137.806V11.0605ZM143.508 16.8262V16.9492C143.508 17.4219 143.457 17.8555 143.355 18.25C143.258 18.6445 143.105 18.9863 142.898 19.2754C142.691 19.5605 142.433 19.7832 142.125 19.9434C141.82 20.0996 141.461 20.1777 141.047 20.1777C140.66 20.1777 140.324 20.0996 140.039 19.9434C139.758 19.7871 139.521 19.5664 139.33 19.2812C139.138 18.9961 138.984 18.6621 138.867 18.2793C138.75 17.8965 138.662 17.4785 138.603 17.0254V16.7559C138.662 16.3027 138.75 15.8848 138.867 15.502C138.984 15.1191 139.138 14.7852 139.33 14.5C139.521 14.2148 139.758 13.9941 140.039 13.8379C140.32 13.6816 140.652 13.6035 141.035 13.6035C141.453 13.6035 141.816 13.6836 142.125 13.8438C142.437 14 142.695 14.2227 142.898 14.5117C143.105 14.7969 143.258 15.1367 143.355 15.5312C143.457 15.9219 143.508 16.3535 143.508 16.8262ZM141.82 16.9492V16.8262C141.82 16.5684 141.801 16.3262 141.761 16.0996C141.726 15.8691 141.664 15.668 141.574 15.4961C141.484 15.3203 141.361 15.1816 141.205 15.0801C141.052 14.9785 140.855 14.9277 140.613 14.9277C140.383 14.9277 140.187 14.9668 140.027 15.0449C139.867 15.123 139.734 15.2324 139.629 15.373C139.527 15.5137 139.451 15.6816 139.4 15.877C139.349 16.0684 139.318 16.2793 139.306 16.5098V17.2773C139.318 17.5859 139.369 17.8594 139.459 18.0977C139.552 18.332 139.693 18.5176 139.881 18.6543C140.072 18.7871 140.32 18.8535 140.625 18.8535C140.863 18.8535 141.06 18.8066 141.217 18.7129C141.373 18.6191 141.494 18.4863 141.58 18.3145C141.67 18.1426 141.732 17.9414 141.767 17.7109C141.802 17.4766 141.82 17.2227 141.82 16.9492ZM146.578 11.0605V20.0605H144.884V11.0605H146.578ZM151.13 20.1777C150.638 20.1777 150.197 20.0996 149.806 19.9434C149.415 19.7832 149.083 19.5625 148.81 19.2812C148.54 19 148.333 18.6738 148.189 18.3027C148.044 17.9277 147.972 17.5293 147.972 17.1074V16.873C147.972 16.3926 148.04 15.9531 148.177 15.5547C148.314 15.1562 148.509 14.8105 148.763 14.5176C149.021 14.2246 149.333 14 149.7 13.8438C150.068 13.6836 150.482 13.6035 150.943 13.6035C151.392 13.6035 151.79 13.6777 152.138 13.8262C152.486 13.9746 152.777 14.1855 153.011 14.459C153.249 14.7324 153.429 15.0605 153.55 15.4434C153.671 15.8223 153.732 16.2441 153.732 16.709V17.4121H148.693V16.2871H152.074V16.1582C152.074 15.9238 152.031 15.7148 151.945 15.5312C151.863 15.3438 151.738 15.1953 151.57 15.0859C151.402 14.9766 151.187 14.9219 150.925 14.9219C150.702 14.9219 150.511 14.9707 150.351 15.0684C150.191 15.166 150.06 15.3027 149.958 15.4785C149.861 15.6543 149.786 15.8613 149.736 16.0996C149.689 16.334 149.665 16.5918 149.665 16.873V17.1074C149.665 17.3613 149.7 17.5957 149.771 17.8105C149.845 18.0254 149.949 18.2109 150.081 18.3672C150.218 18.5234 150.382 18.6445 150.574 18.7305C150.769 18.8164 150.99 18.8594 151.236 18.8594C151.54 18.8594 151.824 18.8008 152.085 18.6836C152.351 18.5625 152.579 18.3809 152.771 18.1387L153.591 19.0293C153.458 19.2207 153.277 19.4043 153.046 19.5801C152.82 19.7559 152.546 19.9004 152.226 20.0137C151.906 20.123 151.54 20.1777 151.13 20.1777ZM161.764 11.5293V20.0605H160.012V11.5293H161.764ZM164.389 11.5293V12.9062H157.429V11.5293H164.389ZM166.803 15.1035V20.0605H165.116V13.7207H166.704L166.803 15.1035ZM168.713 13.6797L168.684 15.2441C168.602 15.2324 168.503 15.2227 168.385 15.2148C168.272 15.2031 168.169 15.1973 168.075 15.1973C167.836 15.1973 167.629 15.2285 167.454 15.291C167.282 15.3496 167.137 15.4375 167.02 15.5547C166.907 15.6719 166.821 15.8145 166.762 15.9824C166.708 16.1504 166.676 16.3418 166.669 16.5566L166.329 16.4512C166.329 16.041 166.37 15.6641 166.452 15.3203C166.534 14.9727 166.653 14.6699 166.809 14.4121C166.969 14.1543 167.165 13.9551 167.395 13.8145C167.626 13.6738 167.889 13.6035 168.186 13.6035C168.28 13.6035 168.376 13.6113 168.473 13.627C168.571 13.6387 168.651 13.6562 168.713 13.6797ZM172.973 18.6309V15.8066C172.973 15.6035 172.94 15.4297 172.873 15.2852C172.807 15.1367 172.703 15.0215 172.563 14.9395C172.426 14.8574 172.248 14.8164 172.03 14.8164C171.842 14.8164 171.68 14.8496 171.543 14.916C171.407 14.9785 171.301 15.0703 171.227 15.1914C171.153 15.3086 171.116 15.4473 171.116 15.6074H169.428C169.428 15.3379 169.491 15.082 169.616 14.8398C169.741 14.5977 169.922 14.3848 170.16 14.2012C170.399 14.0137 170.682 13.8672 171.01 13.7617C171.342 13.6562 171.713 13.6035 172.123 13.6035C172.616 13.6035 173.053 13.6855 173.436 13.8496C173.819 14.0137 174.119 14.2598 174.338 14.5879C174.561 14.916 174.672 15.3262 174.672 15.8184V18.5312C174.672 18.8789 174.694 19.1641 174.737 19.3867C174.78 19.6055 174.842 19.7969 174.924 19.9609V20.0605H173.219C173.137 19.8887 173.075 19.6738 173.032 19.416C172.993 19.1543 172.973 18.8926 172.973 18.6309ZM173.196 16.1992L173.207 17.1543H172.264C172.041 17.1543 171.848 17.1797 171.684 17.2305C171.52 17.2812 171.385 17.3535 171.28 17.4473C171.174 17.5371 171.096 17.6426 171.045 17.7637C170.998 17.8848 170.975 18.0176 170.975 18.1621C170.975 18.3066 171.008 18.4375 171.075 18.5547C171.141 18.668 171.237 18.7578 171.362 18.8242C171.487 18.8867 171.633 18.918 171.801 18.918C172.055 18.918 172.276 18.8672 172.463 18.7656C172.651 18.6641 172.795 18.5391 172.897 18.3906C173.002 18.2422 173.057 18.1016 173.061 17.9688L173.506 18.6836C173.444 18.8438 173.358 19.0098 173.248 19.1816C173.143 19.3535 173.008 19.5156 172.844 19.668C172.68 19.8164 172.483 19.9395 172.252 20.0371C172.022 20.1309 171.748 20.1777 171.432 20.1777C171.03 20.1777 170.664 20.0977 170.336 19.9375C170.012 19.7734 169.754 19.5488 169.563 19.2637C169.375 18.9746 169.282 18.6465 169.282 18.2793C169.282 17.9473 169.344 17.6523 169.469 17.3945C169.594 17.1367 169.778 16.9199 170.02 16.7441C170.266 16.5645 170.573 16.4297 170.94 16.3398C171.307 16.2461 171.733 16.1992 172.217 16.1992H173.196ZM179.957 18.6777V11.0605H181.656V20.0605H180.127L179.957 18.6777ZM175.949 16.9668V16.8438C175.949 16.3594 176.004 15.9199 176.113 15.5254C176.223 15.127 176.383 14.7852 176.594 14.5C176.805 14.2148 177.065 13.9941 177.373 13.8379C177.682 13.6816 178.033 13.6035 178.428 13.6035C178.799 13.6035 179.123 13.6816 179.4 13.8379C179.682 13.9941 179.92 14.2168 180.115 14.5059C180.315 14.791 180.475 15.1289 180.596 15.5195C180.717 15.9062 180.805 16.3301 180.859 16.791V17.0605C180.805 17.502 180.717 17.9121 180.596 18.291C180.475 18.6699 180.315 19.002 180.115 19.2871C179.92 19.5684 179.682 19.7871 179.4 19.9434C179.119 20.0996 178.791 20.1777 178.416 20.1777C178.022 20.1777 177.67 20.0977 177.361 19.9375C177.057 19.7773 176.799 19.5527 176.588 19.2637C176.381 18.9746 176.223 18.6348 176.113 18.2441C176.004 17.8535 175.949 17.4277 175.949 16.9668ZM177.637 16.8438V16.9668C177.637 17.2285 177.656 17.4727 177.695 17.6992C177.738 17.9258 177.807 18.127 177.9 18.3027C177.998 18.4746 178.123 18.6094 178.275 18.707C178.432 18.8008 178.621 18.8477 178.844 18.8477C179.133 18.8477 179.371 18.7832 179.559 18.6543C179.746 18.5215 179.889 18.3398 179.986 18.1094C180.088 17.8789 180.147 17.6133 180.162 17.3125V16.5449C180.15 16.2988 180.115 16.0781 180.057 15.8828C180.002 15.6836 179.92 15.5137 179.811 15.373C179.705 15.2324 179.572 15.123 179.412 15.0449C179.256 14.9668 179.07 14.9277 178.856 14.9277C178.637 14.9277 178.449 14.9785 178.293 15.0801C178.137 15.1777 178.01 15.3125 177.912 15.4844C177.818 15.6562 177.748 15.8594 177.701 16.0938C177.658 16.3242 177.637 16.5742 177.637 16.8438ZM184.996 13.7207V20.0605H183.303V13.7207H184.996ZM183.197 12.0684C183.197 11.8223 183.283 11.6191 183.455 11.459C183.627 11.2988 183.857 11.2188 184.146 11.2188C184.431 11.2188 184.66 11.2988 184.832 11.459C185.008 11.6191 185.096 11.8223 185.096 12.0684C185.096 12.3145 185.008 12.5176 184.832 12.6777C184.66 12.8379 184.431 12.918 184.146 12.918C183.857 12.918 183.627 12.8379 183.455 12.6777C183.283 12.5176 183.197 12.3145 183.197 12.0684ZM188.283 15.0742V20.0605H186.595V13.7207H188.177L188.283 15.0742ZM188.037 16.668H187.58C187.58 16.1992 187.64 15.7773 187.761 15.4023C187.882 15.0234 188.052 14.7012 188.271 14.4355C188.49 14.166 188.75 13.9609 189.05 13.8203C189.355 13.6758 189.695 13.6035 190.07 13.6035C190.367 13.6035 190.638 13.6465 190.884 13.7324C191.13 13.8184 191.341 13.9551 191.517 14.1426C191.697 14.3301 191.834 14.5781 191.927 14.8867C192.025 15.1953 192.074 15.5723 192.074 16.0176V20.0605H190.375V16.0117C190.375 15.7305 190.336 15.5117 190.257 15.3555C190.179 15.1992 190.064 15.0898 189.912 15.0273C189.763 14.9609 189.58 14.9277 189.361 14.9277C189.134 14.9277 188.937 14.9727 188.769 15.0625C188.605 15.1523 188.468 15.2773 188.359 15.4375C188.254 15.5938 188.173 15.7773 188.119 15.9883C188.064 16.1992 188.037 16.4258 188.037 16.668ZM197.611 13.7207H199.14V19.8496C199.14 20.4277 199.011 20.918 198.753 21.3203C198.499 21.7266 198.144 22.0332 197.687 22.2402C197.23 22.4512 196.699 22.5566 196.093 22.5566C195.827 22.5566 195.546 22.5215 195.249 22.4512C194.956 22.3809 194.675 22.2715 194.406 22.123C194.14 21.9746 193.917 21.7871 193.738 21.5605L194.482 20.5645C194.677 20.791 194.904 20.9668 195.161 21.0918C195.419 21.2207 195.704 21.2852 196.017 21.2852C196.322 21.2852 196.579 21.2285 196.79 21.1152C197.001 21.0059 197.163 20.8438 197.277 20.6289C197.39 20.418 197.447 20.1621 197.447 19.8613V15.1855L197.611 13.7207ZM193.345 16.9668V16.8438C193.345 16.3594 193.404 15.9199 193.521 15.5254C193.642 15.127 193.812 14.7852 194.031 14.5C194.253 14.2148 194.523 13.9941 194.839 13.8379C195.156 13.6816 195.513 13.6035 195.911 13.6035C196.333 13.6035 196.687 13.6816 196.972 13.8379C197.257 13.9941 197.492 14.2168 197.675 14.5059C197.859 14.791 198.001 15.1289 198.103 15.5195C198.208 15.9062 198.29 16.3301 198.349 16.791V17.0605C198.29 17.502 198.202 17.9121 198.085 18.291C197.968 18.6699 197.814 19.002 197.622 19.2871C197.431 19.5684 197.193 19.7871 196.908 19.9434C196.626 20.0996 196.29 20.1777 195.9 20.1777C195.509 20.1777 195.156 20.0977 194.839 19.9375C194.527 19.7773 194.259 19.5527 194.036 19.2637C193.814 18.9746 193.642 18.6348 193.521 18.2441C193.404 17.8535 193.345 17.4277 193.345 16.9668ZM195.033 16.8438V16.9668C195.033 17.2285 195.058 17.4727 195.109 17.6992C195.16 17.9258 195.238 18.127 195.343 18.3027C195.452 18.4746 195.587 18.6094 195.747 18.707C195.911 18.8008 196.105 18.8477 196.327 18.8477C196.636 18.8477 196.888 18.7832 197.083 18.6543C197.279 18.5215 197.425 18.3398 197.523 18.1094C197.62 17.8789 197.677 17.6133 197.693 17.3125V16.5449C197.685 16.2988 197.652 16.0781 197.593 15.8828C197.535 15.6836 197.452 15.5137 197.347 15.373C197.242 15.2324 197.105 15.123 196.937 15.0449C196.769 14.9668 196.57 14.9277 196.339 14.9277C196.117 14.9277 195.923 14.9785 195.759 15.0801C195.599 15.1777 195.464 15.3125 195.355 15.4844C195.249 15.6562 195.169 15.8594 195.115 16.0938C195.06 16.3242 195.033 16.5742 195.033 16.8438ZM90.0748 32.3164H87.8834L87.8716 31.1094H89.7115C90.0357 31.1094 90.3013 31.0684 90.5084 30.9863C90.7154 30.9004 90.8697 30.7773 90.9712 30.6172C91.0767 30.4531 91.1295 30.2539 91.1295 30.0195C91.1295 29.7539 91.0787 29.5391 90.9771 29.375C90.8795 29.2109 90.7252 29.0918 90.5142 29.0176C90.3072 28.9434 90.0396 28.9062 89.7115 28.9062H88.4927V36.0605H86.7349V27.5293H89.7115C90.2076 27.5293 90.6509 27.5762 91.0416 27.6699C91.4361 27.7637 91.7701 27.9062 92.0435 28.0977C92.317 28.2891 92.5259 28.5312 92.6705 28.8242C92.815 29.1133 92.8873 29.457 92.8873 29.8555C92.8873 30.207 92.8072 30.5312 92.647 30.8281C92.4908 31.125 92.2427 31.3672 91.9029 31.5547C91.567 31.7422 91.1275 31.8457 90.5845 31.8652L90.0748 32.3164ZM89.9986 36.0605H87.4029L88.0884 34.6895H89.9986C90.3072 34.6895 90.5591 34.6406 90.7545 34.543C90.9498 34.4414 91.0943 34.3047 91.188 34.1328C91.2818 33.9609 91.3287 33.7637 91.3287 33.541C91.3287 33.291 91.2857 33.0742 91.1998 32.8906C91.1177 32.707 90.9849 32.5664 90.8013 32.4688C90.6177 32.3672 90.3755 32.3164 90.0748 32.3164H88.3814L88.3931 31.1094H90.5025L90.9068 31.584C91.4263 31.5762 91.8443 31.668 92.1607 31.8594C92.481 32.0469 92.7134 32.291 92.858 32.5918C93.0064 32.8926 93.0806 33.2148 93.0806 33.5586C93.0806 34.1055 92.9615 34.5664 92.7232 34.9414C92.4849 35.3125 92.1353 35.5918 91.6744 35.7793C91.2173 35.9668 90.6587 36.0605 89.9986 36.0605ZM96.221 31.1035V36.0605H94.5335V29.7207H96.1214L96.221 31.1035ZM98.1312 29.6797L98.1019 31.2441C98.0198 31.2324 97.9202 31.2227 97.803 31.2148C97.6898 31.2031 97.5863 31.1973 97.4925 31.1973C97.2542 31.1973 97.0472 31.2285 96.8714 31.291C96.6995 31.3496 96.555 31.4375 96.4378 31.5547C96.3245 31.6719 96.2386 31.8145 96.18 31.9824C96.1253 32.1504 96.0941 32.3418 96.0863 32.5566L95.7464 32.4512C95.7464 32.041 95.7874 31.6641 95.8695 31.3203C95.9515 30.9727 96.0706 30.6699 96.2269 30.4121C96.387 30.1543 96.5823 29.9551 96.8128 29.8145C97.0433 29.6738 97.307 29.6035 97.6038 29.6035C97.6976 29.6035 97.7933 29.6113 97.8909 29.627C97.9886 29.6387 98.0687 29.6562 98.1312 29.6797ZM98.7227 32.9551V32.832C98.7227 32.3672 98.7891 31.9395 98.922 31.5488C99.0548 31.1543 99.2481 30.8125 99.502 30.5234C99.7559 30.2344 100.068 30.0098 100.44 29.8496C100.811 29.6855 101.236 29.6035 101.717 29.6035C102.197 29.6035 102.625 29.6855 103 29.8496C103.375 30.0098 103.69 30.2344 103.943 30.5234C104.201 30.8125 104.397 31.1543 104.529 31.5488C104.662 31.9395 104.729 32.3672 104.729 32.832V32.9551C104.729 33.416 104.662 33.8438 104.529 34.2383C104.397 34.6289 104.201 34.9707 103.943 35.2637C103.69 35.5527 103.377 35.7773 103.006 35.9375C102.635 36.0977 102.209 36.1777 101.729 36.1777C101.248 36.1777 100.82 36.0977 100.445 35.9375C100.074 35.7773 99.7598 35.5527 99.502 35.2637C99.2481 34.9707 99.0548 34.6289 98.922 34.2383C98.7891 33.8438 98.7227 33.416 98.7227 32.9551ZM100.41 32.832V32.9551C100.41 33.2207 100.434 33.4688 100.481 33.6992C100.527 33.9297 100.602 34.1328 100.703 34.3086C100.809 34.4805 100.945 34.6152 101.113 34.7129C101.281 34.8105 101.486 34.8594 101.729 34.8594C101.963 34.8594 102.164 34.8105 102.332 34.7129C102.5 34.6152 102.635 34.4805 102.736 34.3086C102.838 34.1328 102.912 33.9297 102.959 33.6992C103.01 33.4688 103.035 33.2207 103.035 32.9551V32.832C103.035 32.5742 103.01 32.332 102.959 32.1055C102.912 31.875 102.836 31.6719 102.731 31.4961C102.629 31.3164 102.494 31.1758 102.326 31.0742C102.158 30.9727 101.955 30.9219 101.717 30.9219C101.479 30.9219 101.275 30.9727 101.107 31.0742C100.943 31.1758 100.809 31.3164 100.703 31.4961C100.602 31.6719 100.527 31.875 100.481 32.1055C100.434 32.332 100.41 32.5742 100.41 32.832ZM107.693 27.0547V36.0605H106.006V27.0547H107.693ZM111.689 29.7207L108.935 32.8613L107.459 34.3555L106.844 33.1367L108.015 31.6484L109.662 29.7207H111.689ZM109.937 36.0605L108.062 33.1309L109.228 32.1113L111.883 36.0605H109.937ZM115.457 36.1777C114.964 36.1777 114.523 36.0996 114.132 35.9434C113.742 35.7832 113.41 35.5625 113.136 35.2812C112.867 35 112.66 34.6738 112.515 34.3027C112.371 33.9277 112.298 33.5293 112.298 33.1074V32.873C112.298 32.3926 112.367 31.9531 112.504 31.5547C112.64 31.1562 112.836 30.8105 113.089 30.5176C113.347 30.2246 113.66 30 114.027 29.8438C114.394 29.6836 114.808 29.6035 115.269 29.6035C115.718 29.6035 116.117 29.6777 116.464 29.8262C116.812 29.9746 117.103 30.1855 117.337 30.459C117.576 30.7324 117.755 31.0605 117.877 31.4434C117.998 31.8223 118.058 32.2441 118.058 32.709V33.4121H113.019V32.2871H116.4V32.1582C116.4 31.9238 116.357 31.7148 116.271 31.5312C116.189 31.3438 116.064 31.1953 115.896 31.0859C115.728 30.9766 115.513 30.9219 115.252 30.9219C115.029 30.9219 114.837 30.9707 114.677 31.0684C114.517 31.166 114.386 31.3027 114.285 31.4785C114.187 31.6543 114.113 31.8613 114.062 32.0996C114.015 32.334 113.992 32.5918 113.992 32.873V33.1074C113.992 33.3613 114.027 33.5957 114.097 33.8105C114.171 34.0254 114.275 34.2109 114.408 34.3672C114.545 34.5234 114.709 34.6445 114.9 34.7305C115.095 34.8164 115.316 34.8594 115.562 34.8594C115.867 34.8594 116.15 34.8008 116.412 34.6836C116.677 34.5625 116.906 34.3809 117.097 34.1387L117.918 35.0293C117.785 35.2207 117.603 35.4043 117.373 35.5801C117.146 35.7559 116.873 35.9004 116.552 36.0137C116.232 36.123 115.867 36.1777 115.457 36.1777ZM120.947 31.1035V36.0605H119.259V29.7207H120.847L120.947 31.1035ZM122.857 29.6797L122.827 31.2441C122.745 31.2324 122.646 31.2227 122.529 31.2148C122.415 31.2031 122.312 31.1973 122.218 31.1973C121.98 31.1973 121.773 31.2285 121.597 31.291C121.425 31.3496 121.281 31.4375 121.163 31.5547C121.05 31.6719 120.964 31.8145 120.906 31.9824C120.851 32.1504 120.82 32.3418 120.812 32.5566L120.472 32.4512C120.472 32.041 120.513 31.6641 120.595 31.3203C120.677 30.9727 120.796 30.6699 120.952 30.4121C121.113 30.1543 121.308 29.9551 121.538 29.8145C121.769 29.6738 122.033 29.6035 122.329 29.6035C122.423 29.6035 122.519 29.6113 122.617 29.627C122.714 29.6387 122.794 29.6562 122.857 29.6797ZM127.116 34.6309V31.8066C127.116 31.6035 127.083 31.4297 127.017 31.2852C126.95 31.1367 126.847 31.0215 126.706 30.9395C126.569 30.8574 126.392 30.8164 126.173 30.8164C125.985 30.8164 125.823 30.8496 125.687 30.916C125.55 30.9785 125.444 31.0703 125.37 31.1914C125.296 31.3086 125.259 31.4473 125.259 31.6074H123.571C123.571 31.3379 123.634 31.082 123.759 30.8398C123.884 30.5977 124.066 30.3848 124.304 30.2012C124.542 30.0137 124.825 29.8672 125.153 29.7617C125.485 29.6562 125.857 29.6035 126.267 29.6035C126.759 29.6035 127.196 29.6855 127.579 29.8496C127.962 30.0137 128.263 30.2598 128.482 30.5879C128.704 30.916 128.816 31.3262 128.816 31.8184V34.5312C128.816 34.8789 128.837 35.1641 128.88 35.3867C128.923 35.6055 128.985 35.7969 129.067 35.9609V36.0605H127.362C127.28 35.8887 127.218 35.6738 127.175 35.416C127.136 35.1543 127.116 34.8926 127.116 34.6309ZM127.339 32.1992L127.351 33.1543H126.407C126.185 33.1543 125.991 33.1797 125.827 33.2305C125.663 33.2812 125.528 33.3535 125.423 33.4473C125.317 33.5371 125.239 33.6426 125.189 33.7637C125.142 33.8848 125.118 34.0176 125.118 34.1621C125.118 34.3066 125.151 34.4375 125.218 34.5547C125.284 34.668 125.38 34.7578 125.505 34.8242C125.63 34.8867 125.776 34.918 125.944 34.918C126.198 34.918 126.419 34.8672 126.607 34.7656C126.794 34.6641 126.939 34.5391 127.04 34.3906C127.146 34.2422 127.2 34.1016 127.204 33.9688L127.65 34.6836C127.587 34.8438 127.501 35.0098 127.392 35.1816C127.286 35.3535 127.151 35.5156 126.987 35.668C126.823 35.8164 126.626 35.9395 126.396 36.0371C126.165 36.1309 125.892 36.1777 125.575 36.1777C125.173 36.1777 124.808 36.0977 124.48 35.9375C124.155 35.7734 123.898 35.5488 123.706 35.2637C123.519 34.9746 123.425 34.6465 123.425 34.2793C123.425 33.9473 123.487 33.6523 123.612 33.3945C123.737 33.1367 123.921 32.9199 124.163 32.7441C124.409 32.5645 124.716 32.4297 125.083 32.3398C125.45 32.2461 125.876 32.1992 126.36 32.1992H127.339ZM134.37 29.7207H135.899V35.8496C135.899 36.4277 135.77 36.918 135.513 37.3203C135.259 37.7266 134.903 38.0332 134.446 38.2402C133.989 38.4512 133.458 38.5566 132.852 38.5566C132.587 38.5566 132.306 38.5215 132.009 38.4512C131.716 38.3809 131.434 38.2715 131.165 38.123C130.899 37.9746 130.677 37.7871 130.497 37.5605L131.241 36.5645C131.436 36.791 131.663 36.9668 131.921 37.0918C132.179 37.2207 132.464 37.2852 132.776 37.2852C133.081 37.2852 133.339 37.2285 133.55 37.1152C133.761 37.0059 133.923 36.8438 134.036 36.6289C134.149 36.418 134.206 36.1621 134.206 35.8613V31.1855L134.37 29.7207ZM130.104 32.9668V32.8438C130.104 32.3594 130.163 31.9199 130.28 31.5254C130.401 31.127 130.571 30.7852 130.79 30.5C131.013 30.2148 131.282 29.9941 131.599 29.8379C131.915 29.6816 132.272 29.6035 132.671 29.6035C133.093 29.6035 133.446 29.6816 133.731 29.8379C134.016 29.9941 134.251 30.2168 134.434 30.5059C134.618 30.791 134.761 31.1289 134.862 31.5195C134.968 31.9062 135.05 32.3301 135.108 32.791V33.0605C135.05 33.502 134.962 33.9121 134.845 34.291C134.727 34.6699 134.573 35.002 134.382 35.2871C134.19 35.5684 133.952 35.7871 133.667 35.9434C133.386 36.0996 133.05 36.1777 132.659 36.1777C132.268 36.1777 131.915 36.0977 131.599 35.9375C131.286 35.7773 131.018 35.5527 130.796 35.2637C130.573 34.9746 130.401 34.6348 130.28 34.2441C130.163 33.8535 130.104 33.4277 130.104 32.9668ZM131.792 32.8438V32.9668C131.792 33.2285 131.817 33.4727 131.868 33.6992C131.919 33.9258 131.997 34.127 132.102 34.3027C132.212 34.4746 132.347 34.6094 132.507 34.707C132.671 34.8008 132.864 34.8477 133.087 34.8477C133.395 34.8477 133.647 34.7832 133.843 34.6543C134.038 34.5215 134.184 34.3398 134.282 34.1094C134.38 33.8789 134.436 33.6133 134.452 33.3125V32.5449C134.444 32.2988 134.411 32.0781 134.352 31.8828C134.294 31.6836 134.212 31.5137 134.106 31.373C134.001 31.2324 133.864 31.123 133.696 31.0449C133.528 30.9668 133.329 30.9277 133.099 30.9277C132.876 30.9277 132.682 30.9785 132.518 31.0801C132.358 31.1777 132.224 31.3125 132.114 31.4844C132.009 31.6562 131.929 31.8594 131.874 32.0938C131.819 32.3242 131.792 32.5742 131.792 32.8438ZM140.37 36.1777C139.878 36.1777 139.436 36.0996 139.046 35.9434C138.655 35.7832 138.323 35.5625 138.049 35.2812C137.78 35 137.573 34.6738 137.428 34.3027C137.284 33.9277 137.212 33.5293 137.212 33.1074V32.873C137.212 32.3926 137.28 31.9531 137.417 31.5547C137.553 31.1562 137.749 30.8105 138.003 30.5176C138.26 30.2246 138.573 30 138.94 29.8438C139.307 29.6836 139.721 29.6035 140.182 29.6035C140.631 29.6035 141.03 29.6777 141.378 29.8262C141.725 29.9746 142.016 30.1855 142.251 30.459C142.489 30.7324 142.669 31.0605 142.79 31.4434C142.911 31.8223 142.971 32.2441 142.971 32.709V33.4121H137.932V32.2871H141.313V32.1582C141.313 31.9238 141.27 31.7148 141.184 31.5312C141.102 31.3438 140.977 31.1953 140.809 31.0859C140.641 30.9766 140.426 30.9219 140.165 30.9219C139.942 30.9219 139.751 30.9707 139.59 31.0684C139.43 31.166 139.299 31.3027 139.198 31.4785C139.1 31.6543 139.026 31.8613 138.975 32.0996C138.928 32.334 138.905 32.5918 138.905 32.873V33.1074C138.905 33.3613 138.94 33.5957 139.01 33.8105C139.085 34.0254 139.188 34.2109 139.321 34.3672C139.458 34.5234 139.622 34.6445 139.813 34.7305C140.008 34.8164 140.229 34.8594 140.475 34.8594C140.78 34.8594 141.063 34.8008 141.325 34.6836C141.59 34.5625 141.819 34.3809 142.01 34.1387L142.831 35.0293C142.698 35.2207 142.516 35.4043 142.286 35.5801C142.059 35.7559 141.786 35.9004 141.465 36.0137C141.145 36.123 140.78 36.1777 140.37 36.1777ZM153.166 34.7422V36.0605H147.33V34.9355L150.09 31.9766C150.367 31.668 150.586 31.3965 150.746 31.1621C150.906 30.9238 151.022 30.7109 151.092 30.5234C151.166 30.332 151.203 30.1504 151.203 29.9785C151.203 29.7207 151.16 29.5 151.074 29.3164C150.988 29.1289 150.861 28.9844 150.694 28.8828C150.529 28.7812 150.326 28.7305 150.084 28.7305C149.826 28.7305 149.604 28.793 149.416 28.918C149.233 29.043 149.092 29.2168 148.994 29.4395C148.901 29.6621 148.854 29.9141 148.854 30.1953H147.16C147.16 29.6875 147.281 29.2227 147.524 28.8008C147.766 28.375 148.108 28.0371 148.549 27.7871C148.99 27.5332 149.514 27.4062 150.119 27.4062C150.717 27.4062 151.221 27.5039 151.631 27.6992C152.045 27.8906 152.358 28.168 152.569 28.5312C152.783 28.8906 152.891 29.3203 152.891 29.8203C152.891 30.1016 152.846 30.377 152.756 30.6465C152.666 30.9121 152.537 31.1777 152.369 31.4434C152.205 31.7051 152.006 31.9707 151.772 32.2402C151.537 32.5098 151.277 32.7891 150.992 33.0781L149.51 34.7422H153.166ZM160.203 31.0449V32.5215C160.203 33.1621 160.135 33.7148 159.998 34.1797C159.861 34.6406 159.664 35.0195 159.406 35.3164C159.152 35.6094 158.85 35.8262 158.498 35.9668C158.146 36.1074 157.756 36.1777 157.326 36.1777C156.982 36.1777 156.662 36.1348 156.365 36.0488C156.068 35.959 155.801 35.8203 155.562 35.6328C155.328 35.4453 155.125 35.209 154.953 34.9238C154.785 34.6348 154.656 34.291 154.566 33.8926C154.476 33.4941 154.432 33.0371 154.432 32.5215V31.0449C154.432 30.4043 154.5 29.8555 154.637 29.3984C154.777 28.9375 154.975 28.5605 155.228 28.2676C155.486 27.9746 155.791 27.7598 156.143 27.623C156.494 27.4824 156.885 27.4121 157.314 27.4121C157.658 27.4121 157.976 27.457 158.269 27.5469C158.566 27.6328 158.834 27.7676 159.072 27.9512C159.31 28.1348 159.514 28.3711 159.682 28.6602C159.85 28.9453 159.978 29.2871 160.068 29.6855C160.158 30.0801 160.203 30.5332 160.203 31.0449ZM158.51 32.7441V30.8164C158.51 30.5078 158.492 30.2383 158.457 30.0078C158.426 29.7773 158.377 29.582 158.31 29.4219C158.244 29.2578 158.162 29.125 158.064 29.0234C157.967 28.9219 157.855 28.8477 157.73 28.8008C157.605 28.7539 157.467 28.7305 157.314 28.7305C157.123 28.7305 156.953 28.7676 156.805 28.8418C156.66 28.916 156.537 29.0352 156.435 29.1992C156.334 29.3594 156.256 29.5742 156.201 29.8438C156.15 30.1094 156.125 30.4336 156.125 30.8164V32.7441C156.125 33.0527 156.141 33.3242 156.172 33.5586C156.207 33.793 156.258 33.9941 156.324 34.1621C156.394 34.3262 156.476 34.4609 156.57 34.5664C156.668 34.668 156.779 34.7422 156.904 34.7891C157.033 34.8359 157.174 34.8594 157.326 34.8594C157.514 34.8594 157.68 34.8223 157.824 34.748C157.973 34.6699 158.098 34.5488 158.199 34.3848C158.305 34.2168 158.383 33.998 158.434 33.7285C158.484 33.459 158.51 33.1309 158.51 32.7441ZM167.427 34.7422V36.0605H161.591V34.9355L164.351 31.9766C164.629 31.668 164.847 31.3965 165.007 31.1621C165.168 30.9238 165.283 30.7109 165.353 30.5234C165.427 30.332 165.465 30.1504 165.465 29.9785C165.465 29.7207 165.422 29.5 165.336 29.3164C165.25 29.1289 165.123 28.9844 164.955 28.8828C164.791 28.7812 164.588 28.7305 164.345 28.7305C164.088 28.7305 163.865 28.793 163.677 28.918C163.494 29.043 163.353 29.2168 163.256 29.4395C163.162 29.6621 163.115 29.9141 163.115 30.1953H161.422C161.422 29.6875 161.543 29.2227 161.785 28.8008C162.027 28.375 162.369 28.0371 162.81 27.7871C163.252 27.5332 163.775 27.4062 164.381 27.4062C164.978 27.4062 165.482 27.5039 165.892 27.6992C166.306 27.8906 166.619 28.168 166.83 28.5312C167.045 28.8906 167.152 29.3203 167.152 29.8203C167.152 30.1016 167.107 30.377 167.017 30.6465C166.927 30.9121 166.799 31.1777 166.631 31.4434C166.466 31.7051 166.267 31.9707 166.033 32.2402C165.799 32.5098 165.539 32.7891 165.254 33.0781L163.771 34.7422H167.427ZM174.699 32.873V34.1973H168.552L168.47 33.1719L172.027 27.5293H173.369L171.915 29.9609L170.146 32.873H174.699ZM173.732 27.5293V36.0605H172.044V27.5293H173.732Z" fill="#EBEDF0"/>
<path d="M77.3627 43.5811L75.0092 50.0605H74.0473L76.7572 42.9512H77.3773L77.3627 43.5811ZM79.3354 50.0605L76.977 43.5811L76.9623 42.9512H77.5824L80.3021 50.0605H79.3354ZM79.2133 47.4287V48.2002H75.2191V47.4287H79.2133ZM83.4318 49.416C83.6467 49.416 83.8452 49.3721 84.0275 49.2842C84.2098 49.1963 84.3596 49.0758 84.4768 48.9229C84.5939 48.7666 84.6607 48.5892 84.677 48.3906H85.5363C85.5201 48.7031 85.4143 48.9945 85.2189 49.2646C85.0269 49.5316 84.7746 49.748 84.4621 49.9141C84.1496 50.0768 83.8062 50.1582 83.4318 50.1582C83.0347 50.1582 82.688 50.0882 82.3918 49.9482C82.0988 49.8083 81.8547 49.6162 81.6594 49.3721C81.4673 49.1279 81.3225 48.848 81.2248 48.5322C81.1304 48.2132 81.0832 47.8763 81.0832 47.5215V47.3164C81.0832 46.9616 81.1304 46.6263 81.2248 46.3105C81.3225 45.9915 81.4673 45.71 81.6594 45.4658C81.8547 45.2217 82.0988 45.0296 82.3918 44.8896C82.688 44.7497 83.0347 44.6797 83.4318 44.6797C83.8452 44.6797 84.2066 44.7643 84.5158 44.9336C84.8251 45.0996 85.0676 45.3275 85.2434 45.6172C85.4224 45.9036 85.5201 46.2292 85.5363 46.5938H84.677C84.6607 46.3757 84.5988 46.1787 84.4914 46.0029C84.3872 45.8271 84.244 45.6872 84.0617 45.583C83.8827 45.4756 83.6727 45.4219 83.4318 45.4219C83.1551 45.4219 82.9224 45.4772 82.7336 45.5879C82.548 45.6953 82.3999 45.8418 82.2893 46.0273C82.1818 46.2096 82.1037 46.4131 82.0549 46.6377C82.0093 46.859 81.9865 47.0853 81.9865 47.3164V47.5215C81.9865 47.7526 82.0093 47.9805 82.0549 48.2051C82.1005 48.4297 82.177 48.6331 82.2844 48.8154C82.3951 48.9977 82.5432 49.1442 82.7287 49.2549C82.9175 49.3623 83.1519 49.416 83.4318 49.416ZM90.0771 52.0918V45.793L90.1553 44.7773H90.9854V52.0918H90.0771ZM86.5273 47.4775V47.375C86.5273 46.9714 86.5745 46.6051 86.6689 46.2764C86.7633 45.9443 86.9017 45.6595 87.084 45.4219C87.2663 45.1842 87.486 45.002 87.7432 44.875C88.0036 44.7448 88.2998 44.6797 88.6318 44.6797C88.9639 44.6797 89.2552 44.7383 89.5059 44.8555C89.7598 44.9694 89.9746 45.137 90.1504 45.3584C90.3294 45.5765 90.471 45.8402 90.5752 46.1494C90.6794 46.4587 90.751 46.8086 90.79 47.1992V47.6484C90.7542 48.0358 90.6842 48.3841 90.5801 48.6934C90.4759 49.0026 90.3343 49.2663 90.1553 49.4844C89.9795 49.7025 89.763 49.8701 89.5059 49.9873C89.252 50.1012 88.9574 50.1582 88.6221 50.1582C88.2965 50.1582 88.0036 50.0915 87.7432 49.958C87.486 49.8245 87.2663 49.6374 87.084 49.3965C86.9049 49.1556 86.7666 48.8724 86.6689 48.5469C86.5745 48.2181 86.5273 47.8617 86.5273 47.4775ZM87.4355 47.375V47.4775C87.4355 47.7412 87.4632 47.9902 87.5186 48.2246C87.5739 48.4557 87.6585 48.6608 87.7725 48.8398C87.8896 49.0189 88.0361 49.1605 88.2119 49.2646C88.391 49.3656 88.6025 49.416 88.8467 49.416C89.1462 49.416 89.3952 49.3509 89.5938 49.2207C89.7956 49.0905 89.9567 48.9196 90.0771 48.708C90.1976 48.4932 90.2904 48.2637 90.3555 48.0195V46.8428C90.3197 46.6637 90.2627 46.4896 90.1846 46.3203C90.1097 46.151 90.012 45.9997 89.8916 45.8662C89.7712 45.7295 89.6247 45.6221 89.4521 45.5439C89.2829 45.4626 89.0843 45.4219 88.8564 45.4219C88.609 45.4219 88.3958 45.474 88.2168 45.5781C88.0378 45.6823 87.8896 45.8255 87.7725 46.0078C87.6585 46.1868 87.5739 46.3936 87.5186 46.6279C87.4632 46.8623 87.4355 47.1113 87.4355 47.375ZM95.868 48.8398V44.7773H96.7762V50.0605H95.9119L95.868 48.8398ZM96.0389 47.7266L96.4148 47.7168C96.4148 48.0684 96.3774 48.3939 96.3025 48.6934C96.2309 48.9896 96.1137 49.2467 95.951 49.4648C95.7882 49.6829 95.575 49.8538 95.3113 49.9775C95.0477 50.098 94.727 50.1582 94.3494 50.1582C94.0922 50.1582 93.8562 50.1208 93.6414 50.0459C93.4298 49.971 93.2475 49.8555 93.0945 49.6992C92.9415 49.543 92.8227 49.3395 92.7381 49.0889C92.6567 48.8382 92.616 48.5371 92.616 48.1855V44.7773H93.5193V48.1953C93.5193 48.4329 93.5454 48.6299 93.5975 48.7861C93.6528 48.9391 93.726 49.0612 93.8172 49.1523C93.9116 49.2402 94.0158 49.3021 94.1297 49.3379C94.2469 49.3737 94.3673 49.3916 94.491 49.3916C94.8751 49.3916 95.1795 49.3184 95.4041 49.1719C95.6287 49.0221 95.7898 48.8219 95.8875 48.5713C95.9884 48.3174 96.0389 48.0358 96.0389 47.7266ZM99.3346 44.7773V50.0605H98.4264V44.7773H99.3346ZM98.358 43.376C98.358 43.2295 98.402 43.1058 98.4898 43.0049C98.581 42.904 98.7145 42.8535 98.8902 42.8535C99.0628 42.8535 99.1946 42.904 99.2857 43.0049C99.3801 43.1058 99.4273 43.2295 99.4273 43.376C99.4273 43.516 99.3801 43.6364 99.2857 43.7373C99.1946 43.835 99.0628 43.8838 98.8902 43.8838C98.7145 43.8838 98.581 43.835 98.4898 43.7373C98.402 43.6364 98.358 43.516 98.358 43.376ZM104.061 48.6592C104.061 48.529 104.032 48.4085 103.973 48.2979C103.918 48.1839 103.802 48.0814 103.626 47.9902C103.454 47.8958 103.193 47.8145 102.845 47.7461C102.552 47.6842 102.287 47.611 102.049 47.5264C101.815 47.4417 101.615 47.3392 101.449 47.2188C101.286 47.0983 101.161 46.9567 101.073 46.7939C100.985 46.6312 100.941 46.4408 100.941 46.2227C100.941 46.0143 100.986 45.8174 101.078 45.6318C101.172 45.4463 101.304 45.2819 101.473 45.1387C101.646 44.9954 101.852 44.8831 102.093 44.8018C102.334 44.7204 102.603 44.6797 102.899 44.6797C103.322 44.6797 103.683 44.7546 103.983 44.9043C104.282 45.054 104.512 45.2542 104.671 45.5049C104.831 45.7523 104.911 46.0273 104.911 46.3301H104.007C104.007 46.1836 103.963 46.042 103.875 45.9053C103.791 45.7653 103.665 45.6497 103.499 45.5586C103.337 45.4674 103.136 45.4219 102.899 45.4219C102.648 45.4219 102.445 45.4609 102.288 45.5391C102.135 45.6139 102.023 45.71 101.952 45.8271C101.883 45.9443 101.849 46.068 101.849 46.1982C101.849 46.2959 101.865 46.3838 101.898 46.4619C101.934 46.5368 101.996 46.6068 102.083 46.6719C102.171 46.7337 102.295 46.7923 102.454 46.8477C102.614 46.903 102.817 46.9583 103.065 47.0137C103.498 47.1113 103.854 47.2285 104.134 47.3652C104.414 47.502 104.622 47.6696 104.759 47.8682C104.896 48.0667 104.964 48.3076 104.964 48.5908C104.964 48.8219 104.915 49.0335 104.818 49.2256C104.723 49.4176 104.585 49.5837 104.403 49.7236C104.224 49.8604 104.009 49.9678 103.758 50.0459C103.511 50.1208 103.232 50.1582 102.923 50.1582C102.458 50.1582 102.064 50.0752 101.742 49.9092C101.419 49.7432 101.175 49.5283 101.009 49.2646C100.843 49.001 100.76 48.7227 100.76 48.4297H101.668C101.681 48.6771 101.753 48.874 101.883 49.0205C102.013 49.1637 102.173 49.2663 102.362 49.3281C102.551 49.3867 102.738 49.416 102.923 49.416C103.171 49.416 103.377 49.3835 103.543 49.3184C103.713 49.2533 103.841 49.1637 103.929 49.0498C104.017 48.9359 104.061 48.8057 104.061 48.6592ZM107.332 44.7773V50.0605H106.424V44.7773H107.332ZM106.356 43.376C106.356 43.2295 106.4 43.1058 106.487 43.0049C106.579 42.904 106.712 42.8535 106.888 42.8535C107.06 42.8535 107.192 42.904 107.283 43.0049C107.378 43.1058 107.425 43.2295 107.425 43.376C107.425 43.516 107.378 43.6364 107.283 43.7373C107.192 43.835 107.06 43.8838 106.888 43.8838C106.712 43.8838 106.579 43.835 106.487 43.7373C106.4 43.6364 106.356 43.516 106.356 43.376ZM111.194 44.7773V45.4707H108.338V44.7773H111.194ZM109.305 43.4932H110.208V48.752C110.208 48.931 110.236 49.0661 110.291 49.1572C110.346 49.2484 110.418 49.3086 110.506 49.3379C110.594 49.3672 110.688 49.3818 110.789 49.3818C110.864 49.3818 110.942 49.3753 111.023 49.3623C111.108 49.346 111.172 49.333 111.214 49.3232L111.219 50.0605C111.147 50.0833 111.053 50.1045 110.936 50.124C110.822 50.1468 110.683 50.1582 110.521 50.1582C110.299 50.1582 110.096 50.1143 109.91 50.0264C109.725 49.9385 109.576 49.792 109.466 49.5869C109.358 49.3786 109.305 49.0986 109.305 48.7471V43.4932ZM113.435 44.7773V50.0605H112.527V44.7773H113.435ZM112.459 43.376C112.459 43.2295 112.503 43.1058 112.591 43.0049C112.682 42.904 112.815 42.8535 112.991 42.8535C113.164 42.8535 113.295 42.904 113.387 43.0049C113.481 43.1058 113.528 43.2295 113.528 43.376C113.528 43.516 113.481 43.6364 113.387 43.7373C113.295 43.835 113.164 43.8838 112.991 43.8838C112.815 43.8838 112.682 43.835 112.591 43.7373C112.503 43.6364 112.459 43.516 112.459 43.376ZM114.846 47.4775V47.3652C114.846 46.9844 114.902 46.6312 115.012 46.3057C115.123 45.9769 115.282 45.6921 115.491 45.4512C115.699 45.207 115.951 45.0182 116.248 44.8848C116.544 44.748 116.876 44.6797 117.244 44.6797C117.615 44.6797 117.948 44.748 118.245 44.8848C118.544 45.0182 118.798 45.207 119.006 45.4512C119.218 45.6921 119.379 45.9769 119.49 46.3057C119.601 46.6312 119.656 46.9844 119.656 47.3652V47.4775C119.656 47.8584 119.601 48.2116 119.49 48.5371C119.379 48.8626 119.218 49.1475 119.006 49.3916C118.798 49.6325 118.546 49.8213 118.25 49.958C117.957 50.0915 117.625 50.1582 117.254 50.1582C116.882 50.1582 116.549 50.0915 116.253 49.958C115.956 49.8213 115.702 49.6325 115.491 49.3916C115.282 49.1475 115.123 48.8626 115.012 48.5371C114.902 48.2116 114.846 47.8584 114.846 47.4775ZM115.75 47.3652V47.4775C115.75 47.7412 115.781 47.9902 115.842 48.2246C115.904 48.4557 115.997 48.6608 116.121 48.8398C116.248 49.0189 116.406 49.1605 116.594 49.2646C116.783 49.3656 117.003 49.416 117.254 49.416C117.501 49.416 117.717 49.3656 117.903 49.2646C118.092 49.1605 118.248 49.0189 118.372 48.8398C118.495 48.6608 118.588 48.4557 118.65 48.2246C118.715 47.9902 118.748 47.7412 118.748 47.4775V47.3652C118.748 47.1048 118.715 46.859 118.65 46.6279C118.588 46.3936 118.494 46.1868 118.367 46.0078C118.243 45.8255 118.087 45.6823 117.898 45.5781C117.712 45.474 117.494 45.4219 117.244 45.4219C116.996 45.4219 116.778 45.474 116.589 45.5781C116.404 45.6823 116.248 45.8255 116.121 46.0078C115.997 46.1868 115.904 46.3936 115.842 46.6279C115.781 46.859 115.75 47.1048 115.75 47.3652ZM121.892 45.9053V50.0605H120.989V44.7773H121.843L121.892 45.9053ZM121.677 47.2188L121.301 47.2041C121.304 46.8428 121.358 46.5091 121.462 46.2031C121.566 45.8939 121.713 45.6253 121.902 45.3975C122.091 45.1696 122.315 44.9938 122.576 44.8701C122.839 44.7432 123.131 44.6797 123.45 44.6797C123.71 44.6797 123.944 44.7155 124.153 44.7871C124.361 44.8555 124.538 44.9661 124.685 45.1191C124.835 45.2721 124.949 45.4707 125.027 45.7148C125.105 45.9557 125.144 46.2503 125.144 46.5986V50.0605H124.236V46.5889C124.236 46.3122 124.195 46.0908 124.114 45.9248C124.032 45.7555 123.913 45.6335 123.757 45.5586C123.601 45.4805 123.409 45.4414 123.181 45.4414C122.956 45.4414 122.751 45.4886 122.566 45.583C122.384 45.6774 122.226 45.8076 122.092 45.9736C121.962 46.1396 121.859 46.3301 121.785 46.5449C121.713 46.7565 121.677 46.9811 121.677 47.2188ZM130.544 42.9512V50.0605H129.602V42.9512H130.544ZM133.224 45.9053V50.0605H132.321V44.7773H133.176L133.224 45.9053ZM133.01 47.2188L132.634 47.2041C132.637 46.8428 132.691 46.5091 132.795 46.2031C132.899 45.8939 133.045 45.6253 133.234 45.3975C133.423 45.1696 133.648 44.9938 133.908 44.8701C134.172 44.7432 134.463 44.6797 134.782 44.6797C135.042 44.6797 135.277 44.7155 135.485 44.7871C135.693 44.8555 135.871 44.9661 136.017 45.1191C136.167 45.2721 136.281 45.4707 136.359 45.7148C136.437 45.9557 136.476 46.2503 136.476 46.5986V50.0605H135.568V46.5889C135.568 46.3122 135.527 46.0908 135.446 45.9248C135.365 45.7555 135.246 45.6335 135.09 45.5586C134.933 45.4805 134.741 45.4414 134.513 45.4414C134.289 45.4414 134.084 45.4886 133.898 45.583C133.716 45.6774 133.558 45.8076 133.425 45.9736C133.294 46.1396 133.192 46.3301 133.117 46.5449C133.045 46.7565 133.01 46.9811 133.01 47.2188ZM140.26 44.7773V45.4707H137.404V44.7773H140.26ZM138.371 43.4932H139.274V48.752C139.274 48.931 139.302 49.0661 139.357 49.1572C139.412 49.2484 139.484 49.3086 139.572 49.3379C139.66 49.3672 139.754 49.3818 139.855 49.3818C139.93 49.3818 140.008 49.3753 140.089 49.3623C140.174 49.346 140.238 49.333 140.28 49.3232L140.285 50.0605C140.213 50.0833 140.119 50.1045 140.002 50.124C139.888 50.1468 139.749 50.1582 139.587 50.1582C139.365 50.1582 139.162 50.1143 138.976 50.0264C138.791 49.9385 138.643 49.792 138.532 49.5869C138.424 49.3786 138.371 49.0986 138.371 48.7471V43.4932ZM143.712 50.1582C143.344 50.1582 143.011 50.0964 142.711 49.9727C142.415 49.8457 142.16 49.6683 141.945 49.4404C141.733 49.2126 141.57 48.9424 141.456 48.6299C141.343 48.3174 141.286 47.9756 141.286 47.6045V47.3994C141.286 46.9697 141.349 46.5872 141.476 46.252C141.603 45.9134 141.775 45.627 141.994 45.3926C142.212 45.1582 142.459 44.9808 142.736 44.8604C143.012 44.7399 143.299 44.6797 143.595 44.6797C143.973 44.6797 144.298 44.7448 144.572 44.875C144.848 45.0052 145.075 45.1875 145.25 45.4219C145.426 45.653 145.556 45.9264 145.641 46.2422C145.726 46.5547 145.768 46.8965 145.768 47.2676V47.6729H141.823V46.9355H144.865V46.8672C144.852 46.6328 144.803 46.4049 144.718 46.1836C144.637 45.9622 144.507 45.7799 144.328 45.6367C144.149 45.4935 143.904 45.4219 143.595 45.4219C143.39 45.4219 143.201 45.4658 143.029 45.5537C142.856 45.6383 142.708 45.7653 142.584 45.9346C142.461 46.1038 142.365 46.3105 142.296 46.5547C142.228 46.7988 142.194 47.0804 142.194 47.3994V47.6045C142.194 47.8551 142.228 48.0911 142.296 48.3125C142.368 48.5306 142.47 48.7227 142.604 48.8887C142.741 49.0547 142.905 49.1849 143.097 49.2793C143.292 49.3737 143.514 49.4209 143.761 49.4209C144.08 49.4209 144.35 49.3558 144.572 49.2256C144.793 49.0954 144.987 48.9212 145.153 48.7031L145.7 49.1377C145.586 49.3102 145.441 49.4746 145.265 49.6309C145.089 49.7871 144.873 49.9141 144.616 50.0117C144.362 50.1094 144.061 50.1582 143.712 50.1582ZM147.926 45.6074V50.0605H147.023V44.7773H147.902L147.926 45.6074ZM149.576 44.748L149.571 45.5879C149.497 45.5716 149.425 45.5618 149.357 45.5586C149.292 45.5521 149.217 45.5488 149.132 45.5488C148.924 45.5488 148.74 45.5814 148.58 45.6465C148.421 45.7116 148.286 45.8027 148.175 45.9199C148.064 46.0371 147.976 46.1771 147.911 46.3398C147.849 46.4993 147.809 46.6751 147.789 46.8672L147.535 47.0137C147.535 46.6947 147.566 46.3952 147.628 46.1152C147.693 45.8353 147.793 45.5879 147.926 45.373C148.059 45.1549 148.229 44.9857 148.434 44.8652C148.642 44.7415 148.89 44.6797 149.176 44.6797C149.241 44.6797 149.316 44.6878 149.401 44.7041C149.485 44.7171 149.544 44.7318 149.576 44.748ZM151.515 45.9053V50.0605H150.611V44.7773H151.466L151.515 45.9053ZM151.3 47.2188L150.924 47.2041C150.927 46.8428 150.981 46.5091 151.085 46.2031C151.189 45.8939 151.336 45.6253 151.524 45.3975C151.713 45.1696 151.938 44.9938 152.198 44.8701C152.462 44.7432 152.753 44.6797 153.072 44.6797C153.333 44.6797 153.567 44.7155 153.775 44.7871C153.984 44.8555 154.161 44.9661 154.308 45.1191C154.457 45.2721 154.571 45.4707 154.649 45.7148C154.728 45.9557 154.767 46.2503 154.767 46.5986V50.0605H153.858V46.5889C153.858 46.3122 153.818 46.0908 153.736 45.9248C153.655 45.7555 153.536 45.6335 153.38 45.5586C153.224 45.4805 153.032 45.4414 152.804 45.4414C152.579 45.4414 152.374 45.4886 152.188 45.583C152.006 45.6774 151.848 45.8076 151.715 45.9736C151.585 46.1396 151.482 46.3301 151.407 46.5449C151.336 46.7565 151.3 46.9811 151.3 47.2188ZM159.454 49.1572V46.4375C159.454 46.2292 159.412 46.0485 159.327 45.8955C159.246 45.7393 159.122 45.6188 158.956 45.5342C158.79 45.4495 158.585 45.4072 158.341 45.4072C158.113 45.4072 157.913 45.4463 157.74 45.5244C157.571 45.6025 157.437 45.7051 157.34 45.832C157.245 45.959 157.198 46.0957 157.198 46.2422H156.295C156.295 46.0534 156.344 45.8662 156.441 45.6807C156.539 45.4951 156.679 45.3275 156.861 45.1777C157.047 45.0247 157.268 44.9043 157.525 44.8164C157.786 44.7253 158.075 44.6797 158.394 44.6797C158.778 44.6797 159.117 44.7448 159.41 44.875C159.706 45.0052 159.937 45.2021 160.103 45.4658C160.273 45.7262 160.357 46.0534 160.357 46.4473V48.9082C160.357 49.084 160.372 49.2712 160.401 49.4697C160.434 49.6683 160.481 49.8392 160.543 49.9824V50.0605H159.6C159.555 49.9564 159.519 49.818 159.493 49.6455C159.467 49.4697 159.454 49.307 159.454 49.1572ZM159.61 46.8574L159.62 47.4922H158.707C158.45 47.4922 158.22 47.5133 158.018 47.5557C157.817 47.5947 157.647 47.6549 157.511 47.7363C157.374 47.8177 157.27 47.9202 157.198 48.0439C157.126 48.1644 157.091 48.306 157.091 48.4688C157.091 48.6348 157.128 48.7861 157.203 48.9229C157.278 49.0596 157.39 49.1686 157.54 49.25C157.693 49.3281 157.88 49.3672 158.101 49.3672C158.378 49.3672 158.622 49.3086 158.834 49.1914C159.045 49.0742 159.213 48.931 159.337 48.7617C159.464 48.5924 159.532 48.4281 159.542 48.2686L159.928 48.7031C159.905 48.8398 159.843 48.9912 159.742 49.1572C159.641 49.3232 159.506 49.4827 159.337 49.6357C159.171 49.7855 158.972 49.9108 158.741 50.0117C158.513 50.1094 158.256 50.1582 157.97 50.1582C157.611 50.1582 157.297 50.0882 157.027 49.9482C156.76 49.8083 156.552 49.6211 156.402 49.3867C156.256 49.1491 156.182 48.8838 156.182 48.5908C156.182 48.3076 156.238 48.0586 156.348 47.8438C156.459 47.6257 156.619 47.445 156.827 47.3018C157.035 47.1553 157.286 47.0446 157.579 46.9697C157.872 46.8949 158.199 46.8574 158.56 46.8574H159.61ZM164.19 44.7773V45.4707H161.334V44.7773H164.19ZM162.3 43.4932H163.204V48.752C163.204 48.931 163.231 49.0661 163.287 49.1572C163.342 49.2484 163.414 49.3086 163.502 49.3379C163.589 49.3672 163.684 49.3818 163.785 49.3818C163.86 49.3818 163.938 49.3753 164.019 49.3623C164.104 49.346 164.167 49.333 164.21 49.3232L164.214 50.0605C164.143 50.0833 164.048 50.1045 163.931 50.124C163.817 50.1468 163.679 50.1582 163.516 50.1582C163.295 50.1582 163.091 50.1143 162.906 50.0264C162.72 49.9385 162.572 49.792 162.462 49.5869C162.354 49.3786 162.3 49.0986 162.3 48.7471V43.4932ZM166.431 44.7773V50.0605H165.523V44.7773H166.431ZM165.454 43.376C165.454 43.2295 165.498 43.1058 165.586 43.0049C165.677 42.904 165.811 42.8535 165.987 42.8535C166.159 42.8535 166.291 42.904 166.382 43.0049C166.477 43.1058 166.524 43.2295 166.524 43.376C166.524 43.516 166.477 43.6364 166.382 43.7373C166.291 43.835 166.159 43.8838 165.987 43.8838C165.811 43.8838 165.677 43.835 165.586 43.7373C165.498 43.6364 165.454 43.516 165.454 43.376ZM167.842 47.4775V47.3652C167.842 46.9844 167.897 46.6312 168.008 46.3057C168.119 45.9769 168.278 45.6921 168.487 45.4512C168.695 45.207 168.947 45.0182 169.243 44.8848C169.54 44.748 169.872 44.6797 170.239 44.6797C170.611 44.6797 170.944 44.748 171.24 44.8848C171.54 45.0182 171.794 45.207 172.002 45.4512C172.214 45.6921 172.375 45.9769 172.486 46.3057C172.596 46.6312 172.652 46.9844 172.652 47.3652V47.4775C172.652 47.8584 172.596 48.2116 172.486 48.5371C172.375 48.8626 172.214 49.1475 172.002 49.3916C171.794 49.6325 171.542 49.8213 171.245 49.958C170.952 50.0915 170.62 50.1582 170.249 50.1582C169.878 50.1582 169.544 50.0915 169.248 49.958C168.952 49.8213 168.698 49.6325 168.487 49.3916C168.278 49.1475 168.119 48.8626 168.008 48.5371C167.897 48.2116 167.842 47.8584 167.842 47.4775ZM168.745 47.3652V47.4775C168.745 47.7412 168.776 47.9902 168.838 48.2246C168.9 48.4557 168.993 48.6608 169.116 48.8398C169.243 49.0189 169.401 49.1605 169.59 49.2646C169.779 49.3656 169.999 49.416 170.249 49.416C170.497 49.416 170.713 49.3656 170.899 49.2646C171.087 49.1605 171.244 49.0189 171.367 48.8398C171.491 48.6608 171.584 48.4557 171.646 48.2246C171.711 47.9902 171.743 47.7412 171.743 47.4775V47.3652C171.743 47.1048 171.711 46.859 171.646 46.6279C171.584 46.3936 171.489 46.1868 171.362 46.0078C171.239 45.8255 171.083 45.6823 170.894 45.5781C170.708 45.474 170.49 45.4219 170.239 45.4219C169.992 45.4219 169.774 45.474 169.585 45.5781C169.4 45.6823 169.243 45.8255 169.116 46.0078C168.993 46.1868 168.9 46.3936 168.838 46.6279C168.776 46.859 168.745 47.1048 168.745 47.3652ZM174.888 45.9053V50.0605H173.984V44.7773H174.839L174.888 45.9053ZM174.673 47.2188L174.297 47.2041C174.3 46.8428 174.354 46.5091 174.458 46.2031C174.562 45.8939 174.709 45.6253 174.897 45.3975C175.086 45.1696 175.311 44.9938 175.571 44.8701C175.835 44.7432 176.126 44.6797 176.445 44.6797C176.706 44.6797 176.94 44.7155 177.148 44.7871C177.357 44.8555 177.534 44.9661 177.681 45.1191C177.83 45.2721 177.944 45.4707 178.022 45.7148C178.101 45.9557 178.14 46.2503 178.14 46.5986V50.0605H177.231V46.5889C177.231 46.3122 177.191 46.0908 177.109 45.9248C177.028 45.7555 176.909 45.6335 176.753 45.5586C176.597 45.4805 176.405 45.4414 176.177 45.4414C175.952 45.4414 175.747 45.4886 175.562 45.583C175.379 45.6774 175.221 45.8076 175.088 45.9736C174.958 46.1396 174.855 46.3301 174.78 46.5449C174.709 46.7565 174.673 46.9811 174.673 47.2188ZM182.827 49.1572V46.4375C182.827 46.2292 182.785 46.0485 182.7 45.8955C182.619 45.7393 182.495 45.6188 182.329 45.5342C182.163 45.4495 181.958 45.4072 181.714 45.4072C181.486 45.4072 181.286 45.4463 181.113 45.5244C180.944 45.6025 180.81 45.7051 180.713 45.832C180.618 45.959 180.571 46.0957 180.571 46.2422H179.668C179.668 46.0534 179.717 45.8662 179.814 45.6807C179.912 45.4951 180.052 45.3275 180.234 45.1777C180.42 45.0247 180.641 44.9043 180.898 44.8164C181.159 44.7253 181.448 44.6797 181.767 44.6797C182.151 44.6797 182.49 44.7448 182.783 44.875C183.079 45.0052 183.31 45.2021 183.476 45.4658C183.646 45.7262 183.73 46.0534 183.73 46.4473V48.9082C183.73 49.084 183.745 49.2712 183.774 49.4697C183.807 49.6683 183.854 49.8392 183.916 49.9824V50.0605H182.973C182.928 49.9564 182.892 49.818 182.866 49.6455C182.84 49.4697 182.827 49.307 182.827 49.1572ZM182.983 46.8574L182.993 47.4922H182.08C181.823 47.4922 181.593 47.5133 181.391 47.5557C181.19 47.5947 181.02 47.6549 180.884 47.7363C180.747 47.8177 180.643 47.9202 180.571 48.0439C180.499 48.1644 180.464 48.306 180.464 48.4688C180.464 48.6348 180.501 48.7861 180.576 48.9229C180.651 49.0596 180.763 49.1686 180.913 49.25C181.066 49.3281 181.253 49.3672 181.474 49.3672C181.751 49.3672 181.995 49.3086 182.207 49.1914C182.418 49.0742 182.586 48.931 182.71 48.7617C182.837 48.5924 182.905 48.4281 182.915 48.2686L183.301 48.7031C183.278 48.8398 183.216 48.9912 183.115 49.1572C183.014 49.3232 182.879 49.4827 182.71 49.6357C182.544 49.7855 182.345 49.9108 182.114 50.0117C181.886 50.1094 181.629 50.1582 181.343 50.1582C180.985 50.1582 180.67 50.0882 180.4 49.9482C180.133 49.8083 179.925 49.6211 179.775 49.3867C179.629 49.1491 179.555 48.8838 179.555 48.5908C179.555 48.3076 179.611 48.0586 179.721 47.8438C179.832 47.6257 179.992 47.445 180.2 47.3018C180.408 47.1553 180.659 47.0446 180.952 46.9697C181.245 46.8949 181.572 46.8574 181.933 46.8574H182.983ZM186.333 42.5605V50.0605H185.424V42.5605H186.333Z" fill="#EBEDF0"/>
<path d="M251.998 44.1859C250.657 44.7901 249.532 45.629 248.651 46.4383C249.639 44.7445 250.449 42.9662 251.078 41.1322C252.227 40.821 254.882 39.9205 256.974 37.8333C259.722 35.0919 260.5 31.3519 260.5 31.3519C260.5 31.3519 256.778 32.0461 254.03 34.7887C253.238 35.5786 252.611 36.4518 252.118 37.2942C252.411 35.8374 252.596 34.3601 252.672 32.8771C252.687 32.95 252.696 32.9911 252.696 32.9911C252.696 32.9911 255.748 30.7592 257.127 27.1241C258.443 23.4662 257.581 19.7775 257.581 19.7775C257.581 19.7775 254.51 21.9672 253.151 25.6445C252.842 26.5028 252.654 27.3623 252.545 28.1762C252.308 25.9352 251.816 23.7135 251.065 21.5626C251.434 21.2103 253.905 18.7516 254.792 15.2692C255.751 11.5019 254.456 7.93292 254.456 7.93292C254.456 7.93292 251.641 10.5045 250.682 14.2718C250.007 16.9209 250.448 19.4709 250.768 20.7521C249.902 18.4917 248.745 16.3168 247.288 14.2844C247.513 13.5526 248.365 10.3939 247.487 7.10308C246.485 3.34715 243.638 0.808619 243.638 0.808619C243.638 0.808619 242.386 4.39357 243.388 8.14836C243.677 9.22897 244.118 10.207 244.6 11.0539C244.004 10.435 243.375 9.83426 242.711 9.25633C242.826 9.23809 242.887 9.22555 242.887 9.22555C242.887 9.22555 240.749 6.06464 237.167 4.57823C233.586 3.09182 229.881 3.8715 229.881 3.8715C229.881 3.8715 232.019 7.03241 235.601 8.51882C238.595 9.72027 241.632 9.41478 242.583 9.27571C244.632 11.2283 246.336 13.3782 247.705 15.6591C247.581 15.5223 247.455 15.3855 247.323 15.2533C244.538 12.5483 240.832 11.8234 240.832 11.8234C240.832 11.8234 241.609 15.5314 244.347 18.2842C246.582 20.4557 249.409 21.3505 250.44 21.6196C251.562 25.0096 252.056 28.5444 251.943 32.0484C251.89 31.7064 251.82 31.361 251.732 31.0134C250.711 27.262 247.891 24.7417 247.891 24.7417C247.891 24.7417 246.635 28.305 247.631 32.0974C248.439 35.068 250.374 37.2645 251.145 38.0511C250.384 41.2735 249.092 44.3774 247.289 47.2146C247.637 46.3118 247.924 45.2871 248.049 44.1871C248.445 40.3069 246.722 36.9647 246.722 36.9647C246.722 36.9647 244.281 39.8965 243.843 43.7596C243.51 46.6937 244.448 49.3371 244.919 50.4382C243.525 52.0854 241.927 53.6025 240.134 54.9533C239.138 55.5358 238.455 56.0818 238.212 56.287C238.17 56.3143 238.126 56.3406 238.084 56.3668C238.204 56.2608 238.322 56.1536 238.438 56.0408C241.202 53.2993 241.993 49.6209 241.993 49.6209C241.993 49.6209 238.25 50.3254 235.463 53.0258C232.947 55.4628 232.077 58.7286 231.931 59.343C229.009 60.3575 225.932 60.9206 222.858 61.2033C222.075 61.2626 221.286 61.315 220.5 61.2535C221.284 61.3401 222.075 61.315 222.862 61.2808C225.232 61.1771 227.566 60.7508 229.877 60.2356C232.191 59.7066 234.453 58.903 236.573 57.8224C237.307 57.4463 238.017 57.0462 238.704 56.6233C239.842 57.0621 242.478 57.884 245.352 57.4542C249.184 56.8797 252.02 54.3309 252.02 54.3309C252.02 54.3309 248.612 52.677 244.779 53.2503C243.973 53.3712 243.213 53.5797 242.513 53.8328C244.185 52.3897 245.656 50.7904 246.923 49.0726C248.055 49.1912 250.928 49.3223 253.686 48.0798C257.221 46.4862 259.263 43.2615 259.263 43.2615C259.263 43.2615 255.535 42.5958 252.001 44.1893L251.998 44.1859Z" fill="#EBEDF0"/>
</svg>
