<svg width="393" height="101" viewBox="0 0 393 101" fill="none" xmlns="http://www.w3.org/2000/svg">
<path d="M62.9185 100.643C57.8369 100.178 52.7515 99.2473 47.9234 97.5687C47.683 96.5533 46.2445 91.1557 42.085 87.1278C37.4766 82.6648 31.2926 81.5005 31.2926 81.5005C31.2926 81.5005 32.5996 87.58 37.1686 92.1109C37.3601 92.2955 37.5554 92.4745 37.7526 92.6478C37.6831 92.6045 37.6118 92.5593 37.5423 92.5159C37.1385 92.1768 36.0118 91.2744 34.3667 90.3136C31.4015 88.083 28.7631 85.5736 26.457 82.8513C27.2344 81.0314 28.7856 76.6644 28.2354 71.8132C27.5105 65.4285 23.4767 60.583 23.4767 60.583C23.4767 60.583 20.6298 66.1086 21.2833 72.5197C21.4899 74.3377 21.965 76.0314 22.5378 77.5235C19.5575 72.8343 17.4223 67.7062 16.1641 62.3803C17.4392 61.0803 20.6373 57.45 21.9725 52.5404C23.6195 46.2725 21.5425 40.3833 21.5425 40.3833C21.5425 40.3833 16.8815 44.5468 15.1951 50.7487C15.0487 51.3234 14.9341 51.8961 14.8459 52.4613C14.6599 46.67 15.475 40.8279 17.3303 35.2231C19.0317 34.7785 23.7058 33.2996 27.3997 29.7107C31.9255 25.1609 33.21 19.0324 33.21 19.0324C33.21 19.0324 27.0823 20.2287 22.4814 24.7012C22.2636 24.9217 22.0552 25.144 21.8505 25.37C24.1115 21.6021 26.9283 18.049 30.3142 14.8218C31.886 15.0516 36.9057 15.5547 41.854 13.5709C47.7732 11.1142 51.3074 5.88999 51.3074 5.88999C51.3074 5.88999 45.1835 4.60325 39.2643 7.05804C33.3452 9.51471 29.8109 14.7389 29.8109 14.7389C29.8109 14.7389 29.9142 14.7596 30.102 14.7898C29.0072 15.7449 27.9668 16.7359 26.9828 17.7589C27.779 16.3591 28.5077 14.7427 28.9828 12.9567C30.6391 6.74907 28.5696 0.825928 28.5696 0.825928C28.5696 0.825928 23.8673 5.02149 22.2091 11.2291C20.7575 16.6662 22.166 21.8866 22.5378 23.098C20.1322 26.4571 18.2167 30.0535 16.7857 33.7894C17.3153 31.6719 18.0421 27.4575 16.9285 23.0773C15.3435 16.8508 10.69 12.6006 10.69 12.6006C10.69 12.6006 8.55109 18.5012 10.136 24.7257C11.6008 30.4812 15.6872 34.5449 16.2956 35.127C15.0543 38.6839 14.2412 42.3539 13.8487 46.0596C13.6703 44.7145 13.3585 43.294 12.8478 41.8735C10.6018 35.7958 5.52577 32.1768 5.52577 32.1768C5.52577 32.1768 4.10044 38.2732 6.27694 44.3188C8.55672 50.3267 13.5989 54.0155 13.5989 54.0155C13.5989 54.0155 13.6139 53.9477 13.6384 53.8252C13.7642 56.2763 14.0703 58.7179 14.5548 61.1274C13.7398 59.7352 12.7032 58.2921 11.3942 56.9865C6.85346 52.4556 0.701416 51.3064 0.701416 51.3064C0.701416 51.3064 1.98779 57.4876 6.52858 62.0185C9.98581 65.4681 14.3745 66.9564 16.2731 67.4707C17.3134 70.502 18.6524 73.4409 20.2843 76.2405C18.8289 74.9048 16.9679 73.5182 14.7538 72.5197C8.91165 69.8859 2.7521 70.9862 2.7521 70.9862C2.7521 70.9862 6.1267 76.3158 11.9689 78.9496C16.5247 81.005 21.2758 80.7865 23.1462 80.5905C25.2401 83.4296 27.672 86.0747 30.4344 88.4579C29.2776 88.0397 28.0213 87.6949 26.6898 87.4952C20.3556 86.5457 14.7219 89.2812 14.7219 89.2812C14.7219 89.2812 19.4092 93.4937 25.7434 94.4432C30.4945 95.1554 34.8512 93.7952 36.731 93.0698C37.8653 93.7688 39.0371 94.4319 40.2521 95.0517C43.7544 96.8377 47.4934 98.1659 51.3187 99.0401C55.1383 99.8897 58.9956 100.596 62.9129 100.768C64.2143 100.824 65.5213 100.868 66.8171 100.722C65.5194 100.824 64.2162 100.738 62.9204 100.64L62.9185 100.643Z" fill="#EBEDF0"/>
<path d="M125.771 40.583H122.119L122.099 38.5713H125.166C125.706 38.5713 126.149 38.5029 126.494 38.3662C126.839 38.223 127.096 38.0179 127.265 37.751C127.441 37.4775 127.529 37.1455 127.529 36.7549C127.529 36.3122 127.444 35.9541 127.275 35.6807C127.112 35.4072 126.855 35.2087 126.504 35.085C126.159 34.9613 125.713 34.8994 125.166 34.8994H123.135V46.8232H120.205V32.6045H125.166C125.993 32.6045 126.732 32.6826 127.383 32.8389C128.04 32.9951 128.597 33.2327 129.053 33.5518C129.508 33.8708 129.857 34.2744 130.097 34.7627C130.338 35.2445 130.459 35.8174 130.459 36.4814C130.459 37.0674 130.325 37.6077 130.058 38.1025C129.798 38.5973 129.385 39.001 128.818 39.3135C128.258 39.626 127.526 39.7985 126.621 39.8311L125.771 40.583ZM125.644 46.8232H121.318L122.461 44.5381H125.644C126.159 44.5381 126.579 44.4567 126.904 44.2939C127.23 44.1247 127.471 43.8968 127.627 43.6104C127.783 43.3239 127.861 42.9951 127.861 42.624C127.861 42.2074 127.79 41.846 127.646 41.54C127.51 41.234 127.288 40.9997 126.982 40.8369C126.676 40.6676 126.273 40.583 125.771 40.583H122.949L122.969 38.5713H126.484L127.158 39.3623C128.024 39.3493 128.721 39.5023 129.248 39.8213C129.782 40.1338 130.169 40.5407 130.41 41.042C130.657 41.5433 130.781 42.0804 130.781 42.6533C130.781 43.5648 130.583 44.333 130.185 44.958C129.788 45.5765 129.206 46.042 128.437 46.3545C127.676 46.667 126.745 46.8232 125.644 46.8232ZM138.266 47.0186C137.446 47.0186 136.71 46.8883 136.059 46.6279C135.408 46.361 134.854 45.9932 134.399 45.5244C133.949 45.0557 133.604 44.512 133.364 43.8936C133.123 43.2686 133.002 42.6045 133.002 41.9014V41.5107C133.002 40.71 133.116 39.9775 133.344 39.3135C133.572 38.6494 133.897 38.0732 134.321 37.585C134.75 37.0967 135.271 36.7223 135.883 36.4619C136.495 36.195 137.185 36.0615 137.953 36.0615C138.702 36.0615 139.366 36.1852 139.946 36.4326C140.525 36.68 141.01 37.0316 141.401 37.4873C141.798 37.943 142.097 38.4899 142.299 39.1279C142.501 39.7594 142.602 40.4626 142.602 41.2373V42.4092H134.203V40.5342H139.838V40.3193C139.838 39.9287 139.766 39.5804 139.623 39.2744C139.487 38.9619 139.278 38.7145 138.998 38.5322C138.718 38.3499 138.36 38.2588 137.924 38.2588C137.553 38.2588 137.234 38.3402 136.967 38.5029C136.7 38.6657 136.482 38.8936 136.313 39.1865C136.15 39.4795 136.026 39.8245 135.942 40.2217C135.864 40.6123 135.824 41.042 135.824 41.5107V41.9014C135.824 42.3245 135.883 42.7152 136 43.0732C136.124 43.4313 136.296 43.7406 136.518 44.001C136.746 44.2614 137.019 44.4632 137.338 44.6064C137.664 44.7497 138.031 44.8213 138.442 44.8213C138.949 44.8213 139.421 44.7236 139.858 44.5283C140.3 44.3265 140.681 44.0238 141 43.6201L142.367 45.1045C142.146 45.4235 141.843 45.7295 141.459 46.0225C141.082 46.3154 140.626 46.5563 140.092 46.7451C139.558 46.9274 138.949 47.0186 138.266 47.0186ZM150.516 43.9033C150.516 43.7015 150.458 43.5192 150.34 43.3564C150.223 43.1937 150.005 43.0439 149.686 42.9072C149.374 42.764 148.921 42.6338 148.329 42.5166C147.795 42.3994 147.297 42.2529 146.835 42.0771C146.379 41.8949 145.982 41.6768 145.643 41.4229C145.311 41.1689 145.051 40.8695 144.862 40.5244C144.673 40.1729 144.579 39.7725 144.579 39.3232C144.579 38.8805 144.673 38.4639 144.862 38.0732C145.057 37.6826 145.334 37.3376 145.692 37.0381C146.057 36.7321 146.499 36.4945 147.02 36.3252C147.547 36.1494 148.14 36.0615 148.797 36.0615C149.715 36.0615 150.503 36.208 151.161 36.501C151.825 36.7939 152.333 37.1976 152.684 37.7119C153.042 38.2197 153.221 38.7992 153.221 39.4502H150.409C150.409 39.1768 150.35 38.9326 150.233 38.7178C150.122 38.4964 149.947 38.3239 149.706 38.2002C149.471 38.07 149.165 38.0049 148.788 38.0049C148.475 38.0049 148.205 38.0602 147.977 38.1709C147.749 38.2751 147.574 38.4183 147.45 38.6006C147.333 38.7764 147.274 38.9717 147.274 39.1865C147.274 39.3493 147.307 39.4958 147.372 39.626C147.443 39.7497 147.557 39.8636 147.714 39.9678C147.87 40.0719 148.072 40.1696 148.319 40.2607C148.573 40.3454 148.885 40.4235 149.256 40.4951C150.018 40.6514 150.699 40.8564 151.297 41.1104C151.896 41.3577 152.372 41.6963 152.723 42.126C153.075 42.5492 153.251 43.1058 153.251 43.7959C153.251 44.2646 153.146 44.6943 152.938 45.085C152.73 45.4756 152.43 45.8174 152.04 46.1104C151.649 46.3968 151.18 46.6214 150.633 46.7842C150.093 46.9404 149.484 47.0186 148.807 47.0186C147.824 47.0186 146.991 46.8428 146.307 46.4912C145.63 46.1396 145.116 45.6937 144.764 45.1533C144.419 44.6064 144.247 44.0465 144.247 43.4736H146.913C146.926 43.8577 147.023 44.167 147.206 44.4014C147.394 44.6357 147.632 44.805 147.919 44.9092C148.212 45.0133 148.527 45.0654 148.866 45.0654C149.23 45.0654 149.533 45.0166 149.774 44.9189C150.015 44.8148 150.197 44.6781 150.321 44.5088C150.451 44.333 150.516 44.1312 150.516 43.9033ZM160.853 36.2568V38.249H154.7V36.2568H160.853ZM156.224 33.6494H159.036V43.6396C159.036 43.9456 159.075 44.18 159.153 44.3428C159.238 44.5055 159.362 44.6195 159.524 44.6846C159.687 44.7432 159.892 44.7725 160.14 44.7725C160.315 44.7725 160.472 44.766 160.608 44.7529C160.752 44.7334 160.872 44.7139 160.97 44.6943L160.98 46.7646C160.739 46.8428 160.478 46.9046 160.198 46.9502C159.918 46.9958 159.609 47.0186 159.271 47.0186C158.652 47.0186 158.112 46.9176 157.649 46.7158C157.194 46.5075 156.842 46.1755 156.595 45.7197C156.347 45.264 156.224 44.665 156.224 43.9229V33.6494ZM177.053 42.1064H179.972C179.914 43.0635 179.65 43.9131 179.181 44.6553C178.719 45.3975 178.071 45.9769 177.238 46.3936C176.411 46.8102 175.415 47.0186 174.25 47.0186C173.338 47.0186 172.521 46.8623 171.799 46.5498C171.076 46.2308 170.458 45.7751 169.943 45.1826C169.435 44.5902 169.048 43.874 168.781 43.0342C168.514 42.1943 168.381 41.2536 168.381 40.2119V39.2256C168.381 38.1839 168.517 37.2432 168.791 36.4033C169.071 35.557 169.468 34.8376 169.982 34.2451C170.503 33.6527 171.125 33.1969 171.847 32.8779C172.57 32.5589 173.377 32.3994 174.269 32.3994C175.454 32.3994 176.454 32.6143 177.267 33.0439C178.088 33.4736 178.722 34.0661 179.172 34.8213C179.627 35.5765 179.901 36.4359 179.992 37.3994H177.062C177.03 36.8265 176.916 36.3415 176.721 35.9443C176.525 35.5407 176.229 35.238 175.832 35.0361C175.441 34.8278 174.92 34.7236 174.269 34.7236C173.781 34.7236 173.355 34.8148 172.99 34.9971C172.625 35.1794 172.319 35.4561 172.072 35.8271C171.825 36.1982 171.639 36.667 171.515 37.2334C171.398 37.7933 171.34 38.4508 171.34 39.2061V40.2119C171.34 40.9476 171.395 41.5954 171.506 42.1553C171.616 42.7087 171.786 43.1774 172.014 43.5615C172.248 43.9391 172.547 44.2256 172.912 44.4209C173.283 44.6097 173.729 44.7041 174.25 44.7041C174.862 44.7041 175.366 44.6064 175.764 44.4111C176.161 44.2158 176.463 43.9261 176.672 43.542C176.887 43.1579 177.014 42.6794 177.053 42.1064ZM185.426 32.6045V46.8232H182.496V32.6045H185.426ZM191.09 38.6787V40.9639H184.625V38.6787H191.09ZM191.774 32.6045V34.8994H184.625V32.6045H191.774ZM198.438 46.8232H195.342L195.362 44.5381H198.438C199.206 44.5381 199.854 44.3656 200.381 44.0205C200.909 43.6689 201.306 43.1579 201.573 42.4873C201.846 41.8167 201.983 41.0062 201.983 40.0557V39.3623C201.983 38.6331 201.905 37.9919 201.749 37.4385C201.599 36.8851 201.374 36.4196 201.075 36.042C200.775 35.6644 200.408 35.3812 199.971 35.1924C199.535 34.9971 199.034 34.8994 198.467 34.8994H195.284V32.6045H198.467C199.418 32.6045 200.287 32.7673 201.075 33.0928C201.869 33.4118 202.556 33.8708 203.135 34.4697C203.715 35.0687 204.161 35.7848 204.473 36.6182C204.792 37.445 204.952 38.3662 204.952 39.3818V40.0557C204.952 41.0648 204.792 41.986 204.473 42.8193C204.161 43.6527 203.715 44.3688 203.135 44.9678C202.562 45.5602 201.876 46.0192 201.075 46.3447C200.281 46.6637 199.402 46.8232 198.438 46.8232ZM197.003 32.6045V46.8232H194.073V32.6045H197.003ZM218.828 40.583H215.175L215.156 38.5713H218.222C218.762 38.5713 219.205 38.5029 219.55 38.3662C219.895 38.223 220.152 38.0179 220.322 37.751C220.497 37.4775 220.585 37.1455 220.585 36.7549C220.585 36.3122 220.501 35.9541 220.331 35.6807C220.169 35.4072 219.912 35.2087 219.56 35.085C219.215 34.9613 218.769 34.8994 218.222 34.8994H216.191V46.8232H213.261V32.6045H218.222C219.049 32.6045 219.788 32.6826 220.439 32.8389C221.096 32.9951 221.653 33.2327 222.109 33.5518C222.565 33.8708 222.913 34.2744 223.154 34.7627C223.395 35.2445 223.515 35.8174 223.515 36.4814C223.515 37.0674 223.382 37.6077 223.115 38.1025C222.854 38.5973 222.441 39.001 221.874 39.3135C221.315 39.626 220.582 39.7985 219.677 39.8311L218.828 40.583ZM218.701 46.8232H214.374L215.517 44.5381H218.701C219.215 44.5381 219.635 44.4567 219.96 44.2939C220.286 44.1247 220.527 43.8968 220.683 43.6104C220.839 43.3239 220.917 42.9951 220.917 42.624C220.917 42.2074 220.846 41.846 220.703 41.54C220.566 41.234 220.345 40.9997 220.039 40.8369C219.733 40.6676 219.329 40.583 218.828 40.583H216.005L216.025 38.5713H219.54L220.214 39.3623C221.08 39.3493 221.777 39.5023 222.304 39.8213C222.838 40.1338 223.225 40.5407 223.466 41.042C223.714 41.5433 223.837 42.0804 223.837 42.6533C223.837 43.5648 223.639 44.333 223.242 44.958C222.845 45.5765 222.262 46.042 221.494 46.3545C220.732 46.667 219.801 46.8232 218.701 46.8232ZM229.271 38.5615V46.8232H226.459V36.2568H229.105L229.271 38.5615ZM232.455 36.1885L232.406 38.7959C232.269 38.7764 232.103 38.7601 231.908 38.7471C231.719 38.7275 231.547 38.7178 231.39 38.7178C230.993 38.7178 230.648 38.7699 230.355 38.874C230.069 38.9717 229.828 39.1182 229.633 39.3135C229.444 39.5088 229.301 39.7464 229.203 40.0264C229.112 40.3063 229.06 40.6253 229.047 40.9834L228.48 40.8076C228.48 40.124 228.549 39.4958 228.685 38.9229C228.822 38.3434 229.021 37.8389 229.281 37.4092C229.548 36.9795 229.874 36.6475 230.258 36.4131C230.642 36.1787 231.081 36.0615 231.576 36.0615C231.732 36.0615 231.892 36.0745 232.055 36.1006C232.217 36.1201 232.351 36.1494 232.455 36.1885ZM233.641 41.6475V41.4424C233.641 40.6676 233.752 39.9548 233.973 39.3037C234.194 38.6462 234.516 38.0765 234.94 37.5947C235.363 37.113 235.884 36.7386 236.502 36.4717C237.121 36.1982 237.83 36.0615 238.631 36.0615C239.432 36.0615 240.145 36.1982 240.77 36.4717C241.395 36.7386 241.919 37.113 242.342 37.5947C242.772 38.0765 243.097 38.6462 243.319 39.3037C243.54 39.9548 243.651 40.6676 243.651 41.4424V41.6475C243.651 42.4157 243.54 43.1286 243.319 43.7861C243.097 44.4372 242.772 45.0068 242.342 45.4951C241.919 45.9769 241.398 46.3512 240.78 46.6182C240.161 46.8851 239.451 47.0186 238.651 47.0186C237.85 47.0186 237.137 46.8851 236.512 46.6182C235.893 46.3512 235.369 45.9769 234.94 45.4951C234.516 45.0068 234.194 44.4372 233.973 43.7861C233.752 43.1286 233.641 42.4157 233.641 41.6475ZM236.453 41.4424V41.6475C236.453 42.0902 236.492 42.5036 236.571 42.8877C236.649 43.2718 236.772 43.6104 236.942 43.9033C237.117 44.1898 237.345 44.4144 237.625 44.5771C237.905 44.7399 238.247 44.8213 238.651 44.8213C239.041 44.8213 239.377 44.7399 239.656 44.5771C239.936 44.4144 240.161 44.1898 240.33 43.9033C240.5 43.6104 240.623 43.2718 240.701 42.8877C240.786 42.5036 240.828 42.0902 240.828 41.6475V41.4424C240.828 41.0127 240.786 40.609 240.701 40.2314C240.623 39.8473 240.496 39.5088 240.321 39.2158C240.151 38.9163 239.927 38.682 239.647 38.5127C239.367 38.3434 239.028 38.2588 238.631 38.2588C238.234 38.2588 237.895 38.3434 237.615 38.5127C237.342 38.682 237.117 38.9163 236.942 39.2158C236.772 39.5088 236.649 39.8473 236.571 40.2314C236.492 40.609 236.453 41.0127 236.453 41.4424ZM248.792 31.8135V46.8232H245.979V31.8135H248.792ZM255.452 36.2568L250.862 41.4912L248.401 43.9814L247.376 41.9502L249.329 39.4697L252.073 36.2568H255.452ZM252.532 46.8232L249.407 41.9404L251.35 40.2412L255.774 46.8232H252.532ZM261.931 47.0186C261.11 47.0186 260.375 46.8883 259.724 46.6279C259.073 46.361 258.519 45.9932 258.064 45.5244C257.614 45.0557 257.269 44.512 257.028 43.8936C256.787 43.2686 256.667 42.6045 256.667 41.9014V41.5107C256.667 40.71 256.781 39.9775 257.009 39.3135C257.237 38.6494 257.562 38.0732 257.985 37.585C258.415 37.0967 258.936 36.7223 259.548 36.4619C260.16 36.195 260.85 36.0615 261.618 36.0615C262.367 36.0615 263.031 36.1852 263.61 36.4326C264.19 36.68 264.675 37.0316 265.065 37.4873C265.463 37.943 265.762 38.4899 265.964 39.1279C266.166 39.7594 266.267 40.4626 266.267 41.2373V42.4092H257.868V40.5342H263.503V40.3193C263.503 39.9287 263.431 39.5804 263.288 39.2744C263.151 38.9619 262.943 38.7145 262.663 38.5322C262.383 38.3499 262.025 38.2588 261.589 38.2588C261.218 38.2588 260.899 38.3402 260.632 38.5029C260.365 38.6657 260.147 38.8936 259.978 39.1865C259.815 39.4795 259.691 39.8245 259.606 40.2217C259.528 40.6123 259.489 41.042 259.489 41.5107V41.9014C259.489 42.3245 259.548 42.7152 259.665 43.0732C259.789 43.4313 259.961 43.7406 260.183 44.001C260.411 44.2614 260.684 44.4632 261.003 44.6064C261.328 44.7497 261.696 44.8213 262.106 44.8213C262.614 44.8213 263.086 44.7236 263.522 44.5283C263.965 44.3265 264.346 44.0238 264.665 43.6201L266.032 45.1045C265.811 45.4235 265.508 45.7295 265.124 46.0225C264.746 46.3154 264.291 46.5563 263.757 46.7451C263.223 46.9274 262.614 47.0186 261.931 47.0186ZM271.281 38.5615V46.8232H268.468V36.2568H271.115L271.281 38.5615ZM274.464 36.1885L274.415 38.7959C274.279 38.7764 274.113 38.7601 273.917 38.7471C273.729 38.7275 273.556 38.7178 273.4 38.7178C273.003 38.7178 272.658 38.7699 272.365 38.874C272.078 38.9717 271.837 39.1182 271.642 39.3135C271.453 39.5088 271.31 39.7464 271.212 40.0264C271.121 40.3063 271.069 40.6253 271.056 40.9834L270.49 40.8076C270.49 40.124 270.558 39.4958 270.695 38.9229C270.831 38.3434 271.03 37.8389 271.29 37.4092C271.557 36.9795 271.883 36.6475 272.267 36.4131C272.651 36.1787 273.091 36.0615 273.585 36.0615C273.742 36.0615 273.901 36.0745 274.064 36.1006C274.227 36.1201 274.36 36.1494 274.464 36.1885Z" fill="#EBEDF0"/>
<path d="M147.596 58.8701H150.89C151.638 58.8701 152.269 58.984 152.784 59.2119C153.304 59.4398 153.698 59.777 153.967 60.2236C154.24 60.6657 154.377 61.2103 154.377 61.8574C154.377 62.3132 154.283 62.7301 154.097 63.1084C153.914 63.4821 153.65 63.8011 153.304 64.0654C152.962 64.3252 152.552 64.5189 152.073 64.6465L151.704 64.79H148.607L148.594 63.7168H150.931C151.405 63.7168 151.8 63.6348 152.114 63.4707C152.429 63.3021 152.666 63.0765 152.825 62.7939C152.985 62.5114 153.064 62.1992 153.064 61.8574C153.064 61.4746 152.989 61.1396 152.839 60.8525C152.688 60.5654 152.451 60.3444 152.128 60.1895C151.809 60.0299 151.396 59.9502 150.89 59.9502H148.915V68.8232H147.596V58.8701ZM153.413 68.8232L150.993 64.3115L152.367 64.3047L154.821 68.7412V68.8232H153.413ZM161.092 67.5586V63.751C161.092 63.4593 161.033 63.2064 160.915 62.9922C160.801 62.7734 160.628 62.6048 160.395 62.4863C160.163 62.3678 159.876 62.3086 159.534 62.3086C159.215 62.3086 158.935 62.3633 158.693 62.4727C158.456 62.582 158.269 62.7256 158.132 62.9033C158 63.0811 157.934 63.2725 157.934 63.4775H156.67C156.67 63.2132 156.738 62.9512 156.875 62.6914C157.011 62.4316 157.207 62.1969 157.463 61.9873C157.722 61.7731 158.032 61.6045 158.392 61.4814C158.757 61.3538 159.162 61.29 159.609 61.29C160.147 61.29 160.621 61.3812 161.031 61.5635C161.446 61.7458 161.769 62.0215 162.002 62.3906C162.239 62.7552 162.357 63.2132 162.357 63.7646V67.21C162.357 67.4561 162.378 67.7181 162.419 67.9961C162.464 68.2741 162.53 68.5133 162.617 68.7139V68.8232H161.297C161.234 68.6774 161.184 68.4837 161.147 68.2422C161.111 67.9961 161.092 67.7682 161.092 67.5586ZM161.311 64.3389L161.325 65.2275H160.047C159.686 65.2275 159.365 65.2572 159.083 65.3164C158.8 65.3711 158.563 65.4554 158.372 65.5693C158.18 65.6833 158.034 65.8268 157.934 66C157.834 66.1686 157.784 66.3669 157.784 66.5947C157.784 66.8271 157.836 67.0391 157.941 67.2305C158.046 67.4219 158.203 67.5745 158.413 67.6885C158.627 67.7979 158.889 67.8525 159.199 67.8525C159.586 67.8525 159.928 67.7705 160.224 67.6064C160.52 67.4424 160.755 67.2419 160.928 67.0049C161.106 66.7679 161.202 66.5378 161.215 66.3145L161.755 66.9229C161.724 67.1143 161.637 67.3262 161.496 67.5586C161.354 67.791 161.165 68.0143 160.928 68.2285C160.696 68.4382 160.418 68.6136 160.094 68.7549C159.775 68.8916 159.415 68.96 159.014 68.96C158.513 68.96 158.073 68.862 157.695 68.666C157.321 68.4701 157.03 68.208 156.82 67.8799C156.615 67.5472 156.512 67.1758 156.512 66.7656C156.512 66.3691 156.59 66.0205 156.745 65.7197C156.9 65.4144 157.123 65.1615 157.415 64.9609C157.706 64.7559 158.057 64.6009 158.467 64.4961C158.878 64.3913 159.336 64.3389 159.841 64.3389H161.311ZM166.311 63.0059V68.8232H165.046V61.4268H166.243L166.311 63.0059ZM166.01 64.8447L165.484 64.8242C165.488 64.3184 165.564 63.8512 165.709 63.4229C165.855 62.9899 166.06 62.6139 166.325 62.2949C166.589 61.9759 166.903 61.7298 167.268 61.5566C167.637 61.3789 168.045 61.29 168.492 61.29C168.856 61.29 169.184 61.3402 169.476 61.4404C169.768 61.5361 170.016 61.6911 170.221 61.9053C170.431 62.1195 170.59 62.3975 170.7 62.7393C170.809 63.0765 170.864 63.4889 170.864 63.9766V68.8232H169.592V63.9629C169.592 63.5755 169.535 63.2656 169.421 63.0332C169.307 62.7962 169.141 62.6253 168.922 62.5205C168.704 62.4111 168.435 62.3564 168.116 62.3564C167.801 62.3564 167.514 62.4225 167.254 62.5547C166.999 62.6868 166.778 62.8691 166.591 63.1016C166.409 63.334 166.265 63.6006 166.161 63.9014C166.06 64.1976 166.01 64.512 166.01 64.8447ZM174.756 58.3232V68.8232H173.485V58.3232H174.756ZM179.275 61.4268L176.048 64.8789L174.243 66.752L174.141 65.4053L175.433 63.8604L177.73 61.4268H179.275ZM178.119 68.8232L175.481 65.2959L176.137 64.168L179.61 68.8232H178.119ZM182.654 61.4268V68.8232H181.383V61.4268H182.654ZM181.287 59.4648C181.287 59.2598 181.349 59.0866 181.472 58.9453C181.599 58.804 181.786 58.7334 182.032 58.7334C182.274 58.7334 182.458 58.804 182.586 58.9453C182.718 59.0866 182.784 59.2598 182.784 59.4648C182.784 59.6608 182.718 59.8294 182.586 59.9707C182.458 60.1074 182.274 60.1758 182.032 60.1758C181.786 60.1758 181.599 60.1074 181.472 59.9707C181.349 59.8294 181.287 59.6608 181.287 59.4648ZM189.746 67.5586V63.751C189.746 63.4593 189.687 63.2064 189.568 62.9922C189.454 62.7734 189.281 62.6048 189.049 62.4863C188.816 62.3678 188.529 62.3086 188.187 62.3086C187.868 62.3086 187.588 62.3633 187.347 62.4727C187.11 62.582 186.923 62.7256 186.786 62.9033C186.654 63.0811 186.588 63.2725 186.588 63.4775H185.323C185.323 63.2132 185.391 62.9512 185.528 62.6914C185.665 62.4316 185.861 62.1969 186.116 61.9873C186.376 61.7731 186.686 61.6045 187.046 61.4814C187.41 61.3538 187.816 61.29 188.263 61.29C188.8 61.29 189.274 61.3812 189.684 61.5635C190.099 61.7458 190.423 62.0215 190.655 62.3906C190.892 62.7552 191.011 63.2132 191.011 63.7646V67.21C191.011 67.4561 191.031 67.7181 191.072 67.9961C191.118 68.2741 191.184 68.5133 191.27 68.7139V68.8232H189.951C189.887 68.6774 189.837 68.4837 189.801 68.2422C189.764 67.9961 189.746 67.7682 189.746 67.5586ZM189.965 64.3389L189.978 65.2275H188.7C188.34 65.2275 188.019 65.2572 187.736 65.3164C187.454 65.3711 187.217 65.4554 187.025 65.5693C186.834 65.6833 186.688 65.8268 186.588 66C186.487 66.1686 186.437 66.3669 186.437 66.5947C186.437 66.8271 186.49 67.0391 186.595 67.2305C186.699 67.4219 186.857 67.5745 187.066 67.6885C187.28 67.7979 187.542 67.8525 187.852 67.8525C188.24 67.8525 188.582 67.7705 188.878 67.6064C189.174 67.4424 189.409 67.2419 189.582 67.0049C189.76 66.7679 189.855 66.5378 189.869 66.3145L190.409 66.9229C190.377 67.1143 190.291 67.3262 190.149 67.5586C190.008 67.791 189.819 68.0143 189.582 68.2285C189.349 68.4382 189.071 68.6136 188.748 68.7549C188.429 68.8916 188.069 68.96 187.668 68.96C187.166 68.96 186.727 68.862 186.348 68.666C185.975 68.4701 185.683 68.208 185.473 67.8799C185.268 67.5472 185.166 67.1758 185.166 66.7656C185.166 66.3691 185.243 66.0205 185.398 65.7197C185.553 65.4144 185.777 65.1615 186.068 64.9609C186.36 64.7559 186.711 64.6009 187.121 64.4961C187.531 64.3913 187.989 64.3389 188.495 64.3389H189.965ZM201.748 59.752L198.454 68.8232H197.107L200.901 58.8701H201.769L201.748 59.752ZM204.51 68.8232L201.208 59.752L201.188 58.8701H202.056L205.864 68.8232H204.51ZM204.339 65.1387V66.2188H198.747V65.1387H204.339ZM209.346 67.5107L211.246 61.4268H212.08L211.916 62.6367L209.982 68.8232H209.168L209.346 67.5107ZM208.068 61.4268L209.688 67.5791L209.804 68.8232H208.949L206.803 61.4268H208.068ZM213.899 67.5312L215.444 61.4268H216.701L214.555 68.8232H213.707L213.899 67.5312ZM212.265 61.4268L214.124 67.4082L214.336 68.8232H213.53L211.54 62.623L211.376 61.4268H212.265ZM223.062 67.5586V63.751C223.062 63.4593 223.002 63.2064 222.884 62.9922C222.77 62.7734 222.597 62.6048 222.364 62.4863C222.132 62.3678 221.845 62.3086 221.503 62.3086C221.184 62.3086 220.904 62.3633 220.662 62.4727C220.425 62.582 220.238 62.7256 220.102 62.9033C219.969 63.0811 219.903 63.2725 219.903 63.4775H218.639C218.639 63.2132 218.707 62.9512 218.844 62.6914C218.98 62.4316 219.176 62.1969 219.432 61.9873C219.691 61.7731 220.001 61.6045 220.361 61.4814C220.726 61.3538 221.132 61.29 221.578 61.29C222.116 61.29 222.59 61.3812 223 61.5635C223.415 61.7458 223.738 62.0215 223.971 62.3906C224.208 62.7552 224.326 63.2132 224.326 63.7646V67.21C224.326 67.4561 224.347 67.7181 224.388 67.9961C224.433 68.2741 224.499 68.5133 224.586 68.7139V68.8232H223.267C223.203 68.6774 223.153 68.4837 223.116 68.2422C223.08 67.9961 223.062 67.7682 223.062 67.5586ZM223.28 64.3389L223.294 65.2275H222.016C221.656 65.2275 221.334 65.2572 221.052 65.3164C220.769 65.3711 220.532 65.4554 220.341 65.5693C220.149 65.6833 220.004 65.8268 219.903 66C219.803 66.1686 219.753 66.3669 219.753 66.5947C219.753 66.8271 219.805 67.0391 219.91 67.2305C220.015 67.4219 220.172 67.5745 220.382 67.6885C220.596 67.7979 220.858 67.8525 221.168 67.8525C221.555 67.8525 221.897 67.7705 222.193 67.6064C222.49 67.4424 222.724 67.2419 222.897 67.0049C223.075 66.7679 223.171 66.5378 223.185 66.3145L223.725 66.9229C223.693 67.1143 223.606 67.3262 223.465 67.5586C223.324 67.791 223.134 68.0143 222.897 68.2285C222.665 68.4382 222.387 68.6136 222.064 68.7549C221.744 68.8916 221.384 68.96 220.983 68.96C220.482 68.96 220.042 68.862 219.664 68.666C219.29 68.4701 218.999 68.208 218.789 67.8799C218.584 67.5472 218.481 67.1758 218.481 66.7656C218.481 66.3691 218.559 66.0205 218.714 65.7197C218.869 65.4144 219.092 65.1615 219.384 64.9609C219.675 64.7559 220.026 64.6009 220.437 64.4961C220.847 64.3913 221.305 64.3389 221.811 64.3389H223.28ZM228.28 62.5889V68.8232H227.015V61.4268H228.246L228.28 62.5889ZM230.591 61.3857L230.584 62.5615C230.479 62.5387 230.379 62.5251 230.283 62.5205C230.192 62.5114 230.087 62.5068 229.969 62.5068C229.677 62.5068 229.419 62.5524 229.196 62.6436C228.973 62.7347 228.784 62.8623 228.629 63.0264C228.474 63.1904 228.351 63.3864 228.26 63.6143C228.173 63.8376 228.116 64.0837 228.089 64.3525L227.733 64.5576C227.733 64.111 227.777 63.6917 227.863 63.2998C227.954 62.9079 228.093 62.5615 228.28 62.2607C228.467 61.9554 228.704 61.7184 228.991 61.5498C229.283 61.3766 229.629 61.29 230.03 61.29C230.121 61.29 230.226 61.3014 230.345 61.3242C230.463 61.3424 230.545 61.363 230.591 61.3857ZM236.985 67.3877V58.3232H238.256V68.8232H237.094L236.985 67.3877ZM232.008 65.207V65.0635C232.008 64.4984 232.077 63.9857 232.214 63.5254C232.355 63.0605 232.553 62.6618 232.808 62.3291C233.068 61.9964 233.376 61.7412 233.731 61.5635C234.091 61.3812 234.492 61.29 234.934 61.29C235.399 61.29 235.805 61.3721 236.151 61.5361C236.502 61.6956 236.798 61.9303 237.04 62.2402C237.286 62.5456 237.479 62.9147 237.621 63.3477C237.762 63.7806 237.86 64.2705 237.915 64.8174V65.4463C237.865 65.9886 237.767 66.4762 237.621 66.9092C237.479 67.3421 237.286 67.7113 237.04 68.0166C236.798 68.3219 236.502 68.5566 236.151 68.7207C235.8 68.8802 235.39 68.96 234.921 68.96C234.488 68.96 234.091 68.8665 233.731 68.6797C233.376 68.4928 233.068 68.2308 232.808 67.8936C232.553 67.5563 232.355 67.1598 232.214 66.7041C232.077 66.2438 232.008 65.7448 232.008 65.207ZM233.28 65.0635V65.207C233.28 65.5762 233.316 65.9225 233.389 66.2461C233.467 66.5697 233.585 66.8545 233.745 67.1006C233.904 67.3467 234.107 67.5404 234.353 67.6816C234.599 67.8184 234.893 67.8867 235.235 67.8867C235.654 67.8867 235.998 67.7979 236.267 67.6201C236.541 67.4424 236.759 67.2077 236.923 66.916C237.088 66.6243 237.215 66.3076 237.306 65.9658V64.3184C237.252 64.0677 237.172 63.8262 237.067 63.5938C236.967 63.3568 236.835 63.1471 236.671 62.9648C236.511 62.778 236.313 62.6299 236.076 62.5205C235.843 62.4111 235.568 62.3564 235.249 62.3564C234.902 62.3564 234.604 62.4294 234.353 62.5752C234.107 62.7165 233.904 62.9124 233.745 63.1631C233.585 63.4092 233.467 63.6963 233.389 64.0244C233.316 64.348 233.28 64.6943 233.28 65.0635ZM245.232 66.8613C245.232 66.679 245.191 66.5104 245.109 66.3555C245.031 66.196 244.87 66.0524 244.623 65.9248C244.382 65.7926 244.017 65.6787 243.53 65.583C243.12 65.4964 242.748 65.3939 242.415 65.2754C242.087 65.1569 241.807 65.0133 241.575 64.8447C241.347 64.6761 241.171 64.4779 241.048 64.25C240.925 64.0221 240.864 63.7555 240.864 63.4502C240.864 63.1585 240.928 62.8828 241.055 62.623C241.187 62.3633 241.372 62.1331 241.609 61.9326C241.85 61.7321 242.14 61.5749 242.477 61.4609C242.814 61.347 243.19 61.29 243.605 61.29C244.197 61.29 244.703 61.3949 245.122 61.6045C245.542 61.8141 245.863 62.0944 246.086 62.4453C246.31 62.7917 246.421 63.1768 246.421 63.6006H245.157C245.157 63.3955 245.095 63.1973 244.972 63.0059C244.854 62.8099 244.678 62.6481 244.446 62.5205C244.218 62.3929 243.938 62.3291 243.605 62.3291C243.254 62.3291 242.969 62.3838 242.75 62.4932C242.536 62.598 242.379 62.7324 242.279 62.8965C242.183 63.0605 242.135 63.2337 242.135 63.416C242.135 63.5527 242.158 63.6758 242.204 63.7852C242.254 63.89 242.34 63.988 242.463 64.0791C242.586 64.1657 242.76 64.2477 242.983 64.3252C243.206 64.4027 243.491 64.4801 243.837 64.5576C244.443 64.6943 244.942 64.8584 245.334 65.0498C245.726 65.2412 246.018 65.4759 246.209 65.7539C246.401 66.0319 246.497 66.3691 246.497 66.7656C246.497 67.0892 246.428 67.3854 246.291 67.6543C246.159 67.9232 245.966 68.1556 245.71 68.3516C245.46 68.543 245.159 68.6934 244.808 68.8027C244.462 68.9076 244.072 68.96 243.639 68.96C242.987 68.96 242.436 68.8438 241.985 68.6113C241.534 68.3789 241.192 68.0781 240.959 67.709C240.727 67.3398 240.611 66.9502 240.611 66.54H241.882C241.9 66.8864 242.001 67.1621 242.183 67.3672C242.365 67.5677 242.589 67.7113 242.853 67.7979C243.117 67.8799 243.379 67.9209 243.639 67.9209C243.985 67.9209 244.275 67.8753 244.507 67.7842C244.744 67.693 244.924 67.5677 245.047 67.4082C245.17 67.2487 245.232 67.0664 245.232 66.8613Z" fill="#EBEDF0"/>
<path d="M378.875 72.5163C376.659 73.5148 374.8 74.9014 373.344 76.239C374.976 73.4395 376.315 70.5005 377.355 67.4692C379.254 66.9549 383.643 65.4666 387.1 62.0171C391.641 57.4862 392.927 51.3049 392.927 51.3049C392.927 51.3049 386.775 52.4523 382.234 56.985C380.925 58.2906 379.889 59.7337 379.074 61.126C379.558 58.7183 379.864 56.2767 379.99 53.8257C380.015 53.9462 380.03 54.014 380.03 54.014C380.03 54.014 385.074 50.3253 387.352 44.3174C389.528 38.2718 388.103 32.1753 388.103 32.1753C388.103 32.1753 383.027 35.7944 380.781 41.872C380.27 43.2906 379.96 44.7111 379.78 46.0562C379.387 42.3524 378.574 38.6806 377.333 35.1256C377.943 34.5434 382.028 30.4797 383.492 24.7243C385.077 18.4978 382.938 12.5992 382.938 12.5992C382.938 12.5992 378.285 16.8493 376.7 23.0758C375.585 27.4541 376.313 31.6685 376.843 33.7861C375.412 30.0502 373.498 26.4556 371.091 23.0965C371.463 21.887 372.871 16.6666 371.419 11.2276C369.763 5.02002 365.059 0.824463 365.059 0.824463C365.059 0.824463 362.989 6.74949 364.646 12.9552C365.123 14.7412 365.851 16.3576 366.648 17.7574C365.664 16.7344 364.623 15.7416 363.527 14.7864C363.716 14.7563 363.818 14.7356 363.818 14.7356C363.818 14.7356 360.283 9.51136 354.364 7.05469C348.445 4.59802 342.321 5.88664 342.321 5.88664C342.321 5.88664 345.855 11.1108 351.775 13.5675C356.723 15.5532 361.742 15.0483 363.314 14.8185C366.702 18.0457 369.517 21.5988 371.78 25.3686C371.575 25.1425 371.367 24.9164 371.149 24.6979C366.546 20.2273 360.42 19.0291 360.42 19.0291C360.42 19.0291 361.705 25.1576 366.231 29.7073C369.925 33.2962 374.597 34.7751 376.3 35.2198C378.155 40.8226 378.97 46.6648 378.785 52.456C378.696 51.8908 378.582 51.32 378.435 50.7454C376.749 44.5453 372.088 40.3799 372.088 40.3799C372.088 40.3799 370.011 46.2691 371.658 52.537C372.993 57.4466 376.191 61.077 377.466 62.3769C376.208 67.7028 374.073 72.8328 371.093 77.522C371.667 76.0299 372.142 74.3362 372.349 72.5182C373.002 66.1052 370.156 60.5815 370.156 60.5815C370.156 60.5815 366.122 65.427 365.397 71.8117C364.847 76.661 366.398 81.0299 367.175 82.8498C364.871 85.5721 362.231 88.0797 359.267 90.3121C357.62 91.2748 356.492 92.1772 356.09 92.5163C356.02 92.5616 355.949 92.6049 355.88 92.6482C356.077 92.473 356.272 92.2959 356.464 92.1094C361.033 87.5785 362.34 81.499 362.34 81.499C362.34 81.499 356.154 82.6633 351.547 87.1264C347.39 91.1543 345.951 96.5518 345.709 97.5672C340.881 99.2439 335.795 100.175 330.714 100.642C329.42 100.74 328.117 100.826 326.817 100.725C328.113 100.868 329.42 100.826 330.721 100.77C334.639 100.599 338.496 99.8939 342.315 99.0424C346.139 98.1682 349.878 96.84 353.382 95.054C354.595 94.4323 355.769 93.7711 356.903 93.0721C358.785 93.7974 363.142 95.1558 367.891 94.4455C374.225 93.496 378.912 89.2835 378.912 89.2835C378.912 89.2835 373.278 86.5499 366.944 87.4975C365.613 87.6972 364.357 88.042 363.2 88.4602C365.962 86.0751 368.394 83.4319 370.488 80.5928C372.358 80.7888 377.108 81.0054 381.665 78.9519C387.507 76.3181 390.882 70.9884 390.882 70.9884C390.882 70.9884 384.721 69.8882 378.88 72.522L378.875 72.5163Z" fill="#EBEDF0"/>
</svg>
