<svg width="393" height="104" viewBox="0 0 393 104" fill="none" xmlns="http://www.w3.org/2000/svg">
<path d="M62.2171 101.82C57.1355 101.355 52.0501 100.424 47.222 98.7455C46.9816 97.73 45.5431 92.3325 41.3836 88.3046C36.7752 83.8415 30.5912 82.6772 30.5912 82.6772C30.5912 82.6772 31.8982 88.7568 36.4672 93.2877C36.6587 93.4723 36.854 93.6513 37.0512 93.8246C36.9817 93.7812 36.9104 93.736 36.8409 93.6927C36.4371 93.3536 35.3104 92.4512 33.6653 91.4904C30.7001 89.2598 28.0616 86.7503 25.7556 84.028C26.533 82.2081 28.0842 77.8411 27.534 72.99C26.8091 66.6053 22.7753 61.7597 22.7753 61.7597C22.7753 61.7597 19.9284 67.2854 20.5819 73.6964C20.7885 75.5145 21.2636 77.2081 21.8364 78.7002C18.8561 74.0111 16.7209 68.8829 15.4627 63.557C16.7378 62.2571 19.9359 58.6267 21.2711 53.7171C22.918 47.4492 20.8411 41.56 20.8411 41.56C20.8411 41.56 16.1801 45.7235 14.4937 51.9255C14.3472 52.5001 14.2327 53.0728 14.1444 53.638C13.9585 47.8467 14.7735 42.0046 16.6289 36.3999C18.3303 35.9553 23.0044 34.4764 26.6983 30.8874C31.224 26.3377 32.5085 20.2092 32.5085 20.2092C32.5085 20.2092 26.3809 21.4055 21.78 25.878C21.5622 26.0984 21.3537 26.3207 21.149 26.5468C23.4101 22.7789 26.2269 19.2258 29.6128 15.9986C31.1846 16.2284 36.2043 16.7314 41.1526 14.7476C47.0718 12.2909 50.606 7.06675 50.606 7.06675C50.606 7.06675 44.4821 5.78001 38.5629 8.2348C32.6437 10.6915 29.1095 15.9157 29.1095 15.9157C29.1095 15.9157 29.2128 15.9364 29.4006 15.9665C28.3058 16.9217 27.2654 17.9127 26.2814 18.9356C27.0776 17.5359 27.8062 15.9194 28.2814 14.1334C29.9377 7.92583 27.8682 2.00269 27.8682 2.00269C27.8682 2.00269 23.1659 6.19824 21.5077 12.4059C20.0561 17.8429 21.4645 23.0634 21.8364 24.2748C19.4308 27.6338 17.5153 31.2303 16.0843 34.9662C16.6139 32.8486 17.3406 28.6342 16.227 24.254C14.6421 18.0276 9.98862 13.7774 9.98862 13.7774C9.98862 13.7774 7.84967 19.6779 9.43463 25.9025C10.8994 31.658 14.9857 35.7216 15.5942 36.3038C14.3529 39.8607 13.5397 43.5306 13.1473 47.2364C12.9689 45.8912 12.6571 44.4707 12.1463 43.0502C9.90035 36.9726 4.82436 33.3535 4.82436 33.3535C4.82436 33.3535 3.39902 39.45 5.57552 45.4956C7.85531 51.5035 12.8975 55.1923 12.8975 55.1923C12.8975 55.1923 12.9125 55.1245 12.9369 55.002C13.0628 57.453 13.3689 59.8946 13.8534 62.3042C13.0383 60.9119 12.0017 59.4688 10.6928 58.1633C6.15204 53.6324 0 52.4832 0 52.4832C0 52.4832 1.28637 58.6644 5.82716 63.1953C9.2844 66.6448 13.6731 68.1331 15.5716 68.6475C16.612 71.6787 17.951 74.6177 19.5829 77.4172C18.1275 76.0815 16.2665 74.6949 14.0524 73.6964C8.21023 71.0627 2.05068 72.1629 2.05068 72.1629C2.05068 72.1629 5.42529 77.4926 11.2675 80.1264C15.8233 82.1818 20.5744 81.9632 22.4448 81.7673C24.5387 84.6064 26.9706 87.2515 29.733 89.6347C28.5762 89.2164 27.3199 88.8717 25.9884 88.672C19.6542 87.7225 14.0205 90.458 14.0205 90.458C14.0205 90.458 18.7078 94.6705 25.042 95.62C29.7931 96.3321 34.1498 94.9719 36.0296 94.2466C37.1639 94.9455 38.3357 95.6087 39.5507 96.2285C43.053 98.0145 46.7919 99.3427 50.6172 100.217C54.4369 101.066 58.2942 101.773 62.2115 101.944C63.5129 102.001 64.8199 102.044 66.1157 101.899C64.818 102.001 63.5147 101.914 62.219 101.816L62.2171 101.82Z" fill="#EBEDF0"/>
<path d="M88.4707 9.78125V24H85.5411V9.78125H88.4707ZM94.1348 15.8555V18.1406H87.67V15.8555H94.1348ZM94.8184 9.78125V12.0762H87.67V9.78125H94.8184ZM102.313 21.6172V16.9102C102.313 16.5716 102.258 16.2819 102.147 16.041C102.036 15.7936 101.864 15.6016 101.629 15.4648C101.401 15.3281 101.105 15.2598 100.741 15.2598C100.428 15.2598 100.158 15.3151 99.9301 15.4258C99.7023 15.5299 99.5265 15.6829 99.4028 15.8848C99.2791 16.0801 99.2172 16.3112 99.2172 16.5781H96.4047C96.4047 16.1289 96.5089 15.7025 96.7172 15.2988C96.9256 14.8952 97.2283 14.5404 97.6254 14.2344C98.0226 13.9219 98.4946 13.6777 99.0414 13.502C99.5948 13.3262 100.213 13.2383 100.897 13.2383C101.717 13.2383 102.446 13.375 103.084 13.6484C103.722 13.9219 104.224 14.332 104.588 14.8789C104.959 15.4258 105.145 16.1094 105.145 16.9297V21.4512C105.145 22.0306 105.181 22.5059 105.252 22.877C105.324 23.2415 105.428 23.5605 105.565 23.834V24H102.723C102.586 23.7135 102.482 23.3555 102.411 22.9258C102.345 22.4896 102.313 22.0534 102.313 21.6172ZM102.684 17.5645L102.704 19.1562H101.131C100.76 19.1562 100.438 19.1986 100.164 19.2832C99.8911 19.3678 99.6664 19.4883 99.4907 19.6445C99.3149 19.7943 99.1847 19.9701 99.1 20.1719C99.0219 20.3737 98.9829 20.5951 98.9829 20.8359C98.9829 21.0768 99.0382 21.2949 99.1489 21.4902C99.2595 21.679 99.419 21.8288 99.6274 21.9395C99.8357 22.0436 100.08 22.0957 100.36 22.0957C100.783 22.0957 101.151 22.0111 101.463 21.8418C101.776 21.6725 102.017 21.4642 102.186 21.2168C102.362 20.9694 102.453 20.735 102.459 20.5137L103.202 21.7051C103.097 21.972 102.954 22.2487 102.772 22.5352C102.596 22.8216 102.372 23.0918 102.098 23.3457C101.825 23.5931 101.496 23.7982 101.112 23.9609C100.728 24.1172 100.272 24.1953 99.7446 24.1953C99.074 24.1953 98.4653 24.0618 97.9184 23.7949C97.378 23.5215 96.9483 23.1471 96.6293 22.6719C96.3168 22.1901 96.1606 21.6432 96.1606 21.0312C96.1606 20.4779 96.2648 19.9863 96.4731 19.5566C96.6814 19.127 96.9874 18.7656 97.3911 18.4727C97.8012 18.1732 98.3123 17.9486 98.9243 17.7988C99.5362 17.6426 100.246 17.5645 101.053 17.5645H102.684ZM113.626 21.0801C113.626 20.8783 113.567 20.696 113.45 20.5332C113.333 20.3704 113.115 20.2207 112.796 20.084C112.483 19.9408 112.031 19.8105 111.438 19.6934C110.904 19.5762 110.406 19.4297 109.944 19.2539C109.488 19.0716 109.091 18.8535 108.753 18.5996C108.421 18.3457 108.16 18.0462 107.972 17.7012C107.783 17.3496 107.688 16.9492 107.688 16.5C107.688 16.0573 107.783 15.6406 107.972 15.25C108.167 14.8594 108.444 14.5143 108.802 14.2148C109.166 13.9089 109.609 13.6712 110.13 13.502C110.657 13.3262 111.25 13.2383 111.907 13.2383C112.825 13.2383 113.613 13.3848 114.27 13.6777C114.934 13.9707 115.442 14.3743 115.794 14.8887C116.152 15.3965 116.331 15.9759 116.331 16.627H113.518C113.518 16.3535 113.46 16.1094 113.343 15.8945C113.232 15.6732 113.056 15.5007 112.815 15.377C112.581 15.2467 112.275 15.1816 111.897 15.1816C111.585 15.1816 111.315 15.237 111.087 15.3477C110.859 15.4518 110.683 15.5951 110.559 15.7773C110.442 15.9531 110.384 16.1484 110.384 16.3633C110.384 16.526 110.416 16.6725 110.481 16.8027C110.553 16.9264 110.667 17.0404 110.823 17.1445C110.979 17.2487 111.181 17.3464 111.429 17.4375C111.682 17.5221 111.995 17.6003 112.366 17.6719C113.128 17.8281 113.808 18.0332 114.407 18.2871C115.006 18.5345 115.481 18.873 115.833 19.3027C116.184 19.7259 116.36 20.2826 116.36 20.9727C116.36 21.4414 116.256 21.8711 116.048 22.2617C115.839 22.6523 115.54 22.9941 115.149 23.2871C114.759 23.5736 114.29 23.7982 113.743 23.9609C113.203 24.1172 112.594 24.1953 111.917 24.1953C110.934 24.1953 110.1 24.0195 109.417 23.668C108.74 23.3164 108.225 22.8704 107.874 22.3301C107.529 21.7832 107.356 21.2233 107.356 20.6504H110.022C110.035 21.0345 110.133 21.3438 110.315 21.5781C110.504 21.8125 110.742 21.9818 111.028 22.0859C111.321 22.1901 111.637 22.2422 111.975 22.2422C112.34 22.2422 112.643 22.1934 112.884 22.0957C113.125 21.9915 113.307 21.8548 113.431 21.6855C113.561 21.5098 113.626 21.3079 113.626 21.0801ZM123.962 13.4336V15.4258H117.81V13.4336H123.962ZM119.333 10.8262H122.146V20.8164C122.146 21.1224 122.185 21.3568 122.263 21.5195C122.348 21.6823 122.471 21.7962 122.634 21.8613C122.797 21.9199 123.002 21.9492 123.249 21.9492C123.425 21.9492 123.581 21.9427 123.718 21.9297C123.861 21.9102 123.982 21.8906 124.079 21.8711L124.089 23.9414C123.848 24.0195 123.588 24.0814 123.308 24.127C123.028 24.1725 122.719 24.1953 122.38 24.1953C121.762 24.1953 121.221 24.0944 120.759 23.8926C120.303 23.6842 119.952 23.3522 119.704 22.8965C119.457 22.4408 119.333 21.8418 119.333 21.0996V10.8262ZM131.027 24.1953C130.207 24.1953 129.471 24.0651 128.82 23.8047C128.169 23.5378 127.616 23.1699 127.16 22.7012C126.711 22.2324 126.366 21.6888 126.125 21.0703C125.884 20.4453 125.763 19.7812 125.763 19.0781V18.6875C125.763 17.8867 125.877 17.1543 126.105 16.4902C126.333 15.8262 126.659 15.25 127.082 14.7617C127.511 14.2734 128.032 13.8991 128.644 13.6387C129.256 13.3717 129.946 13.2383 130.714 13.2383C131.463 13.2383 132.127 13.362 132.707 13.6094C133.286 13.8568 133.771 14.2083 134.162 14.6641C134.559 15.1198 134.858 15.6667 135.06 16.3047C135.262 16.9362 135.363 17.6393 135.363 18.4141V19.5859H126.964V17.7109H132.599V17.4961C132.599 17.1055 132.528 16.7572 132.384 16.4512C132.248 16.1387 132.039 15.8913 131.759 15.709C131.479 15.5267 131.121 15.4355 130.685 15.4355C130.314 15.4355 129.995 15.5169 129.728 15.6797C129.461 15.8424 129.243 16.0703 129.074 16.3633C128.911 16.6562 128.787 17.0013 128.703 17.3984C128.625 17.7891 128.586 18.2188 128.586 18.6875V19.0781C128.586 19.5013 128.644 19.8919 128.761 20.25C128.885 20.6081 129.058 20.9173 129.279 21.1777C129.507 21.4382 129.78 21.64 130.099 21.7832C130.425 21.9264 130.793 21.998 131.203 21.998C131.711 21.998 132.183 21.9004 132.619 21.7051C133.061 21.5033 133.442 21.2005 133.761 20.7969L135.129 22.2812C134.907 22.6003 134.604 22.9062 134.22 23.1992C133.843 23.4922 133.387 23.7331 132.853 23.9219C132.319 24.1042 131.711 24.1953 131.027 24.1953ZM143.277 21.0801C143.277 20.8783 143.219 20.696 143.102 20.5332C142.984 20.3704 142.766 20.2207 142.447 20.084C142.135 19.9408 141.682 19.8105 141.09 19.6934C140.556 19.5762 140.058 19.4297 139.596 19.2539C139.14 19.0716 138.743 18.8535 138.404 18.5996C138.072 18.3457 137.812 18.0462 137.623 17.7012C137.434 17.3496 137.34 16.9492 137.34 16.5C137.34 16.0573 137.434 15.6406 137.623 15.25C137.818 14.8594 138.095 14.5143 138.453 14.2148C138.818 13.9089 139.26 13.6712 139.781 13.502C140.309 13.3262 140.901 13.2383 141.559 13.2383C142.477 13.2383 143.264 13.3848 143.922 13.6777C144.586 13.9707 145.094 14.3743 145.445 14.8887C145.803 15.3965 145.982 15.9759 145.982 16.627H143.17C143.17 16.3535 143.111 16.1094 142.994 15.8945C142.884 15.6732 142.708 15.5007 142.467 15.377C142.232 15.2467 141.926 15.1816 141.549 15.1816C141.236 15.1816 140.966 15.237 140.738 15.3477C140.51 15.4518 140.335 15.5951 140.211 15.7773C140.094 15.9531 140.035 16.1484 140.035 16.3633C140.035 16.526 140.068 16.6725 140.133 16.8027C140.204 16.9264 140.318 17.0404 140.475 17.1445C140.631 17.2487 140.833 17.3464 141.08 17.4375C141.334 17.5221 141.647 17.6003 142.018 17.6719C142.779 17.8281 143.46 18.0332 144.059 18.2871C144.658 18.5345 145.133 18.873 145.484 19.3027C145.836 19.7259 146.012 20.2826 146.012 20.9727C146.012 21.4414 145.908 21.8711 145.699 22.2617C145.491 22.6523 145.191 22.9941 144.801 23.2871C144.41 23.5736 143.941 23.7982 143.395 23.9609C142.854 24.1172 142.245 24.1953 141.568 24.1953C140.585 24.1953 139.752 24.0195 139.068 23.668C138.391 23.3164 137.877 22.8704 137.525 22.3301C137.18 21.7832 137.008 21.2233 137.008 20.6504H139.674C139.687 21.0345 139.785 21.3438 139.967 21.5781C140.156 21.8125 140.393 21.9818 140.68 22.0859C140.973 22.1901 141.288 22.2422 141.627 22.2422C141.992 22.2422 142.294 22.1934 142.535 22.0957C142.776 21.9915 142.958 21.8548 143.082 21.6855C143.212 21.5098 143.277 21.3079 143.277 21.0801ZM153.614 13.4336V15.4258H147.461V13.4336H153.614ZM148.985 10.8262H151.797V20.8164C151.797 21.1224 151.836 21.3568 151.914 21.5195C151.999 21.6823 152.123 21.7962 152.286 21.8613C152.448 21.9199 152.653 21.9492 152.901 21.9492C153.077 21.9492 153.233 21.9427 153.37 21.9297C153.513 21.9102 153.633 21.8906 153.731 21.8711L153.741 23.9414C153.5 24.0195 153.239 24.0814 152.959 24.127C152.679 24.1725 152.37 24.1953 152.032 24.1953C151.413 24.1953 150.873 24.0944 150.411 23.8926C149.955 23.6842 149.603 23.3522 149.356 22.8965C149.109 22.4408 148.985 21.8418 148.985 21.0996V10.8262ZM172.841 16.5684V22.2031C172.62 22.4701 172.278 22.7598 171.816 23.0723C171.353 23.3783 170.758 23.6419 170.029 23.8633C169.299 24.0846 168.417 24.1953 167.382 24.1953C166.464 24.1953 165.628 24.0456 164.872 23.7461C164.117 23.4401 163.466 22.9941 162.919 22.4082C162.379 21.8223 161.962 21.1061 161.669 20.2598C161.376 19.4069 161.23 18.4336 161.23 17.3398V16.4512C161.23 15.3574 161.37 14.3841 161.65 13.5312C161.936 12.6784 162.343 11.959 162.87 11.373C163.398 10.7871 164.026 10.3411 164.755 10.0352C165.484 9.72917 166.295 9.57617 167.187 9.57617C168.424 9.57617 169.439 9.77799 170.234 10.1816C171.028 10.5788 171.633 11.1322 172.05 11.8418C172.473 12.5449 172.734 13.3522 172.831 14.2637H169.989C169.918 13.7819 169.781 13.362 169.579 13.0039C169.378 12.6458 169.088 12.3659 168.71 12.1641C168.339 11.9622 167.857 11.8613 167.265 11.8613C166.777 11.8613 166.34 11.9622 165.956 12.1641C165.579 12.3594 165.26 12.6491 164.999 13.0332C164.739 13.4173 164.54 13.8926 164.404 14.459C164.267 15.0254 164.198 15.6829 164.198 16.4316V17.3398C164.198 18.082 164.27 18.7396 164.413 19.3125C164.557 19.8789 164.768 20.3574 165.048 20.748C165.335 21.1322 165.686 21.4219 166.103 21.6172C166.519 21.8125 167.004 21.9102 167.558 21.9102C168.02 21.9102 168.404 21.8711 168.71 21.793C169.023 21.7148 169.273 21.6204 169.462 21.5098C169.657 21.3926 169.807 21.2819 169.911 21.1777V18.6582H167.236V16.5684H172.841ZM178.441 15.7383V24H175.629V13.4336H178.275L178.441 15.7383ZM181.625 13.3652L181.576 15.9727C181.439 15.9531 181.273 15.9368 181.078 15.9238C180.889 15.9043 180.716 15.8945 180.56 15.8945C180.163 15.8945 179.818 15.9466 179.525 16.0508C179.239 16.1484 178.998 16.2949 178.802 16.4902C178.614 16.6855 178.47 16.9232 178.373 17.2031C178.282 17.4831 178.229 17.8021 178.216 18.1602L177.65 17.9844C177.65 17.3008 177.718 16.6725 177.855 16.0996C177.992 15.5202 178.19 15.0156 178.451 14.5859C178.718 14.1562 179.043 13.8242 179.427 13.5898C179.811 13.3555 180.251 13.2383 180.746 13.2383C180.902 13.2383 181.061 13.2513 181.224 13.2773C181.387 13.2969 181.52 13.3262 181.625 13.3652ZM182.811 18.8242V18.6191C182.811 17.8444 182.921 17.1315 183.143 16.4805C183.364 15.8229 183.686 15.2533 184.109 14.7715C184.533 14.2897 185.053 13.9154 185.672 13.6484C186.29 13.375 187 13.2383 187.801 13.2383C188.602 13.2383 189.314 13.375 189.939 13.6484C190.564 13.9154 191.089 14.2897 191.512 14.7715C191.941 15.2533 192.267 15.8229 192.488 16.4805C192.71 17.1315 192.82 17.8444 192.82 18.6191V18.8242C192.82 19.5924 192.71 20.3053 192.488 20.9629C192.267 21.6139 191.941 22.1836 191.512 22.6719C191.089 23.1536 190.568 23.528 189.949 23.7949C189.331 24.0618 188.621 24.1953 187.82 24.1953C187.02 24.1953 186.307 24.0618 185.682 23.7949C185.063 23.528 184.539 23.1536 184.109 22.6719C183.686 22.1836 183.364 21.6139 183.143 20.9629C182.921 20.3053 182.811 19.5924 182.811 18.8242ZM185.623 18.6191V18.8242C185.623 19.2669 185.662 19.6803 185.74 20.0645C185.818 20.4486 185.942 20.7871 186.111 21.0801C186.287 21.3665 186.515 21.5911 186.795 21.7539C187.075 21.9167 187.417 21.998 187.82 21.998C188.211 21.998 188.546 21.9167 188.826 21.7539C189.106 21.5911 189.331 21.3665 189.5 21.0801C189.669 20.7871 189.793 20.4486 189.871 20.0645C189.956 19.6803 189.998 19.2669 189.998 18.8242V18.6191C189.998 18.1895 189.956 17.7858 189.871 17.4082C189.793 17.0241 189.666 16.6855 189.49 16.3926C189.321 16.0931 189.096 15.8587 188.816 15.6895C188.536 15.5202 188.198 15.4355 187.801 15.4355C187.404 15.4355 187.065 15.5202 186.785 15.6895C186.512 15.8587 186.287 16.0931 186.111 16.3926C185.942 16.6855 185.818 17.0241 185.74 17.4082C185.662 17.7858 185.623 18.1895 185.623 18.6191ZM198.166 21.2656L200.364 13.4336H202.151L201.575 16.5098L199.377 24H197.883L198.166 21.2656ZM197.053 13.4336L198.625 21.2559L198.772 24H197.014L194.338 13.4336H197.053ZM204.163 21.1289L205.696 13.4336H208.42L205.745 24H203.997L204.163 21.1289ZM202.395 13.4336L204.582 21.207L204.885 24H203.381L201.184 16.5195L200.627 13.4336H202.395ZM213.405 13.4336V24H210.583V13.4336H213.405ZM210.407 10.6797C210.407 10.2695 210.55 9.93099 210.837 9.66406C211.123 9.39714 211.507 9.26367 211.989 9.26367C212.464 9.26367 212.845 9.39714 213.132 9.66406C213.425 9.93099 213.571 10.2695 213.571 10.6797C213.571 11.0898 213.425 11.4284 213.132 11.6953C212.845 11.9622 212.464 12.0957 211.989 12.0957C211.507 12.0957 211.123 11.9622 210.837 11.6953C210.55 11.4284 210.407 11.0898 210.407 10.6797ZM219.083 15.6895V24H216.271V13.4336H218.907L219.083 15.6895ZM218.673 18.3457H217.911C217.911 17.5645 218.012 16.8613 218.214 16.2363C218.416 15.6048 218.699 15.0677 219.064 14.625C219.428 14.1758 219.861 13.834 220.363 13.5996C220.87 13.3587 221.437 13.2383 222.062 13.2383C222.557 13.2383 223.009 13.3099 223.419 13.4531C223.829 13.5964 224.181 13.8242 224.474 14.1367C224.773 14.4492 225.001 14.8626 225.157 15.377C225.32 15.8913 225.402 16.5195 225.402 17.2617V24H222.57V17.252C222.57 16.7832 222.504 16.4186 222.374 16.1582C222.244 15.8978 222.052 15.7155 221.798 15.6113C221.551 15.5007 221.245 15.4453 220.88 15.4453C220.503 15.4453 220.174 15.5202 219.894 15.6699C219.62 15.8197 219.392 16.028 219.21 16.2949C219.034 16.5553 218.901 16.8613 218.81 17.2129C218.719 17.5645 218.673 17.9421 218.673 18.3457ZM234.83 13.4336H237.379V23.6484C237.379 24.612 237.164 25.429 236.734 26.0996C236.311 26.7767 235.718 27.2878 234.957 27.6328C234.195 27.9844 233.31 28.1602 232.3 28.1602C231.858 28.1602 231.389 28.1016 230.894 27.9844C230.406 27.8672 229.937 27.6849 229.488 27.4375C229.045 27.1901 228.674 26.8776 228.375 26.5L229.615 24.8398C229.94 25.2174 230.318 25.5104 230.748 25.7188C231.177 25.9336 231.653 26.041 232.173 26.041C232.681 26.041 233.111 25.9466 233.463 25.7578C233.814 25.5755 234.084 25.3053 234.273 24.9473C234.462 24.5957 234.556 24.1693 234.556 23.668V15.875L234.83 13.4336ZM227.72 18.8438V18.6387C227.72 17.8314 227.818 17.099 228.013 16.4414C228.215 15.7773 228.498 15.2077 228.863 14.7324C229.234 14.2572 229.683 13.8893 230.211 13.6289C230.738 13.3685 231.334 13.2383 231.998 13.2383C232.701 13.2383 233.29 13.3685 233.765 13.6289C234.241 13.8893 234.631 14.2604 234.937 14.7422C235.243 15.2174 235.481 15.7806 235.65 16.4316C235.826 17.0762 235.963 17.7826 236.06 18.5508V19C235.963 19.7357 235.816 20.4193 235.621 21.0508C235.425 21.6823 235.168 22.2357 234.849 22.7109C234.53 23.1797 234.133 23.5443 233.658 23.8047C233.189 24.0651 232.629 24.1953 231.978 24.1953C231.327 24.1953 230.738 24.0618 230.211 23.7949C229.69 23.528 229.244 23.1536 228.873 22.6719C228.502 22.1901 228.215 21.6237 228.013 20.9727C227.818 20.3216 227.72 19.612 227.72 18.8438ZM230.533 18.6387V18.8438C230.533 19.2799 230.575 19.6868 230.66 20.0645C230.744 20.4421 230.875 20.7773 231.05 21.0703C231.233 21.3568 231.457 21.5814 231.724 21.7441C231.998 21.9004 232.32 21.9785 232.691 21.9785C233.205 21.9785 233.625 21.8711 233.951 21.6562C234.276 21.4349 234.52 21.1322 234.683 20.748C234.846 20.3639 234.94 19.9212 234.966 19.4199V18.1406C234.953 17.7305 234.898 17.3626 234.8 17.0371C234.703 16.7051 234.566 16.4219 234.39 16.1875C234.214 15.9531 233.987 15.7708 233.707 15.6406C233.427 15.5104 233.095 15.4453 232.711 15.4453C232.339 15.4453 232.017 15.5299 231.744 15.6992C231.477 15.862 231.252 16.0866 231.07 16.373C230.894 16.6595 230.761 16.998 230.67 17.3887C230.578 17.7728 230.533 18.1895 230.533 18.6387ZM251.489 17.7598H247.836L247.817 15.748H250.883C251.424 15.748 251.866 15.6797 252.211 15.543C252.556 15.3997 252.814 15.1947 252.983 14.9277C253.159 14.6543 253.247 14.3223 253.247 13.9316C253.247 13.4889 253.162 13.1309 252.993 12.8574C252.83 12.584 252.573 12.3854 252.221 12.2617C251.876 12.138 251.43 12.0762 250.883 12.0762H248.852V24H245.922V9.78125H250.883C251.71 9.78125 252.449 9.85938 253.1 10.0156C253.758 10.1719 254.314 10.4095 254.77 10.7285C255.226 11.0475 255.574 11.4512 255.815 11.9395C256.056 12.4212 256.176 12.9941 256.176 13.6582C256.176 14.2441 256.043 14.7845 255.776 15.2793C255.515 15.7741 255.102 16.1777 254.536 16.4902C253.976 16.8027 253.243 16.9753 252.338 17.0078L251.489 17.7598ZM251.362 24H247.036L248.178 21.7148H251.362C251.876 21.7148 252.296 21.6335 252.622 21.4707C252.947 21.3014 253.188 21.0736 253.344 20.7871C253.5 20.5007 253.579 20.1719 253.579 19.8008C253.579 19.3841 253.507 19.0228 253.364 18.7168C253.227 18.4108 253.006 18.1764 252.7 18.0137C252.394 17.8444 251.99 17.7598 251.489 17.7598H248.666L248.686 15.748H252.202L252.875 16.5391C253.741 16.526 254.438 16.679 254.965 16.998C255.499 17.3105 255.886 17.7174 256.127 18.2188C256.375 18.7201 256.498 19.2572 256.498 19.8301C256.498 20.7415 256.3 21.5098 255.903 22.1348C255.506 22.7533 254.923 23.2188 254.155 23.5312C253.393 23.8438 252.462 24 251.362 24ZM261.932 15.7383V24H259.12V13.4336H261.766L261.932 15.7383ZM265.116 13.3652L265.067 15.9727C264.931 15.9531 264.764 15.9368 264.569 15.9238C264.38 15.9043 264.208 15.8945 264.052 15.8945C263.654 15.8945 263.309 15.9466 263.016 16.0508C262.73 16.1484 262.489 16.2949 262.294 16.4902C262.105 16.6855 261.962 16.9232 261.864 17.2031C261.773 17.4831 261.721 17.8021 261.708 18.1602L261.141 17.9844C261.141 17.3008 261.21 16.6725 261.347 16.0996C261.483 15.5202 261.682 15.0156 261.942 14.5859C262.209 14.1562 262.535 13.8242 262.919 13.5898C263.303 13.3555 263.742 13.2383 264.237 13.2383C264.393 13.2383 264.553 13.2513 264.716 13.2773C264.878 13.2969 265.012 13.3262 265.116 13.3652ZM266.302 18.8242V18.6191C266.302 17.8444 266.413 17.1315 266.634 16.4805C266.855 15.8229 267.178 15.2533 267.601 14.7715C268.024 14.2897 268.545 13.9154 269.163 13.6484C269.782 13.375 270.491 13.2383 271.292 13.2383C272.093 13.2383 272.806 13.375 273.431 13.6484C274.056 13.9154 274.58 14.2897 275.003 14.7715C275.433 15.2533 275.758 15.8229 275.98 16.4805C276.201 17.1315 276.312 17.8444 276.312 18.6191V18.8242C276.312 19.5924 276.201 20.3053 275.98 20.9629C275.758 21.6139 275.433 22.1836 275.003 22.6719C274.58 23.1536 274.059 23.528 273.441 23.7949C272.822 24.0618 272.113 24.1953 271.312 24.1953C270.511 24.1953 269.798 24.0618 269.173 23.7949C268.555 23.528 268.031 23.1536 267.601 22.6719C267.178 22.1836 266.855 21.6139 266.634 20.9629C266.413 20.3053 266.302 19.5924 266.302 18.8242ZM269.115 18.6191V18.8242C269.115 19.2669 269.154 19.6803 269.232 20.0645C269.31 20.4486 269.434 20.7871 269.603 21.0801C269.779 21.3665 270.006 21.5911 270.286 21.7539C270.566 21.9167 270.908 21.998 271.312 21.998C271.702 21.998 272.038 21.9167 272.318 21.7539C272.598 21.5911 272.822 21.3665 272.991 21.0801C273.161 20.7871 273.284 20.4486 273.363 20.0645C273.447 19.6803 273.49 19.2669 273.49 18.8242V18.6191C273.49 18.1895 273.447 17.7858 273.363 17.4082C273.284 17.0241 273.157 16.6855 272.982 16.3926C272.812 16.0931 272.588 15.8587 272.308 15.6895C272.028 15.5202 271.689 15.4355 271.292 15.4355C270.895 15.4355 270.557 15.5202 270.277 15.6895C270.003 15.8587 269.779 16.0931 269.603 16.3926C269.434 16.6855 269.31 17.0241 269.232 17.4082C269.154 17.7858 269.115 18.1895 269.115 18.6191ZM281.453 8.99023V24H278.64V8.99023H281.453ZM288.113 13.4336L283.523 18.668L281.062 21.1582L280.037 19.127L281.99 16.6465L284.734 13.4336H288.113ZM285.193 24L282.068 19.1172L284.011 17.418L288.435 24H285.193ZM294.592 24.1953C293.772 24.1953 293.036 24.0651 292.385 23.8047C291.734 23.5378 291.18 23.1699 290.725 22.7012C290.275 22.2324 289.93 21.6888 289.689 21.0703C289.449 20.4453 289.328 19.7812 289.328 19.0781V18.6875C289.328 17.8867 289.442 17.1543 289.67 16.4902C289.898 15.8262 290.223 15.25 290.647 14.7617C291.076 14.2734 291.597 13.8991 292.209 13.6387C292.821 13.3717 293.511 13.2383 294.279 13.2383C295.028 13.2383 295.692 13.362 296.272 13.6094C296.851 13.8568 297.336 14.2083 297.727 14.6641C298.124 15.1198 298.423 15.6667 298.625 16.3047C298.827 16.9362 298.928 17.6393 298.928 18.4141V19.5859H290.529V17.7109H296.164V17.4961C296.164 17.1055 296.092 16.7572 295.949 16.4512C295.813 16.1387 295.604 15.8913 295.324 15.709C295.044 15.5267 294.686 15.4355 294.25 15.4355C293.879 15.4355 293.56 15.5169 293.293 15.6797C293.026 15.8424 292.808 16.0703 292.639 16.3633C292.476 16.6562 292.352 17.0013 292.268 17.3984C292.189 17.7891 292.15 18.2188 292.15 18.6875V19.0781C292.15 19.5013 292.209 19.8919 292.326 20.25C292.45 20.6081 292.622 20.9173 292.844 21.1777C293.072 21.4382 293.345 21.64 293.664 21.7832C293.99 21.9264 294.357 21.998 294.768 21.998C295.275 21.998 295.747 21.9004 296.184 21.7051C296.626 21.5033 297.007 21.2005 297.326 20.7969L298.693 22.2812C298.472 22.6003 298.169 22.9062 297.785 23.1992C297.408 23.4922 296.952 23.7331 296.418 23.9219C295.884 24.1042 295.275 24.1953 294.592 24.1953ZM303.942 15.7383V24H301.129V13.4336H303.776L303.942 15.7383ZM307.125 13.3652L307.077 15.9727C306.94 15.9531 306.774 15.9368 306.579 15.9238C306.39 15.9043 306.217 15.8945 306.061 15.8945C305.664 15.8945 305.319 15.9466 305.026 16.0508C304.739 16.1484 304.498 16.2949 304.303 16.4902C304.114 16.6855 303.971 16.9232 303.873 17.2031C303.782 17.4831 303.73 17.8021 303.717 18.1602L303.151 17.9844C303.151 17.3008 303.219 16.6725 303.356 16.0996C303.493 15.5202 303.691 15.0156 303.952 14.5859C304.219 14.1562 304.544 13.8242 304.928 13.5898C305.312 13.3555 305.752 13.2383 306.247 13.2383C306.403 13.2383 306.562 13.2513 306.725 13.2773C306.888 13.2969 307.021 13.3262 307.125 13.3652ZM147.139 47.7148V50H139.571V47.7148H147.139ZM140.528 35.7812V50H137.598V35.7812H140.528ZM146.153 41.5723V43.7988H139.571V41.5723H146.153ZM147.129 35.7812V38.0762H139.571V35.7812H147.129ZM155.347 47.4707V39.4336H158.159V50H155.513L155.347 47.4707ZM155.659 45.3027L156.489 45.2832C156.489 45.9863 156.408 46.6406 156.245 47.2461C156.082 47.8451 155.838 48.3659 155.513 48.8086C155.187 49.2448 154.777 49.5866 154.282 49.834C153.787 50.0749 153.205 50.1953 152.534 50.1953C152.02 50.1953 151.544 50.1237 151.108 49.9805C150.679 49.8307 150.307 49.5996 149.995 49.2871C149.689 48.9681 149.448 48.5612 149.272 48.0664C149.103 47.5651 149.018 46.9629 149.018 46.2598V39.4336H151.831V46.2793C151.831 46.5918 151.867 46.8555 151.938 47.0703C152.016 47.2852 152.124 47.4609 152.261 47.5977C152.397 47.7344 152.557 47.832 152.739 47.8906C152.928 47.9492 153.136 47.9785 153.364 47.9785C153.944 47.9785 154.399 47.8613 154.731 47.627C155.07 47.3926 155.307 47.0736 155.444 46.6699C155.587 46.2598 155.659 45.804 155.659 45.3027ZM163.72 41.7383V50H160.907V39.4336H163.554L163.72 41.7383ZM166.904 39.3652L166.855 41.9727C166.718 41.9531 166.552 41.9368 166.357 41.9238C166.168 41.9043 165.995 41.8945 165.839 41.8945C165.442 41.8945 165.097 41.9466 164.804 42.0508C164.517 42.1484 164.277 42.2949 164.081 42.4902C163.892 42.6855 163.749 42.9232 163.652 43.2031C163.56 43.4831 163.508 43.8021 163.495 44.1602L162.929 43.9844C162.929 43.3008 162.997 42.6725 163.134 42.0996C163.271 41.5202 163.469 41.0156 163.73 40.5859C163.997 40.1562 164.322 39.8242 164.706 39.5898C165.09 39.3555 165.53 39.2383 166.025 39.2383C166.181 39.2383 166.34 39.2513 166.503 39.2773C166.666 39.2969 166.799 39.3262 166.904 39.3652ZM168.089 44.8242V44.6191C168.089 43.8444 168.2 43.1315 168.422 42.4805C168.643 41.8229 168.965 41.2533 169.388 40.7715C169.811 40.2897 170.332 39.9154 170.951 39.6484C171.569 39.375 172.279 39.2383 173.08 39.2383C173.881 39.2383 174.593 39.375 175.218 39.6484C175.843 39.9154 176.367 40.2897 176.791 40.7715C177.22 41.2533 177.546 41.8229 177.767 42.4805C177.989 43.1315 178.099 43.8444 178.099 44.6191V44.8242C178.099 45.5924 177.989 46.3053 177.767 46.9629C177.546 47.6139 177.22 48.1836 176.791 48.6719C176.367 49.1536 175.847 49.528 175.228 49.7949C174.61 50.0618 173.9 50.1953 173.099 50.1953C172.298 50.1953 171.586 50.0618 170.961 49.7949C170.342 49.528 169.818 49.1536 169.388 48.6719C168.965 48.1836 168.643 47.6139 168.422 46.9629C168.2 46.3053 168.089 45.5924 168.089 44.8242ZM170.902 44.6191V44.8242C170.902 45.2669 170.941 45.6803 171.019 46.0645C171.097 46.4486 171.221 46.7871 171.39 47.0801C171.566 47.3665 171.794 47.5911 172.074 47.7539C172.354 47.9167 172.696 47.998 173.099 47.998C173.49 47.998 173.825 47.9167 174.105 47.7539C174.385 47.5911 174.61 47.3665 174.779 47.0801C174.948 46.7871 175.072 46.4486 175.15 46.0645C175.235 45.6803 175.277 45.2669 175.277 44.8242V44.6191C175.277 44.1895 175.235 43.7858 175.15 43.4082C175.072 43.0241 174.945 42.6855 174.769 42.3926C174.6 42.0931 174.375 41.8587 174.095 41.6895C173.815 41.5202 173.477 41.4355 173.08 41.4355C172.683 41.4355 172.344 41.5202 172.064 41.6895C171.791 41.8587 171.566 42.0931 171.39 42.3926C171.221 42.6855 171.097 43.0241 171.019 43.4082C170.941 43.7858 170.902 44.1895 170.902 44.6191ZM183.24 41.4648V54.0625H180.428V39.4336H183.035L183.24 41.4648ZM189.93 44.5996V44.8047C189.93 45.5729 189.839 46.2858 189.656 46.9434C189.481 47.6009 189.22 48.1738 188.875 48.6621C188.53 49.1439 188.1 49.5215 187.586 49.7949C187.078 50.0618 186.492 50.1953 185.828 50.1953C185.184 50.1953 184.624 50.0651 184.148 49.8047C183.673 49.5443 183.273 49.1797 182.947 48.7109C182.628 48.2357 182.371 47.6855 182.176 47.0605C181.981 46.4355 181.831 45.765 181.727 45.0488V44.5117C181.831 43.7435 181.981 43.0404 182.176 42.4023C182.371 41.7578 182.628 41.2012 182.947 40.7324C183.273 40.2572 183.67 39.8893 184.139 39.6289C184.614 39.3685 185.171 39.2383 185.809 39.2383C186.479 39.2383 187.068 39.3652 187.576 39.6191C188.091 39.873 188.52 40.2376 188.865 40.7129C189.217 41.1882 189.481 41.7546 189.656 42.4121C189.839 43.0697 189.93 43.7988 189.93 44.5996ZM187.107 44.8047V44.5996C187.107 44.1504 187.068 43.737 186.99 43.3594C186.919 42.9753 186.801 42.64 186.639 42.3535C186.482 42.0671 186.274 41.8457 186.014 41.6895C185.76 41.5267 185.451 41.4453 185.086 41.4453C184.702 41.4453 184.373 41.5072 184.1 41.6309C183.833 41.7546 183.615 41.9336 183.445 42.168C183.276 42.4023 183.149 42.6823 183.064 43.0078C182.98 43.3333 182.928 43.7012 182.908 44.1113V45.4688C182.941 45.9505 183.032 46.3835 183.182 46.7676C183.331 47.1452 183.563 47.4447 183.875 47.666C184.188 47.8874 184.598 47.998 185.106 47.998C185.477 47.998 185.789 47.9167 186.043 47.7539C186.297 47.5846 186.502 47.3535 186.658 47.0605C186.821 46.7676 186.935 46.429 187 46.0449C187.072 45.6608 187.107 45.2474 187.107 44.8047ZM197.141 50.1953C196.321 50.1953 195.585 50.0651 194.934 49.8047C194.283 49.5378 193.73 49.1699 193.274 48.7012C192.825 48.2324 192.48 47.6888 192.239 47.0703C191.998 46.4453 191.877 45.7812 191.877 45.0781V44.6875C191.877 43.8867 191.991 43.1543 192.219 42.4902C192.447 41.8262 192.773 41.25 193.196 40.7617C193.625 40.2734 194.146 39.8991 194.758 39.6387C195.37 39.3717 196.06 39.2383 196.829 39.2383C197.577 39.2383 198.241 39.362 198.821 39.6094C199.4 39.8568 199.885 40.2083 200.276 40.6641C200.673 41.1198 200.972 41.6667 201.174 42.3047C201.376 42.9362 201.477 43.6393 201.477 44.4141V45.5859H193.079V43.7109H198.713V43.4961C198.713 43.1055 198.642 42.7572 198.498 42.4512C198.362 42.1387 198.153 41.8913 197.873 41.709C197.594 41.5267 197.235 41.4355 196.799 41.4355C196.428 41.4355 196.109 41.5169 195.842 41.6797C195.575 41.8424 195.357 42.0703 195.188 42.3633C195.025 42.6562 194.901 43.0013 194.817 43.3984C194.739 43.7891 194.7 44.2188 194.7 44.6875V45.0781C194.7 45.5013 194.758 45.8919 194.875 46.25C194.999 46.6081 195.172 46.9173 195.393 47.1777C195.621 47.4382 195.894 47.64 196.213 47.7832C196.539 47.9264 196.907 47.998 197.317 47.998C197.825 47.998 198.297 47.9004 198.733 47.7051C199.176 47.5033 199.556 47.2005 199.875 46.7969L201.243 48.2812C201.021 48.6003 200.719 48.9062 200.334 49.1992C199.957 49.4922 199.501 49.7331 198.967 49.9219C198.433 50.1042 197.825 50.1953 197.141 50.1953ZM218.868 47.8027V50H209.142V48.125L213.741 43.1934C214.204 42.679 214.568 42.2266 214.835 41.8359C215.102 41.4388 215.294 41.084 215.411 40.7715C215.535 40.4525 215.597 40.1497 215.597 39.8633C215.597 39.4336 215.525 39.0658 215.382 38.7598C215.239 38.4473 215.027 38.2064 214.747 38.0371C214.474 37.8678 214.135 37.7832 213.732 37.7832C213.302 37.7832 212.931 37.8874 212.618 38.0957C212.312 38.304 212.078 38.5938 211.915 38.9648C211.759 39.3359 211.681 39.7559 211.681 40.2246H208.859C208.859 39.3783 209.06 38.6035 209.464 37.9004C209.868 37.1908 210.437 36.6276 211.173 36.2109C211.909 35.7878 212.781 35.5762 213.79 35.5762C214.786 35.5762 215.626 35.7389 216.31 36.0645C217 36.3835 217.521 36.8457 217.872 37.4512C218.23 38.0501 218.409 38.7663 218.409 39.5996C218.409 40.0684 218.335 40.5273 218.185 40.9766C218.035 41.4193 217.82 41.862 217.54 42.3047C217.267 42.7409 216.935 43.1836 216.544 43.6328C216.154 44.082 215.721 44.5475 215.245 45.0293L212.775 47.8027H218.868ZM230.797 41.6406V44.1016C230.797 45.1693 230.683 46.0905 230.455 46.8652C230.227 47.6335 229.898 48.265 229.468 48.7598C229.045 49.248 228.541 49.6094 227.955 49.8438C227.369 50.0781 226.718 50.1953 226.002 50.1953C225.429 50.1953 224.895 50.1237 224.4 49.9805C223.905 49.8307 223.459 49.5996 223.062 49.2871C222.672 48.9746 222.333 48.5807 222.047 48.1055C221.767 47.6237 221.552 47.0508 221.402 46.3867C221.252 45.7227 221.177 44.9609 221.177 44.1016V41.6406C221.177 40.5729 221.291 39.6582 221.519 38.8965C221.754 38.1283 222.082 37.5 222.506 37.0117C222.935 36.5234 223.443 36.1654 224.029 35.9375C224.615 35.7031 225.266 35.5859 225.982 35.5859C226.555 35.5859 227.086 35.6608 227.574 35.8105C228.069 35.9538 228.515 36.1784 228.912 36.4844C229.309 36.7904 229.647 37.1842 229.927 37.666C230.207 38.1413 230.422 38.7109 230.572 39.375C230.722 40.0326 230.797 40.7878 230.797 41.6406ZM227.974 44.4727V41.2598C227.974 40.7454 227.945 40.2962 227.886 39.9121C227.834 39.528 227.753 39.2025 227.642 38.9355C227.532 38.6621 227.395 38.4408 227.232 38.2715C227.069 38.1022 226.884 37.9785 226.675 37.9004C226.467 37.8223 226.236 37.7832 225.982 37.7832C225.663 37.7832 225.38 37.8451 225.132 37.9688C224.892 38.0924 224.686 38.291 224.517 38.5645C224.348 38.8314 224.218 39.1895 224.127 39.6387C224.042 40.0814 224 40.6217 224 41.2598V44.4727C224 44.987 224.026 45.4395 224.078 45.8301C224.136 46.2207 224.221 46.556 224.332 46.8359C224.449 47.1094 224.586 47.334 224.742 47.5098C224.905 47.679 225.09 47.8027 225.298 47.8809C225.513 47.959 225.748 47.998 226.002 47.998C226.314 47.998 226.591 47.9362 226.832 47.8125C227.079 47.6823 227.287 47.4805 227.457 47.207C227.632 46.9271 227.763 46.5625 227.847 46.1133C227.932 45.6641 227.974 45.1172 227.974 44.4727ZM243.037 47.8027V50H233.311V48.125L237.91 43.1934C238.372 42.679 238.737 42.2266 239.004 41.8359C239.271 41.4388 239.463 41.084 239.58 40.7715C239.704 40.4525 239.766 40.1497 239.766 39.8633C239.766 39.4336 239.694 39.0658 239.551 38.7598C239.408 38.4473 239.196 38.2064 238.916 38.0371C238.643 37.8678 238.304 37.7832 237.9 37.7832C237.471 37.7832 237.1 37.8874 236.787 38.0957C236.481 38.304 236.247 38.5938 236.084 38.9648C235.928 39.3359 235.85 39.7559 235.85 40.2246H233.027C233.027 39.3783 233.229 38.6035 233.633 37.9004C234.036 37.1908 234.606 36.6276 235.342 36.2109C236.078 35.7878 236.95 35.5762 237.959 35.5762C238.955 35.5762 239.795 35.7389 240.479 36.0645C241.169 36.3835 241.689 36.8457 242.041 37.4512C242.399 38.0501 242.578 38.7663 242.578 39.5996C242.578 40.0684 242.503 40.5273 242.354 40.9766C242.204 41.4193 241.989 41.862 241.709 42.3047C241.436 42.7409 241.104 43.1836 240.713 43.6328C240.322 44.082 239.889 44.5475 239.414 45.0293L236.943 47.8027H243.037ZM255.356 44.6875V46.8945H245.112L244.975 45.1855L250.903 35.7812H253.139L250.717 39.834L247.768 44.6875H255.356ZM253.745 35.7812V50H250.932V35.7812H253.745Z" fill="#EBEDF0"/>
<path d="M149.728 67.0439V70.6875C149.605 70.8698 149.409 71.0749 149.14 71.3027C148.872 71.526 148.5 71.722 148.026 71.8906C147.557 72.0547 146.951 72.1367 146.208 72.1367C145.602 72.1367 145.043 72.0319 144.533 71.8223C144.027 71.6081 143.587 71.2982 143.214 70.8926C142.845 70.4824 142.557 69.9857 142.352 69.4023C142.152 68.8145 142.052 68.1491 142.052 67.4062V66.6338C142.052 65.891 142.138 65.2279 142.311 64.6445C142.489 64.0612 142.749 63.5667 143.091 63.1611C143.432 62.751 143.852 62.4411 144.348 62.2314C144.845 62.0173 145.415 61.9102 146.057 61.9102C146.819 61.9102 147.454 62.0423 147.965 62.3066C148.48 62.5664 148.881 62.9264 149.168 63.3867C149.459 63.847 149.646 64.3711 149.728 64.959H148.409C148.35 64.599 148.231 64.2708 148.054 63.9746C147.88 63.6784 147.632 63.4414 147.308 63.2637C146.985 63.0814 146.568 62.9902 146.057 62.9902C145.597 62.9902 145.198 63.0745 144.861 63.2432C144.524 63.4118 144.246 63.6533 144.027 63.9678C143.808 64.2822 143.644 64.6628 143.535 65.1094C143.43 65.556 143.378 66.0596 143.378 66.6201V67.4062C143.378 67.9805 143.444 68.4932 143.576 68.9443C143.713 69.3955 143.906 69.7806 144.157 70.0996C144.408 70.4141 144.706 70.6533 145.053 70.8174C145.403 70.9814 145.791 71.0635 146.215 71.0635C146.684 71.0635 147.065 71.0247 147.356 70.9473C147.648 70.8652 147.876 70.7695 148.04 70.6602C148.204 70.5462 148.329 70.4391 148.416 70.3389V68.1104H146.112V67.0439H149.728ZM153.798 61.5V72H152.527V61.5H153.798ZM156.194 68.3838V68.2266C156.194 67.6934 156.271 67.1989 156.426 66.7432C156.581 66.2829 156.804 65.8841 157.096 65.5469C157.388 65.2051 157.741 64.9408 158.156 64.7539C158.57 64.5625 159.035 64.4668 159.55 64.4668C160.07 64.4668 160.537 64.5625 160.952 64.7539C161.371 64.9408 161.726 65.2051 162.018 65.5469C162.314 65.8841 162.54 66.2829 162.695 66.7432C162.85 67.1989 162.927 67.6934 162.927 68.2266V68.3838C162.927 68.917 162.85 69.4115 162.695 69.8672C162.54 70.3229 162.314 70.7217 162.018 71.0635C161.726 71.4007 161.373 71.665 160.958 71.8564C160.548 72.0433 160.083 72.1367 159.564 72.1367C159.044 72.1367 158.577 72.0433 158.163 71.8564C157.748 71.665 157.392 71.4007 157.096 71.0635C156.804 70.7217 156.581 70.3229 156.426 69.8672C156.271 69.4115 156.194 68.917 156.194 68.3838ZM157.458 68.2266V68.3838C157.458 68.7529 157.502 69.1016 157.588 69.4297C157.675 69.7533 157.805 70.0404 157.978 70.291C158.156 70.5417 158.377 70.7399 158.641 70.8857C158.905 71.027 159.213 71.0977 159.564 71.0977C159.91 71.0977 160.213 71.027 160.473 70.8857C160.737 70.7399 160.956 70.5417 161.129 70.291C161.303 70.0404 161.432 69.7533 161.519 69.4297C161.61 69.1016 161.656 68.7529 161.656 68.3838V68.2266C161.656 67.862 161.61 67.5179 161.519 67.1943C161.432 66.8662 161.3 66.5768 161.122 66.3262C160.949 66.071 160.731 65.8704 160.466 65.7246C160.206 65.5788 159.901 65.5059 159.55 65.5059C159.204 65.5059 158.899 65.5788 158.634 65.7246C158.374 65.8704 158.156 66.071 157.978 66.3262C157.805 66.5768 157.675 66.8662 157.588 67.1943C157.502 67.5179 157.458 67.862 157.458 68.2266ZM165.206 61.5H166.478V70.5645L166.368 72H165.206V61.5ZM171.475 68.2402V68.3838C171.475 68.9215 171.411 69.4206 171.283 69.8809C171.156 70.3366 170.969 70.7331 170.723 71.0703C170.477 71.4076 170.176 71.6696 169.821 71.8564C169.465 72.0433 169.057 72.1367 168.597 72.1367C168.128 72.1367 167.715 72.057 167.36 71.8975C167.009 71.7334 166.712 71.4987 166.471 71.1934C166.229 70.888 166.036 70.5189 165.89 70.0859C165.749 69.653 165.651 69.1654 165.596 68.623V67.9941C165.651 67.4473 165.749 66.9574 165.89 66.5244C166.036 66.0915 166.229 65.7223 166.471 65.417C166.712 65.1071 167.009 64.8724 167.36 64.7129C167.711 64.5488 168.118 64.4668 168.583 64.4668C169.048 64.4668 169.461 64.5579 169.821 64.7402C170.181 64.918 170.481 65.1732 170.723 65.5059C170.969 65.8385 171.156 66.2373 171.283 66.7021C171.411 67.1624 171.475 67.6751 171.475 68.2402ZM170.203 68.3838V68.2402C170.203 67.8711 170.169 67.5247 170.101 67.2012C170.032 66.873 169.923 66.5859 169.773 66.3398C169.622 66.0892 169.424 65.8932 169.178 65.752C168.932 65.6061 168.629 65.5332 168.269 65.5332C167.95 65.5332 167.672 65.5879 167.435 65.6973C167.202 65.8066 167.004 65.9548 166.84 66.1416C166.676 66.3239 166.542 66.5335 166.437 66.7705C166.336 67.0029 166.261 67.2445 166.211 67.4951V69.1426C166.284 69.4616 166.403 69.7692 166.567 70.0654C166.735 70.3571 166.959 70.5964 167.237 70.7832C167.519 70.9701 167.868 71.0635 168.282 71.0635C168.624 71.0635 168.916 70.9951 169.157 70.8584C169.404 70.7171 169.602 70.5234 169.752 70.2773C169.907 70.0312 170.021 69.7464 170.094 69.4229C170.167 69.0993 170.203 68.7529 170.203 68.3838ZM178.136 70.7354V66.9277C178.136 66.6361 178.077 66.3831 177.958 66.1689C177.844 65.9502 177.671 65.7816 177.439 65.6631C177.206 65.5446 176.919 65.4854 176.577 65.4854C176.258 65.4854 175.978 65.54 175.736 65.6494C175.499 65.7588 175.313 65.9023 175.176 66.0801C175.044 66.2578 174.978 66.4492 174.978 66.6543H173.713C173.713 66.39 173.781 66.1279 173.918 65.8682C174.055 65.6084 174.251 65.3737 174.506 65.1641C174.766 64.9499 175.076 64.7812 175.436 64.6582C175.8 64.5306 176.206 64.4668 176.652 64.4668C177.19 64.4668 177.664 64.5579 178.074 64.7402C178.489 64.9225 178.813 65.1982 179.045 65.5674C179.282 65.932 179.4 66.39 179.4 66.9414V70.3867C179.4 70.6328 179.421 70.8949 179.462 71.1729C179.508 71.4508 179.574 71.6901 179.66 71.8906V72H178.341C178.277 71.8542 178.227 71.6605 178.19 71.4189C178.154 71.1729 178.136 70.945 178.136 70.7354ZM178.355 67.5156L178.368 68.4043H177.09C176.73 68.4043 176.409 68.4339 176.126 68.4932C175.843 68.5479 175.606 68.6322 175.415 68.7461C175.224 68.86 175.078 69.0036 174.978 69.1768C174.877 69.3454 174.827 69.5436 174.827 69.7715C174.827 70.0039 174.88 70.2158 174.984 70.4072C175.089 70.5986 175.246 70.7513 175.456 70.8652C175.67 70.9746 175.932 71.0293 176.242 71.0293C176.63 71.0293 176.971 70.9473 177.268 70.7832C177.564 70.6191 177.799 70.4186 177.972 70.1816C178.149 69.9447 178.245 69.7145 178.259 69.4912L178.799 70.0996C178.767 70.291 178.68 70.5029 178.539 70.7354C178.398 70.9678 178.209 71.1911 177.972 71.4053C177.739 71.6149 177.461 71.7904 177.138 71.9316C176.819 72.0684 176.459 72.1367 176.058 72.1367C175.556 72.1367 175.117 72.0387 174.738 71.8428C174.365 71.6468 174.073 71.3848 173.863 71.0566C173.658 70.724 173.556 70.3525 173.556 69.9424C173.556 69.5459 173.633 69.1973 173.788 68.8965C173.943 68.5911 174.166 68.3382 174.458 68.1377C174.75 67.9326 175.101 67.7777 175.511 67.6729C175.921 67.568 176.379 67.5156 176.885 67.5156H178.355ZM183.464 61.5V72H182.192V61.5H183.464ZM194.106 67.3447H191.583L191.57 66.2852H193.86C194.238 66.2852 194.568 66.2214 194.851 66.0938C195.134 65.9661 195.352 65.7839 195.507 65.5469C195.667 65.3053 195.747 65.0182 195.747 64.6855C195.747 64.321 195.676 64.0247 195.535 63.7969C195.398 63.5645 195.186 63.3958 194.899 63.291C194.616 63.1816 194.256 63.127 193.819 63.127H191.877V72H190.558V62.0469H193.819C194.329 62.0469 194.785 62.0993 195.186 62.2041C195.587 62.3044 195.927 62.4639 196.205 62.6826C196.487 62.8968 196.701 63.1702 196.847 63.5029C196.993 63.8356 197.066 64.2344 197.066 64.6992C197.066 65.1094 196.961 65.4808 196.751 65.8135C196.542 66.1416 196.25 66.4105 195.876 66.6201C195.507 66.8298 195.074 66.9642 194.578 67.0234L194.106 67.3447ZM194.044 72H191.064L191.809 70.9268H194.044C194.464 70.9268 194.819 70.8538 195.111 70.708C195.407 70.5622 195.633 70.3571 195.788 70.0928C195.942 69.8239 196.02 69.5072 196.02 69.1426C196.02 68.7734 195.954 68.4544 195.822 68.1855C195.69 67.9167 195.482 67.7093 195.2 67.5635C194.917 67.4176 194.553 67.3447 194.106 67.3447H192.226L192.24 66.2852H194.81L195.09 66.668C195.569 66.709 195.974 66.8457 196.307 67.0781C196.64 67.306 196.893 67.5977 197.066 67.9531C197.244 68.3086 197.332 68.7005 197.332 69.1289C197.332 69.7487 197.196 70.2728 196.922 70.7012C196.653 71.125 196.273 71.4486 195.781 71.6719C195.289 71.8906 194.71 72 194.044 72ZM204.315 70.291V64.6035H205.586V72H204.376L204.315 70.291ZM204.554 68.7324L205.08 68.7188C205.08 69.2109 205.028 69.6667 204.923 70.0859C204.823 70.5007 204.659 70.8607 204.431 71.166C204.203 71.4714 203.905 71.7106 203.535 71.8838C203.166 72.0524 202.717 72.1367 202.189 72.1367C201.829 72.1367 201.498 72.0843 201.197 71.9795C200.901 71.8747 200.646 71.7129 200.432 71.4941C200.218 71.2754 200.051 70.9906 199.933 70.6396C199.819 70.2887 199.762 69.8672 199.762 69.375V64.6035H201.027V69.3887C201.027 69.7214 201.063 69.9971 201.136 70.2158C201.213 70.43 201.316 70.6009 201.444 70.7285C201.576 70.8516 201.722 70.9382 201.881 70.9883C202.045 71.0384 202.214 71.0635 202.387 71.0635C202.925 71.0635 203.351 70.9609 203.665 70.7559C203.98 70.5462 204.205 70.266 204.342 69.915C204.483 69.5596 204.554 69.1654 204.554 68.7324ZM212.521 70.0381C212.521 69.8558 212.48 69.6872 212.397 69.5322C212.32 69.3727 212.158 69.2292 211.912 69.1016C211.671 68.9694 211.306 68.8555 210.818 68.7598C210.408 68.6732 210.037 68.5706 209.704 68.4521C209.376 68.3337 209.096 68.1901 208.863 68.0215C208.635 67.8529 208.46 67.6546 208.337 67.4268C208.214 67.1989 208.152 66.9323 208.152 66.627C208.152 66.3353 208.216 66.0596 208.344 65.7998C208.476 65.54 208.661 65.3099 208.897 65.1094C209.139 64.9089 209.428 64.7516 209.766 64.6377C210.103 64.5238 210.479 64.4668 210.894 64.4668C211.486 64.4668 211.992 64.5716 212.411 64.7812C212.83 64.9909 213.152 65.2712 213.375 65.6221C213.598 65.9684 213.71 66.3535 213.71 66.7773H212.445C212.445 66.5723 212.384 66.374 212.261 66.1826C212.142 65.9867 211.967 65.8249 211.734 65.6973C211.507 65.5697 211.226 65.5059 210.894 65.5059C210.543 65.5059 210.258 65.5605 210.039 65.6699C209.825 65.7747 209.668 65.9092 209.567 66.0732C209.472 66.2373 209.424 66.4105 209.424 66.5928C209.424 66.7295 209.447 66.8525 209.492 66.9619C209.542 67.0667 209.629 67.1647 209.752 67.2559C209.875 67.3424 210.048 67.4245 210.272 67.502C210.495 67.5794 210.78 67.6569 211.126 67.7344C211.732 67.8711 212.231 68.0352 212.623 68.2266C213.015 68.418 213.307 68.6527 213.498 68.9307C213.689 69.2087 213.785 69.5459 213.785 69.9424C213.785 70.266 213.717 70.5622 213.58 70.8311C213.448 71.0999 213.254 71.3324 212.999 71.5283C212.748 71.7197 212.448 71.8701 212.097 71.9795C211.75 72.0843 211.361 72.1367 210.928 72.1367C210.276 72.1367 209.725 72.0205 209.273 71.7881C208.822 71.5557 208.48 71.2549 208.248 70.8857C208.016 70.5166 207.899 70.127 207.899 69.7168H209.171C209.189 70.0632 209.289 70.3389 209.472 70.5439C209.654 70.7445 209.877 70.888 210.142 70.9746C210.406 71.0566 210.668 71.0977 210.928 71.0977C211.274 71.0977 211.564 71.0521 211.796 70.9609C212.033 70.8698 212.213 70.7445 212.336 70.585C212.459 70.4255 212.521 70.2432 212.521 70.0381ZM217.52 64.6035V72H216.249V64.6035H217.52ZM216.153 62.6416C216.153 62.4365 216.215 62.2633 216.338 62.1221C216.465 61.9808 216.652 61.9102 216.898 61.9102C217.14 61.9102 217.324 61.9808 217.452 62.1221C217.584 62.2633 217.65 62.4365 217.65 62.6416C217.65 62.8376 217.584 63.0062 217.452 63.1475C217.324 63.2842 217.14 63.3525 216.898 63.3525C216.652 63.3525 216.465 63.2842 216.338 63.1475C216.215 63.0062 216.153 62.8376 216.153 62.6416ZM221.515 66.1826V72H220.251V64.6035H221.447L221.515 66.1826ZM221.214 68.0215L220.688 68.001C220.693 67.4951 220.768 67.028 220.914 66.5996C221.06 66.1667 221.265 65.7907 221.529 65.4717C221.793 65.1527 222.108 64.9066 222.472 64.7334C222.841 64.5557 223.249 64.4668 223.696 64.4668C224.061 64.4668 224.389 64.5169 224.68 64.6172C224.972 64.7129 225.22 64.8678 225.425 65.082C225.635 65.2962 225.795 65.5742 225.904 65.916C226.013 66.2533 226.068 66.6657 226.068 67.1533V72H224.797V67.1396C224.797 66.7523 224.74 66.4424 224.626 66.21C224.512 65.973 224.345 65.8021 224.127 65.6973C223.908 65.5879 223.639 65.5332 223.32 65.5332C223.005 65.5332 222.718 65.5993 222.459 65.7314C222.203 65.8636 221.982 66.0459 221.796 66.2783C221.613 66.5107 221.47 66.7773 221.365 67.0781C221.265 67.3743 221.214 67.6888 221.214 68.0215ZM231.758 72.1367C231.243 72.1367 230.776 72.0501 230.357 71.877C229.942 71.6992 229.584 71.4508 229.284 71.1318C228.987 70.8128 228.76 70.4346 228.6 69.9971C228.441 69.5596 228.361 69.0811 228.361 68.5615V68.2744C228.361 67.6729 228.45 67.1374 228.627 66.668C228.805 66.194 229.047 65.793 229.352 65.4648C229.657 65.1367 230.004 64.8883 230.391 64.7197C230.778 64.5511 231.179 64.4668 231.594 64.4668C232.123 64.4668 232.579 64.5579 232.961 64.7402C233.349 64.9225 233.665 65.1777 233.912 65.5059C234.158 65.8294 234.34 66.2122 234.458 66.6543C234.577 67.0918 234.636 67.5703 234.636 68.0898V68.6572H229.113V67.625H233.372V67.5293C233.353 67.2012 233.285 66.8822 233.166 66.5723C233.053 66.2624 232.87 66.0072 232.62 65.8066C232.369 65.6061 232.027 65.5059 231.594 65.5059C231.307 65.5059 231.043 65.5674 230.801 65.6904C230.56 65.8089 230.352 65.9867 230.179 66.2236C230.006 66.4606 229.872 66.75 229.776 67.0918C229.68 67.4336 229.632 67.8278 229.632 68.2744V68.5615C229.632 68.9124 229.68 69.2428 229.776 69.5527C229.876 69.8581 230.02 70.127 230.206 70.3594C230.398 70.5918 230.628 70.7741 230.897 70.9062C231.17 71.0384 231.48 71.1045 231.827 71.1045C232.273 71.1045 232.651 71.0133 232.961 70.8311C233.271 70.6488 233.542 70.4049 233.775 70.0996L234.54 70.708C234.381 70.9495 234.178 71.1797 233.932 71.3984C233.686 71.6172 233.383 71.7949 233.023 71.9316C232.667 72.0684 232.246 72.1367 231.758 72.1367ZM241.119 70.0381C241.119 69.8558 241.078 69.6872 240.996 69.5322C240.919 69.3727 240.757 69.2292 240.511 69.1016C240.269 68.9694 239.905 68.8555 239.417 68.7598C239.007 68.6732 238.636 68.5706 238.303 68.4521C237.975 68.3337 237.695 68.1901 237.462 68.0215C237.234 67.8529 237.059 67.6546 236.936 67.4268C236.813 67.1989 236.751 66.9323 236.751 66.627C236.751 66.3353 236.815 66.0596 236.943 65.7998C237.075 65.54 237.259 65.3099 237.496 65.1094C237.738 64.9089 238.027 64.7516 238.364 64.6377C238.702 64.5238 239.078 64.4668 239.492 64.4668C240.085 64.4668 240.591 64.5716 241.01 64.7812C241.429 64.9909 241.751 65.2712 241.974 65.6221C242.197 65.9684 242.309 66.3535 242.309 66.7773H241.044C241.044 66.5723 240.983 66.374 240.86 66.1826C240.741 65.9867 240.566 65.8249 240.333 65.6973C240.105 65.5697 239.825 65.5059 239.492 65.5059C239.142 65.5059 238.857 65.5605 238.638 65.6699C238.424 65.7747 238.267 65.9092 238.166 66.0732C238.071 66.2373 238.023 66.4105 238.023 66.5928C238.023 66.7295 238.045 66.8525 238.091 66.9619C238.141 67.0667 238.228 67.1647 238.351 67.2559C238.474 67.3424 238.647 67.4245 238.87 67.502C239.094 67.5794 239.378 67.6569 239.725 67.7344C240.331 67.8711 240.83 68.0352 241.222 68.2266C241.614 68.418 241.906 68.6527 242.097 68.9307C242.288 69.2087 242.384 69.5459 242.384 69.9424C242.384 70.266 242.316 70.5622 242.179 70.8311C242.047 71.0999 241.853 71.3324 241.598 71.5283C241.347 71.7197 241.046 71.8701 240.696 71.9795C240.349 72.0843 239.96 72.1367 239.527 72.1367C238.875 72.1367 238.323 72.0205 237.872 71.7881C237.421 71.5557 237.079 71.2549 236.847 70.8857C236.614 70.5166 236.498 70.127 236.498 69.7168H237.77C237.788 70.0632 237.888 70.3389 238.071 70.5439C238.253 70.7445 238.476 70.888 238.74 70.9746C239.005 71.0566 239.267 71.0977 239.527 71.0977C239.873 71.0977 240.162 71.0521 240.395 70.9609C240.632 70.8698 240.812 70.7445 240.935 70.585C241.058 70.4255 241.119 70.2432 241.119 70.0381ZM249.052 70.0381C249.052 69.8558 249.011 69.6872 248.929 69.5322C248.851 69.3727 248.689 69.2292 248.443 69.1016C248.202 68.9694 247.837 68.8555 247.35 68.7598C246.939 68.6732 246.568 68.5706 246.235 68.4521C245.907 68.3337 245.627 68.1901 245.395 68.0215C245.167 67.8529 244.991 67.6546 244.868 67.4268C244.745 67.1989 244.684 66.9323 244.684 66.627C244.684 66.3353 244.747 66.0596 244.875 65.7998C245.007 65.54 245.192 65.3099 245.429 65.1094C245.67 64.9089 245.96 64.7516 246.297 64.6377C246.634 64.5238 247.01 64.4668 247.425 64.4668C248.017 64.4668 248.523 64.5716 248.942 64.7812C249.362 64.9909 249.683 65.2712 249.906 65.6221C250.13 65.9684 250.241 66.3535 250.241 66.7773H248.977C248.977 66.5723 248.915 66.374 248.792 66.1826C248.674 65.9867 248.498 65.8249 248.266 65.6973C248.038 65.5697 247.758 65.5059 247.425 65.5059C247.074 65.5059 246.789 65.5605 246.57 65.6699C246.356 65.7747 246.199 65.9092 246.099 66.0732C246.003 66.2373 245.955 66.4105 245.955 66.5928C245.955 66.7295 245.978 66.8525 246.023 66.9619C246.074 67.0667 246.16 67.1647 246.283 67.2559C246.406 67.3424 246.579 67.4245 246.803 67.502C247.026 67.5794 247.311 67.6569 247.657 67.7344C248.263 67.8711 248.762 68.0352 249.154 68.2266C249.546 68.418 249.838 68.6527 250.029 68.9307C250.221 69.2087 250.316 69.5459 250.316 69.9424C250.316 70.266 250.248 70.5622 250.111 70.8311C249.979 71.0999 249.786 71.3324 249.53 71.5283C249.28 71.7197 248.979 71.8701 248.628 71.9795C248.282 72.0843 247.892 72.1367 247.459 72.1367C246.807 72.1367 246.256 72.0205 245.805 71.7881C245.354 71.5557 245.012 71.2549 244.779 70.8857C244.547 70.5166 244.431 70.127 244.431 69.7168H245.702C245.72 70.0632 245.821 70.3389 246.003 70.5439C246.185 70.7445 246.409 70.888 246.673 70.9746C246.937 71.0566 247.199 71.0977 247.459 71.0977C247.805 71.0977 248.095 71.0521 248.327 70.9609C248.564 70.8698 248.744 70.7445 248.867 70.585C248.99 70.4255 249.052 70.2432 249.052 70.0381ZM114.563 84.0469H117.858C118.605 84.0469 119.236 84.1608 119.751 84.3887C120.271 84.6165 120.665 84.9538 120.934 85.4004C121.207 85.8424 121.344 86.387 121.344 87.0342C121.344 87.4899 121.251 87.9069 121.064 88.2852C120.882 88.6589 120.617 88.9779 120.271 89.2422C119.929 89.502 119.519 89.6956 119.04 89.8232L118.671 89.9668H115.575L115.561 88.8936H117.899C118.373 88.8936 118.767 88.8115 119.081 88.6475C119.396 88.4788 119.633 88.2533 119.792 87.9707C119.952 87.6882 120.032 87.376 120.032 87.0342C120.032 86.6514 119.956 86.3164 119.806 86.0293C119.656 85.7422 119.419 85.5212 119.095 85.3662C118.776 85.2067 118.364 85.127 117.858 85.127H115.882V94H114.563V84.0469ZM120.38 94L117.96 89.4883L119.334 89.4814L121.789 93.918V94H120.38ZM126.768 94.1367C126.253 94.1367 125.786 94.0501 125.366 93.877C124.952 93.6992 124.594 93.4508 124.293 93.1318C123.997 92.8128 123.769 92.4346 123.61 91.9971C123.45 91.5596 123.37 91.0811 123.37 90.5615V90.2744C123.37 89.6729 123.459 89.1374 123.637 88.668C123.815 88.194 124.056 87.793 124.362 87.4648C124.667 87.1367 125.013 86.8883 125.401 86.7197C125.788 86.5511 126.189 86.4668 126.604 86.4668C127.132 86.4668 127.588 86.5579 127.971 86.7402C128.358 86.9225 128.675 87.1777 128.921 87.5059C129.167 87.8294 129.35 88.2122 129.468 88.6543C129.586 89.0918 129.646 89.5703 129.646 90.0898V90.6572H124.122V89.625H128.381V89.5293C128.363 89.2012 128.295 88.8822 128.176 88.5723C128.062 88.2624 127.88 88.0072 127.629 87.8066C127.378 87.6061 127.037 87.5059 126.604 87.5059C126.317 87.5059 126.052 87.5674 125.811 87.6904C125.569 87.8089 125.362 87.9867 125.189 88.2236C125.016 88.4606 124.881 88.75 124.785 89.0918C124.69 89.4336 124.642 89.8278 124.642 90.2744V90.5615C124.642 90.9124 124.69 91.2428 124.785 91.5527C124.886 91.8581 125.029 92.127 125.216 92.3594C125.407 92.5918 125.638 92.7741 125.906 92.9062C126.18 93.0384 126.49 93.1045 126.836 93.1045C127.283 93.1045 127.661 93.0133 127.971 92.8311C128.281 92.6488 128.552 92.4049 128.784 92.0996L129.55 92.708C129.391 92.9495 129.188 93.1797 128.942 93.3984C128.696 93.6172 128.392 93.7949 128.032 93.9316C127.677 94.0684 127.255 94.1367 126.768 94.1367ZM133.976 92.8584L135.999 86.6035H137.291L134.632 94H133.784L133.976 92.8584ZM132.287 86.6035L134.372 92.8926L134.516 94H133.668L130.988 86.6035H132.287ZM140.582 86.6035V94H139.31V86.6035H140.582ZM139.215 84.6416C139.215 84.4365 139.276 84.2633 139.399 84.1221C139.527 83.9808 139.714 83.9102 139.96 83.9102C140.201 83.9102 140.386 83.9808 140.514 84.1221C140.646 84.2633 140.712 84.4365 140.712 84.6416C140.712 84.8376 140.646 85.0062 140.514 85.1475C140.386 85.2842 140.201 85.3525 139.96 85.3525C139.714 85.3525 139.527 85.2842 139.399 85.1475C139.276 85.0062 139.215 84.8376 139.215 84.6416ZM146.381 94.1367C145.867 94.1367 145.399 94.0501 144.98 93.877C144.565 93.6992 144.208 93.4508 143.907 93.1318C143.611 92.8128 143.383 92.4346 143.223 91.9971C143.064 91.5596 142.984 91.0811 142.984 90.5615V90.2744C142.984 89.6729 143.073 89.1374 143.251 88.668C143.428 88.194 143.67 87.793 143.975 87.4648C144.281 87.1367 144.627 86.8883 145.014 86.7197C145.402 86.5511 145.803 86.4668 146.217 86.4668C146.746 86.4668 147.202 86.5579 147.585 86.7402C147.972 86.9225 148.289 87.1777 148.535 87.5059C148.781 87.8294 148.963 88.2122 149.082 88.6543C149.2 89.0918 149.259 89.5703 149.259 90.0898V90.6572H143.736V89.625H147.995V89.5293C147.977 89.2012 147.908 88.8822 147.79 88.5723C147.676 88.2624 147.493 88.0072 147.243 87.8066C146.992 87.6061 146.65 87.5059 146.217 87.5059C145.93 87.5059 145.666 87.5674 145.424 87.6904C145.183 87.8089 144.976 87.9867 144.802 88.2236C144.629 88.4606 144.495 88.75 144.399 89.0918C144.303 89.4336 144.256 89.8278 144.256 90.2744V90.5615C144.256 90.9124 144.303 91.2428 144.399 91.5527C144.499 91.8581 144.643 92.127 144.83 92.3594C145.021 92.5918 145.251 92.7741 145.52 92.9062C145.794 93.0384 146.103 93.1045 146.45 93.1045C146.896 93.1045 147.275 93.0133 147.585 92.8311C147.895 92.6488 148.166 92.4049 148.398 92.0996L149.164 92.708C149.004 92.9495 148.801 93.1797 148.555 93.3984C148.309 93.6172 148.006 93.7949 147.646 93.9316C147.291 94.0684 146.869 94.1367 146.381 94.1367ZM153.309 92.6875L155.209 86.6035H156.043L155.879 87.8135L153.945 94H153.131L153.309 92.6875ZM152.031 86.6035L153.651 92.7559L153.767 94H152.913L150.766 86.6035H152.031ZM157.862 92.708L159.407 86.6035H160.664L158.518 94H157.67L157.862 92.708ZM156.228 86.6035L158.087 92.585L158.299 94H157.493L155.503 87.7998L155.339 86.6035H156.228ZM170.712 84.9287L167.417 94H166.07L169.864 84.0469H170.732L170.712 84.9287ZM173.474 94L170.172 84.9287L170.151 84.0469H171.02L174.827 94H173.474ZM173.303 90.3154V91.3955H167.711V90.3154H173.303ZM178.309 92.6875L180.21 86.6035H181.044L180.88 87.8135L178.945 94H178.132L178.309 92.6875ZM177.031 86.6035L178.651 92.7559L178.767 94H177.913L175.766 86.6035H177.031ZM182.862 92.708L184.407 86.6035H185.665L183.518 94H182.671L182.862 92.708ZM181.228 86.6035L183.088 92.585L183.3 94H182.493L180.504 87.7998L180.34 86.6035H181.228ZM192.025 92.7354V88.9277C192.025 88.6361 191.966 88.3831 191.847 88.1689C191.733 87.9502 191.56 87.7816 191.328 87.6631C191.095 87.5446 190.808 87.4854 190.466 87.4854C190.147 87.4854 189.867 87.54 189.626 87.6494C189.389 87.7588 189.202 87.9023 189.065 88.0801C188.933 88.2578 188.867 88.4492 188.867 88.6543H187.602C187.602 88.39 187.671 88.1279 187.807 87.8682C187.944 87.6084 188.14 87.3737 188.395 87.1641C188.655 86.9499 188.965 86.7812 189.325 86.6582C189.689 86.5306 190.095 86.4668 190.542 86.4668C191.079 86.4668 191.553 86.5579 191.964 86.7402C192.378 86.9225 192.702 87.1982 192.934 87.5674C193.171 87.932 193.29 88.39 193.29 88.9414V92.3867C193.29 92.6328 193.31 92.8949 193.351 93.1729C193.397 93.4508 193.463 93.6901 193.549 93.8906V94H192.23C192.166 93.8542 192.116 93.6605 192.08 93.4189C192.043 93.1729 192.025 92.945 192.025 92.7354ZM192.244 89.5156L192.257 90.4043H190.979C190.619 90.4043 190.298 90.4339 190.015 90.4932C189.733 90.5479 189.496 90.6322 189.304 90.7461C189.113 90.86 188.967 91.0036 188.867 91.1768C188.767 91.3454 188.716 91.5436 188.716 91.7715C188.716 92.0039 188.769 92.2158 188.874 92.4072C188.978 92.5986 189.136 92.7513 189.345 92.8652C189.56 92.9746 189.822 93.0293 190.131 93.0293C190.519 93.0293 190.861 92.9473 191.157 92.7832C191.453 92.6191 191.688 92.4186 191.861 92.1816C192.039 91.9447 192.134 91.7145 192.148 91.4912L192.688 92.0996C192.656 92.291 192.57 92.5029 192.428 92.7354C192.287 92.9678 192.098 93.1911 191.861 93.4053C191.629 93.6149 191.351 93.7904 191.027 93.9316C190.708 94.0684 190.348 94.1367 189.947 94.1367C189.446 94.1367 189.006 94.0387 188.628 93.8428C188.254 93.6468 187.962 93.3848 187.753 93.0566C187.548 92.724 187.445 92.3525 187.445 91.9424C187.445 91.5459 187.522 91.1973 187.677 90.8965C187.832 90.5911 188.056 90.3382 188.347 90.1377C188.639 89.9326 188.99 89.7777 189.4 89.6729C189.81 89.568 190.268 89.5156 190.774 89.5156H192.244ZM197.244 87.7656V94H195.979V86.6035H197.209L197.244 87.7656ZM199.554 86.5625L199.547 87.7383C199.442 87.7155 199.342 87.7018 199.247 87.6973C199.155 87.6882 199.051 87.6836 198.932 87.6836C198.64 87.6836 198.383 87.7292 198.16 87.8203C197.936 87.9115 197.747 88.0391 197.592 88.2031C197.437 88.3672 197.314 88.5632 197.223 88.791C197.136 89.0143 197.08 89.2604 197.052 89.5293L196.697 89.7344C196.697 89.2878 196.74 88.8685 196.827 88.4766C196.918 88.0846 197.057 87.7383 197.244 87.4375C197.43 87.1322 197.667 86.8952 197.955 86.7266C198.246 86.5534 198.593 86.4668 198.994 86.4668C199.085 86.4668 199.19 86.4782 199.308 86.501C199.427 86.5192 199.509 86.5397 199.554 86.5625ZM205.948 92.5645V83.5H207.22V94H206.058L205.948 92.5645ZM200.972 90.3838V90.2402C200.972 89.6751 201.04 89.1624 201.177 88.7021C201.318 88.2373 201.517 87.8385 201.772 87.5059C202.031 87.1732 202.339 86.918 202.695 86.7402C203.055 86.5579 203.456 86.4668 203.898 86.4668C204.363 86.4668 204.768 86.5488 205.114 86.7129C205.465 86.8724 205.762 87.1071 206.003 87.417C206.249 87.7223 206.443 88.0915 206.584 88.5244C206.725 88.9574 206.823 89.4473 206.878 89.9941V90.623C206.828 91.1654 206.73 91.653 206.584 92.0859C206.443 92.5189 206.249 92.888 206.003 93.1934C205.762 93.4987 205.465 93.7334 205.114 93.8975C204.764 94.057 204.353 94.1367 203.884 94.1367C203.451 94.1367 203.055 94.0433 202.695 93.8564C202.339 93.6696 202.031 93.4076 201.772 93.0703C201.517 92.7331 201.318 92.3366 201.177 91.8809C201.04 91.4206 200.972 90.9215 200.972 90.3838ZM202.243 90.2402V90.3838C202.243 90.7529 202.28 91.0993 202.353 91.4229C202.43 91.7464 202.549 92.0312 202.708 92.2773C202.868 92.5234 203.071 92.7171 203.317 92.8584C203.563 92.9951 203.857 93.0635 204.198 93.0635C204.618 93.0635 204.962 92.9746 205.231 92.7969C205.504 92.6191 205.723 92.3844 205.887 92.0928C206.051 91.8011 206.179 91.4844 206.27 91.1426V89.4951C206.215 89.2445 206.135 89.0029 206.031 88.7705C205.93 88.5335 205.798 88.3239 205.634 88.1416C205.475 87.9548 205.276 87.8066 205.039 87.6973C204.807 87.5879 204.531 87.5332 204.212 87.5332C203.866 87.5332 203.567 87.6061 203.317 87.752C203.071 87.8932 202.868 88.0892 202.708 88.3398C202.549 88.5859 202.43 88.873 202.353 89.2012C202.28 89.5247 202.243 89.8711 202.243 90.2402ZM214.67 84.0469H215.948L219.209 92.1611L222.463 84.0469H223.748L219.701 94H218.703L214.67 84.0469ZM214.253 84.0469H215.381L215.565 90.1172V94H214.253V84.0469ZM223.03 84.0469H224.158V94H222.846V90.1172L223.03 84.0469ZM231.345 92.7354V88.9277C231.345 88.6361 231.286 88.3831 231.168 88.1689C231.054 87.9502 230.881 87.7816 230.648 87.6631C230.416 87.5446 230.129 87.4854 229.787 87.4854C229.468 87.4854 229.187 87.54 228.946 87.6494C228.709 87.7588 228.522 87.9023 228.385 88.0801C228.253 88.2578 228.187 88.4492 228.187 88.6543H226.923C226.923 88.39 226.991 88.1279 227.128 87.8682C227.264 87.6084 227.46 87.3737 227.715 87.1641C227.975 86.9499 228.285 86.7812 228.645 86.6582C229.01 86.5306 229.415 86.4668 229.862 86.4668C230.4 86.4668 230.874 86.5579 231.284 86.7402C231.699 86.9225 232.022 87.1982 232.255 87.5674C232.492 87.932 232.61 88.39 232.61 88.9414V92.3867C232.61 92.6328 232.631 92.8949 232.672 93.1729C232.717 93.4508 232.783 93.6901 232.87 93.8906V94H231.55C231.487 93.8542 231.436 93.6605 231.4 93.4189C231.364 93.1729 231.345 92.945 231.345 92.7354ZM231.564 89.5156L231.578 90.4043H230.299C229.939 90.4043 229.618 90.4339 229.336 90.4932C229.053 90.5479 228.816 90.6322 228.625 90.7461C228.433 90.86 228.287 91.0036 228.187 91.1768C228.087 91.3454 228.037 91.5436 228.037 91.7715C228.037 92.0039 228.089 92.2158 228.194 92.4072C228.299 92.5986 228.456 92.7513 228.666 92.8652C228.88 92.9746 229.142 93.0293 229.452 93.0293C229.839 93.0293 230.181 92.9473 230.477 92.7832C230.773 92.6191 231.008 92.4186 231.181 92.1816C231.359 91.9447 231.455 91.7145 231.468 91.4912L232.008 92.0996C231.977 92.291 231.89 92.5029 231.749 92.7354C231.607 92.9678 231.418 93.1911 231.181 93.4053C230.949 93.6149 230.671 93.7904 230.347 93.9316C230.028 94.0684 229.668 94.1367 229.267 94.1367C228.766 94.1367 228.326 94.0387 227.948 93.8428C227.574 93.6468 227.283 93.3848 227.073 93.0566C226.868 92.724 226.765 92.3525 226.765 91.9424C226.765 91.5459 226.843 91.1973 226.998 90.8965C227.153 90.5911 227.376 90.3382 227.668 90.1377C227.959 89.9326 228.31 89.7777 228.72 89.6729C229.131 89.568 229.589 89.5156 230.094 89.5156H231.564ZM240.091 86.6035H241.24V93.8428C241.24 94.4945 241.108 95.0505 240.843 95.5107C240.579 95.971 240.21 96.3197 239.736 96.5566C239.266 96.7982 238.724 96.9189 238.109 96.9189C237.854 96.9189 237.553 96.8779 237.206 96.7959C236.865 96.7184 236.527 96.584 236.195 96.3926C235.867 96.2057 235.591 95.9528 235.368 95.6338L236.031 94.8818C236.341 95.2555 236.664 95.5153 237.001 95.6611C237.343 95.807 237.68 95.8799 238.013 95.8799C238.414 95.8799 238.761 95.8047 239.052 95.6543C239.344 95.5039 239.569 95.2806 239.729 94.9844C239.893 94.6927 239.975 94.3327 239.975 93.9043V88.2305L240.091 86.6035ZM234.998 90.3838V90.2402C234.998 89.6751 235.065 89.1624 235.197 88.7021C235.333 88.2373 235.527 87.8385 235.778 87.5059C236.033 87.1732 236.341 86.918 236.701 86.7402C237.061 86.5579 237.466 86.4668 237.917 86.4668C238.382 86.4668 238.788 86.5488 239.134 86.7129C239.485 86.8724 239.781 87.1071 240.023 87.417C240.269 87.7223 240.463 88.0915 240.604 88.5244C240.745 88.9574 240.843 89.4473 240.898 89.9941V90.623C240.848 91.1654 240.75 91.653 240.604 92.0859C240.463 92.5189 240.269 92.888 240.023 93.1934C239.781 93.4987 239.485 93.7334 239.134 93.8975C238.783 94.057 238.373 94.1367 237.904 94.1367C237.462 94.1367 237.061 94.0433 236.701 93.8564C236.345 93.6696 236.04 93.4076 235.785 93.0703C235.529 92.7331 235.333 92.3366 235.197 91.8809C235.065 91.4206 234.998 90.9215 234.998 90.3838ZM236.263 90.2402V90.3838C236.263 90.7529 236.3 91.0993 236.372 91.4229C236.45 91.7464 236.566 92.0312 236.721 92.2773C236.881 92.5234 237.083 92.7171 237.33 92.8584C237.576 92.9951 237.87 93.0635 238.211 93.0635C238.631 93.0635 238.977 92.9746 239.25 92.7969C239.524 92.6191 239.74 92.3844 239.9 92.0928C240.064 91.8011 240.192 91.4844 240.283 91.1426V89.4951C240.233 89.2445 240.155 89.0029 240.05 88.7705C239.95 88.5335 239.818 88.3239 239.654 88.1416C239.494 87.9548 239.296 87.8066 239.059 87.6973C238.822 87.5879 238.544 87.5332 238.225 87.5332C237.879 87.5332 237.58 87.6061 237.33 87.752C237.083 87.8932 236.881 88.0892 236.721 88.3398C236.566 88.5859 236.45 88.873 236.372 89.2012C236.3 89.5247 236.263 89.8711 236.263 90.2402ZM248.222 92.7354V88.9277C248.222 88.6361 248.163 88.3831 248.044 88.1689C247.93 87.9502 247.757 87.7816 247.525 87.6631C247.292 87.5446 247.005 87.4854 246.663 87.4854C246.344 87.4854 246.064 87.54 245.822 87.6494C245.586 87.7588 245.399 87.9023 245.262 88.0801C245.13 88.2578 245.064 88.4492 245.064 88.6543H243.799C243.799 88.39 243.867 88.1279 244.004 87.8682C244.141 87.6084 244.337 87.3737 244.592 87.1641C244.852 86.9499 245.162 86.7812 245.522 86.6582C245.886 86.5306 246.292 86.4668 246.739 86.4668C247.276 86.4668 247.75 86.5579 248.16 86.7402C248.575 86.9225 248.899 87.1982 249.131 87.5674C249.368 87.932 249.487 88.39 249.487 88.9414V92.3867C249.487 92.6328 249.507 92.8949 249.548 93.1729C249.594 93.4508 249.66 93.6901 249.746 93.8906V94H248.427C248.363 93.8542 248.313 93.6605 248.277 93.4189C248.24 93.1729 248.222 92.945 248.222 92.7354ZM248.441 89.5156L248.454 90.4043H247.176C246.816 90.4043 246.495 90.4339 246.212 90.4932C245.93 90.5479 245.693 90.6322 245.501 90.7461C245.31 90.86 245.164 91.0036 245.064 91.1768C244.963 91.3454 244.913 91.5436 244.913 91.7715C244.913 92.0039 244.966 92.2158 245.071 92.4072C245.175 92.5986 245.333 92.7513 245.542 92.8652C245.756 92.9746 246.018 93.0293 246.328 93.0293C246.716 93.0293 247.058 92.9473 247.354 92.7832C247.65 92.6191 247.885 92.4186 248.058 92.1816C248.236 91.9447 248.331 91.7145 248.345 91.4912L248.885 92.0996C248.853 92.291 248.767 92.5029 248.625 92.7354C248.484 92.9678 248.295 93.1911 248.058 93.4053C247.825 93.6149 247.547 93.7904 247.224 93.9316C246.905 94.0684 246.545 94.1367 246.144 94.1367C245.642 94.1367 245.203 94.0387 244.824 93.8428C244.451 93.6468 244.159 93.3848 243.949 93.0566C243.744 92.724 243.642 92.3525 243.642 91.9424C243.642 91.5459 243.719 91.1973 243.874 90.8965C244.029 90.5911 244.253 90.3382 244.544 90.1377C244.836 89.9326 245.187 89.7777 245.597 89.6729C246.007 89.568 246.465 89.5156 246.971 89.5156H248.441ZM257.686 92.9609V94H252.306V92.9609H257.686ZM257.487 87.499L252.593 94H251.82V93.0703L256.681 86.6035H257.487V87.499ZM256.927 86.6035V87.6494H251.875V86.6035H256.927ZM261.195 86.6035V94H259.924V86.6035H261.195ZM259.828 84.6416C259.828 84.4365 259.889 84.2633 260.013 84.1221C260.14 83.9808 260.327 83.9102 260.573 83.9102C260.815 83.9102 260.999 83.9808 261.127 84.1221C261.259 84.2633 261.325 84.4365 261.325 84.6416C261.325 84.8376 261.259 85.0062 261.127 85.1475C260.999 85.2842 260.815 85.3525 260.573 85.3525C260.327 85.3525 260.14 85.2842 260.013 85.1475C259.889 85.0062 259.828 84.8376 259.828 84.6416ZM265.19 88.1826V94H263.925V86.6035H265.122L265.19 88.1826ZM264.889 90.0215L264.363 90.001C264.367 89.4951 264.443 89.028 264.589 88.5996C264.734 88.1667 264.939 87.7907 265.204 87.4717C265.468 87.1527 265.783 86.9066 266.147 86.7334C266.516 86.5557 266.924 86.4668 267.371 86.4668C267.735 86.4668 268.063 86.5169 268.355 86.6172C268.647 86.7129 268.895 86.8678 269.1 87.082C269.31 87.2962 269.469 87.5742 269.579 87.916C269.688 88.2533 269.743 88.6657 269.743 89.1533V94H268.471V89.1396C268.471 88.7523 268.414 88.4424 268.3 88.21C268.186 87.973 268.02 87.8021 267.801 87.6973C267.583 87.5879 267.314 87.5332 266.995 87.5332C266.68 87.5332 266.393 87.5993 266.133 87.7314C265.878 87.8636 265.657 88.0459 265.47 88.2783C265.288 88.5107 265.145 88.7773 265.04 89.0781C264.939 89.3743 264.889 89.6888 264.889 90.0215ZM275.433 94.1367C274.918 94.1367 274.451 94.0501 274.032 93.877C273.617 93.6992 273.259 93.4508 272.958 93.1318C272.662 92.8128 272.434 92.4346 272.275 91.9971C272.115 91.5596 272.036 91.0811 272.036 90.5615V90.2744C272.036 89.6729 272.124 89.1374 272.302 88.668C272.48 88.194 272.721 87.793 273.027 87.4648C273.332 87.1367 273.678 86.8883 274.066 86.7197C274.453 86.5511 274.854 86.4668 275.269 86.4668C275.798 86.4668 276.253 86.5579 276.636 86.7402C277.024 86.9225 277.34 87.1777 277.586 87.5059C277.832 87.8294 278.015 88.2122 278.133 88.6543C278.252 89.0918 278.311 89.5703 278.311 90.0898V90.6572H272.788V89.625H277.046V89.5293C277.028 89.2012 276.96 88.8822 276.841 88.5723C276.727 88.2624 276.545 88.0072 276.294 87.8066C276.044 87.6061 275.702 87.5059 275.269 87.5059C274.982 87.5059 274.718 87.5674 274.476 87.6904C274.234 87.8089 274.027 87.9867 273.854 88.2236C273.681 88.4606 273.546 88.75 273.451 89.0918C273.355 89.4336 273.307 89.8278 273.307 90.2744V90.5615C273.307 90.9124 273.355 91.2428 273.451 91.5527C273.551 91.8581 273.694 92.127 273.881 92.3594C274.073 92.5918 274.303 92.7741 274.572 92.9062C274.845 93.0384 275.155 93.1045 275.501 93.1045C275.948 93.1045 276.326 93.0133 276.636 92.8311C276.946 92.6488 277.217 92.4049 277.45 92.0996L278.215 92.708C278.056 92.9495 277.853 93.1797 277.607 93.3984C277.361 93.6172 277.058 93.7949 276.698 93.9316C276.342 94.0684 275.921 94.1367 275.433 94.1367Z" fill="#EBEDF0"/>
<path d="M378.173 73.6931C375.957 74.6916 374.098 76.0782 372.643 77.4158C374.275 74.6162 375.614 71.6773 376.654 68.646C378.553 68.1317 382.941 66.6433 386.399 63.1938C390.939 58.6629 392.226 52.4817 392.226 52.4817C392.226 52.4817 386.074 53.629 381.533 58.1618C380.224 59.4674 379.187 60.9105 378.372 62.3027C378.857 59.895 379.163 57.4534 379.289 55.0024C379.313 55.123 379.328 55.1908 379.328 55.1908C379.328 55.1908 384.372 51.502 386.65 45.4941C388.827 39.4485 387.401 33.352 387.401 33.352C387.401 33.352 382.325 36.9711 380.079 43.0487C379.569 44.4674 379.259 45.8879 379.078 47.233C378.686 43.5292 377.873 39.8573 376.631 36.3023C377.242 35.7202 381.326 31.6565 382.791 25.901C384.376 19.6746 382.237 13.7759 382.237 13.7759C382.237 13.7759 377.584 18.0261 375.999 24.2526C374.883 28.6309 375.612 32.8453 376.141 34.9628C374.71 31.227 372.797 27.6324 370.389 24.2733C370.761 23.0638 372.17 17.8434 370.718 12.4044C369.062 6.19678 364.357 2.00122 364.357 2.00122C364.357 2.00122 362.288 7.92625 363.944 14.132C364.421 15.918 365.15 17.5344 365.946 18.9342C364.962 17.9112 363.922 16.9183 362.825 15.9632C363.015 15.933 363.116 15.9123 363.116 15.9123C363.116 15.9123 359.582 10.6881 353.663 8.23145C347.744 5.77478 341.62 7.0634 341.62 7.0634C341.62 7.0634 345.154 12.2876 351.073 14.7443C356.021 16.7299 361.041 16.225 362.613 15.9952C366.001 19.2224 368.816 22.7755 371.079 26.5453C370.874 26.3193 370.665 26.0932 370.448 25.8746C365.845 21.404 359.719 20.2058 359.719 20.2058C359.719 20.2058 361.004 26.3343 365.529 30.8841C369.223 34.473 373.895 35.9519 375.599 36.3965C377.454 41.9994 378.269 47.8415 378.083 53.6328C377.995 53.0676 377.88 52.4968 377.734 51.9221C376.047 45.7221 371.386 41.5567 371.386 41.5567C371.386 41.5567 369.31 47.4459 370.956 53.7138C372.292 58.6234 375.49 62.2537 376.765 63.5537C375.507 68.8796 373.371 74.0096 370.391 78.6987C370.966 77.2067 371.441 75.513 371.648 73.695C372.301 67.282 369.454 61.7583 369.454 61.7583C369.454 61.7583 365.42 66.6038 364.695 72.9885C364.145 77.8378 365.696 82.2067 366.474 84.0266C364.17 86.7489 361.529 89.2564 358.566 91.4889C356.919 92.4516 355.79 93.354 355.389 93.6931C355.319 93.7383 355.248 93.7817 355.178 93.825C355.375 93.6498 355.571 93.4727 355.762 93.2862C360.331 88.7553 361.638 82.6758 361.638 82.6758C361.638 82.6758 355.452 83.84 350.846 88.3031C346.688 92.331 345.25 97.7285 345.007 98.744C340.179 100.421 335.094 101.351 330.012 101.819C328.718 101.917 327.415 102.003 326.116 101.901C327.411 102.045 328.718 102.003 330.02 101.947C333.937 101.775 337.794 101.071 341.614 100.219C345.437 99.345 349.176 98.0168 352.681 96.2308C353.894 95.6091 355.067 94.9478 356.202 94.2489C358.083 94.9742 362.44 96.3325 367.189 95.6223C373.524 94.6728 378.211 90.4603 378.211 90.4603C378.211 90.4603 372.577 87.7266 366.243 88.6743C364.911 88.874 363.655 89.2187 362.498 89.637C365.261 87.2519 367.693 84.6087 369.787 81.7696C371.657 81.9655 376.406 82.1822 380.964 80.1287C386.806 77.4949 390.181 72.1652 390.181 72.1652C390.181 72.1652 384.019 71.065 378.179 73.6987L378.173 73.6931Z" fill="#EBEDF0"/>
</svg>
