<svg width="394" height="101" viewBox="0 0 394 101" fill="none" xmlns="http://www.w3.org/2000/svg">
<path d="M63.1441 100.643C58.0625 100.178 52.9771 99.2473 48.149 97.5687C47.9086 96.5533 46.4701 91.1557 42.3106 87.1278C37.7022 82.6648 31.5182 81.5005 31.5182 81.5005C31.5182 81.5005 32.8252 87.58 37.3942 92.1109C37.5857 92.2955 37.781 92.4745 37.9782 92.6478C37.9087 92.6045 37.8374 92.5593 37.7679 92.5159C37.3641 92.1768 36.2374 91.2744 34.5923 90.3136C31.6271 88.083 28.9886 85.5736 26.6826 82.8513C27.46 81.0314 29.0112 76.6644 28.461 71.8132C27.7361 65.4285 23.7023 60.583 23.7023 60.583C23.7023 60.583 20.8554 66.1086 21.5089 72.5197C21.7155 74.3377 22.1906 76.0314 22.7634 77.5235C19.7831 72.8343 17.6479 67.7062 16.3897 62.3803C17.6648 61.0803 20.8629 57.45 22.1981 52.5404C23.845 46.2725 21.7681 40.3833 21.7681 40.3833C21.7681 40.3833 17.1071 44.5468 15.4207 50.7487C15.2743 51.3234 15.1597 51.8961 15.0714 52.4613C14.8855 46.67 15.7005 40.8279 17.5559 35.2231C19.2573 34.7785 23.9314 33.2996 27.6253 29.7107C32.151 25.1609 33.4355 19.0324 33.4355 19.0324C33.4355 19.0324 27.3079 20.2287 22.707 24.7012C22.4892 24.9217 22.2807 25.144 22.076 25.37C24.3371 21.6021 27.1539 18.049 30.5398 14.8218C32.1116 15.0516 37.1313 15.5547 42.0796 13.5709C47.9988 11.1142 51.533 5.88999 51.533 5.88999C51.533 5.88999 45.4091 4.60325 39.4899 7.05804C33.5708 9.51471 30.0365 14.7389 30.0365 14.7389C30.0365 14.7389 30.1398 14.7596 30.3276 14.7898C29.2328 15.7449 28.1924 16.7359 27.2084 17.7589C28.0046 16.3591 28.7332 14.7427 29.2084 12.9567C30.8647 6.74907 28.7952 0.825928 28.7952 0.825928C28.7952 0.825928 24.0929 5.02149 22.4347 11.2291C20.9831 16.6662 22.3915 21.8866 22.7634 23.098C20.3578 26.4571 18.4423 30.0535 17.0113 33.7894C17.5409 31.6719 18.2676 27.4575 17.154 23.0773C15.5691 16.8508 10.9156 12.6006 10.9156 12.6006C10.9156 12.6006 8.77668 18.5012 10.3616 24.7257C11.8264 30.4812 15.9127 34.5449 16.5212 35.127C15.2799 38.6839 14.4667 42.3539 14.0743 46.0596C13.8959 44.7145 13.5841 43.294 13.0733 41.8735C10.8274 35.7958 5.75136 32.1768 5.75136 32.1768C5.75136 32.1768 4.32602 38.2732 6.50252 44.3188C8.78231 50.3267 13.8245 54.0155 13.8245 54.0155C13.8245 54.0155 13.8395 53.9477 13.8639 53.8252C13.9898 56.2763 14.2959 58.7179 14.7804 61.1274C13.9653 59.7352 12.9287 58.2921 11.6198 56.9865C7.07904 52.4556 0.927002 51.3064 0.927002 51.3064C0.927002 51.3064 2.21337 57.4876 6.75416 62.0185C10.2114 65.4681 14.6001 66.9564 16.4987 67.4707C17.539 70.502 18.878 73.4409 20.5099 76.2405C19.0545 74.9048 17.1935 73.5182 14.9794 72.5197C9.13723 69.8859 2.97768 70.9862 2.97768 70.9862C2.97768 70.9862 6.35229 76.3158 12.1945 78.9496C16.7503 81.005 21.5014 80.7865 23.3718 80.5905C25.4657 83.4296 27.8976 86.0747 30.66 88.4579C29.5032 88.0397 28.2469 87.6949 26.9154 87.4952C20.5812 86.5457 14.9475 89.2812 14.9475 89.2812C14.9475 89.2812 19.6348 93.4937 25.969 94.4432C30.7201 95.1554 35.0768 93.7952 36.9566 93.0698C38.0909 93.7688 39.2627 94.4319 40.4777 95.0517C43.98 96.8377 47.7189 98.1659 51.5442 99.0401C55.3639 99.8897 59.2212 100.596 63.1385 100.768C64.4399 100.824 65.7469 100.868 67.0427 100.722C65.745 100.824 64.4417 100.738 63.146 100.64L63.1441 100.643Z" fill="#EBEDF0"/>
<path d="M96.6286 27.583H92.9763L92.9567 25.5713H96.0231C96.5635 25.5713 97.0062 25.5029 97.3513 25.3662C97.6963 25.223 97.9535 25.0179 98.1227 24.751C98.2985 24.4775 98.3864 24.1455 98.3864 23.7549C98.3864 23.3122 98.3018 22.9541 98.1325 22.6807C97.9697 22.4072 97.7126 22.2087 97.361 22.085C97.016 21.9613 96.57 21.8994 96.0231 21.8994H93.9919V33.8232H91.0622V19.6045H96.0231C96.85 19.6045 97.5889 19.6826 98.2399 19.8389C98.8975 19.9951 99.4541 20.2327 99.9099 20.5518C100.366 20.8708 100.714 21.2744 100.955 21.7627C101.196 22.2445 101.316 22.8174 101.316 23.4814C101.316 24.0674 101.183 24.6077 100.916 25.1025C100.655 25.5973 100.242 26.001 99.6755 26.3135C99.1156 26.626 98.3832 26.7985 97.4782 26.8311L96.6286 27.583ZM96.5016 33.8232H92.1755L93.3181 31.5381H96.5016C97.016 31.5381 97.4359 31.4567 97.7614 31.2939C98.0869 31.1247 98.3278 30.8968 98.4841 30.6104C98.6403 30.3239 98.7184 29.9951 98.7184 29.624C98.7184 29.2074 98.6468 28.846 98.5036 28.54C98.3669 28.234 98.1455 27.9997 97.8395 27.8369C97.5335 27.6676 97.1299 27.583 96.6286 27.583H93.8063L93.8259 25.5713H97.3415L98.0153 26.3623C98.8812 26.3493 99.5778 26.5023 100.105 26.8213C100.639 27.1338 101.026 27.5407 101.267 28.042C101.515 28.5433 101.638 29.0804 101.638 29.6533C101.638 30.5648 101.44 31.333 101.043 31.958C100.646 32.5765 100.063 33.042 99.2946 33.3545C98.5329 33.667 97.6019 33.8232 96.5016 33.8232ZM109.123 34.0186C108.303 34.0186 107.567 33.8883 106.916 33.6279C106.265 33.361 105.712 32.9932 105.256 32.5244C104.807 32.0557 104.462 31.512 104.221 30.8936C103.98 30.2686 103.859 29.6045 103.859 28.9014V28.5107C103.859 27.71 103.973 26.9775 104.201 26.3135C104.429 25.6494 104.755 25.0732 105.178 24.585C105.608 24.0967 106.128 23.7223 106.74 23.4619C107.352 23.195 108.042 23.0615 108.811 23.0615C109.559 23.0615 110.223 23.1852 110.803 23.4326C111.382 23.68 111.867 24.0316 112.258 24.4873C112.655 24.943 112.955 25.4899 113.156 26.1279C113.358 26.7594 113.459 27.4626 113.459 28.2373V29.4092H105.061V27.5342H110.695V27.3193C110.695 26.9287 110.624 26.5804 110.481 26.2744C110.344 25.9619 110.136 25.7145 109.856 25.5322C109.576 25.3499 109.218 25.2588 108.781 25.2588C108.41 25.2588 108.091 25.3402 107.824 25.5029C107.557 25.6657 107.339 25.8936 107.17 26.1865C107.007 26.4795 106.884 26.8245 106.799 27.2217C106.721 27.6123 106.682 28.042 106.682 28.5107V28.9014C106.682 29.3245 106.74 29.7152 106.858 30.0732C106.981 30.4313 107.154 30.7406 107.375 31.001C107.603 31.2614 107.876 31.4632 108.195 31.6064C108.521 31.7497 108.889 31.8213 109.299 31.8213C109.807 31.8213 110.279 31.7236 110.715 31.5283C111.158 31.3265 111.538 31.0238 111.858 30.6201L113.225 32.1045C113.003 32.4235 112.701 32.7295 112.316 33.0225C111.939 33.3154 111.483 33.5563 110.949 33.7451C110.415 33.9274 109.807 34.0186 109.123 34.0186ZM121.374 30.9033C121.374 30.7015 121.315 30.5192 121.198 30.3564C121.081 30.1937 120.862 30.0439 120.543 29.9072C120.231 29.764 119.778 29.6338 119.186 29.5166C118.652 29.3994 118.154 29.2529 117.692 29.0771C117.236 28.8949 116.839 28.6768 116.5 28.4229C116.168 28.1689 115.908 27.8695 115.719 27.5244C115.53 27.1729 115.436 26.7725 115.436 26.3232C115.436 25.8805 115.53 25.4639 115.719 25.0732C115.915 24.6826 116.191 24.3376 116.549 24.0381C116.914 23.7321 117.357 23.4945 117.877 23.3252C118.405 23.1494 118.997 23.0615 119.655 23.0615C120.573 23.0615 121.361 23.208 122.018 23.501C122.682 23.7939 123.19 24.1976 123.541 24.7119C123.9 25.2197 124.079 25.7992 124.079 26.4502H121.266C121.266 26.1768 121.208 25.9326 121.09 25.7178C120.98 25.4964 120.804 25.3239 120.563 25.2002C120.329 25.07 120.023 25.0049 119.645 25.0049C119.333 25.0049 119.062 25.0602 118.834 25.1709C118.607 25.2751 118.431 25.4183 118.307 25.6006C118.19 25.7764 118.131 25.9717 118.131 26.1865C118.131 26.3493 118.164 26.4958 118.229 26.626C118.301 26.7497 118.415 26.8636 118.571 26.9678C118.727 27.0719 118.929 27.1696 119.176 27.2607C119.43 27.3454 119.743 27.4235 120.114 27.4951C120.875 27.6514 121.556 27.8564 122.155 28.1104C122.754 28.3577 123.229 28.6963 123.581 29.126C123.932 29.5492 124.108 30.1058 124.108 30.7959C124.108 31.2646 124.004 31.6943 123.795 32.085C123.587 32.4756 123.288 32.8174 122.897 33.1104C122.506 33.3968 122.038 33.6214 121.491 33.7842C120.95 33.9404 120.342 34.0186 119.665 34.0186C118.681 34.0186 117.848 33.8428 117.165 33.4912C116.487 33.1396 115.973 32.6937 115.622 32.1533C115.277 31.6064 115.104 31.0465 115.104 30.4736H117.77C117.783 30.8577 117.881 31.167 118.063 31.4014C118.252 31.6357 118.489 31.805 118.776 31.9092C119.069 32.0133 119.385 32.0654 119.723 32.0654C120.088 32.0654 120.39 32.0166 120.631 31.9189C120.872 31.8148 121.055 31.6781 121.178 31.5088C121.308 31.333 121.374 31.1312 121.374 30.9033ZM131.71 23.2568V25.249H125.558V23.2568H131.71ZM127.081 20.6494H129.893V30.6396C129.893 30.9456 129.933 31.18 130.011 31.3428C130.095 31.5055 130.219 31.6195 130.382 31.6846C130.544 31.7432 130.75 31.7725 130.997 31.7725C131.173 31.7725 131.329 31.766 131.466 31.7529C131.609 31.7334 131.729 31.7139 131.827 31.6943L131.837 33.7646C131.596 33.8428 131.336 33.9046 131.056 33.9502C130.776 33.9958 130.466 34.0186 130.128 34.0186C129.509 34.0186 128.969 33.9176 128.507 33.7158C128.051 33.5075 127.699 33.1755 127.452 32.7197C127.205 32.264 127.081 31.665 127.081 30.9229V20.6494ZM142.597 19.6045V33.8232H139.668V19.6045H142.597ZM148.261 25.6787V27.9639H141.797V25.6787H148.261ZM148.945 19.6045V21.8994H141.797V19.6045H148.945ZM150.404 28.6475V28.4424C150.404 27.6676 150.515 26.9548 150.736 26.3037C150.958 25.6462 151.28 25.0765 151.703 24.5947C152.126 24.113 152.647 23.7386 153.266 23.4717C153.884 23.1982 154.594 23.0615 155.395 23.0615C156.195 23.0615 156.908 23.1982 157.533 23.4717C158.158 23.7386 158.682 24.113 159.106 24.5947C159.535 25.0765 159.861 25.6462 160.082 26.3037C160.303 26.9548 160.414 27.6676 160.414 28.4424V28.6475C160.414 29.4157 160.303 30.1286 160.082 30.7861C159.861 31.4372 159.535 32.0068 159.106 32.4951C158.682 32.9769 158.162 33.3512 157.543 33.6182C156.925 33.8851 156.215 34.0186 155.414 34.0186C154.613 34.0186 153.9 33.8851 153.275 33.6182C152.657 33.3512 152.133 32.9769 151.703 32.4951C151.28 32.0068 150.958 31.4372 150.736 30.7861C150.515 30.1286 150.404 29.4157 150.404 28.6475ZM153.217 28.4424V28.6475C153.217 29.0902 153.256 29.5036 153.334 29.8877C153.412 30.2718 153.536 30.6104 153.705 30.9033C153.881 31.1898 154.109 31.4144 154.389 31.5771C154.669 31.7399 155.011 31.8213 155.414 31.8213C155.805 31.8213 156.14 31.7399 156.42 31.5771C156.7 31.4144 156.925 31.1898 157.094 30.9033C157.263 30.6104 157.387 30.2718 157.465 29.8877C157.55 29.5036 157.592 29.0902 157.592 28.6475V28.4424C157.592 28.0127 157.55 27.609 157.465 27.2314C157.387 26.8473 157.26 26.5088 157.084 26.2158C156.915 25.9163 156.69 25.682 156.41 25.5127C156.13 25.3434 155.792 25.2588 155.395 25.2588C154.997 25.2588 154.659 25.3434 154.379 25.5127C154.106 25.682 153.881 25.9163 153.705 26.2158C153.536 26.5088 153.412 26.8473 153.334 27.2314C153.256 27.609 153.217 28.0127 153.217 28.4424ZM165.555 25.5615V33.8232H162.743V23.2568H165.389L165.555 25.5615ZM168.739 23.1885L168.69 25.7959C168.553 25.7764 168.387 25.7601 168.192 25.7471C168.003 25.7275 167.831 25.7178 167.674 25.7178C167.277 25.7178 166.932 25.7699 166.639 25.874C166.353 25.9717 166.112 26.1182 165.916 26.3135C165.728 26.5088 165.584 26.7464 165.487 27.0264C165.396 27.3063 165.344 27.6253 165.331 27.9834L164.764 27.8076C164.764 27.124 164.833 26.4958 164.969 25.9229C165.106 25.3434 165.305 24.8389 165.565 24.4092C165.832 23.9795 166.157 23.6475 166.541 23.4131C166.926 23.1787 167.365 23.0615 167.86 23.0615C168.016 23.0615 168.176 23.0745 168.338 23.1006C168.501 23.1201 168.635 23.1494 168.739 23.1885ZM175.335 34.0186C174.515 34.0186 173.779 33.8883 173.128 33.6279C172.477 33.361 171.923 32.9932 171.468 32.5244C171.018 32.0557 170.673 31.512 170.433 30.8936C170.192 30.2686 170.071 29.6045 170.071 28.9014V28.5107C170.071 27.71 170.185 26.9775 170.413 26.3135C170.641 25.6494 170.966 25.0732 171.39 24.585C171.819 24.0967 172.34 23.7223 172.952 23.4619C173.564 23.195 174.254 23.0615 175.022 23.0615C175.771 23.0615 176.435 23.1852 177.015 23.4326C177.594 23.68 178.079 24.0316 178.47 24.4873C178.867 24.943 179.166 25.4899 179.368 26.1279C179.57 26.7594 179.671 27.4626 179.671 28.2373V29.4092H171.272V27.5342H176.907V27.3193C176.907 26.9287 176.836 26.5804 176.692 26.2744C176.556 25.9619 176.347 25.7145 176.067 25.5322C175.787 25.3499 175.429 25.2588 174.993 25.2588C174.622 25.2588 174.303 25.3402 174.036 25.5029C173.769 25.6657 173.551 25.8936 173.382 26.1865C173.219 26.4795 173.095 26.8245 173.011 27.2217C172.933 27.6123 172.893 28.042 172.893 28.5107V28.9014C172.893 29.3245 172.952 29.7152 173.069 30.0732C173.193 30.4313 173.365 30.7406 173.587 31.001C173.815 31.2614 174.088 31.4632 174.407 31.6064C174.733 31.7497 175.1 31.8213 175.511 31.8213C176.018 31.8213 176.49 31.7236 176.927 31.5283C177.369 31.3265 177.75 31.0238 178.069 30.6201L179.436 32.1045C179.215 32.4235 178.912 32.7295 178.528 33.0225C178.151 33.3154 177.695 33.5563 177.161 33.7451C176.627 33.9274 176.018 34.0186 175.335 34.0186ZM184.138 23.2568L185.886 26.4697L187.683 23.2568H190.681L187.693 28.4229L190.818 33.8232H187.81L185.906 30.4248L184.001 33.8232H180.993L184.118 28.4229L181.13 23.2568H184.138ZM206.647 29.1064H209.566C209.508 30.0635 209.244 30.9131 208.775 31.6553C208.313 32.3975 207.665 32.9769 206.832 33.3936C206.005 33.8102 205.009 34.0186 203.844 34.0186C202.932 34.0186 202.115 33.8623 201.393 33.5498C200.67 33.2308 200.052 32.7751 199.537 32.1826C199.029 31.5902 198.642 30.874 198.375 30.0342C198.108 29.1943 197.975 28.2536 197.975 27.2119V26.2256C197.975 25.1839 198.111 24.2432 198.385 23.4033C198.665 22.557 199.062 21.8376 199.576 21.2451C200.097 20.6527 200.719 20.1969 201.441 19.8779C202.164 19.5589 202.971 19.3994 203.863 19.3994C205.048 19.3994 206.048 19.6143 206.861 20.0439C207.682 20.4736 208.316 21.0661 208.766 21.8213C209.221 22.5765 209.495 23.4359 209.586 24.3994H206.656C206.624 23.8265 206.51 23.3415 206.315 22.9443C206.119 22.5407 205.823 22.238 205.426 22.0361C205.035 21.8278 204.514 21.7236 203.863 21.7236C203.375 21.7236 202.949 21.8148 202.584 21.9971C202.219 22.1794 201.913 22.4561 201.666 22.8271C201.419 23.1982 201.233 23.667 201.109 24.2334C200.992 24.7933 200.934 25.4508 200.934 26.2061V27.2119C200.934 27.9476 200.989 28.5954 201.1 29.1553C201.21 29.7087 201.38 30.1774 201.608 30.5615C201.842 30.9391 202.141 31.2256 202.506 31.4209C202.877 31.6097 203.323 31.7041 203.844 31.7041C204.456 31.7041 204.96 31.6064 205.358 31.4111C205.755 31.2158 206.057 30.9261 206.266 30.542C206.481 30.1579 206.608 29.6794 206.647 29.1064ZM215.02 19.6045V33.8232H212.09V19.6045H215.02ZM220.684 25.6787V27.9639H214.219V25.6787H220.684ZM221.368 19.6045V21.8994H214.219V19.6045H221.368ZM228.032 33.8232H224.936L224.956 31.5381H228.032C228.8 31.5381 229.448 31.3656 229.975 31.0205C230.503 30.6689 230.9 30.1579 231.167 29.4873C231.44 28.8167 231.577 28.0062 231.577 27.0557V26.3623C231.577 25.6331 231.499 24.9919 231.343 24.4385C231.193 23.8851 230.968 23.4196 230.669 23.042C230.369 22.6644 230.002 22.3812 229.565 22.1924C229.129 21.9971 228.628 21.8994 228.061 21.8994H224.878V19.6045H228.061C229.012 19.6045 229.881 19.7673 230.669 20.0928C231.463 20.4118 232.15 20.8708 232.729 21.4697C233.309 22.0687 233.755 22.7848 234.067 23.6182C234.386 24.445 234.546 25.3662 234.546 26.3818V27.0557C234.546 28.0648 234.386 28.986 234.067 29.8193C233.755 30.6527 233.309 31.3688 232.729 31.9678C232.156 32.5602 231.47 33.0192 230.669 33.3447C229.875 33.6637 228.996 33.8232 228.032 33.8232ZM226.597 19.6045V33.8232H223.667V19.6045H226.597ZM248.422 27.583H244.769L244.75 25.5713H247.816C248.356 25.5713 248.799 25.5029 249.144 25.3662C249.489 25.223 249.746 25.0179 249.916 24.751C250.091 24.4775 250.179 24.1455 250.179 23.7549C250.179 23.3122 250.095 22.9541 249.925 22.6807C249.763 22.4072 249.506 22.2087 249.154 22.085C248.809 21.9613 248.363 21.8994 247.816 21.8994H245.785V33.8232H242.855V19.6045H247.816C248.643 19.6045 249.382 19.6826 250.033 19.8389C250.69 19.9951 251.247 20.2327 251.703 20.5518C252.159 20.8708 252.507 21.2744 252.748 21.7627C252.989 22.2445 253.109 22.8174 253.109 23.4814C253.109 24.0674 252.976 24.6077 252.709 25.1025C252.448 25.5973 252.035 26.001 251.468 26.3135C250.909 26.626 250.176 26.7985 249.271 26.8311L248.422 27.583ZM248.295 33.8232H243.968L245.111 31.5381H248.295C248.809 31.5381 249.229 31.4567 249.554 31.2939C249.88 31.1247 250.121 30.8968 250.277 30.6104C250.433 30.3239 250.511 29.9951 250.511 29.624C250.511 29.2074 250.44 28.846 250.297 28.54C250.16 28.234 249.938 27.9997 249.633 27.8369C249.327 27.6676 248.923 27.583 248.422 27.583H245.599L245.619 25.5713H249.134L249.808 26.3623C250.674 26.3493 251.371 26.5023 251.898 26.8213C252.432 27.1338 252.819 27.5407 253.06 28.042C253.308 28.5433 253.431 29.0804 253.431 29.6533C253.431 30.5648 253.233 31.333 252.836 31.958C252.438 32.5765 251.856 33.042 251.088 33.3545C250.326 33.667 249.395 33.8232 248.295 33.8232ZM258.865 25.5615V33.8232H256.053V23.2568H258.699L258.865 25.5615ZM262.049 23.1885L262 25.7959C261.863 25.7764 261.697 25.7601 261.502 25.7471C261.313 25.7275 261.141 25.7178 260.984 25.7178C260.587 25.7178 260.242 25.7699 259.949 25.874C259.663 25.9717 259.422 26.1182 259.227 26.3135C259.038 26.5088 258.895 26.7464 258.797 27.0264C258.706 27.3063 258.654 27.6253 258.641 27.9834L258.074 27.8076C258.074 27.124 258.143 26.4958 258.279 25.9229C258.416 25.3434 258.615 24.8389 258.875 24.4092C259.142 23.9795 259.468 23.6475 259.852 23.4131C260.236 23.1787 260.675 23.0615 261.17 23.0615C261.326 23.0615 261.486 23.0745 261.649 23.1006C261.811 23.1201 261.945 23.1494 262.049 23.1885ZM263.235 28.6475V28.4424C263.235 27.6676 263.346 26.9548 263.567 26.3037C263.788 25.6462 264.11 25.0765 264.534 24.5947C264.957 24.113 265.478 23.7386 266.096 23.4717C266.715 23.1982 267.424 23.0615 268.225 23.0615C269.026 23.0615 269.739 23.1982 270.364 23.4717C270.989 23.7386 271.513 24.113 271.936 24.5947C272.366 25.0765 272.691 25.6462 272.913 26.3037C273.134 26.9548 273.245 27.6676 273.245 28.4424V28.6475C273.245 29.4157 273.134 30.1286 272.913 30.7861C272.691 31.4372 272.366 32.0068 271.936 32.4951C271.513 32.9769 270.992 33.3512 270.374 33.6182C269.755 33.8851 269.045 34.0186 268.245 34.0186C267.444 34.0186 266.731 33.8851 266.106 33.6182C265.487 33.3512 264.963 32.9769 264.534 32.4951C264.11 32.0068 263.788 31.4372 263.567 30.7861C263.346 30.1286 263.235 29.4157 263.235 28.6475ZM266.047 28.4424V28.6475C266.047 29.0902 266.086 29.5036 266.165 29.8877C266.243 30.2718 266.366 30.6104 266.536 30.9033C266.711 31.1898 266.939 31.4144 267.219 31.5771C267.499 31.7399 267.841 31.8213 268.245 31.8213C268.635 31.8213 268.971 31.7399 269.25 31.5771C269.53 31.4144 269.755 31.1898 269.924 30.9033C270.094 30.6104 270.217 30.2718 270.295 29.8877C270.38 29.5036 270.422 29.0902 270.422 28.6475V28.4424C270.422 28.0127 270.38 27.609 270.295 27.2314C270.217 26.8473 270.09 26.5088 269.915 26.2158C269.745 25.9163 269.521 25.682 269.241 25.5127C268.961 25.3434 268.622 25.2588 268.225 25.2588C267.828 25.2588 267.489 25.3434 267.209 25.5127C266.936 25.682 266.711 25.9163 266.536 26.2158C266.366 26.5088 266.243 26.8473 266.165 27.2314C266.086 27.609 266.047 28.0127 266.047 28.4424ZM278.386 18.8135V33.8232H275.573V18.8135H278.386ZM285.046 23.2568L280.456 28.4912L277.995 30.9814L276.97 28.9502L278.923 26.4697L281.667 23.2568H285.046ZM282.126 33.8232L279.001 28.9404L280.944 27.2412L285.368 33.8232H282.126ZM291.525 34.0186C290.704 34.0186 289.969 33.8883 289.318 33.6279C288.667 33.361 288.113 32.9932 287.658 32.5244C287.208 32.0557 286.863 31.512 286.622 30.8936C286.381 30.2686 286.261 29.6045 286.261 28.9014V28.5107C286.261 27.71 286.375 26.9775 286.603 26.3135C286.831 25.6494 287.156 25.0732 287.579 24.585C288.009 24.0967 288.53 23.7223 289.142 23.4619C289.754 23.195 290.444 23.0615 291.212 23.0615C291.961 23.0615 292.625 23.1852 293.204 23.4326C293.784 23.68 294.269 24.0316 294.659 24.4873C295.057 24.943 295.356 25.4899 295.558 26.1279C295.76 26.7594 295.861 27.4626 295.861 28.2373V29.4092H287.462V27.5342H293.097V27.3193C293.097 26.9287 293.025 26.5804 292.882 26.2744C292.745 25.9619 292.537 25.7145 292.257 25.5322C291.977 25.3499 291.619 25.2588 291.183 25.2588C290.812 25.2588 290.493 25.3402 290.226 25.5029C289.959 25.6657 289.741 25.8936 289.572 26.1865C289.409 26.4795 289.285 26.8245 289.2 27.2217C289.122 27.6123 289.083 28.042 289.083 28.5107V28.9014C289.083 29.3245 289.142 29.7152 289.259 30.0732C289.383 30.4313 289.555 30.7406 289.777 31.001C290.005 31.2614 290.278 31.4632 290.597 31.6064C290.922 31.7497 291.29 31.8213 291.7 31.8213C292.208 31.8213 292.68 31.7236 293.116 31.5283C293.559 31.3265 293.94 31.0238 294.259 30.6201L295.626 32.1045C295.405 32.4235 295.102 32.7295 294.718 33.0225C294.34 33.3154 293.885 33.5563 293.351 33.7451C292.817 33.9274 292.208 34.0186 291.525 34.0186ZM300.875 25.5615V33.8232H298.062V23.2568H300.709L300.875 25.5615ZM304.058 23.1885L304.009 25.7959C303.873 25.7764 303.707 25.7601 303.511 25.7471C303.323 25.7275 303.15 25.7178 302.994 25.7178C302.597 25.7178 302.252 25.7699 301.959 25.874C301.672 25.9717 301.431 26.1182 301.236 26.3135C301.047 26.5088 300.904 26.7464 300.806 27.0264C300.715 27.3063 300.663 27.6253 300.65 27.9834L300.084 27.8076C300.084 27.124 300.152 26.4958 300.289 25.9229C300.425 25.3434 300.624 24.8389 300.884 24.4092C301.151 23.9795 301.477 23.6475 301.861 23.4131C302.245 23.1787 302.685 23.0615 303.179 23.0615C303.336 23.0615 303.495 23.0745 303.658 23.1006C303.821 23.1201 303.954 23.1494 304.058 23.1885ZM159.777 45.6045H162.697V54.999C162.697 56.0928 162.462 57.014 161.993 57.7627C161.531 58.5114 160.89 59.0745 160.07 59.4521C159.256 59.8298 158.318 60.0186 157.257 60.0186C156.196 60.0186 155.252 59.8298 154.425 59.4521C153.605 59.0745 152.96 58.5114 152.491 57.7627C152.029 57.014 151.798 56.0928 151.798 54.999V45.6045H154.728V54.999C154.728 55.637 154.829 56.1579 155.031 56.5615C155.232 56.9652 155.522 57.2614 155.9 57.4502C156.284 57.639 156.736 57.7334 157.257 57.7334C157.791 57.7334 158.243 57.639 158.615 57.4502C158.992 57.2614 159.279 56.9652 159.474 56.5615C159.676 56.1579 159.777 55.637 159.777 54.999V45.6045ZM171.275 48.0361L167.408 59.8232H164.293L169.576 45.6045H171.558L171.275 48.0361ZM174.488 59.8232L170.611 48.0361L170.299 45.6045H172.3L177.613 59.8232H174.488ZM174.312 54.5303V56.8252H166.802V54.5303H174.312ZM189.072 57.5381V59.8232H181.504V57.5381H189.072ZM182.461 45.6045V59.8232H179.531V45.6045H182.461ZM188.086 51.3955V53.6221H181.504V51.3955H188.086ZM189.063 45.6045V47.8994H181.504V45.6045H189.063ZM206.395 57.626V59.8232H196.669V57.9482L201.268 53.0166C201.731 52.5023 202.095 52.0498 202.362 51.6592C202.629 51.262 202.821 50.9072 202.938 50.5947C203.062 50.2757 203.124 49.973 203.124 49.6865C203.124 49.2568 203.052 48.889 202.909 48.583C202.766 48.2705 202.554 48.0296 202.274 47.8604C202.001 47.6911 201.662 47.6064 201.259 47.6064C200.829 47.6064 200.458 47.7106 200.145 47.9189C199.839 48.1273 199.605 48.417 199.442 48.7881C199.286 49.1592 199.208 49.5791 199.208 50.0479H196.386C196.386 49.2015 196.587 48.4268 196.991 47.7236C197.395 47.014 197.964 46.4508 198.7 46.0342C199.436 45.611 200.308 45.3994 201.317 45.3994C202.313 45.3994 203.153 45.5622 203.837 45.8877C204.527 46.2067 205.048 46.6689 205.399 47.2744C205.757 47.8734 205.936 48.5895 205.936 49.4229C205.936 49.8916 205.862 50.3506 205.712 50.7998C205.562 51.2425 205.347 51.6852 205.067 52.1279C204.794 52.5641 204.462 53.0068 204.071 53.4561C203.681 53.9053 203.248 54.3708 202.772 54.8525L200.302 57.626H206.395ZM218.324 51.4639V53.9248C218.324 54.9925 218.21 55.9137 217.982 56.6885C217.754 57.4567 217.425 58.0882 216.995 58.583C216.572 59.0713 216.068 59.4326 215.482 59.667C214.896 59.9014 214.245 60.0186 213.529 60.0186C212.956 60.0186 212.422 59.9469 211.927 59.8037C211.432 59.654 210.986 59.4229 210.589 59.1104C210.199 58.7979 209.86 58.404 209.574 57.9287C209.294 57.4469 209.079 56.874 208.929 56.21C208.779 55.5459 208.704 54.7842 208.704 53.9248V51.4639C208.704 50.3962 208.818 49.4814 209.046 48.7197C209.281 47.9515 209.609 47.3232 210.033 46.835C210.462 46.3467 210.97 45.9886 211.556 45.7607C212.142 45.5264 212.793 45.4092 213.509 45.4092C214.082 45.4092 214.613 45.484 215.101 45.6338C215.596 45.777 216.042 46.0016 216.439 46.3076C216.836 46.6136 217.174 47.0075 217.454 47.4893C217.734 47.9645 217.949 48.5342 218.099 49.1982C218.249 49.8558 218.324 50.611 218.324 51.4639ZM215.501 54.2959V51.083C215.501 50.5687 215.472 50.1195 215.413 49.7354C215.361 49.3512 215.28 49.0257 215.169 48.7588C215.059 48.4854 214.922 48.264 214.759 48.0947C214.596 47.9255 214.411 47.8018 214.202 47.7236C213.994 47.6455 213.763 47.6064 213.509 47.6064C213.19 47.6064 212.907 47.6683 212.659 47.792C212.419 47.9157 212.213 48.1143 212.044 48.3877C211.875 48.6546 211.745 49.0127 211.654 49.4619C211.569 49.9046 211.527 50.445 211.527 51.083V54.2959C211.527 54.8102 211.553 55.2627 211.605 55.6533C211.663 56.0439 211.748 56.3792 211.859 56.6592C211.976 56.9326 212.113 57.1572 212.269 57.333C212.432 57.5023 212.617 57.626 212.825 57.7041C213.04 57.7822 213.275 57.8213 213.529 57.8213C213.841 57.8213 214.118 57.7594 214.359 57.6357C214.606 57.5055 214.814 57.3037 214.984 57.0303C215.159 56.7503 215.29 56.3857 215.374 55.9365C215.459 55.4873 215.501 54.9404 215.501 54.2959ZM230.564 57.626V59.8232H220.838V57.9482L225.437 53.0166C225.899 52.5023 226.264 52.0498 226.531 51.6592C226.798 51.262 226.99 50.9072 227.107 50.5947C227.231 50.2757 227.293 49.973 227.293 49.6865C227.293 49.2568 227.221 48.889 227.078 48.583C226.935 48.2705 226.723 48.0296 226.443 47.8604C226.17 47.6911 225.831 47.6064 225.427 47.6064C224.998 47.6064 224.627 47.7106 224.314 47.9189C224.008 48.1273 223.774 48.417 223.611 48.7881C223.455 49.1592 223.377 49.5791 223.377 50.0479H220.554C220.554 49.2015 220.756 48.4268 221.16 47.7236C221.563 47.014 222.133 46.4508 222.869 46.0342C223.605 45.611 224.477 45.3994 225.486 45.3994C226.482 45.3994 227.322 45.5622 228.006 45.8877C228.696 46.2067 229.216 46.6689 229.568 47.2744C229.926 47.8734 230.105 48.5895 230.105 49.4229C230.105 49.8916 230.03 50.3506 229.881 50.7998C229.731 51.2425 229.516 51.6852 229.236 52.1279C228.963 52.5641 228.631 53.0068 228.24 53.4561C227.849 53.9053 227.416 54.3708 226.941 54.8525L224.47 57.626H230.564ZM242.883 54.5107V56.7178H232.639L232.502 55.0088L238.43 45.6045H240.666L238.244 49.6572L235.295 54.5107H242.883ZM241.272 45.6045V59.8232H238.459V45.6045H241.272Z" fill="#EBEDF0"/>
<path d="M115.356 76.8672V80.5107C115.233 80.693 115.037 80.8981 114.768 81.126C114.499 81.3493 114.128 81.5452 113.654 81.7139C113.184 81.8779 112.578 81.96 111.835 81.96C111.229 81.96 110.671 81.8551 110.161 81.6455C109.655 81.4313 109.215 81.1214 108.841 80.7158C108.472 80.3057 108.185 79.8089 107.98 79.2256C107.779 78.6377 107.679 77.9723 107.679 77.2295V76.457C107.679 75.7142 107.766 75.0511 107.939 74.4678C108.117 73.8844 108.376 73.39 108.718 72.9844C109.06 72.5742 109.479 72.2643 109.976 72.0547C110.473 71.8405 111.042 71.7334 111.685 71.7334C112.446 71.7334 113.082 71.8656 113.592 72.1299C114.107 72.3896 114.508 72.7497 114.795 73.21C115.087 73.6702 115.274 74.1943 115.356 74.7822H114.037C113.977 74.4222 113.859 74.0941 113.681 73.7979C113.508 73.5016 113.26 73.2646 112.936 73.0869C112.612 72.9046 112.195 72.8135 111.685 72.8135C111.225 72.8135 110.826 72.8978 110.489 73.0664C110.152 73.235 109.874 73.4766 109.655 73.791C109.436 74.1055 109.272 74.486 109.163 74.9326C109.058 75.3792 109.005 75.8828 109.005 76.4434V77.2295C109.005 77.8037 109.071 78.3164 109.204 78.7676C109.34 79.2188 109.534 79.6038 109.785 79.9229C110.035 80.2373 110.334 80.4766 110.68 80.6406C111.031 80.8047 111.418 80.8867 111.842 80.8867C112.312 80.8867 112.692 80.848 112.984 80.7705C113.276 80.6885 113.503 80.5928 113.667 80.4834C113.832 80.3695 113.957 80.2624 114.043 80.1621V77.9336H111.74V76.8672H115.356ZM119.426 71.3232V81.8232H118.155V71.3232H119.426ZM121.821 78.207V78.0498C121.821 77.5166 121.899 77.0221 122.054 76.5664C122.209 76.1061 122.432 75.7074 122.724 75.3701C123.015 75.0283 123.369 74.764 123.783 74.5771C124.198 74.3857 124.663 74.29 125.178 74.29C125.697 74.29 126.164 74.3857 126.579 74.5771C126.998 74.764 127.354 75.0283 127.646 75.3701C127.942 75.7074 128.167 76.1061 128.322 76.5664C128.477 77.0221 128.555 77.5166 128.555 78.0498V78.207C128.555 78.7402 128.477 79.2347 128.322 79.6904C128.167 80.1462 127.942 80.5449 127.646 80.8867C127.354 81.224 127.001 81.4883 126.586 81.6797C126.176 81.8665 125.711 81.96 125.191 81.96C124.672 81.96 124.205 81.8665 123.79 81.6797C123.375 81.4883 123.02 81.224 122.724 80.8867C122.432 80.5449 122.209 80.1462 122.054 79.6904C121.899 79.2347 121.821 78.7402 121.821 78.207ZM123.086 78.0498V78.207C123.086 78.5762 123.129 78.9248 123.216 79.2529C123.302 79.5765 123.432 79.8636 123.606 80.1143C123.783 80.3649 124.004 80.5632 124.269 80.709C124.533 80.8503 124.841 80.9209 125.191 80.9209C125.538 80.9209 125.841 80.8503 126.101 80.709C126.365 80.5632 126.584 80.3649 126.757 80.1143C126.93 79.8636 127.06 79.5765 127.147 79.2529C127.238 78.9248 127.283 78.5762 127.283 78.207V78.0498C127.283 77.6852 127.238 77.3411 127.147 77.0176C127.06 76.6895 126.928 76.4001 126.75 76.1494C126.577 75.8942 126.358 75.6937 126.094 75.5479C125.834 75.402 125.529 75.3291 125.178 75.3291C124.831 75.3291 124.526 75.402 124.262 75.5479C124.002 75.6937 123.783 75.8942 123.606 76.1494C123.432 76.4001 123.302 76.6895 123.216 77.0176C123.129 77.3411 123.086 77.6852 123.086 78.0498ZM130.834 71.3232H132.105V80.3877L131.996 81.8232H130.834V71.3232ZM137.102 78.0635V78.207C137.102 78.7448 137.039 79.2438 136.911 79.7041C136.783 80.1598 136.597 80.5563 136.35 80.8936C136.104 81.2308 135.804 81.4928 135.448 81.6797C135.093 81.8665 134.685 81.96 134.224 81.96C133.755 81.96 133.343 81.8802 132.987 81.7207C132.636 81.5566 132.34 81.3219 132.099 81.0166C131.857 80.7113 131.663 80.3421 131.517 79.9092C131.376 79.4762 131.278 78.9886 131.224 78.4463V77.8174C131.278 77.2705 131.376 76.7806 131.517 76.3477C131.663 75.9147 131.857 75.5456 132.099 75.2402C132.34 74.9303 132.636 74.6956 132.987 74.5361C133.338 74.3721 133.746 74.29 134.211 74.29C134.676 74.29 135.088 74.3812 135.448 74.5635C135.808 74.7412 136.109 74.9964 136.35 75.3291C136.597 75.6618 136.783 76.0605 136.911 76.5254C137.039 76.9857 137.102 77.4984 137.102 78.0635ZM135.831 78.207V78.0635C135.831 77.6943 135.797 77.348 135.728 77.0244C135.66 76.6963 135.551 76.4092 135.4 76.1631C135.25 75.9124 135.052 75.7165 134.806 75.5752C134.559 75.4294 134.256 75.3564 133.896 75.3564C133.577 75.3564 133.299 75.4111 133.062 75.5205C132.83 75.6299 132.632 75.778 132.468 75.9648C132.304 76.1471 132.169 76.3568 132.064 76.5938C131.964 76.8262 131.889 77.0677 131.839 77.3184V78.9658C131.912 79.2848 132.03 79.5924 132.194 79.8887C132.363 80.1803 132.586 80.4196 132.864 80.6064C133.147 80.7933 133.495 80.8867 133.91 80.8867C134.252 80.8867 134.544 80.8184 134.785 80.6816C135.031 80.5404 135.229 80.3467 135.38 80.1006C135.535 79.8545 135.649 79.5697 135.722 79.2461C135.794 78.9225 135.831 78.5762 135.831 78.207ZM143.763 80.5586V76.751C143.763 76.4593 143.704 76.2064 143.586 75.9922C143.472 75.7734 143.299 75.6048 143.066 75.4863C142.834 75.3678 142.547 75.3086 142.205 75.3086C141.886 75.3086 141.605 75.3633 141.364 75.4727C141.127 75.582 140.94 75.7256 140.803 75.9033C140.671 76.0811 140.605 76.2725 140.605 76.4775H139.341C139.341 76.2132 139.409 75.9512 139.546 75.6914C139.682 75.4316 139.878 75.1969 140.133 74.9873C140.393 74.7731 140.703 74.6045 141.063 74.4814C141.428 74.3538 141.833 74.29 142.28 74.29C142.818 74.29 143.292 74.3812 143.702 74.5635C144.117 74.7458 144.44 75.0215 144.673 75.3906C144.91 75.7552 145.028 76.2132 145.028 76.7646V80.21C145.028 80.4561 145.049 80.7181 145.09 80.9961C145.135 81.2741 145.201 81.5133 145.288 81.7139V81.8232H143.968C143.905 81.6774 143.855 81.4837 143.818 81.2422C143.782 80.9961 143.763 80.7682 143.763 80.5586ZM143.982 77.3389L143.996 78.2275H142.717C142.357 78.2275 142.036 78.2572 141.754 78.3164C141.471 78.3711 141.234 78.4554 141.043 78.5693C140.851 78.6833 140.705 78.8268 140.605 79C140.505 79.1686 140.455 79.3669 140.455 79.5947C140.455 79.8271 140.507 80.0391 140.612 80.2305C140.717 80.4219 140.874 80.5745 141.084 80.6885C141.298 80.7979 141.56 80.8525 141.87 80.8525C142.257 80.8525 142.599 80.7705 142.895 80.6064C143.191 80.4424 143.426 80.2419 143.599 80.0049C143.777 79.7679 143.873 79.5378 143.886 79.3145L144.426 79.9229C144.395 80.1143 144.308 80.3262 144.167 80.5586C144.025 80.791 143.836 81.0143 143.599 81.2285C143.367 81.4382 143.089 81.6136 142.765 81.7549C142.446 81.8916 142.086 81.96 141.685 81.96C141.184 81.96 140.744 81.862 140.366 81.666C139.992 81.4701 139.701 81.208 139.491 80.8799C139.286 80.5472 139.183 80.1758 139.183 79.7656C139.183 79.3691 139.261 79.0205 139.416 78.7197C139.571 78.4144 139.794 78.1615 140.086 77.9609C140.377 77.7559 140.728 77.6009 141.138 77.4961C141.549 77.3913 142.007 77.3389 142.512 77.3389H143.982ZM149.091 71.3232V81.8232H147.82V71.3232H149.091ZM159.733 77.168H157.211L157.197 76.1084H159.487C159.866 76.1084 160.196 76.0446 160.479 75.917C160.761 75.7894 160.98 75.6071 161.135 75.3701C161.294 75.1286 161.374 74.8415 161.374 74.5088C161.374 74.1442 161.303 73.848 161.162 73.6201C161.025 73.3877 160.814 73.2191 160.526 73.1143C160.244 73.0049 159.884 72.9502 159.446 72.9502H157.505V81.8232H156.186V71.8701H159.446C159.957 71.8701 160.413 71.9225 160.814 72.0273C161.215 72.1276 161.554 72.2871 161.832 72.5059C162.115 72.7201 162.329 72.9935 162.475 73.3262C162.621 73.6589 162.693 74.0576 162.693 74.5225C162.693 74.9326 162.589 75.304 162.379 75.6367C162.169 75.9648 161.878 76.2337 161.504 76.4434C161.135 76.653 160.702 76.7874 160.205 76.8467L159.733 77.168ZM159.672 81.8232H156.691L157.437 80.75H159.672C160.091 80.75 160.447 80.6771 160.738 80.5312C161.035 80.3854 161.26 80.1803 161.415 79.916C161.57 79.6471 161.648 79.3304 161.648 78.9658C161.648 78.5967 161.581 78.2777 161.449 78.0088C161.317 77.7399 161.11 77.5326 160.827 77.3867C160.545 77.2409 160.18 77.168 159.733 77.168H157.854L157.867 76.1084H160.438L160.718 76.4912C161.196 76.5322 161.602 76.6689 161.935 76.9014C162.267 77.1292 162.52 77.4209 162.693 77.7764C162.871 78.1318 162.96 78.5238 162.96 78.9521C162.96 79.5719 162.823 80.096 162.55 80.5244C162.281 80.9482 161.9 81.2718 161.408 81.4951C160.916 81.7139 160.337 81.8232 159.672 81.8232ZM169.942 80.1143V74.4268H171.214V81.8232H170.004L169.942 80.1143ZM170.182 78.5557L170.708 78.542C170.708 79.0342 170.655 79.4899 170.551 79.9092C170.45 80.3239 170.286 80.6839 170.058 80.9893C169.831 81.2946 169.532 81.5339 169.163 81.707C168.794 81.8757 168.345 81.96 167.816 81.96C167.456 81.96 167.126 81.9076 166.825 81.8027C166.529 81.6979 166.274 81.5361 166.059 81.3174C165.845 81.0986 165.679 80.8138 165.56 80.4629C165.447 80.112 165.39 79.6904 165.39 79.1982V74.4268H166.654V79.2119C166.654 79.5446 166.691 79.8203 166.764 80.0391C166.841 80.2533 166.944 80.4242 167.071 80.5518C167.203 80.6748 167.349 80.7614 167.509 80.8115C167.673 80.8617 167.841 80.8867 168.015 80.8867C168.552 80.8867 168.978 80.7842 169.293 80.5791C169.607 80.3695 169.833 80.0892 169.97 79.7383C170.111 79.3828 170.182 78.9886 170.182 78.5557ZM178.148 79.8613C178.148 79.679 178.107 79.5104 178.025 79.3555C177.948 79.196 177.786 79.0524 177.54 78.9248C177.298 78.7926 176.934 78.6787 176.446 78.583C176.036 78.4964 175.664 78.3939 175.332 78.2754C175.004 78.1569 174.723 78.0133 174.491 77.8447C174.263 77.6761 174.088 77.4779 173.965 77.25C173.841 77.0221 173.78 76.7555 173.78 76.4502C173.78 76.1585 173.844 75.8828 173.971 75.623C174.104 75.3633 174.288 75.1331 174.525 74.9326C174.767 74.7321 175.056 74.5749 175.393 74.4609C175.73 74.347 176.106 74.29 176.521 74.29C177.114 74.29 177.619 74.3949 178.039 74.6045C178.458 74.8141 178.779 75.0944 179.003 75.4453C179.226 75.7917 179.338 76.1768 179.338 76.6006H178.073C178.073 76.3955 178.011 76.1973 177.888 76.0059C177.77 75.8099 177.594 75.6481 177.362 75.5205C177.134 75.3929 176.854 75.3291 176.521 75.3291C176.17 75.3291 175.885 75.3838 175.667 75.4932C175.452 75.598 175.295 75.7324 175.195 75.8965C175.099 76.0605 175.051 76.2337 175.051 76.416C175.051 76.5527 175.074 76.6758 175.12 76.7852C175.17 76.89 175.257 76.988 175.38 77.0791C175.503 77.1657 175.676 77.2477 175.899 77.3252C176.122 77.4027 176.407 77.4801 176.754 77.5576C177.36 77.6943 177.859 77.8584 178.251 78.0498C178.643 78.2412 178.934 78.4759 179.126 78.7539C179.317 79.0319 179.413 79.3691 179.413 79.7656C179.413 80.0892 179.344 80.3854 179.208 80.6543C179.076 80.9232 178.882 81.1556 178.627 81.3516C178.376 81.543 178.075 81.6934 177.724 81.8027C177.378 81.9076 176.988 81.96 176.555 81.96C175.904 81.96 175.352 81.8438 174.901 81.6113C174.45 81.3789 174.108 81.0781 173.876 80.709C173.643 80.3398 173.527 79.9502 173.527 79.54H174.799C174.817 79.8864 174.917 80.1621 175.099 80.3672C175.282 80.5677 175.505 80.7113 175.769 80.7979C176.034 80.8799 176.296 80.9209 176.555 80.9209C176.902 80.9209 177.191 80.8753 177.424 80.7842C177.661 80.693 177.841 80.5677 177.964 80.4082C178.087 80.2487 178.148 80.0664 178.148 79.8613ZM183.148 74.4268V81.8232H181.876V74.4268H183.148ZM181.781 72.4648C181.781 72.2598 181.842 72.0866 181.965 71.9453C182.093 71.804 182.28 71.7334 182.526 71.7334C182.767 71.7334 182.952 71.804 183.08 71.9453C183.212 72.0866 183.278 72.2598 183.278 72.4648C183.278 72.6608 183.212 72.8294 183.08 72.9707C182.952 73.1074 182.767 73.1758 182.526 73.1758C182.28 73.1758 182.093 73.1074 181.965 72.9707C181.842 72.8294 181.781 72.6608 181.781 72.4648ZM187.143 76.0059V81.8232H185.878V74.4268H187.074L187.143 76.0059ZM186.842 77.8447L186.316 77.8242C186.32 77.3184 186.395 76.8512 186.541 76.4229C186.687 75.9899 186.892 75.6139 187.157 75.2949C187.421 74.9759 187.735 74.7298 188.1 74.5566C188.469 74.3789 188.877 74.29 189.324 74.29C189.688 74.29 190.016 74.3402 190.308 74.4404C190.6 74.5361 190.848 74.6911 191.053 74.9053C191.263 75.1195 191.422 75.3975 191.532 75.7393C191.641 76.0765 191.696 76.4889 191.696 76.9766V81.8232H190.424V76.9629C190.424 76.5755 190.367 76.2656 190.253 76.0332C190.139 75.7962 189.973 75.6253 189.754 75.5205C189.535 75.4111 189.267 75.3564 188.948 75.3564C188.633 75.3564 188.346 75.4225 188.086 75.5547C187.831 75.6868 187.61 75.8691 187.423 76.1016C187.241 76.334 187.097 76.6006 186.992 76.9014C186.892 77.1976 186.842 77.512 186.842 77.8447ZM197.386 81.96C196.871 81.96 196.404 81.8734 195.984 81.7002C195.57 81.5225 195.212 81.2741 194.911 80.9551C194.615 80.6361 194.387 80.2578 194.228 79.8203C194.068 79.3828 193.988 78.9043 193.988 78.3848V78.0977C193.988 77.4961 194.077 76.9606 194.255 76.4912C194.433 76.0173 194.674 75.6162 194.98 75.2881C195.285 74.96 195.631 74.7116 196.019 74.543C196.406 74.3743 196.807 74.29 197.222 74.29C197.75 74.29 198.206 74.3812 198.589 74.5635C198.976 74.7458 199.293 75.001 199.539 75.3291C199.785 75.6527 199.968 76.0355 200.086 76.4775C200.205 76.915 200.264 77.3936 200.264 77.9131V78.4805H194.74V77.4482H198.999V77.3525C198.981 77.0244 198.913 76.7054 198.794 76.3955C198.68 76.0856 198.498 75.8304 198.247 75.6299C197.997 75.4294 197.655 75.3291 197.222 75.3291C196.935 75.3291 196.67 75.3906 196.429 75.5137C196.187 75.6322 195.98 75.8099 195.807 76.0469C195.634 76.2839 195.499 76.5732 195.403 76.915C195.308 77.2568 195.26 77.651 195.26 78.0977V78.3848C195.26 78.7357 195.308 79.0661 195.403 79.376C195.504 79.6813 195.647 79.9502 195.834 80.1826C196.025 80.415 196.256 80.5973 196.524 80.7295C196.798 80.8617 197.108 80.9277 197.454 80.9277C197.901 80.9277 198.279 80.8366 198.589 80.6543C198.899 80.472 199.17 80.2282 199.402 79.9229L200.168 80.5312C200.009 80.7728 199.806 81.0029 199.56 81.2217C199.314 81.4404 199.011 81.6182 198.65 81.7549C198.295 81.8916 197.873 81.96 197.386 81.96ZM206.747 79.8613C206.747 79.679 206.706 79.5104 206.624 79.3555C206.546 79.196 206.385 79.0524 206.139 78.9248C205.897 78.7926 205.532 78.6787 205.045 78.583C204.635 78.4964 204.263 78.3939 203.931 78.2754C203.602 78.1569 203.322 78.0133 203.09 77.8447C202.862 77.6761 202.686 77.4779 202.563 77.25C202.44 77.0221 202.379 76.7555 202.379 76.4502C202.379 76.1585 202.443 75.8828 202.57 75.623C202.702 75.3633 202.887 75.1331 203.124 74.9326C203.365 74.7321 203.655 74.5749 203.992 74.4609C204.329 74.347 204.705 74.29 205.12 74.29C205.712 74.29 206.218 74.3949 206.638 74.6045C207.057 74.8141 207.378 75.0944 207.601 75.4453C207.825 75.7917 207.936 76.1768 207.936 76.6006H206.672C206.672 76.3955 206.61 76.1973 206.487 76.0059C206.369 75.8099 206.193 75.6481 205.961 75.5205C205.733 75.3929 205.453 75.3291 205.12 75.3291C204.769 75.3291 204.484 75.3838 204.266 75.4932C204.051 75.598 203.894 75.7324 203.794 75.8965C203.698 76.0605 203.65 76.2337 203.65 76.416C203.65 76.5527 203.673 76.6758 203.719 76.7852C203.769 76.89 203.855 76.988 203.978 77.0791C204.101 77.1657 204.275 77.2477 204.498 77.3252C204.721 77.4027 205.006 77.4801 205.352 77.5576C205.959 77.6943 206.458 77.8584 206.849 78.0498C207.241 78.2412 207.533 78.4759 207.724 78.7539C207.916 79.0319 208.012 79.3691 208.012 79.7656C208.012 80.0892 207.943 80.3854 207.807 80.6543C207.674 80.9232 207.481 81.1556 207.225 81.3516C206.975 81.543 206.674 81.6934 206.323 81.8027C205.977 81.9076 205.587 81.96 205.154 81.96C204.502 81.96 203.951 81.8438 203.5 81.6113C203.049 81.3789 202.707 81.0781 202.474 80.709C202.242 80.3398 202.126 79.9502 202.126 79.54H203.397C203.416 79.8864 203.516 80.1621 203.698 80.3672C203.88 80.5677 204.104 80.7113 204.368 80.7979C204.632 80.8799 204.894 80.9209 205.154 80.9209C205.501 80.9209 205.79 80.8753 206.022 80.7842C206.259 80.693 206.439 80.5677 206.562 80.4082C206.685 80.2487 206.747 80.0664 206.747 79.8613ZM214.679 79.8613C214.679 79.679 214.638 79.5104 214.556 79.3555C214.479 79.196 214.317 79.0524 214.071 78.9248C213.829 78.7926 213.465 78.6787 212.977 78.583C212.567 78.4964 212.196 78.3939 211.863 78.2754C211.535 78.1569 211.255 78.0133 211.022 77.8447C210.794 77.6761 210.619 77.4779 210.496 77.25C210.373 77.0221 210.311 76.7555 210.311 76.4502C210.311 76.1585 210.375 75.8828 210.503 75.623C210.635 75.3633 210.819 75.1331 211.056 74.9326C211.298 74.7321 211.587 74.5749 211.924 74.4609C212.262 74.347 212.638 74.29 213.052 74.29C213.645 74.29 214.151 74.3949 214.57 74.6045C214.989 74.8141 215.311 75.0944 215.534 75.4453C215.757 75.7917 215.869 76.1768 215.869 76.6006H214.604C214.604 76.3955 214.543 76.1973 214.42 76.0059C214.301 75.8099 214.126 75.6481 213.893 75.5205C213.665 75.3929 213.385 75.3291 213.052 75.3291C212.702 75.3291 212.417 75.3838 212.198 75.4932C211.984 75.598 211.827 75.7324 211.726 75.8965C211.631 76.0605 211.583 76.2337 211.583 76.416C211.583 76.5527 211.605 76.6758 211.651 76.7852C211.701 76.89 211.788 76.988 211.911 77.0791C212.034 77.1657 212.207 77.2477 212.43 77.3252C212.654 77.4027 212.938 77.4801 213.285 77.5576C213.891 77.6943 214.39 77.8584 214.782 78.0498C215.174 78.2412 215.466 78.4759 215.657 78.7539C215.848 79.0319 215.944 79.3691 215.944 79.7656C215.944 80.0892 215.876 80.3854 215.739 80.6543C215.607 80.9232 215.413 81.1556 215.158 81.3516C214.907 81.543 214.606 81.6934 214.256 81.8027C213.909 81.9076 213.52 81.96 213.087 81.96C212.435 81.96 211.883 81.8438 211.432 81.6113C210.981 81.3789 210.639 81.0781 210.407 80.709C210.174 80.3398 210.058 79.9502 210.058 79.54H211.33C211.348 79.8864 211.448 80.1621 211.631 80.3672C211.813 80.5677 212.036 80.7113 212.3 80.7979C212.565 80.8799 212.827 80.9209 213.087 80.9209C213.433 80.9209 213.722 80.8753 213.955 80.7842C214.192 80.693 214.372 80.5677 214.495 80.4082C214.618 80.2487 214.679 80.0664 214.679 79.8613ZM223.086 71.8701H224.365L227.625 79.9844L230.879 71.8701H232.164L228.117 81.8232H227.119L223.086 71.8701ZM222.669 71.8701H223.797L223.982 77.9404V81.8232H222.669V71.8701ZM231.447 71.8701H232.574V81.8232H231.262V77.9404L231.447 71.8701ZM239.762 80.5586V76.751C239.762 76.4593 239.703 76.2064 239.584 75.9922C239.47 75.7734 239.297 75.6048 239.065 75.4863C238.832 75.3678 238.545 75.3086 238.203 75.3086C237.884 75.3086 237.604 75.3633 237.362 75.4727C237.125 75.582 236.939 75.7256 236.802 75.9033C236.67 76.0811 236.604 76.2725 236.604 76.4775H235.339C235.339 76.2132 235.407 75.9512 235.544 75.6914C235.681 75.4316 235.877 75.1969 236.132 74.9873C236.392 74.7731 236.702 74.6045 237.062 74.4814C237.426 74.3538 237.832 74.29 238.278 74.29C238.816 74.29 239.29 74.3812 239.7 74.5635C240.115 74.7458 240.439 75.0215 240.671 75.3906C240.908 75.7552 241.026 76.2132 241.026 76.7646V80.21C241.026 80.4561 241.047 80.7181 241.088 80.9961C241.134 81.2741 241.2 81.5133 241.286 81.7139V81.8232H239.967C239.903 81.6774 239.853 81.4837 239.816 81.2422C239.78 80.9961 239.762 80.7682 239.762 80.5586ZM239.981 77.3389L239.994 78.2275H238.716C238.356 78.2275 238.035 78.2572 237.752 78.3164C237.469 78.3711 237.233 78.4554 237.041 78.5693C236.85 78.6833 236.704 78.8268 236.604 79C236.503 79.1686 236.453 79.3669 236.453 79.5947C236.453 79.8271 236.506 80.0391 236.61 80.2305C236.715 80.4219 236.872 80.5745 237.082 80.6885C237.296 80.7979 237.558 80.8525 237.868 80.8525C238.256 80.8525 238.597 80.7705 238.894 80.6064C239.19 80.4424 239.425 80.2419 239.598 80.0049C239.775 79.7679 239.871 79.5378 239.885 79.3145L240.425 79.9229C240.393 80.1143 240.306 80.3262 240.165 80.5586C240.024 80.791 239.835 81.0143 239.598 81.2285C239.365 81.4382 239.087 81.6136 238.764 81.7549C238.445 81.8916 238.085 81.96 237.684 81.96C237.182 81.96 236.743 81.862 236.364 81.666C235.991 81.4701 235.699 81.208 235.489 80.8799C235.284 80.5472 235.182 80.1758 235.182 79.7656C235.182 79.3691 235.259 79.0205 235.414 78.7197C235.569 78.4144 235.792 78.1615 236.084 77.9609C236.376 77.7559 236.727 77.6009 237.137 77.4961C237.547 77.3913 238.005 77.3389 238.511 77.3389H239.981ZM248.508 74.4268H249.656V81.666C249.656 82.3177 249.524 82.8737 249.26 83.334C248.995 83.7943 248.626 84.1429 248.152 84.3799C247.683 84.6214 247.141 84.7422 246.525 84.7422C246.27 84.7422 245.969 84.7012 245.623 84.6191C245.281 84.5417 244.944 84.4072 244.611 84.2158C244.283 84.029 244.007 83.776 243.784 83.457L244.447 82.7051C244.757 83.0788 245.081 83.3385 245.418 83.4844C245.76 83.6302 246.097 83.7031 246.43 83.7031C246.831 83.7031 247.177 83.6279 247.469 83.4775C247.76 83.3271 247.986 83.1038 248.145 82.8076C248.309 82.516 248.391 82.1559 248.391 81.7275V76.0537L248.508 74.4268ZM243.415 78.207V78.0635C243.415 77.4984 243.481 76.9857 243.613 76.5254C243.75 76.0605 243.944 75.6618 244.194 75.3291C244.449 74.9964 244.757 74.7412 245.117 74.5635C245.477 74.3812 245.883 74.29 246.334 74.29C246.799 74.29 247.204 74.3721 247.551 74.5361C247.902 74.6956 248.198 74.9303 248.439 75.2402C248.685 75.5456 248.879 75.9147 249.02 76.3477C249.162 76.7806 249.26 77.2705 249.314 77.8174V78.4463C249.264 78.9886 249.166 79.4762 249.02 79.9092C248.879 80.3421 248.685 80.7113 248.439 81.0166C248.198 81.3219 247.902 81.5566 247.551 81.7207C247.2 81.8802 246.79 81.96 246.32 81.96C245.878 81.96 245.477 81.8665 245.117 81.6797C244.762 81.4928 244.456 81.2308 244.201 80.8936C243.946 80.5563 243.75 80.1598 243.613 79.7041C243.481 79.2438 243.415 78.7448 243.415 78.207ZM244.68 78.0635V78.207C244.68 78.5762 244.716 78.9225 244.789 79.2461C244.866 79.5697 244.983 79.8545 245.138 80.1006C245.297 80.3467 245.5 80.5404 245.746 80.6816C245.992 80.8184 246.286 80.8867 246.628 80.8867C247.047 80.8867 247.393 80.7979 247.667 80.6201C247.94 80.4424 248.157 80.2077 248.316 79.916C248.48 79.6243 248.608 79.3076 248.699 78.9658V77.3184C248.649 77.0677 248.572 76.8262 248.467 76.5938C248.366 76.3568 248.234 76.1471 248.07 75.9648C247.911 75.778 247.712 75.6299 247.475 75.5205C247.238 75.4111 246.961 75.3564 246.641 75.3564C246.295 75.3564 245.997 75.4294 245.746 75.5752C245.5 75.7165 245.297 75.9124 245.138 76.1631C244.983 76.4092 244.866 76.6963 244.789 77.0244C244.716 77.348 244.68 77.6943 244.68 78.0635ZM256.638 80.5586V76.751C256.638 76.4593 256.579 76.2064 256.461 75.9922C256.347 75.7734 256.174 75.6048 255.941 75.4863C255.709 75.3678 255.422 75.3086 255.08 75.3086C254.761 75.3086 254.48 75.3633 254.239 75.4727C254.002 75.582 253.815 75.7256 253.678 75.9033C253.546 76.0811 253.48 76.2725 253.48 76.4775H252.216C252.216 76.2132 252.284 75.9512 252.421 75.6914C252.557 75.4316 252.753 75.1969 253.008 74.9873C253.268 74.7731 253.578 74.6045 253.938 74.4814C254.303 74.3538 254.708 74.29 255.155 74.29C255.693 74.29 256.167 74.3812 256.577 74.5635C256.992 74.7458 257.315 75.0215 257.548 75.3906C257.785 75.7552 257.903 76.2132 257.903 76.7646V80.21C257.903 80.4561 257.924 80.7181 257.965 80.9961C258.01 81.2741 258.076 81.5133 258.163 81.7139V81.8232H256.843C256.78 81.6774 256.73 81.4837 256.693 81.2422C256.657 80.9961 256.638 80.7682 256.638 80.5586ZM256.857 77.3389L256.871 78.2275H255.592C255.232 78.2275 254.911 78.2572 254.629 78.3164C254.346 78.3711 254.109 78.4554 253.918 78.5693C253.726 78.6833 253.58 78.8268 253.48 79C253.38 79.1686 253.33 79.3669 253.33 79.5947C253.33 79.8271 253.382 80.0391 253.487 80.2305C253.592 80.4219 253.749 80.5745 253.959 80.6885C254.173 80.7979 254.435 80.8525 254.745 80.8525C255.132 80.8525 255.474 80.7705 255.77 80.6064C256.066 80.4424 256.301 80.2419 256.474 80.0049C256.652 79.7679 256.748 79.5378 256.761 79.3145L257.301 79.9229C257.27 80.1143 257.183 80.3262 257.042 80.5586C256.9 80.791 256.711 81.0143 256.474 81.2285C256.242 81.4382 255.964 81.6136 255.64 81.7549C255.321 81.8916 254.961 81.96 254.56 81.96C254.059 81.96 253.619 81.862 253.241 81.666C252.867 81.4701 252.576 81.208 252.366 80.8799C252.161 80.5472 252.058 80.1758 252.058 79.7656C252.058 79.3691 252.136 79.0205 252.291 78.7197C252.446 78.4144 252.669 78.1615 252.961 77.9609C253.252 77.7559 253.603 77.6009 254.013 77.4961C254.424 77.3913 254.882 77.3389 255.387 77.3389H256.857ZM266.102 80.7842V81.8232H260.722V80.7842H266.102ZM265.904 75.3223L261.009 81.8232H260.237V80.8936L265.097 74.4268H265.904V75.3223ZM265.343 74.4268V75.4727H260.291V74.4268H265.343ZM269.612 74.4268V81.8232H268.34V74.4268H269.612ZM268.244 72.4648C268.244 72.2598 268.306 72.0866 268.429 71.9453C268.557 71.804 268.743 71.7334 268.99 71.7334C269.231 71.7334 269.416 71.804 269.543 71.9453C269.675 72.0866 269.741 72.2598 269.741 72.4648C269.741 72.6608 269.675 72.8294 269.543 72.9707C269.416 73.1074 269.231 73.1758 268.99 73.1758C268.743 73.1758 268.557 73.1074 268.429 72.9707C268.306 72.8294 268.244 72.6608 268.244 72.4648ZM273.607 76.0059V81.8232H272.342V74.4268H273.538L273.607 76.0059ZM273.306 77.8447L272.779 77.8242C272.784 77.3184 272.859 76.8512 273.005 76.4229C273.151 75.9899 273.356 75.6139 273.62 75.2949C273.885 74.9759 274.199 74.7298 274.564 74.5566C274.933 74.3789 275.341 74.29 275.787 74.29C276.152 74.29 276.48 74.3402 276.772 74.4404C277.063 74.5361 277.312 74.6911 277.517 74.9053C277.726 75.1195 277.886 75.3975 277.995 75.7393C278.105 76.0765 278.159 76.4889 278.159 76.9766V81.8232H276.888V76.9629C276.888 76.5755 276.831 76.2656 276.717 76.0332C276.603 75.7962 276.437 75.6253 276.218 75.5205C275.999 75.4111 275.73 75.3564 275.411 75.3564C275.097 75.3564 274.81 75.4225 274.55 75.5547C274.295 75.6868 274.074 75.8691 273.887 76.1016C273.705 76.334 273.561 76.6006 273.456 76.9014C273.356 77.1976 273.306 77.512 273.306 77.8447ZM283.85 81.96C283.335 81.96 282.867 81.8734 282.448 81.7002C282.033 81.5225 281.676 81.2741 281.375 80.9551C281.079 80.6361 280.851 80.2578 280.691 79.8203C280.532 79.3828 280.452 78.9043 280.452 78.3848V78.0977C280.452 77.4961 280.541 76.9606 280.719 76.4912C280.896 76.0173 281.138 75.6162 281.443 75.2881C281.749 74.96 282.095 74.7116 282.482 74.543C282.87 74.3743 283.271 74.29 283.685 74.29C284.214 74.29 284.67 74.3812 285.053 74.5635C285.44 74.7458 285.757 75.001 286.003 75.3291C286.249 75.6527 286.431 76.0355 286.55 76.4775C286.668 76.915 286.727 77.3936 286.727 77.9131V78.4805H281.204V77.4482H285.463V77.3525C285.445 77.0244 285.376 76.7054 285.258 76.3955C285.144 76.0856 284.961 75.8304 284.711 75.6299C284.46 75.4294 284.118 75.3291 283.685 75.3291C283.398 75.3291 283.134 75.3906 282.892 75.5137C282.651 75.6322 282.444 75.8099 282.27 76.0469C282.097 76.2839 281.963 76.5732 281.867 76.915C281.771 77.2568 281.724 77.651 281.724 78.0977V78.3848C281.724 78.7357 281.771 79.0661 281.867 79.376C281.967 79.6813 282.111 79.9502 282.298 80.1826C282.489 80.415 282.719 80.5973 282.988 80.7295C283.262 80.8617 283.572 80.9277 283.918 80.9277C284.364 80.9277 284.743 80.8366 285.053 80.6543C285.363 80.472 285.634 80.2282 285.866 79.9229L286.632 80.5312C286.472 80.7728 286.269 81.0029 286.023 81.2217C285.777 81.4404 285.474 81.6182 285.114 81.7549C284.759 81.8916 284.337 81.96 283.85 81.96Z" fill="#EBEDF0"/>
<path d="M379.1 72.5163C376.884 73.5148 375.025 74.9014 373.57 76.239C375.202 73.4395 376.541 70.5005 377.581 67.4692C379.48 66.9549 383.868 65.4666 387.326 62.0171C391.866 57.4862 393.153 51.3049 393.153 51.3049C393.153 51.3049 387.001 52.4523 382.46 56.985C381.151 58.2906 380.114 59.7337 379.299 61.126C379.784 58.7183 380.09 56.2767 380.216 53.8257C380.24 53.9462 380.255 54.014 380.255 54.014C380.255 54.014 385.299 50.3253 387.577 44.3174C389.754 38.2718 388.328 32.1753 388.328 32.1753C388.328 32.1753 383.252 35.7944 381.006 41.872C380.496 43.2906 380.186 44.7111 380.005 46.0562C379.613 42.3524 378.8 38.6806 377.558 35.1256C378.169 34.5434 382.253 30.4797 383.718 24.7243C385.303 18.4978 383.164 12.5992 383.164 12.5992C383.164 12.5992 378.511 16.8493 376.926 23.0758C375.81 27.4541 376.539 31.6685 377.068 33.7861C375.637 30.0502 373.724 26.4556 371.316 23.0965C371.688 21.887 373.097 16.6666 371.645 11.2276C369.989 5.02002 365.284 0.824463 365.284 0.824463C365.284 0.824463 363.215 6.74949 364.871 12.9552C365.348 14.7412 366.077 16.3576 366.873 17.7574C365.889 16.7344 364.849 15.7416 363.752 14.7864C363.942 14.7563 364.043 14.7356 364.043 14.7356C364.043 14.7356 360.509 9.51136 354.59 7.05469C348.671 4.59802 342.547 5.88664 342.547 5.88664C342.547 5.88664 346.081 11.1108 352 13.5675C356.948 15.5532 361.968 15.0483 363.54 14.8185C366.928 18.0457 369.743 21.5988 372.006 25.3686C371.801 25.1425 371.592 24.9164 371.375 24.6979C366.772 20.2273 360.646 19.0291 360.646 19.0291C360.646 19.0291 361.931 25.1576 366.456 29.7073C370.15 33.2962 374.822 34.7751 376.526 35.2198C378.381 40.8226 379.196 46.6648 379.01 52.456C378.922 51.8908 378.807 51.32 378.661 50.7454C376.974 44.5453 372.313 40.3799 372.313 40.3799C372.313 40.3799 370.237 46.2691 371.883 52.537C373.219 57.4466 376.417 61.077 377.692 62.3769C376.434 67.7028 374.298 72.8328 371.318 77.522C371.893 76.0299 372.368 74.3362 372.575 72.5182C373.228 66.1052 370.381 60.5815 370.381 60.5815C370.381 60.5815 366.347 65.427 365.622 71.8117C365.072 76.661 366.623 81.0299 367.401 82.8498C365.097 85.5721 362.456 88.0797 359.493 90.3121C357.846 91.2748 356.717 92.1772 356.316 92.5163C356.246 92.5616 356.175 92.6049 356.105 92.6482C356.302 92.473 356.498 92.2959 356.689 92.1094C361.258 87.5785 362.565 81.499 362.565 81.499C362.565 81.499 356.379 82.6633 351.773 87.1264C347.615 91.1543 346.177 96.5518 345.934 97.5672C341.106 99.2439 336.021 100.175 330.939 100.642C329.645 100.74 328.342 100.826 327.043 100.725C328.338 100.868 329.645 100.826 330.947 100.77C334.864 100.599 338.721 99.8939 342.541 99.0424C346.364 98.1682 350.103 96.84 353.608 95.054C354.821 94.4323 355.994 93.7711 357.129 93.0721C359.01 93.7974 363.367 95.1558 368.116 94.4455C374.451 93.496 379.138 89.2835 379.138 89.2835C379.138 89.2835 373.504 86.5499 367.17 87.4975C365.838 87.6972 364.582 88.042 363.425 88.4602C366.188 86.0751 368.62 83.4319 370.714 80.5928C372.584 80.7888 377.333 81.0054 381.891 78.9519C387.733 76.3181 391.108 70.9884 391.108 70.9884C391.108 70.9884 384.946 69.8882 379.106 72.522L379.1 72.5163Z" fill="#EBEDF0"/>
</svg>
