<svg width="107" height="113" viewBox="0 0 107 113" fill="none" xmlns="http://www.w3.org/2000/svg">
<g id="Group 167234">
<path id="Vector" d="M97.8618 22.1952L70.8448 9.10376L57.2392 2.4295C56.8772 2.25223 56.5152 2.10155 56.1444 1.98633L54.2991 1.09111C53.8047 0.851792 53.2131 0.851792 52.7187 1.09111L50.8734 1.98633C50.5026 2.11042 50.1318 2.2611 49.7786 2.43837L36.1818 9.11262L9.13835 22.1952C8.52914 22.4966 8.13184 23.117 8.13184 23.7995V64.0667C8.13184 74.4725 13.1468 84.4085 21.552 90.6396L21.605 90.6751L39.5722 103.128L48.6661 109.519C48.9752 109.732 49.2842 109.927 49.6109 110.095L52.5156 112.107C53.1248 112.533 53.9724 112.533 54.5816 112.107L57.5041 110.077C57.8219 109.909 58.1309 109.723 58.4223 109.51L67.0924 103.412L85.4922 90.6307C93.8622 84.4174 98.8771 74.4813 98.8771 64.0844V23.7995C98.8771 23.1259 98.4798 22.4966 97.8706 22.1952H97.8618Z" fill="#172A2F"/>
<path id="Vector_2" d="M27.1668 84.7543L27.211 84.7809L52.6829 102.668C53.1861 103.022 53.8836 103.022 54.3869 102.668L79.8588 84.7454C86.7631 79.5603 90.8863 71.2728 90.8863 62.5866V28.9582C90.8863 28.391 90.5596 27.868 90.0564 27.6198L54.1485 9.99909C53.7424 9.79523 53.2568 9.79523 52.8418 9.99909L16.9339 27.6198C16.4307 27.868 16.104 28.391 16.104 28.9582V62.5688C16.104 71.2551 20.236 79.5425 27.1668 84.7454V84.7543Z" fill="url(#paint0_linear_6246_1047)"/>
<g id="VT_Markets_x5F_Glyph">
<path id="Vector_3" d="M53.4954 78.1156C66.978 78.1156 77.9078 67.1431 77.9078 53.6078C77.9078 40.0726 66.978 29.1001 53.4954 29.1001C40.0128 29.1001 29.083 40.0726 29.083 53.6078C29.083 67.1431 40.0128 78.1156 53.4954 78.1156Z" fill="white"/>
</g>
<path id="Vector_4" d="M90.1804 75.022H106.806L101.305 85.2239L107 95.7804H77.2104L90.1804 75.022Z" fill="#0B1416"/>
<path id="Vector_5" d="M16.8106 75.022H0.185411L5.68593 85.2239L0 95.7804H29.7893L16.8106 75.022Z" fill="#0B1416"/>
<path id="Vector_6" d="M96.3872 68.2236H10.6126C9.26195 68.2236 8.16699 69.3229 8.16699 70.6788V87.2182C8.16699 88.5742 9.26195 89.6734 10.6126 89.6734H96.3872C97.7379 89.6734 98.8328 88.5742 98.8328 87.2182V70.6788C98.8328 69.3229 97.7379 68.2236 96.3872 68.2236Z" fill="url(#paint1_linear_6246_1047)"/>
<g id="Group">
<path id="Vector_7" d="M28.6684 42.502C28.5095 42.8566 28.2976 43.1225 28.0239 43.2997C27.7502 43.477 27.4323 43.5745 27.0792 43.5834C26.726 43.5834 26.3463 43.5036 25.9579 43.3352C25.5606 43.1579 25.2515 42.9363 25.0308 42.6793C24.8101 42.4222 24.6777 42.1209 24.6335 41.8018C24.5894 41.4827 24.6512 41.137 24.8101 40.7914C24.9337 40.5077 25.1014 40.2773 25.3133 40.1089C25.5252 39.9405 25.7548 39.8252 26.0108 39.7809C26.2669 39.7366 26.5229 39.7455 26.779 39.8341L26.4258 40.6318C26.2845 40.5964 26.1521 40.5875 26.0197 40.6141C25.8872 40.6318 25.7725 40.685 25.6665 40.7648C25.5606 40.8445 25.4811 40.9509 25.4105 41.1016C25.331 41.2788 25.3133 41.4473 25.3398 41.6157C25.3663 41.7841 25.4634 41.9348 25.6224 42.0943C25.7813 42.2538 26.0197 42.3868 26.3287 42.5286C26.7966 42.7325 27.1674 42.8122 27.4412 42.7502C27.7149 42.6882 27.9091 42.5286 28.0239 42.2627C28.0857 42.1209 28.1122 41.9791 28.0857 41.8461C28.0592 41.7132 28.015 41.5891 27.9356 41.4738C27.8561 41.3586 27.7502 41.2611 27.6354 41.1813L27.9886 40.3836C28.1563 40.4811 28.3064 40.6052 28.4388 40.7382C28.5713 40.8711 28.6772 41.0307 28.7479 41.1991C28.8185 41.3763 28.8538 41.5713 28.845 41.7841C28.8361 42.0057 28.7743 42.245 28.6596 42.5109L28.6684 42.502Z" fill="white"/>
<path id="Vector_8" d="M30.6901 38.779C30.4782 39.107 30.2221 39.3463 29.9308 39.4881C29.6306 39.6299 29.3127 39.6831 28.9684 39.6477C28.6241 39.6034 28.2621 39.4704 27.9001 39.2311C27.5381 38.9918 27.2644 38.717 27.079 38.4156C26.8936 38.1143 26.8141 37.7952 26.8229 37.4584C26.8318 37.1216 26.9465 36.8025 27.1496 36.4745C27.3527 36.1554 27.6087 35.925 27.9001 35.7743C28.2003 35.6325 28.5181 35.5793 28.8713 35.6236C29.2244 35.6679 29.5776 35.8097 29.9484 36.0491C30.3104 36.2884 30.5841 36.5543 30.7607 36.8556C30.9373 37.157 31.0256 37.4672 31.0167 37.804C31.0079 38.132 30.8931 38.46 30.6812 38.7879L30.6901 38.779ZM30.1162 38.4068C30.2221 38.2384 30.2839 38.0611 30.2839 37.8927C30.2839 37.7243 30.2133 37.5381 30.0897 37.3609C29.9572 37.1836 29.7542 36.9975 29.4716 36.8202C29.1891 36.6341 28.9331 36.5188 28.7123 36.4656C28.4916 36.4213 28.2974 36.4302 28.1385 36.5011C27.9795 36.572 27.8383 36.6872 27.7323 36.8556C27.6264 37.0241 27.5734 37.1925 27.5734 37.3786C27.5734 37.5647 27.644 37.742 27.7765 37.9193C27.9089 38.0965 28.1208 38.2915 28.4033 38.4777C28.6859 38.6638 28.9331 38.779 29.1538 38.8145C29.3745 38.8588 29.5599 38.8411 29.7189 38.7702C29.8778 38.6993 30.0102 38.5752 30.125 38.4156L30.1162 38.4068Z" fill="white"/>
<path id="Vector_9" d="M32.1732 36.4749L29.1802 33.6563L30.0013 32.7788L32.7824 34.0994L31.2992 31.396L32.1203 30.5186L35.1133 33.3372L34.5394 33.9487L32.2527 31.7949L33.8684 34.6756L33.427 35.1542L30.478 33.7272L32.756 35.8721L32.1821 36.4837L32.1732 36.4749Z" fill="white"/>
<path id="Vector_10" d="M35.9258 32.6811L33.4448 29.4016L34.6456 28.4798C34.884 28.3025 35.1312 28.1784 35.3784 28.1164C35.6256 28.0544 35.8728 28.0632 36.1024 28.143C36.3319 28.2228 36.535 28.3734 36.7116 28.6039C36.8793 28.8255 36.9676 29.0471 36.9853 29.2687C37.0029 29.4991 36.9588 29.7207 36.844 29.9334C36.7292 30.1462 36.5615 30.3412 36.3231 30.5273L35.6962 31.0059L36.5791 32.1759L35.917 32.6811H35.9258ZM35.3078 30.4918L35.917 30.0221C36.0847 29.898 36.1818 29.7384 36.1995 29.5523C36.2172 29.3662 36.1818 29.1978 36.0582 29.0382C35.9346 28.8787 35.7845 28.79 35.5991 28.7723C35.4137 28.7634 35.246 28.8166 35.087 28.9407L34.4867 29.4016L35.3078 30.4918Z" fill="white"/>
<path id="Vector_11" d="M39.0428 30.4032L37.0386 26.8046L39.5019 25.4219L39.8374 26.0335L38.1069 27.0085L38.5925 27.8771L40.0934 27.035L40.4289 27.6378L38.9192 28.4887L39.4136 29.3839L41.1794 28.3912L41.5237 29.0116L39.0428 30.4121V30.4032Z" fill="white"/>
<path id="Vector_12" d="M42.3444 28.6039L40.9141 24.7394L41.6822 24.4557L44.3839 26.3525L43.4392 23.7998L44.2161 23.5073L45.6464 27.3718L44.949 27.6377L42.1325 25.6612L43.1213 28.3202L42.3444 28.6127V28.6039Z" fill="white"/>
<path id="Vector_13" d="M48.1803 26.8489C47.9772 26.8933 47.7829 26.9021 47.5799 26.8933C47.3768 26.8844 47.1914 26.8401 47.0148 26.7692C46.8382 26.6983 46.6793 26.6008 46.5557 26.4678C46.4233 26.3348 46.3262 26.1753 46.2643 25.9714L47.0943 25.803C47.1473 25.9183 47.2179 26.0158 47.315 26.0778C47.4121 26.1399 47.5269 26.193 47.6593 26.2108C47.7918 26.2285 47.9419 26.2196 48.1008 26.193C48.2332 26.1664 48.348 26.1221 48.454 26.0601C48.5599 25.998 48.6482 25.9271 48.7012 25.8296C48.7541 25.7321 48.7718 25.6346 48.7541 25.5194C48.7277 25.3864 48.657 25.2889 48.5422 25.2358C48.4275 25.1826 48.2774 25.156 48.1008 25.1471H47.315C47.0943 25.1294 46.8912 25.1028 46.7146 25.0408C46.538 24.9787 46.388 24.8812 46.2732 24.7483C46.1584 24.6153 46.0789 24.438 46.0348 24.2165C45.9818 23.9683 46.0083 23.7378 46.1143 23.5251C46.2202 23.3124 46.3791 23.1351 46.5999 22.9933C46.8206 22.8515 47.0766 22.7451 47.3768 22.6831C47.7123 22.6122 48.0037 22.6122 48.2597 22.6831C48.5158 22.7451 48.7188 22.8603 48.8778 23.0199C49.0367 23.1794 49.1426 23.3744 49.1868 23.6049L48.3745 23.7644C48.3303 23.6315 48.2685 23.5251 48.1803 23.4542C48.092 23.3833 47.986 23.339 47.8712 23.3212C47.7565 23.3035 47.624 23.3124 47.4828 23.339C47.2355 23.3833 47.0678 23.4719 46.9795 23.596C46.8912 23.7201 46.8559 23.8442 46.8824 23.9683C46.9089 24.0924 46.9707 24.181 47.0678 24.243C47.1649 24.3051 47.315 24.3317 47.5092 24.3317H48.2332C48.5069 24.3405 48.7277 24.376 48.9131 24.4558C49.0985 24.5355 49.2397 24.6419 49.3457 24.7837C49.4516 24.9255 49.5223 25.094 49.5576 25.2801C49.6017 25.5283 49.5752 25.7499 49.4781 25.9626C49.3722 26.1753 49.2133 26.3614 48.9925 26.5121C48.7718 26.6628 48.4981 26.778 48.1803 26.8401V26.8489Z" fill="white"/>
<path id="Vector_14" d="M50.2905 26.3969L51.5619 22.2133L52.436 22.1689L54.0959 26.2107L53.2748 26.2462L52.8951 25.3066L51.4206 25.3776L51.1293 26.3437L50.2994 26.3791L50.2905 26.3969ZM51.5707 24.6507L52.6567 24.5976L52.0387 22.9844L51.5707 24.6507Z" fill="white"/>
<path id="Vector_15" d="M55.2705 26.3258L55.5354 22.9577L54.2993 22.8602L54.3611 22.1245L57.6367 22.3816L57.5749 23.1172L56.3653 23.0197L56.1004 26.3879L55.2705 26.3258Z" fill="white"/>
<path id="Vector_16" d="M58.0425 26.6449L58.7841 22.5942L59.5964 22.7449L58.8548 26.7956L58.0425 26.6449Z" fill="white"/>
<path id="Vector_17" d="M61.5473 27.5491C61.1765 27.4339 60.8851 27.2566 60.6644 27.0084C60.4437 26.7603 60.3112 26.4678 60.2494 26.1221C60.1876 25.7764 60.2318 25.3953 60.3554 24.9787C60.4878 24.5621 60.6732 24.2253 60.9116 23.9682C61.1588 23.7112 61.4325 23.5428 61.7592 23.463C62.0859 23.3832 62.4214 23.401 62.7922 23.5162C63.1542 23.6314 63.4455 23.8087 63.6663 24.0569C63.887 24.305 64.0194 24.5975 64.0724 24.9521C64.1254 25.2978 64.0901 25.6878 63.9576 26.1044C63.8252 26.5209 63.6486 26.8578 63.4102 27.1148C63.1718 27.3718 62.8893 27.5402 62.5715 27.62C62.2536 27.6998 61.9093 27.6821 61.5385 27.5668L61.5473 27.5491ZM61.7504 26.8932C61.9446 26.9553 62.1212 26.9553 62.2889 26.9109C62.4567 26.8666 62.6068 26.7514 62.748 26.5741C62.8893 26.3969 63.0041 26.1487 63.1012 25.8296C63.2072 25.5016 63.2425 25.2269 63.2336 24.9964C63.216 24.766 63.1542 24.5887 63.0482 24.4469C62.9423 24.3051 62.7834 24.2076 62.598 24.1455C62.4037 24.0835 62.2271 24.0835 62.0594 24.1366C61.8916 24.1898 61.7327 24.3051 61.5914 24.4823C61.4502 24.6596 61.3266 24.9166 61.2294 25.2446C61.1323 25.5637 61.0882 25.8384 61.1058 26.06C61.1235 26.2816 61.1853 26.4589 61.3001 26.5918C61.4149 26.7248 61.5649 26.8223 61.7504 26.8843V26.8932Z" fill="white"/>
<path id="Vector_18" d="M64.1519 28.3825L65.9971 24.7041L66.7299 25.0764L67.1802 28.3559L68.3986 25.9184L69.1403 26.2907L67.295 29.9691L66.6328 29.6322L66.1649 26.2198L64.8935 28.7547L64.1519 28.3825Z" fill="white"/>
<path id="Vector_19" d="M69.4321 31.4046L71.9837 28.1782L74.1733 29.9243L73.7407 30.465L72.2133 29.2418L71.5688 30.0484L72.8931 31.1121L72.4693 31.6439L71.145 30.5802L70.0855 31.9186L69.4321 31.3957V31.4046Z" fill="white"/>
<path id="Vector_20" d="M73.3264 34.9589C73.0527 34.6664 72.885 34.3828 72.8143 34.1169C72.7437 33.851 72.7702 33.5939 72.8761 33.3458C72.9821 33.0976 73.1587 32.8583 73.4059 32.6278L75.2335 30.8994L75.8074 31.5199L73.9356 33.2926C73.7149 33.5053 73.6001 33.7092 73.6001 33.913C73.6001 34.1169 73.6796 34.303 73.8385 34.4803C73.9444 34.5955 74.0592 34.6753 74.1917 34.7196C74.3241 34.7639 74.4565 34.7728 74.5978 34.7285C74.7391 34.693 74.8892 34.5955 75.0392 34.4537L76.911 32.681L77.4849 33.2926L75.6308 35.0387C75.3924 35.2691 75.1452 35.4287 74.8892 35.5173C74.6331 35.606 74.3859 35.606 74.121 35.5173C73.8562 35.4287 73.5913 35.2426 73.3176 34.9501L73.3264 34.9589Z" fill="white"/>
<path id="Vector_21" d="M75.1006 36.8646L78.4998 34.5601L78.9589 35.2426L77.7581 38.3271L80.0096 36.8025L80.4687 37.4939L77.0695 39.7984L76.6545 39.178L77.9082 35.9694L75.5685 37.5559L75.1094 36.8646H75.1006Z" fill="white"/>
<path id="Vector_22" d="M77.5728 40.7201L81.2987 38.9917C81.2987 39.0094 81.334 39.0626 81.3693 39.1512C81.4046 39.2399 81.4576 39.3374 81.5106 39.4615C81.5635 39.5767 81.6165 39.7008 81.6695 39.816C81.7225 39.9312 81.7666 40.0376 81.8019 40.1174C81.9962 40.5783 82.0933 40.986 82.0668 41.3405C82.0491 41.6951 81.9344 42.0053 81.7225 42.2624C81.5106 42.5194 81.2192 42.741 80.8484 42.9094C80.4599 43.0867 80.0979 43.1753 79.7536 43.1576C79.4092 43.1487 79.0914 43.0335 78.8089 42.8119C78.5263 42.5903 78.2791 42.2624 78.0672 41.8103L77.564 40.7201H77.5728ZM78.5263 41.1987L78.6853 41.5444C78.7824 41.7571 78.9148 41.9344 79.0737 42.0674C79.2327 42.2003 79.4357 42.2801 79.6741 42.2978C79.9125 42.3155 80.1862 42.2535 80.4952 42.1117C80.7866 41.9787 80.9985 41.8192 81.1397 41.6419C81.281 41.4646 81.3516 41.2696 81.3516 41.0569C81.3516 40.8442 81.3075 40.6226 81.1927 40.3833L81.025 40.0287L78.5175 41.1899L78.5263 41.1987Z" fill="white"/>
</g>
<g id="Group_2">
<g id="Group_3">
<path id="Vector_23" d="M47.0061 61.5229V62.0459H42.8652V61.5229H43.0683V61.7002H46.803V61.5229H47.0061Z" fill="#25544B"/>
<path id="Vector_24" d="M46.8114 61.5229H43.0679V61.7002H46.8114V61.5229Z" fill="#25544B"/>
<path id="Vector_25" d="M46.8114 61.1948H43.0679V61.5228H46.8114V61.1948Z" fill="#25544B"/>
</g>
<g id="Group_4">
<path id="Vector_26" d="M40.2349 45.8699H67.3313L53.9288 39.5679L40.2349 45.8699Z" fill="#25544B"/>
<path id="Vector_27" d="M65.1238 46.6411H42.4331V48.0947H65.1238V46.6411Z" fill="#25544B"/>
<path id="Vector_28" d="M67.4195 63.1094H40.1465V64.0578H67.4195V63.1094Z" fill="#25544B"/>
<path id="Vector_29" d="M66.2365 62.2676H41.3208V62.9767H66.2365V62.2676Z" fill="#25544B"/>
<path id="Vector_30" d="M65.6708 46.0649H41.894V46.4372H65.6708V46.0649Z" fill="#25544B"/>
<path id="Vector_31" d="M44.5775 49.2202C44.4274 49.2202 44.3833 49.3797 44.3744 49.495L44.2155 60.9024C44.2155 61.0265 44.3303 61.124 44.4804 61.124M44.4892 61.124C44.6393 61.124 44.7629 61.0265 44.7629 60.9112V49.5038C44.7806 49.3797 44.7276 49.2291 44.5775 49.2202M43.8535 49.2202C43.7034 49.2202 43.6504 49.3709 43.6504 49.495L43.4121 60.9024C43.4121 61.0265 43.5268 61.124 43.6769 61.124M43.6769 61.124C43.827 61.124 43.9506 61.0265 43.9506 60.9112L44.0389 49.5038C44.0389 49.3797 43.9948 49.2291 43.8447 49.2202M45.381 61.124C45.531 61.124 45.6458 61.0265 45.6458 60.9024L45.4869 49.495C45.4869 49.3709 45.4339 49.2202 45.2838 49.2202M45.2927 49.2202C45.1426 49.2202 45.0984 49.3797 45.0984 49.5038V60.9112C45.1161 61.0353 45.2309 61.1328 45.381 61.124M46.1844 61.124C46.3345 61.124 46.4493 61.0176 46.4493 60.9024L46.2109 49.495C46.2109 49.3709 46.1579 49.2202 46.0078 49.2202M46.0166 49.2202C45.8666 49.2202 45.8224 49.3797 45.8224 49.5038L45.9107 60.9112C45.9107 61.0353 46.0343 61.1328 46.1844 61.124M42.8823 49.1759H46.9878V48.4668H42.8823V49.1759ZM43.2002 49.7077H46.6788V49.0341H43.2002V49.7077ZM48.9656 61.7001H52.7091V61.2037H48.9656V61.7001ZM48.7625 62.0458H52.9122V61.5317H48.7625V62.0458ZM54.8722 61.7001H58.6157V61.2037H54.8722V61.7001ZM54.6691 62.0458H58.8188V61.5317H54.6691V62.0458ZM60.8054 61.7001H64.5489V61.2037H60.8054V61.7001ZM60.6023 62.0458H64.752V61.5317H60.6023V62.0458ZM48.7801 49.1759H52.8857V48.4668H48.7801V49.1759ZM49.098 49.7077H52.5767V49.0695H49.098V49.7077ZM60.6199 49.1759H64.7255V48.4668H60.6199V49.1759ZM60.9378 49.7077H64.4164V49.0341H60.9378V49.7077ZM54.6868 49.1759H58.7923V48.4668H54.6868V49.1759ZM55.0047 49.7077H58.4833V48.9454H55.0047V49.7077ZM62.324 49.2202C62.1739 49.2202 62.1297 49.3797 62.1209 49.495L61.962 60.9024C61.962 61.0265 62.0767 61.124 62.2268 61.124M62.2357 61.124C62.3858 61.124 62.5094 61.0265 62.5094 60.9112V49.5038C62.527 49.3797 62.474 49.2291 62.324 49.2202M61.6 49.2202C61.4499 49.2202 61.3969 49.3709 61.3969 49.495L61.1585 60.9024C61.1585 61.0265 61.2733 61.124 61.4234 61.124M61.4234 61.124C61.5735 61.124 61.6971 61.0265 61.6971 60.9112L61.7854 49.5038C61.7854 49.3797 61.7412 49.2291 61.5911 49.2202M63.1186 61.124C63.2687 61.124 63.3834 61.0265 63.3834 60.9024L63.2245 49.495C63.2245 49.3709 63.1715 49.2202 63.0215 49.2202M63.0303 49.2202C62.8802 49.2202 62.836 49.3797 62.836 49.5038V60.9112C62.8537 61.0353 62.9685 61.1328 63.1186 61.124M63.9308 61.124C64.0809 61.124 64.1957 61.0176 64.1957 60.9024L63.9573 49.495C63.9573 49.3709 63.9044 49.2202 63.7543 49.2202M63.7631 49.2202C63.613 49.2202 63.5689 49.3797 63.5689 49.5038L63.6571 60.9112C63.6571 61.0353 63.7808 61.1328 63.9308 61.124M50.4842 49.2202C50.3341 49.2202 50.2899 49.3797 50.2811 49.495L50.1222 60.9024C50.1222 61.0265 50.2369 61.124 50.387 61.124M50.3959 61.124C50.546 61.124 50.6696 61.0265 50.6696 60.9112V49.5038C50.6784 49.3797 50.6343 49.2291 50.4842 49.2202M49.7602 49.2202C49.6101 49.2202 49.5571 49.3709 49.5571 49.495L49.3187 60.9024C49.3187 61.0265 49.4335 61.124 49.5836 61.124M49.5836 61.124C49.7337 61.124 49.8573 61.0265 49.8573 60.9112L49.9456 49.5038C49.9456 49.3797 49.9014 49.2291 49.7513 49.2202M51.2788 61.124C51.4289 61.124 51.5436 61.0265 51.5436 60.9024L51.3847 49.495C51.3847 49.3709 51.3318 49.2202 51.1817 49.2202M51.1905 49.2202C51.0404 49.2202 50.9962 49.3797 50.9962 49.5038V60.9112C51.0051 61.0353 51.1287 61.1328 51.2788 61.124M52.0911 61.124C52.2411 61.124 52.3559 61.0176 52.3559 60.9024L52.1175 49.495C52.1175 49.3709 52.0646 49.2202 51.9145 49.2202M51.9233 49.2202C51.7732 49.2202 51.7291 49.3797 51.7291 49.5038L51.8173 60.9112C51.8173 61.0353 51.941 61.1328 52.0911 61.124M56.3908 49.2202C56.2407 49.2202 56.1966 49.3797 56.1877 49.495L56.0288 60.9024C56.0288 61.0265 56.1436 61.124 56.2937 61.124M56.3025 61.124C56.4526 61.124 56.5762 61.0265 56.5762 60.9112V49.5038C56.5939 49.3797 56.5409 49.2291 56.3908 49.2202M55.658 49.2202C55.5079 49.2202 55.4549 49.3709 55.4549 49.495L55.2165 60.9024C55.2165 61.0265 55.3313 61.124 55.4814 61.124M55.4902 61.124C55.6403 61.124 55.7639 61.0265 55.7639 60.9112L55.8522 49.5038C55.8522 49.3797 55.8081 49.2291 55.658 49.2202M57.1854 61.124C57.3355 61.124 57.4503 61.0265 57.4503 60.9024L57.2914 49.495C57.2914 49.3709 57.2384 49.2202 57.0883 49.2202M57.0971 49.2202C56.947 49.2202 56.9029 49.3797 56.9029 49.5038V60.9112C56.9117 61.0353 57.0353 61.1328 57.1854 61.124M57.9977 61.124C58.1478 61.124 58.2626 61.0176 58.2626 60.9024L58.0242 49.495C58.0242 49.3709 57.9712 49.2202 57.8211 49.2202M57.8211 49.2202C57.671 49.2202 57.6269 49.3797 57.6269 49.5038L57.7152 60.9112C57.7152 61.0353 57.8388 61.1328 57.9889 61.124" fill="#25544B"/>
<path id="Vector_32" d="M44.8873 47.8907C45.0726 47.8907 45.2228 47.6684 45.2228 47.3943C45.2228 47.1202 45.0726 46.8979 44.8873 46.8979C44.702 46.8979 44.5518 47.1202 44.5518 47.3943C44.5518 47.6684 44.702 47.8907 44.8873 47.8907Z" fill="#25544B"/>
<path id="Vector_33" d="M51.1915 47.3943C51.1915 47.6691 51.0414 47.8907 50.856 47.8907C50.6706 47.8907 50.5205 47.6691 50.5205 47.3943C50.5205 47.1195 50.6706 46.8979 50.856 46.8979C51.0414 46.8979 51.1915 47.1195 51.1915 47.3943Z" fill="#25544B"/>
<path id="Vector_34" d="M56.816 47.8907C57.0013 47.8907 57.1515 47.6684 57.1515 47.3943C57.1515 47.1202 57.0013 46.8979 56.816 46.8979C56.6307 46.8979 56.4805 47.1202 56.4805 47.3943C56.4805 47.6684 56.6307 47.8907 56.816 47.8907Z" fill="#25544B"/>
<path id="Vector_35" d="M62.7837 47.8907C62.969 47.8907 63.1193 47.6684 63.1193 47.3943C63.1193 47.1202 62.969 46.8979 62.7837 46.8979C62.5985 46.8979 62.4482 47.1202 62.4482 47.3943C62.4482 47.6684 62.5985 47.8907 62.7837 47.8907Z" fill="#25544B"/>
</g>
</g>
<g id="Group_5">
<path id="Vector_36" d="M23.645 78.7622V77.6277H29.7724V78.7622H23.645ZM23.645 81.1199V79.9677H29.7724V81.1199H23.645ZM29.2515 84.7629C28.5893 84.7629 27.9801 84.6299 27.4327 84.3729C26.8853 84.1158 26.4085 83.7347 26.0112 83.2561C25.6139 82.7774 25.3049 82.1924 25.093 81.5277C24.8811 80.8629 24.7751 80.1184 24.7751 79.2941C24.7751 78.4697 24.9606 77.2643 25.3402 76.4754C25.7199 75.6866 26.2408 75.075 26.9118 74.6407C27.5828 74.2152 28.3597 73.9937 29.2515 73.9937C30.1432 73.9937 30.5229 74.1266 31.0791 74.3836C31.6353 74.6407 32.0944 74.9952 32.4653 75.4473L31.0173 76.5552C30.8054 76.3248 30.5758 76.1298 30.3286 75.9436C30.0814 75.7575 29.7812 75.6777 29.4281 75.6777C29.0749 75.6777 28.5805 75.8018 28.245 76.05C27.9095 76.2982 27.6623 76.697 27.4768 77.2288C27.3003 77.7607 27.212 78.4609 27.212 79.3206C27.212 80.1804 27.3091 80.8629 27.5033 81.4036C27.6976 81.9443 27.9713 82.3343 28.3156 82.5913C28.6688 82.8483 29.0661 82.9724 29.5252 82.9724C29.9843 82.9724 30.2139 82.8749 30.5405 82.6799C30.8672 82.4849 31.1232 82.2722 31.3175 82.0418L32.4476 83.2561C32.0856 83.6815 31.6177 84.0361 31.0614 84.3197C30.5052 84.6033 29.896 84.7451 29.2427 84.7451L29.2515 84.7629Z" fill="white"/>
<path id="Vector_37" d="M33.8597 84.6123V83.0346C33.8597 82.5028 33.9568 82.0419 34.1599 81.6519C34.3542 81.2619 34.619 80.9251 34.9457 80.6326C35.2724 80.3401 35.6255 80.0919 36.014 79.8792C36.4025 79.6576 36.791 79.4537 37.1795 79.2588C37.5679 79.0638 37.9299 78.8688 38.2478 78.6738C38.5745 78.4788 38.8305 78.2572 39.0336 78.0179C39.2278 77.7785 39.3338 77.4949 39.3338 77.1581C39.3338 76.8213 39.1925 76.3958 38.8923 76.1299C38.6009 75.864 38.2036 75.7311 37.7004 75.7311C37.1971 75.7311 36.7292 75.8817 36.3672 76.192C36.0052 76.4933 35.7756 76.9542 35.6873 77.5658H33.6743C33.6831 76.901 33.8421 76.2983 34.1423 75.7488C34.4424 75.2081 34.8927 74.7738 35.4931 74.4547C36.0935 74.1356 36.8528 73.9761 37.7622 73.9761C38.6716 73.9761 39.219 74.109 39.784 74.3749C40.3491 74.6408 40.7906 75.0131 41.0907 75.4829C41.3909 75.9526 41.5499 76.5111 41.5499 77.1404C41.5499 77.7697 41.4527 78.1242 41.2585 78.5053C41.0643 78.8865 40.8082 79.2144 40.4904 79.4803C40.1725 79.7462 39.8282 79.9856 39.4397 80.1894C39.0601 80.3933 38.6804 80.5794 38.3008 80.7567C37.9211 80.934 37.5768 81.1112 37.2589 81.2885C36.9411 81.4658 36.685 81.6696 36.4908 81.9001C36.2966 82.1305 36.1994 82.3964 36.1994 82.7155V82.813H41.5234V84.5946H33.8509L33.8597 84.6123Z" fill="white"/>
<path id="Vector_38" d="M46.8825 84.7718C45.62 84.7718 44.6311 84.3109 43.916 83.3891C43.2008 82.4673 42.8477 81.1378 42.8477 79.4005C42.8477 77.6632 43.0066 77.2555 43.3421 76.4489C43.6688 75.6424 44.1367 75.0308 44.7371 74.6142C45.3375 74.1976 46.0526 73.9849 46.8825 73.9849C48.1274 73.9849 49.1075 74.4458 49.8226 75.3764C50.5378 76.3071 50.8998 77.6455 50.8998 79.3916C50.8998 81.1378 50.5466 82.4584 49.8403 83.3802C49.134 84.302 48.1451 84.7718 46.8825 84.7718ZM46.8825 83.0434C47.5006 83.0434 47.9597 82.7598 48.2511 82.2014C48.5424 81.643 48.6837 80.7123 48.6837 79.4005C48.6837 78.0887 48.5336 77.1048 48.2422 76.5198C47.9509 75.9348 47.4918 75.6512 46.8737 75.6512C46.2557 75.6512 45.7966 75.9437 45.4964 76.5287C45.1962 77.1137 45.0461 78.071 45.0461 79.4005C45.0461 80.73 45.1962 81.6341 45.4964 82.2014C45.7966 82.7686 46.2557 83.0434 46.8825 83.0434Z" fill="white"/>
<path id="Vector_39" d="M52.1982 86.6423L53.037 84.6745L52.3042 84.6125V82.5562H54.432V84.3643L52.984 86.6511H52.2071L52.1982 86.6423Z" fill="white"/>
<path id="Vector_40" d="M60.1882 84.7718C58.9257 84.7718 57.9368 84.3109 57.2216 83.3891C56.5065 82.4673 56.1533 81.1378 56.1533 79.4005C56.1533 77.6632 56.3122 77.2555 56.6477 76.4489C56.9744 75.6424 57.4424 75.0308 58.0427 74.6142C58.6431 74.1976 59.3583 73.9849 60.1882 73.9849C61.4331 73.9849 62.4131 74.4458 63.1283 75.3764C63.8434 76.3071 64.2054 77.6455 64.2054 79.3916C64.2054 81.1378 63.8523 82.4584 63.146 83.3802C62.4396 84.302 61.4508 84.7718 60.1882 84.7718ZM60.1882 83.0434C60.8062 83.0434 61.2654 82.7598 61.5567 82.2014C61.8481 81.643 61.9893 80.7123 61.9893 79.4005C61.9893 78.0887 61.8392 77.1048 61.5479 76.5198C61.2565 75.9348 60.7974 75.6512 60.1794 75.6512C59.5613 75.6512 59.1022 75.9437 58.802 76.5287C58.5019 77.1137 58.3518 78.071 58.3518 79.4005C58.3518 80.73 58.5019 81.6341 58.802 82.2014C59.1022 82.7686 59.5613 83.0434 60.1882 83.0434Z" fill="white"/>
<path id="Vector_41" d="M69.4499 84.7718C68.1874 84.7718 67.1985 84.3109 66.4834 83.3891C65.7682 82.4673 65.415 81.1378 65.415 79.4005C65.415 77.6632 65.574 77.2555 65.9095 76.4489C66.2361 75.6424 66.7041 75.0308 67.3045 74.6142C67.9048 74.1976 68.62 73.9849 69.4499 73.9849C70.6948 73.9849 71.6749 74.4458 72.39 75.3764C73.1052 76.3071 73.4672 77.6455 73.4672 79.3916C73.4672 81.1378 73.114 82.4584 72.4077 83.3802C71.7013 84.302 70.7125 84.7718 69.4499 84.7718ZM69.4499 83.0434C70.068 83.0434 70.5271 82.7598 70.8184 82.2014C71.1098 81.643 71.2511 80.7123 71.2511 79.4005C71.2511 78.0887 71.101 77.1048 70.8096 76.5198C70.5183 75.9348 70.0591 75.6512 69.4411 75.6512C68.8231 75.6512 68.364 75.9437 68.0638 76.5287C67.7636 77.1137 67.6135 78.071 67.6135 79.4005C67.6135 80.73 67.7636 81.6341 68.0638 82.2014C68.364 82.7686 68.8231 83.0434 69.4499 83.0434Z" fill="white"/>
<path id="Vector_42" d="M78.7199 84.7718C77.4574 84.7718 76.4685 84.3109 75.7534 83.3891C75.0382 82.4673 74.6851 81.1378 74.6851 79.4005C74.6851 77.6632 74.844 77.2555 75.1795 76.4489C75.5062 75.6424 75.9741 75.0308 76.5745 74.6142C77.1749 74.1976 77.89 73.9849 78.7199 73.9849C79.9648 73.9849 80.9449 74.4458 81.66 75.3764C82.3752 76.3071 82.7372 77.6455 82.7372 79.3916C82.7372 81.1378 82.384 82.4584 81.6777 83.3802C80.9714 84.302 79.9825 84.7718 78.7199 84.7718ZM78.7199 83.0434C79.338 83.0434 79.7971 82.7598 80.0885 82.2014C80.3798 81.643 80.5211 80.7123 80.5211 79.4005C80.5211 78.0887 80.371 77.1048 80.0796 76.5198C79.7883 75.9348 79.3292 75.6512 78.7111 75.6512C78.0931 75.6512 77.634 75.9437 77.3338 76.5287C77.0336 77.1137 76.8835 78.071 76.8835 79.4005C76.8835 80.73 77.0336 81.6341 77.3338 82.2014C77.634 82.7686 78.0931 83.0434 78.7199 83.0434Z" fill="white"/>
</g>
</g>
<defs>
<linearGradient id="paint0_linear_6246_1047" x1="14.7443" y1="40.5784" x2="92.8087" y2="72.1863" gradientUnits="userSpaceOnUse">
<stop stop-color="#316E61"/>
<stop offset="1" stop-color="#193634"/>
</linearGradient>
<linearGradient id="paint1_linear_6246_1047" x1="53.4955" y1="66.2914" x2="53.4955" y2="89.9482" gradientUnits="userSpaceOnUse">
<stop stop-color="#4AA6B4"/>
<stop offset="1" stop-color="#204B52"/>
</linearGradient>
</defs>
</svg>
