<svg width="85" height="86" viewBox="0 0 85 86" fill="none" xmlns="http://www.w3.org/2000/svg">
<g id="Frame 1000005278">
<g id="Group 165648">
<path id="Path 85290" d="M22.2148 69.9455L22.222 69.9276V69.9258L22.2148 69.9455Z" fill="white"/>
<path id="Path 85291" d="M80.1815 59.5728L80.1797 59.5737L80.194 59.5684L80.1815 59.5728Z" fill="white"/>
<path id="Path 85292" d="M72.4986 68.0805L72.4995 68.0787L72.4941 68.0742L72.4986 68.0805Z" fill="white"/>
<path id="Path 85293" d="M11.4358 67.042L11.4393 67.0402L11.416 67.0312L11.4358 67.042Z" fill="white"/>
<path id="Path 85294" d="M8.75549 75.3168H8.75997L8.74023 75.3105L8.75549 75.3168Z" fill="white"/>
<path id="Path 85295" d="M33.6914 84.0488V84.0704L33.6941 84.0488H33.6914Z" fill="white"/>
<g id="Group 165649">
<g id="Group 165648_2">
<path id="Path 85296" d="M84.0738 67.3953L84.0649 67.3926L84.0738 67.3935V67.3953ZM84.0523 67.3863C82.6915 70.299 79.4846 71.6481 76.8097 72.8923V72.8905C76.5011 72.9757 76.2132 73.095 75.8723 73.0986C75.0919 70.9744 74.4918 68.7866 73.9132 66.5772C74.1752 66.4427 74.6201 66.4812 74.9358 66.2722V66.2704C77.7722 65.3187 81.0428 63.8494 82.2556 60.7268C82.4412 60.873 82.5265 61.2291 82.6646 61.4929L82.6655 61.492C83.1257 63.4457 84.4021 65.1824 84.0532 67.3872L84.0523 67.3863ZM75.8589 73.1183L75.8598 73.1174V73.1201L75.8589 73.1183ZM75.4561 77.1191C69.7708 80.3582 63.5643 81.8715 57.1326 83.2816C55.8274 83.4251 54.4173 83.6978 53.1292 83.8844C48.4628 84.4657 43.2978 84.5868 38.4834 84.4657C36.8231 84.4002 35.3089 84.2567 33.6915 84.071C31.3019 83.9669 29.0638 83.4682 26.7827 83.0735C20.7843 81.7854 14.7473 80.2326 9.4342 77.2446C8.76233 76.7584 8.61522 76.0435 8.7408 75.3142V75.3098C9.36513 73.0286 10.2541 70.8731 10.8964 68.5919C11.0435 68.0546 11.1475 67.5128 11.4166 67.0311L11.4337 67.0051L11.4516 67.0266C13.4376 69.1992 16.0874 69.9455 18.6422 70.8605C22.1271 71.8751 25.5699 72.9335 29.1723 73.6189H29.1768C32.0347 74.3822 35.2093 74.6119 38.3193 74.924C42.86 75.5053 47.4609 74.7985 51.7765 74.3652C55.1331 73.888 58.3902 73.1201 61.5818 72.2052C65.3592 71.1467 69.1922 70.2586 72.4834 68.0645L72.4816 68.0636L73.314 67.1092L73.3275 67.0957L73.3445 67.1092L73.5096 67.2733L73.5132 67.2778V67.2868C74.1384 69.7545 74.9448 72.1352 75.7943 74.4988V74.5033C76.0024 75.3537 76.215 76.4813 75.4561 77.1191ZM8.58472 73.0161H8.58023L8.57754 73.0286L8.57395 73.0358L8.58023 73.0161C6.11252 72.2087 3.77487 71.0256 1.82743 69.0602C0.977949 68.1066 0.19664 66.9315 0.652329 65.6605V65.656C1.08559 64.0225 1.85255 62.5101 2.32976 60.8721L2.49482 60.5788C2.7424 61.2704 3.1344 61.9432 3.60175 62.5119C5.47114 64.8146 8.24923 65.6273 10.856 66.4965C10.7914 67.2545 10.4398 67.9954 10.2756 68.757L10.2971 68.7615V68.7642L10.2756 68.757C9.90424 69.9778 9.50955 71.1763 9.11576 72.3801C8.98838 72.4904 8.99197 72.7191 8.94891 72.8905C8.93187 72.9721 8.90137 73.0376 8.85382 73.0681C8.83678 73.0771 8.81615 73.0825 8.78924 73.0825C8.7408 73.0825 8.67532 73.0636 8.58472 73.0161ZM10.8964 66.4848L10.8766 66.4821L10.8775 66.4803L10.8964 66.4848ZM4.77774 59.3059H4.77954L4.78133 59.3086L4.77774 59.3059ZM4.7912 59.323C5.58327 58.9346 6.46953 59.323 7.24008 59.5096C7.72896 59.7159 8.22142 59.9984 8.63047 60.2684L7.60875 63.2161C6.33319 62.5944 5.14642 61.5018 4.63332 60.1267C4.61179 59.8433 4.61718 59.5392 4.7912 59.323ZM3.05456 59.0162C3.18104 58.3309 3.84394 57.7496 4.52927 57.624C4.55887 57.624 4.58847 57.6231 4.61718 57.6231C5.97438 57.6231 7.2921 58.1102 8.49322 58.539C9.13549 58.8691 9.85939 59.0332 10.4021 59.6145C10.2541 60.5295 9.79929 61.2973 9.56875 62.1692C9.27901 62.729 9.25659 63.3919 8.92738 63.9301C8.65827 63.887 8.38917 63.704 8.20259 63.5785C8.26358 63.0582 8.51116 62.4599 8.61522 61.9396C8.84485 61.4193 9.09243 60.9026 9.21802 60.3438C9.3436 59.9051 8.84485 59.7401 8.57575 59.5759C7.45267 58.9292 6.06498 58.4959 4.77685 58.6215C4.46827 58.704 4.15611 58.9731 4.05205 59.2638C3.80537 61.1717 5.60929 62.4984 6.97546 63.4968C8.28511 64.2808 9.65128 64.8451 11.0829 65.3223C11.187 65.4649 11.0829 65.7125 11.0004 65.882C9.32207 65.5474 7.74331 64.9061 6.29461 64.0126C4.46827 62.9972 2.74688 61.1287 3.05456 59.0162ZM66.5047 67.2446V67.2482L66.5182 67.2652C65.7629 67.703 64.9735 67.8941 64.1195 67.8286H64.1025L64.098 67.816C64.0765 67.7505 64.0854 67.6949 64.1195 67.6599C64.1545 67.6249 64.202 67.6079 64.2541 67.59C64.3581 67.5604 64.4837 67.5379 64.5402 67.4644L64.5447 67.4599L64.5492 67.4563C65.2166 67.2697 65.7808 67.2697 66.5047 67.2258V67.2446ZM70.9154 66.7055C70.5817 66.9136 70.2695 67.1217 69.9134 67.2697L69.8533 67.2913L69.8883 67.2392C70.1 66.901 70.7467 66.4023 71.2885 66.2328L71.3235 66.2247L71.3146 66.2588C71.2715 66.4525 71.0616 66.6212 70.9145 66.7037L70.9154 66.7055ZM62.4591 69.4073V69.3813L62.4842 69.3858L63.6468 69.6549L63.7033 69.6675L63.6513 69.6935C63.4432 69.7975 62.983 69.9455 62.5623 69.9455H62.5542L62.5497 69.9366C62.4367 69.802 62.4627 69.5509 62.4591 69.4073ZM14.9769 67.1917L14.9554 67.2258C14.4351 67.0177 13.7677 66.6669 13.5767 66.1763L13.5587 66.1377L13.5982 66.1502C14.1472 66.3189 14.5795 66.7979 14.9733 67.1872L14.9769 67.1917ZM22.4671 69.3338L22.45 69.3724C22.3675 69.5464 22.459 69.846 22.2285 69.9455H22.224H22.2159L21.222 69.6549L21.1574 69.6334L21.222 69.6154C21.6176 69.4899 22.0338 69.4468 22.424 69.3428L22.4671 69.3338ZM18.408 67.1827L18.469 67.1872C19.2755 67.2258 20.0909 67.2258 20.7582 67.6249L20.7717 67.6294V67.6429C20.7717 67.7075 20.7502 67.755 20.7107 67.7765C20.6712 67.799 20.6237 67.8026 20.5761 67.8026C20.4811 67.799 20.377 67.781 20.3295 67.825L20.3205 67.8331L20.3115 67.8286C19.7311 67.703 18.9588 67.6429 18.4556 67.2222L18.408 67.1827ZM11.7288 65.4873C11.9764 65.0101 12.4321 64.8235 12.9299 64.7195C15.5017 64.802 16.8293 67.7685 19.2755 68.2017C20.0254 68.3668 20.9753 68.5139 21.5395 67.9111C21.7037 67.4778 21.1834 67.2697 20.9583 67.0831C19.7957 66.5234 18.3255 66.5844 16.9943 66.5234C16.7898 66.3583 16.5817 66.2328 16.3951 66.0031C18.0133 65.8165 19.7347 66.1072 21.2704 66.4409C21.7647 66.7925 22.5756 66.8966 22.7012 67.6429C22.8053 68.1192 22.5541 68.5579 22.1809 68.722C20.9753 69.2207 19.9428 68.9301 18.6771 68.7615C17.4321 68.5363 16.3736 67.8286 15.4416 66.8356C14.7132 66.1287 13.9283 65.2353 12.9299 65.5699C12.7442 65.7555 12.7227 66.0677 12.8043 66.3153L13.0349 66.6885C14.6737 67.9766 16.5386 68.6789 18.4251 69.3248C19.1104 69.5293 19.8567 69.863 20.6237 70.0711C25.2514 71.2938 29.628 72.7254 34.5634 73.2242C36.6185 73.5758 39.0037 73.6574 41.0767 73.8664L41.1593 73.7839C47.2572 73.801 52.7129 73.0986 58.3947 71.7064C59.6173 71.3763 60.6758 71.0426 61.9209 70.752C64.6568 70.0711 67.3981 69.1167 69.9879 67.9111C70.7548 67.3298 72.2519 67.0831 72.0214 65.795C71.8564 65.4649 71.4186 65.5259 71.1109 65.5699C69.4281 66.3153 68.4566 68.4708 66.5872 68.722C65.0955 68.8871 63.2916 69.6334 62.1891 68.2457C62.1721 67.8896 62.1721 67.5164 62.3981 67.2482C63.3956 66.2938 64.7833 66.2722 66.11 66.0462H68.4961C68.1014 67.1047 66.8779 66.3763 66.1925 66.649C65.2821 66.7925 64.2236 66.814 63.4781 67.4778C63.3956 67.6429 63.2476 67.8725 63.4342 68.0367C64.4532 68.8045 65.8409 68.1192 66.8994 67.7685C68.7643 66.814 70.135 64.1597 72.5811 65.0101C72.8933 65.1312 73.1014 65.4873 73.1409 65.795C73.123 66.5844 72.5811 67.2697 71.9389 67.6859C70.5297 68.783 68.8684 69.3858 67.2286 70.0281C61.6087 71.9145 55.6148 73.3237 49.5384 74.1131C47.7784 74.1956 45.9915 74.4648 44.1867 74.5509C39.9151 74.5903 35.7036 74.2602 31.536 73.5148C31.2023 73.5973 30.8937 73.3668 30.5385 73.3892C25.1043 72.1657 19.6917 70.9816 14.6307 68.722C13.4511 68.0367 11.4552 67.2087 11.7288 65.4873ZM36.0373 67.4339C35.2048 67.0831 34.5024 66.5234 33.6915 66.1287C33.1973 65.7555 32.6115 65.5259 32.1388 65.0926C29.1723 63.4098 27.2419 60.7555 27.3029 57.3334C27.468 56.7351 27.1603 55.8802 27.407 55.3429C27.4671 55.3079 27.5344 55.2962 27.6061 55.2962C27.8331 55.2962 28.1058 55.4119 28.339 55.3034L28.5265 55.2173C28.5695 55.3644 28.3829 55.6335 28.6521 55.7806C28.9857 55.7986 29.2549 55.6936 29.567 55.5896C29.1894 59.1202 30.9332 62.1477 33.9606 63.765C36.9486 65.4218 40.1017 66.875 42.634 69.5069C43.0251 69.5293 43.0251 69.0736 43.2762 68.8871C46.1557 66.0856 49.89 64.9276 52.9821 62.5594C55.0551 60.7555 56.0095 58.2268 55.6794 55.5079C56.0526 55.5079 56.5083 55.9017 56.7989 55.5079L56.6518 55.0307C56.9631 55.3034 57.4412 55.3214 57.7749 55.1348C57.9614 55.4075 57.9614 55.9017 57.9614 56.2534C58.2296 59.7401 56.7549 62.8106 53.8109 64.5329C50.1196 67.2258 45.8041 68.8655 42.7165 72.5604L42.5909 72.5998C40.8471 70.3618 38.2969 68.9301 36.0373 67.4339ZM27.7003 54.1794L27.5756 54.4288C27.4716 54.3875 27.5756 54.2629 27.6169 54.1794H27.7003ZM27.0159 53.5784C27.2653 53.3703 27.6797 53.4537 27.9694 53.2259C28.3228 52.9146 28.4466 52.4993 28.7785 52.1468C28.426 52.7487 28.0528 53.5578 27.2653 53.6197L27.0159 53.5784ZM26.301 53.382C26.405 53.591 26.6311 53.9247 26.7522 54.0592C26.8733 54.1938 26.8867 54.4055 26.8437 54.5705C26.7997 54.7356 26.7217 54.8271 26.7091 55.0397C26.6912 55.2478 26.6176 55.9546 26.6176 55.9546C26.6176 55.9546 26.344 54.0153 24.7177 51.8167C24.0333 50.8891 23.2744 50.3384 23.2744 50.3384C23.2744 50.3384 23.3174 50.0818 23.6511 49.7087C23.9812 49.3319 26.1799 46.1529 26.466 45.6846C26.7522 45.22 27.0257 44.6907 27.2814 44.6907C27.459 44.6907 28.0618 45.0684 28.2134 45.2944C28.2134 45.2944 28.2744 46.5906 28.6646 47.2239C28.6646 47.2239 27.5676 51.2139 27.4895 51.3179C27.416 51.422 26.527 51.8167 26.466 51.8606C26.405 51.9037 26.2839 51.9943 26.5135 52.2804C26.7396 52.5675 27.0078 52.8231 26.8437 52.9622C26.6786 53.0958 26.6176 53.1398 26.6176 53.1398C26.6176 53.1398 26.1969 53.1703 26.301 53.382ZM25.7502 59.3651C25.9368 56.4615 23.9669 53.9929 21.623 52.4159C21.6651 52.1261 21.9549 51.7736 22.2661 51.6283C22.328 51.9602 22.0993 52.4159 22.3908 52.624C22.8887 52.1468 22.2455 51.0686 22.9506 50.7573L23.2609 51.3798C23.4072 52.0436 23.6763 52.7899 23.5103 53.495C23.5722 53.5372 23.6144 53.5991 23.6969 53.5784L23.8637 51.587C24.6307 52.5199 24.7132 53.8269 24.7751 55.0298C24.8173 55.1339 24.8998 55.1339 24.9832 55.0917C25.4183 54.5939 25.0254 53.8897 25.1492 53.2672C25.7708 54.1794 25.7502 55.507 25.6677 56.544C25.7295 56.5853 25.7708 56.6687 25.8542 56.6274C25.9996 56.4821 26.083 56.2946 26.1036 56.0668C26.3108 57.1253 26.1449 58.3282 25.7502 59.3651ZM23.3345 55.7286C23.304 56.1233 23.2744 58.2008 20.1734 58.53H20.1707C20.098 58.53 18.1309 58.5094 17.9479 57.1468C17.8528 56.4229 19.3885 54.5275 19.7787 54.1938C20.1734 53.8637 21.2274 52.8321 21.2274 52.8321C21.2274 52.8321 22.8017 53.8377 23.2179 54.514C23.2179 54.514 23.365 55.3384 23.3345 55.7286ZM22.224 62.2518C21.2704 63.1012 20.0038 62.6464 18.9023 62.4599C17.8052 62.0221 16.7683 61.2543 16.0829 60.2613C16.5602 60.4039 17.1809 60.2613 17.5146 59.8881C17.8052 59.9877 17.8268 60.3653 17.9918 60.612C18.1174 61.1717 17.2455 60.9636 17.5146 61.4193C17.8438 61.5225 18.0304 61.2973 18.2385 61.1287V61.0462C18.7588 61.1502 19.1319 61.7091 19.6701 61.649C19.7527 61.605 19.7132 61.5054 19.7132 61.4193C19.297 61.1933 18.8413 60.9242 18.5507 60.4864C18.469 60.3214 18.2816 60.1958 18.2816 60.0092C19.5266 60.6515 21.1664 60.4254 22.1809 61.5225C22.2419 61.7315 22.4106 62.0437 22.224 62.2518ZM15.3178 58.7848C15.9601 59.1158 16.6866 58.9498 17.3504 58.7426L17.433 58.8879C17.537 59.1786 17.2267 59.3032 17.2473 59.5723C16.9764 59.7589 16.7073 60.0083 16.3547 59.9661C16.2094 59.9249 15.9807 59.9042 15.795 59.8836C15.6291 59.5105 15.3797 59.1992 15.3178 58.7848ZM14.8818 57.4984C15.6291 57.851 16.6032 57.9541 17.3917 57.5818C17.4123 57.8716 17.3711 58.1622 17.0804 58.286C16.4373 58.5767 15.6703 58.6807 15.0899 58.1829C14.8818 58.0169 14.9653 57.7263 14.8818 57.4984ZM14.7159 55.9017C15.525 56.4821 16.6454 56.6068 17.6402 56.4615C17.6402 56.7306 17.5164 56.9378 17.3092 57.1046C16.7494 57.2903 15.9394 57.5191 15.3178 57.2491C15.028 57.1872 14.8818 56.9378 14.7159 56.7306V55.9017ZM14.7571 54.0548C15.5672 55.1958 16.9351 55.3626 18.2421 55.2998C18.1587 55.5483 17.973 55.8389 17.6814 55.9017C16.9764 56.1708 16.0641 56.0883 15.359 55.8596C15.1106 55.6936 14.7778 55.507 14.6746 55.2164C14.5715 54.8226 14.654 54.4082 14.7571 54.0548ZM14.2799 53.7856C14.1561 53.7856 13.9696 53.4331 13.8027 53.3084C14.0108 53.1218 14.2799 52.8106 14.4468 52.5415C14.4046 52.9559 14.4046 53.4116 14.2799 53.7856ZM14.1561 50.5501C14.6746 50.3007 15.2344 49.7616 15.2344 49.1193C15.2765 48.7246 15.0065 48.434 14.8818 48.0815C15.2137 47.7289 15.7116 47.5011 16.0022 47.0445C15.4003 48.5174 15.0899 50.1554 14.6334 51.6283C14.4674 51.2551 14.4261 50.8613 14.1561 50.5501ZM10.0908 49.2646C8.94981 49.9482 8.70043 51.2551 8.80449 52.4159C8.99197 53.495 9.61361 54.4082 9.61361 55.5483C8.97044 54.5939 7.49752 54.2422 7.24905 52.9765C7.26968 52.2715 7.0831 51.6489 6.73057 51.1098C6.85525 50.5501 6.97904 49.9688 7.10373 49.3884C7.12526 49.2431 7.0831 49.1193 6.97904 49.0359H6.93778V48.9112C7.26968 47.9774 7.93348 46.9413 9.05386 46.8786C9.42702 46.422 8.59728 46.4013 8.45196 46.0694C8.20348 45.7994 8.14069 45.4684 7.97474 45.1572C8.3488 44.8468 8.88791 44.6593 9.36513 44.8468C9.44765 44.8881 9.53108 44.9706 9.65487 44.95C9.86298 44.8468 9.73829 44.6799 9.69613 44.5553C8.6798 43.913 8.39006 42.606 8.49412 41.4856C8.92918 40.9465 8.49412 40.0961 8.76323 39.4117C8.80449 39.3292 8.90854 39.5364 9.05386 39.453C9.3436 38.6654 9.6755 37.8769 10.0908 37.1306L10.2155 37.0884C10.2155 37.1925 10.2568 37.2759 10.3599 37.3378H10.5268L11.6472 36.1762C11.8328 37.1306 11.3144 38.0841 11.335 39.1211C11.2318 41.1959 11.5009 43.1658 12.9326 44.7221C13.4511 45.2612 13.9696 45.7582 14.5715 46.1941C13.7614 46.256 12.7873 45.8622 11.9988 46.3601C11.7503 46.6301 11.7503 47.066 11.8122 47.397C12.1235 47.8949 12.5379 48.1855 13.0358 48.3927L13.077 48.3515C12.8501 47.8124 11.9369 47.6051 12.2894 46.8786C12.7245 46.3807 13.2636 46.7745 13.8449 46.7126C14.3221 46.8579 14.8818 46.7951 15.359 46.9207C15.1518 47.4805 14.4674 47.5424 14.1149 47.9155C14.1561 48.3721 14.8406 48.538 14.6746 49.0772C13.2842 48.6834 11.3772 48.4959 10.0908 49.2646ZM16.4373 44.4315C16.7279 44.244 16.8732 43.9336 16.9979 43.643C17.2679 42.9586 15.9807 42.3154 16.9979 41.9216C17.6196 41.3403 17.807 40.3662 17.5164 39.6396C17.3917 39.5364 17.433 39.3498 17.3092 39.2458C17.7021 38.9758 18.0142 38.6241 18.3461 38.2501C18.3874 41.0712 17.5577 43.5389 16.4785 45.8829L16.2722 46.4013C16.4785 45.6756 15.255 44.7634 16.4373 44.4315ZM17.9514 34.6207C17.3298 33.2312 15.6703 33.0859 14.8406 31.8615C14.3221 30.7007 14.9653 29.6216 15.6703 28.7506C15.6703 28.6465 15.6497 28.5021 15.525 28.5021C14.7365 28.834 14.7571 29.9544 13.887 30.1822C14.3015 29.2897 14.1768 27.8796 15.359 27.5889C15.4003 27.5064 15.4622 27.4436 15.4416 27.3198C15.0899 27.0498 14.6953 27.4643 14.3633 27.6311C14.1974 27.7558 14.0736 27.9827 13.887 28.0249C14.0942 27.5477 14.5293 26.9664 15.0487 26.822C15.1518 26.7601 15.1931 26.6354 15.2344 26.552C15.028 26.3654 14.7993 26.552 14.5715 26.552L13.5964 27.1539C13.5336 26.3241 14.5921 26.055 15.0065 25.3903C14.6746 25.245 14.3221 25.6191 13.9696 25.7429L13.4923 25.8675C13.513 25.6603 13.7821 25.4325 13.9283 25.2244C14.2593 25.0172 14.654 24.9346 15.0065 24.7884C15.0487 24.6646 14.9437 24.6027 14.8818 24.5193H14.6746C14.8612 24.374 15.255 24.4781 15.359 24.2708C15.0899 24.0627 14.7571 23.9389 14.4046 24.0421C14.4046 24.0215 14.8818 23.9802 14.7993 23.6689C14.6953 23.5864 14.6127 23.4411 14.488 23.3998V23.3164C15.0065 23.1917 15.4209 23.6483 15.8363 23.8358C15.8982 23.7936 15.9188 23.7102 15.9188 23.6277C15.7537 23.2339 15.3384 23.067 15.0065 22.8392C15.3178 22.7145 15.6084 23.067 15.9188 23.1917C16.1888 22.6105 15.3797 22.5073 15.1931 22.0301C15.6703 21.761 15.9807 22.466 16.396 22.5898C16.562 22.5279 16.4579 22.3413 16.4373 22.2382C16.2507 21.8857 15.9188 21.7197 15.7116 21.3663C16.1475 21.2631 16.3547 21.865 16.7907 22.0301C16.8732 21.9063 16.7907 21.6578 16.6866 21.5116C16.4373 21.325 16.3135 21.0137 16.1269 20.7653C16.666 20.724 16.9558 21.2838 17.3917 21.4497C17.4123 20.9312 16.8113 20.5374 16.9145 19.9149C17.5783 19.9355 17.6196 20.7446 18.1174 20.9931C18.1999 20.4746 17.8277 20.0396 17.7658 19.5211C17.973 19.3964 18.1999 19.687 18.4287 19.7696C18.6771 20.0602 18.574 20.8272 19.1131 20.5993C18.948 20.1427 18.844 19.5417 19.1965 19.1264C19.2997 19.583 19.4665 20.1221 19.8801 20.4334V20.6406C18.3049 21.0765 16.562 22.3207 16.0856 24.0008C15.3797 25.9922 15.4622 28.6672 16.6866 30.4307C16.7494 30.8245 16.6248 31.0739 16.3547 31.2605C15.9601 31.4049 15.4209 31.3636 15.0899 31.1358C14.9859 31.1151 14.8406 31.1358 14.8406 31.2605C14.9025 31.7377 15.4622 31.717 15.8363 31.8202C16.4992 31.8202 17.1011 31.4264 17.433 30.8658C17.5783 31.0739 17.4536 31.2605 17.433 31.4677C17.0804 32.2149 16.1063 31.8408 15.5672 32.1108C15.8156 32.6499 16.4579 32.4015 16.8732 32.4221C17.7864 32.1943 18.0761 30.8245 19.1544 31.0945C18.2627 31.4883 18.6978 32.8778 17.5164 32.8572C17.2267 32.8572 16.9145 32.6499 16.6866 32.8993C16.9979 33.2097 17.4958 33.3765 17.9936 33.2519C18.8853 32.9612 19.1544 31.4677 20.3573 31.9036C20.4613 31.9449 20.5447 32.0283 20.6694 32.0283C20.1922 32.0283 19.6728 32.0283 19.2378 32.3387C18.844 32.6921 18.7606 33.4797 18.0761 33.4178C17.8483 33.521 17.4958 33.1891 17.433 33.5416C17.5989 33.8538 18.2627 33.7075 18.0349 34.1848C18.5327 34.6001 19.2997 34.3516 19.8388 34.2269L19.8801 34.2888C20.1716 34.2063 20.4407 34.0816 20.752 34.0601C21.2292 34.1641 21.8096 34.2475 22.0374 34.7867L22.0993 35.0145C21.457 34.6001 20.4829 34.3516 19.7975 34.7032C19.2378 34.7239 18.8853 34.6001 18.3874 34.4548C18.2627 34.496 18.2627 34.6413 18.3461 34.7032C19.3203 35.9483 22.0168 35.0979 21.623 37.3791C21.4777 37.6697 21.2704 38.0016 20.9592 38.1263C21.1458 37.7944 21.1879 37.3791 21.1045 37.0059C20.7313 35.9277 19.549 35.9483 18.8018 35.3051C18.7193 35.3051 18.6565 35.3258 18.5946 35.4083C18.5121 35.7402 18.9265 35.8649 19.1131 36.0102C19.6316 36.2793 20.3779 36.2793 20.6273 37.0059C20.6479 37.2337 20.752 37.5863 20.5447 37.7738C20.5241 37.2544 20.0675 36.6534 19.5078 36.3421C18.7193 36.1143 18.1174 35.4505 17.9514 34.6207ZM21.1879 33.2519C20.7932 33.1478 20.3366 33.3137 19.9437 33.5003C19.6109 33.6663 19.2997 33.9569 18.948 33.8538C19.5697 33.5003 20.0263 32.5468 21.0632 32.9818L21.4364 33.2519C21.457 33.2931 21.3323 33.2312 21.1879 33.2519ZM22.0374 34.1435C21.8508 33.9569 21.5808 33.8538 21.3951 33.7075C21.6445 33.8116 21.893 33.9569 22.0374 34.1435ZM19.6316 37.0472C19.8182 37.0678 19.9007 37.2759 19.985 37.4203C20.0469 37.711 20.0469 38.0841 19.7563 38.2088C19.6316 38.3129 19.5078 38.3541 19.3203 38.3335C19.2378 37.8769 19.279 37.3378 19.6316 37.0472ZM24.2979 46.9207C22.5352 47.1898 20.7313 46.9413 19.279 45.9663C18.6771 45.4272 17.7864 44.9087 18.0761 43.9543C18.2627 43.7255 18.2421 43.1245 18.6359 43.2492C18.948 43.6017 19.279 43.913 19.6728 44.078C20.7313 44.7634 21.9136 45.3231 23.2197 45.3231C24.1535 45.6137 25.2523 45.3437 26.1449 45.2397C25.8749 46.091 25.1285 46.7126 24.2979 46.9207ZM20.5035 48.704C19.2584 48.434 17.8896 47.9774 17.3092 46.7539C17.1011 46.1735 17.433 45.6137 17.7658 45.1572C19.4665 47.0867 21.893 47.7496 24.2979 47.397L24.8585 47.1898C24.8585 47.563 24.3822 47.833 24.2154 48.1855C23.1578 48.8493 21.7889 48.9525 20.5035 48.704ZM21.2704 50.5913C19.6944 50.6532 18.2215 50.1966 17.0392 49.1606C16.832 48.7668 16.3341 48.4134 16.5207 47.8742C16.7073 47.6464 16.6454 47.3145 16.9145 47.1073C18.3049 48.704 20.2954 49.6369 22.4321 49.2225C22.6599 49.1399 22.9712 49.1812 23.1784 49.1606C23.2403 49.1399 23.199 49.0565 23.3031 49.0772H23.4278C23.0537 49.9688 22.2249 50.5501 21.2704 50.5913ZM19.6316 52.1468C18.2627 52.1261 16.7073 51.5045 16.0022 50.1966C15.5878 49.6997 16.0856 49.3059 16.1682 48.7874H16.2722C17.6402 50.5707 19.7356 51.2139 21.9136 50.9448C21.457 51.8149 20.586 52.2096 19.6316 52.1468ZM19.1965 54.0548C18.7606 55.0298 17.6402 54.8226 16.6866 54.7813C15.8982 54.6145 15.0693 54.0341 14.8818 53.2259C14.9653 52.9353 14.8818 52.5621 15.0899 52.3127C16.0022 53.7444 17.6814 54.2422 19.1965 54.0548ZM18.7606 53.661C17.3711 53.7237 16.0022 53.1425 15.359 51.8983C15.1931 51.3798 15.4622 50.8407 15.6084 50.342C16.5826 52.1674 18.5534 52.7899 20.5447 52.5827C20.1294 53.2878 19.4872 53.5372 18.7606 53.661ZM28.5301 53.3909C28.5507 53.6825 28.2403 53.8063 28.1766 54.0548C27.9282 53.7856 28.426 53.661 28.5301 53.3909ZM29.1311 53.2672C29.1517 53.8682 28.592 54.4082 28.1354 54.7813C28.5507 54.3875 28.9032 53.8269 29.1311 53.2672ZM20.0675 21.4084C20.9179 21.0353 21.623 21.8229 22.3074 22.2382C22.494 22.6105 22.9712 22.8814 23.0331 23.3164C24.1535 24.7265 26.1655 25.681 26.2274 27.5889C25.9574 27.7764 25.6264 28.128 25.1904 27.9415C24.7957 27.6724 24.4235 26.9664 23.8225 27.2364C23.5103 27.423 23.3237 27.797 23.469 28.1496C23.5937 28.2743 23.5937 28.4393 23.635 28.5846C23.3031 28.5227 23.1784 28.1702 23.1371 27.9002C23.2197 27.6724 23.0125 27.3198 22.7846 27.1539C22.5146 27.1117 22.2455 27.0705 22.0374 26.9045C21.7683 26.5932 22.4527 25.951 21.7889 26.0335C21.353 26.4901 21.2911 27.4858 20.4407 27.2364C20.1922 26.822 19.6944 27.4024 19.5078 26.822C19.2172 26.9045 18.9059 26.8426 18.6771 26.6767C18.2833 26.2613 18.2215 25.7222 17.9514 25.2656H17.8689C17.8896 26.2407 18.3255 27.2364 19.279 27.797L19.3203 27.9415C19.1337 28.1702 18.6771 27.8383 18.6359 28.1496C19.0099 28.3568 19.4459 28.4815 19.8801 28.3568C19.7975 28.6465 19.0925 28.5227 19.5078 28.834C19.8801 28.8753 20.2128 28.6259 20.586 28.7093V28.834C20.5035 28.834 20.4613 28.9372 20.3985 28.9793C20.3985 29.0412 20.4829 29.0825 20.5447 29.1444C20.8345 29.1856 21.0839 28.7093 21.353 29.0619C24.0701 30.2029 26.6015 32.8365 27.1406 35.7402C27.9488 36.6121 28.0528 37.815 28.2197 38.8932C28.261 39.7015 28.1766 40.4496 27.9694 41.1331C27.8663 40.4074 28.1354 39.4745 27.9694 38.7694C27.9075 38.4779 27.9282 38.0635 27.6169 37.9388C27.2859 38.2088 27.555 38.4367 27.5344 38.7694C27.4716 39.3911 27.7003 40.2002 27.1406 40.5321C26.788 40.5321 26.8293 40.158 26.7046 39.9302C26.7252 39.1417 26.9531 37.815 26.1861 37.2965C26.0417 37.5028 26.2696 37.7738 26.3108 37.9801C26.3315 38.7273 26.2902 39.4324 26.1861 40.0961C26.2068 40.4496 26.4552 40.6765 26.6634 40.9259C27.825 42.0669 29.297 43.3739 30.2102 44.7634C30.978 46.2766 29.7949 47.7917 30.3752 49.3884C30.3959 50.0729 30.2102 50.7985 30.0236 51.4632C30.0236 52.5415 30.5215 54.3875 29.3392 55.0917C29.733 54.1588 29.9617 53.0384 29.8568 52.023C29.7742 52.0015 29.7123 51.8561 29.6495 51.9808C29.4432 52.354 29.3598 52.7899 29.2136 53.1846C29.1723 52.6653 29.733 52.2508 29.3392 51.753C29.1544 51.753 28.9902 51.7539 28.8664 51.8938C28.8664 51.8992 28.8647 51.901 28.862 51.8983L28.8664 51.8938C28.87 51.8642 28.827 51.7054 28.7373 51.6696C28.426 51.7324 28.261 52.1468 27.9694 52.2302C27.7837 52.2302 27.6582 52.4159 27.4922 52.4159C27.9488 51.9189 28.592 51.5458 28.9032 50.9448C29.1104 50.9645 29.3804 50.9232 29.3392 50.6739C29.2351 50.3841 29.193 50.0522 29.0485 49.7822C29.4217 48.6421 30.003 47.2517 29.2136 46.1116C29.4217 44.618 27.8663 44.0987 26.8912 43.5596C26.3727 43.4977 25.8542 43.2286 25.4183 42.8751L25.2317 43.0832C25.0254 42.9792 24.8998 42.6688 24.6307 42.6482C24.4235 42.0669 24.0916 41.361 23.469 41.1331C22.7434 41.2991 22.1199 40.9259 21.5395 40.6146C21.3951 40.6972 21.4364 40.8846 21.4777 40.9681C21.7889 41.8794 22.9299 41.2578 23.2609 42.171C23.7588 43.0205 24.3822 43.6636 25.3358 43.913C25.7089 44.1408 26.1861 44.1615 26.5808 44.3696C25.7502 44.9912 24.5894 45.0953 23.5937 44.8881C22.6599 44.8881 21.6858 44.618 20.7932 44.3274C20.5654 44.1615 20.2335 44.1615 20.0263 43.9543C19.5078 43.5802 18.7606 43.2079 18.7193 42.4813C18.6152 41.9629 18.8646 41.6103 19.0306 41.1331C19.9222 42.171 21.2704 42.5441 22.6599 42.6482C22.6806 42.606 22.764 42.5854 22.7434 42.5226C22.1836 42.1494 21.4364 42.2122 20.8345 41.9629C20.1716 41.6937 19.3616 41.2165 19.1131 40.4496C19.0925 39.8477 19.2997 39.3292 19.279 38.7273C20.3573 38.9551 21.5189 38.6448 22.0993 37.6903C22.3487 37.0472 22.2249 36.1349 21.7064 35.5751C21.353 35.3464 21.0004 35.1392 20.586 35.0979C20.9385 34.9732 21.353 35.0558 21.7064 35.263C22.1836 35.3464 22.2042 36.508 22.6187 35.6989C22.6806 35.2423 22.5352 34.7867 22.2661 34.4135C22.7227 34.2682 22.2868 33.8538 22.3074 33.5829C22.0374 33.2519 21.5602 33.0437 21.7064 32.5881C21.3323 31.8615 20.5241 31.2811 19.7563 31.343C19.9222 31.2605 20.1501 31.3636 20.2747 31.1779C19.8801 30.2235 18.6359 31.0945 18.1587 30.1401C16.3341 28.4393 16.3754 26.1788 16.9558 23.9183C17.2473 23.1917 17.8689 22.5486 18.5534 22.0301C19.0306 21.8857 19.7356 22.0301 20.0675 21.4084ZM21.4364 19.1264H21.5395C21.5189 19.5417 21.4364 19.853 21.3117 20.1634C21.2704 20.2468 21.3951 19.9562 21.2292 19.9983C21.1045 19.9355 21.0004 20.0808 20.9592 20.1634C20.8551 19.8108 21.2911 19.4789 21.4364 19.1264ZM22.4733 20.1221C22.5765 20.4127 22.4115 20.6827 22.2249 20.89V20.5993H21.9136C22.058 20.4334 22.2249 20.1427 22.4733 20.1221ZM25.978 29.1444C25.978 29.1444 26.1673 29.4655 25.5851 29.4655C25.0218 29.4655 24.7016 29.0439 24.541 28.7622C24.3804 28.4815 24.1795 28.3927 24.0288 28.3568L23.9875 28.1908C23.9875 28.1908 24.5006 28.2411 24.6809 28.4815C24.8621 28.7228 25.3483 29.4664 25.978 29.1444ZM28.0528 34.8907C28.3847 33.9363 28.5713 32.8993 28.862 31.9036C28.9445 31.3636 29.4845 30.9492 29.9823 30.8245C31.4956 30.9286 32.5945 32.0068 34.0055 32.3387C34.8774 32.8365 35.1671 33.7291 36.0803 34.0601C36.6401 34.3929 37.2411 34.8279 37.677 35.3051C37.4689 35.367 37.3657 35.5751 37.1585 35.5751C36.7854 34.9732 36.2041 34.496 35.6444 34.1435C35.5618 34.5794 36.1835 34.8073 36.3288 35.1805L36.5988 35.6164C36.4526 35.6577 36.1009 35.9896 36.0803 35.5751C35.8103 35.0145 35.5618 34.4341 35.0425 33.9775C34.9393 33.9775 34.7931 33.9775 34.7725 34.1022L35.2909 35.7815L35.2084 35.8855C34.898 35.3051 35.0846 34.3301 34.4415 33.9363C34.2127 34.2475 34.4621 34.6001 34.5652 34.8907C34.628 35.2011 34.6899 35.533 34.7725 35.8236C34.6693 36.0102 34.4621 35.8443 34.2952 35.8236C34.3589 35.0773 34.2127 34.3094 33.653 33.7703C33.0304 33.895 32.9685 33.0644 32.4088 32.8159C31.745 32.4221 30.8731 31.9036 30.1268 32.4221C29.8361 32.8159 28.966 32.6499 29.297 33.3765L29.5051 33.9363C29.193 35.4289 29.2764 36.9225 28.7785 38.3335C28.6332 37.8356 28.5507 37.2544 28.3435 36.7359C28.2816 36.1143 27.7209 35.533 28.0528 34.8907ZM35.6444 35.5751C35.7063 35.6783 35.7888 35.8021 35.8103 35.9277C35.7475 35.8649 35.6031 35.7196 35.6444 35.5751ZM31.9316 40.6559C32.9479 44.4521 31.475 48.0196 30.5834 51.5045C30.7287 50.7367 30.8525 49.8244 30.8112 48.9946C30.3546 47.667 31.309 46.422 30.7287 45.1984C30.7699 44.6593 30.4802 44.1408 30.0855 43.7255C30.0442 42.7926 30.2102 41.7556 29.6083 41.0506C29.2764 41.0918 28.8413 41.1959 28.5713 40.9681C28.8001 40.0136 29.1311 39.1211 29.4217 38.2088C30.6874 38.3541 31.5997 39.5364 31.9316 40.6559ZM39.8711 39.4135V66.2112C39.8711 66.2112 39.82 66.3718 39.4164 66.0507C39.0172 65.7295 35.9942 64.0951 35.9942 64.0951L36.0373 40.411C36.0373 40.411 38.9266 39.9248 39.8711 39.4135ZM30.334 35.0979C30.5008 34.766 30.8937 34.4548 31.2884 34.4135C31.7244 34.2888 32.0141 34.6207 32.3254 34.7445C32.6151 34.9939 32.6582 35.3464 32.7613 35.6577C32.9273 36.2174 31.6831 36.9431 32.7613 37.2544C32.9685 37.2965 33.1758 37.3378 33.4045 37.3791C33.923 37.5863 34.5446 37.5244 35.1259 37.6069C36.8266 37.4822 38.7337 37.2131 39.7509 35.6577C40.0416 35.1805 39.3778 34.8486 39.4818 34.4135C39.419 34.0816 39.5644 33.8538 39.7097 33.5416C40.0003 33.1065 40.5188 33.0644 40.996 33.1478C41.3889 33.355 41.8661 33.5829 42.0742 34.0188C42.1577 34.3516 42.3227 34.6413 42.3433 35.0145C42.3846 35.4711 42.2608 35.8443 42.1155 36.2174C41.6383 37.6491 40.0622 38.6026 38.7561 39.1211C36.4938 39.8477 33.8611 39.9715 31.7244 38.8932C30.8731 38.2922 29.8989 37.5244 30.0236 36.3421C29.8989 35.8443 30.2514 35.533 30.334 35.0979ZM38.3202 31.8202L38.3614 31.6964C39.1697 31.5511 39.8756 31.8408 40.3107 32.4634C39.8756 32.4634 39.7097 32.7953 39.3159 32.8572L38.3202 31.8202ZM38.4852 32.9818C37.6977 33.1684 36.702 33.2725 36.2041 32.5468C36.1216 32.3387 36.1835 32.0902 36.2866 31.9036C37.1792 31.4677 37.9461 32.1324 38.4852 32.8572V32.9818ZM35.9556 1.68287C35.6237 2.20135 36.1628 2.61667 36.2041 3.03109C35.9556 2.9073 35.7682 2.72072 35.6444 2.47135C35.5403 2.09819 35.6031 1.70439 35.8103 1.39313C36.2669 1.14375 36.8266 0.74996 37.3657 1.08186C37.573 1.26844 37.7183 1.43439 37.843 1.6416C37.9883 1.82818 37.9461 2.13945 37.8842 2.34666C37.7811 2.47135 37.677 2.53325 37.5523 2.55477C37.6142 2.28477 37.8017 2.03629 37.677 1.74566C37.4483 1.47565 37.1792 1.12312 36.806 1.12312C36.4526 1.16439 36.1422 1.39313 35.9556 1.68287ZM40.0828 4.11021V2.67856C40.3726 2.45072 40.8085 2.59604 41.1611 2.55477L41.2445 2.76199C41.4095 3.25984 41.0373 4.13085 41.7217 4.2349C42.4268 4.42148 43.174 4.37932 43.7535 4.83591L43.7122 5.49971C42.9659 5.33376 42.2402 5.08528 41.4311 5.06465C41.1198 5.43781 41.3064 6.10071 41.2445 6.51603L41.1611 7.26326C40.726 7.09641 39.8344 7.65705 40.0416 6.78604C40.0003 6.28819 40.4363 5.47907 39.7922 5.10591C39.0046 5.2297 38.1749 5.33376 37.4483 5.62439V4.83591C38.2368 4.50401 39.0459 4.25553 39.9582 4.2349L40.0828 4.11021ZM44.1482 6.74388C44.1482 5.66566 44.1069 4.75248 44.1894 3.46705L44.3132 3.28047C48.3382 5.14718 52.9426 6.45414 57.5667 5.49971L58.4387 5.35439V5.43781C56.8626 7.42831 54.5599 7.84363 52.2994 8.25806C49.4576 8.71464 46.9065 8.00958 44.2307 7.69831C44.0647 7.38705 44.1688 7.11704 44.1482 6.74388ZM37.033 9.62692C36.9298 9.73097 36.9092 9.95882 36.7226 9.93818C36.702 7.05515 36.5575 4.5659 36.6813 1.95287C36.8266 1.95287 37.033 1.93224 37.033 2.11882L36.9298 2.67856C36.9711 5.00186 37.0545 7.24173 37.033 9.62692ZM37.4895 10.6226C36.9917 10.8092 37.5936 11.3689 37.1585 11.6183C37.1792 11.9708 37.2832 12.2615 37.076 12.5727C36.7638 12.3646 36.6194 11.9915 36.4732 11.6596C36.5988 11.2451 36.702 10.7679 36.9711 10.4567L37.076 10.1454C37.2832 10.2082 37.3451 10.4773 37.4895 10.6226ZM37.7183 11.4111C38.1327 12.6759 40.1447 13.4231 39.7509 14.9786C39.419 15.3517 40.2066 15.8702 39.5644 15.8908C39.3984 15.0611 38.1749 15.9743 38.4852 14.9373C38.4027 14.7714 38.0295 14.792 38.1121 14.6054C38.3202 14.5426 38.548 14.3767 38.6718 14.1694C38.444 13.7335 38.0089 14.356 37.7604 14.0869C37.8223 14.0869 38.3202 14.1282 38.444 13.8582C38.4027 13.3819 37.7811 13.7335 37.4895 13.5684L37.407 13.6922C37.2617 13.0284 37.6564 12.5109 37.5936 11.9296C37.4276 11.7224 37.677 11.577 37.7183 11.4111ZM38.1103 15.1696C38.2753 15.4387 37.9031 15.8325 38.2753 16.0191C38.5059 15.9545 38.818 15.811 39.0432 15.9761C39.0217 16.1411 38.7956 16.1842 38.67 16.2882C38.4233 16.6614 38.0672 16.909 37.634 16.848C37.3433 16.7439 37.4474 16.5358 37.3649 16.3277L37.4474 14.4619C37.5075 14.4619 37.5299 14.5229 37.59 14.5668C37.5299 14.6494 37.4689 14.7525 37.486 14.8575C37.677 15.0216 37.8636 15.1481 38.1103 15.1696ZM36.7226 12.8625C36.8266 12.8625 36.9711 12.884 36.9711 13.0078C36.9917 14.1488 36.9504 15.4558 36.9298 16.534C36.8885 16.6165 36.806 16.5753 36.7226 16.5753C36.6607 15.2692 36.6607 14.0869 36.7226 12.8625ZM36.9163 30.1266L36.789 31.1456C36.789 31.1456 36.6616 29.426 36.6616 28.503V18.982C36.6616 18.982 36.6616 18.6958 36.8849 18.6958L36.9163 30.1266ZM40.6013 16.2021C40.5394 16.4927 40.3519 16.9072 40.6013 17.1772C40.9117 17.2184 41.0373 16.8246 41.3064 16.7206L42.2402 16.534C41.8249 16.8031 41.4311 17.2184 40.996 17.4463C40.8498 17.5297 40.8085 17.3225 40.6838 17.3225C40.4363 17.4669 40.4982 17.8616 40.1654 17.9657C40.2694 17.7791 40.3726 17.5503 40.3107 17.3638C40.2488 17.3225 40.2066 17.2391 40.1241 17.2803C39.8963 17.4884 39.8963 17.7791 39.6469 17.9657C39.585 17.841 39.6469 17.5916 39.4397 17.4884C39.0871 17.5297 39.2737 18.442 38.8387 17.8822C38.6099 17.8616 38.5068 18.1522 38.3202 18.2141C38.4027 18.1522 38.4027 17.7997 38.1533 17.7575L37.7183 18.0894L37.677 17.6957C37.3451 17.5503 37.1379 17.9657 36.8885 18.0894C36.7638 17.8616 37.6358 17.7163 37.1585 17.405C36.8885 17.3638 36.7638 17.6957 36.5145 17.6957C36.6401 17.3019 37.1173 17.4463 37.2411 17.0938C37.6142 17.3225 38.1749 17.2391 38.5274 17.0112C39.0665 16.3887 39.8756 16.2227 40.6013 16.2021ZM40.1654 14.7292C40.2901 14.356 40.6838 14.2735 41.0373 14.2529C41.1826 14.8539 40.3519 15.0817 40.2282 15.5805C40.0209 15.3105 40.0622 15.0817 40.1654 14.7292ZM41.9083 12.5727C41.6176 12.344 41.3889 12.78 41.1198 12.8625L40.6838 13.0078C40.6426 12.8006 40.8292 12.614 40.9547 12.4481C41.2032 12.3646 41.493 12.0749 41.763 12.2615C41.9908 12.2408 41.8868 11.9502 41.8661 11.8255C41.6383 11.6183 41.7217 11.3483 41.8249 11.0998L41.9083 11.0173C42.0114 11.1824 42.1783 11.3483 42.3846 11.3689C42.6349 11.1205 42.2196 10.6854 42.5506 10.4154C42.7174 10.5401 43.0278 10.4773 42.8412 10.8092C42.8412 10.872 42.8412 11.0379 42.9865 11.0998H43.1103C43.1534 11.2245 42.9865 11.2039 42.9865 11.307C42.9659 11.5143 43.1309 11.7017 43.3184 11.743C43.3884 11.7529 43.4476 11.7529 43.5023 11.7412C43.5624 11.7098 43.6198 11.6784 43.6709 11.6596C43.6162 11.7035 43.5624 11.7286 43.5023 11.7412C43.366 11.8112 43.2135 11.8829 43.069 11.8255C42.7587 11.6811 43.1534 11.1411 42.7174 11.0998C42.4268 11.3483 42.5918 11.8255 42.3846 12.0543C42.3021 12.4068 41.9702 12.7172 42.1577 13.1325C42.0536 13.5469 41.6804 13.5891 41.3476 13.7335C40.9754 13.8169 40.5807 13.8169 40.2694 13.9829C40.4147 13.1119 41.6804 13.485 41.9083 12.5727ZM43.7956 9.37844C44.1069 9.44034 44.2719 9.79287 44.5832 9.8135C44.7285 9.73097 44.7079 9.50313 44.916 9.58565C45.3304 9.85566 45.1017 10.7886 45.8274 10.5401C46.0777 10.9751 44.9366 10.8926 45.3923 11.4111C45.5376 11.3689 45.7449 11.3277 45.7861 11.5349C45.7655 11.743 45.8274 12.0327 45.5798 12.0955H45.4757C45.4757 11.9296 45.7036 11.7224 45.4336 11.6183C45.247 11.577 45.1851 11.7224 45.1017 11.5349C45.1232 11.4317 45.3089 11.3277 45.1851 11.1824C44.9573 11.1411 44.7492 10.7473 44.5007 11.0173C44.3554 10.9339 44.4388 10.6854 44.2307 10.706C44.0647 10.6639 43.879 10.7886 43.7535 10.9339C43.6916 10.3948 43.6503 9.95882 43.7956 9.37844ZM45.1439 13.3819C44.916 13.3819 44.8954 13.1325 44.8326 12.9665C44.8326 12.884 44.8523 12.7387 44.9573 12.78C44.9573 12.9665 45.1017 13.1531 45.2676 13.2159C45.3304 13.3397 45.1851 13.3397 45.1439 13.3819ZM44.0181 12.3162C44.0181 12.3162 44.1168 12.1117 44.176 11.7852C44.176 12.0848 44.2746 12.2435 44.2746 12.2435C44.2746 12.2435 44.4792 12.2364 44.5491 12.2301C44.3536 12.2346 44.1033 12.422 44.1033 12.422L44.0181 12.3162ZM44.7904 14.4601C44.5626 14.2322 44.7285 13.651 44.3132 13.5263C44.0441 13.7129 44.2926 14.0035 44.2719 14.2529C44.0854 14.0448 43.6709 13.9416 43.8369 13.6097C44.0441 13.485 44.1275 13.1531 44.3975 13.0912L44.6254 13.5263C44.812 13.6922 44.9779 13.8582 44.9573 14.1282L44.8747 14.0869C44.8523 14.2107 44.9573 14.3354 44.7904 14.4601ZM43.5462 14.2941C43.7535 14.3973 43.9616 14.6673 43.9409 14.9373C43.7328 14.7507 43.7956 14.4601 43.5462 14.2941ZM43.4225 12.7387C43.505 12.7593 43.6081 12.7172 43.6709 12.78C43.6503 12.884 43.5462 12.9253 43.505 13.0078H43.3184C43.2771 12.884 43.4018 12.8212 43.4225 12.7387ZM43.5462 15.5805L43.4225 15.8496C43.5256 15.4136 42.6968 15.0611 43.3606 14.7292C43.4844 14.9992 43.6709 15.2898 43.5462 15.5805ZM42.7587 16.5753C43.174 16.5546 42.8206 16.9072 42.9452 17.0938C42.8206 17.5503 42.7793 18.276 42.9865 18.7326V19.0439C42.4268 19.1479 41.6589 19.0026 41.2445 19.1686C41.1404 19.4583 41.2858 19.687 41.1198 19.9562L40.6013 19.9149C40.4363 19.6449 40.7879 19.1479 40.3107 19.0439C40.2066 19.0851 40.0416 19.0851 39.9582 18.9605C39.9169 18.5873 40.2694 18.5048 40.5188 18.3595C40.9117 17.8616 41.5351 17.6957 41.9495 17.2391C42.2814 17.1772 42.5712 16.9072 42.7587 16.5753ZM42.8125 12.449L43.0053 12.5934C43.0053 12.5934 42.9569 12.8589 42.86 12.7387C42.764 12.6176 42.8125 12.449 42.8125 12.449ZM41.8661 14.6467C41.5145 15.0611 41.0579 15.4764 40.7466 15.9321C40.4982 15.393 41.6804 14.9786 41.5145 14.1694C42.0321 14.2322 42.4268 13.0706 42.904 13.8582C42.5712 14.2941 42.2814 14.6467 42.2814 15.1651C42.364 15.2692 42.468 15.3105 42.5918 15.2898C42.3021 15.9536 41.5351 15.8496 41.0785 16.2855C41.0992 15.6836 42.0321 15.4136 42.0742 14.7292C42.0114 14.6467 41.9495 14.626 41.8661 14.6467ZM44.7079 20.0808V19.687C45.2057 19.4789 45.7861 19.7283 46.3055 19.6449C46.4087 19.8108 46.4912 20.0189 46.388 20.2055C46.1602 20.2881 45.8274 20.2055 45.7449 20.5168C45.7449 20.8693 45.4964 21.1797 45.2264 21.325C44.9985 21.5331 44.4801 21.2631 44.5007 21.7197C44.4594 21.8857 44.5626 22.0929 44.3975 22.1969C43.1309 22.3413 41.7217 22.2588 40.5188 22.1548C40.3519 21.9475 40.5394 21.491 40.1241 21.3663C39.7716 21.2631 39.2953 21.325 39.0871 20.9519C39.0252 20.7446 39.0665 20.5168 38.8387 20.3715C38.7131 20.2674 38.4852 20.4334 38.4027 20.2468C38.1749 19.2305 39.5025 19.687 40.0003 19.687C40.1241 19.9149 39.9169 20.2674 40.1654 20.4334C40.6838 20.3715 41.5558 20.7859 41.763 20.0808V19.7283C42.1361 19.6036 42.5918 19.6449 42.9865 19.687C43.1534 19.9149 42.9452 20.4127 43.3184 20.4334C43.7535 20.2468 44.5419 20.6612 44.7079 20.0808ZM45.1851 16.8031C45.4551 16.3062 46.1395 16.4515 46.2633 15.8496C46.9478 15.2064 48.2341 15.6011 48.5454 14.5013C48.7104 14.5013 48.7104 14.6879 48.8154 14.7714C48.8566 14.9579 48.7526 15.2064 48.5866 15.3724C48.2341 15.6836 47.5703 15.6011 47.4663 16.0989C47.8403 16.4093 48.1094 15.9536 48.4619 15.9321C48.7526 15.9536 49.0432 15.9115 49.2917 15.767C49.6236 15.4764 49.7276 15.1033 49.8936 14.7292C49.9968 14.6467 50.1421 14.6879 50.2668 14.6879C49.7483 15.2898 50.4542 16.4721 49.5411 16.8453C49.2495 16.97 48.8154 16.9072 48.5454 16.6793C48.3588 16.4927 48.1919 16.2649 47.9435 16.2855C47.695 16.7206 48.4826 16.9493 48.4207 17.405C48.4826 17.8203 48.2969 18.1935 47.9435 18.4007H47.3425C47.5497 18.276 47.9022 18.2348 48.026 17.9235C48.2135 17.5091 47.8816 17.1978 47.8197 16.8453C47.5075 16.4515 46.989 16.2855 46.6168 16.3681C46.0355 16.5134 45.3089 16.8246 45.1851 17.4884C45.1017 17.9657 45.1017 18.6079 45.0604 19.0026C44.7079 18.3801 44.7492 17.4256 45.1851 16.8031ZM44.7904 27.9002C44.9985 28.2321 44.8523 28.73 44.9573 29.1031L44.7904 29.1856L40.0828 29.1444C40.0003 28.7506 40.0828 28.3155 40.1654 27.9415C41.8042 27.7558 43.2152 27.9208 44.7904 27.9002ZM40.6838 24.2708L40.8292 24.1874L44.2719 24.2287L44.3975 24.4368L44.5007 27.4643C43.4225 27.5064 41.9495 27.4643 40.5601 27.423C40.6013 26.4273 40.4569 25.1831 40.6838 24.2708ZM44.0647 23.8358L40.7466 23.7936C40.5394 23.5443 40.726 23.2339 40.7466 22.9639C41.8249 22.902 43.1103 22.902 44.2719 22.9639L44.3554 23.0464C44.2719 23.3164 44.6047 23.9596 44.0647 23.8358ZM38.601 21.3412C38.8261 21.6578 39.2387 22.135 39.62 22.1045V22.4858C39.62 22.4858 39.6846 22.7719 39.811 22.7719C39.9411 22.7719 40.0362 22.8374 40.0362 23.0931C40.0362 23.3442 39.811 27.0095 39.811 27.0095L39.4594 27.2651L39.1733 29.1435C39.1733 29.1435 38.8566 29.1085 38.8261 29.4897C38.7911 29.8764 38.6655 30.8604 38.5059 30.9259C38.3453 30.9905 38.0932 30.9905 37.9327 31.0515C37.7721 31.116 37.5819 31.212 37.3909 31.0864C37.3909 31.0864 37.1352 21.6273 37.3909 18.8555C37.3909 18.8555 38.8871 18.886 39.2387 18.7604V18.9856C39.2387 18.9856 39.0477 19.0816 38.7911 19.0466C38.54 19.0161 38.0287 18.9856 37.8071 19.1417V20.9895C37.8071 20.9895 38.3794 21.02 38.601 21.3412ZM45.4336 29.871C45.5592 30.0988 45.5592 30.4935 45.4336 30.7007C43.5462 30.5967 41.4517 30.742 39.5231 30.576C39.419 30.3688 39.5231 30.0576 39.6056 29.8297C41.597 29.7669 43.5875 29.7669 45.4336 29.871ZM46.388 31.8202C46.7199 31.9655 47.0303 32.1943 47.259 32.5046C47.259 32.7334 47.6322 32.8159 47.5497 33.0644C47.1559 33.3344 46.6374 33.2931 46.2221 33.1065C45.7449 32.8778 45.4551 32.3181 45.2264 31.8615C45.6623 31.5924 45.8902 31.8408 46.388 31.8202ZM48.8154 31.7377C49.002 31.8821 49.2917 31.9449 49.4164 32.2149C49.5411 32.4015 49.5411 32.754 49.4164 32.9406C49.1876 33.1065 48.9598 33.3765 48.6692 33.1891C48.1094 32.8993 47.9435 32.3808 47.5909 31.9036C48.0054 31.6964 48.3794 31.7377 48.8154 31.7377ZM50.465 32.8778C50.7108 32.7083 51.0382 32.4741 51.2634 32.2624C52.8565 32.0274 54.1293 30.0764 55.7844 31.0219L55.8283 31.1456C55.8292 31.1878 55.8086 31.2497 55.8714 31.2694L55.9117 31.186C56.528 32.0256 56.5074 33.2088 57.0007 34.1336C57.051 34.6512 57.4546 35.1625 57.1927 35.6442C56.7711 36.4605 56.6832 37.3961 56.5127 38.2913C56.031 36.8678 55.9404 35.2101 55.666 33.7425C55.8274 33.4483 56.0275 33.0724 55.8149 32.7441C55.7305 32.641 55.6049 32.6024 55.4596 32.6248C54.977 32.3019 54.411 32.0211 53.7723 32.2194C52.948 32.5235 52.3147 33.0949 51.8079 33.8089C51.7451 33.7273 51.6006 33.7712 51.5172 33.773C50.9871 34.3005 50.8355 35.0504 50.9512 35.7537C50.8077 35.881 50.6417 35.925 50.4767 35.907C50.4228 35.2029 50.8283 34.6979 50.8794 34.0332L50.7314 33.9112C50.1797 34.3974 50.2766 35.2047 50.0398 35.8523L49.9582 35.9169C49.968 35.3141 50.3313 34.7275 50.4031 34.0834C50.3394 33.9802 50.2354 34.0027 50.1322 34.0045C49.6424 34.5113 49.3016 35.1598 49.0432 35.7868C48.9401 35.8505 48.7517 35.751 48.6467 35.6693C48.7669 35.4603 48.9087 35.2289 49.0289 35.019C49.1078 34.7481 49.7259 34.5301 49.4917 34.1821C48.9598 34.6261 48.3453 35.0728 48.0036 35.6801C47.8574 35.6003 47.73 35.4783 47.5631 35.4388C47.7443 35.0629 48.1336 34.8477 48.4198 34.5534C48.6889 34.5274 48.7463 34.278 48.9724 34.1489C49.5698 33.8896 50.0802 33.4456 50.465 32.8778ZM49.5411 35.6164C49.5204 35.7196 49.4998 35.8443 49.4576 35.9277C49.3545 35.8649 49.437 35.6989 49.5411 35.6164ZM46.3163 33.9264C46.3163 33.9264 46.6159 34.0744 47.0662 33.9874C47.5174 33.8968 48.0601 33.6537 48.0601 33.6537L48.4844 33.8968L47.0662 35.28C47.0662 35.28 46.737 35.7617 47.0967 35.7617C47.4573 35.7617 47.5479 35.8828 47.6089 36.0344C47.669 36.1824 48.1202 36.2425 48.3633 36.1824C48.6019 36.1259 49.0836 36.3035 49.1437 36.4856L51.4338 36.1824L51.5854 35.9743C51.5854 35.9743 51.3423 34.9203 51.4948 34.5292C51.6464 34.1345 52.0061 34.4386 52.3658 33.9874C52.7309 33.5317 53.6629 32.7818 54.2962 32.8123C54.9295 32.8428 55.1071 33.4456 55.2291 34.3776C55.2291 34.3776 54.7169 33.5622 53.7849 33.6842C52.8475 33.8053 52.0671 33.9264 51.763 35.6702C51.763 35.6702 51.7944 36.273 52.0671 36.6372C52.0671 36.6372 51.1647 36.9969 50.0802 36.9969C48.9966 36.9969 47.3093 36.6677 46.8276 36.3645C46.3423 36.0649 46.1037 35.5527 46.1342 35.4011C46.1647 35.2495 46.4939 34.6772 46.3163 33.9264ZM43.0278 31.9036C43.3184 31.7377 43.7741 31.5305 44.1482 31.7377C44.4594 31.8615 44.6666 32.153 44.8326 32.4221C44.4801 32.4634 44.1069 32.6921 43.7122 32.7334L43.0278 31.9036ZM43.069 32.9818V33.1478C41.9908 33.4178 41.1611 32.5046 40.6013 31.7377C40.9117 31.4677 41.327 31.6964 41.6804 31.6964C42.2608 31.9036 42.7999 32.4221 43.069 32.9818ZM49.1437 40.5321V64.1597C49.1437 64.1597 45.7395 66.0596 45.3493 66.3583L45.3188 39.4135C45.3188 39.4135 46.806 39.9903 47.6089 40.1114C48.4108 40.228 49.0746 40.315 49.1437 40.5321ZM43.1946 36.6534C42.6968 35.8021 42.8206 34.4548 43.4225 33.6663C43.8369 33.2519 44.4388 33.0437 45.0192 33.1891C45.247 33.3765 45.5798 33.5416 45.7036 33.8538C45.7036 34.2888 45.7449 34.8486 45.3923 35.1805C45.2676 35.8236 45.8902 36.2174 46.3055 36.6121C48.1094 37.6275 50.8884 37.9801 52.8179 37.0059C52.9211 36.5915 52.6735 36.4462 52.5273 36.1349C52.5066 35.5958 52.3819 35.2217 52.7766 34.7867C53.1704 34.4135 53.7517 34.2475 54.2908 34.4548C55.099 35.0145 55.2856 36.073 55.099 37.0059C54.7465 38.146 53.6261 38.8932 52.5273 39.2458C52.3407 39.2458 52.0922 39.3705 51.8635 39.453C48.6279 40.0343 45.0604 39.3498 43.1946 36.6534ZM54.6846 44.244C54.0827 45.551 54.498 47.2105 54.5393 48.4753C54.4155 49.2915 54.4146 50.2128 54.6102 51.0982C53.6333 47.4123 51.9926 43.5102 53.6468 39.723C54.1033 38.9758 54.8308 38.1675 55.7628 38.1675L55.8875 38.2922C56.0122 39.2251 56.4679 40.0136 56.6554 40.9259C56.24 41.2784 55.7009 40.7187 55.4112 41.2784C54.7259 42.1288 55.7422 43.5389 54.6846 44.244ZM57.1326 54.0548C56.9657 53.7856 56.7585 53.5372 56.6554 53.2259C56.7585 53.5578 57.4017 53.6197 57.1326 54.0548ZM57.7336 54.1382V54.3041C57.6717 54.3248 57.6511 54.2629 57.6089 54.2207V54.0548C57.6717 54.0341 57.6923 54.0969 57.7336 54.1382ZM58.1274 35.4917C58.6046 32.9612 60.6373 30.4935 63.0431 29.435C63.4997 29.2691 63.9563 28.5846 64.4747 29.0619C64.5573 29.0619 64.6407 29.0412 64.682 28.9793C64.7232 28.7918 64.516 28.834 64.4747 28.7093C64.786 28.4187 65.2004 28.9372 65.6777 28.7506C65.7602 28.73 65.7189 28.6465 65.7189 28.5846C65.5736 28.4599 65.3879 28.4815 65.2417 28.3155C65.6983 28.4599 66.2168 28.2949 66.4661 27.9827C66.2374 27.8383 66.0095 28.0868 65.8221 27.9002C65.9476 27.6311 66.2787 27.3405 66.5487 27.1117C66.8178 26.5107 67.4197 25.9303 67.1918 25.2244C66.859 25.3284 66.9218 25.7429 66.7971 25.9922C66.5908 26.2613 66.5693 26.6973 66.1549 26.7601C65.8014 26.7601 65.5117 26.7386 65.2417 27.0705C64.9107 26.8013 64.6604 27.423 64.3088 27.1951C63.6441 27.0498 63.7284 26.2201 63.1893 25.951C62.8978 26.2613 63.3956 26.9458 62.7533 27.0292C62.4421 27.0911 62.0896 27.2158 61.964 27.5477C61.9855 27.9415 62.0061 28.3774 61.5917 28.5434L61.4455 28.5021C61.5917 28.2321 61.8195 27.9415 61.6742 27.5889C61.633 27.3611 61.363 27.257 61.197 27.1539C60.326 27.0498 59.8084 28.6465 58.9571 27.6311C58.8127 25.245 61.7576 24.4987 62.4833 22.5486C63.1471 21.9269 63.915 21.2219 64.8685 21.2838C65.2623 21.5331 65.5942 21.9682 66.1549 21.8857C67.0465 22.1548 67.8763 23.0877 68.1875 23.9596C68.7894 26.2829 68.5813 28.8959 66.5487 30.4307C65.9476 30.576 65.1385 30.4307 64.8685 31.0945C64.9313 31.3636 65.2211 31.0945 65.3466 31.3017C64.6407 31.2192 64.0388 31.717 63.5616 32.2562C63.5203 32.484 63.3131 32.7127 63.3956 32.9406C62.9812 33.2931 62.6502 33.6869 62.7121 34.2269C62.7533 34.3094 62.8359 34.3301 62.9184 34.3301C62.608 34.766 62.3999 35.367 62.6699 35.8236C62.7121 35.8855 62.7533 35.9483 62.8359 35.9277C63.105 35.4505 63.4369 35.1186 63.9563 34.9732H64.5985C64.0388 35.1392 63.3543 35.367 63.1471 36.0102C62.8771 36.508 62.8771 37.1512 63.1471 37.6491C63.6441 38.3541 64.4747 38.8107 65.4292 38.7273L65.8642 38.6026C65.9064 39.4117 66.3612 40.4074 65.6364 41.0093C64.8273 41.9422 63.6656 42.0669 62.5668 42.3154C62.5246 42.3567 62.4421 42.3979 62.4421 42.4813C62.7533 42.7307 63.1256 42.3773 63.5203 42.4401C64.4747 42.1494 65.4292 41.8794 66.1549 41.0506C66.3827 41.5897 66.6321 42.3154 66.2787 42.8751C65.8642 43.3523 65.283 43.8296 64.682 44.0368C63.2306 44.7221 61.467 45.0737 59.7654 44.8046H59.6416C59.559 44.7006 59.3518 44.7006 59.2056 44.6387C59.0612 44.4315 58.6252 44.5759 58.6459 44.244C60.0363 43.9336 61.4455 43.2079 62.1102 41.8794C62.504 41.2372 63.6656 41.631 63.749 40.6146C63.5203 40.4496 63.3131 40.7599 63.0843 40.8434C62.5874 40.9681 62.1927 41.1537 61.6742 41.0506C61.0526 41.2991 60.7413 41.9835 60.596 42.5648C60.326 42.5854 60.2013 42.8967 59.9941 42.9998C59.6828 42.5441 59.3725 43.2905 59.0397 43.3523C58.7293 43.4358 58.5427 43.3739 58.2521 43.5183C57.4636 43.9955 56.3226 44.3696 56.0535 45.4065C56.1369 46.3179 55.3897 47.066 55.6803 47.8742C55.7628 48.7462 56.6141 49.6369 55.9288 50.5088C55.8463 50.6945 56.0535 50.8407 56.1782 50.8613C56.4473 50.7573 56.4679 51.0273 56.5719 51.1511C56.9245 51.5664 57.4223 51.8983 57.8376 52.2715C57.3604 52.3127 56.9038 51.9189 56.6141 51.587C56.5513 51.6489 56.406 51.6489 56.406 51.753C56.7173 52.2921 56.9657 53.0178 57.6089 53.2259C57.6923 53.2878 57.6304 53.4116 57.7336 53.4331C57.7749 53.2053 58.0449 53.3497 58.1695 53.3497C58.2108 53.4116 58.2736 53.4331 58.2521 53.495C57.277 53.765 56.9245 52.7074 56.4473 52.1055C56.4679 51.9189 56.3854 51.753 56.24 51.6696C56.0535 51.6696 55.8463 51.6696 55.8041 51.8355C56.0122 52.8725 56.3019 53.9722 57.2151 54.7401C56.0535 54.2207 56.1575 52.8312 55.6175 51.8983C55.4937 51.8355 55.3897 51.9808 55.369 52.0643C55.4112 53.1218 55.535 54.1588 56.0122 55.0298C55.3484 54.906 55.3062 54.1382 55.1618 53.6197C55.0578 52.4159 55.4318 51.2551 54.934 50.1966C54.9546 48.9318 55.099 47.4383 54.8084 46.1529C54.9133 45.5931 54.8927 44.9706 55.1618 44.4727C55.639 43.8511 56.1163 43.2492 56.6966 42.7307L56.7585 42.772L56.9245 42.4401L58.9159 40.4496C59.0199 39.5983 58.7293 38.582 58.9571 37.6903C58.9571 37.545 59.2056 37.3791 58.9993 37.2544C58.6459 37.3997 58.6046 37.815 58.4799 38.1263C58.3974 38.9345 58.6459 39.723 58.2521 40.4074C57.9408 40.5527 57.8161 40.3868 57.7336 40.0961C57.7336 39.453 57.547 38.8726 57.7336 38.2922C57.7542 38.146 57.713 38.0222 57.6089 37.8975C57.1738 38.0016 57.3811 38.5201 57.277 38.8107V41.0918C56.7792 39.1839 56.9245 37.1512 58.1274 35.4917ZM60.6893 28.6232C60.4013 28.7425 60.4381 28.9336 60.4094 28.9793C60.4094 28.9793 59.9394 29.4458 59.5384 29.4458C59.1365 29.4458 59.1904 29.3866 59.1563 29.2448C59.1231 29.1031 59.2962 29.0645 59.3967 29.1246C59.4972 29.1847 59.7384 29.3247 60.0802 28.8636C60.4211 28.4016 60.9665 28.0976 61.1557 28.1496C61.1557 28.1496 60.9763 28.5039 60.6893 28.6232ZM62.8771 20.6406V20.8487C62.6906 20.6406 62.504 20.3715 62.6287 20.0808C62.8565 20.1221 63.0843 20.3293 63.1893 20.5581C63.2306 20.6406 62.9399 20.3921 62.8771 20.6406ZM63.6028 19.0439C63.8944 19.3758 64.1213 19.7283 64.1626 20.1634L63.915 19.9149L63.7903 20.0808C63.8522 20.1221 63.8109 20.2055 63.8316 20.2468C63.6871 19.8736 63.5616 19.4377 63.6028 19.0439ZM63.6441 33.1891C64.0388 32.754 64.6407 32.7953 65.1592 32.8993C65.6149 33.0644 65.7602 33.7291 66.2787 33.7703C65.4085 34.0188 64.682 32.6293 63.6441 33.1891ZM63.3131 33.895L63.479 33.7703H63.6028L63.3131 33.895ZM65.8642 38.1675C65.7395 38.3541 65.553 38.1675 65.4292 38.1675C65.1798 38.0016 65.0345 37.711 65.1592 37.4203C65.2623 37.2759 65.3036 37.0472 65.4704 36.9637C65.6777 36.8812 65.657 37.1512 65.7602 37.1718C65.927 37.4616 65.8221 37.8356 65.8642 38.1675ZM65.6777 19.853C65.7395 19.6243 65.9064 19.417 65.8642 19.1264C66.0095 19.2305 66.093 19.4583 66.1549 19.6449C66.2787 20.0602 65.7395 20.4334 66.1136 20.6827C66.5693 20.3499 66.5487 19.4789 67.2744 19.4377C67.2744 19.9149 66.9837 20.3715 66.9012 20.8487L66.9837 20.9519C67.5022 20.6406 67.5022 19.9562 68.1463 19.853C68.1875 20.3921 67.7928 20.8487 67.6278 21.325C67.9588 21.4703 68.0628 21.0353 68.3535 20.89C68.5392 20.8272 68.6854 20.6612 68.9132 20.724C68.7473 21.1591 68.1669 21.4703 68.271 21.9269C68.6854 21.9269 68.8719 21.2425 69.3492 21.2838C69.1411 21.7403 68.4773 21.9888 68.6647 22.4867C69.1204 22.4041 69.3492 21.7816 69.8677 21.8857C69.7421 22.3207 68.8513 22.6105 69.1411 23.1505C69.4523 23.067 69.6595 22.6732 70.0336 22.7567C69.7214 23.0051 69.0998 23.2751 69.2245 23.7524C69.6802 23.6277 70.0542 23.067 70.5521 23.2751C70.4893 23.4205 70.2193 23.4824 70.2615 23.7102C70.3036 23.9389 70.5521 23.8771 70.6965 24.0008C70.3449 23.8143 69.9708 23.9802 69.7008 24.1874C69.7842 24.5193 70.178 24.2287 70.3449 24.4368C70.2408 24.4781 70.0955 24.4368 70.0336 24.5615C70.1368 24.8719 70.5314 24.9553 70.8624 24.9553C71.215 25.1212 71.3809 25.4738 71.5478 25.7841C70.9665 25.7841 70.7171 25.2656 70.178 25.2244C70.0542 25.2244 69.9914 25.411 70.0955 25.4738C70.5727 25.9716 71.4859 26.2829 71.5065 27.0705C70.988 26.822 70.5314 26.4067 69.9089 26.386C69.7421 26.8013 70.3036 26.822 70.5099 27.0292C70.8006 27.2992 71.0499 27.5889 71.1118 27.9415C70.7378 27.5683 70.2408 27.1117 69.7008 27.1539C69.6183 27.2158 69.6595 27.3405 69.6595 27.423C69.7214 27.6096 69.9295 27.5064 70.0336 27.5889C70.9252 28.1702 70.7799 29.2691 71.1737 30.0988C70.3036 29.8082 70.3449 28.73 69.5151 28.4187C69.2245 28.7093 69.8264 28.9793 69.9089 29.2691C70.3233 30.0163 70.5933 31.0532 70.178 31.8615C69.0164 33.0231 67.2537 33.5622 66.9012 35.263C66.3827 36.4462 64.5779 36.238 64.6407 37.7316C64.3501 37.4822 64.5366 37.0678 64.5985 36.7772C65.0551 35.9061 66.2993 36.2587 66.5487 35.3051C66.4868 35.2011 66.3827 35.2217 66.2787 35.2217C65.5117 35.8443 64.1419 35.9896 63.9975 37.2131C63.9563 37.5244 64.1626 37.7531 64.2254 38.0429C63.8316 37.8563 63.5409 37.3791 63.479 36.9637C63.5203 36.3834 63.7903 35.8855 64.3501 35.6164C65.1592 35.4083 66.1136 35.2423 66.7971 34.5794C66.8178 34.496 66.7971 34.4135 66.7146 34.3722C66.1755 34.5579 65.5323 34.7445 64.952 34.5373C64.3294 34.2888 63.6235 34.6001 63.0843 34.932C63.0843 34.6001 63.3956 34.3516 63.6441 34.1435C64.7026 33.7497 65.7395 34.4754 66.9012 34.2888C67.0259 34.1641 67.1506 33.9982 67.1093 33.7703C67.3165 33.6869 67.5865 33.5829 67.669 33.3765C67.4609 33.2725 67.0671 33.3765 66.7971 33.2931C66.0714 33.0231 66.1342 32.0068 65.2417 31.9862H64.4747C64.7438 31.7377 65.1592 31.7377 65.5117 31.8202C66.4661 32.153 66.6733 33.6663 67.9175 33.1065C68.0628 33.0025 68.2907 33.0644 68.3947 32.8572L68.2288 32.6921C67.8135 32.6293 67.3165 32.7953 66.9837 32.5468C66.5908 32.0489 66.5487 31.3636 65.9476 30.9905C66.258 30.9492 66.5908 31.0739 66.9012 31.2192C67.4816 31.8821 68.1256 32.6715 69.0998 32.3387C69.2245 32.2562 69.4111 32.2562 69.5151 32.0696L69.473 31.9449C68.8719 31.8615 67.9381 32.0696 67.6278 31.3017C67.5228 31.1564 67.6278 31.012 67.669 30.8658C68.1041 31.3224 68.7679 31.9243 69.577 31.6964C69.7842 31.5089 70.2408 31.5717 70.2615 31.1779C69.9914 30.8245 69.7636 31.2811 69.473 31.2605C69.1204 31.2811 68.7679 31.2605 68.5392 30.9905C68.1041 29.871 69.4523 29.165 69.3079 27.9827C69.7421 25.681 69.203 22.8607 67.0259 21.4084C66.4661 21.0972 65.8642 20.8272 65.2417 20.6406C65.0757 20.3087 65.5323 20.0808 65.6777 19.853ZM67.7516 39.0179C67.6071 39.6396 67.2744 40.5527 67.7103 41.1753C67.8969 41.5897 68.271 41.8794 68.5813 42.171C68.2494 42.7307 67.9588 43.4151 68.3947 43.9955C68.6647 44.4934 69.6802 44.514 69.0576 45.1984C68.8926 45.5716 68.9132 45.8829 68.9132 46.3179C67.7722 43.8089 66.694 41.0918 66.8384 38.2088C67.1093 38.4985 67.399 38.8932 67.7516 39.0179ZM70.2615 47.8742C70.178 48.3721 69.7008 48.8081 69.9914 49.3472C70.2193 49.7616 70.5933 50.1348 70.988 50.342C70.8006 50.6945 70.6965 51.1098 70.5521 51.5045C70.013 50.011 69.7421 48.3927 69.1411 46.9207C69.4523 47.3145 69.8883 47.563 70.2615 47.8742ZM72.1488 48.2268C72.6054 47.9155 73.2692 47.6258 73.3723 47.0032C73.3104 46.7539 73.2898 46.4641 73.1445 46.2354C72.626 45.7582 72.0456 46.0694 71.4222 45.9663L70.5099 46.0694C72.1488 44.9706 73.393 43.1658 73.7051 41.1753C73.9114 39.4951 73.5383 37.6903 73.3723 36.0524H73.4557C73.8495 36.4462 74.1186 36.9637 74.6578 37.2131C74.7833 37.1925 74.8452 37.0678 74.8865 36.9637C75.4471 37.6069 75.675 38.4985 76.0069 39.287C76.0894 39.287 76.1935 39.3086 76.2554 39.2045C76.4841 39.8055 76.3379 40.3455 76.3801 41.0506C76.7945 41.735 76.5254 42.6688 76.2966 43.3523C76.1513 43.9336 75.4471 44.0574 75.3009 44.6387C75.509 44.8881 75.675 44.6387 75.9037 44.5965C76.4007 44.514 76.7738 44.7006 77.1273 44.95C76.9613 45.4684 76.6294 46.0282 76.0894 46.2766C75.9656 46.3179 75.9244 46.4435 75.9656 46.5888C76.3801 46.8992 76.982 46.7745 77.3345 47.2732C77.7695 47.7289 77.9355 48.2896 78.1642 48.8287C77.7489 49.0359 78.1849 49.4091 78.123 49.7203C78.0593 50.1966 78.7033 50.7985 78.1642 51.1923C78.018 51.7324 77.8314 52.2508 77.853 52.8312C77.3964 53.3703 77.2511 54.0341 76.5666 54.3454C76.1935 54.5732 75.84 54.9679 75.5709 55.2998C75.3646 54.8854 75.7575 54.4288 75.7369 53.9516C76.0481 52.9559 76.6707 51.9808 76.2554 50.8201C75.9863 49.741 75.0731 48.9112 74.0155 48.6421C72.9785 48.5174 71.8994 48.5174 70.988 48.7874C70.8212 48.8287 70.6346 48.8699 70.4687 48.9112C70.3036 48.3515 71.8169 47.5424 70.4687 47.4383C70.2193 47.2732 69.9089 47.1073 69.7842 46.7951C70.5933 46.6094 71.4222 46.4848 72.2941 46.4013C72.4179 46.4848 72.6054 46.4435 72.7085 46.5888C72.9579 46.7126 72.8951 47.0867 72.8539 47.3145C72.626 47.5424 72.3766 47.833 72.1488 47.9568C72.1488 48.0402 71.9828 48.1649 72.1488 48.2268ZM71.3397 53.1846L70.9046 53.661C70.8006 53.2465 70.7799 52.7899 70.7378 52.354C70.884 52.728 71.215 52.7899 71.3397 53.1846ZM70.3449 55.2998C69.5151 55.8802 68.271 56.0461 67.3165 55.6524C67.0878 55.5689 67.0671 55.2998 66.9425 55.1339C68.1669 55.1751 69.577 55.0298 70.3861 53.8682C70.5727 54.2835 70.614 54.9267 70.3449 55.2998ZM70.2193 56.8553C69.577 57.2491 68.5607 57.2078 67.835 56.8965C67.7103 56.7099 67.5022 56.5027 67.5865 56.2946C68.6019 56.4821 69.6389 56.2121 70.4687 55.6936C70.3861 55.9842 70.6552 56.6274 70.2193 56.8553ZM70.1368 57.9756C69.5564 58.452 68.6432 58.3488 68.0207 58.0582C67.7722 57.8716 67.8556 57.7056 67.835 57.415C68.5392 57.6231 69.577 57.7882 70.2615 57.2903C70.2812 57.4984 70.2408 57.7675 70.1368 57.9756ZM69.3492 59.697C68.8719 59.7805 68.3113 59.8011 67.9794 59.4064C67.8556 59.0951 67.6897 58.8673 67.8763 58.5354C68.5185 58.7426 69.2657 58.8879 69.9089 58.5767C69.8058 58.9911 69.577 59.3445 69.3492 59.697ZM67.2753 57.0006C67.2753 57.04 67.2761 57.0696 67.2753 57.0006V57.0006ZM65.5942 62.4984C64.6183 62.4769 63.6647 62.8501 63.0009 62.0437C62.8753 61.7315 63.0225 61.4193 63.2261 61.1717C64.3492 60.3438 65.6768 60.3438 66.9389 59.8226L66.9819 59.8881C66.6913 60.4649 66.0499 60.9636 65.5117 61.2973V61.4193C66.0885 61.605 66.4437 60.9636 66.9819 60.8596C67.0429 61.2148 67.4376 61.2148 67.6672 61.2543C67.7058 61.2148 67.7928 61.1717 67.7928 61.0892C67.5632 60.9242 67.2941 60.838 67.2286 60.5295C67.3336 60.2173 67.3766 59.8881 67.6672 59.6585C67.8538 59.9491 68.2046 60.0702 68.5392 60.1348C68.7042 60.0092 68.9338 60.0532 69.0989 60.0917C68.2046 61.3144 66.9819 62.2518 65.5942 62.4984ZM61.9164 55.4299C61.9774 53.7731 63.1391 53.2743 64.0765 52.7101C64.0765 52.7101 66.284 54.8872 66.5531 55.3689C66.8258 55.8506 67.2681 56.7046 67.2726 56.9387C67.2726 56.9387 66.9425 58.3219 65.169 58.4089C63.3902 58.5004 61.8554 57.0858 61.9164 55.4299ZM59.5178 59.2611C59.1231 58.3694 58.9571 57.084 59.1643 55.8596C59.2056 56.1089 59.2469 56.378 59.4756 56.5027C59.829 56.2946 59.3312 55.777 59.559 55.3832C59.559 54.5939 59.6209 53.7237 60.16 53.1012C60.16 53.765 59.9322 54.5113 60.326 54.9885C60.43 55.0298 60.5135 54.9473 60.5547 54.8639C60.4094 53.7031 60.6785 52.4787 61.363 51.5458C61.4042 52.2096 61.0526 52.9972 61.6742 53.4331L61.7576 53.3497C61.6958 52.3953 61.7576 51.3592 62.3587 50.6326C63.0018 51.0892 62.338 52.0643 62.9184 52.4993C63.1471 52.1889 62.8359 51.8355 63.0018 51.5045C63.2718 51.6902 63.5409 51.9189 63.6441 52.2302C61.3011 53.8897 59.3312 56.2946 59.5178 59.2611ZM66.9837 44.8468C65.5323 46.422 63.5203 47.066 61.4455 46.9207C60.9279 46.8167 60.5754 46.6713 60.0775 46.4848C59.5384 46.2148 59.3518 45.6344 59.0818 45.1572C61.3217 45.6344 63.6028 45.1778 65.4292 44.078C65.8427 43.7255 66.2787 43.3945 66.7146 43.042C66.9218 43.6017 67.399 44.244 66.9837 44.8468ZM67.8763 46.6301C67.1918 47.8949 65.7395 48.4134 64.3922 48.6421C62.9184 48.6206 60.9907 48.9731 60.3682 47.1898L60.326 47.1486C60.7198 47.1073 61.2598 47.4177 61.7989 47.3558C63.9356 47.5217 66.0095 46.6301 67.3578 45.0325C67.6897 45.0737 67.6071 45.4272 67.7928 45.5931C67.9588 45.8829 67.9381 46.2973 67.8763 46.6301ZM68.0628 49.1193C66.5487 50.2594 64.2254 51.0273 62.4421 49.9482C62.2142 49.6163 61.9433 49.3059 61.7576 48.9525C62.7327 49.0359 64.0182 49.3678 65.0757 48.9946C66.0302 48.7874 66.8384 48.2896 67.6278 47.667C67.835 47.4383 68.0413 47.0867 68.3113 47.0032L68.6647 47.7083C68.8307 48.3308 68.3113 48.6834 68.0628 49.1193ZM66.9425 51.753C65.9476 52.0436 64.6201 52.2096 63.7903 51.4632L63.2718 50.8613C64.1007 50.8407 65.2623 50.9448 66.1136 50.5913C66.7765 50.446 67.4403 49.9903 68.0628 49.6369C68.4154 49.3265 68.6019 48.8493 69.0164 48.5999C69.203 48.8493 69.1823 49.2018 69.3492 49.4719C69.1823 50.5707 67.9381 51.4632 66.9425 51.753ZM70.0955 52.1055C70.3233 52.5621 70.3655 53.2259 70.0336 53.661C69.2451 54.6773 67.7928 54.7813 66.6733 54.5732C66.3612 54.4494 66.1549 54.1382 65.9889 53.8682C67.5228 54.0969 69.2245 53.5578 70.0955 52.1055ZM69.5151 52.1889C68.6854 53.3084 67.2744 53.6403 65.9064 53.3909C65.3466 53.2259 64.9932 52.9146 64.6407 52.458C66.5074 52.6653 68.6226 52.023 69.473 50.1966C69.6802 50.2801 69.6595 50.5913 69.7842 50.7573C69.9502 51.2345 69.8677 51.8355 69.5151 52.1889ZM58.6504 56.2318C58.6504 56.2318 58.6118 55.3689 58.4898 54.9267C58.3687 54.4844 58.3292 53.7812 58.9535 53.443L58.993 53.1999C58.993 53.1999 58.3902 53.0617 58.3902 52.6976C58.3902 52.3369 58.8934 52.2768 58.8934 51.9943C58.8934 51.7171 58.5337 51.6346 58.4297 51.613C58.3292 51.5951 57.7874 51.5736 57.5488 50.6891C57.3057 49.8091 56.5639 47.0373 56.5639 47.0373C56.5639 47.0373 56.9245 46.7341 56.946 46.1744C56.9631 45.6111 57.0456 44.9903 57.5659 44.7472C58.0915 44.505 58.1086 44.5651 58.1086 44.5651C58.1086 44.5651 59.0755 46.1914 59.3743 46.6166C59.6739 47.0373 61.1396 48.9238 61.9469 50.2074C61.9469 50.2074 58.7939 52.9397 58.6504 56.2318ZM73.889 66.5647L73.8693 66.5709L73.8881 66.5638L73.889 66.5647ZM74.926 66.2552L74.9143 66.2372L74.9242 66.2516L74.9269 66.257L74.926 66.2552ZM78.0279 62.9111L77.26 63.3874L77.2385 63.4009L77.2304 63.3793C76.8142 62.4428 76.4626 61.3843 76.1935 60.3474L76.189 60.3348L76.198 60.3258C77.0349 59.6145 78.0979 59.4279 79.1518 59.1597H79.1608L79.1644 59.1633C79.3465 59.2503 79.5421 59.2378 79.7197 59.2548C79.9018 59.2718 80.0749 59.3284 80.1924 59.567V59.5714C80.361 60.9591 79.0254 62.1827 78.0279 62.9111ZM73.6612 65.4048C76.337 64.5329 79.1169 63.3919 80.6517 60.6515C80.8383 60.1958 80.8777 59.636 80.6517 59.1812C80.3584 58.7857 79.9852 58.7049 79.5824 58.7049C79.3313 58.7049 79.0684 58.7363 78.8047 58.7426C77.7247 59.0557 76.6492 59.3239 75.7342 60.0092L75.6122 60.2998C76.0239 61.4014 76.337 62.52 76.6886 63.6395C76.4796 63.7866 76.189 63.887 75.9638 64.0126C75.509 63.3488 75.4256 62.4383 75.0489 61.692C75.0094 60.9026 73.8908 59.8881 74.9278 59.3068C76.4796 58.4959 78.184 57.8761 79.9673 57.7065C80.527 57.7281 81.1468 57.9577 81.5236 58.4959C82.287 60.2173 81.2114 61.8571 80.0058 63.0196C78.4531 64.3858 76.5666 65.1743 74.6542 65.795L73.7437 65.9206C73.8253 65.7125 73.5786 65.6084 73.6612 65.4048ZM82.6852 61.483L82.7032 61.4794L82.6843 61.4839L82.6852 61.483ZM83.2414 61.4839C82.435 60.0092 82.5776 57.685 80.527 57.2509C78.3885 57.1899 76.0894 58.0187 74.177 59.1812C73.4306 59.9267 74.4497 60.5689 74.4891 61.2973C74.7188 62.3343 75.2354 63.2448 75.3395 64.3248C74.8623 64.4898 74.3851 64.7195 73.8908 64.8406C73.4746 64.9886 73.123 64.7796 72.8494 64.5329C71.6267 63.9732 70.4041 64.6154 69.3886 65.1312C68.9509 65.8381 68.1229 65.2353 67.4986 65.4873C65.7153 65.5914 63.4997 65.5474 62.0025 66.9181C60.988 67.9111 62.068 69.0736 61.964 70.1922C59.1626 70.9386 56.4042 71.7934 53.4593 72.1827C52.6484 72.3307 51.798 72.4348 50.97 72.5568C48.3758 72.9506 45.7215 73.2412 43.2323 73.3067L43.1498 73.2197C43.1722 73.1201 43.2762 73.0376 43.2323 72.912C45.0156 70.691 47.5479 68.9911 50.0156 67.7685C50.3672 67.5819 50.7009 67.2913 51.0956 67.1657C51.4033 66.7495 51.8805 66.7925 52.2151 66.3978C54.3312 65.0926 56.6518 63.5569 57.7309 61.2148C58.061 60.716 58.1471 60.1348 58.3561 59.5759C58.5203 59.0772 58.5203 58.643 58.6853 58.1443C59.2056 59.4064 59.2881 60.9852 60.6373 61.7315C62.3156 62.9972 64.4927 63.3273 66.5487 62.6034C69.2021 61.5664 70.6508 58.704 70.9028 55.9842C71.0284 55.6335 71.4401 55.5725 71.5442 55.2173C71.1719 54.8872 70.9853 54.3669 71.1719 53.9112C71.3146 53.4349 71.9999 53.5174 72.0645 53.0223C71.9389 52.8967 71.7747 52.8536 71.6267 52.7496C71.1325 52.3979 70.8589 51.8382 70.9853 51.2354C71.0284 50.7582 71.6491 50.5716 71.7308 50.1168C71.3576 49.9912 70.9243 49.9302 70.6947 49.5965C70.6947 49.4315 70.9028 49.349 71.0284 49.3059C72.2905 49.0799 74.3851 48.6421 75.3 50.0738C76.6492 51.7341 74.9663 53.5991 75.0919 55.3859C75.2354 55.7761 75.1134 56.3789 75.5261 56.587C75.5261 55.1348 76.9784 54.7401 77.7677 53.7031L77.9768 54.0153C78.4701 53.2699 77.8727 52.1504 78.4916 51.422C78.6791 51.2964 78.8648 51.5476 79.0514 51.422V51.1923C78.5356 50.7196 78.558 50.0343 78.4531 49.3884C78.5141 49.0799 78.8872 49.288 79.0128 49.0368C78.6397 48.7901 78.349 48.373 78.1624 47.9613C78.0369 47.1934 77.2914 46.7162 76.7317 46.3224L77.1264 45.8452C77.2699 45.429 77.5596 45.0558 77.7247 44.6387C77.2699 44.5176 76.7102 44.392 76.2939 44.0798C77.0223 42.9603 76.9353 41.4255 76.9784 40.2845L76.7703 40.411C76.6662 39.6432 76.6492 38.7928 76.2939 38.1684C76.1289 38.2115 76.2545 38.4806 76.0464 38.4196C75.6517 37.5872 75.3395 36.6767 74.6147 36.0129C74.264 35.9304 74.5716 36.3251 74.368 36.3861C73.7222 35.9304 73.4136 35.2675 73.3275 34.5382C73.1409 34.5382 73.1014 34.7248 73.0584 34.8503C72.7677 37.0274 73.7868 39.2045 73.1839 41.3215C72.8933 41.9028 72.8933 42.6096 72.4161 43.1254C71.9389 44.453 70.7162 45.324 69.5752 46.0703C69.4927 46.0533 69.3886 46.0919 69.3456 46.0318C69.2021 45.4065 69.7618 44.9078 69.7403 44.331C69.2855 44.2485 68.8684 43.8717 68.6217 43.5201C68.5176 42.9603 68.7042 42.4401 69.2245 42.0893C69.3886 41.6946 68.8289 41.8812 68.6603 41.6946C68.183 41.3215 67.8754 40.7016 67.8754 40.0163C67.8314 39.5176 68.3911 39.2045 68.3911 38.7712C67.8538 38.7712 67.4376 38.251 67.19 37.8168C66.9209 37.049 66.8994 35.9914 67.3165 35.2235C67.8099 33.068 70.8203 33.0895 70.8589 30.7438C70.9853 30.2881 71.6922 30.7653 71.9819 30.3096C72.1685 30.1015 71.8348 30.1625 71.7747 30.1015C71.1504 29.7678 71.276 29.0215 71.215 28.5057C71.5056 28.4016 71.6707 28.7093 71.9389 28.5443C72.0645 28.4402 72.356 28.4016 72.2519 28.1935C71.8564 28.2321 71.7532 27.7988 71.5056 27.5907C71.6707 27.4652 71.8348 27.6553 72.0214 27.5907C72.147 27.5513 72.373 27.5082 72.2905 27.2786C71.9174 27.031 71.6922 26.5968 71.6922 26.203H71.9819C72.5417 26.0165 71.8564 25.7034 71.8958 25.3912C71.9389 25.3096 72.0214 25.2872 72.1039 25.3096C72.1865 25.2486 72.2519 25.1445 72.208 25.0835C71.4016 24.8754 71.7092 23.8995 70.9459 23.6313C71.5227 23.1756 70.6122 23.0285 70.6508 22.5943C70.5691 22.3647 70.3431 22.3431 70.1735 22.2821C70.1565 22.1566 70.1951 22.0525 70.3 21.97C70.5512 21.5753 70.074 21.5358 69.8228 21.4533C69.8228 21.2021 69.8883 20.6209 69.3456 20.8074C69.6147 20.1051 68.7473 20.3517 68.4342 20.2916C68.4566 20.001 68.5993 19.7319 68.4961 19.4413C68.166 19.3587 67.9794 19.5848 67.7058 19.5624L67.6672 19.0035C67.3766 18.921 67.2286 19.1506 66.9819 19.1291C66.258 19.853 66.3576 18.5048 65.7584 18.3612C65.6113 18.2787 65.3646 18.1316 65.1995 18.3182C65.2821 18.6958 65.6113 19.0466 65.4247 19.4798C65.3036 19.6494 65.0955 19.9355 64.8658 19.8144C64.5967 19.4583 64.3061 19.1076 63.9545 18.7775C63.7894 18.5918 63.7679 18.2186 63.4342 18.1747C63.2261 18.6734 63.2916 19.2726 63.2261 19.8144C62.9184 19.7489 62.6053 19.4197 62.3156 19.6063C62.086 20.3517 62.4196 21.0595 62.957 21.5968C62.5623 21.9484 62.2725 22.3431 61.9209 22.7154C61.3997 23.7353 60.3251 24.3336 59.5572 25.2271C58.7069 25.89 58.6423 26.97 58.5203 27.9029C58.8325 28.4232 59.3707 28.2536 59.8479 28.5057C59.9089 28.6707 59.6999 28.7308 59.6389 28.8349C59.4092 28.9174 59.3707 28.5667 59.1626 28.6268C58.8934 28.6707 58.8504 28.9614 58.7679 29.1471C58.8719 29.3337 58.8325 29.5812 59.08 29.7068C59.5572 29.9759 60.0946 29.7068 60.5117 29.3561C60.8624 29.4377 61.3002 29.2081 61.6733 29.3946V29.3121C62.4196 29.087 62.7318 28.172 63.4781 27.8419C63.7679 27.9415 64.037 27.6553 64.2236 27.9854C63.6208 28.8349 62.5022 29.087 61.7559 29.7499C60.4076 30.5348 59.1626 31.8624 58.5203 33.2545C58.2691 33.6062 58.3337 34.1435 57.9614 34.4171C57.2331 33.2545 56.9631 31.8839 56.092 30.8254C55.5754 30.3921 54.7869 30.3706 54.1616 30.6173C52.9211 31.5107 51.3862 31.6587 50.1806 32.5907L50.0981 32.5082C50.0766 32.136 49.9115 31.8238 49.6649 31.5107C49.2702 31.3241 48.8746 31.1986 48.4198 31.1815C47.7345 31.116 47.0707 31.6587 46.4293 31.221C46.2813 30.9304 46.1996 30.6397 46.1772 30.3096C46.0561 30.019 46.2598 29.3337 45.8265 29.2296C45.4919 28.6923 45.5574 27.9854 45.5143 27.3216C45.4749 27.1781 45.2883 27.3216 45.2228 27.196C44.9331 26.1815 45.1017 24.958 45.0156 24.0035C45.1403 23.5658 44.707 23.0285 45.2228 22.7594C45.3062 22.6329 45.3708 22.3862 45.1842 22.3207C45.1187 22.2606 45.1187 22.1171 45.2228 22.074C46.0732 21.9915 45.909 20.7249 46.8195 20.8505C46.9451 20.7464 46.9235 20.5599 46.9881 20.4343C46.9451 19.9571 47.1317 19.5023 46.9451 19.0035L45.6184 19.0466L45.5143 18.964C45.3493 18.2787 45.4318 17.4508 45.9521 16.9735C46.3853 16.848 46.737 16.5789 47.1756 16.8049C47.4833 16.9906 47.6519 17.3252 47.6905 17.6544C47.5873 17.8625 47.3828 17.9881 47.1756 17.928C46.7585 17.7584 46.841 17.1772 46.4679 17.1772C46.3638 17.8024 46.5719 18.4222 47.1146 18.7775C47.3828 18.921 47.817 18.921 48.0637 18.7775C48.4593 18.5263 48.6889 18.1747 48.7705 17.6983C48.4593 16.9305 49.4774 17.4508 49.7465 17.0955C50.4928 16.8049 50.2632 16.0801 50.3062 15.4558C50.3062 15.0656 50.8875 14.792 50.8875 14.4619C50.6363 14.3587 50.3672 14.3148 50.0981 14.3363C49.4774 14.3363 49.4953 15.0431 49.1437 15.3733L49.1051 14.6494C48.9571 14.3803 48.6889 14.0896 48.4198 13.9425C48.2117 13.964 47.982 13.7559 47.817 13.9425C47.7784 14.2107 48.0637 14.1937 48.1462 14.3803C48.0637 15.1041 47.2357 14.9615 46.737 15.1696C46.0732 15.2692 46.0131 16.0801 45.3887 16.2057C44.4379 16.787 44.4164 18.0105 44.5375 19.0035C44.0226 19.1291 44.4558 19.6664 44.1482 19.9571C43.7526 19.853 43.6665 19.3767 43.5454 19.0466C43.3148 18.3828 43.4198 17.5333 43.4628 16.8049C43.6055 15.7895 44.7249 15.1867 45.3062 14.3803C44.9546 13.6734 45.909 13.5083 45.9521 12.9055C45.7655 12.762 45.5574 13.0527 45.3887 12.823C45.3887 12.7405 45.3887 12.6364 45.4318 12.5754C46.5943 12.3673 45.7655 11.3097 46.2598 10.6244C46.2212 10.2943 46.0346 10.1902 45.8265 9.93908C45.596 10.0216 45.3887 9.83503 45.3493 9.58745C45.1017 9.19365 44.6254 9.05013 44.1867 9.11023C44.001 9.0286 43.792 8.86355 43.5839 8.98465C43.1498 9.52735 42.4869 9.71303 42.1137 10.3768L41.9487 10.2297C41.6975 10.5634 41.3853 10.9366 41.3853 11.4138C41.5934 11.9511 40.8686 11.9296 40.639 12.2633C40.2658 12.658 40.3484 13.2608 39.9151 13.5693C39.4164 12.762 38.5875 12.3458 38.1928 11.4963C38.2152 10.3993 36.7621 9.79645 37.3649 8.55138C40.1447 6.85063 43.3148 8.32175 46.3423 8.46886C50.7224 9.0887 56.2571 9.15418 59.1195 5.19023C59.141 4.92112 59.4747 4.65202 59.3276 4.42238C57.939 5.27276 56.1351 5.27276 54.4953 5.39834C53.3767 5.35528 52.0886 5.37681 51.1781 5.06465C48.897 4.77401 46.8195 3.94516 44.829 2.99162C43.0681 2.1843 41.0337 1.87214 39.0037 2.20135C38.7956 2.22377 38.5444 2.37088 38.4009 2.2453C38.5059 1.82908 38.2753 1.41645 38.0457 1.04418C37.7595 0.874647 37.4689 0.523013 37.1567 0.523013C36.5369 0.419855 35.9332 0.671022 35.517 1.12581C35.1438 1.5815 35.1008 2.37088 35.3744 2.86514C35.5995 3.25984 35.9727 3.53343 36.2848 3.75858C36.3889 6.30882 36.2848 8.49039 36.3674 10.811C36.2848 11.1842 35.9942 11.6389 36.2848 12.0166C36.3458 13.6124 36.3458 15.6639 36.2848 17.3638L36.1593 17.5333C36.0552 17.6983 36.1413 17.884 36.2418 18.0105L36.2848 31.1815C36.0157 31.4506 35.682 31.5933 35.517 31.9494C35.456 32.2571 35.517 32.6302 35.682 32.9029C36.5145 34.0224 37.7165 33.6663 38.9176 33.5452L39.0037 33.6277C38.7956 34.1049 38.8351 34.8118 39.1472 35.2235C39.2728 35.6397 38.8566 35.9519 38.566 36.1779C37.0312 37.0059 35.1878 37.258 33.5265 36.8633C32.6331 36.7368 33.566 36.0129 33.4009 35.4926C33.2359 34.7678 32.8412 33.9569 32.0132 33.8143C31.2839 33.6277 30.4344 33.8573 29.9788 34.4557C29.9572 33.8573 30.0442 33.1074 30.6856 32.8168C31.2839 32.9208 31.8652 33.0895 32.3639 33.5021C32.7371 33.9569 33.0062 34.313 33.609 34.3301C33.8996 34.8503 33.7956 35.4711 33.6915 36.0524L33.8386 36.1779C34.5634 36.3251 35.3744 36.2605 36.1198 36.3861C36.5539 35.7007 37.2994 36.5511 37.7165 35.7438C37.8636 35.5967 38.2368 35.8048 38.2368 35.4926C37.5299 34.3731 36.2418 33.8573 35.2873 33.068C34.1903 31.5933 32.2213 31.5933 30.8076 30.5787C28.1964 29.9373 28.3219 33.129 27.1818 34.4557L27.0123 34.2305C26.2884 31.7413 23.8593 29.8324 21.6606 28.7533C21.3915 28.5667 20.9968 28.3801 20.9143 28.0285C22.0984 27.4257 22.5541 29.3561 23.7382 29.3946C24.6101 29.087 24.9832 30.0584 25.9368 29.8324C26.1233 29.7678 26.2444 29.6467 26.3099 29.4377C26.414 29.1865 26.3485 28.8349 26.1018 28.7093C25.8327 28.5057 25.7287 28.939 25.4551 28.8349C25.3734 28.7533 25.2299 28.6492 25.2909 28.5443C25.7502 28.3577 26.431 28.4402 26.6616 27.8419C26.7647 26.2631 25.5205 25.1006 24.3795 24.1471C23.3435 23.5263 23.1138 22.3037 22.1379 21.5968C22.4716 21.2846 22.7182 20.9545 22.8662 20.5599C22.8053 20.1652 23.0089 19.8144 22.6967 19.5238C22.4106 19.6063 22.1809 19.7319 21.9118 19.853C21.7477 19.5848 21.8688 19.1677 21.8302 18.8385C21.7647 18.6088 21.8078 18.0921 21.4741 18.2186C21.2704 18.964 20.5412 19.2332 20.1904 19.9185H20.0648C19.2584 19.6063 19.8173 18.7559 19.8343 18.2787C19.1535 18.2357 18.8628 18.9425 18.5507 19.3982C18.217 19.1901 17.8662 19.0681 17.4715 19.0035C17.163 19.1506 17.5146 19.3982 17.3495 19.6063C17.0975 19.5848 16.8903 19.4413 16.6427 19.4413C16.3126 19.6888 16.7467 20.0826 16.5602 20.4343C16.3521 20.3302 16.0184 20.3302 15.7923 20.3733C15.7923 20.7249 15.6497 21.0155 15.272 20.9545C15.1294 21.1411 15.3375 21.3492 15.272 21.5143C15.0855 21.5753 14.8388 21.5143 14.7132 21.7224C14.7347 21.9484 14.8163 22.135 14.8773 22.3207C14.2135 22.2821 14.5912 23.1101 13.9669 23.1926C13.8233 23.3792 14.0494 23.5048 14.114 23.6698C13.3255 23.9389 13.6547 24.9149 12.8483 25.123C12.7442 25.4137 13.0564 25.3527 13.1604 25.4738C13.1389 25.7473 12.8259 25.8469 12.8483 26.1205C12.8868 26.4712 13.2815 26.1591 13.4071 26.3887C13.199 26.7018 13.1604 27.1566 12.7657 27.3216C12.7227 27.9029 13.3255 27.5082 13.5506 27.6724C13.3686 27.9854 13.1165 28.2536 12.7657 28.3191C12.9739 28.7533 13.4896 28.6098 13.8843 28.6268C13.9884 28.9829 13.6978 29.1471 13.8018 29.4987C13.6377 29.8324 13.5112 30.2881 13.0349 30.2666C13.199 30.7438 13.7803 30.5572 14.1965 30.6612C14.175 31.4506 14.4871 32.2571 15.2335 32.7773C16.6642 33.4411 17.9918 34.8503 18.156 36.4462C18.0304 37.214 18.1344 38.0644 17.4321 38.6062C17.2024 38.7712 16.9549 38.8753 16.6857 38.9363C16.7898 39.287 17.1414 39.4951 17.2024 39.8513C17.328 40.5536 17.0975 41.2605 16.5602 41.7592C16.3521 41.8812 16.0614 41.8633 15.8748 42.0499C16.248 42.4616 16.5817 42.9603 16.5602 43.5631C16.3951 43.8323 16.1655 44.1444 15.9188 44.2485C14.4656 44.5571 16.3951 45.4891 15.7098 46.2354C14.3616 45.5931 13.0564 44.331 12.4751 42.9603C11.6032 41.282 11.6418 39.4951 11.8508 37.6087C12.1414 36.9449 12.0194 36.238 12.0804 35.5751C12.1199 35.2675 12.0194 34.8503 11.7683 34.6647C11.6032 35.3706 11.3126 36.0954 10.6882 36.5287C10.6057 36.4901 10.6703 36.4076 10.6488 36.3421C10.6272 36.282 10.6488 36.0954 10.5232 36.1385C9.63424 36.6982 9.42613 37.7567 8.97044 38.6062C8.88343 38.5021 8.86638 38.3335 8.69774 38.294C8.55422 38.6887 8.51116 39.1229 8.40711 39.5391C8.28511 39.8513 8.47169 40.3285 8.24205 40.5321C8.18106 40.4711 8.09853 40.4496 8.0169 40.4496V40.5752C8.077 41.9028 8.18106 43.1909 8.76233 44.2879C8.53269 44.4745 8.24205 44.453 8.0169 44.6387C7.83032 44.8253 7.33157 44.6216 7.37015 44.9948C7.83032 45.472 7.84736 46.1134 8.36764 46.5906C6.97546 46.9853 7.20509 48.4995 6.0865 49.2234C6.10803 49.5355 6.49914 49.3059 6.64625 49.5571C6.58525 50.2819 6.45967 50.9448 6.02102 51.5045C6.04345 51.8777 6.35561 51.5476 6.54219 51.6301C6.78887 51.8382 6.77183 52.1504 6.89293 52.4195C7.07951 53.0223 6.6893 53.7031 7.05798 54.2243C7.28762 54.3884 7.18357 54.0377 7.33157 53.9552C7.97295 54.7616 9.13549 55.2388 9.53018 56.2534C9.63424 56.4229 9.48623 56.7135 9.65128 56.8176C9.88182 56.6696 9.96344 56.4229 9.92487 56.2148C10.5887 54.532 8.86638 52.8967 9.4046 51.1098C9.67281 50.2819 10.4407 49.453 11.3736 49.3059C12.4751 49.2449 13.5327 49.1839 14.4441 49.6782C14.279 50.0738 13.8413 50.1993 13.4511 50.2424C13.3255 50.429 13.5112 50.5716 13.6377 50.6766C14.0494 50.9062 14.2135 51.3834 14.1965 51.8382C14.0925 52.4374 13.5937 52.9577 13.0734 53.2268C13.095 53.5991 13.4896 53.582 13.7193 53.7471C13.9669 54.0377 14.1319 54.3283 14.0709 54.7401C14.0099 54.9697 13.8233 55.1563 13.6377 55.3429C13.6547 55.6766 13.9884 55.8632 14.1965 56.0668C14.4656 58.1622 15.1725 60.0917 16.7467 61.649C18.5722 63.3703 21.4741 63.5139 23.6942 62.4984C25.6246 61.8786 26.0408 59.9051 26.579 58.2878C26.7217 58.5174 26.6616 58.9121 26.7871 59.1812C27.3029 63.1192 31.4535 65.6084 34.524 67.3953C37.3218 68.783 40.0801 70.4613 42.1962 73.0762V73.2197C39.6029 73.4278 37.0312 72.912 34.4379 72.6429C31.2454 72.2482 28.2789 71.6454 25.2299 70.839C24.4836 70.5268 23.6511 70.4228 22.9057 70.1097C23.0313 68.9911 23.8207 67.4994 22.6581 66.6059C20.8103 65.2182 18.26 65.4873 16.0399 65.4048C14.9213 64.6154 13.5112 64.0342 12.1199 64.4073C11.7898 64.4898 11.6032 64.9446 11.169 64.802C10.5887 64.5939 9.96344 64.5329 9.44765 64.1992C9.85939 62.7676 10.298 61.3144 10.9179 59.9706C11.0829 59.4719 10.7098 59.0772 10.3976 58.7866H10.211C8.77937 57.9146 7.12346 57.5415 5.50523 57.1082C4.5508 56.9387 3.36762 57.1683 2.78635 58.1443C2.29209 59.2638 1.87497 60.4039 1.50271 61.5664C1.00396 63.4529 -0.198051 65.1743 0.0279995 67.2482C1.00396 69.7975 3.70132 71.3763 5.98245 72.5568C6.41571 72.808 6.85436 72.9945 7.33157 73.1201C7.72626 73.4933 8.26358 73.4717 8.65827 73.7839C8.26358 74.881 7.86889 76.3557 8.84485 77.3092C10.0675 78.2852 11.5207 78.7193 12.8483 79.4262C16.3126 81.0391 20.1079 81.8284 23.7767 82.93C24.5231 83.095 25.3734 83.3031 26.0579 83.4072C31.0579 84.5159 36.3162 84.9295 41.4508 84.9295C42.2626 84.9295 43.0699 84.9187 43.8746 84.8989C49.9725 84.8559 55.8445 84.175 61.4867 82.8475C63.6862 82.059 66.0284 81.6419 68.2261 80.8534C68.6603 80.6659 69.1375 80.5448 69.5752 80.3367C71.7532 79.5913 73.8908 78.6144 75.8158 77.3487C76.8528 76.4382 76.4195 74.9456 76.0464 73.8664L76.2114 73.6799C76.9784 73.5148 77.6206 73.0161 78.3705 72.7864C80.7521 71.4813 83.7231 69.9016 84.7161 67.1657C84.7376 65.1142 83.7231 63.3703 83.2414 61.4839Z" fill="white"/>
<path id="Path 85297" d="M77.248 63.3711L77.2597 63.3881L77.2498 63.3711H77.248Z" fill="white"/>
<path id="Path 85299" d="M14.9656 67.2031L14.9629 67.2076L14.9638 67.2085L14.9772 67.1914L14.9656 67.2031Z" fill="white"/>
<path id="Path 85300" d="M64.5551 67.4766L64.5488 67.4551L64.5524 67.4748L64.5551 67.4766Z" fill="white"/>
<path id="Path 85301" d="M69.9134 67.2688L69.9081 67.2509L69.9062 67.25L69.9134 67.2688Z" fill="white"/>
<path id="Path 85303" d="M73.4941 67.2887L73.4959 67.2905L73.4968 67.2896L73.5094 67.2734L73.4941 67.2887Z" fill="white"/>
<path id="Path 85304" d="M75.7773 74.5072H75.7791L75.7953 74.5L75.7773 74.5072Z" fill="white"/>
<path id="Path 85305" d="M29.1719 73.6362L29.1737 73.6317V73.6191L29.1719 73.6362Z" fill="white"/>
<path id="Path 85306" d="M63.4436 23.7281C63.3207 23.8457 63.0946 23.8788 62.9637 23.8824C62.8228 23.8878 62.6407 23.7909 62.6407 23.7909L62.8542 23.5703C62.8542 23.5703 62.935 23.7658 63.1171 23.7721C63.3745 23.7811 63.4292 23.5452 63.4292 23.5452C63.4705 23.5963 63.5055 23.607 63.5602 23.6169C63.5117 23.6456 63.4812 23.6985 63.4436 23.7281ZM64.3505 22.8401C64.0186 23.3586 63.6032 22.8195 63.231 22.7988C62.9601 22.8814 62.7322 23.0886 62.5672 23.3173C62.4613 23.5452 62.2747 23.7317 62.2344 23.9605C63.231 24.4368 63.9145 23.5245 64.7864 23.3173C64.8689 23.2133 65.138 23.1926 65.0349 22.9639C64.8483 22.8195 64.5783 22.7576 64.3505 22.8401Z" fill="white"/>
<path id="Path 85307" d="M72.1489 48.2266C71.6322 48.449 71.2779 48.6123 70.4688 48.911C70.6347 48.8697 71.6457 48.5333 72.1489 48.2266Z" fill="white"/>
<path id="Path 85308" d="M73.7868 44.3272C74.7197 42.2317 74.9897 39.6187 74.2228 37.3367C74.1797 37.2954 74.1178 37.2129 74.0559 37.2129C73.9519 37.5242 74.0353 37.8345 74.1385 38.1252C74.6982 39.9506 74.2847 41.8792 73.6621 43.5593C73.4962 43.8706 73.1858 44.2231 73.3302 44.555C73.5168 44.7004 73.7043 44.4931 73.7868 44.3272Z" fill="white"/>
<path id="Path 85309" d="M75.695 40.6567C75.695 40.5948 75.6331 40.5742 75.5703 40.5742V40.8021H75.695V40.6567Z" fill="white"/>
<path id="Path 85310" d="M74.1381 44.8048C74.7193 44.7223 74.8646 44.0791 75.175 43.6844C75.445 42.8547 75.6935 41.9631 75.6531 41.0508L75.5293 41.1333C75.3428 41.9631 75.2369 42.8134 74.7821 43.5185C74.6772 44.037 73.8896 44.2657 74.1381 44.8048Z" fill="white"/>
<path id="Path 85311" d="M77.3746 50.4666C77.4778 50.7151 77.3333 50.9232 77.5002 51.151C77.7271 50.28 77.5002 49.2637 77.0427 48.5165C76.7314 48.1021 76.3789 47.7289 75.9645 47.4382C75.7564 47.3755 75.6738 47.5629 75.6945 47.7083C76.6902 48.4124 77.188 49.409 77.3746 50.4666Z" fill="white"/>
<path id="Path 85312" d="M76.6087 51.4634C76.5262 52.2716 76.2553 52.9982 76.0481 53.7446C76.0284 54.0137 75.9037 54.2218 75.8203 54.429C75.8203 54.5537 75.8409 54.6577 75.9037 54.699C76.4222 53.828 76.6706 52.7901 76.8572 51.8366C77.0025 50.7162 76.6087 49.3895 75.5718 48.7051C75.4471 48.7257 75.4058 48.8495 75.4471 48.9536C76.1109 49.6792 76.5675 50.5296 76.6087 51.4634Z" fill="white"/>
<path id="Path 85313" d="M76.2104 60.3432H76.2131L76.2122 60.3423L76.1978 60.3262L76.2104 60.3432Z" fill="white"/>
<path id="Path 85316" d="M16.8852 73.6177L16.9417 73.475L15.7011 72.9718L15.6446 73.1144C16.0958 73.3396 16.0913 73.5567 15.9487 73.9038L15.2418 75.6521L15.2329 75.6476L14.2264 72.3771L13.0082 71.8828L12.9517 72.0254C13.0253 72.0559 13.1123 72.1125 13.2729 72.6417L12.1668 75.374C12.0143 75.7562 11.8367 75.7301 11.4725 75.6297L11.416 75.7777L12.7257 76.3069L12.7822 76.1634C12.3749 75.9427 12.2969 75.7858 12.4655 75.3696L13.3984 73.0579L13.411 73.0669L14.7126 77.23L14.8767 77.2955L16.2474 73.8957C16.3604 73.6221 16.4474 73.5002 16.8852 73.6177Z" fill="white"/>
<path id="Path 85317" d="M16.9465 73.6614C17.2111 73.7654 17.4542 73.8605 17.3268 74.2516L16.4002 77.114C16.2791 77.4827 16.0872 77.4387 15.7409 77.3652L15.6934 77.5123L19.1541 78.6354L19.791 77.4827L19.6268 77.4298C18.9621 78.2021 18.3082 78.159 17.7269 77.9725C17.3457 77.8469 17.2542 77.7383 17.3412 77.4782L17.8058 76.0466C18.3907 76.2376 18.6338 76.5112 18.4652 77.2746L18.6195 77.3257L19.2716 75.3227L19.1146 75.2751C18.7899 75.9811 18.4383 76.034 17.8704 75.8429L18.3172 74.4723C18.3997 74.2166 18.5118 74.2301 18.8374 74.3332C19.6349 74.5943 20.0089 74.8804 19.8744 75.7649L20.0206 75.8124L20.4072 74.6203L16.9931 73.5098L16.9465 73.6614Z" fill="white"/>
<path id="Path 85318" d="M26.3353 76.2175L26.3703 76.0659L25.2643 75.8103L25.2293 75.9619C25.4329 76.022 25.6455 76.0785 25.589 76.3261C25.5585 76.4516 25.5199 76.5126 25.4849 76.5683L24.3358 78.4771L24.3269 78.4726L24.1448 76.3045C24.1322 76.1825 24.1188 76.022 24.1367 75.9529C24.1842 75.7448 24.3618 75.7789 24.6265 75.8228L24.6615 75.6712L22.766 75.2335L22.7311 75.3851C23.0217 75.4631 23.0737 75.5456 23.1213 75.6972L23.1993 76.3296L22.0637 78.0125H22.0502L21.8331 75.6578C21.8251 75.5842 21.8206 75.5151 21.8376 75.4452C21.8897 75.2245 22.0637 75.2505 22.2843 75.281L22.3193 75.1285L20.5369 74.7168L20.502 74.8684C20.7495 74.9644 20.7971 75.0379 20.8312 75.3546L21.2743 79.3006L21.4429 79.3401L23.2038 76.7593L23.2433 76.7683L23.6075 79.8388L23.7725 79.8783L25.8276 76.5082C25.9496 76.3 26.1182 76.187 26.3353 76.2175Z" fill="white"/>
<path id="Path 85319" d="M29.4801 79.8548C28.8818 80.349 28.3875 80.4576 27.9103 80.384C27.7193 80.3535 27.2465 80.184 27.06 79.6987C26.8949 79.2699 26.9514 78.6752 27.0124 78.3065C27.1775 77.2704 27.5632 76.3635 28.4611 76.5071C29.159 76.6201 29.5626 77.422 29.6927 77.9898L29.8488 78.0114L30.0739 76.5761L29.9098 76.5501C29.8228 76.6937 29.7492 76.8147 29.5842 76.7842C29.4236 76.7627 28.9984 76.3851 28.4441 76.299C27.155 76.0944 26.1145 76.9098 25.9198 78.1594C25.7377 79.3085 26.3531 80.4405 27.7838 80.6657C27.9032 80.6845 28.0171 80.6935 28.1256 80.6935C28.7338 80.6935 29.1913 80.4127 29.6407 80.0413L29.4801 79.8548Z" fill="white"/>
<path id="Path 85320" d="M30.6377 79.5196L31.4056 78.0889L31.8433 79.6676L30.6377 79.5196ZM32.9969 80.2615L32.0209 76.8438L31.8478 76.8223L30.061 80.0399C29.8179 80.4785 29.7048 80.6777 29.3666 80.6867L29.3496 80.8427L30.6028 80.9943L30.6198 80.8382C30.4117 80.8033 30.1175 80.7477 30.148 80.5135C30.1605 80.4131 30.2906 80.1745 30.5157 79.7502L31.9043 79.9188C31.9689 80.1269 32.108 80.6086 32.0909 80.7773C32.0649 80.9818 31.9519 80.9728 31.5662 80.9558L31.5482 81.1118L33.5477 81.3585L33.5656 81.2024C33.2705 81.1764 33.196 80.9558 32.9969 80.2615Z" fill="white"/>
<path id="Path 85321" d="M35.4682 77.3433C36.2011 77.3953 36.5222 78.1371 36.6048 78.5794L36.7779 78.5919L36.8739 77.2437L36.6873 77.2302C36.6478 77.3477 36.6093 77.4347 36.4657 77.4258C36.2881 77.4123 36.01 77.1872 35.5122 77.1522C34.3317 77.0697 34.0805 77.903 34.0545 78.2798C34.0375 78.5659 33.998 79.0996 35.026 79.6854L35.4252 79.9105C35.8154 80.1321 36.097 80.3007 36.0666 80.717C36.063 80.7995 35.9885 81.4113 35.2431 81.3592C34.4537 81.3027 34.146 80.5743 34.0635 79.941L33.885 79.9285L33.7773 81.4633L33.9594 81.4723C33.989 81.3763 34.0285 81.2677 34.1586 81.2767C34.3496 81.2902 34.6143 81.5198 35.2036 81.5629C35.261 81.5664 35.3166 81.5682 35.3705 81.5682C36.3922 81.5682 36.7976 80.8892 36.8344 80.3707C36.8819 79.6935 36.4352 79.3032 36.2316 79.1822L35.3516 78.6664C34.8484 78.3668 34.7399 78.2241 34.7614 77.8851C34.7919 77.4859 35.1471 77.3217 35.4682 77.3433Z" fill="white"/>
<path id="Path 85322" d="M37.125 78.6451L37.3026 78.6487C37.4632 77.6602 38.1054 77.6512 38.5432 77.6432L38.4266 80.9173C38.4086 81.4421 38.2615 81.4465 37.8014 81.4681L37.7969 81.6242L40.0179 81.7022L40.0224 81.5461C39.5667 81.4986 39.4151 81.4815 39.4366 80.9523L39.5497 77.6782C39.9784 77.7167 40.6162 77.7688 40.7077 78.7707L40.8853 78.7752L40.9194 77.5257L37.186 77.3965L37.125 78.6451Z" fill="white"/>
<path id="Path 85323" d="M43.1928 81.5506C42.7766 81.5506 42.6375 81.503 42.6375 81.2034V78.2674C42.6375 77.7212 42.8331 77.7122 43.2663 77.6951V77.5391H41.0938V77.6951C41.3754 77.7122 41.6311 77.7256 41.6311 78.1383V81.1469C41.6311 81.5245 41.4445 81.5461 41.0938 81.59V81.7461H44.6926L44.9492 80.3324H44.7671C44.4809 81.0348 44.1338 81.5506 43.1928 81.5506Z" fill="white"/>
<path id="Path 85324" d="M47.1059 81.4249C46.7032 81.4464 46.5812 81.3818 46.5677 81.1082L46.4906 79.6039C47.1023 79.5734 47.4315 79.7421 47.5446 80.5144L47.7051 80.5054L47.5966 78.4064L47.436 78.4154C47.384 79.1913 47.0763 79.3698 46.4771 79.3913L46.3991 77.9507C46.3856 77.6825 46.4986 77.652 46.8413 77.6341C47.6791 77.591 48.1294 77.7211 48.316 78.5975L48.4721 78.5885L48.4075 77.3398L44.8203 77.53L44.8293 77.687C45.1154 77.687 45.3801 77.687 45.4016 78.0987L45.5577 81.1038C45.5792 81.4904 45.3845 81.5164 45.0329 81.5729L45.0419 81.7281L48.6757 81.5379L48.8578 80.2327L48.6847 80.2408C48.342 81.1997 47.7177 81.3953 47.1059 81.4249Z" fill="white"/>
<path id="Path 85325" d="M54.1823 76.9705L54.1653 76.8145L52.8045 76.958L52.8206 77.1141C53.3535 77.0836 53.4539 77.2872 53.4925 77.6648L53.689 79.5513C53.732 79.946 53.819 80.8959 52.73 81.008C51.8357 81.104 51.7496 80.2501 51.7101 79.8984L51.493 77.829C51.4374 77.2827 51.6285 77.2567 52.0357 77.1966L52.0187 77.0441L49.9277 77.2612L49.9466 77.4173C50.2919 77.4173 50.457 77.4128 50.509 77.933L50.7261 79.998C50.7996 80.6654 50.9817 80.8654 51.2733 81.0735C51.5899 81.2987 51.9828 81.348 52.2806 81.348C52.3937 81.348 52.4941 81.3408 52.5686 81.3337C52.9426 81.2951 53.4665 81.1211 53.7401 80.7524C53.9706 80.4447 54.0011 79.885 53.9626 79.5208L53.7526 77.5473C53.7096 77.1401 53.845 77.0575 54.1823 76.9705Z" fill="white"/>
<path id="Path 85326" d="M58.4085 76.2668L58.3825 76.1152L57.0602 76.3233L57.0854 76.4794C57.5886 76.4364 57.6971 76.6265 57.7528 76.9952L58.0488 78.861H58.0362L55.4896 76.5754L54.1934 76.779L54.2149 76.9351C54.2965 76.9217 54.397 76.9217 54.8087 77.2903L55.2689 80.2048C55.3335 80.6129 55.1693 80.682 54.8087 80.7816L54.8311 80.9376L56.2269 80.717L56.2009 80.5609C55.7416 80.5869 55.5936 80.4873 55.5201 80.0442L55.1343 77.59L55.1478 77.5855L58.4085 80.482L58.578 80.4559L58.0057 76.8355C57.9582 76.5404 57.9752 76.3933 58.4085 76.2668Z" fill="white"/>
<path id="Path 85327" d="M60.705 79.2514L60.0807 76.3065C59.9937 75.8947 60.2843 75.8257 60.5669 75.7512L60.5355 75.5996L58.4023 76.0553L58.4364 76.2069C58.719 76.1629 59.0096 76.1163 59.0966 76.5191L59.7201 79.464C59.7981 79.8416 59.5694 79.9152 59.2438 80.0148L59.2778 80.1664L61.4074 79.7152L61.3769 79.5636C61.0342 79.6111 60.7884 79.6416 60.705 79.2514Z" fill="white"/>
<path id="Path 85328" d="M63.8336 78.3369L62.9832 75.1668C63.4084 75.0798 64.0328 74.9452 64.4104 75.8737L64.588 75.8306L64.2498 74.625L60.6465 75.592L60.9497 76.8021L61.1228 76.759C60.9883 75.7606 61.6 75.566 62.0118 75.4269L62.8621 78.597C62.9967 79.1003 62.8577 79.1523 62.428 79.3048L62.4674 79.4564L64.6095 78.8841L64.571 78.7316C64.1198 78.8186 63.9726 78.8491 63.8336 78.3369Z" fill="white"/>
<path id="Path 85329" d="M68.9646 76.0942C68.9001 77.1087 68.3484 77.4684 67.7716 77.6685C67.3904 77.7985 67.2558 77.768 67.1652 77.5079L66.6745 76.0852C67.2603 75.8852 67.62 75.9596 67.9411 76.671L68.0972 76.6145L67.4119 74.6285L67.2603 74.6805C67.4209 75.4394 67.1733 75.695 66.61 75.8852L66.1372 74.5199C66.0502 74.2679 66.1498 74.2078 66.4709 74.0947C67.2639 73.8211 67.733 73.8256 68.1582 74.615L68.3053 74.563L67.8981 73.3789L64.502 74.5504L64.554 74.6975C64.8312 74.624 65.0832 74.5504 65.2133 74.9361L66.1937 77.7851C66.3193 78.1502 66.1453 78.2282 65.8206 78.3798L65.8726 78.5269L69.3118 77.3429L69.1297 76.0377L68.9646 76.0942Z" fill="white"/>
<path id="Path 85330" d="M71.5349 76.1246C71.2613 76.2457 71.1663 76.1632 71.0667 75.9381L69.7956 73.0846C69.731 72.9635 69.6655 72.8245 70.0297 72.6594C70.1786 72.5931 70.3213 72.5635 70.4558 72.5635C71.2003 72.5644 71.7099 73.4587 71.9081 73.8955C72.5109 75.2527 72.1727 75.8385 71.5349 76.1246ZM69.9302 72.4729L68.1953 73.2452L68.2608 73.3878C68.4904 73.3098 68.7461 73.2102 68.9022 73.5574L70.1472 76.3588C70.2423 76.5714 70.2038 76.784 69.844 76.9445L69.9086 77.0872L71.7036 76.2852C73.1182 75.6044 73.3353 74.4418 72.8706 73.3968C72.4804 72.5204 71.5215 71.7615 69.9302 72.4729Z" fill="white"/>
<path id="Path 85331" d="M21.5814 23.5413C21.5814 23.5413 21.6263 23.779 21.8846 23.779C22.0667 23.779 22.1537 23.5862 22.1537 23.5862L22.3591 23.814L21.9313 23.866C21.8155 23.8804 21.6774 23.8445 21.5608 23.7234C21.5231 23.692 21.4935 23.6373 21.4478 23.6077C21.5025 23.5996 21.5375 23.5907 21.5814 23.5413ZM21.3939 23.9181C21.8093 24.2706 22.4515 23.98 22.9081 24.0006C22.7215 23.6481 22.4928 23.213 22.1824 22.9636C21.9124 22.8183 21.5805 22.8183 21.3527 23.0462C21.0836 23.2336 20.8961 22.9224 20.6683 22.8398C20.4395 22.8398 20.2323 22.8398 20.1085 23.0049C20.0251 23.0668 20.0879 23.1708 20.1085 23.2336C20.5651 23.4202 21.0199 23.544 21.3939 23.9181Z" fill="white"/>
<path id="Path 85332" d="M24.9822 26.8219C25.1482 26.9457 25.1266 27.1745 25.3338 27.2794C25.4594 27.3413 25.6873 27.3817 25.8111 27.2373C25.8111 26.9673 25.977 26.6973 25.7492 26.4703C25.5832 26.3654 25.3338 26.3241 25.1482 26.3456C25.1266 26.2837 25.21 26.2622 25.2307 26.1994C25.2307 26.1375 25.2719 26.0343 25.1903 25.9922C25.0235 26.0128 24.879 26.1169 24.7741 26.2416C24.6081 26.3654 24.4009 26.2209 24.2969 26.1994C24.4009 26.5322 24.5875 26.8219 24.7741 27.1126C24.9616 27.1547 24.8988 26.9054 24.9822 26.8219Z" fill="white"/>
<path id="Path 85333" d="M59.8897 25.9913C59.8691 26.1366 60.0144 26.2819 59.9516 26.385L59.8484 26.3025C59.7229 26.2819 59.6197 26.3232 59.5165 26.3438C59.1012 26.4263 59.3712 26.8829 59.2887 27.1529C59.4125 27.2776 59.5578 27.3189 59.7229 27.2776C59.9722 27.1735 60.0144 26.9035 60.1588 26.7169C60.2001 26.8416 60.2001 27.091 60.4082 27.0282C60.4916 26.7169 60.7607 26.4263 60.8432 26.1572H60.7185C60.3875 26.5097 60.2629 25.8253 59.8897 25.9913Z" fill="white"/>
<path id="Path 85334" d="M13.0371 48.3926C13.378 48.5029 14.3674 48.9425 14.676 49.077C14.2777 48.8187 13.2659 48.4105 13.0371 48.3926Z" fill="white"/>
<path id="Path 85335" d="M11.8553 44.4726C11.3987 43.58 10.9834 42.6893 10.8803 41.6514C10.403 40.1785 10.9834 38.7693 11.0462 37.3789H10.9215C10.1546 39.5981 10.2371 42.1493 11.1709 44.2438C11.3162 44.4313 11.3575 44.8045 11.6894 44.7632C11.8141 44.7426 11.8966 44.617 11.8553 44.4726Z" fill="white"/>
<path id="Path 85336" d="M9.5308 40.9662V40.8415C9.55143 40.7374 9.46891 40.7787 9.44827 40.7168C9.36485 40.7581 9.34422 40.8415 9.36485 40.924C9.38548 41.0074 9.46891 40.9662 9.5308 40.9662Z" fill="white"/>
<path id="Path 85337" d="M9.57245 41.3207C9.48992 41.2794 9.44776 41.1969 9.36523 41.2794C9.44776 42.337 9.61371 43.3749 10.1322 44.245C10.3394 44.515 10.5269 44.951 10.9207 44.9922C11.0032 44.951 11.1288 44.8478 11.0857 44.7222C10.1322 43.7687 9.80029 42.5658 9.57245 41.3207Z" fill="white"/>
<path id="Path 85338" d="M8.97117 48.3094C9.11648 48.0394 9.44838 48.0807 9.44838 47.7497C9.36496 47.6869 9.30306 47.5828 9.17838 47.625C7.95484 48.4332 7.31167 49.803 7.53951 51.3791H7.62294C7.78889 50.238 8.05799 49.097 8.97117 48.3094Z" fill="white"/>
<path id="Path 85339" d="M8.9302 49.3876C7.64387 50.7771 8.37046 52.9129 8.9302 54.3858C9.01272 54.5724 9.05399 54.8631 9.28273 54.9052C8.97146 53.2664 7.9345 51.4615 9.13741 49.8648C9.21994 49.5114 9.96716 49.2845 9.5312 48.8691C9.28273 48.9517 9.13741 49.2217 8.9302 49.3876Z" fill="white"/>
</g>
</g>
</g>
</g>
</svg>
