<svg width="107" height="112" viewBox="0 0 107 112" fill="none" xmlns="http://www.w3.org/2000/svg">
<path d="M97.8618 21.3818L70.8449 8.23539L57.2392 1.53315C56.8773 1.35513 56.5153 1.20382 56.1444 1.07921L54.2992 0.18024C53.8047 -0.0600799 53.2132 -0.0600799 52.7188 0.18024L50.8735 1.07921C50.5027 1.20382 50.1318 1.35513 49.7787 1.53315L36.1819 8.23539L9.13841 21.3907C8.52921 21.6933 8.1319 22.3163 8.1319 23.0017V63.4377C8.1319 73.8871 13.1468 83.8648 21.5521 90.122L21.6051 90.1576L39.5723 102.663L48.6662 109.081C48.9664 109.294 49.2842 109.49 49.6109 109.659L52.5157 111.68C53.1249 112.107 53.9725 112.107 54.5817 111.68L57.5041 109.641C57.822 109.472 58.131 109.285 58.4223 109.072L67.0925 102.948L85.4923 90.1131C93.8623 83.8737 98.8772 73.896 98.8772 63.4555V23.0017C98.8772 22.3252 98.4799 21.6933 97.8707 21.3907L97.8618 21.3818Z" fill="#031F45"/>
<path d="M27.1671 84.2122L27.2112 84.2478L52.6831 102.209C53.1864 102.566 53.8839 102.566 54.3871 102.209L79.859 84.2122C86.7634 79.0053 90.8866 70.6831 90.8866 61.9693V28.2C90.8866 27.6303 90.5599 27.1052 90.0566 26.856L54.1487 9.16135C53.7426 8.95663 53.257 8.95663 52.8509 9.16135L16.943 26.856C16.4397 27.1052 16.1131 27.6303 16.1131 28.2V61.9515C16.1131 70.6742 20.2451 78.9964 27.1759 84.2211L27.1671 84.2122Z" fill="url(#paint0_linear_7051_34627)"/>
<path d="M53.4954 77.5452C66.978 77.5452 77.9079 66.5267 77.9079 52.9347C77.9079 39.3427 66.978 28.3242 53.4954 28.3242C40.0128 28.3242 29.083 39.3427 29.083 52.9347C29.083 66.5267 40.0128 77.5452 53.4954 77.5452Z" fill="white"/>
<path fill-rule="evenodd" clip-rule="evenodd" d="M56.6563 46.954V42.9576C56.6563 42.4591 57.0094 42.0853 57.5039 42.0853L60.3292 42.0586C60.8677 42.0586 61.2562 42.4235 61.2562 42.9576V46.954H63.7284C64.1875 46.954 64.5671 47.31 64.5759 47.7818V49.7844C64.5759 50.2473 64.1963 50.63 63.7372 50.6211H61.2562V56.1128C61.2562 56.9584 61.5034 57.5281 62.0155 57.893C62.5011 58.2312 63.2163 58.3825 64.1698 58.3914H64.6466C65.0174 58.3914 65.556 58.9433 65.556 59.3705V61.7737C65.556 62.1564 64.9468 62.6905 64.6466 62.6905H64.2228C63.2516 62.6905 62.3422 62.6104 61.4858 62.4323C60.6735 62.2632 59.8965 62.0051 59.1637 61.6224C57.6186 60.8391 56.6651 59.2993 56.6651 57.2521V50.6211H54.5814C54.4667 50.6211 54.343 50.5944 54.2371 50.5499L48.0921 62.1564C47.9243 62.5036 47.6859 62.6816 47.3592 62.6816C47.0326 62.6638 46.7765 62.5035 46.5999 62.1831L38.6361 47.942C38.3271 47.3545 38.5213 46.9629 39.157 46.9629H42.6445C43.2272 46.9629 43.6599 47.2477 43.9247 47.8174L47.3328 55.4453L50.626 47.7907C50.8379 47.2388 51.2175 46.9629 51.7914 46.9629H56.6739L56.6563 46.954Z" fill="#021D49"/>
<path fill-rule="evenodd" clip-rule="evenodd" d="M66.7482 60.5357C66.7482 61.7195 65.7946 62.6808 64.6204 62.6808C63.4461 62.6808 62.4926 61.7195 62.4926 60.5357C62.4926 59.3519 63.4461 58.3906 64.6204 58.3906C65.7946 58.3906 66.7482 59.3519 66.7482 60.5357Z" fill="#00EFFF"/>
<path d="M90.1892 74.4375H106.814L101.305 84.6822L107 95.283H77.2105L90.1892 74.4375Z" fill="#001033"/>
<path d="M16.8106 74.4375H0.185411L5.69476 84.6822L0 95.283H29.7893L16.8106 74.4375Z" fill="#001033"/>
<path d="M96.3872 67.6133H10.6127C9.26199 67.6133 8.16704 68.7171 8.16704 70.0788V86.6964C8.16704 88.0581 9.26199 89.1619 10.6127 89.1619H96.3872C97.7379 89.1619 98.8329 88.0581 98.8329 86.6964V70.0788C98.8329 68.7171 97.7379 67.6133 96.3872 67.6133Z" fill="url(#paint1_linear_7051_34627)"/>
<path d="M22.4615 78.4877C22.0819 77.9893 21.4726 77.6422 20.6251 77.4374L19.1153 77.0636C18.6032 76.9301 18.2589 76.7788 18.0735 76.6275C17.888 76.4673 17.7998 76.2536 17.7998 75.9777C17.7998 75.7018 17.8351 75.6484 17.9145 75.506C17.994 75.3636 18.0999 75.2479 18.25 75.1411C18.4001 75.0432 18.5679 74.963 18.771 74.9007C18.974 74.8473 19.2036 74.8117 19.4596 74.8117C19.9629 74.8117 20.316 74.9274 20.5368 75.1678C20.7487 75.4081 20.8899 75.7374 20.9517 76.1557L22.8588 76.1201C22.8588 75.6039 22.7352 75.1322 22.4527 74.7049C22.179 74.2777 21.7817 73.9395 21.2608 73.6813C20.9606 73.53 20.6251 73.4321 20.2542 73.3698V72.0703H18.6209V73.3609C18.2412 73.4143 17.888 73.5122 17.5614 73.6546C17.0051 73.8861 16.5725 74.2243 16.2458 74.6515C15.928 75.0877 15.7691 75.595 15.7691 76.1824C15.7691 76.9034 15.9986 77.4819 16.4224 77.9092C16.855 78.3364 17.4201 78.6212 18.1353 78.7637L19.6715 79.093C20.1306 79.1998 20.4661 79.3333 20.6869 79.5024C20.9076 79.6715 21.0135 79.9297 21.0135 80.2768C21.0135 80.6239 20.9429 80.704 20.8105 80.882C20.6692 81.06 20.4838 81.1936 20.2454 81.3004C20.007 81.3983 19.7333 81.4517 19.4243 81.4517C18.9034 81.4517 18.4796 81.336 18.1353 81.1134C17.7909 80.8909 17.5702 80.5616 17.4642 80.1344L15.4954 80.17C15.6013 81.1134 15.9986 81.8166 16.6961 82.2705C17.2082 82.6088 17.8439 82.8135 18.5855 82.9025V84.0685H20.2189V82.9025C20.6251 82.8491 20.9959 82.7601 21.3314 82.6177C21.87 82.3951 22.2849 82.0836 22.5851 81.6831C22.8765 81.2826 23.0266 80.8019 23.0266 80.259C23.0266 79.716 22.8412 78.9506 22.4615 78.4521V78.4877Z" fill="white"/>
<path d="M26.5314 82.8595V75.8012H24.8627V74.7242C25.4012 74.7242 25.825 74.6708 26.1605 74.5729C26.4872 74.475 26.7344 74.3237 26.9022 74.1278C27.0699 73.932 27.1671 73.7006 27.1936 73.4336H28.4473V82.8595H26.5314Z" fill="white"/>
<path d="M31.0961 84.6838L31.8466 82.9126L31.1844 82.8503V81.0078H33.0915V82.6277L31.7936 84.6838H31.0961Z" fill="white"/>
<path d="M38.8925 83.0026C37.7623 83.0026 36.8706 82.5842 36.2349 81.7565C35.5992 80.9287 35.2814 79.736 35.2814 78.1695C35.2814 76.603 35.4315 76.2469 35.7228 75.5171C36.0142 74.7872 36.4292 74.2443 36.9677 73.8615C37.5063 73.4877 38.142 73.3008 38.8836 73.3008C39.9961 73.3008 40.8702 73.7191 41.5147 74.5558C42.1592 75.3924 42.4771 76.594 42.4771 78.1606C42.4771 79.7271 42.1592 80.9198 41.5235 81.7476C40.8878 82.5753 40.0049 82.9937 38.8836 82.9937L38.8925 83.0026ZM38.8925 81.4449C39.4487 81.4449 39.8548 81.1957 40.1109 80.6884C40.3669 80.1899 40.4994 79.3444 40.4994 78.1695C40.4994 76.9946 40.3669 76.1045 40.102 75.5794C39.8372 75.0542 39.431 74.7961 38.8836 74.7961C38.3362 74.7961 37.9213 75.0631 37.6564 75.5883C37.3827 76.1134 37.2503 76.9768 37.2503 78.1695C37.2503 79.3622 37.3827 80.181 37.6476 80.6884C37.9124 81.1957 38.3274 81.4449 38.8925 81.4449Z" fill="white"/>
<path d="M47.8363 83.0026C46.7061 83.0026 45.8144 82.5842 45.1787 81.7565C44.543 80.9287 44.2252 79.736 44.2252 78.1695C44.2252 76.603 44.3753 76.2469 44.6666 75.5171C44.958 74.7872 45.3729 74.2443 45.9115 73.8615C46.4501 73.4877 47.0858 73.3008 47.8274 73.3008C48.9399 73.3008 49.814 73.7191 50.4585 74.5558C51.103 75.3924 51.4209 76.594 51.4209 78.1606C51.4209 79.7271 51.103 80.9198 50.4673 81.7476C49.8316 82.5753 48.9487 82.9937 47.8274 82.9937L47.8363 83.0026ZM47.8363 81.4449C48.3925 81.4449 48.7986 81.1957 49.0547 80.6884C49.3107 80.1899 49.4431 79.3444 49.4431 78.1695C49.4431 76.9946 49.3107 76.1045 49.0458 75.5794C48.781 75.0542 48.3748 74.7961 47.8274 74.7961C47.28 74.7961 46.8651 75.0631 46.6002 75.5883C46.3265 76.1134 46.194 76.9768 46.194 78.1695C46.194 79.3622 46.3265 80.181 46.5914 80.6884C46.8562 81.1957 47.2712 81.4449 47.8363 81.4449Z" fill="white"/>
<path d="M56.7708 83.0026C55.6407 83.0026 54.7489 82.5842 54.1132 81.7565C53.4776 80.9287 53.1597 79.736 53.1597 78.1695C53.1597 76.603 53.3098 76.2469 53.6012 75.5171C53.8925 74.7872 54.3075 74.2443 54.8461 73.8615C55.3846 73.4877 56.0203 73.3008 56.762 73.3008C57.8744 73.3008 58.7485 73.7191 59.393 74.5558C60.0376 75.3924 60.3554 76.594 60.3554 78.1606C60.3554 79.7271 60.0376 80.9198 59.4019 81.7476C58.7662 82.5753 57.8833 82.9937 56.762 82.9937L56.7708 83.0026ZM56.7708 81.4449C57.327 81.4449 57.7332 81.1957 57.9892 80.6884C58.2453 80.1899 58.3777 79.3444 58.3777 78.1695C58.3777 76.9946 58.2453 76.1045 57.9804 75.5794C57.7155 75.0542 57.3094 74.7961 56.762 74.7961C56.2146 74.7961 55.7996 75.0631 55.5347 75.5883C55.261 76.1134 55.1286 76.9768 55.1286 78.1695C55.1286 79.3622 55.261 80.181 55.5259 80.6884C55.7908 81.1957 56.2057 81.4449 56.7708 81.4449Z" fill="white"/>
<path d="M62.183 84.6838L62.9335 82.9126L62.2713 82.8503V81.0078H64.1784V82.6277L62.8805 84.6838H62.183Z" fill="white"/>
<path d="M69.9793 83.0026C68.8492 83.0026 67.9575 82.5842 67.3218 81.7565C66.6861 80.9287 66.3683 79.736 66.3683 78.1695C66.3683 76.603 66.5183 76.2469 66.8097 75.5171C67.1011 74.7872 67.516 74.2443 68.0546 73.8615C68.5932 73.4877 69.2289 73.3008 69.9705 73.3008C71.083 73.3008 71.9571 73.7191 72.6016 74.5558C73.2461 75.3924 73.564 76.594 73.564 78.1606C73.564 79.7271 73.2461 80.9198 72.6104 81.7476C71.9747 82.5753 71.0918 82.9937 69.9705 82.9937L69.9793 83.0026ZM69.9793 81.4449C70.5356 81.4449 70.9417 81.1957 71.1978 80.6884C71.4538 80.1899 71.5862 79.3444 71.5862 78.1695C71.5862 76.9946 71.4538 76.1045 71.1889 75.5794C70.9241 75.0542 70.5179 74.7961 69.9705 74.7961C69.4231 74.7961 69.0081 75.0631 68.7433 75.5883C68.4696 76.1134 68.3371 76.9768 68.3371 78.1695C68.3371 79.3622 68.4696 80.181 68.7344 80.6884C68.9993 81.1957 69.4143 81.4449 69.9793 81.4449Z" fill="white"/>
<path d="M78.9148 83.0026C77.7847 83.0026 76.893 82.5842 76.2573 81.7565C75.6216 80.9287 75.3037 79.736 75.3037 78.1695C75.3037 76.603 75.4538 76.2469 75.7452 75.5171C76.0365 74.7872 76.4515 74.2443 76.9901 73.8615C77.5287 73.4877 78.1644 73.3008 78.906 73.3008C80.0185 73.3008 80.8925 73.7191 81.5371 74.5558C82.1816 75.3924 82.4994 76.594 82.4994 78.1606C82.4994 79.7271 82.1816 80.9198 81.5459 81.7476C80.9102 82.5753 80.0273 82.9937 78.906 82.9937L78.9148 83.0026ZM78.9148 81.4449C79.4711 81.4449 79.8772 81.1957 80.1332 80.6884C80.3893 80.1899 80.5217 79.3444 80.5217 78.1695C80.5217 76.9946 80.3893 76.1045 80.1244 75.5794C79.8595 75.0542 79.4534 74.7961 78.906 74.7961C78.3586 74.7961 77.9436 75.0631 77.6788 75.5883C77.405 76.1134 77.2726 76.9768 77.2726 78.1695C77.2726 79.3622 77.4051 80.181 77.6699 80.6884C77.9348 81.1957 78.3498 81.4449 78.9148 81.4449Z" fill="white"/>
<path d="M87.8586 83.0026C86.7285 83.0026 85.8368 82.5842 85.2011 81.7565C84.5654 80.9287 84.2475 79.736 84.2475 78.1695C84.2475 76.603 84.3976 76.2469 84.689 75.5171C84.9803 74.7872 85.3953 74.2443 85.9339 73.8615C86.4724 73.4877 87.1081 73.3008 87.8498 73.3008C88.9622 73.3008 89.8363 73.7191 90.4808 74.5558C91.1254 75.3924 91.4432 76.594 91.4432 78.1606C91.4432 79.7271 91.1254 80.9198 90.4897 81.7476C89.854 82.5753 88.9711 82.9937 87.8498 82.9937L87.8586 83.0026ZM87.8586 81.4449C88.4148 81.4449 88.821 81.1957 89.077 80.6884C89.3331 80.1899 89.4655 79.3444 89.4655 78.1695C89.4655 76.9946 89.3331 76.1045 89.0682 75.5794C88.8033 75.0542 88.3972 74.7961 87.8498 74.7961C87.3024 74.7961 86.8874 75.0631 86.6225 75.5883C86.3488 76.1134 86.2164 76.9768 86.2164 78.1695C86.2164 79.3622 86.3488 80.181 86.6137 80.6884C86.8786 81.1957 87.2936 81.4449 87.8586 81.4449Z" fill="white"/>
<path d="M27.0346 46.6866C26.9463 47.0604 26.7873 47.3631 26.549 47.6034C26.3106 47.8348 26.0192 47.995 25.6749 48.0662C25.3305 48.1374 24.9421 48.1285 24.5271 48.0306C24.1033 47.9327 23.759 47.7725 23.4941 47.5589C23.2292 47.3453 23.0438 47.0782 22.9379 46.7667C22.8319 46.4552 22.8319 46.1081 22.9202 45.7342C22.9908 45.4316 23.1144 45.1735 23.2822 44.9688C23.4588 44.7641 23.6619 44.6038 23.9091 44.5059C24.1475 44.408 24.4035 44.3724 24.6772 44.408L24.483 45.2625C24.3417 45.2625 24.2004 45.2714 24.0856 45.3159C23.9709 45.3604 23.8561 45.4316 23.7678 45.5295C23.6795 45.6274 23.6177 45.752 23.5824 45.9122C23.5382 46.0992 23.5471 46.2683 23.6089 46.4285C23.6707 46.5887 23.7943 46.7222 23.9709 46.8379C24.1563 46.9536 24.4123 47.0515 24.739 47.1316C25.2334 47.2474 25.6131 47.2474 25.878 47.1316C26.134 47.0248 26.3017 46.829 26.3636 46.5442C26.3989 46.384 26.39 46.2416 26.3459 46.117C26.3017 45.9924 26.2311 45.8766 26.1252 45.7787C26.028 45.6808 25.9044 45.6096 25.772 45.5473L25.9662 44.6928C26.1517 44.7641 26.3194 44.8531 26.4783 44.9599C26.6373 45.0667 26.7697 45.2002 26.8756 45.3604C26.9816 45.5206 27.0522 45.7075 27.0787 45.9212C27.114 46.1348 27.0964 46.384 27.0346 46.6688V46.6866Z" fill="white"/>
<path d="M27.6523 44.1952L23.8205 42.7088L24.1207 41.9255L27.2992 43.1538L27.9349 41.4805L28.5882 41.7297L27.6523 44.1952Z" fill="white"/>
<path d="M28.9771 40.9712L25.313 39.1109L25.6838 38.3633L29.3479 40.2235L28.9771 40.9712Z" fill="white"/>
<path d="M29.86 39.2378L26.4079 36.9948L27.9353 34.6094L28.518 34.9921L27.4409 36.6743L28.2796 37.2173L29.2155 35.7576L29.7894 36.1314L28.8535 37.6L29.7099 38.1519L30.8047 36.4429L31.3963 36.8257L29.86 39.2378Z" fill="white"/>
<path d="M31.9346 36.0785L28.862 33.3371L29.4094 32.714L32.685 33.1146L30.6543 31.2988L31.2017 30.6758L34.2743 33.4172L33.7798 33.9779L30.3718 33.5596L32.4908 35.4466L31.9434 36.0696L31.9346 36.0785Z" fill="white"/>
<path d="M35.7317 32.1238L33.5686 29.5248L32.6151 30.3258L32.1383 29.7562L34.6546 27.6289L35.1313 28.1986L34.2043 28.9818L36.3674 31.5808L35.7317 32.1149V32.1238Z" fill="white"/>
<path d="M39.1567 29.5625L37.1613 25.9488L39.5981 24.5781L39.9336 25.1923L38.2208 26.1536L38.724 27.0614L40.2073 26.2337L40.534 26.83L39.0507 27.6578L39.8807 29.162L39.1478 29.5714L39.1567 29.5625Z" fill="white"/>
<path d="M43.9162 27.2911C43.5453 27.4335 43.2187 27.4869 42.945 27.4424C42.6713 27.4068 42.4417 27.2822 42.2563 27.0953C42.0709 26.8995 41.912 26.6413 41.7972 26.3209L40.9055 23.9533L41.6912 23.6507L42.6006 26.0806C42.7066 26.3654 42.8567 26.5523 43.0421 26.6324C43.2275 26.7126 43.4306 26.7126 43.6601 26.6324C43.8102 26.579 43.925 26.4989 44.0133 26.3921C44.1016 26.2942 44.1634 26.1696 44.181 26.0183C44.1987 25.8759 44.181 25.6979 44.1016 25.5021L43.1922 23.0722L43.978 22.7695L44.8785 25.1638C44.9933 25.4754 45.0463 25.7691 45.0286 26.0361C45.011 26.3031 44.9139 26.5434 44.7373 26.7571C44.5607 26.9707 44.287 27.1398 43.9073 27.2822L43.9162 27.2911Z" fill="white"/>
<path d="M46.3524 26.3841L45.5401 22.3253L46.3435 22.1651L48.7186 24.4704L48.18 21.7824L48.9923 21.6133L49.8045 25.672L49.0717 25.8233L46.5996 23.4201L47.1558 26.215L46.3435 26.3841H46.3524Z" fill="white"/>
<path d="M50.8469 25.564L50.688 21.4251C50.7056 21.4251 50.7674 21.4251 50.8645 21.4251C50.9617 21.4251 51.0764 21.4251 51.2 21.4162C51.3237 21.4073 51.4561 21.4073 51.5885 21.3984C51.721 21.3984 51.8269 21.3984 51.9152 21.3984C52.4096 21.3984 52.8246 21.4607 53.1424 21.621C53.4603 21.7812 53.6987 22.0037 53.8576 22.2974C54.0165 22.5911 54.1048 22.9472 54.1225 23.3566C54.1401 23.7838 54.0783 24.1577 53.9282 24.4781C53.787 24.7985 53.5574 25.0477 53.2484 25.2257C52.9394 25.4038 52.5332 25.5106 52.0476 25.5284L50.8469 25.5729V25.564ZM51.6592 24.8608L52.0388 24.843C52.2772 24.8341 52.4803 24.7807 52.6745 24.6828C52.8599 24.5849 53.01 24.4247 53.116 24.22C53.2219 24.0064 53.2749 23.7304 53.2572 23.3833C53.2484 23.0629 53.1866 22.8048 53.0718 22.6C52.9659 22.4042 52.8069 22.2618 52.6215 22.1728C52.4273 22.0838 52.2066 22.0482 51.9417 22.0571L51.5532 22.0749L51.6592 24.8608Z" fill="white"/>
<path d="M56.6126 25.654L57.1423 21.5508L57.9634 21.6576L57.4337 25.7608L56.6126 25.654Z" fill="white"/>
<path d="M58.5193 25.8853L59.5258 21.8711L60.3205 22.0758L61.4682 25.1911L62.1392 22.5386L62.9427 22.7434L61.9362 26.7576L61.2122 26.5707L60.0203 23.3308L59.3228 26.09L58.5193 25.8853Z" fill="white"/>
<path d="M64.3113 27.7886C64.1259 27.7085 63.9493 27.6016 63.7904 27.477C63.6315 27.3524 63.4991 27.21 63.3931 27.0498C63.2872 26.8896 63.2165 26.7205 63.1812 26.5336C63.1459 26.3466 63.1636 26.1597 63.2254 25.9639L64.0023 26.3021C63.9758 26.4267 63.9847 26.5514 64.0288 26.6582C64.073 26.765 64.1348 26.8718 64.2407 26.9608C64.3378 27.0498 64.4614 27.1299 64.6204 27.2011C64.744 27.2545 64.8587 27.2812 64.9823 27.299C65.106 27.3168 65.2119 27.299 65.3179 27.2545C65.415 27.21 65.4856 27.1388 65.5386 27.032C65.5916 26.8985 65.5916 26.7828 65.5209 26.676C65.4591 26.5692 65.3532 26.4624 65.2031 26.3555L64.5674 25.8927C64.382 25.7592 64.2407 25.6257 64.1259 25.4655C64.0111 25.3142 63.9493 25.145 63.9317 24.967C63.914 24.789 63.9493 24.6021 64.0376 24.3974C64.1348 24.1571 64.2937 23.988 64.4968 23.8722C64.6998 23.7565 64.9294 23.7031 65.1942 23.7031C65.4591 23.7031 65.724 23.7743 66.0065 23.89C66.3244 24.0236 66.5628 24.1927 66.7393 24.3885C66.9159 24.5843 67.0219 24.7979 67.0572 25.0204C67.1013 25.243 67.0748 25.4655 66.9866 25.6791L66.2272 25.3498C66.2714 25.2162 66.2714 25.0916 66.2449 24.9848C66.2184 24.878 66.1566 24.7801 66.0683 24.7C65.98 24.6199 65.8741 24.5487 65.7416 24.4953C65.5121 24.3974 65.3267 24.3707 65.1854 24.4152C65.0442 24.4597 64.947 24.5487 64.8941 24.6733C64.8411 24.789 64.8411 24.8958 64.8941 25.0026C64.947 25.1094 65.0442 25.2162 65.2031 25.332L65.7946 25.7592C66.0154 25.9105 66.1831 26.0707 66.2891 26.2398C66.395 26.4089 66.4568 26.5781 66.4568 26.7561C66.4568 26.9341 66.4303 27.1121 66.3509 27.2901C66.2537 27.5215 66.1036 27.6906 65.9006 27.8064C65.6975 27.9221 65.4591 27.9844 65.1942 27.9844C64.9205 27.9844 64.638 27.9221 64.3467 27.7886H64.3113Z" fill="white"/>
<path d="M67.9756 29.749C67.6401 29.5353 67.4017 29.3039 67.2693 29.0636C67.1369 28.8233 67.0927 28.5652 67.128 28.2981C67.1722 28.0311 67.2781 27.7552 67.4635 27.4615L68.7967 25.3164L69.5119 25.7703L68.1434 27.9688C67.9844 28.2269 67.9226 28.4584 67.9756 28.6631C68.0286 28.8678 68.1522 29.028 68.3553 29.1526C68.4877 29.2327 68.6201 29.2861 68.7614 29.295C68.8938 29.3039 69.0263 29.2772 69.1587 29.206C69.2823 29.1348 69.4059 29.0102 69.5119 28.8322L70.8804 26.6337L71.5867 27.0788L70.2359 29.2505C70.0593 29.5353 69.865 29.749 69.6443 29.9003C69.4236 30.0516 69.1764 30.1139 68.9027 30.0961C68.629 30.0783 68.32 29.9626 67.9844 29.749H67.9756Z" fill="white"/>
<path d="M70.1647 31.171L72.8487 28.0469L74.1554 29.1862C74.4027 29.3998 74.5704 29.6223 74.6587 29.8359C74.747 30.0495 74.7735 30.2632 74.7205 30.4679C74.6764 30.6726 74.5704 30.8684 74.4115 31.0464C74.2702 31.2066 74.129 31.3312 73.9789 31.3935C73.8288 31.4648 73.6875 31.5004 73.5374 31.5004C73.3873 31.5004 73.246 31.4826 73.1136 31.4469L72.5662 33.2627L71.9129 32.6931L72.4426 31.0464L71.8157 30.4946L70.7827 31.6962L70.1559 31.1532L70.1647 31.171ZM72.2484 30.0228L72.8223 30.5213C72.99 30.6637 73.1578 30.7349 73.3343 30.7349C73.5109 30.7349 73.661 30.6548 73.7846 30.5124C73.9082 30.37 73.9612 30.2098 73.9347 30.0495C73.9082 29.8804 73.8288 29.738 73.6875 29.6134L73.0695 29.0705L72.2484 30.0228Z" fill="white"/>
<path d="M73.0428 33.7167L77.1219 32.168L77.6869 32.8444L75.5061 36.645L74.9676 36.0131L75.4796 35.1319L74.5261 33.9926L73.5814 34.3486L73.0428 33.7078V33.7167ZM75.1971 33.6722L75.9034 34.5089L76.7952 33.0313L75.1971 33.6722Z" fill="white"/>
<path d="M75.939 37.2768L79.453 35.1406L79.8768 35.8527L78.5171 38.8789L80.848 37.4637L81.2718 38.1758L77.7578 40.3119L77.3693 39.6711L78.782 36.5202L76.3628 37.9889L75.939 37.2768Z" fill="white"/>
<path d="M78.7734 42.8602C78.6321 42.5042 78.588 42.157 78.6498 41.8366C78.7116 41.5073 78.8617 41.2136 79.1089 40.9554C79.3561 40.6973 79.6739 40.4837 80.0713 40.3235C80.4686 40.1633 80.8394 40.0921 81.1837 40.1188C81.5281 40.1455 81.8282 40.2523 82.0843 40.4481C82.3403 40.6439 82.5434 40.9287 82.6847 41.2848C82.7994 41.5696 82.8436 41.8544 82.8171 42.1303C82.7906 42.4062 82.7112 42.6466 82.5611 42.8691C82.4198 43.0916 82.2256 43.2607 81.9872 43.3853L81.6605 42.5754C81.7841 42.4953 81.8812 42.4063 81.9607 42.2994C82.0401 42.1926 82.0843 42.0769 82.1019 41.9434C82.1196 41.8099 82.1019 41.6764 82.0401 41.5251C81.9695 41.3471 81.8636 41.2136 81.7311 41.1156C81.5899 41.0177 81.4133 40.9821 81.1925 40.9821C80.9718 40.9821 80.707 41.0622 80.3891 41.1869C79.9123 41.3738 79.6033 41.5963 79.4532 41.8277C79.3031 42.068 79.2766 42.3172 79.3826 42.5932C79.4444 42.7445 79.5239 42.8602 79.6386 42.9314C79.7534 43.0026 79.8682 43.056 80.0095 43.0827C80.1507 43.1005 80.2832 43.1005 80.4332 43.0738L80.7599 43.8838C80.5657 43.9372 80.3803 43.955 80.186 43.9639C79.9918 43.9639 79.8152 43.9283 79.6386 43.866C79.4621 43.7948 79.3031 43.6791 79.153 43.5188C79.0029 43.3586 78.8793 43.145 78.7734 42.878V42.8602Z" fill="white"/>
<path d="M79.6822 45.2532L83.673 44.3008L84.3263 47.0689L83.6465 47.2291L83.1874 45.2799L82.2162 45.5113L82.6135 47.2024L81.9513 47.3626L81.554 45.6715L80.5651 45.9118L81.0331 47.8967L80.3444 48.0569L79.6822 45.2621V45.2532Z" fill="white"/>
<defs>
<linearGradient id="paint0_linear_7051_34627" x1="20.5982" y1="-3.95831" x2="85.2642" y2="98.1606" gradientUnits="userSpaceOnUse">
<stop stop-color="#074BAB"/>
<stop offset="1" stop-color="#031F45"/>
</linearGradient>
<linearGradient id="paint1_linear_7051_34627" x1="53.4955" y1="65.6729" x2="53.4955" y2="89.429" gradientUnits="userSpaceOnUse">
<stop stop-color="#074BAB"/>
<stop offset="1" stop-color="#053578"/>
</linearGradient>
</defs>
</svg>
