<svg width="96" height="32" viewBox="0 0 96 32" fill="none" xmlns="http://www.w3.org/2000/svg">
<g clip-path="url(#clip0_5248_1809)">
<path d="M92.5827 8.25077C91.636 7.99389 90.632 7.90827 89.6566 7.76556C89.5132 7.73702 89.3411 7.73702 89.1689 7.73702H82.3988C82.1979 8.82161 81.9971 9.93475 81.7963 11.0193C81.2513 14.0733 80.6775 17.1273 80.1038 20.1813C80.1038 20.2955 79.903 20.4953 79.7882 20.4953H71.7271C71.8992 19.5534 72.0427 18.6686 72.2435 17.7838C72.2722 17.6696 72.5303 17.584 72.6738 17.584H77.2637C77.4645 16.4994 77.6654 15.4434 77.8662 14.3302H72.8459C73.0467 13.3598 73.2188 12.4179 73.391 11.476H78.5547C78.7842 10.2202 79.0137 8.99286 79.2432 7.73702C79.1284 7.70847 79.0137 7.70847 78.9276 7.70847H69.1739C68.8297 7.70847 68.7436 7.85118 68.6863 8.16515C67.9978 11.9327 67.3093 15.7002 66.5921 19.4678C66.5634 19.639 66.42 19.8674 66.3339 19.8674C65.129 19.8959 63.9242 19.8959 62.6619 19.8959C63.4365 15.8144 64.1824 11.79 64.9282 7.76556H59.4777C59.3055 8.79307 59.1047 9.82058 58.9039 10.8481C58.3876 13.7308 57.8425 16.6421 57.2974 19.5249C57.2688 19.6676 57.0966 19.8674 56.9819 19.8674C55.8344 19.8959 54.6869 19.8959 53.4533 19.8959C54.2279 15.8429 54.9738 11.8471 55.7196 7.7941H50.2691C50.0396 9.04995 49.7814 10.3343 49.5519 11.6187C49.0068 14.4729 48.4905 17.3557 47.9454 20.2099C47.9167 20.324 47.7446 20.5238 47.6298 20.5238H39.6835C39.6261 20.5238 39.5974 20.4953 39.5114 20.4668C39.6835 19.5249 39.8556 18.6115 40.0277 17.6411H45.048C45.2488 16.5565 45.4496 15.5004 45.6504 14.3873H40.6302C40.7736 13.474 40.9457 12.6177 41.0892 11.7614C41.1465 11.4189 41.376 11.476 41.5768 11.476H46.3676C46.5971 10.2202 46.8266 8.99286 47.0561 7.73702H14.3527C13.7502 11.0479 13.1191 14.3588 12.5167 17.6696H12.4019C12.029 16.6992 11.6848 15.7002 11.3118 14.7298L8.90209 8.1366C8.78735 7.82264 8.64391 7.67993 8.27098 7.67993C6.54974 7.70847 4.82851 7.67993 3.0499 7.67993C2.84909 8.79307 2.64828 9.87767 2.47616 10.9052C1.67292 15.1865 0.898361 19.4392 0.0951187 23.7205C0.0951187 23.8062 0.0377443 23.8918 0.00905704 23.9774C-0.0483174 24.2914 0.18118 24.1772 0.295929 24.1772H5.45963C5.71781 22.8072 5.94731 21.4086 6.17681 20.0101C6.49237 18.1263 6.83662 16.214 7.18086 14.3302C7.20955 14.2161 7.26692 14.0733 7.3243 13.845C7.5538 14.5586 7.78329 15.1579 7.9841 15.7573C8.90209 18.4403 9.82009 21.0947 10.7381 23.7776L10.8241 24.2058H30.4175C30.5609 23.2353 30.7331 22.2364 30.8765 21.3801C31.4789 18.1263 32.0814 14.8725 32.6838 11.5902H35.7533C35.5238 12.7319 35.323 13.8736 35.1222 15.0152C34.5772 18.0121 34.0034 20.9805 33.4584 23.9774C33.4584 24.0916 33.401 24.2058 33.3723 24.3199H84.6937C84.9806 22.7216 85.2675 21.1518 85.5543 19.5534C85.7265 18.4974 85.9273 17.4698 86.2141 16.4138C86.9887 19.0397 87.7919 21.6655 88.5665 24.2914H93.931C93.472 23.0355 93.0417 21.8082 92.5827 20.5809C92.2098 19.6105 91.8655 18.6686 91.4926 17.6982C91.8082 17.6126 92.0663 17.5555 92.3245 17.4984C95.2219 16.7563 96.1973 14.3873 95.9678 11.9327C95.767 9.87767 94.4474 8.76453 92.5827 8.25077ZM26.3439 16.9561C26.1431 17.9836 25.9423 18.9826 25.7702 20.0101C25.7415 20.267 25.7128 20.4668 25.3399 20.4668H17.623C17.5369 20.4668 17.4509 20.4382 17.3361 20.4382C17.4796 19.5534 17.623 18.6686 17.8238 17.8124C17.8525 17.6982 18.1107 17.584 18.2541 17.584H23.0449C23.2457 16.4994 23.4465 15.4434 23.6473 14.3302H18.4836C18.6558 13.3313 18.7992 12.4179 18.9713 11.476H27.2906C26.9464 13.3313 26.6021 15.1579 26.3439 16.9561ZM89.714 14.9867C89.3124 15.215 88.8247 15.3577 88.3657 15.4148C87.7059 15.5004 87.0461 15.5004 86.3002 15.529C86.5871 13.9877 86.8453 12.5321 87.1321 11.0764C88.0214 11.0479 88.8821 10.9908 89.714 11.3619C90.3164 11.6473 90.6607 12.1325 90.718 12.8175C90.7754 13.7308 90.5459 14.53 89.714 14.9867Z" fill="#83B545"/>
</g>
<defs>
<clipPath id="clip0_5248_1809">
<rect width="96" height="32" fill="white"/>
</clipPath>
</defs>
</svg>
