<svg width="96" height="32" viewBox="0 0 96 32" fill="none" xmlns="http://www.w3.org/2000/svg">
<g clip-path="url(#clip0_5248_1819)">
<path d="M23.2071 12.9635C23.51 12.9292 23.6243 12.7578 23.7443 12.6263C25.3101 10.9062 27.3616 10.2376 29.6132 10.0948C31.139 9.9919 32.6705 9.98047 34.1449 10.5062C35.145 10.8605 35.4935 11.4091 35.385 12.4378C35.3164 13.1007 35.1221 13.7178 34.8135 14.3064C34.0477 15.7751 33.2934 17.2495 32.5562 18.7295C32.2076 19.4324 31.859 20.1353 31.8133 20.9411C31.7848 21.4097 31.5562 21.6611 31.0247 21.6383C30.0132 21.604 29.0132 21.4611 27.996 21.5526C27.6359 21.5869 27.5731 21.3468 27.5845 21.0554C27.6017 20.3639 27.5902 20.3525 26.9559 20.6839C25.4587 21.4611 23.8757 21.8612 22.1785 21.7869C21.9613 21.7754 21.7442 21.7754 21.5385 21.7297C19.7498 21.3754 19.2069 20.1468 20.0755 18.5638C21.3213 16.2837 23.4757 15.5122 25.8644 15.1465C27.2302 14.935 28.5617 14.615 29.8818 14.2321C30.379 14.0893 30.9676 13.8664 30.8533 13.2378C30.7333 12.5921 30.0875 12.7635 29.6132 12.7463C28.796 12.7178 28.0988 13.0435 27.4874 13.5292C27.1502 13.7978 26.8016 13.9236 26.3673 13.9121C25.2701 13.8893 24.1786 13.8264 23.0985 13.5921C22.4414 13.4492 21.767 13.5407 21.1041 13.5235C20.8013 13.5121 20.647 13.7007 20.5212 13.9464C19.3383 16.2723 18.1325 18.5867 16.9725 20.924C16.7382 21.3926 16.481 21.5697 15.9381 21.5411C13.8351 21.4211 11.7436 21.2154 9.65205 20.9468C8.29197 20.7697 6.90903 20.7982 5.53181 20.7525C4.97178 20.7354 4.42889 20.6497 3.85743 20.4154C4.09173 20.1639 4.36031 20.2382 4.59461 20.2382C7.15476 20.2382 9.71491 20.1696 12.2693 20.3239C12.6694 20.3468 12.9322 20.1811 13.1037 19.8553C13.6694 18.7867 14.2409 17.7181 14.7952 16.6437C15.0124 16.2265 14.9438 15.9408 14.3837 15.9465C12.7608 15.958 11.1836 15.5637 9.58347 15.4208C7.08047 15.2036 4.60604 14.7293 2.0859 14.6607C1.41729 14.6436 0.777249 14.455 6.10352e-05 14.335C0.377226 13.9807 0.742961 14.0207 1.08584 14.0207C3.90314 14.0493 6.72045 14.0721 9.53776 14.1236C11.5379 14.1579 13.5323 13.8893 15.5324 14.0836C15.7953 14.1064 16.1039 14.0607 16.1324 13.7464C16.161 13.4378 15.8353 13.4321 15.6124 13.3978C12.9265 12.9292 10.2407 12.4663 7.5605 11.9977C7.32048 11.9577 7.04618 11.9692 6.86332 11.7291C7.07476 11.5348 7.32049 11.6149 7.54336 11.6149C10.0178 11.6263 12.4922 11.5577 14.9609 11.6549C15.3324 11.672 15.7381 11.632 15.8753 11.2148C16.0753 10.6148 16.5096 10.4034 17.0982 10.3748C17.2696 10.3634 17.4411 10.3462 17.6125 10.3233C17.7611 10.3062 17.944 10.2891 17.9554 10.1005C17.9668 9.86047 17.7554 9.85475 17.5897 9.84332C16.6925 9.7576 15.7838 9.74046 14.8981 9.58616C13.098 9.27186 11.2579 9.27186 9.45775 8.95184C7.61193 8.62611 5.72611 8.72897 3.89171 8.32895C3.70885 8.28895 3.49741 8.32895 3.36597 8.11751C3.48026 7.85464 3.72599 7.94607 3.91457 7.94035C5.91469 7.88892 7.91481 7.97464 9.90921 7.99179C12.9608 8.01464 16.0124 7.9575 19.064 7.92893C19.2526 7.92893 19.5212 7.95178 19.5555 7.72891C19.5955 7.44318 19.2869 7.43175 19.0983 7.39175C17.984 7.14602 16.8239 7.26031 15.7038 7.05459C13.2465 6.60313 10.7435 6.58028 8.28625 6.14025C8.16625 6.11739 8.04624 6.07739 7.8348 6.02596C8.14339 5.80309 8.41198 5.79166 8.67485 5.79166C13.818 5.77451 18.9554 5.75166 24.0986 5.76309C25.0644 5.76309 26.0244 5.9231 26.9902 5.99739C27.4417 6.03167 27.5788 6.17454 27.2702 6.58599C26.8359 7.16317 26.4187 7.75177 26.0187 8.35181C25.7558 8.74612 25.373 8.74612 24.9901 8.68897C24.0186 8.5461 23.3271 8.96899 22.7957 9.71189C22.6871 9.86047 22.5157 10.0205 22.6128 10.2205C22.7042 10.4034 22.9214 10.3291 23.0814 10.3291C24.4986 10.3634 24.4872 10.3519 23.8129 11.592C23.5843 12.0092 23.2928 12.4149 23.2185 12.9692L23.2071 12.9635ZM25.4415 19.2896C27.1616 19.2039 28.3331 18.3467 29.1617 16.9809C29.236 16.8609 29.356 16.718 29.2646 16.5751C29.1618 16.4094 28.996 16.518 28.8589 16.5466C27.8474 16.7409 26.8588 17.0152 25.893 17.358C25.4815 17.5066 25.1158 17.7238 24.8586 18.0781C24.6701 18.3295 24.43 18.6038 24.5901 18.9353C24.7615 19.2953 25.1615 19.2439 25.4415 19.2953V19.2896Z" fill="#F7941C"/>
<path d="M74.6386 26.1072C70.5527 26.1072 66.4667 26.1072 62.375 26.1072C61.5579 26.1072 61.5293 26.0729 61.695 25.2728C61.7979 24.7757 61.9064 24.2785 62.0093 23.7813C62.0779 23.4442 62.2722 23.2727 62.6322 23.2556C63.318 23.2327 64.0037 23.1699 64.6952 23.1699C71.4727 23.1584 78.2502 23.1584 85.0221 23.1641C85.6221 23.1641 86.1707 23.0784 86.6336 22.6613C87.2393 22.1127 87.3651 21.6269 87.0279 20.8383C85.9193 18.2439 84.7992 15.6551 83.6791 13.0721C83.3934 12.4092 83.0905 11.7578 82.8048 11.0949C82.5762 10.5634 82.6905 10.4206 83.2791 10.432C84.3763 10.4491 85.4735 10.4663 86.5707 10.4377C87.0908 10.4263 87.3479 10.6149 87.4908 11.1063C88.0508 13.0378 88.6394 14.958 89.2166 16.8838C89.2566 17.0267 89.3023 17.1695 89.3595 17.3067C89.4052 17.421 89.4566 17.5638 89.6166 17.5467C89.7423 17.5353 89.7538 17.4038 89.7766 17.301C90.2167 15.3408 90.9824 13.4607 91.3767 11.4892C91.5824 10.4548 91.6282 10.4263 92.7082 10.4263C93.634 10.4263 94.554 10.4491 95.4798 10.4606C95.9198 10.4663 96.1256 10.6091 95.9198 11.0892C94.1997 15.0151 92.8625 19.0839 91.251 23.0499C90.3652 25.2328 89.0166 26.1072 86.6393 26.1129C82.6391 26.1186 78.6388 26.1129 74.6386 26.1129V26.1072Z" fill="#4974AD"/>
<path d="M83.245 16.7922C83.245 17.5351 83.245 18.2723 83.245 19.0152C83.245 19.7581 83.3078 20.4953 83.6964 21.1582C83.9593 21.6039 83.7707 21.7754 83.2964 21.7697C82.3078 21.764 81.3192 21.7697 80.3305 21.7582C79.8676 21.7582 79.4676 21.6268 79.3247 21.1296C79.1819 20.6267 78.9819 20.6267 78.559 20.9125C76.8103 22.084 74.9016 22.3526 72.9072 21.6554C70.8557 20.9353 70.0956 18.9009 71.1243 17.0723C71.4957 16.4094 72.0672 15.9979 72.7872 15.7522C74.3987 15.2036 76.1189 15.0893 77.7189 14.5121C77.839 14.4664 77.9761 14.4664 78.0961 14.4207C78.4218 14.2949 78.8904 14.2549 78.839 13.7749C78.7876 13.3235 78.4733 12.9806 78.0047 12.9177C77.0218 12.792 76.0503 12.7749 75.4102 13.7406C75.2617 13.9692 75.0388 14.1292 74.7588 14.0664C73.7016 13.8435 72.6158 13.9578 71.5472 13.8035C70.97 13.7235 70.8785 13.4492 71.0843 12.9692C71.69 11.5862 72.7244 10.7176 74.233 10.4262C76.1531 10.0547 78.0733 10.0947 79.9991 10.4033C82.0163 10.729 83.0907 12.152 83.2164 14.1864C83.2678 15.0493 83.2278 15.9179 83.2278 16.7865C83.2278 16.7865 83.2393 16.7865 83.245 16.7865V16.7922ZM78.9304 17.0551C78.9419 16.7579 78.8676 16.5408 78.4961 16.6208C77.5532 16.8208 76.6274 17.0837 75.7417 17.4666C75.3188 17.6494 75.0788 18.0037 75.1188 18.478C75.1588 18.9352 75.4674 19.1752 75.8788 19.3238C77.2789 19.8267 78.9647 18.5752 78.9304 17.0551Z" fill="#4974AD"/>
<path d="M43.4997 10.0717C44.4997 10.0146 45.4541 10.1403 46.3684 10.5003C47.2542 10.8432 47.8085 11.7518 47.7228 12.6719C47.6828 13.0605 47.4656 13.2491 47.0942 13.2548C46.0198 13.2776 44.9455 13.3291 43.8883 13.5119C43.5625 13.5691 43.3682 13.3805 43.2539 13.0948C42.9511 12.3519 42.2767 12.5404 41.6996 12.5176C41.1338 12.4947 40.6138 12.6604 40.3281 13.1805C40.0995 13.5976 40.3795 13.8262 40.7624 13.9119C41.7281 14.1234 42.6939 14.3234 43.6654 14.5063C44.0254 14.5748 44.3797 14.6491 44.7112 14.8149C45.8941 15.4149 46.2141 16.3121 45.6998 17.5122C44.934 19.3066 43.5225 20.4495 41.7453 21.1181C39.3623 22.0153 36.9107 22.3124 34.4363 21.3924C33.3391 20.9866 32.8305 20.0666 33.0705 18.9694C33.1505 18.6208 33.4077 18.4208 33.7505 18.3808C34.9449 18.2436 36.1392 18.1179 37.3393 17.9979C37.6822 17.9636 37.7965 18.1979 37.7965 18.4836C37.7965 19.1008 38.1965 19.3065 38.7108 19.318C39.488 19.3408 40.2709 19.3351 40.8938 18.7637C41.4653 18.2379 41.3853 17.775 40.6366 17.5522C39.648 17.2607 38.6365 17.0721 37.6308 16.8435C35.6021 16.3749 35.4592 14.8149 36.2421 13.4434C37.0936 11.9576 38.4479 11.0832 40.0366 10.5689C41.1567 10.2089 42.3282 9.99172 43.5054 10.0717H43.4997Z" fill="#F7941C"/>
<path d="M57.6262 19.7469C58.5805 17.7011 59.592 15.6781 60.4607 13.598C60.8893 12.5637 61.0721 11.4264 60.1235 10.4778C59.9235 10.4721 59.7178 10.455 59.5235 10.3921C58.5634 10.1064 57.5862 10.0321 56.5119 10.0721C55.2204 9.97494 53.8888 10.2492 52.5745 10.575C50.9858 10.9693 49.9058 11.9751 49.3286 13.4837C49.2257 13.7466 49.1457 14.0095 49.3743 14.2552C49.8486 14.7581 51.5059 14.6609 51.7802 14.0323C52.243 12.958 53.0317 12.4894 54.1746 12.4608C54.4946 12.4551 54.8089 12.3408 55.1289 12.3008C55.8775 12.2094 56.6376 12.1751 57.3805 12.2722C57.8891 12.3408 58.4434 12.5008 58.4891 13.1351C58.5348 13.7694 57.8605 14.4781 57.1805 14.5409C55.0203 14.7352 52.8488 14.7809 50.7058 15.1467C48.0942 15.5867 46.1913 16.8382 45.3684 19.4041C45.0712 20.3184 45.3912 20.9756 46.2655 21.3813C47.2999 21.8556 48.42 22.0671 49.5343 21.9871C51.7459 21.827 53.9631 22.0728 56.1747 21.8042C56.3404 21.7813 56.4661 21.7813 56.5633 21.8042L57.6319 19.7526L57.6262 19.7469ZM54.1974 17.2554C53.3631 18.0325 53.466 19.0497 53.306 20.0041C53.1231 21.0956 53.1345 21.0956 52.0259 21.107C51.9173 21.107 51.8087 21.107 51.7059 21.107C50.7763 21.1146 50.5287 20.7089 50.963 19.8898C51.4201 19.0212 52.0316 18.2326 52.0659 17.1639C52.083 16.621 52.5573 16.2382 53.0888 16.0381C53.4545 15.901 53.8488 15.8267 54.1689 16.1524C54.5117 16.501 54.4775 16.9982 54.2031 17.2554H54.1974Z" fill="#F7941C"/>
<path d="M69.6499 12.7691C68.1984 9.73467 64.4725 9.51752 62.5295 11.4376C62.4038 11.5634 62.2781 11.7977 62.0666 11.7176C61.8552 11.6319 61.9238 11.3748 61.9581 11.2033C62.0038 10.9462 61.9752 10.7747 61.8895 10.6547C61.7695 10.489 61.5295 10.4376 61.198 10.4433C60.8437 10.4433 60.4837 10.4833 60.1294 10.4719C61.078 11.4205 60.8951 12.5634 60.4666 13.592C59.5979 15.6722 58.5864 17.6951 57.6321 19.741L56.5635 21.7925C56.8321 21.8382 56.8606 22.0382 56.7521 22.4783C56.5635 23.2326 56.3635 23.9812 56.1692 24.7298C56.1006 24.9813 56.0377 25.2384 55.9749 25.4899C55.8606 25.9242 55.992 26.1128 56.4778 26.1013C57.7007 26.0842 58.9293 26.067 60.158 26.1013C60.7751 26.1185 61.0437 25.8613 61.1752 25.3013C61.4723 23.9812 61.8038 22.6669 62.1352 21.3525C62.3181 20.6267 62.3295 20.6267 62.9467 21.0839C65.2325 22.7697 68.3984 22.0497 69.6385 19.5295C70.7414 17.2894 70.7643 15.055 69.6671 12.752L69.6499 12.7691ZM65.4783 17.8837C65.1525 18.4723 64.5982 18.6552 63.941 18.5695C63.1753 18.4666 62.7638 17.9351 62.4667 17.3008C62.2724 16.8894 62.3238 16.4322 62.3181 15.8607C62.2838 15.2779 62.3867 14.615 62.9067 14.0549C63.7067 13.1863 64.9125 13.2434 65.4897 14.2664C66.1583 15.4493 66.1412 16.6894 65.4783 17.8894V17.8837Z" fill="#4974AD"/>
</g>
<defs>
<clipPath id="clip0_5248_1819">
<rect width="96" height="32" fill="white"/>
</clipPath>
</defs>
</svg>
