<svg width="65" height="32" viewBox="0 0 65 32" fill="none" xmlns="http://www.w3.org/2000/svg">
<g clip-path="url(#clip0_5248_1803)">
<path d="M12.2834 2.40015H52.1767C52.8416 2.40015 53.3856 2.94415 53.3856 3.60904V28.3913C53.3856 29.0561 52.8416 29.6001 52.1767 29.6001H12.2834C11.6185 29.6001 11.0745 29.0561 11.0745 28.3913V3.60904C11.0745 2.94415 11.6185 2.40015 12.2834 2.40015Z" fill="#060604"/>
<path d="M25.5811 16.6045C25.2184 16.6045 24.886 16.6045 24.5838 16.5743C24.2816 16.5743 23.8584 16.5441 23.3447 16.4836V10.2881H26.3064C26.7296 10.2881 27.0922 10.3485 27.4247 10.4694C27.7571 10.5903 28.0291 10.7716 28.2104 10.9832C28.3918 11.225 28.4824 11.4668 28.4824 11.769C28.4824 12.1316 28.3918 12.4339 28.2407 12.6454C28.0896 12.857 27.8478 13.0081 27.5456 13.0988C28.3616 13.2196 28.7544 13.7334 28.7544 14.5796C28.7544 15.1841 28.4824 15.6676 27.9687 16.0303C27.4851 16.4232 26.6691 16.6045 25.5811 16.6045ZM25.9438 12.7361C26.1553 12.7361 26.3669 12.6756 26.4878 12.5548C26.6389 12.4339 26.6993 12.2828 26.6993 12.1014C26.6993 11.6783 26.4576 11.4668 25.9438 11.4668H25.2487V12.7059H25.9438V12.7361ZM25.9136 15.1841C26.2158 15.1841 26.4576 15.1236 26.6389 15.0028C26.8202 14.8819 26.9109 14.7005 26.9109 14.489C26.9109 14.2472 26.8202 14.0659 26.6691 13.945C26.518 13.8241 26.3064 13.7334 26.0042 13.7334H25.2487V15.1539C25.5207 15.1841 25.7322 15.1841 25.9136 15.1841ZM30.8398 10.2881H33.4691L35.1918 16.4836H33.1669L32.9553 15.305H31.414L31.1722 16.4836H29.2078L30.8398 10.2881ZM32.7438 14.1868L32.1696 11.4668L31.5953 14.1868H32.7438ZM35.9473 10.2881H37.67L40.0273 13.6428V10.2881H41.5687V16.4836H39.846L37.4584 13.2499V16.4836H35.9171V10.2881H35.9473ZM42.8984 10.2881H44.8931V12.8268H45.5278L46.6762 10.2881H48.6709V10.681L47.3109 13.3405L48.8824 16.0605V16.4534H46.7971L45.5278 14.0054H44.9536V16.4534H42.9589V10.2881H42.8984Z" fill="white"/>
<path d="M16.2123 19.0827H15.3056V18.1156H18.5696V19.0827H17.6629V22.4676H16.2123V19.0827ZM22.5892 22.5582C21.8034 22.5582 21.3198 22.1956 21.1385 21.4702L20.9874 20.8356H20.6852V22.4676H19.2949V18.1156H21.1989C21.5616 18.1156 21.8638 18.176 22.166 18.2667C22.438 18.3573 22.6496 18.5085 22.8007 18.72C22.9518 18.9013 23.0425 19.1431 23.0425 19.3849C23.0425 19.6569 22.982 19.8987 22.8309 20.1102C22.71 20.2916 22.4985 20.4427 22.1963 20.5636C22.2265 20.7147 22.2567 20.8658 22.2869 20.9867C22.3474 21.1378 22.4078 21.2587 22.4985 21.3191C22.5892 21.3796 22.71 21.4098 22.8914 21.4098C22.9518 21.4098 23.0425 21.4098 23.1634 21.3796V22.4071C22.982 22.528 22.7705 22.5582 22.5892 22.5582ZM20.9269 19.9289C21.2292 19.9289 21.4709 19.8987 21.5918 19.8382C21.7127 19.7778 21.7732 19.6569 21.7732 19.4756C21.7732 19.3245 21.7127 19.2338 21.622 19.1733C21.5314 19.1129 21.35 19.0827 21.1385 19.0827H20.7154V19.9289H20.9269ZM24.6443 18.1156H26.5483L27.8176 22.4676H26.3367L26.1856 21.6213H25.0674L24.886 22.4676H23.4656L24.6443 18.1156ZM26.0345 20.8658L25.6114 18.9618L25.1883 20.8658H26.0345ZM28.3616 18.1156H29.6309L31.3536 20.4427V18.1156H32.4718V22.4676H31.2025L29.4496 20.2009V22.4676H28.3314V18.1156H28.3616ZM34.7687 22.5582C34.1643 22.5582 33.6807 22.4373 33.2576 22.2258L33.5598 21.2587C33.9829 21.4098 34.3758 21.5005 34.7083 21.5005C34.8896 21.5005 35.0407 21.4702 35.1012 21.44C35.1918 21.3796 35.222 21.3191 35.222 21.2285C35.222 21.168 35.1918 21.1076 35.1616 21.0773C35.1012 21.0169 35.0105 20.9867 34.8896 20.9262C34.7385 20.8658 34.5572 20.8053 34.2549 20.7147C33.9225 20.624 33.6505 20.4427 33.4692 20.2311C33.2878 19.9893 33.1972 19.7476 33.1972 19.4453C33.1972 18.992 33.3483 18.6293 33.6505 18.3876C33.9527 18.1458 34.3758 18.0249 34.8896 18.0249C35.1616 18.0249 35.4336 18.0551 35.6754 18.1156C35.9474 18.176 36.1589 18.2667 36.3705 18.3573L36.0683 19.3245C35.8265 19.2338 35.6149 19.1733 35.4638 19.1431C35.2825 19.1129 35.1314 19.0827 34.95 19.0827C34.678 19.0827 34.5269 19.1733 34.5269 19.3245C34.5269 19.4151 34.5572 19.4756 34.6478 19.5058C34.7385 19.5662 34.9198 19.6267 35.222 19.6871C35.6754 19.808 36.0078 19.9893 36.2194 20.2311C36.4612 20.4729 36.5518 20.7449 36.5518 21.1076C36.5518 21.5609 36.4007 21.9236 36.0985 22.1956C35.8265 22.4373 35.3732 22.5582 34.7687 22.5582ZM37.3074 18.1156H40.2994V19.0827H38.6674V19.9591H40.1785V20.7449H38.6674V22.4676H37.3074V18.1156ZM41.0247 18.1156H44.0772V19.0827H42.566V19.8685H43.9563V20.6542H42.566V21.5005H44.0772V22.4676H41.0247V18.1156ZM48.1874 22.5582C47.4016 22.5582 46.918 22.1956 46.7367 21.4702L46.5856 20.8356H46.2834V22.4676H44.8932V18.1156H46.7972C47.1598 18.1156 47.462 18.176 47.7643 18.2667C48.0363 18.3573 48.2478 18.5085 48.3989 18.72C48.55 18.9013 48.6407 19.1431 48.6407 19.3849C48.6407 19.6569 48.5803 19.8987 48.4292 20.1102C48.3083 20.2916 48.0967 20.4427 47.7945 20.5636C47.8247 20.7147 47.8549 20.8658 47.8852 20.9867C47.9456 21.1378 48.0061 21.2587 48.0967 21.3191C48.1874 21.3796 48.3083 21.4098 48.4896 21.4098C48.55 21.4098 48.6407 21.4098 48.7616 21.3796V22.4071C48.5803 22.528 48.3687 22.5582 48.1874 22.5582ZM46.5252 19.9289C46.8274 19.9289 47.0692 19.8987 47.19 19.8382C47.3109 19.7778 47.3714 19.6569 47.3714 19.4756C47.3714 19.3245 47.3109 19.2338 47.2203 19.1733C47.1296 19.1129 46.9483 19.0827 46.7367 19.0827H46.3136V19.9289H46.5252Z" fill="white"/>
<path d="M15.3056 10.2881H21.894V11.4365H15.3056V10.2881ZM15.3056 12.857H21.894V14.0054H15.3056V12.857ZM15.3056 15.4561H21.894V16.6045H15.3056V15.4561Z" fill="white"/>
</g>
<defs>
<clipPath id="clip0_5248_1803">
<rect width="42.2875" height="27.2" fill="white" transform="translate(11.0745 2.40015)"/>
</clipPath>
</defs>
</svg>
