<svg width="120" height="121" viewBox="0 0 120 121" fill="none" xmlns="http://www.w3.org/2000/svg">
<g clip-path="url(#clip0_20185_2278)">
<path d="M46.4151 52.4668H43.6552L37.5254 60.0855V30.7872L42.1591 36.5539L46.4296 31.9565L47.4246 32.6247C48.2889 33.3074 50.3297 33.213 52.6974 32.2471V26.9307L45.086 20.8081H74.3842L66.7655 26.9379V32.2543C69.1332 33.2203 71.174 33.3147 72.0383 32.632L73.0333 31.9638L77.2966 36.5612L82.0538 30.7945V60.1L75.9239 52.4813H73.0406C72.9825 53.4254 72.9462 54.3769 72.9462 55.321C72.9462 57.2675 73.0842 59.1849 73.3311 61.1168C71.3193 61.9956 69.7215 63.2593 68.5522 65.1404C68.0075 65.8957 67.4046 66.6147 66.751 67.2757V73.9429L74.3697 80.0727H45.086L52.7047 73.9429V67.2757C52.051 66.6147 51.4482 65.903 50.9035 65.1404C49.7342 63.2593 48.1436 61.9956 46.1246 61.1168C46.3715 59.1849 46.5095 57.2675 46.5095 55.321C46.5095 54.3769 46.4805 53.4327 46.4151 52.4813V52.4668ZM55.1668 69.2729V75.0614L51.7605 77.7995H67.7097L64.3034 75.0614V69.2729C64.1654 69.3601 64.0347 69.4472 63.8967 69.5271C63.8967 69.5271 63.5989 69.6506 63.2358 69.7668C63.0106 69.8394 62.7274 69.9193 62.4514 69.9629C62.5676 72.4976 62.5676 76.0274 62.5676 76.0274H56.9171V69.9411C56.4596 69.854 55.9657 69.6796 55.588 69.5199C55.45 69.44 55.312 69.3528 55.1813 69.2657L55.1668 69.2729ZM59.2921 69.4981V73.4491H60.1781V69.4981C60.0038 69.3673 59.8513 69.2076 59.7351 69.026C59.6189 69.2076 59.4664 69.3673 59.2921 69.4981ZM57.6725 69.9992V75.2648H61.7977V69.9992C61.5 69.9847 61.2095 69.9338 60.9407 69.8612V74.2044H58.5295V69.8612C58.2607 69.9338 57.9702 69.9847 57.6725 69.9992ZM53.4673 67.9729V74.2915L47.2503 79.2956H72.2199L66.0029 74.2915V67.9729C65.6979 68.2416 65.3856 68.4958 65.066 68.7355V74.691L69.874 78.5621H49.5962L54.4042 74.691V68.7355C54.0774 68.4958 53.7651 68.2343 53.4673 67.9729ZM53.4673 31.913C53.7796 31.7677 54.0919 31.6079 54.4042 31.4264V26.1608L49.5962 22.297H69.874L65.066 26.1608V31.4264C65.3783 31.6007 65.6979 31.7604 66.0029 31.913V26.5675L72.2199 21.5707H47.2503L53.4673 26.5675V31.913ZM56.9099 30.2135V24.8317H62.5603V30.2135C63.1123 30.366 63.628 30.5693 64.0565 30.8235L64.2962 30.9761V25.7977L67.7024 23.0596H51.7533L55.1595 25.7977V30.9761L55.3992 30.8235C55.835 30.5693 56.3434 30.366 56.9026 30.2135H56.9099ZM61.7977 30.0682V25.6016H57.6725V30.0682C57.9702 30.0609 58.2607 30.119 58.5295 30.2353V26.6547H60.9407L60.9625 30.2207C61.224 30.1118 61.5072 30.0537 61.7977 30.0609V30.0682ZM60.1781 30.7654V27.41H59.2921V30.7654C59.4882 30.9761 59.6407 31.223 59.7351 31.4917C59.8295 31.223 59.982 30.9761 60.1781 30.7654ZM44.1346 44.9933V45.8794H45.4564C45.391 45.5816 45.3111 45.2838 45.2385 44.9933H44.1346ZM45.6234 46.642H43.372V44.2307H45.0351C44.9553 43.9402 44.8681 43.6569 44.781 43.3737H42.3189V47.499H45.7977C45.7469 47.2085 45.6888 46.9252 45.6307 46.642H45.6234ZM46.2698 50.7673H42.8854L39.0143 55.5752V35.2974L42.8854 40.1054H43.5898C43.401 39.6697 43.2049 39.2339 43.0016 38.7981L38.2952 32.9515V57.9211L43.2993 51.7042H46.3642C46.3425 51.3919 46.3061 51.0796 46.2771 50.7673H46.2698ZM43.9021 40.868H42.5222L39.7841 37.4618V53.4109L42.5222 50.0047H46.1899C46.1173 49.4236 46.0302 48.8426 45.9357 48.2688H41.5563V42.6184H44.5413C44.3452 42.0301 44.1346 41.4563 43.9094 40.8753L43.9021 40.868ZM75.8804 40.1054H76.7083L80.5794 35.2902V55.568L76.7083 50.76H73.2004C73.1713 51.0723 73.135 51.3846 73.1132 51.6969H76.3016L81.2984 57.9139V32.9515L76.3016 39.1685C76.1563 39.4808 76.0184 39.7931 75.8804 40.1127V40.1054ZM74.0065 45.8794H75.3429V44.9933H74.2244C74.1518 45.2838 74.0719 45.5816 74.0065 45.8794ZM74.9289 42.6111H78.0229V48.2616H73.5272C73.4328 48.8426 73.3456 49.4164 73.273 49.9974H77.0569L79.795 53.4037V37.4545L77.0569 40.8608H75.5535C75.3284 41.4345 75.1178 42.0156 74.9217 42.6038L74.9289 42.6111ZM73.6725 47.499H77.2676V43.3737H74.6893C74.6021 43.6569 74.5149 43.9402 74.4351 44.2307H76.2072V46.642H73.8395C73.7814 46.9252 73.7233 47.2157 73.6725 47.499ZM62.8291 68.0528C62.6257 68.1472 62.386 68.198 62.1464 68.198C61.7251 68.198 61.3257 68.0528 61.0352 67.7405C60.5413 66.9997 60.1055 67.6243 60.258 68.307C60.2798 68.4087 60.3089 68.4885 60.3524 68.5757C60.4759 68.8008 60.7156 68.9897 61.0206 69.0914C61.3111 69.1858 61.6452 69.2366 62.0084 69.2366C62.4587 69.2366 63.1123 69.0115 63.5408 68.8372C65.1967 67.8349 66.6784 66.4259 67.9276 64.6901C69.0243 62.9252 70.6148 61.5162 72.5104 60.6229C72.2998 58.9016 72.1908 57.115 72.1908 55.292C72.1908 48.2253 73.8468 41.7614 76.5776 36.888L72.9099 32.9443L72.4814 33.2275C70.8981 34.484 67.2667 33.6924 64.0129 31.6878L63.657 31.4627C63.1632 31.1722 62.5603 30.9543 61.8486 30.8235C61.1296 30.7364 60.396 31.361 60.3815 32.0727C60.3815 33.1549 61.9067 33.0968 62.4369 32.1817L62.6475 31.8185C64.6302 33.2348 69.3656 35.7477 71.4791 34.346L72.4741 33.8086L75.6116 37.1785C72.554 42.6983 71.2539 49.0678 71.2539 55.3356C71.2539 57.006 71.3556 58.6619 71.5372 60.3251C69.8813 61.1095 68.5667 62.1118 67.4845 63.6007C66.1772 65.4382 64.6157 66.9561 62.8509 68.031L62.8145 68.0528H62.8291ZM56.6411 68.0528C54.84 66.9488 53.2785 65.4309 51.9711 63.6007C50.8817 62.1118 49.5672 61.1095 47.9185 60.3251C48.1001 58.6619 48.2017 57.006 48.2017 55.3356C48.2017 49.0678 46.9017 42.7055 43.844 37.1785L46.9816 33.8086L47.9766 34.346C50.0973 35.7477 54.8327 33.2348 56.8082 31.8185C57.1423 32.3996 57.5853 32.9879 58.3624 32.8789C58.8055 32.8136 59.0742 32.4867 59.0742 32.08C59.0597 31.3683 58.3189 30.7436 57.6071 30.8308C56.9026 30.9615 56.2998 31.1867 55.7987 31.4699L55.4428 31.6951C52.1818 33.6996 48.5576 34.4913 46.9743 33.2348L46.5458 32.9515L42.8781 36.8953C45.6016 41.7686 47.2648 48.2325 47.2648 55.2993C47.2648 57.1222 47.1559 58.9016 46.9453 60.6302C48.8409 61.5235 50.4314 62.9325 51.5281 64.6973C52.7773 66.4332 54.2589 67.8422 55.9149 68.8444C56.0674 68.9098 56.9244 69.2439 57.4473 69.2439C57.8032 69.2439 58.1445 69.193 58.4351 69.0986C58.7474 68.9969 58.9798 68.8081 59.1105 68.583C59.1541 68.4958 59.1831 68.4159 59.2049 68.3142C59.3574 67.6315 58.9217 67.0069 58.4278 67.7477C58.1373 68.06 57.7378 68.2053 57.3166 68.2053C57.0696 68.2053 56.8372 68.1544 56.6339 68.06L56.6411 68.0528ZM59.7351 32.7119C59.2775 33.9175 57.4691 33.8812 56.6048 32.9007L55.9003 33.351C52.741 35.2974 49.2621 36.0746 47.5989 35.0069L47.1341 34.76L44.7737 37.2947C47.381 42.1245 48.9571 48.4431 48.9571 55.3356C48.9571 56.8825 48.8772 58.3932 48.7247 59.8748C50.2571 60.652 51.579 61.7777 52.5812 63.1576C53.8304 64.9225 55.3266 66.3605 56.9898 67.3846C57.0479 67.4064 57.1713 67.4354 57.3166 67.4354C57.5563 67.4354 57.7524 67.3338 57.8468 67.2466C58.4351 66.3968 59.2921 66.5131 59.7206 67.1159C60.1491 66.5131 61.0061 66.3968 61.5944 67.2466C61.6961 67.3338 61.8922 67.4354 62.1318 67.4354C62.2698 67.4354 62.3933 67.4064 62.495 67.3628C64.1436 66.3387 65.6253 64.908 66.8672 63.1576C67.8695 61.785 69.1913 60.652 70.7238 59.8748C70.5712 58.4005 70.4913 56.8825 70.4913 55.3356C70.4913 48.4431 72.0674 42.1245 74.6747 37.2947L72.3143 34.76L71.8495 35.0069C70.1863 36.0746 66.7074 35.2974 63.5481 33.351L62.8436 32.9007C61.9793 33.8812 60.1709 33.9175 59.7133 32.7119H59.7351ZM55.6897 62.6783C56.7138 63.8694 58.2244 64.5666 59.8077 64.5448C61.3692 64.5666 62.8 63.8912 63.8241 62.7146L64.4487 61.7922C65.204 60.6737 66.0973 59.6569 67.2521 58.8798L67.8622 58.4804L67.8186 57.3328L68.1527 49.6996C68.4795 47.2157 68.9952 44.7827 69.707 42.386L70.1427 41.0205L68.9298 39.6406C68.5013 39.6697 68.0801 39.6914 67.6516 39.6987C66.3152 39.6987 64.7247 39.568 63.4319 38.9506C63.2794 38.878 63.1486 38.7909 62.9961 38.7328C61.8776 38.3115 60.7519 38.4568 59.7424 39.0741C58.7328 38.4568 57.6797 38.3115 56.5613 38.7328C56.4015 38.7981 56.2707 38.878 56.1255 38.9506C54.8327 39.5607 53.2421 39.6987 51.9058 39.6987C51.4773 39.6987 51.056 39.6697 50.6275 39.6406L49.4146 41.0205L49.8504 42.386C50.5622 44.7827 51.0778 47.223 51.3974 49.6996L51.7315 57.3328L51.6879 58.4804L52.3052 58.8798C53.8304 59.9184 54.702 61.1967 55.7042 62.6783H55.6897ZM55.0942 63.1576L54.455 62.2207C53.736 61.1531 52.908 60.2234 51.8622 59.519L50.889 58.8871L50.9544 57.3256L50.6203 49.765C50.3007 47.3319 49.7996 44.9715 49.1023 42.6184L48.5431 40.8462L50.2862 38.8635C50.8236 38.8998 51.3611 38.9361 51.8985 38.9434C53.2058 38.9434 54.6439 38.8126 55.7769 38.2752C55.9439 38.188 56.0964 38.1009 56.2707 38.0283C57.3674 37.6143 58.6602 37.6215 59.7278 38.188C60.8027 37.6215 62.1609 37.607 63.2576 38.0283C63.4319 38.1009 63.5844 38.188 63.7514 38.2752C64.8844 38.8126 66.3225 38.9506 67.6298 38.9434C68.1672 38.9434 68.7047 38.8998 69.2421 38.8635L70.9852 40.8462L70.426 42.6184C69.7287 44.9788 69.2203 47.3537 68.9008 49.794L68.574 57.3546L68.6393 58.8871L67.6661 59.519C66.6203 60.2234 65.7923 61.1531 65.0733 62.2207L64.4342 63.1576C63.2721 64.5158 61.6162 65.3365 59.8005 65.3074C57.992 65.3365 56.2635 64.523 55.0942 63.1576ZM62.7419 39.3646C64.042 40.1345 66.0755 40.3451 67.4627 40.3451C67.8332 40.3451 68.2036 40.3233 68.574 40.3015L69.3366 41.1658C67.8041 45.9012 67.0706 50.7164 67.0706 55.6987C67.0706 56.5121 67.0923 57.3183 67.1287 58.1318C65.5454 59.1413 64.4124 60.4341 63.4464 62.0392C62.6257 63.1504 61.2966 63.8839 59.8077 63.8839C58.1736 63.8839 56.8372 63.1431 56.0165 62.0392C55.0506 60.4341 53.9176 59.1413 52.3343 58.1318C52.3706 57.3183 52.3924 56.5121 52.3924 55.6987C52.3924 50.7164 51.6588 45.9012 50.1264 41.1658L50.889 40.3015C51.2594 40.3233 51.6298 40.3451 52.0002 40.3451C53.3874 40.3451 55.421 40.1272 56.6992 39.3646C57.0624 39.2121 57.4255 39.1322 57.8177 39.1322C58.5803 39.1322 59.2775 39.4372 59.7859 39.9384L60.2072 39.6551C60.5921 39.4227 61.1514 39.1322 61.6598 39.1322C62.0447 39.1322 62.4151 39.2121 62.7492 39.3574L62.7419 39.3646ZM62.4441 40.0619C62.1972 39.9602 61.9357 39.9021 61.6525 39.9021C61.0569 39.9021 60.1273 40.6356 59.677 40.9988C59.1759 40.3596 58.7038 39.9021 57.825 39.9021C57.5417 39.9021 57.273 39.9602 57.0333 40.0619C55.9221 40.701 54.0628 41.1077 52.0147 41.1077L51.2303 41.0859L50.9979 41.3474C52.3924 45.7123 53.1622 50.5784 53.1622 55.6987C53.1622 56.3814 53.1477 57.0569 53.1187 57.7323C54.4623 58.6402 55.6534 59.9692 56.6411 61.6034C57.3238 62.5258 58.4205 63.1286 59.6552 63.1286C61.0351 63.1286 62.1173 62.5403 62.8073 61.6324C63.8023 59.9838 65.0007 58.6402 66.3515 57.7323C66.3225 57.0569 66.308 56.3814 66.308 55.6987C66.308 50.5784 67.0851 45.7123 68.4795 41.3474L68.2544 41.0859L67.47 41.1077C65.4219 41.1077 63.5626 40.7082 62.4514 40.0619H62.4441ZM62.1972 48.8862H65.7051V53.0986C65.7051 53.8249 64.9208 54.4132 63.9548 54.4132C62.9888 54.4132 62.2045 53.8249 62.2045 53.0986V48.8862H62.1972ZM57.9848 42.1172H61.4927V46.3297C61.4927 47.056 60.7011 47.6515 59.7424 47.6515C58.7837 47.6515 57.992 47.056 57.992 46.3297V42.1172H57.9848ZM58.7183 43.3592C58.8999 43.3592 59.0451 43.2139 59.0451 43.0323C59.0451 42.8508 58.8999 42.7055 58.7183 42.7055C58.5367 42.7055 58.3915 42.8508 58.3915 43.0323C58.3915 43.2139 58.5367 43.3592 58.7183 43.3592ZM60.7446 42.7055C60.5631 42.7055 60.4178 42.8508 60.4178 43.0323C60.4178 43.2139 60.5631 43.3592 60.7446 43.3592C60.9262 43.3592 61.0715 43.2139 61.0715 43.0323C61.0715 42.8508 60.9262 42.7055 60.7446 42.7055ZM59.7278 44.3397C59.5463 44.3397 59.401 44.4849 59.401 44.6665C59.401 44.8481 59.5463 44.9933 59.7278 44.9933C59.9094 44.9933 60.0547 44.8481 60.0547 44.6665C60.0547 44.4849 59.9094 44.3397 59.7278 44.3397ZM58.7183 46.6129C58.8999 46.6129 59.0451 46.4677 59.0451 46.2861C59.0451 46.1045 58.8999 45.9593 58.7183 45.9593C58.5367 45.9593 58.3915 46.1045 58.3915 46.2861C58.3915 46.4677 58.5367 46.6129 58.7183 46.6129ZM60.7446 46.6129C60.9262 46.6129 61.0715 46.4677 61.0715 46.2861C61.0715 46.1045 60.9262 45.9593 60.7446 45.9593C60.5631 45.9593 60.4178 46.1045 60.4178 46.2861C60.4178 46.4677 60.5631 46.6129 60.7446 46.6129ZM64.9643 53.3819C65.1459 53.3819 65.2912 53.2366 65.2912 53.055C65.2912 52.8735 65.1459 52.7282 64.9643 52.7282C64.7828 52.7282 64.6302 52.8735 64.6302 53.055C64.6302 53.2366 64.7828 53.3819 64.9643 53.3819ZM62.938 53.3819C63.1196 53.3819 63.2648 53.2366 63.2648 53.055C63.2648 52.8735 63.1196 52.7282 62.938 52.7282C62.7564 52.7282 62.6112 52.8735 62.6112 53.055C62.6112 53.2366 62.7564 53.3819 62.938 53.3819ZM63.9548 51.1013C63.7732 51.1013 63.628 51.2466 63.628 51.4282C63.628 51.6097 63.7732 51.755 63.9548 51.755C64.1364 51.755 64.2816 51.6097 64.2816 51.4282C64.2816 51.2466 64.1364 51.1013 63.9548 51.1013ZM64.9643 49.4745C64.7828 49.4745 64.6302 49.6197 64.6302 49.8013C64.6302 49.9829 64.7828 50.1281 64.9643 50.1281C65.1459 50.1281 65.2912 49.9829 65.2912 49.8013C65.2912 49.6197 65.1459 49.4745 64.9643 49.4745ZM62.938 50.1281C63.1196 50.1281 63.2648 49.9829 63.2648 49.8013C63.2648 49.6197 63.1196 49.4745 62.938 49.4745C62.7564 49.4745 62.6112 49.6197 62.6112 49.8013C62.6112 49.9829 62.7564 50.1281 62.938 50.1281ZM60.7446 60.1581C60.9262 60.1581 61.0715 60.0128 61.0715 59.8313C61.0715 59.6497 60.9262 59.5044 60.7446 59.5044C60.5631 59.5044 60.4178 59.6569 60.4178 59.8313C60.4178 60.0056 60.5631 60.1581 60.7446 60.1581ZM58.7183 60.1581C58.8999 60.1581 59.0451 60.0128 59.0451 59.8313C59.0451 59.6497 58.8999 59.5044 58.7183 59.5044C58.5367 59.5044 58.3915 59.6569 58.3915 59.8313C58.3915 60.0056 58.5367 60.1581 58.7183 60.1581ZM59.7278 57.8703C59.5463 57.8703 59.401 58.0155 59.401 58.1971C59.401 58.3787 59.5463 58.5312 59.7278 58.5312C59.9094 58.5312 60.0547 58.3787 60.0547 58.1971C60.0547 58.0155 59.9094 57.8703 59.7278 57.8703ZM60.7446 56.2434C60.5631 56.2434 60.4178 56.3887 60.4178 56.5703C60.4178 56.7518 60.5631 56.8971 60.7446 56.8971C60.9262 56.8971 61.0715 56.7518 61.0715 56.5703C61.0715 56.3887 60.9262 56.2434 60.7446 56.2434ZM58.7183 56.8971C58.8999 56.8971 59.0451 56.7518 59.0451 56.5703C59.0451 56.3887 58.8999 56.2434 58.7183 56.2434C58.5367 56.2434 58.3915 56.3887 58.3915 56.5703C58.3915 56.7518 58.5367 56.8971 58.7183 56.8971ZM57.9848 55.6551H61.4927V59.8676C61.4927 60.5939 60.7011 61.1894 59.7424 61.1894C58.7837 61.1894 57.992 60.5939 57.992 59.8676V55.6551H57.9848ZM60.7446 53.3819C60.9262 53.3819 61.0715 53.2366 61.0715 53.055C61.0715 52.8735 60.9262 52.7282 60.7446 52.7282C60.5631 52.7282 60.4178 52.8735 60.4178 53.055C60.4178 53.2366 60.5631 53.3819 60.7446 53.3819ZM58.7183 53.3819C58.8999 53.3819 59.0451 53.2366 59.0451 53.055C59.0451 52.8735 58.8999 52.7282 58.7183 52.7282C58.5367 52.7282 58.3915 52.8735 58.3915 53.055C58.3915 53.2366 58.5367 53.3819 58.7183 53.3819ZM59.7278 51.1013C59.5463 51.1013 59.401 51.2466 59.401 51.4282C59.401 51.6097 59.5463 51.755 59.7278 51.755C59.9094 51.755 60.0547 51.6097 60.0547 51.4282C60.0547 51.2466 59.9094 51.1013 59.7278 51.1013ZM60.7446 49.4745C60.5631 49.4745 60.4178 49.6197 60.4178 49.8013C60.4178 49.9829 60.5631 50.1281 60.7446 50.1281C60.9262 50.1281 61.0715 49.9829 61.0715 49.8013C61.0715 49.6197 60.9262 49.4745 60.7446 49.4745ZM58.7183 50.1281C58.8999 50.1281 59.0451 49.9829 59.0451 49.8013C59.0451 49.6197 58.8999 49.4745 58.7183 49.4745C58.5367 49.4745 58.3915 49.6197 58.3915 49.8013C58.3915 49.9829 58.5367 50.1281 58.7183 50.1281ZM57.9848 48.8862H61.4927V53.0986C61.4927 53.8249 60.7011 54.4132 59.7424 54.4132C58.7837 54.4132 57.992 53.8176 57.992 53.0986V48.8862H57.9848ZM56.5249 53.3819C56.7065 53.3819 56.8518 53.2366 56.8518 53.055C56.8518 52.8735 56.7065 52.7282 56.5249 52.7282C56.3434 52.7282 56.1981 52.8735 56.1981 53.055C56.1981 53.2366 56.3434 53.3819 56.5249 53.3819ZM54.4986 53.3819C54.6802 53.3819 54.8254 53.2366 54.8254 53.055C54.8254 52.8735 54.6802 52.7282 54.4986 52.7282C54.317 52.7282 54.1718 52.8735 54.1718 53.055C54.1718 53.2366 54.317 53.3819 54.4986 53.3819ZM55.5081 51.1013C55.3266 51.1013 55.1813 51.2466 55.1813 51.4282C55.1813 51.6097 55.3266 51.755 55.5081 51.755C55.6897 51.755 55.835 51.6097 55.835 51.4282C55.835 51.2466 55.6897 51.1013 55.5081 51.1013ZM56.5249 49.4745C56.3434 49.4745 56.1981 49.6197 56.1981 49.8013C56.1981 49.9829 56.3434 50.1281 56.5249 50.1281C56.7065 50.1281 56.8518 49.9829 56.8518 49.8013C56.8518 49.6197 56.7065 49.4745 56.5249 49.4745ZM54.4986 50.1281C54.6802 50.1281 54.8254 49.9829 54.8254 49.8013C54.8254 49.6197 54.6802 49.4745 54.4986 49.4745C54.317 49.4745 54.1718 49.6197 54.1718 49.8013C54.1718 49.9829 54.317 50.1281 54.4986 50.1281ZM53.7651 48.8862H57.2657V53.0986C57.2657 53.8249 56.4814 54.4132 55.5154 54.4132C54.5494 54.4132 53.7651 53.8249 53.7651 53.0986V48.8862ZM55.3992 37.745L54.9344 34.4622L56.5976 34.2225L56.6775 34.8036L55.5081 34.9706L55.6171 35.7259L56.6411 35.5807L56.721 36.1545L55.697 36.2997L55.8931 37.6724L55.4065 37.7377L55.3992 37.745ZM60.3379 35.0941C60.3379 34.7527 60.1927 34.6075 59.9457 34.6075H59.4664V35.5952H59.9457C60.1854 35.5952 60.3379 35.4354 60.3379 35.0941ZM60.8463 35.0941C60.8463 35.8639 60.5413 36.1545 59.9893 36.1545H59.4664V37.3528H58.9435V34.041H60.0329C60.5268 34.041 60.8536 34.3823 60.8536 35.1013L60.8463 35.0941ZM62.7346 37.4109L63.2866 34.1426L64.9425 34.4259L64.8481 34.9997L63.6788 34.8036L63.5553 35.5516L64.5794 35.7259L64.485 36.2997L63.4609 36.1254L63.2285 37.4908L62.7419 37.4109H62.7346ZM64.6738 37.7377L64.7828 37.0841L65.2621 37.164L65.1532 37.8176L64.6738 37.7377ZM57.3456 37.469L57.2512 36.8081L57.7306 36.7355L57.825 37.3964L57.3456 37.469ZM61.1877 37.3456V36.6846H61.6961V37.3456H61.1877Z" fill="white"/>
<path d="M27.6991 97.3293C27.3941 97.3293 27.089 97.3002 26.7186 97.2857V100.409C26.7186 100.561 26.5951 100.685 26.4426 100.685H24.2202C24.0677 100.685 23.9297 100.59 23.9297 100.438V91.3447C23.9297 90.6766 24.1548 90.524 24.7359 90.4296C25.4258 90.3207 26.675 90.248 27.6628 90.248C29.7254 90.248 31.9914 90.9671 31.9914 93.7269V93.8359C31.9914 96.5667 29.7036 97.3293 27.7064 97.3293H27.6991ZM29.188 93.7269C29.188 92.9208 28.636 92.6012 27.7064 92.6012C27.6119 92.6012 26.8058 92.6157 26.7259 92.6157V94.9761C26.7912 94.9907 27.6265 94.9907 27.7064 94.9907C28.6796 94.9907 29.188 94.613 29.188 93.8359V93.7269Z" fill="white"/>
<path d="M37.3224 100.808C35.0201 100.808 33.0664 99.6316 33.0664 96.2471V94.8163C33.0664 91.4318 35.0201 90.2407 37.3224 90.2407C39.6247 90.2407 41.5784 91.4318 41.5784 94.8163V96.2471C41.5784 99.6316 39.6247 100.808 37.3224 100.808ZM38.7241 94.8163C38.7241 93.3347 38.2956 92.7246 37.3224 92.7246C36.3492 92.7246 35.9207 93.3347 35.9207 94.8163V96.2471C35.9207 97.7287 36.3492 98.3242 37.3224 98.3242C38.2956 98.3242 38.7241 97.7287 38.7241 96.2471V94.8163Z" fill="white"/>
<path d="M51.3327 100.685H48.7834C48.6309 100.685 48.5728 100.547 48.5074 100.409L46.7498 97.0242C46.5392 97.0242 46.3867 97.0242 45.9582 97.0097V100.409C45.9582 100.561 45.8347 100.685 45.6822 100.685H43.438C43.2855 100.685 43.1475 100.561 43.1475 100.409V91.3374C43.1475 90.6692 43.3726 90.5167 43.9536 90.4223C44.5056 90.3351 45.8928 90.2407 46.8806 90.2407C49.4589 90.2407 51.2165 91.0614 51.2165 93.5961V93.8213C51.2165 95.3029 50.3958 96.1817 49.5242 96.5521L51.536 100.322C51.5651 100.38 51.5796 100.43 51.5796 100.474C51.5796 100.598 51.4852 100.685 51.3472 100.685H51.3327ZM48.4057 93.6034C48.4057 92.9498 47.9482 92.6157 47.0185 92.6157C46.9241 92.6157 46.3504 92.6157 45.9509 92.6447V94.8454C46.0163 94.8599 46.8806 94.8599 46.9604 94.8599C48.0281 94.8599 48.4057 94.4822 48.4057 93.8358V93.6034Z" fill="white"/>
<path d="M59.278 92.681H57.2154V100.401C57.2154 100.554 57.0919 100.677 56.9394 100.677H54.6807C54.5281 100.677 54.4047 100.554 54.4047 100.401V92.681H52.2984C52.1459 92.681 52.0225 92.5721 52.0225 92.4196V90.6474C52.0225 90.4949 52.1459 90.386 52.2984 90.386H59.2853C59.4378 90.386 59.5758 90.4949 59.5758 90.6474V92.4196C59.5758 92.5721 59.4378 92.681 59.2853 92.681H59.278Z" fill="white"/>
<path d="M64.9646 100.808C62.7858 100.808 60.7812 100.133 60.7812 96.7773V90.662C60.7812 90.5095 60.9192 90.386 61.0718 90.386H63.316C63.4685 90.386 63.592 90.5095 63.592 90.662V96.7773C63.592 98.041 63.9769 98.4405 64.9646 98.4405C65.9524 98.4405 66.3518 98.041 66.3518 96.7773V90.662C66.3518 90.5095 66.4753 90.386 66.6278 90.386H68.872C69.0246 90.386 69.1625 90.5095 69.1625 90.662V96.7773C69.1625 100.133 67.1362 100.808 64.9574 100.808H64.9646Z" fill="white"/>
<path d="M78.0518 100.474C77.2601 100.641 76.1925 100.808 74.8489 100.808C73.1857 100.808 70.6582 100.017 70.6582 96.2617V94.8091C70.6582 91.0106 73.113 90.248 75.0377 90.248C76.483 90.248 77.5071 90.4732 78.0736 90.6257C78.2696 90.6838 78.335 90.7129 78.335 90.8872V92.6375C78.335 92.8336 78.2696 92.8699 78.1026 92.8554C77.5724 92.8118 76.4539 92.7319 75.4299 92.7319C74.1153 92.7319 73.5198 93.1314 73.5198 94.8091V96.2762C73.5198 98.1355 74.3114 98.3969 74.8489 98.3969C75.1103 98.3969 75.379 98.3824 75.6115 98.3534V95.5136C75.6115 95.3611 75.7204 95.2376 75.8729 95.2376H78.0663C78.2188 95.2376 78.3423 95.3611 78.3423 95.5136V100.162C78.3423 100.372 78.2769 100.438 78.0518 100.481V100.474Z" fill="white"/>
<path d="M85.5694 100.423L85.1844 98.4985H82.7151L82.3301 100.423C82.3011 100.561 82.243 100.685 82.0542 100.685H79.6574C79.4468 100.685 79.4105 100.547 79.4323 100.394L81.2916 91.9111C81.5966 90.5384 82.6352 90.2625 83.9498 90.2625C85.2643 90.2625 86.3102 90.5384 86.6152 91.9111L88.4745 100.394C88.5181 100.561 88.4745 100.685 88.2639 100.685H85.8526C85.6565 100.685 85.6057 100.561 85.5766 100.423H85.5694ZM84.095 92.7536C84.066 92.6301 84.066 92.5575 83.9425 92.5575C83.819 92.5575 83.819 92.6229 83.79 92.7536L83.1073 96.2761H84.7705L84.0878 92.7536H84.095Z" fill="white"/>
<path d="M95.3816 100.641C94.8805 100.735 93.9363 100.808 93.2028 100.808C91.4306 100.808 89.6367 100.394 89.6367 97.6996V90.6546C89.6367 90.5021 89.7747 90.3787 89.9272 90.3787H92.186C92.3385 90.3787 92.462 90.5021 92.462 90.6546V97.6996C92.462 98.2443 92.629 98.3896 93.1301 98.3896H95.3744C95.5269 98.3896 95.6503 98.513 95.6503 98.6655V100.358C95.6503 100.525 95.5559 100.605 95.3744 100.634L95.3816 100.641Z" fill="white"/>
</g>
<defs>
<clipPath id="clip0_20185_2278">
<rect width="71.7204" height="80" fill="white" transform="translate(23.9297 20.8081)"/>
</clipPath>
</defs>
</svg>
