<svg width="65" height="32" viewBox="0 0 65 32" fill="none" xmlns="http://www.w3.org/2000/svg">
<path d="M24.7703 24.0812L27.4614 7.96142H31.7672L29.0739 24.0812H24.7696M44.6894 8.35766C43.8355 8.0307 42.5001 7.68018 40.8316 7.68018C36.5762 7.68018 33.5799 9.86712 33.554 13.0003C33.5302 15.3168 35.6936 16.608 37.3265 17.3797C39.002 18.1694 39.5661 18.6738 39.5578 19.3796C39.5466 20.4603 38.2195 20.9542 36.9821 20.9542C35.2597 20.9542 34.3442 20.7097 32.9297 20.1077L32.3747 19.8521L31.7707 23.4598C32.7764 23.9101 34.636 24.3001 36.5664 24.3202C41.0933 24.3202 44.0301 22.1589 44.0644 18.813C44.0798 16.9787 42.9327 15.5835 40.4494 14.4329C38.9446 13.6882 38.0222 13.1887 38.032 12.4337C38.032 11.7638 38.8124 11.0482 40.4984 11.0482C41.6043 11.0233 42.7024 11.2339 43.7201 11.6654L44.1064 11.8511L44.6901 8.35766M55.7296 7.97666H52.4023C51.3714 7.97666 50.6008 8.26276 50.1479 9.31224L43.7543 24.0867H48.2757C48.2757 24.0867 49.0141 22.1 49.1814 21.6636L54.6952 21.6705C54.824 22.2351 55.2194 24.0867 55.2194 24.0867H59.213L55.7303 7.97666M50.4209 18.3669C50.7757 17.4386 52.1357 13.8607 52.1357 13.8607C52.1105 13.9029 52.4891 12.9269 52.7061 12.3228L52.9972 13.7118L53.9946 18.3669H50.4209ZM21.1581 7.97251L16.9426 18.9654L16.4946 16.7307C15.7108 14.1558 13.266 11.3655 10.5322 9.96964L14.3851 24.0666L18.9401 24.0625L25.72 7.97251H21.1602" fill="#2D34A0"/>
<path d="M13.0942 7.8572H6.16257L6.10666 8.19289C11.5014 9.53985 15.0693 12.7961 16.5509 16.7083L15.0441 9.22934C14.7827 8.20058 14.0279 7.89356 13.0935 7.8572" fill="#2D34A0"/>
</svg>
