<svg width="65" height="32" viewBox="0 0 65 32" fill="none" xmlns="http://www.w3.org/2000/svg">
<path d="M18.6022 2.45649C17.3333 2.61623 16.0645 3.66652 15.6491 4.87635C15.3724 5.62975 10.412 26.9973 10.3892 27.3855C10.3429 28.504 10.9889 29.3259 12.0501 29.5314C12.4424 29.6227 25.0388 29.6227 25.4541 29.5314C26.6537 29.303 27.7842 28.3671 28.1995 27.2257C28.361 26.792 33.4826 5.01349 33.4826 4.64814C33.5519 3.62074 32.9288 2.77607 31.9369 2.47933C31.7061 2.43385 19.1329 2.38807 18.6021 2.45644L18.6022 2.45649Z" fill="#E60012"/>
<path d="M30.345 2.45649C29.0761 2.61623 27.8073 3.66652 27.3921 4.87635C27.1382 5.62975 22.1551 26.9973 22.1551 27.3855C22.1089 28.504 22.7548 29.3259 23.8162 29.5314C24.2083 29.6227 36.8047 29.6227 37.2201 29.5314C38.4198 29.303 39.5502 28.3671 39.9654 27.2257C40.127 26.792 45.2485 5.01349 45.2485 4.64814C45.3178 3.62074 44.6949 2.77607 43.7029 2.47933C43.449 2.43385 30.8757 2.38812 30.345 2.45649Z" fill="#00508E"/>
<path d="M42.5955 2.45651C41.3267 2.61625 40.0576 3.66653 39.6424 4.87636C39.3888 5.62977 34.4054 26.9973 34.4054 27.3855C34.3594 28.5041 35.0054 29.3259 36.0665 29.5315C36.4588 29.6227 45.8254 29.6227 46.2405 29.5315C47.4403 29.303 48.5707 28.3671 48.9859 27.2257C49.1474 26.792 54.2692 5.01351 54.2692 4.64815C54.3383 3.62075 53.7154 2.77608 52.7233 2.47935C52.4927 2.41097 41.9726 2.36524 41.4419 2.43386H42.5955V2.45651Z" fill="#00908C"/>
<path d="M18.21 9.39637C18.21 9.41926 18.1868 9.55621 18.1408 9.6932C17.6102 11.4738 17.0795 13.8708 17.1488 14.1676C17.3334 15.058 18.6485 14.9894 19.1098 14.0535C19.2482 13.8024 20.2402 9.62478 20.2402 9.32809C20.2402 9.3052 21.809 9.32809 21.809 9.35069C21.809 9.35069 21.809 9.41926 21.7859 9.48788C21.7628 9.55621 21.5091 10.515 21.2323 11.6565C20.6092 14.0763 20.5401 14.3274 20.2172 14.8068C19.1558 16.3593 15.6029 16.3136 15.3262 14.7384C15.2569 14.3959 16.0184 10.4467 16.3645 9.37353C16.3645 9.3052 18.21 9.35064 18.21 9.39637ZM41.7881 9.39637C42.8493 9.62478 43.1721 10.4693 42.6877 11.7251C42.2032 12.9806 41.1652 13.5284 39.3426 13.5284C38.7888 13.5284 38.835 13.4371 38.4889 15.1492C38.4198 15.4688 38.3505 15.7656 38.3505 15.8113C38.3274 15.9254 36.6894 15.9254 36.7125 15.8113C38.0969 9.94435 38.2121 9.44215 38.2121 9.39637L38.2352 9.32809H39.8961C41.2112 9.35069 41.5804 9.35064 41.7881 9.39637ZM27.5536 11.6565C27.7842 11.7022 27.9457 11.8849 27.9457 12.0446C27.9457 12.6153 26.7691 13.0035 26.3307 12.5696C25.9156 12.1359 26.7922 11.4738 27.5536 11.6564V11.6565ZM23.4701 12.0901C23.4701 12.1359 23.447 12.2273 23.447 12.2956L23.4239 12.3871L23.7007 12.25C24.439 11.8848 25.1541 11.9532 25.3849 12.4097C25.5233 12.6839 25.5002 12.8437 25.1312 14.5329C25.0619 14.8297 24.9697 15.2407 24.9466 15.4459C24.8542 15.9027 24.9235 15.8798 24.093 15.8798C23.3777 15.8798 23.3777 15.8798 23.4008 15.8113C23.4008 15.7656 23.4932 15.4005 23.5854 14.9666C23.9546 13.3459 23.9777 13.1175 23.6547 13.1175C23.4701 13.1175 23.2162 13.2316 23.1933 13.3001C23.1472 13.46 22.7317 15.4459 22.7087 15.6286L22.6626 15.8342L21.9474 15.8798C21.0708 15.9027 21.1399 15.9711 21.3245 15.1949C21.5782 14.1904 21.7168 13.4829 21.809 12.8436C21.9243 12.1587 21.8552 12.2273 22.5011 12.1359C22.801 12.0901 23.1009 12.0446 23.1933 12.0218C23.4239 11.9532 23.4701 11.976 23.4701 12.0901ZM34.4285 12.0675C34.4285 12.113 34.4054 12.2044 34.4054 12.2728L34.3822 12.3871L34.6593 12.25C36.0896 11.5195 36.6432 12.113 36.228 13.9851C36.1358 14.3959 36.0203 14.9894 35.9512 15.2635C35.905 15.5603 35.8357 15.8113 35.8128 15.8341C35.7204 15.9254 34.3594 15.9028 34.3822 15.8341C34.3822 15.7884 34.4747 15.4233 34.5669 15.0123C34.9592 13.3459 34.9592 13.1404 34.6131 13.1404C34.3363 13.1404 34.1979 13.2316 34.1517 13.4371C34.0824 13.6881 33.7363 15.3319 33.6903 15.6286L33.6441 15.8798L32.9289 15.9027C32.0523 15.9254 32.1214 16.0168 32.3291 15.1721C32.5599 14.2589 32.7214 13.4143 32.8367 12.7979C32.9289 12.2044 32.8598 12.2728 33.4364 12.1816C33.6903 12.1359 34.0133 12.0901 34.1287 12.0675C34.3594 11.9532 34.4285 11.9761 34.4285 12.0675ZM48.4323 12.0446C48.5245 13.4371 48.5477 13.8479 48.5477 13.8708C48.5477 13.8937 48.7553 13.5284 48.9859 13.0718C49.4473 12.1587 49.3551 12.25 49.8626 12.1816C50.0011 12.1587 50.2778 12.113 50.4855 12.0675C50.9931 11.9761 50.9931 11.9303 50.4162 12.9349C49.6319 14.2819 48.5477 16.1766 48.1554 16.8615C46.9789 18.9844 46.9789 18.9844 45.9869 19.0073L45.3871 19.0302L45.4331 18.8703C45.4562 18.7791 45.5255 18.5965 45.5485 18.4595L45.6177 18.2083H45.8022C46.01 18.2083 46.0559 18.1625 46.2406 17.8429C46.3099 17.7289 46.4251 17.5462 46.4713 17.4321C46.5405 17.318 46.7712 16.9527 46.9558 16.5874L47.325 15.9482L47.2326 15.1037C47.1173 14.122 46.9789 12.9577 46.9097 12.6153C46.8634 12.2957 46.8634 12.2957 47.2788 12.25C47.4634 12.2273 47.7633 12.1587 47.9248 12.1359C48.363 11.999 48.4092 11.999 48.4323 12.0446ZM31.0372 12.0675C32.8136 12.3871 32.1907 15.4459 30.2528 15.8798C28.9377 16.1766 28.0381 15.6743 28.0381 14.6698C28.061 12.912 29.376 11.7706 31.0371 12.0675H31.0372ZM44.3257 12.1587C44.4179 12.2044 44.5565 12.2957 44.6256 12.3643C44.7409 12.4783 44.7409 12.4783 44.7409 12.4097C44.764 12.3185 44.7409 12.3185 45.6638 12.1816C46.402 12.0675 46.379 12.0675 46.3329 12.2728C46.033 13.5512 45.7792 14.6698 45.6638 15.2178C45.5024 16.0397 45.6177 15.9482 44.718 15.9254H43.9566V15.8341C43.9566 15.7429 43.9106 15.6972 43.8643 15.7656C43.6105 16.1766 42.3647 16.0168 42.0187 15.5145C41.1652 14.2361 42.9876 11.5424 44.3257 12.1587H44.3257ZM27.7611 12.8208C27.7611 12.8208 27.7611 12.9349 27.738 13.0263C27.5536 13.7568 27.2306 15.2407 27.1613 15.5145L27.092 15.857L26.3307 15.8798C25.4311 15.9027 25.4771 15.9482 25.6617 15.4005C25.8232 14.8753 25.9847 14.2361 26.0771 13.5512C26.1693 12.9577 26.0771 13.0489 26.7462 12.9577C27.046 12.912 27.3691 12.8665 27.4381 12.8437C27.6227 12.7979 27.738 12.7979 27.7611 12.8208V12.8208ZM31.7984 17.5462C31.7984 17.5691 31.7524 17.6605 31.6831 17.7746C31.6369 17.8887 31.5679 17.9801 31.5679 17.9801C32.9289 18.0027 32.9751 18.0027 32.9519 18.0713L32.6983 18.8932H30.7142L30.5989 18.9844C30.345 19.2128 29.0071 19.5095 29.0071 19.3269L29.2608 18.505H29.4453C29.7683 18.505 29.8374 18.4366 30.1144 17.9573L30.345 17.5234C31.5448 17.5007 31.7984 17.5234 31.7984 17.5462L31.7984 17.5462ZM34.8208 17.5462C34.8208 17.5691 34.7977 17.6831 34.7514 17.8203C34.7053 17.9344 34.6824 18.0485 34.6824 18.0713C34.6824 18.0713 34.7977 18.0256 34.936 17.9116C35.4436 17.5691 35.8819 17.5007 37.1738 17.5007C37.6814 17.5007 38.1197 17.5007 38.1428 17.5234C38.1659 17.5691 37.4047 20.0346 37.2892 20.2628C37.1277 20.5598 36.9661 20.7196 36.7125 20.8336L36.4817 20.9249L35.1669 20.9478L33.8518 20.9706L33.621 21.7467C33.1597 23.2306 33.1597 23.1166 33.8287 23.048C34.3594 23.0022 34.3363 22.9568 34.1748 23.5045L34.0364 23.9611H33.3674C31.9139 23.984 31.7294 23.8927 31.8677 23.2991C31.937 23.0023 33.598 17.5691 33.621 17.5234C33.6441 17.5007 34.8208 17.5007 34.8208 17.5462ZM40.8882 17.5462C40.8882 17.5691 40.8651 17.6376 40.8422 17.7288C40.7729 17.9572 40.7729 17.9572 41.0728 17.7975C41.465 17.5919 42.3878 17.5234 44.2795 17.5234H44.8795V17.7975C44.8795 18.1171 44.9026 18.1399 45.1794 18.1854L45.3871 18.2083L45.2716 18.6193L45.1563 19.0301H44.7409C43.6798 19.053 43.5183 18.9389 43.4951 18.3226V18.0256L43.4261 18.2311L43.3568 18.4595H43.126C43.0107 18.4595 42.8954 18.4595 42.8954 18.4824C42.8954 18.4824 41.765 22.2032 41.6034 22.7284C41.5804 22.7742 41.6034 22.797 41.7419 22.797C41.9496 22.797 41.9496 22.797 41.8803 22.9794C41.8111 23.1849 41.8111 23.1849 42.0417 23.1849C42.2032 23.1849 42.2957 23.1621 42.4109 23.0937C42.5724 23.0023 42.5724 23.0252 43.3106 21.998L43.6105 21.5641H42.9876C42.2263 21.5641 42.2957 21.6098 42.434 21.1533L42.5493 20.7879H44.0721C44.2105 20.3085 44.2564 20.1716 44.2564 20.1487C44.2564 20.1258 43.9334 20.1258 43.5183 20.1258H42.7801L43.0107 19.304H45.087C46.2174 19.304 47.1635 19.304 47.1635 19.3269C47.1635 19.3497 47.1173 19.5324 47.0481 19.7379L46.9327 20.1259L46.2406 20.1487L45.5485 20.1716C45.4331 20.514 45.3871 20.6738 45.364 20.7196L45.3409 20.8108H46.01C46.7943 20.8108 46.7481 20.7651 46.5866 21.2216L46.4713 21.5869H44.9486L44.718 21.8608H45.3178L45.41 22.4088C45.5024 23.0252 45.5024 23.0252 45.8022 23.0252C46.0331 23.0252 46.0331 22.9794 45.8716 23.5274L45.7329 23.9839H45.2947C44.5334 23.9839 44.395 23.8699 44.2564 23.0937L44.1873 22.5914L43.9106 22.9568C43.1491 23.9839 43.1031 24.0068 42.1341 24.0068C41.5111 24.0068 41.5111 24.0068 41.6034 23.8241C41.6266 23.7329 41.6266 23.7329 41.4419 23.7329C41.2574 23.7329 41.2574 23.7329 41.2112 23.8699L41.1881 24.0068H39.8961L39.9192 23.9382C39.9886 23.7101 40.1038 23.7329 38.6966 23.7329C37.4737 23.7329 37.4047 23.7329 37.4278 23.6643L37.5431 23.2535C37.6814 22.8425 37.6584 22.8425 37.7968 22.8425C37.9122 22.8425 37.9122 22.8425 37.9582 22.6827C39.0427 19.0987 39.3888 17.9572 39.4348 17.7975L39.5272 17.5007H40.1731C40.5883 17.5007 40.8882 17.5234 40.8882 17.5462ZM32.6983 19.5095L32.4444 20.3085H31.0603C30.9219 20.7651 30.8757 20.902 30.8525 20.9477C30.8295 21.0163 30.8757 21.0163 31.5448 21.0163C31.937 21.0163 32.26 21.0392 32.26 21.0392C32.26 21.0618 32.2369 21.1075 32.2137 21.1761C32.1907 21.2216 32.1445 21.4043 32.0986 21.5869L32.0061 21.8837H30.5757L30.4142 22.4316C30.1835 23.2078 30.2066 23.2306 31.0833 23.1166C31.4525 23.0708 31.4294 23.0252 31.2679 23.5731L31.1295 24.0297H30.1604C28.6378 24.0297 28.6147 23.9839 29.0299 22.6827C29.1454 22.2718 29.2607 21.9294 29.2607 21.9294C29.2607 21.9294 29.0992 21.9065 28.8684 21.9065C28.6609 21.9065 28.4764 21.9065 28.4764 21.8837C28.6378 21.3131 28.7069 21.1303 28.7069 21.0847C28.73 21.0392 28.7762 21.0163 29.1223 21.0163H29.5144L29.699 20.3085H29.33C29.053 20.3085 28.9608 20.3085 28.9608 20.2628C28.9608 20.2174 29.1685 19.5553 29.1913 19.4866C29.2376 19.4412 32.7213 19.4638 32.6982 19.5095H32.6983ZM37.1739 21.1533C37.1739 21.199 37.1277 21.3359 37.1047 21.45C36.9661 22.0892 36.7818 22.2262 36.0434 22.2719C35.7898 22.2947 35.559 22.3175 35.559 22.3175C35.5127 22.386 35.5127 22.9339 35.559 23.0252L35.6283 23.1166L36.0896 23.0937C36.3433 23.0708 36.551 23.0708 36.551 23.0708C36.551 23.1166 36.2973 23.9156 36.2742 23.9382C36.228 23.984 34.8208 23.9611 34.6362 23.8927C34.3594 23.8013 34.3594 23.8241 34.3822 22.3859L34.4054 21.1304H35.582V21.6098H35.8129C36.0665 21.6098 36.0896 21.5869 36.2049 21.2673L36.2742 21.0847H36.7356C37.1508 21.1076 37.197 21.1076 37.1739 21.1533ZM39.3425 11.3826L39.0887 12.4784H39.4348C41.2112 12.524 41.9496 10.4921 40.2191 10.3552C39.9423 10.3323 39.6886 10.3095 39.6655 10.3095C39.5963 10.3095 39.5962 10.3781 39.3425 11.3826ZM30.1604 12.9349C29.7221 13.1175 29.3069 14.7612 29.653 15.0123C29.9067 15.2178 30.2759 14.8753 30.4605 14.3047C30.7604 13.2545 30.668 12.7522 30.1604 12.9349ZM43.9106 13.0489C43.449 13.2774 43.1031 14.8982 43.449 15.0808C43.9106 15.3319 44.5104 14.4645 44.5104 13.5284C44.5104 13.0947 44.2564 12.8892 43.9106 13.0489ZM34.59 18.4824L34.4747 18.8932C34.4054 19.0987 34.3594 19.2814 34.3363 19.304C34.3363 19.3269 34.4516 19.2814 34.6131 19.1899C35.0744 18.9617 35.2129 18.9161 35.8819 18.8932L36.4588 18.8703C36.551 18.5965 36.5741 18.4824 36.5741 18.4595C36.5972 18.4366 34.6131 18.4366 34.59 18.4824V18.4824ZM34.198 19.8063L34.1055 20.1716L36.0896 20.1487L36.2049 19.7834C34.6362 19.7834 34.198 19.7834 34.198 19.8063ZM40.473 18.9844C40.3807 19.2814 40.3115 19.5095 40.3346 19.5095L40.6114 19.4183C40.7498 19.3725 41.0037 19.304 41.1421 19.2814C41.2805 19.2585 41.3958 19.2356 41.4189 19.2356C41.4189 19.2356 41.6497 18.5279 41.6497 18.505C41.6497 18.505 41.4189 18.4824 41.1421 18.4824H40.6344L40.4729 18.9845L40.473 18.9844ZM40.1038 20.1487C40.1038 20.1716 40.0116 20.4 39.9423 20.6738C39.8502 20.9477 39.7809 21.199 39.7809 21.199C39.7809 21.2216 39.8961 21.1761 40.0576 21.1075C40.2191 21.0392 40.4499 20.9706 40.5883 20.9478C40.8882 20.902 40.9113 20.8794 40.9344 20.7651C40.9575 20.7196 41.0037 20.5369 41.0497 20.4L41.1421 20.1259H40.6344C40.3577 20.1259 40.1037 20.1259 40.1037 20.1487H40.1038ZM39.2964 22.7741L40.3115 22.797C40.5192 22.1121 40.5883 21.8837 40.5883 21.8608L39.5732 21.8153L39.2964 22.7741Z" fill="white"/>
</svg>
