<svg width="64" height="32" viewBox="0 0 64 32" fill="none" xmlns="http://www.w3.org/2000/svg">
<path d="M26.2987 6.97119H36.9127V25.0105H26.2987V6.97119Z" fill="#FF5F00"/>
<path d="M27.7287 16.0363C27.7287 12.3701 29.3969 9.12337 32.0916 6.97105C30.1485 5.45713 27.7287 4.47217 25.1072 4.47217C18.8012 4.54513 13.7599 9.67057 13.7599 16.0363C13.7599 22.4021 18.8012 27.5275 25.1072 27.5275C27.7287 27.5275 30.1485 26.6338 32.0916 25.0286C29.4702 22.9493 27.7287 19.7026 27.7287 16.0363Z" fill="#EB001B"/>
<path d="M50.4232 16.0729C50.4232 22.4205 45.382 27.5277 39.0759 27.5277C36.4545 27.5277 34.0347 26.6339 32.0916 25.047C34.713 22.9859 36.4545 19.6662 36.4545 16.0182C36.4545 12.3702 34.7863 9.12351 32.0916 6.98943C34.0347 5.47551 36.4545 4.50879 39.0759 4.50879C45.382 4.61823 50.4232 9.72543 50.4232 16.0729ZM49.3233 23.1683V22.8218H49.47V22.7488H49.1217V22.8218H49.2683V23.1683H49.3233ZM50.0749 23.1683V22.7488H49.9283L49.7816 23.0954L49.6349 22.7488H49.4883V23.1683H49.5616V22.8218L49.7083 23.0954H49.7816L49.9283 22.8218V23.1683H50.0749Z" fill="#F79E1B"/>
</svg>
