<svg width="65" height="32" viewBox="0 0 65 32" fill="none" xmlns="http://www.w3.org/2000/svg">
<path d="M43.736 7.67993C44.5046 7.93593 45.0811 8.38393 45.2732 9.21593C45.5294 10.2399 44.8889 11.2639 43.9282 11.5839C42.9034 11.9039 41.8146 11.3279 41.4943 10.3679C41.11 9.40793 41.6224 8.31993 42.5191 7.87193C42.6472 7.80793 42.8393 7.74393 42.9674 7.67993H43.736ZM19.8456 12.8639C18.8848 12.6079 17.9881 12.3519 17.0274 12.0959C16.0666 11.9039 15.0419 11.7759 14.0811 11.9679C13.889 12.0319 13.6968 12.0319 13.5687 12.0959C12.9923 12.2879 12.7361 12.7359 12.7361 13.2479C12.7361 13.7599 13.0563 14.1439 13.6328 14.2719C14.3373 14.3999 15.0419 14.3999 15.7464 14.5919C16.515 14.7839 17.2836 14.9759 17.9241 15.2959C21.2547 16.8959 21.1266 21.2479 18.4365 23.1039C17.1555 23.9999 15.6824 24.3199 14.2092 24.3199C12.4799 24.3199 10.6865 24.1919 8.95715 23.8079C8.6369 23.7439 8.50881 23.6159 8.57286 23.2959V20.1599C9.34145 20.3519 10.11 20.6079 10.8786 20.7359C11.9675 20.9279 13.0563 21.0559 14.0811 20.8639C14.4654 20.7999 14.7857 20.6719 15.1059 20.4799C15.5543 20.2239 15.8105 19.7759 15.6824 19.2639C15.6183 18.7519 15.234 18.4319 14.7216 18.3679C14.0171 18.2399 13.3125 18.1759 12.608 18.0479C11.5191 17.8559 10.5584 17.4719 9.72575 16.7679C7.22782 14.6559 7.93236 10.5599 11.0067 9.15193C12.4158 8.51193 13.889 8.44793 15.3621 8.51193C16.7712 8.57593 18.1162 8.76793 19.3972 9.21593C19.5253 9.27993 19.7175 9.40793 19.7175 9.53593C19.9096 10.6879 19.8456 11.7759 19.8456 12.8639ZM32.8476 12.8639C32.4633 13.6959 32.2071 14.5279 31.7588 15.3599C31.2464 16.2559 30.6699 17.1519 30.0935 18.0479C29.9013 18.3039 29.9654 18.4319 30.0935 18.6879C30.798 20.1599 31.5666 21.6959 32.2712 23.1679C32.3993 23.4239 32.4633 23.7439 32.5914 24.1279C32.4633 24.1279 32.3352 24.1919 32.2071 24.1919H27.9799C27.6596 24.1919 27.5956 24.0639 27.4675 23.8079C27.0191 22.5919 26.5708 21.3759 26.0584 20.1599C25.9943 20.0319 25.9303 19.9039 25.7381 19.8399V23.8079C25.7381 23.9359 25.546 24.1919 25.4819 24.1919H21.5749V9.47193C22.9199 9.21593 24.265 8.95993 25.6741 8.63993V16.5759C25.7381 16.6399 25.8022 16.6399 25.8662 16.7039C25.9303 16.5759 25.9303 16.5119 25.9943 16.3839C26.6348 15.2959 27.2113 14.2079 27.9158 13.1199C27.9799 12.9919 28.172 12.7359 28.3642 12.7359H32.6555C32.6555 12.7999 32.6555 12.7999 32.8476 12.8639ZM53.0873 24.1279V23.6159V9.91993C53.0873 9.47193 53.2154 9.34393 53.6637 9.27993L57.1224 8.70393V24.1919C55.7773 24.1279 54.4964 24.1279 53.0873 24.1279ZM51.1658 24.1279H47.1947V23.6159V9.79193C47.1947 9.40793 47.3228 9.27993 47.7071 9.21593C48.86 9.02393 50.0129 8.83193 51.2298 8.57593C51.1658 13.7599 51.1658 18.9439 51.1658 24.1279ZM37.4592 24.1279H33.6162C33.5522 24.1279 33.36 23.9359 33.36 23.8719C33.36 21.5039 33.296 19.0719 33.4241 16.7039C33.5522 14.7839 34.7691 13.4399 36.7546 12.9279C37.7154 12.6719 38.6761 12.7359 39.6369 12.6079C39.8931 12.6079 40.0212 12.6719 40.0212 12.9919V15.6159C40.0212 15.8719 39.8931 15.9999 39.6369 15.9999H39.3807C38.0356 16.1279 37.3951 16.7679 37.3311 18.1119C37.267 19.9039 37.3311 21.6959 37.3311 23.5519C37.4592 23.7439 37.4592 23.8719 37.4592 24.1279ZM45.3373 12.8639V24.1279H41.3662V12.8639H45.3373Z" fill="#552B5D"/>
</svg>
