<svg width="169" height="48" viewBox="0 0 169 48" fill="none" xmlns="http://www.w3.org/2000/svg">
<path d="M147.359 26.4803L145.1 31.8703H145.033L142.676 26.4803H140.545L144.076 34.014L142.058 38.2042H144.128L149.571 26.4803H147.358H147.359ZM131.4 22.0078H129.428V34.4379H131.4V22.0078ZM123.976 22.0078H119.234V34.4379H121.221V29.7329H123.984C126.307 29.8069 128.254 28.1029 128.334 25.9264C128.334 25.9084 128.335 25.8915 128.335 25.8735C128.286 23.6917 126.36 21.9602 124.032 22.0067C124.013 22.0067 123.995 22.0067 123.976 22.0078ZM124.029 27.9961H121.221V23.7636H124.037C125.285 23.7636 126.295 24.7107 126.295 25.8798C126.295 27.049 125.285 27.9961 124.037 27.9961H124.029ZM136.263 26.2118C134.786 26.1325 133.4 26.8798 132.732 28.1166L134.494 28.8217C134.851 28.2107 135.56 27.8555 136.301 27.9189C137.344 27.8206 138.273 28.5342 138.378 29.5109C138.378 29.5141 138.378 29.5172 138.378 29.5204V29.6472C137.747 29.327 137.04 29.1599 136.323 29.161C134.433 29.161 132.505 30.1346 132.505 31.9823C132.505 33.6472 134.049 34.7191 135.795 34.7191C136.808 34.7793 137.774 34.3132 138.309 33.5056H138.385V34.4654H140.312V29.6821C140.312 27.4739 138.55 26.2467 136.277 26.2467L136.262 26.2118H136.263ZM136.03 33.0267C135.382 33.0267 134.478 32.7159 134.478 31.9686C134.478 31.0088 135.6 30.642 136.579 30.642C137.211 30.6261 137.835 30.7699 138.386 31.0584C138.236 32.1736 137.23 33.014 136.03 33.0267ZM64.6456 34.7053C60.747 34.717 57.5635 31.7899 57.5015 28.1378C57.5635 24.4856 60.747 21.5585 64.6456 21.5702C66.4483 21.5416 68.1878 22.196 69.4716 23.383L68.1088 24.6462C67.1849 23.7974 65.9395 23.326 64.6456 23.3344C61.831 23.3344 59.5489 25.4729 59.5489 28.1103C59.5489 30.7477 61.831 32.8861 64.6456 32.8861C65.9756 32.9369 67.2673 32.458 68.1991 31.5669C68.8116 30.9474 69.1805 30.1515 69.2459 29.309H64.6456V27.5669H71.1197C71.1908 27.9369 71.2235 28.3122 71.2178 28.6885C71.2833 30.2498 70.6842 31.772 69.5539 32.921C68.2634 34.143 66.4776 34.792 64.6456 34.7053ZM81.2307 30.4728C81.3322 32.7846 79.4133 34.737 76.9462 34.8311C74.4791 34.9263 72.3955 33.1282 72.2951 30.8164C72.2906 30.7022 72.2906 30.587 72.2951 30.4728C72.1936 28.161 74.1125 26.2086 76.5796 26.1145C79.0467 26.0194 81.1303 27.8175 81.2307 30.1293C81.2352 30.2434 81.2352 30.3587 81.2307 30.4728ZM79.2735 30.4728C79.4055 29.1737 78.3879 28.0204 77.0015 27.8967C75.6151 27.7731 74.3844 28.7265 74.2524 30.0257C74.2377 30.1747 74.2377 30.3238 74.2524 30.4728C74.1204 31.772 75.1379 32.9252 76.5243 33.0489C77.9107 33.1726 79.1415 32.2191 79.2735 30.92C79.2881 30.7709 79.2881 30.6219 79.2735 30.4728ZM91.2436 30.4728C91.2436 32.7836 89.2446 34.6557 86.7797 34.6557C84.3149 34.6557 82.3159 32.7825 82.3159 30.4728C82.3159 28.1631 84.3149 26.29 86.7797 26.29C89.2446 26.29 91.2436 28.1631 91.2436 30.4728ZM89.2931 30.4728C89.4251 29.1737 88.4076 28.0204 87.0211 27.8967C85.6347 27.7731 84.404 28.7265 84.272 30.0257C84.2573 30.1747 84.2573 30.3238 84.272 30.4728C84.14 31.772 85.1576 32.9252 86.544 33.0489C87.9304 33.1726 89.1611 32.2191 89.2931 30.92C89.3078 30.7709 89.3078 30.6219 89.2931 30.4728ZM101.015 26.5014V34.0986C101.015 37.2169 99.0352 38.5002 96.7012 38.5002C94.9516 38.514 93.3655 37.5393 92.6807 36.0309L94.3898 35.3258C94.7519 36.2064 95.642 36.7983 96.6482 36.8279C98.1542 36.8279 99.0725 35.9601 99.0725 34.3449V33.7381H98.9969C98.399 34.3628 97.5428 34.7148 96.6482 34.7043C94.154 34.7043 92.1314 32.8089 92.1314 30.4718C92.1314 28.1346 94.154 26.2393 96.6482 26.2393C97.5495 26.2202 98.4148 26.5648 99.0273 27.1843H99.1029V26.4792H101.015V26.5003V26.5014ZM99.2608 30.494C99.3748 29.1779 98.3279 28.0236 96.9235 27.9168C96.8975 27.9147 96.8704 27.9137 96.8445 27.9115C95.3983 27.9559 94.2646 29.0912 94.3131 30.4464C94.3131 30.4623 94.3142 30.4781 94.3153 30.494C94.2488 31.8364 95.3554 32.976 96.7881 33.0383C96.8073 33.0383 96.8253 33.0394 96.8445 33.0404C98.2365 32.9897 99.3206 31.8914 99.2665 30.587C99.2654 30.5553 99.2631 30.5246 99.2608 30.4929V30.494ZM104.501 22.0215V34.4442H102.513V22.0215H104.501ZM112.33 31.8692L113.881 32.829C113.04 34.0045 111.627 34.7096 110.116 34.7053C107.701 34.7381 105.715 32.9295 105.681 30.6663C105.681 30.6018 105.681 30.5373 105.683 30.4728C105.484 28.3301 107.178 26.4433 109.464 26.2572C111.391 26.1008 113.179 27.2107 113.776 28.9348L113.979 29.421L107.956 31.7561C108.34 32.5648 109.211 33.0732 110.155 33.0404C111.047 33.0278 111.869 32.5849 112.331 31.8692H112.33ZM107.579 30.346L111.629 28.7794C111.309 28.1917 110.645 27.8397 109.943 27.883C108.577 27.939 107.516 29.0225 107.576 30.3026C107.576 30.3164 107.577 30.3301 107.578 30.3449L107.579 30.346Z" fill="white"/>
<path d="M34.814 22.6909L21.9922 35.2785C22.5134 37.0111 24.4356 38.0185 26.2834 37.5301C26.5632 37.4561 26.8328 37.3493 27.0844 37.2119L41.5114 29.5122L34.814 22.6899V22.6909Z" fill="#D6573B"/>
<path d="M47.7818 20.5481L41.5423 17.1993L34.52 22.9741L41.5717 29.492L47.7626 26.1792C49.422 25.3652 50.0627 23.4445 49.1941 21.8896C48.8737 21.3166 48.374 20.8483 47.7626 20.5481H47.7818Z" fill="#FAD000"/>
<path d="M21.993 11.391C21.9152 11.6595 21.8768 11.9364 21.878 12.2144V34.4531C21.878 34.7311 21.9174 35.008 21.993 35.2765L35.2548 23.0113L21.993 11.391Z" fill="#718ADF"/>
<path d="M34.9099 23.3347L41.5407 17.2016L27.1329 9.46594C26.5914 9.1689 25.9743 9.0114 25.346 9.00929C23.787 9.00611 22.4163 9.97651 21.9922 11.3814L34.9099 23.3337V23.3347Z" fill="#0D9012"/>
<path d="M60.8592 17.3051C58.8162 17.3051 57.5088 15.9087 57.5088 13.728C57.5088 11.5473 58.8117 10.2227 60.8592 10.2227C62.4408 10.2227 63.6422 11.1012 63.9163 12.4648H62.9586C62.654 11.5388 61.8891 11.0113 60.8603 11.0113C59.3543 11.0113 58.4474 12.0282 58.4474 13.7238C58.4474 15.4193 59.3701 16.5165 60.8603 16.5165C62.1576 16.5165 63.0499 15.728 63.0499 14.5789V14.4553H60.9867V13.7047H63.9626V14.3559C63.9626 16.2079 62.8119 17.3062 60.8603 17.3062L60.8592 17.3051Z" fill="white"/>
<path d="M69.658 17.1889H65.1265V10.3349H69.658V11.1044H66.0391V13.3042H69.4707V14.0642H66.0391V16.4205H69.658V17.19V17.1889Z" fill="white"/>
<path d="M72.7142 17.1889V11.1044H70.4072V10.3349H75.9326V11.1044H73.6257V17.1889H72.713H72.7142Z" fill="white"/>
<path d="M84.0686 17.1889V11.1044H81.7617V10.3349H87.2871V11.1044H84.9801V17.1889H84.0675H84.0686Z" fill="white"/>
<path d="M80.2412 17.1889V10.3349H81.1538V17.1889H80.2412Z" fill="white"/>
<path d="M97.2004 13.7661C97.2004 15.9415 95.9031 17.3051 93.8297 17.3051C91.7563 17.3051 90.459 15.9415 90.459 13.7661C90.459 11.5906 91.7563 10.2227 93.8297 10.2227C95.9031 10.2227 97.2004 11.5906 97.2004 13.7661ZM91.3964 13.7661C91.3964 15.4521 92.3339 16.5165 93.8297 16.5165C95.3255 16.5165 96.263 15.4521 96.263 13.7661C96.263 12.08 95.3255 11.0113 93.8297 11.0113C92.3339 11.0113 91.3964 12.0758 91.3964 13.7661Z" fill="white"/>
<path d="M98.3374 17.1889V10.3349H99.2241L103.229 15.7164H103.274V10.3349H104.176V17.1889H103.29L99.285 11.8264H99.2399V17.1889H98.3374Z" fill="white"/>
<rect x="0.5" y="0.999756" width="167.46" height="45.7943" rx="7.5" stroke="white"/>
</svg>
