<svg width="169" height="48" viewBox="0 0 169 48" fill="none" xmlns="http://www.w3.org/2000/svg">
<path d="M37.7691 15.6177C37.548 13.9589 38.4313 12.1979 39.4128 11.1159C40.5284 9.89071 42.471 8.95288 44.0165 8.89078C44.215 10.6212 43.4863 12.32 42.4157 13.5673C41.3012 14.7925 39.5132 15.7398 37.7691 15.6177Z" fill="white"/>
<path d="M50.5271 30.2906C50.5057 30.3927 49.8875 32.4021 48.3533 34.4304C47.0605 36.2239 45.726 37.9743 43.5849 38.0049C41.5092 38.0459 40.8143 36.8618 38.4296 36.8618C36.0448 36.8618 35.2845 37.9743 33.2968 38.0459C31.255 38.1185 29.7106 36.1313 28.3738 34.3598C25.7138 30.7338 23.6494 24.1426 26.42 19.6618C27.7568 17.4588 30.2171 16.0463 32.8343 16.0052C34.8648 15.9747 36.7634 17.2936 38.0111 17.2936C39.2587 17.2936 41.5758 15.7063 43.982 15.9442C44.9871 15.9758 47.857 16.3252 49.7115 18.8387C49.5683 18.9208 46.3013 20.7134 46.3341 24.4005C46.3781 28.8086 50.473 30.2717 50.5283 30.2927L50.5271 30.2906Z" fill="white"/>
<path d="M66.904 23.1799H64.2339L59.9189 35.6991H62.1447L63.3337 32.0204H67.6937L68.9481 35.6991H71.237L66.904 23.1799ZM63.7161 30.4774L64.834 27.2144C65.1239 26.1808 65.3326 25.3924 65.4702 24.8588H65.5154C65.8425 26.0966 66.0693 26.8755 66.1877 27.2144L67.3237 30.4774H63.7172H63.7161Z" fill="white"/>
<path d="M81.1648 27.7509C80.4011 26.912 79.4569 26.4889 78.313 26.4889C76.8589 26.4889 75.7692 27.0309 75.0529 28.1077H75.0156L74.8972 26.6752H73.0088C73.0629 27.6919 73.0911 28.6761 73.0911 29.6423V39.3638H75.2435V34.6252C75.8064 35.482 76.7236 35.9051 78.0039 35.9051C79.185 35.9051 80.1845 35.5146 80.9843 34.7178C81.8845 33.8273 82.329 32.6158 82.329 31.0822C82.329 29.7013 81.9477 28.5982 81.1671 27.7509H81.1648ZM79.4569 33.4547C79.0023 34.0315 78.3762 34.3284 77.5674 34.3284C76.877 34.3284 76.3141 34.1 75.8865 33.6505C75.4601 33.2011 75.2424 32.6411 75.2424 31.9896V30.4802C75.2424 30.3191 75.2785 30.116 75.3428 29.8707C75.4691 29.336 75.7602 28.9119 76.1877 28.5814C76.6243 28.2603 77.106 28.0898 77.6317 28.0898C78.4134 28.0898 79.0395 28.3866 79.5032 28.9803C79.9296 29.5476 80.1394 30.2686 80.1394 31.1496C80.1394 32.1074 79.9115 32.8706 79.458 33.4547H79.4569Z" fill="white"/>
<path d="M92.2835 27.7509C91.5209 26.912 90.5767 26.4889 89.4317 26.4889C87.9787 26.4889 86.889 27.0309 86.1715 28.1077H86.1354L86.017 26.6752H84.1274C84.1827 27.6919 84.2098 28.6761 84.2098 29.6423V39.3638H86.3622V34.6252C86.9262 35.482 87.8433 35.9051 89.1237 35.9051C90.3037 35.9051 91.3043 35.5146 92.103 34.7178C93.0032 33.8273 93.4488 32.6158 93.4488 31.0822C93.4488 29.7013 93.0675 28.5982 92.2857 27.7509H92.2835ZM90.5767 33.4547C90.1311 34.0315 89.4949 34.3284 88.6872 34.3284C87.9968 34.3284 87.4327 34.1 87.0063 33.6505C86.5788 33.2011 86.361 32.6411 86.361 31.9896V30.4802C86.361 30.3191 86.3983 30.116 86.4614 29.8707C86.5979 29.336 86.88 28.9119 87.3075 28.5814C87.7441 28.2603 88.2246 28.0898 88.7515 28.0898C89.5321 28.0898 90.1593 28.3866 90.6218 28.9803C91.0494 29.5476 91.2581 30.2686 91.2581 31.1496C91.2581 32.1074 91.0403 32.8706 90.5778 33.4547H90.5767Z" fill="white"/>
<path d="M105.06 30.0132C105.614 30.5974 105.887 31.3268 105.887 32.191C105.887 33.2583 105.487 34.1235 104.697 34.7929C103.825 35.5213 102.607 35.8865 101.046 35.8865C99.6011 35.8865 98.4482 35.6234 97.5762 35.1066L98.0759 33.4362C99.0201 33.953 100.056 34.2161 101.183 34.2161C101.99 34.2161 102.627 34.0467 103.071 33.7077C103.526 33.3688 103.752 32.9109 103.752 32.3436C103.752 31.8342 103.561 31.411 103.199 31.0637C102.826 30.7163 102.208 30.3943 101.345 30.0974C98.975 29.2754 97.8029 28.0797 97.8029 26.5124C97.8029 25.4872 98.2203 24.6483 99.0472 23.9873C99.8741 23.3347 100.973 23.0042 102.345 23.0042C103.562 23.0042 104.579 23.2 105.387 23.5979L104.842 25.2251C104.078 24.8441 103.224 24.6483 102.262 24.6483C101.509 24.6483 100.909 24.8262 100.482 25.1651C100.128 25.4788 99.9463 25.8514 99.9463 26.3008C99.9463 26.7924 100.156 27.2082 100.564 27.5218C100.919 27.8186 101.573 28.1397 102.517 28.487C103.671 28.9196 104.515 29.428 105.061 30.0132H105.06Z" fill="white"/>
<path d="M110.641 26.673H113.011V28.1824H110.641V32.5642C110.641 33.6747 111.058 34.2336 111.894 34.2336C112.276 34.2336 112.593 34.1999 112.849 34.1399L112.912 35.6661C112.485 35.8103 111.931 35.8861 111.241 35.8861C110.387 35.8861 109.733 35.6398 109.251 35.1567C108.771 34.6736 108.534 33.8599 108.534 32.7242V28.1729H107.127V26.673H108.534V25.0205L110.642 24.4268V26.672L110.641 26.673Z" fill="white"/>
<path d="M122.443 27.8175C121.58 26.9355 120.435 26.4945 119.018 26.4945C117.601 26.4945 116.375 26.9439 115.503 27.8344C114.639 28.7238 114.203 29.869 114.203 31.2668C114.203 32.6646 114.622 33.7161 115.465 34.5887C116.31 35.4623 117.445 35.9023 118.863 35.9023C120.281 35.9023 121.515 35.4444 122.405 34.5287C123.25 33.6382 123.678 32.5036 123.678 31.1131C123.678 29.7227 123.268 28.6638 122.443 27.8165V27.8175ZM120.862 33.3088C120.39 34.0382 119.744 34.4024 118.928 34.4024C118.111 34.4024 117.437 34.0466 116.974 33.3256C116.592 32.7414 116.402 32.0299 116.402 31.1984C116.402 30.3669 116.583 29.6227 116.974 29.029C117.419 28.3091 118.081 27.9523 118.946 27.9523C119.81 27.9523 120.426 28.308 120.88 29.029C121.262 29.6227 121.452 30.3258 121.452 31.1563C121.452 31.9868 121.253 32.6983 120.862 33.3088Z" fill="white"/>
<path d="M130.664 26.5215L130.673 28.4372C130.464 28.4035 130.236 28.3866 129.993 28.3866C129.239 28.3866 128.648 28.6498 128.238 29.1834C127.884 29.6487 127.703 30.2507 127.703 30.9623V35.7009H125.55V29.5139C125.55 28.4708 125.532 27.5225 125.486 26.6741H127.357L127.44 28.4035H127.504C127.731 27.8098 128.085 27.3267 128.575 26.9709C129.056 26.6499 129.574 26.4889 130.128 26.4889C130.328 26.4889 130.509 26.5057 130.664 26.5225V26.5215Z" fill="white"/>
<path d="M140.282 30.7574C140.282 29.6301 139.992 28.6891 139.419 27.9091C138.709 26.9439 137.647 26.4608 136.257 26.4608C134.867 26.4608 133.714 26.9439 132.878 27.9091C132.078 28.8165 131.68 29.9522 131.68 31.3089C131.68 32.6657 132.107 33.8003 132.961 34.6224C133.815 35.4455 134.994 35.8602 136.494 35.8602C137.739 35.8602 138.82 35.6739 139.737 35.3002L139.401 33.9109C138.619 34.1908 137.747 34.335 136.793 34.335C135.93 34.335 135.23 34.1224 134.685 33.7077C134.085 33.2414 133.777 32.5552 133.749 31.6647H140.198C140.252 31.4194 140.281 31.1142 140.281 30.7574H140.282ZM133.76 30.2322C133.825 29.6301 134.042 29.1049 134.397 28.6723C134.833 28.1302 135.405 27.8586 136.105 27.8586C136.868 27.8586 137.44 28.1386 137.812 28.6986C138.102 29.1301 138.249 29.6469 138.23 30.2406L133.76 30.2322Z" fill="white"/>
<path d="M63.9833 10.5883C66.3049 10.5883 67.6789 11.9209 67.6789 14.2186C67.6789 16.5164 66.3094 17.8742 63.9833 17.8742H61.2285V10.5883H63.9833ZM62.4412 16.8953H63.8694C65.5254 16.8953 66.4403 15.9512 66.4403 14.2292C66.4403 12.5072 65.5209 11.563 63.8694 11.563H62.4412V16.8953Z" fill="white"/>
<path d="M68.4375 15.2186C68.4375 13.5124 69.5148 12.4672 71.1381 12.4672C72.7614 12.4672 73.8388 13.5124 73.8388 15.2186C73.8388 16.9248 72.7671 17.9752 71.1381 17.9752C69.5092 17.9752 68.4375 16.93 68.4375 15.2186ZM72.6475 15.2186C72.6475 14.0418 72.0519 13.3661 71.1381 13.3661C70.2244 13.3661 69.6288 14.0429 69.6288 15.2186C69.6288 16.3943 70.2244 17.0763 71.1381 17.0763C72.0519 17.0763 72.6475 16.3995 72.6475 15.2186Z" fill="white"/>
<path d="M80.6716 17.8737H79.4544L78.2587 13.895H78.2316L77.046 17.8737H75.8389L74.2754 12.5625H75.4441L76.4831 16.7433H76.5045L77.6901 12.5625H78.8159L80.0061 16.7433H80.0331L81.0721 12.5625H82.2306L80.6716 17.8737Z" fill="white"/>
<path d="M82.9419 12.5643H84.0564V13.4527H84.0835C84.3915 12.8464 84.9984 12.4727 85.8749 12.4727C87.1305 12.4727 87.8502 13.2201 87.8502 14.4368V17.8756H86.6758V14.6494C86.6758 13.8516 86.2754 13.4127 85.4632 13.4127C84.6509 13.4127 84.1106 13.9579 84.1106 14.781V17.8766H82.9419V12.5654V12.5643Z" fill="white"/>
<path d="M89.022 10.5883H90.1907V17.8742H89.022V10.5883Z" fill="white"/>
<path d="M91.1377 15.2186C91.1377 13.5124 92.215 12.4672 93.8383 12.4672C95.4616 12.4672 96.539 13.5124 96.539 15.2186C96.539 16.9248 95.4673 17.9752 93.8383 17.9752C92.2094 17.9752 91.1377 16.93 91.1377 15.2186ZM95.3477 15.2186C95.3477 14.0418 94.7521 13.3661 93.8383 13.3661C92.9246 13.3661 92.329 14.0429 92.329 15.2186C92.329 16.3943 92.9246 17.0763 93.8383 17.0763C94.7521 17.0763 95.3477 16.3995 95.3477 15.2186Z" fill="white"/>
<path d="M97.2153 16.3659C97.2153 15.4364 97.9779 14.866 99.3316 14.7954L100.891 14.7091V14.2997C100.891 13.7092 100.463 13.3555 99.749 13.3555C99.0722 13.3555 98.6503 13.6587 98.5476 14.1334H97.4432C97.5086 13.1745 98.3852 12.4672 99.7919 12.4672C101.199 12.4672 102.054 13.1492 102.054 14.2144V17.8752H100.933V17.0016H100.906C100.576 17.5921 99.8562 17.9658 99.1094 17.9658C97.9948 17.9658 97.2153 17.3195 97.2153 16.3648V16.3659ZM100.89 15.8859V15.467L99.4884 15.548C98.7901 15.5933 98.3953 15.8817 98.3953 16.3353C98.3953 16.789 98.8071 17.1027 99.4343 17.1027C100.251 17.1027 100.89 16.5774 100.89 15.8859Z" fill="white"/>
<path d="M102.93 15.2186C102.93 13.5418 103.882 12.4766 105.311 12.4766C106.128 12.4766 106.778 12.8608 107.097 13.4461H107.118V10.5883H108.293V17.8742H107.157V16.97H107.135C106.8 17.5763 106.15 17.9647 105.322 17.9647C103.883 17.9647 102.931 16.8943 102.931 15.2175L102.93 15.2186ZM104.125 15.2186C104.125 16.3396 104.704 17.0416 105.63 17.0416C106.556 17.0416 107.13 16.3301 107.13 15.2186C107.13 14.1071 106.529 13.3955 105.63 13.3955C104.731 13.3955 104.125 14.1029 104.125 15.2186Z" fill="white"/>
<path d="M111.478 15.2186C111.478 13.5124 112.555 12.4672 114.178 12.4672C115.801 12.4672 116.879 13.5124 116.879 15.2186C116.879 16.9248 115.807 17.9752 114.178 17.9752C112.549 17.9752 111.478 16.93 111.478 15.2186ZM115.688 15.2186C115.688 14.0418 115.092 13.3661 114.178 13.3661C113.264 13.3661 112.669 14.0429 112.669 15.2186C112.669 16.3943 113.264 17.0763 114.178 17.0763C115.092 17.0763 115.688 16.3995 115.688 15.2186Z" fill="white"/>
<path d="M117.786 12.5643H118.901V13.4527H118.928C119.236 12.8464 119.843 12.4727 120.719 12.4727C121.975 12.4727 122.694 13.2201 122.694 14.4368V17.8756H121.52V14.6494C121.52 13.8516 121.12 13.4127 120.309 13.4127C119.497 13.4127 118.956 13.9579 118.956 14.781V17.8766H117.787V12.5654L117.786 12.5643Z" fill="white"/>
<path d="M127.58 11.3044V12.5611H128.662V13.4242H127.58V16.3524C127.58 16.8124 127.797 17.0187 128.273 17.0187C128.392 17.0187 128.581 17.0082 128.657 16.9935V17.8566C128.528 17.8871 128.268 17.9071 128.008 17.9071C126.855 17.9071 126.406 17.4976 126.406 16.4735V13.4242H125.578V12.5611H126.406V11.3044H127.58Z" fill="white"/>
<path d="M129.663 10.5875H130.822V13.4505H130.849C131.162 12.8295 131.785 12.4706 132.65 12.4706C133.9 12.4706 134.647 13.2484 134.647 14.4494V17.8723H133.473V14.661C133.473 13.8779 133.051 13.4084 132.228 13.4084C131.362 13.4084 130.832 13.9642 130.832 14.802V17.8723H129.663V10.5865V10.5875Z" fill="white"/>
<path d="M140.652 16.3143C140.489 17.2837 139.504 17.9752 138.2 17.9752C136.528 17.9752 135.517 16.9195 135.517 15.2438C135.517 13.5681 136.544 12.4672 138.152 12.4672C139.759 12.4672 140.717 13.5071 140.717 15.1175V15.4912H136.697V15.5564C136.697 16.4806 137.292 17.0911 138.229 17.0911C138.894 17.0911 139.387 16.7785 139.544 16.3132H140.653L140.652 16.3143ZM136.701 14.7291H139.547C139.52 13.9165 138.969 13.3461 138.151 13.3461C137.333 13.3461 136.76 13.9271 136.7 14.7291H136.701Z" fill="white"/>
<rect x="0.5" y="1.20541" width="167.46" height="45.7943" rx="7.5" stroke="white"/>
</svg>
