<svg width="169" height="48" viewBox="0 0 169 48" fill="none" xmlns="http://www.w3.org/2000/svg">
<rect x="0.959473" y="0.999756" width="167.46" height="45.7943" rx="7.5" stroke="white"/>
<g clip-path="url(#clip0_14494_4447)">
<g clip-path="url(#clip1_14494_4447)">
<path d="M58.8351 20.0008C58.9183 20.0005 59.0324 19.9928 59.0431 20.0799C59.0493 20.1324 59.0517 20.1854 59.0509 20.2381C59.0479 20.486 59.0309 21.0543 59.0314 21.4422C59.0352 23.8172 59.0341 25.616 59.0285 26.8377C59.023 28.0289 59.0259 29.3138 59.0373 30.6922C59.0408 31.0933 58.9942 31.5042 58.8009 31.8475C58.5443 32.3026 58.0641 32.6353 57.5431 32.6951C57.3391 32.7185 57.1258 32.7316 56.9035 32.7342C56.5282 32.7384 56.2388 32.7407 56.0363 32.741C56.0252 32.741 56.0179 32.7462 56.0148 32.7567C56.0024 32.7978 55.995 32.8452 55.9943 32.8983C55.9809 33.948 56.0059 35.4794 55.9933 36.5047C55.9876 36.9548 55.8466 37.3323 55.5714 37.6375C55.4403 37.7831 55.2986 37.8964 55.1466 37.9774C54.8732 38.1234 54.5878 38.1939 54.2912 38.1883C54.0406 38.1835 53.7854 38.1136 53.5255 37.9793C53.1749 37.7978 52.8801 37.4663 52.7707 37.0701C52.7102 36.8509 52.6792 36.6577 52.6779 36.491C52.6676 35.1044 52.6669 33.8721 52.6749 32.7947C52.675 32.7881 52.6735 32.7813 52.671 32.7752C52.6686 32.7692 52.6649 32.7632 52.6603 32.7586C52.6558 32.7542 52.6505 32.7503 52.6447 32.7479C52.6386 32.7454 52.6317 32.744 52.6251 32.744H50.3898C50.3825 32.744 50.375 32.746 50.3683 32.7488C50.3617 32.7516 50.3558 32.7555 50.3507 32.7606C50.3456 32.7657 50.3408 32.7724 50.338 32.7791C50.3355 32.7856 50.3341 32.7926 50.3341 32.7996C50.3394 34.0175 50.3392 35.1902 50.3332 36.3172C50.3323 36.4732 50.3211 36.5928 50.3107 36.7313C50.3069 36.7825 50.299 36.8369 50.2863 36.8944C50.1991 37.2922 49.9927 37.6139 49.6681 37.8592C49.4837 37.9986 49.2569 38.0986 48.9884 38.158C48.8086 38.1978 48.6272 38.203 48.4445 38.1736C48.08 38.115 47.7623 37.9553 47.4923 37.6951C47.4172 37.6227 47.3317 37.5074 47.2365 37.3485C47.1493 37.2027 47.0918 37.029 47.0636 36.8279C47.0366 36.6364 47.0229 36.407 47.0216 36.1404C47.0134 34.3864 47.0085 33.4562 47.008 33.3504C47.0065 33.0496 47.0051 32.861 47.0031 32.785C47.0029 32.7763 46.9992 32.769 46.9933 32.7625C46.9705 32.7384 46.9417 32.7266 46.9074 32.7274C46.5404 32.7358 46.234 32.7361 45.9884 32.7293C45.7144 32.7216 45.5321 32.7103 45.4416 32.6961C45.1438 32.6491 44.8713 32.529 44.6242 32.3358C44.2113 32.0136 44.0052 31.5529 43.9884 31.0233C43.9651 30.2911 43.9832 29.5423 43.9816 28.8211C43.9756 26.3799 43.9741 24.5233 43.9767 23.2518C43.9781 22.6219 43.9696 22.0137 43.9679 21.326C43.9668 20.9232 43.9486 20.4336 43.9552 20.0613C43.9558 20.0286 43.9723 20.011 44.005 20.0086C44.0518 20.005 44.1123 20.0037 44.1857 20.0037C50.6778 20.0048 54.5235 20.0049 55.7228 20.0047C56.7602 20.0045 57.7977 20.0034 58.8351 20.0008ZM41.8703 19.7254C42.2506 19.789 42.5781 19.9721 42.8517 20.2742C43.098 20.5462 43.216 20.8853 43.2472 21.2498C43.2505 21.2897 43.2525 21.4697 43.2521 21.7899C43.2468 25.0051 43.2456 27.1653 43.2501 28.2703C43.2512 28.5506 43.2134 28.8044 43.1359 29.0311C42.9694 29.517 42.5481 29.921 42.0353 30.0389C41.7022 30.1153 41.3782 30.1042 41.0636 30.0057C40.6564 29.8783 40.3477 29.6214 40.1378 29.2352C39.9889 28.9607 39.9396 28.6395 39.9396 28.3455C39.9412 26.131 39.9366 23.8957 39.9269 21.6404C39.9262 21.4578 39.9282 21.3313 39.9328 21.2615C39.9615 20.8178 40.1255 20.4539 40.424 20.1697C40.806 19.8054 41.3455 19.6377 41.8703 19.7254ZM61.1271 19.7235C61.6516 19.6356 62.1912 19.803 62.5734 20.1668C62.8717 20.4509 63.0347 20.8151 63.0636 21.2586C63.0682 21.3285 63.071 21.4551 63.0705 21.6375C63.062 23.8918 63.0587 26.1261 63.0617 28.3397C63.0619 28.6335 63.0123 28.954 62.8634 29.2283C62.6539 29.6145 62.3457 29.8713 61.9386 29.9988C61.6243 30.0975 61.3007 30.1092 60.9679 30.033C60.4551 29.9154 60.0331 29.5118 59.8664 29.0262C59.7889 28.7998 59.7512 28.5465 59.7521 28.2664C59.7559 27.1621 59.7543 25.0021 59.7472 21.7879C59.7467 21.468 59.7478 21.2877 59.7511 21.2479C59.7821 20.8834 59.8996 20.5444 60.1457 20.2723C60.4191 19.9701 60.7468 19.7873 61.1271 19.7235ZM56.1046 10.8318C56.1717 10.7891 56.2501 10.7961 56.339 10.8524C56.4799 10.9415 56.4307 11.094 56.3644 11.2108C56.3389 11.2559 56.15 11.6017 55.799 12.2488C55.6059 12.6051 55.4213 12.9121 55.2501 13.2313C55.2102 13.3067 55.2768 13.3543 55.3263 13.3817C55.5963 13.5312 55.825 13.6681 56.0119 13.7928C56.4783 14.1043 56.8867 14.4453 57.2374 14.8152C58.0678 15.6914 58.6657 16.7788 58.9416 17.9568C58.9571 18.0233 58.9858 18.1751 59.0275 18.4119C59.0419 18.4946 59.0522 18.5825 59.0587 18.6756C59.0727 18.878 59.1028 19.0983 59.0861 19.3045C59.0855 19.312 59.083 19.3193 59.0783 19.325C59.0735 19.3307 59.0669 19.3349 59.0597 19.3367C59.0011 19.3515 58.9375 19.3591 58.8693 19.3602C58.6636 19.3635 58.4628 19.3652 58.2667 19.3651C54.3782 19.3588 49.6843 19.358 44.1857 19.3631C44.104 19.3631 44.0199 19.3601 43.9347 19.3533C43.9245 19.3525 43.9146 19.3479 43.9074 19.3406C43.9001 19.3334 43.8955 19.3235 43.8947 19.3133C43.8782 19.1084 43.8881 18.9117 43.923 18.7235C43.9444 18.6083 43.9398 18.4844 43.965 18.3826C43.9918 18.2753 43.9971 18.1811 44.0207 18.0721C44.2322 17.1006 44.6314 16.2284 45.2189 15.4559C45.2213 15.453 45.2871 15.3703 45.4162 15.2078C45.8548 14.6556 46.3856 14.1784 47.008 13.7772C47.2211 13.6399 47.4557 13.4992 47.7111 13.3563C47.797 13.308 47.7388 13.199 47.7062 13.1434C47.4328 12.6768 47.1627 12.1871 46.8957 11.6746C46.8088 11.5075 46.6923 11.3269 46.6095 11.157C46.5382 11.0101 46.5611 10.9031 46.6789 10.8367C46.7789 10.7806 46.8933 10.7934 46.9572 10.8904C46.9878 10.9367 47.0432 11.032 47.1232 11.1756C47.3635 11.6068 47.5983 12.0401 47.8273 12.4754C47.9438 12.6967 48.05 12.871 48.1583 13.077C48.162 13.0838 48.1681 13.089 48.1749 13.0926C48.182 13.0962 48.1905 13.0977 48.1984 13.0965C48.2449 13.0892 48.2903 13.077 48.3341 13.0604C48.7074 12.9181 48.9269 12.8278 49.2306 12.7488C49.4403 12.6942 49.5778 12.6586 49.6427 12.6414C49.8037 12.5987 49.983 12.5646 50.1808 12.5389C50.4453 12.5046 50.6741 12.4629 50.9074 12.4568C51.2613 12.4477 51.6218 12.4465 51.9874 12.452C52.1718 12.4547 52.3538 12.4695 52.5333 12.4969C52.7676 12.5325 53.034 12.558 53.2648 12.618C53.632 12.7137 53.9043 12.7739 54.2238 12.8924C54.3386 12.935 54.5202 13.003 54.7687 13.0965C54.7847 13.1026 54.8026 13.1029 54.8185 13.0965C54.8344 13.0901 54.8472 13.0778 54.8546 13.0623C54.9259 12.9134 55.0257 12.7517 55.0929 12.6229C55.2386 12.3419 55.4022 12.04 55.5832 11.7176C55.7057 11.4994 55.8434 11.2286 55.9777 10.9959C56.0281 10.9085 56.0708 10.8536 56.1046 10.8318ZM54.9669 15.3524C54.8816 15.3524 54.7968 15.3686 54.7179 15.4012C54.639 15.4339 54.5674 15.4824 54.507 15.5428C54.4466 15.6032 54.3981 15.6748 54.3654 15.7537C54.3327 15.8326 54.3156 15.9173 54.3156 16.0027C54.3156 16.1753 54.385 16.3407 54.507 16.4627C54.629 16.5846 54.7944 16.6531 54.9669 16.6531C55.1394 16.6531 55.3049 16.5847 55.4269 16.4627C55.5489 16.3407 55.6173 16.1753 55.6173 16.0027C55.6173 15.9173 55.6002 15.8327 55.5675 15.7537C55.5349 15.6749 55.4872 15.6032 55.4269 15.5428C55.3665 15.4824 55.2949 15.4339 55.216 15.4012C55.1371 15.3685 55.0523 15.3524 54.9669 15.3524ZM48.0324 15.3494C47.8599 15.3494 47.6945 15.418 47.5724 15.5399C47.4503 15.6619 47.381 15.8281 47.381 16.0008C47.3811 16.1733 47.4504 16.3387 47.5724 16.4608C47.6945 16.5827 47.8598 16.6512 48.0324 16.6512C48.2049 16.6512 48.3703 16.5828 48.4923 16.4608C48.6143 16.3387 48.6827 16.1733 48.6828 16.0008C48.6828 15.8281 48.6144 15.6619 48.4923 15.5399C48.3703 15.418 48.2049 15.3495 48.0324 15.3494Z" fill="white"/>
</g>
</g>
<path d="M71.8252 18.7057V11.5963H73.832C74.4505 11.5963 74.9974 11.733 75.4727 12.0064C75.9479 12.2799 76.3141 12.6689 76.5713 13.1734C76.8317 13.678 76.9635 14.2574 76.9668 14.9117V15.3658C76.9668 16.0364 76.8366 16.624 76.5762 17.1285C76.319 17.6331 75.9495 18.0204 75.4678 18.2906C74.9893 18.5608 74.431 18.6991 73.793 18.7057H71.8252ZM72.7627 12.3678V17.9391H73.749C74.4717 17.9391 75.0332 17.7144 75.4336 17.2652C75.8372 16.816 76.0391 16.1764 76.0391 15.3463V14.9312C76.0391 14.124 75.8486 13.4973 75.4678 13.0514C75.0902 12.6021 74.5531 12.3743 73.8564 12.3678H72.7627ZM78.0068 16.0152C78.0068 15.4977 78.1077 15.0322 78.3096 14.6187C78.5146 14.2053 78.7979 13.8863 79.1592 13.6617C79.5238 13.4371 79.9388 13.3248 80.4043 13.3248C81.1237 13.3248 81.7048 13.5738 82.1475 14.0719C82.5934 14.5699 82.8164 15.2324 82.8164 16.0592V16.1227C82.8164 16.637 82.7171 17.0992 82.5186 17.5094C82.3232 17.9163 82.0417 18.2337 81.6738 18.4615C81.3092 18.6894 80.8893 18.8033 80.4141 18.8033C79.6979 18.8033 79.1169 18.5543 78.6709 18.0562C78.2282 17.5582 78.0068 16.899 78.0068 16.0787V16.0152ZM78.915 16.1227C78.915 16.7086 79.0501 17.179 79.3203 17.5338C79.5938 17.8886 79.9583 18.066 80.4141 18.066C80.873 18.066 81.2376 17.887 81.5078 17.5289C81.778 17.1676 81.9131 16.663 81.9131 16.0152C81.9131 15.4358 81.7747 14.9671 81.498 14.609C81.2246 14.2477 80.86 14.067 80.4043 14.067C79.9583 14.067 79.5986 14.2444 79.3252 14.5992C79.0518 14.954 78.915 15.4618 78.915 16.1227ZM88.627 17.4605L89.6426 13.4225H90.5459L89.0078 18.7057H88.2754L86.9912 14.7018L85.7412 18.7057H85.0088L83.4756 13.4225H84.374L85.4141 17.3775L86.6445 13.4225H87.3721L88.627 17.4605ZM92.3232 13.4225L92.3525 14.0865C92.7562 13.5787 93.2835 13.3248 93.9346 13.3248C95.0511 13.3248 95.6143 13.9547 95.624 15.2144V18.7057H94.7207V15.2096C94.7174 14.8287 94.6296 14.5471 94.457 14.3648C94.2878 14.1825 94.0225 14.0914 93.6611 14.0914C93.3682 14.0914 93.111 14.1695 92.8896 14.3258C92.6683 14.482 92.4958 14.6871 92.3721 14.941V18.7057H91.4688V13.4225H92.3232ZM97.9678 18.7057H97.0645V11.2057H97.9678V18.7057ZM99.1787 16.0152C99.1787 15.4977 99.2796 15.0322 99.4814 14.6187C99.6865 14.2053 99.9697 13.8863 100.331 13.6617C100.696 13.4371 101.111 13.3248 101.576 13.3248C102.296 13.3248 102.877 13.5738 103.319 14.0719C103.765 14.5699 103.988 15.2324 103.988 16.0592V16.1227C103.988 16.637 103.889 17.0992 103.69 17.5094C103.495 17.9163 103.214 18.2337 102.846 18.4615C102.481 18.6894 102.061 18.8033 101.586 18.8033C100.87 18.8033 100.289 18.5543 99.8428 18.0562C99.4001 17.5582 99.1787 16.899 99.1787 16.0787V16.0152ZM100.087 16.1227C100.087 16.7086 100.222 17.179 100.492 17.5338C100.766 17.8886 101.13 18.066 101.586 18.066C102.045 18.066 102.41 17.887 102.68 17.5289C102.95 17.1676 103.085 16.663 103.085 16.0152C103.085 15.4358 102.947 14.9671 102.67 14.609C102.396 14.2477 102.032 14.067 101.576 14.067C101.13 14.067 100.771 14.2444 100.497 14.5992C100.224 14.954 100.087 15.4618 100.087 16.1227ZM108.383 18.7057C108.331 18.6015 108.288 18.4159 108.256 18.149C107.836 18.5852 107.335 18.8033 106.752 18.8033C106.231 18.8033 105.803 18.6568 105.468 18.3639C105.136 18.0676 104.97 17.6933 104.97 17.2408C104.97 16.6907 105.178 16.2643 105.595 15.9615C106.015 15.6555 106.604 15.5025 107.362 15.5025H108.241V15.0875C108.241 14.7717 108.147 14.5211 107.958 14.3355C107.769 14.1467 107.491 14.0523 107.123 14.0523C106.801 14.0523 106.531 14.1337 106.312 14.2965C106.094 14.4592 105.985 14.6562 105.985 14.8873H105.077C105.077 14.6236 105.17 14.3697 105.355 14.1256C105.544 13.8782 105.798 13.6829 106.117 13.5396C106.439 13.3964 106.793 13.3248 107.177 13.3248C107.785 13.3248 108.262 13.4778 108.607 13.7838C108.952 14.0865 109.132 14.5048 109.145 15.0387V17.4703C109.145 17.9553 109.206 18.3411 109.33 18.6275V18.7057H108.383ZM106.884 18.0172C107.167 18.0172 107.436 17.9439 107.689 17.7975C107.943 17.651 108.127 17.4605 108.241 17.2262V16.1422H107.533C106.426 16.1422 105.873 16.4661 105.873 17.1139C105.873 17.3971 105.967 17.6184 106.156 17.7779C106.345 17.9374 106.588 18.0172 106.884 18.0172ZM110.341 16.0201C110.341 15.2096 110.533 14.5585 110.917 14.067C111.301 13.5722 111.804 13.3248 112.426 13.3248C113.044 13.3248 113.534 13.5364 113.896 13.9596V11.2057H114.799V18.7057H113.969L113.925 18.1393C113.563 18.582 113.061 18.8033 112.416 18.8033C111.804 18.8033 111.304 18.5527 110.917 18.0514C110.533 17.5501 110.341 16.8958 110.341 16.0885V16.0201ZM111.244 16.1227C111.244 16.7216 111.368 17.1904 111.615 17.5289C111.863 17.8674 112.204 18.0367 112.641 18.0367C113.214 18.0367 113.632 17.7796 113.896 17.2652V14.8385C113.625 14.3404 113.21 14.0914 112.65 14.0914C112.208 14.0914 111.863 14.2623 111.615 14.6041C111.368 14.9459 111.244 15.4521 111.244 16.1227ZM119.911 12.1432V13.4225H120.897V14.1207H119.911V17.3971C119.911 17.6087 119.955 17.7682 120.043 17.8756C120.131 17.9797 120.281 18.0318 120.492 18.0318C120.596 18.0318 120.74 18.0123 120.922 17.9732V18.7057C120.684 18.7708 120.453 18.8033 120.229 18.8033C119.825 18.8033 119.521 18.6812 119.315 18.4371C119.11 18.193 119.008 17.8463 119.008 17.3971V14.1207H118.046V13.4225H119.008V12.1432H119.911ZM122.86 14.0621C123.261 13.5706 123.782 13.3248 124.423 13.3248C125.539 13.3248 126.103 13.9547 126.112 15.2144V18.7057H125.209V15.2096C125.206 14.8287 125.118 14.5471 124.945 14.3648C124.776 14.1825 124.511 14.0914 124.149 14.0914C123.856 14.0914 123.599 14.1695 123.378 14.3258C123.157 14.482 122.984 14.6871 122.86 14.941V18.7057H121.957V11.2057H122.86V14.0621ZM129.657 18.8033C128.941 18.8033 128.358 18.5689 127.909 18.1002C127.46 17.6282 127.235 16.9983 127.235 16.2105V16.0445C127.235 15.5204 127.335 15.0533 127.533 14.6432C127.735 14.2297 128.015 13.9075 128.373 13.6764C128.734 13.442 129.125 13.3248 129.545 13.3248C130.232 13.3248 130.766 13.551 131.146 14.0035C131.527 14.456 131.718 15.1038 131.718 15.9469V16.3228H128.139C128.152 16.8437 128.303 17.2652 128.593 17.5875C128.886 17.9065 129.257 18.066 129.706 18.066C130.025 18.066 130.295 18.0009 130.517 17.8707C130.738 17.7405 130.932 17.568 131.098 17.3531L131.649 17.7828C131.207 18.4631 130.543 18.8033 129.657 18.8033ZM129.545 14.067C129.18 14.067 128.874 14.2004 128.627 14.4674C128.38 14.731 128.227 15.1021 128.168 15.5807H130.814V15.5123C130.788 15.0533 130.665 14.6985 130.443 14.4478C130.222 14.1939 129.923 14.067 129.545 14.067Z" fill="white"/>
<path d="M76.6094 27.7629L73.3672 37.4113H71.0938L75.3438 26.0363H76.7969L76.6094 27.7629ZM79.3203 37.4113L76.0625 27.7629L75.8672 26.0363H77.3281L81.6016 37.4113H79.3203ZM79.1719 33.1848V34.8801H73.0703V33.1848H79.1719ZM87.1484 33.2629H84.2188V31.5754H87.1484C87.6276 31.5754 88.0156 31.4973 88.3125 31.341C88.6146 31.1795 88.8359 30.9608 88.9766 30.6848C89.1172 30.4035 89.1875 30.0832 89.1875 29.7238C89.1875 29.3749 89.1172 29.0493 88.9766 28.7473C88.8359 28.4452 88.6146 28.2004 88.3125 28.0129C88.0156 27.8254 87.6276 27.7316 87.1484 27.7316H84.9219V37.4113H82.7734V26.0363H87.1484C88.0339 26.0363 88.7891 26.1952 89.4141 26.5129C90.0443 26.8254 90.5234 27.2603 90.8516 27.8176C91.1849 28.3696 91.3516 28.9999 91.3516 29.7082C91.3516 30.4426 91.1849 31.0754 90.8516 31.6066C90.5234 32.1379 90.0443 32.5467 89.4141 32.8332C88.7891 33.1196 88.0339 33.2629 87.1484 33.2629ZM95.1875 26.0363V37.4113H93.0391V26.0363H95.1875ZM102.016 26.0363L97.4531 31.5832L94.8438 34.3723L94.4609 32.2863L96.2734 29.9348L99.3828 26.0363H102.016ZM99.625 37.4113L96.0859 32.0832L97.625 30.6926L102.18 37.4113H99.625ZM109.312 26.0363V37.4113H107.164V26.0363H109.312ZM113.898 30.9504V32.6457H108.75V30.9504H113.898ZM114.5 26.0363V27.7316H108.75V26.0363H114.5ZM117.992 28.9582V37.4113H115.922V28.9582H117.992ZM115.781 26.7473C115.781 26.44 115.885 26.1848 116.094 25.9816C116.307 25.7785 116.594 25.6769 116.953 25.6769C117.312 25.6769 117.596 25.7785 117.805 25.9816C118.018 26.1848 118.125 26.44 118.125 26.7473C118.125 27.0493 118.018 27.3019 117.805 27.5051C117.596 27.7082 117.312 27.8098 116.953 27.8098C116.594 27.8098 116.307 27.7082 116.094 27.5051C115.885 27.3019 115.781 27.0493 115.781 26.7473ZM122.148 25.4113V37.4113H120.078V25.4113H122.148ZM127.914 37.5676C127.273 37.5676 126.698 37.4634 126.188 37.2551C125.677 37.0467 125.242 36.7577 124.883 36.3879C124.529 36.0129 124.255 35.578 124.062 35.0832C123.875 34.5832 123.781 34.0467 123.781 33.4738V33.1613C123.781 32.5103 123.875 31.9191 124.062 31.3879C124.25 30.8514 124.516 30.3905 124.859 30.0051C125.203 29.6196 125.615 29.3228 126.094 29.1144C126.573 28.9061 127.102 28.8019 127.68 28.8019C128.279 28.8019 128.807 28.9035 129.266 29.1066C129.724 29.3045 130.107 29.5858 130.414 29.9504C130.721 30.315 130.953 30.7525 131.109 31.2629C131.266 31.7681 131.344 32.328 131.344 32.9426V33.8098H124.719V32.3879H129.312V32.2316C129.302 31.9035 129.24 31.604 129.125 31.3332C129.01 31.0571 128.833 30.8384 128.594 30.6769C128.354 30.5103 128.044 30.4269 127.664 30.4269C127.357 30.4269 127.089 30.4946 126.859 30.6301C126.635 30.7603 126.448 30.9478 126.297 31.1926C126.151 31.4321 126.042 31.7186 125.969 32.0519C125.896 32.3853 125.859 32.7551 125.859 33.1613V33.4738C125.859 33.828 125.906 34.1561 126 34.4582C126.099 34.7603 126.242 35.0233 126.43 35.2473C126.622 35.466 126.852 35.6379 127.117 35.7629C127.388 35.8827 127.695 35.9426 128.039 35.9426C128.471 35.9426 128.862 35.8592 129.211 35.6926C129.565 35.5207 129.872 35.2681 130.133 34.9348L131.172 36.0129C130.995 36.2733 130.755 36.5233 130.453 36.7629C130.156 37.0025 129.797 37.1978 129.375 37.3488C128.953 37.4946 128.466 37.5676 127.914 37.5676Z" fill="white"/>
<defs>
<clipPath id="clip0_14494_4447">
<rect x="32" y="5" width="39" height="39" rx="19.5" fill="white"/>
</clipPath>
<clipPath id="clip1_14494_4447">
<rect width="27.4219" height="27.4219" fill="white" transform="translate(37.7891 10.7891)"/>
</clipPath>
</defs>
</svg>
